<?xml version="1.0" encoding="utf-8" standalone="no"?>
<!DOCTYPE svg PUBLIC "-//W3C//DTD SVG 1.1//EN"
  "http://www.w3.org/Graphics/SVG/1.1/DTD/svg11.dtd">
<!-- Created with matplotlib (http://matplotlib.org/) -->
<svg height="910pt" version="1.1" viewBox="0 0 850 910" width="850pt" xmlns="http://www.w3.org/2000/svg" xmlns:xlink="http://www.w3.org/1999/xlink">
 <defs>
  <style type="text/css">
*{stroke-linecap:butt;stroke-linejoin:round;stroke-miterlimit:100000;}
  </style>
 </defs>
 <g id="figure_1">
  <g id="patch_1">
   <path d="M 0 910.8 
L 850.149159 910.8 
L 850.149159 -0 
L 0 -0 
z
" style="fill:#f0f0f0;"/>
  </g>
  <g id="axes_1">
   <g id="patch_2">
    <path d="M 7.2 903.6 
L 842.949159 903.6 
L 842.949159 7.2 
L 7.2 7.2 
z
" style="fill:#f0f0f0;"/>
   </g>
   <g id="matplotlib.axis_1"/>
   <g id="matplotlib.axis_2"/>
   <g id="LineCollection_1">
    <path clip-path="url(#p38b6e9c56d)" d="M 842.949159 752.541272 
L 794.276438 772.025092 
L 791.890395 784.253174 
L 781.018053 785.121147 
L 777.113259 795.268425 
L 768.418342 796.270575 
L 758.243004 809.629766 
L 765.737051 809.755656 
L 762.877903 818.50785 
L 747.692049 820.893832 
L 745.446039 826.401083 
L 735.074921 824.408588 
L 732.825382 832.212377 
L 717.506227 824.669051 
L 719.258497 829.61776 
L 711.853106 831.389444 
L 702.698385 820.6499 
L 680.268903 818.471685 
L 678.324997 805.896262 
L 661.892573 809.511938 
L 657.737245 803.726804 
L 661.752863 802.47859 
L 649.540655 798.789402 
L 649.926365 809.120162 
L 644.770445 803.464513 
L 648.94792 809.726116 
L 637.432655 808.498168 
L 634.068841 799.115597 
L 634.839987 807.643248 
L 631.175312 800.423811 
L 606.761649 798.684058 
L 600.840963 791.066539 
L 565.150652 816.63941 
L 554.121931 815.499431 
L 538.635229 835.627222 
L 535.728163 831.602256 
L 536.537877 851.484167 
L 533.673358 846.732364 
L 530.329256 854.842293 
L 535.085116 857.493988 
L 536.436493 851.770422 
L 535.629289 873.975032 
L 544.236696 895.446672 
L 554.295958 898.849011 
L 547.443089 903.6 
" style="fill:none;stroke:#000000;"/>
    <path clip-path="url(#p38b6e9c56d)" d="M 7.2 772.786071 
L 13.699487 771.143148 
L 63.889827 789.389913 
L 106.155695 782.800894 
L 105.846018 791.414898 
L 120.182294 782.294571 
L 129.883757 787.44614 
L 123.918888 790.170794 
L 127.034401 794.471282 
L 128.482675 789.758386 
L 136.364478 791.768326 
L 155.432163 802.024897 
L 159.952412 791.899554 
L 172.338459 790.780737 
L 175.848606 798.99022 
L 178.734915 794.857381 
L 210.324982 808.913119 
L 244.037376 797.351554 
L 254.891155 779.1699 
L 270.130375 702.676255 
L 274.719325 692.576963 
L 285.445684 693.801372 
L 276.615849 683.26092 
L 270.31646 695.290195 
L 283.966552 615.759545 
L 300.870171 634.947708 
L 309.06713 660.776933 
L 317.803366 664.581776 
L 309.655497 657.962575 
L 301.782335 624.040896 
L 275.906561 603.951125 
L 276.132326 595.63854 
L 283.159605 596.350231 
L 279.943738 590.210818 
L 291.284254 580.520502 
L 286.46524 581.497189 
L 282.853412 564.293594 
L 277.449353 563.547784 
L 286.486589 550.675488 
L 279.816039 554.722924 
L 244.940113 533.49042 
L 226.84996 504.240227 
L 236.593435 484.823656 
L 222.12785 477.036222 
L 227.453557 465.745674 
L 219.725371 468.314367 
L 205.741054 462.581935 
L 210.037035 462.377522 
L 205.401223 455.122335 
L 212.941485 452.353838 
L 209.483478 445.101911 
L 215.924161 444.524105 
L 201.702274 443.86326 
L 205.254064 439.988709 
L 190.980736 444.606532 
L 185.54105 438.247212 
L 196.14593 440.128402 
L 198.470705 432.337974 
L 185.469513 436.050619 
L 182.687632 428.963112 
L 184.810043 438.267961 
L 179.115406 430.806628 
L 172.575977 444.510435 
L 169.048695 429.919289 
L 174.073238 420.892953 
L 168.751946 429.649505 
L 160.511635 424.998639 
L 165.153736 425.659295 
L 160.524147 423.48678 
L 165.738222 417.497266 
L 155.306417 424.147481 
L 151.707181 415.178906 
L 142.753987 416.227577 
L 139.187506 410.344279 
L 132.527902 414.350329 
L 128.060692 404.14232 
L 122.078937 408.698805 
L 116.595492 402.343251 
L 113.82905 411.759737 
L 102.525366 411.2382 
L 100.29912 396.00124 
L 83.428635 388.416901 
L 108.887988 386.216523 
L 110.772604 380.72511 
L 102.595565 373.007402 
L 94.917977 378.312329 
L 91.4099 368.174362 
L 97.424086 363.409553 
L 96.747065 368.391259 
L 118.411182 373.370937 
L 108.448454 366.702559 
L 112.769759 363.574454 
L 101.860991 365.130694 
L 111.470819 357.419584 
L 83.697867 363.337772 
L 84.750796 348.269339 
L 96.674555 344.689665 
L 99.216278 338.068167 
L 130.266097 332.914648 
L 138.167483 342.912053 
L 140.858201 334.776562 
L 153.186396 339.901088 
L 158.989044 325.941938 
L 165.574488 329.450117 
L 175.503443 324.192794 
L 175.914679 329.762108 
L 184.130912 323.645633 
L 180.023398 334.875116 
L 187.259264 329.183602 
L 204.100637 358.419547 
L 226.083434 343.022832 
L 224.726181 348.979615 
L 229.979378 347.128238 
L 231.522201 353.402179 
L 241.200617 348.274623 
L 244.941491 357.39532 
L 242.18021 347.362048 
L 248.003337 343.188731 
L 253.262524 342.680984 
L 256.856618 352.21427 
L 280.600379 350.805095 
L 268.933806 340.721118 
L 272.238464 299.854176 
L 258.098418 285.831444 
L 252.523382 255.006253 
L 269.877173 263.106188 
L 290.029046 259.397835 
L 286.944259 272.090716 
L 296.999521 291.847567 
L 304.151721 285.975562 
L 345.69485 298.819222 
L 359.798005 294.013099 
L 387.473815 281.574951 
L 369.92559 281.555475 
L 363.949982 277.866856 
L 372.282924 261.036442 
L 393.452569 249.707438 
L 422.105885 244.575712 
L 446.162035 219.740439 
L 454.210676 222.082747 
L 447.279194 213.894185 
L 450.212989 162.546572 
L 500.244844 145.185765 
L 554.564287 116.005754 
L 571.156286 122.136312 
L 579.862021 115.628484 
L 594.860303 120.104065 
L 579.768975 111.1632 
L 571.166615 117.739489 
L 550.314815 105.304218 
L 571.971585 98.573796 
L 593.511618 113.154311 
L 593.593481 103.979746 
L 580.029029 99.889095 
L 592.118743 100.591207 
L 586.382842 94.780529 
L 615.326118 88.338117 
L 583.4694 78.525748 
L 580.609518 67.596924 
L 587.396947 67.468949 
L 611.545722 22.610504 
L 613.422099 7.2 
L 613.422099 7.2 
" style="fill:none;stroke:#000000;"/>
    <path clip-path="url(#p38b6e9c56d)" d="M 642.466106 7.2 
L 642.329286 7.494772 
L 632.742533 8.446766 
L 634.197919 22.617436 
L 639.585005 22.786828 
L 628.710098 29.869128 
L 646.013194 35.655898 
L 638.68357 29.74728 
L 656.123524 14.114001 
L 676.267075 10.700906 
L 668.359968 7.2 
" style="fill:none;stroke:#000000;"/>
    <path clip-path="url(#p38b6e9c56d)" d="M 363.539298 168.176864 
L 363.26586 168.173992 
L 348.440966 164.034022 
L 319.930103 172.488721 
L 313.338575 167.225764 
L 319.212856 163.03523 
L 299.334337 160.965812 
L 300.872435 167.29751 
L 283.167369 153.94668 
L 290.082858 165.728486 
L 278.355633 172.073024 
L 251.57186 168.355786 
L 255.89981 180.372851 
L 230.108474 175.464128 
L 227.832506 185.772604 
L 210.487128 167.094426 
L 178.823855 174.498522 
L 172.955851 167.002241 
L 175.229853 174.125809 
L 166.104445 179.430687 
L 170.855784 179.861277 
L 168.428699 196.330448 
L 159.977276 188.630139 
L 165.890327 197.00208 
L 160.772949 206.605442 
L 153.87837 206.071662 
L 153.819011 200.878881 
L 151.080732 206.354587 
L 145.437486 195.8889 
L 138.76146 198.522874 
L 130.568877 188.722768 
L 129.426885 196.307484 
L 124.657309 191.504697 
L 100.253834 191.815801 
L 96.939929 201.298917 
L 84.758688 207.280152 
L 85.27292 198.341069 
L 79.89519 200.832463 
L 83.099299 206.657066 
L 73.385135 210.207363 
L 81.33822 214.503089 
L 72.562145 221.638897 
L 58.189447 205.573248 
L 52.753363 211.601803 
L 45.164437 209.850324 
L 48.277369 201.28456 
L 61.569158 201.505074 
L 78.429297 188.524404 
L 86.563398 171.818084 
L 97.019323 175.17211 
L 92.352338 168.967498 
L 100.088647 168.742573 
L 114.244739 154.121188 
L 118.048269 133.665074 
L 127.797423 137.352749 
L 143.410762 130.826585 
L 135.254837 130.511596 
L 135.336386 120.772321 
L 159.846409 117.737305 
L 179.987711 124.745448 
L 198.821032 126.442524 
L 204.248155 108.596968 
L 220.429381 101.148551 
L 238.265619 78.7358 
L 235.866716 73.969632 
L 235.507361 73.945131 
L 219.741072 92.987002 
L 208.979938 96.5368 
L 205.162553 91.805233 
L 194.057799 106.484378 
L 181.330154 107.59541 
L 164.786677 97.790787 
L 159.928406 84.4494 
L 133.962725 88.255315 
L 137.903147 81.002399 
L 146.670044 80.810856 
L 133.535295 77.92289 
L 134.18405 67.673704 
L 99.72778 82.177306 
L 91.001784 74.01354 
L 103.906616 71.996921 
L 93.016781 69.319152 
L 88.188954 73.779148 
L 84.514084 68.542287 
L 92.574625 65.982774 
L 92.331999 59.089844 
L 82.093479 57.449747 
L 96.848389 43.989959 
L 109.603552 46.116131 
L 115.492216 38.258589 
L 144.5312 28.010193 
L 153.413019 7.2 
" style="fill:none;stroke:#000000;"/>
    <path clip-path="url(#p38b6e9c56d)" d="M 458.430141 7.2 
L 461.19085 23.875438 
L 451.089052 57.829054 
L 437.014034 71.037087 
L 429.03519 62.347143 
L 434.86231 68.812967 
L 423.187926 69.1397 
L 435.475382 69.611592 
L 432.380995 80.87985 
L 421.999401 84.867288 
L 418.183931 77.810445 
L 419.161439 83.375722 
L 403.110221 88.079901 
L 416.280459 86.889191 
L 411.928843 97.661185 
L 415.782446 100.067533 
L 378.990551 110.049232 
L 402.694876 109.932218 
L 393.401233 116.965432 
L 402.79643 118.073617 
L 405.705375 112.366256 
L 414.064486 115.233665 
L 414.01678 120.594596 
L 405.739722 117.445766 
L 413.451904 121.733824 
L 442.17724 117.558858 
L 440.177077 138.229276 
L 420.746601 147.014638 
L 417.051531 158.865619 
L 405.900905 156.642786 
L 376.535814 173.366641 
L 363.539298 168.176864 
" style="fill:none;stroke:#000000;"/>
    <path clip-path="url(#p38b6e9c56d)" d="M 32.954318 7.2 
L 31.625501 9.929397 
L 23.710526 8.386958 
L 26.959281 15.466999 
L 30.98048 10.948454 
L 32.811363 19.274355 
L 29.639577 24.984529 
L 17.546654 23.838045 
L 7.281223 19.641429 
L 9.341184 14.61961 
L 7.2 17.001621 
" style="fill:none;stroke:#000000;"/>
    <path clip-path="url(#p38b6e9c56d)" d="M 615.465082 88.353164 
L 622.726194 80.974418 
L 619.179842 85.864495 
L 625.129275 88.177915 
L 615.76147 88.272526 
L 615.465082 88.353164 
" style="fill:none;stroke:#000000;"/>
   </g>
   <g id="LineCollection_2">
    <path clip-path="url(#p38b6e9c56d)" d="M 703.711177 232.884325 
L 700.893654 227.96266 
L 703.520593 212.817412 
L 715.543186 204.372618 
L 713.711448 194.344465 
L 702.92469 187.544469 
L 707.23178 179.079391 
L 693.570203 171.555469 
L 695.570873 154.175611 
L 683.298262 143.70588 
L 699.427537 133.097284 
L 694.030889 126.206884 
L 701.424579 115.107032 
L 684.769254 76.059517 
L 696.418419 74.451196 
L 695.511076 68.578127 
L 709.118837 74.605205 
L 727.072045 66.871968 
L 731.184128 60.454062 
L 723.402261 53.173745 
L 741.726062 37.267701 
L 737.28983 18.3117 
L 725.133822 18.974702 
L 720.929491 11.497106 
L 722.575763 7.2 
" style="fill:none;stroke:#000000;stroke-width:0.5;"/>
    <path clip-path="url(#p38b6e9c56d)" d="M 630.714384 235.825014 
L 629.571004 221.460136 
L 616.431553 236.25742 
" style="fill:none;stroke:#000000;stroke-width:0.5;"/>
    <path clip-path="url(#p38b6e9c56d)" d="M 592.423577 236.878899 
L 595.251116 213.937463 
L 584.97852 206.325186 
L 567.02055 211.019429 
L 561.786865 195.046521 
L 543.223746 191.306531 
L 535.842678 169.674322 
L 522.378014 177.891336 
L 516.741874 175.215531 
L 505.931172 164.453404 
L 502.509404 143.887323 
" style="fill:none;stroke:#000000;stroke-width:0.5;"/>
    <path clip-path="url(#p38b6e9c56d)" d="M 692.469962 168.074033 
L 675.349999 168.748521 
L 671.802663 161.530514 
L 682.050236 134.015297 
L 663.205806 122.880257 
L 647.982003 126.013315 
L 637.234107 107.230756 
L 631.479763 115.035503 
L 623.483625 113.90706 
L 624.255309 106.430869 
L 616.317625 113.37233 
L 607.333796 108.655461 
L 602.399875 111.438289 
L 604.447719 119.033107 
L 594.225655 118.237983 
L 576.031165 133.205626 
L 560.191519 124.949719 
L 551.127653 130.253356 
L 547.26021 119.233776 
" style="fill:none;stroke:#000000;stroke-width:0.5;"/>
    <path clip-path="url(#p38b6e9c56d)" d="M 701.735609 222.047086 
L 692.527522 218.859986 
L 685.0582 233.752099 
" style="fill:none;stroke:#000000;stroke-width:0.5;"/>
    <path clip-path="url(#p38b6e9c56d)" d="M 796.924397 435.826579 
L 791.715579 425.959748 
L 796.693022 402.385123 
L 793.271994 389.938457 
L 804.618876 344.103376 
L 825.136761 314.776335 
L 792.075515 310.180043 
L 778.728841 299.696832 
L 771.154316 305.831725 
L 757.388725 306.638951 
L 750.439115 297.622657 
L 739.458275 302.97781 
L 727.52965 281.222116 
L 717.367084 278.805387 
L 724.864951 248.322665 
L 709.418683 242.79747 
L 703.711177 232.884325 
" style="fill:none;stroke:#000000;stroke-width:0.5;"/>
    <path clip-path="url(#p38b6e9c56d)" d="M 815.201798 761.995397 
L 812.358909 754.151305 
L 824.460538 736.276124 
L 821.656063 727.554075 
L 801.873516 733.241556 
L 779.126731 724.271882 
L 771.487578 713.995924 
L 774.73568 708.071084 
L 769.190313 699.973817 
L 776.058725 686.760417 
L 781.89116 686.214854 
L 778.686009 674.357578 
L 760.8549 667.80243 
L 752.21066 651.843544 
L 779.392579 640.629161 
L 784.775074 623.608796 
L 761.031758 598.637079 
L 760.175252 589.258305 
L 773.480647 579.789094 
L 782.722592 583.803439 
L 803.771683 572.825163 
L 822.918558 577.554495 
L 838.572224 556.70798 
L 835.304631 545.616102 
L 842.949159 538.363435 
" style="fill:none;stroke:#000000;stroke-width:0.5;"/>
    <path clip-path="url(#p38b6e9c56d)" d="M 773.535508 579.785808 
L 757.247554 562.404951 
L 757.354898 539.099659 
L 750.83007 536.07474 
L 727.804865 541.885191 
L 723.052963 548.945164 
L 727.999495 555.282647 
L 708.314068 565.328877 
L 718.866748 545.063225 
L 713.434687 540.448083 
L 716.241821 525.935996 
L 734.792543 508.846714 
L 732.8245 496.053721 
L 748.041023 485.912284 
L 767.531191 458.363977 
L 756.925215 457.977298 
L 762.606215 445.556832 
L 774.687728 444.995725 
L 777.938737 451.213255 
L 799.812375 434.026805 
L 801.976096 439.144463 
L 832.10913 430.162562 
L 842.949159 430.286172 
" style="fill:none;stroke:#000000;stroke-width:0.5;"/>
    <path clip-path="url(#p38b6e9c56d)" d="M 717.367084 278.805387 
L 709.722046 275.017411 
L 695.840462 280.843216 
L 683.631243 272.0214 
L 667.319877 277.111909 
L 655.653227 260.954544 
L 632.142015 253.599392 
L 630.714384 235.825014 
" style="fill:none;stroke:#000000;stroke-width:0.5;"/>
    <path clip-path="url(#p38b6e9c56d)" d="M 616.431553 236.25742 
L 612.284397 240.901433 
L 592.208396 238.581415 
L 592.423577 236.878899 
" style="fill:none;stroke:#000000;stroke-width:0.5;"/>
    <path clip-path="url(#p38b6e9c56d)" d="M 437.173216 874.61013 
L 430.019376 862.913383 
L 391.556586 850.297705 
L 388.165163 864.604219 
L 357.097117 859.98466 
L 343.196869 863.485448 
" style="fill:none;stroke:#000000;stroke-width:0.5;"/>
    <path clip-path="url(#p38b6e9c56d)" d="M 685.0582 233.752099 
L 680.343274 243.096958 
L 690.593933 262.601908 
L 685.985096 272.970953 
" style="fill:none;stroke:#000000;stroke-width:0.5;"/>
    <path clip-path="url(#p38b6e9c56d)" d="M 547.021678 889.037954 
L 531.813719 884.658274 
L 515.311978 890.986224 
L 514.435233 897.489837 
L 488.380176 888.937547 
L 473.966507 895.183864 
L 454.310311 882.987223 
" style="fill:none;stroke:#000000;stroke-width:0.5;"/>
    <path clip-path="url(#p38b6e9c56d)" d="M 454.310311 882.987223 
L 438.165873 888.208945 
L 435.36947 877.76021 
L 444.802538 869.228079 
L 455.832385 872.870388 
L 454.183793 882.986286 
" style="fill:none;stroke:#000000;stroke-width:0.5;"/>
    <path clip-path="url(#p38b6e9c56d)" d="M 469.524081 887.022876 
L 471.654078 882.861897 
L 469.456304 886.930499 
" style="fill:none;stroke:#000000;stroke-width:0.5;"/>
    <path clip-path="url(#p38b6e9c56d)" d="M 806.762885 767.655055 
L 809.658121 765.045115 
" style="fill:none;stroke:#000000;stroke-width:0.5;"/>
    <path clip-path="url(#p38b6e9c56d)" d="M 342.840136 863.409066 
L 325.636524 849.671139 
L 309.319115 854.390716 
L 297.50409 838.063016 
L 285.958843 839.020133 
L 265.239785 830.013456 
L 264.472902 824.214528 
L 254.432454 828.982456 
L 258.131098 810.524002 
L 237.82421 806.601732 
L 233.631593 799.671958 
" style="fill:none;stroke:#000000;stroke-width:0.5;"/>
   </g>
   <g id="line2d_1">
    <path clip-path="url(#p38b6e9c56d)" d="M 641.605184 600.851987 
" style="fill:none;opacity:0.5;"/>
    <defs>
     <path d="M 0 21 
C 5.569265 21 10.911177 18.787308 14.849242 14.849242 
C 18.787308 10.911177 21 5.569265 21 0 
C 21 -5.569265 18.787308 -10.911177 14.849242 -14.849242 
C 10.911177 -18.787308 5.569265 -21 0 -21 
C -5.569265 -21 -10.911177 -18.787308 -14.849242 -14.849242 
C -18.787308 -10.911177 -21 -5.569265 -21 0 
C -21 5.569265 -18.787308 10.911177 -14.849242 14.849242 
C -10.911177 18.787308 -5.569265 21 0 21 
z
" id="m14445398db" style="stroke:#000000;stroke-width:0.5;"/>
    </defs>
    <g clip-path="url(#p38b6e9c56d)">
     <use style="fill:#bf00bf;opacity:0.5;stroke:#000000;stroke-width:0.5;" x="641.605183987" xlink:href="#m14445398db" y="600.851987169"/>
    </g>
   </g>
   <g id="line2d_2">
    <path clip-path="url(#p38b6e9c56d)" d="M 682.153942 811.433049 
" style="fill:none;opacity:0.5;"/>
    <defs>
     <path d="M 0 4.5 
C 1.193414 4.5 2.338109 4.025852 3.181981 3.181981 
C 4.025852 2.338109 4.5 1.193414 4.5 0 
C 4.5 -1.193414 4.025852 -2.338109 3.181981 -3.181981 
C 2.338109 -4.025852 1.193414 -4.5 0 -4.5 
C -1.193414 -4.5 -2.338109 -4.025852 -3.181981 -3.181981 
C -4.025852 -2.338109 -4.5 -1.193414 -4.5 0 
C -4.5 1.193414 -4.025852 2.338109 -3.181981 3.181981 
C -2.338109 4.025852 -1.193414 4.5 0 4.5 
z
" id="ma3aadb8347" style="stroke:#000000;stroke-width:0.5;"/>
    </defs>
    <g clip-path="url(#p38b6e9c56d)">
     <use style="fill:#bf00bf;opacity:0.5;stroke:#000000;stroke-width:0.5;" x="682.153942123" xlink:href="#ma3aadb8347" y="811.433049078"/>
    </g>
   </g>
   <g id="line2d_3">
    <path clip-path="url(#p38b6e9c56d)" d="M 435.510139 788.244649 
" style="fill:none;opacity:0.5;"/>
    <defs>
     <path d="M 0 12.5 
C 3.315039 12.5 6.494748 11.182921 8.838835 8.838835 
C 11.182921 6.494748 12.5 3.315039 12.5 0 
C 12.5 -3.315039 11.182921 -6.494748 8.838835 -8.838835 
C 6.494748 -11.182921 3.315039 -12.5 0 -12.5 
C -3.315039 -12.5 -6.494748 -11.182921 -8.838835 -8.838835 
C -11.182921 -6.494748 -12.5 -3.315039 -12.5 0 
C -12.5 3.315039 -11.182921 6.494748 -8.838835 8.838835 
C -6.494748 11.182921 -3.315039 12.5 0 12.5 
z
" id="m861000e178" style="stroke:#000000;stroke-width:0.5;"/>
    </defs>
    <g clip-path="url(#p38b6e9c56d)">
     <use style="fill:#bf00bf;opacity:0.5;stroke:#000000;stroke-width:0.5;" x="435.510139242" xlink:href="#m861000e178" y="788.244648854"/>
    </g>
   </g>
   <g id="line2d_4">
    <path clip-path="url(#p38b6e9c56d)" d="M 131.706578 333.37813 
" style="fill:none;opacity:0.5;"/>
    <defs>
     <path d="M 0 4 
C 1.060812 4 2.078319 3.578535 2.828427 2.828427 
C 3.578535 2.078319 4 1.060812 4 0 
C 4 -1.060812 3.578535 -2.078319 2.828427 -2.828427 
C 2.078319 -3.578535 1.060812 -4 0 -4 
C -1.060812 -4 -2.078319 -3.578535 -2.828427 -2.828427 
C -3.578535 -2.078319 -4 -1.060812 -4 0 
C -4 1.060812 -3.578535 2.078319 -2.828427 2.828427 
C -2.078319 3.578535 -1.060812 4 0 4 
z
" id="mc170d56436" style="stroke:#000000;stroke-width:0.5;"/>
    </defs>
    <g clip-path="url(#p38b6e9c56d)">
     <use style="fill:#bf00bf;opacity:0.5;stroke:#000000;stroke-width:0.5;" x="131.706578269" xlink:href="#mc170d56436" y="333.378130249"/>
    </g>
   </g>
   <g id="line2d_5">
    <path clip-path="url(#p38b6e9c56d)" d="M 587.714626 787.034857 
" style="fill:none;opacity:0.5;"/>
    <g clip-path="url(#p38b6e9c56d)">
     <use style="fill:#bf00bf;opacity:0.5;stroke:#000000;stroke-width:0.5;" x="587.714626113" xlink:href="#m14445398db" y="787.034857308"/>
    </g>
   </g>
   <g id="line2d_6">
    <path clip-path="url(#p38b6e9c56d)" d="M 531.642579 183.476801 
" style="fill:none;opacity:0.5;"/>
    <defs>
     <path d="M 0 5 
C 1.326016 5 2.597899 4.473168 3.535534 3.535534 
C 4.473168 2.597899 5 1.326016 5 0 
C 5 -1.326016 4.473168 -2.597899 3.535534 -3.535534 
C 2.597899 -4.473168 1.326016 -5 0 -5 
C -1.326016 -5 -2.597899 -4.473168 -3.535534 -3.535534 
C -4.473168 -2.597899 -5 -1.326016 -5 0 
C -5 1.326016 -4.473168 2.597899 -3.535534 3.535534 
C -2.597899 4.473168 -1.326016 5 0 5 
z
" id="me3df4bf865" style="stroke:#000000;stroke-width:0.5;"/>
    </defs>
    <g clip-path="url(#p38b6e9c56d)">
     <use style="fill:#bf00bf;opacity:0.5;stroke:#000000;stroke-width:0.5;" x="531.642579074" xlink:href="#me3df4bf865" y="183.476801362"/>
    </g>
   </g>
   <g id="line2d_7">
    <path clip-path="url(#p38b6e9c56d)" d="M 536.22214 601.333984 
" style="fill:none;opacity:0.5;"/>
    <g clip-path="url(#p38b6e9c56d)">
     <use style="fill:#bf00bf;opacity:0.5;stroke:#000000;stroke-width:0.5;" x="536.222139738" xlink:href="#ma3aadb8347" y="601.333983713"/>
    </g>
   </g>
   <g id="line2d_8">
    <path clip-path="url(#p38b6e9c56d)" d="M 492.202075 336.569268 
" style="fill:none;opacity:0.5;"/>
    <defs>
     <path d="M 0 126.5 
C 33.548192 126.5 65.726854 113.171162 89.449008 89.449008 
C 113.171162 65.726854 126.5 33.548192 126.5 0 
C 126.5 -33.548192 113.171162 -65.726854 89.449008 -89.449008 
C 65.726854 -113.171162 33.548192 -126.5 0 -126.5 
C -33.548192 -126.5 -65.726854 -113.171162 -89.449008 -89.449008 
C -113.171162 -65.726854 -126.5 -33.548192 -126.5 0 
C -126.5 33.548192 -113.171162 65.726854 -89.449008 89.449008 
C -65.726854 113.171162 -33.548192 126.5 0 126.5 
z
" id="md3f52a6eee" style="stroke:#000000;stroke-width:0.5;"/>
    </defs>
    <g clip-path="url(#p38b6e9c56d)">
     <use style="fill:#bf00bf;opacity:0.5;stroke:#000000;stroke-width:0.5;" x="492.202075109" xlink:href="#md3f52a6eee" y="336.569267799"/>
    </g>
   </g>
   <g id="line2d_9">
    <path clip-path="url(#p38b6e9c56d)" d="M 322.888902 452.489542 
" style="fill:none;opacity:0.5;"/>
    <g clip-path="url(#p38b6e9c56d)">
     <use style="fill:#bf00bf;opacity:0.5;stroke:#000000;stroke-width:0.5;" x="322.888901974" xlink:href="#ma3aadb8347" y="452.489542274"/>
    </g>
   </g>
   <g id="line2d_10">
    <path clip-path="url(#p38b6e9c56d)" d="M 259.91764 394.818206 
" style="fill:none;opacity:0.5;"/>
    <defs>
     <path d="M 0 6.5 
C 1.72382 6.5 3.377269 5.815119 4.596194 4.596194 
C 5.815119 3.377269 6.5 1.72382 6.5 0 
C 6.5 -1.72382 5.815119 -3.377269 4.596194 -4.596194 
C 3.377269 -5.815119 1.72382 -6.5 0 -6.5 
C -1.72382 -6.5 -3.377269 -5.815119 -4.596194 -4.596194 
C -5.815119 -3.377269 -6.5 -1.72382 -6.5 0 
C -6.5 1.72382 -5.815119 3.377269 -4.596194 4.596194 
C -3.377269 5.815119 -1.72382 6.5 0 6.5 
z
" id="mf3fa25fc07" style="stroke:#000000;stroke-width:0.5;"/>
    </defs>
    <g clip-path="url(#p38b6e9c56d)">
     <use style="fill:#bf00bf;opacity:0.5;stroke:#000000;stroke-width:0.5;" x="259.917639606" xlink:href="#mf3fa25fc07" y="394.81820578"/>
    </g>
   </g>
   <g id="line2d_11">
    <path clip-path="url(#p38b6e9c56d)" d="M 312.823204 678.785746 
" style="fill:none;opacity:0.5;"/>
    <defs>
     <path d="M 0 6 
C 1.591219 6 3.117479 5.367802 4.242641 4.242641 
C 5.367802 3.117479 6 1.591219 6 0 
C 6 -1.591219 5.367802 -3.117479 4.242641 -4.242641 
C 3.117479 -5.367802 1.591219 -6 0 -6 
C -1.591219 -6 -3.117479 -5.367802 -4.242641 -4.242641 
C -5.367802 -3.117479 -6 -1.591219 -6 0 
C -6 1.591219 -5.367802 3.117479 -4.242641 4.242641 
C -3.117479 5.367802 -1.591219 6 0 6 
z
" id="m9ee49fe696" style="stroke:#000000;stroke-width:0.5;"/>
    </defs>
    <g clip-path="url(#p38b6e9c56d)">
     <use style="fill:#bf00bf;opacity:0.5;stroke:#000000;stroke-width:0.5;" x="312.823203972" xlink:href="#m9ee49fe696" y="678.785745562"/>
    </g>
   </g>
   <g id="line2d_12">
    <path clip-path="url(#p38b6e9c56d)" d="M 697.238685 648.304183 
" style="fill:none;opacity:0.5;"/>
    <defs>
     <path d="M 0 7.5 
C 1.989023 7.5 3.896849 6.709753 5.303301 5.303301 
C 6.709753 3.896849 7.5 1.989023 7.5 0 
C 7.5 -1.989023 6.709753 -3.896849 5.303301 -5.303301 
C 3.896849 -6.709753 1.989023 -7.5 0 -7.5 
C -1.989023 -7.5 -3.896849 -6.709753 -5.303301 -5.303301 
C -6.709753 -3.896849 -7.5 -1.989023 -7.5 0 
C -7.5 1.989023 -6.709753 3.896849 -5.303301 5.303301 
C -3.896849 6.709753 -1.989023 7.5 0 7.5 
z
" id="m1605211402" style="stroke:#000000;stroke-width:0.5;"/>
    </defs>
    <g clip-path="url(#p38b6e9c56d)">
     <use style="fill:#bf00bf;opacity:0.5;stroke:#000000;stroke-width:0.5;" x="697.238685365" xlink:href="#m1605211402" y="648.304183485"/>
    </g>
   </g>
   <g id="line2d_13">
    <path clip-path="url(#p38b6e9c56d)" d="M 263.363087 471.912372 
" style="fill:none;opacity:0.5;"/>
    <g clip-path="url(#p38b6e9c56d)">
     <use style="fill:#bf00bf;opacity:0.5;stroke:#000000;stroke-width:0.5;" x="263.363086652" xlink:href="#ma3aadb8347" y="471.912371702"/>
    </g>
   </g>
   <g id="patch_3">
    <path d="M 7.2 7.2 
L 842.949159 7.2 
" style="fill:none;stroke:#f0f0f0;stroke-linecap:square;stroke-linejoin:miter;stroke-width:3.0;"/>
   </g>
   <g id="patch_4">
    <path d="M 842.949159 903.6 
L 842.949159 7.2 
" style="fill:none;stroke:#f0f0f0;stroke-linecap:square;stroke-linejoin:miter;stroke-width:3.0;"/>
   </g>
   <g id="patch_5">
    <path d="M 7.2 903.6 
L 842.949159 903.6 
" style="fill:none;stroke:#f0f0f0;stroke-linecap:square;stroke-linejoin:miter;stroke-width:3.0;"/>
   </g>
   <g id="patch_6">
    <path d="M 7.2 903.6 
L 7.2 7.2 
" style="fill:none;stroke:#f0f0f0;stroke-linecap:square;stroke-linejoin:miter;stroke-width:3.0;"/>
   </g>
   <g id="text_1">
    <!-- Lyon -->
    <defs>
     <path d="M 54.890625 33.015625 
L 54.890625 0 
L 45.90625 0 
L 45.90625 32.71875 
Q 45.90625 40.484375 42.875 44.328125 
Q 39.84375 48.1875 33.796875 48.1875 
Q 26.515625 48.1875 22.3125 43.546875 
Q 18.109375 38.921875 18.109375 30.90625 
L 18.109375 0 
L 9.078125 0 
L 9.078125 54.6875 
L 18.109375 54.6875 
L 18.109375 46.1875 
Q 21.34375 51.125 25.703125 53.5625 
Q 30.078125 56 35.796875 56 
Q 45.21875 56 50.046875 50.171875 
Q 54.890625 44.34375 54.890625 33.015625 
" id="BitstreamVeraSans-Roman-6e"/>
     <path d="M 30.609375 48.390625 
Q 23.390625 48.390625 19.1875 42.75 
Q 14.984375 37.109375 14.984375 27.296875 
Q 14.984375 17.484375 19.15625 11.84375 
Q 23.34375 6.203125 30.609375 6.203125 
Q 37.796875 6.203125 41.984375 11.859375 
Q 46.1875 17.53125 46.1875 27.296875 
Q 46.1875 37.015625 41.984375 42.703125 
Q 37.796875 48.390625 30.609375 48.390625 
M 30.609375 56 
Q 42.328125 56 49.015625 48.375 
Q 55.71875 40.765625 55.71875 27.296875 
Q 55.71875 13.875 49.015625 6.21875 
Q 42.328125 -1.421875 30.609375 -1.421875 
Q 18.84375 -1.421875 12.171875 6.21875 
Q 5.515625 13.875 5.515625 27.296875 
Q 5.515625 40.765625 12.171875 48.375 
Q 18.84375 56 30.609375 56 
" id="BitstreamVeraSans-Roman-6f"/>
     <path d="M 9.8125 72.90625 
L 19.671875 72.90625 
L 19.671875 8.296875 
L 55.171875 8.296875 
L 55.171875 0 
L 9.8125 0 
z
" id="BitstreamVeraSans-Roman-4c"/>
     <path d="M 32.171875 -5.078125 
Q 28.375 -14.84375 24.75 -17.8125 
Q 21.140625 -20.796875 15.09375 -20.796875 
L 7.90625 -20.796875 
L 7.90625 -13.28125 
L 13.1875 -13.28125 
Q 16.890625 -13.28125 18.9375 -11.515625 
Q 21 -9.765625 23.484375 -3.21875 
L 25.09375 0.875 
L 2.984375 54.6875 
L 12.5 54.6875 
L 29.59375 11.921875 
L 46.6875 54.6875 
L 56.203125 54.6875 
z
" id="BitstreamVeraSans-Roman-79"/>
    </defs>
    <g transform="translate(662.409774342 580.047396815)scale(0.14 -0.14)">
     <use xlink:href="#BitstreamVeraSans-Roman-4c"/>
     <use x="55.572265625" xlink:href="#BitstreamVeraSans-Roman-79"/>
     <use x="114.751953125" xlink:href="#BitstreamVeraSans-Roman-6f"/>
     <use x="175.93359375" xlink:href="#BitstreamVeraSans-Roman-6e"/>
    </g>
   </g>
   <g id="text_2">
    <!-- Marseille -->
    <defs>
     <path d="M 9.8125 72.90625 
L 24.515625 72.90625 
L 43.109375 23.296875 
L 61.8125 72.90625 
L 76.515625 72.90625 
L 76.515625 0 
L 66.890625 0 
L 66.890625 64.015625 
L 48.09375 14.015625 
L 38.1875 14.015625 
L 19.390625 64.015625 
L 19.390625 0 
L 9.8125 0 
z
" id="BitstreamVeraSans-Roman-4d"/>
     <path d="M 34.28125 27.484375 
Q 23.390625 27.484375 19.1875 25 
Q 14.984375 22.515625 14.984375 16.5 
Q 14.984375 11.71875 18.140625 8.90625 
Q 21.296875 6.109375 26.703125 6.109375 
Q 34.1875 6.109375 38.703125 11.40625 
Q 43.21875 16.703125 43.21875 25.484375 
L 43.21875 27.484375 
z
M 52.203125 31.203125 
L 52.203125 0 
L 43.21875 0 
L 43.21875 8.296875 
Q 40.140625 3.328125 35.546875 0.953125 
Q 30.953125 -1.421875 24.3125 -1.421875 
Q 15.921875 -1.421875 10.953125 3.296875 
Q 6 8.015625 6 15.921875 
Q 6 25.140625 12.171875 29.828125 
Q 18.359375 34.515625 30.609375 34.515625 
L 43.21875 34.515625 
L 43.21875 35.40625 
Q 43.21875 41.609375 39.140625 45 
Q 35.0625 48.390625 27.6875 48.390625 
Q 23 48.390625 18.546875 47.265625 
Q 14.109375 46.140625 10.015625 43.890625 
L 10.015625 52.203125 
Q 14.9375 54.109375 19.578125 55.046875 
Q 24.21875 56 28.609375 56 
Q 40.484375 56 46.34375 49.84375 
Q 52.203125 43.703125 52.203125 31.203125 
" id="BitstreamVeraSans-Roman-61"/>
     <path d="M 9.421875 75.984375 
L 18.40625 75.984375 
L 18.40625 0 
L 9.421875 0 
z
" id="BitstreamVeraSans-Roman-6c"/>
     <path d="M 9.421875 54.6875 
L 18.40625 54.6875 
L 18.40625 0 
L 9.421875 0 
z
M 9.421875 75.984375 
L 18.40625 75.984375 
L 18.40625 64.59375 
L 9.421875 64.59375 
z
" id="BitstreamVeraSans-Roman-69"/>
     <path d="M 56.203125 29.59375 
L 56.203125 25.203125 
L 14.890625 25.203125 
Q 15.484375 15.921875 20.484375 11.0625 
Q 25.484375 6.203125 34.421875 6.203125 
Q 39.59375 6.203125 44.453125 7.46875 
Q 49.3125 8.734375 54.109375 11.28125 
L 54.109375 2.78125 
Q 49.265625 0.734375 44.1875 -0.34375 
Q 39.109375 -1.421875 33.890625 -1.421875 
Q 20.796875 -1.421875 13.15625 6.1875 
Q 5.515625 13.8125 5.515625 26.8125 
Q 5.515625 40.234375 12.765625 48.109375 
Q 20.015625 56 32.328125 56 
Q 43.359375 56 49.78125 48.890625 
Q 56.203125 41.796875 56.203125 29.59375 
M 47.21875 32.234375 
Q 47.125 39.59375 43.09375 43.984375 
Q 39.0625 48.390625 32.421875 48.390625 
Q 24.90625 48.390625 20.390625 44.140625 
Q 15.875 39.890625 15.1875 32.171875 
z
" id="BitstreamVeraSans-Roman-65"/>
     <path d="M 41.109375 46.296875 
Q 39.59375 47.171875 37.8125 47.578125 
Q 36.03125 48 33.890625 48 
Q 26.265625 48 22.1875 43.046875 
Q 18.109375 38.09375 18.109375 28.8125 
L 18.109375 0 
L 9.078125 0 
L 9.078125 54.6875 
L 18.109375 54.6875 
L 18.109375 46.1875 
Q 20.953125 51.171875 25.484375 53.578125 
Q 30.03125 56 36.53125 56 
Q 37.453125 56 38.578125 55.875 
Q 39.703125 55.765625 41.0625 55.515625 
z
" id="BitstreamVeraSans-Roman-72"/>
     <path d="M 44.28125 53.078125 
L 44.28125 44.578125 
Q 40.484375 46.53125 36.375 47.5 
Q 32.28125 48.484375 27.875 48.484375 
Q 21.1875 48.484375 17.84375 46.4375 
Q 14.5 44.390625 14.5 40.28125 
Q 14.5 37.15625 16.890625 35.375 
Q 19.28125 33.59375 26.515625 31.984375 
L 29.59375 31.296875 
Q 39.15625 29.25 43.1875 25.515625 
Q 47.21875 21.78125 47.21875 15.09375 
Q 47.21875 7.46875 41.1875 3.015625 
Q 35.15625 -1.421875 24.609375 -1.421875 
Q 20.21875 -1.421875 15.453125 -0.5625 
Q 10.6875 0.296875 5.421875 2 
L 5.421875 11.28125 
Q 10.40625 8.6875 15.234375 7.390625 
Q 20.0625 6.109375 24.8125 6.109375 
Q 31.15625 6.109375 34.5625 8.28125 
Q 37.984375 10.453125 37.984375 14.40625 
Q 37.984375 18.0625 35.515625 20.015625 
Q 33.0625 21.96875 24.703125 23.78125 
L 21.578125 24.515625 
Q 13.234375 26.265625 9.515625 29.90625 
Q 5.8125 33.546875 5.8125 39.890625 
Q 5.8125 47.609375 11.28125 51.796875 
Q 16.75 56 26.8125 56 
Q 31.78125 56 36.171875 55.265625 
Q 40.578125 54.546875 44.28125 53.078125 
" id="BitstreamVeraSans-Roman-73"/>
    </defs>
    <g transform="translate(686.859742322 806.727248878)scale(0.14 -0.14)">
     <use xlink:href="#BitstreamVeraSans-Roman-4d"/>
     <use x="86.279296875" xlink:href="#BitstreamVeraSans-Roman-61"/>
     <use x="147.55859375" xlink:href="#BitstreamVeraSans-Roman-72"/>
     <use x="188.671875" xlink:href="#BitstreamVeraSans-Roman-73"/>
     <use x="240.771484375" xlink:href="#BitstreamVeraSans-Roman-65"/>
     <use x="302.294921875" xlink:href="#BitstreamVeraSans-Roman-69"/>
     <use x="330.078125" xlink:href="#BitstreamVeraSans-Roman-6c"/>
     <use x="357.861328125" xlink:href="#BitstreamVeraSans-Roman-6c"/>
     <use x="385.64453125" xlink:href="#BitstreamVeraSans-Roman-65"/>
    </g>
   </g>
   <g id="text_3">
    <!-- Toulouse -->
    <defs>
     <path d="M 8.5 21.578125 
L 8.5 54.6875 
L 17.484375 54.6875 
L 17.484375 21.921875 
Q 17.484375 14.15625 20.5 10.265625 
Q 23.53125 6.390625 29.59375 6.390625 
Q 36.859375 6.390625 41.078125 11.03125 
Q 45.3125 15.671875 45.3125 23.6875 
L 45.3125 54.6875 
L 54.296875 54.6875 
L 54.296875 0 
L 45.3125 0 
L 45.3125 8.40625 
Q 42.046875 3.421875 37.71875 1 
Q 33.40625 -1.421875 27.6875 -1.421875 
Q 18.265625 -1.421875 13.375 4.4375 
Q 8.5 10.296875 8.5 21.578125 
" id="BitstreamVeraSans-Roman-75"/>
     <path d="M -0.296875 72.90625 
L 61.375 72.90625 
L 61.375 64.59375 
L 35.5 64.59375 
L 35.5 0 
L 25.59375 0 
L 25.59375 64.59375 
L -0.296875 64.59375 
z
" id="BitstreamVeraSans-Roman-54"/>
    </defs>
    <g transform="translate(447.893823977 775.860964119)scale(0.14 -0.14)">
     <use xlink:href="#BitstreamVeraSans-Roman-54"/>
     <use x="60.818359375" xlink:href="#BitstreamVeraSans-Roman-6f"/>
     <use x="122.0" xlink:href="#BitstreamVeraSans-Roman-75"/>
     <use x="185.37890625" xlink:href="#BitstreamVeraSans-Roman-6c"/>
     <use x="213.162109375" xlink:href="#BitstreamVeraSans-Roman-6f"/>
     <use x="274.34375" xlink:href="#BitstreamVeraSans-Roman-75"/>
     <use x="337.72265625" xlink:href="#BitstreamVeraSans-Roman-73"/>
     <use x="389.822265625" xlink:href="#BitstreamVeraSans-Roman-65"/>
    </g>
   </g>
   <g id="text_4">
    <!-- Roscoff -->
    <defs>
     <path d="M 44.390625 34.1875 
Q 47.5625 33.109375 50.5625 29.59375 
Q 53.5625 26.078125 56.59375 19.921875 
L 66.609375 0 
L 56 0 
L 46.6875 18.703125 
Q 43.0625 26.03125 39.671875 28.421875 
Q 36.28125 30.8125 30.421875 30.8125 
L 19.671875 30.8125 
L 19.671875 0 
L 9.8125 0 
L 9.8125 72.90625 
L 32.078125 72.90625 
Q 44.578125 72.90625 50.734375 67.671875 
Q 56.890625 62.453125 56.890625 51.90625 
Q 56.890625 45.015625 53.6875 40.46875 
Q 50.484375 35.9375 44.390625 34.1875 
M 19.671875 64.796875 
L 19.671875 38.921875 
L 32.078125 38.921875 
Q 39.203125 38.921875 42.84375 42.21875 
Q 46.484375 45.515625 46.484375 51.90625 
Q 46.484375 58.296875 42.84375 61.546875 
Q 39.203125 64.796875 32.078125 64.796875 
z
" id="BitstreamVeraSans-Roman-52"/>
     <path d="M 37.109375 75.984375 
L 37.109375 68.5 
L 28.515625 68.5 
Q 23.6875 68.5 21.796875 66.546875 
Q 19.921875 64.59375 19.921875 59.515625 
L 19.921875 54.6875 
L 34.71875 54.6875 
L 34.71875 47.703125 
L 19.921875 47.703125 
L 19.921875 0 
L 10.890625 0 
L 10.890625 47.703125 
L 2.296875 47.703125 
L 2.296875 54.6875 
L 10.890625 54.6875 
L 10.890625 58.5 
Q 10.890625 67.625 15.140625 71.796875 
Q 19.390625 75.984375 28.609375 75.984375 
z
" id="BitstreamVeraSans-Roman-66"/>
     <path d="M 48.78125 52.59375 
L 48.78125 44.1875 
Q 44.96875 46.296875 41.140625 47.34375 
Q 37.3125 48.390625 33.40625 48.390625 
Q 24.65625 48.390625 19.8125 42.84375 
Q 14.984375 37.3125 14.984375 27.296875 
Q 14.984375 17.28125 19.8125 11.734375 
Q 24.65625 6.203125 33.40625 6.203125 
Q 37.3125 6.203125 41.140625 7.25 
Q 44.96875 8.296875 48.78125 10.40625 
L 48.78125 2.09375 
Q 45.015625 0.34375 40.984375 -0.53125 
Q 36.96875 -1.421875 32.421875 -1.421875 
Q 20.0625 -1.421875 12.78125 6.34375 
Q 5.515625 14.109375 5.515625 27.296875 
Q 5.515625 40.671875 12.859375 48.328125 
Q 20.21875 56 33.015625 56 
Q 37.15625 56 41.109375 55.140625 
Q 45.0625 54.296875 48.78125 52.59375 
" id="BitstreamVeraSans-Roman-63"/>
    </defs>
    <g transform="translate(135.669357384 329.415351134)scale(0.14 -0.14)">
     <use xlink:href="#BitstreamVeraSans-Roman-52"/>
     <use x="69.419921875" xlink:href="#BitstreamVeraSans-Roman-6f"/>
     <use x="130.6015625" xlink:href="#BitstreamVeraSans-Roman-73"/>
     <use x="182.701171875" xlink:href="#BitstreamVeraSans-Roman-63"/>
     <use x="237.681640625" xlink:href="#BitstreamVeraSans-Roman-6f"/>
     <use x="298.86328125" xlink:href="#BitstreamVeraSans-Roman-66"/>
     <use x="334.068359375" xlink:href="#BitstreamVeraSans-Roman-66"/>
    </g>
   </g>
   <g id="text_5">
    <!-- Montpellier -->
    <defs>
     <path d="M 18.3125 70.21875 
L 18.3125 54.6875 
L 36.8125 54.6875 
L 36.8125 47.703125 
L 18.3125 47.703125 
L 18.3125 18.015625 
Q 18.3125 11.328125 20.140625 9.421875 
Q 21.96875 7.515625 27.59375 7.515625 
L 36.8125 7.515625 
L 36.8125 0 
L 27.59375 0 
Q 17.1875 0 13.234375 3.875 
Q 9.28125 7.765625 9.28125 18.015625 
L 9.28125 47.703125 
L 2.6875 47.703125 
L 2.6875 54.6875 
L 9.28125 54.6875 
L 9.28125 70.21875 
z
" id="BitstreamVeraSans-Roman-74"/>
     <path d="M 18.109375 8.203125 
L 18.109375 -20.796875 
L 9.078125 -20.796875 
L 9.078125 54.6875 
L 18.109375 54.6875 
L 18.109375 46.390625 
Q 20.953125 51.265625 25.265625 53.625 
Q 29.59375 56 35.59375 56 
Q 45.5625 56 51.78125 48.09375 
Q 58.015625 40.1875 58.015625 27.296875 
Q 58.015625 14.40625 51.78125 6.484375 
Q 45.5625 -1.421875 35.59375 -1.421875 
Q 29.59375 -1.421875 25.265625 0.953125 
Q 20.953125 3.328125 18.109375 8.203125 
M 48.6875 27.296875 
Q 48.6875 37.203125 44.609375 42.84375 
Q 40.53125 48.484375 33.40625 48.484375 
Q 26.265625 48.484375 22.1875 42.84375 
Q 18.109375 37.203125 18.109375 27.296875 
Q 18.109375 17.390625 22.1875 11.75 
Q 26.265625 6.109375 33.40625 6.109375 
Q 40.53125 6.109375 44.609375 11.75 
Q 48.6875 17.390625 48.6875 27.296875 
" id="BitstreamVeraSans-Roman-70"/>
    </defs>
    <g transform="translate(608.519216468 766.230266953)scale(0.14 -0.14)">
     <use xlink:href="#BitstreamVeraSans-Roman-4d"/>
     <use x="86.279296875" xlink:href="#BitstreamVeraSans-Roman-6f"/>
     <use x="147.4609375" xlink:href="#BitstreamVeraSans-Roman-6e"/>
     <use x="210.83984375" xlink:href="#BitstreamVeraSans-Roman-74"/>
     <use x="250.048828125" xlink:href="#BitstreamVeraSans-Roman-70"/>
     <use x="313.525390625" xlink:href="#BitstreamVeraSans-Roman-65"/>
     <use x="375.048828125" xlink:href="#BitstreamVeraSans-Roman-6c"/>
     <use x="402.83203125" xlink:href="#BitstreamVeraSans-Roman-6c"/>
     <use x="430.615234375" xlink:href="#BitstreamVeraSans-Roman-69"/>
     <use x="458.3984375" xlink:href="#BitstreamVeraSans-Roman-65"/>
     <use x="519.921875" xlink:href="#BitstreamVeraSans-Roman-72"/>
    </g>
   </g>
   <g id="text_6">
    <!-- Lille -->
    <g transform="translate(536.596052968 178.523327468)scale(0.14 -0.14)">
     <use xlink:href="#BitstreamVeraSans-Roman-4c"/>
     <use x="55.712890625" xlink:href="#BitstreamVeraSans-Roman-69"/>
     <use x="83.49609375" xlink:href="#BitstreamVeraSans-Roman-6c"/>
     <use x="111.279296875" xlink:href="#BitstreamVeraSans-Roman-6c"/>
     <use x="139.0625" xlink:href="#BitstreamVeraSans-Roman-65"/>
    </g>
   </g>
   <g id="text_7">
    <!-- Clermont Ferrand -->
    <defs>
     <path d="M 45.40625 46.390625 
L 45.40625 75.984375 
L 54.390625 75.984375 
L 54.390625 0 
L 45.40625 0 
L 45.40625 8.203125 
Q 42.578125 3.328125 38.25 0.953125 
Q 33.9375 -1.421875 27.875 -1.421875 
Q 17.96875 -1.421875 11.734375 6.484375 
Q 5.515625 14.40625 5.515625 27.296875 
Q 5.515625 40.1875 11.734375 48.09375 
Q 17.96875 56 27.875 56 
Q 33.9375 56 38.25 53.625 
Q 42.578125 51.265625 45.40625 46.390625 
M 14.796875 27.296875 
Q 14.796875 17.390625 18.875 11.75 
Q 22.953125 6.109375 30.078125 6.109375 
Q 37.203125 6.109375 41.296875 11.75 
Q 45.40625 17.390625 45.40625 27.296875 
Q 45.40625 37.203125 41.296875 42.84375 
Q 37.203125 48.484375 30.078125 48.484375 
Q 22.953125 48.484375 18.875 42.84375 
Q 14.796875 37.203125 14.796875 27.296875 
" id="BitstreamVeraSans-Roman-64"/>
     <path d="M 52 44.1875 
Q 55.375 50.25 60.0625 53.125 
Q 64.75 56 71.09375 56 
Q 79.640625 56 84.28125 50.015625 
Q 88.921875 44.046875 88.921875 33.015625 
L 88.921875 0 
L 79.890625 0 
L 79.890625 32.71875 
Q 79.890625 40.578125 77.09375 44.375 
Q 74.3125 48.1875 68.609375 48.1875 
Q 61.625 48.1875 57.5625 43.546875 
Q 53.515625 38.921875 53.515625 30.90625 
L 53.515625 0 
L 44.484375 0 
L 44.484375 32.71875 
Q 44.484375 40.625 41.703125 44.40625 
Q 38.921875 48.1875 33.109375 48.1875 
Q 26.21875 48.1875 22.15625 43.53125 
Q 18.109375 38.875 18.109375 30.90625 
L 18.109375 0 
L 9.078125 0 
L 9.078125 54.6875 
L 18.109375 54.6875 
L 18.109375 46.1875 
Q 21.1875 51.21875 25.484375 53.609375 
Q 29.78125 56 35.6875 56 
Q 41.65625 56 45.828125 52.96875 
Q 50 49.953125 52 44.1875 
" id="BitstreamVeraSans-Roman-6d"/>
     <path d="M 64.40625 67.28125 
L 64.40625 56.890625 
Q 59.421875 61.53125 53.78125 63.8125 
Q 48.140625 66.109375 41.796875 66.109375 
Q 29.296875 66.109375 22.65625 58.46875 
Q 16.015625 50.828125 16.015625 36.375 
Q 16.015625 21.96875 22.65625 14.328125 
Q 29.296875 6.6875 41.796875 6.6875 
Q 48.140625 6.6875 53.78125 8.984375 
Q 59.421875 11.28125 64.40625 15.921875 
L 64.40625 5.609375 
Q 59.234375 2.09375 53.4375 0.328125 
Q 47.65625 -1.421875 41.21875 -1.421875 
Q 24.65625 -1.421875 15.125 8.703125 
Q 5.609375 18.84375 5.609375 36.375 
Q 5.609375 53.953125 15.125 64.078125 
Q 24.65625 74.21875 41.21875 74.21875 
Q 47.75 74.21875 53.53125 72.484375 
Q 59.328125 70.75 64.40625 67.28125 
" id="BitstreamVeraSans-Roman-43"/>
     <path d="M 9.8125 72.90625 
L 51.703125 72.90625 
L 51.703125 64.59375 
L 19.671875 64.59375 
L 19.671875 43.109375 
L 48.578125 43.109375 
L 48.578125 34.8125 
L 19.671875 34.8125 
L 19.671875 0 
L 9.8125 0 
z
" id="BitstreamVeraSans-Roman-46"/>
     <path id="BitstreamVeraSans-Roman-20"/>
    </defs>
    <g transform="translate(540.927939938 596.628183514)scale(0.14 -0.14)">
     <use xlink:href="#BitstreamVeraSans-Roman-43"/>
     <use x="69.82421875" xlink:href="#BitstreamVeraSans-Roman-6c"/>
     <use x="97.607421875" xlink:href="#BitstreamVeraSans-Roman-65"/>
     <use x="159.130859375" xlink:href="#BitstreamVeraSans-Roman-72"/>
     <use x="200.228515625" xlink:href="#BitstreamVeraSans-Roman-6d"/>
     <use x="297.640625" xlink:href="#BitstreamVeraSans-Roman-6f"/>
     <use x="358.822265625" xlink:href="#BitstreamVeraSans-Roman-6e"/>
     <use x="422.201171875" xlink:href="#BitstreamVeraSans-Roman-74"/>
     <use x="461.41015625" xlink:href="#BitstreamVeraSans-Roman-20"/>
     <use x="493.197265625" xlink:href="#BitstreamVeraSans-Roman-46"/>
     <use x="550.638671875" xlink:href="#BitstreamVeraSans-Roman-65"/>
     <use x="612.162109375" xlink:href="#BitstreamVeraSans-Roman-72"/>
     <use x="653.259765625" xlink:href="#BitstreamVeraSans-Roman-72"/>
     <use x="694.373046875" xlink:href="#BitstreamVeraSans-Roman-61"/>
     <use x="755.65234375" xlink:href="#BitstreamVeraSans-Roman-6e"/>
     <use x="819.03125" xlink:href="#BitstreamVeraSans-Roman-64"/>
    </g>
   </g>
   <g id="text_8">
    <!-- IDF -->
    <defs>
     <path d="M 19.671875 64.796875 
L 19.671875 8.109375 
L 31.59375 8.109375 
Q 46.6875 8.109375 53.6875 14.9375 
Q 60.6875 21.78125 60.6875 36.53125 
Q 60.6875 51.171875 53.6875 57.984375 
Q 46.6875 64.796875 31.59375 64.796875 
z
M 9.8125 72.90625 
L 30.078125 72.90625 
Q 51.265625 72.90625 61.171875 64.09375 
Q 71.09375 55.28125 71.09375 36.53125 
Q 71.09375 17.671875 61.125 8.828125 
Q 51.171875 0 30.078125 0 
L 9.8125 0 
z
" id="BitstreamVeraSans-Roman-44"/>
     <path d="M 9.8125 72.90625 
L 19.671875 72.90625 
L 19.671875 0 
L 9.8125 0 
z
" id="BitstreamVeraSans-Roman-49"/>
    </defs>
    <g transform="translate(617.772638322 210.998704586)scale(0.14 -0.14)">
     <use xlink:href="#BitstreamVeraSans-Roman-49"/>
     <use x="29.4921875" xlink:href="#BitstreamVeraSans-Roman-44"/>
     <use x="106.494140625" xlink:href="#BitstreamVeraSans-Roman-46"/>
    </g>
   </g>
   <g id="text_9">
    <!-- Angers -->
    <defs>
     <path d="M 45.40625 27.984375 
Q 45.40625 37.75 41.375 43.109375 
Q 37.359375 48.484375 30.078125 48.484375 
Q 22.859375 48.484375 18.828125 43.109375 
Q 14.796875 37.75 14.796875 27.984375 
Q 14.796875 18.265625 18.828125 12.890625 
Q 22.859375 7.515625 30.078125 7.515625 
Q 37.359375 7.515625 41.375 12.890625 
Q 45.40625 18.265625 45.40625 27.984375 
M 54.390625 6.78125 
Q 54.390625 -7.171875 48.1875 -13.984375 
Q 42 -20.796875 29.203125 -20.796875 
Q 24.46875 -20.796875 20.265625 -20.09375 
Q 16.0625 -19.390625 12.109375 -17.921875 
L 12.109375 -9.1875 
Q 16.0625 -11.328125 19.921875 -12.34375 
Q 23.78125 -13.375 27.78125 -13.375 
Q 36.625 -13.375 41.015625 -8.765625 
Q 45.40625 -4.15625 45.40625 5.171875 
L 45.40625 9.625 
Q 42.625 4.78125 38.28125 2.390625 
Q 33.9375 0 27.875 0 
Q 17.828125 0 11.671875 7.65625 
Q 5.515625 15.328125 5.515625 27.984375 
Q 5.515625 40.671875 11.671875 48.328125 
Q 17.828125 56 27.875 56 
Q 33.9375 56 38.28125 53.609375 
Q 42.625 51.21875 45.40625 46.390625 
L 45.40625 54.6875 
L 54.390625 54.6875 
z
" id="BitstreamVeraSans-Roman-67"/>
     <path d="M 34.1875 63.1875 
L 20.796875 26.90625 
L 47.609375 26.90625 
z
M 28.609375 72.90625 
L 39.796875 72.90625 
L 67.578125 0 
L 57.328125 0 
L 50.6875 18.703125 
L 17.828125 18.703125 
L 11.1875 0 
L 0.78125 0 
z
" id="BitstreamVeraSans-Roman-41"/>
    </defs>
    <g transform="translate(327.347028479 448.031415769)scale(0.14 -0.14)">
     <use xlink:href="#BitstreamVeraSans-Roman-41"/>
     <use x="68.408203125" xlink:href="#BitstreamVeraSans-Roman-6e"/>
     <use x="131.787109375" xlink:href="#BitstreamVeraSans-Roman-67"/>
     <use x="195.263671875" xlink:href="#BitstreamVeraSans-Roman-65"/>
     <use x="256.787109375" xlink:href="#BitstreamVeraSans-Roman-72"/>
     <use x="297.900390625" xlink:href="#BitstreamVeraSans-Roman-73"/>
    </g>
   </g>
   <g id="text_10">
    <!-- Rennes -->
    <g transform="translate(266.604829363 388.131016023)scale(0.14 -0.14)">
     <use xlink:href="#BitstreamVeraSans-Roman-52"/>
     <use x="69.419921875" xlink:href="#BitstreamVeraSans-Roman-65"/>
     <use x="130.943359375" xlink:href="#BitstreamVeraSans-Roman-6e"/>
     <use x="194.322265625" xlink:href="#BitstreamVeraSans-Roman-6e"/>
     <use x="257.701171875" xlink:href="#BitstreamVeraSans-Roman-65"/>
     <use x="319.224609375" xlink:href="#BitstreamVeraSans-Roman-73"/>
    </g>
   </g>
   <g id="text_11">
    <!-- Bordeaux -->
    <defs>
     <path d="M 19.671875 34.8125 
L 19.671875 8.109375 
L 35.5 8.109375 
Q 43.453125 8.109375 47.28125 11.40625 
Q 51.125 14.703125 51.125 21.484375 
Q 51.125 28.328125 47.28125 31.5625 
Q 43.453125 34.8125 35.5 34.8125 
z
M 19.671875 64.796875 
L 19.671875 42.828125 
L 34.28125 42.828125 
Q 41.5 42.828125 45.03125 45.53125 
Q 48.578125 48.25 48.578125 53.8125 
Q 48.578125 59.328125 45.03125 62.0625 
Q 41.5 64.796875 34.28125 64.796875 
z
M 9.8125 72.90625 
L 35.015625 72.90625 
Q 46.296875 72.90625 52.390625 68.21875 
Q 58.5 63.53125 58.5 54.890625 
Q 58.5 48.1875 55.375 44.234375 
Q 52.25 40.28125 46.1875 39.3125 
Q 53.46875 37.75 57.5 32.78125 
Q 61.53125 27.828125 61.53125 20.40625 
Q 61.53125 10.640625 54.890625 5.3125 
Q 48.25 0 35.984375 0 
L 9.8125 0 
z
" id="BitstreamVeraSans-Roman-42"/>
     <path d="M 54.890625 54.6875 
L 35.109375 28.078125 
L 55.90625 0 
L 45.3125 0 
L 29.390625 21.484375 
L 13.484375 0 
L 2.875 0 
L 24.125 28.609375 
L 4.6875 54.6875 
L 15.28125 54.6875 
L 29.78125 35.203125 
L 44.28125 54.6875 
z
" id="BitstreamVeraSans-Roman-78"/>
    </defs>
    <g transform="translate(318.767372645 672.841576889)scale(0.14 -0.14)">
     <use xlink:href="#BitstreamVeraSans-Roman-42"/>
     <use x="68.603515625" xlink:href="#BitstreamVeraSans-Roman-6f"/>
     <use x="129.78515625" xlink:href="#BitstreamVeraSans-Roman-72"/>
     <use x="170.8828125" xlink:href="#BitstreamVeraSans-Roman-64"/>
     <use x="234.359375" xlink:href="#BitstreamVeraSans-Roman-65"/>
     <use x="295.8828125" xlink:href="#BitstreamVeraSans-Roman-61"/>
     <use x="357.162109375" xlink:href="#BitstreamVeraSans-Roman-75"/>
     <use x="420.541015625" xlink:href="#BitstreamVeraSans-Roman-78"/>
    </g>
   </g>
   <g id="text_12">
    <!-- Grenoble -->
    <defs>
     <path d="M 59.515625 10.40625 
L 59.515625 29.984375 
L 43.40625 29.984375 
L 43.40625 38.09375 
L 69.28125 38.09375 
L 69.28125 6.78125 
Q 63.578125 2.734375 56.6875 0.65625 
Q 49.8125 -1.421875 42 -1.421875 
Q 24.90625 -1.421875 15.25 8.5625 
Q 5.609375 18.5625 5.609375 36.375 
Q 5.609375 54.25 15.25 64.234375 
Q 24.90625 74.21875 42 74.21875 
Q 49.125 74.21875 55.546875 72.453125 
Q 61.96875 70.703125 67.390625 67.28125 
L 67.390625 56.78125 
Q 61.921875 61.421875 55.765625 63.765625 
Q 49.609375 66.109375 42.828125 66.109375 
Q 29.4375 66.109375 22.71875 58.640625 
Q 16.015625 51.171875 16.015625 36.375 
Q 16.015625 21.625 22.71875 14.15625 
Q 29.4375 6.6875 42.828125 6.6875 
Q 48.046875 6.6875 52.140625 7.59375 
Q 56.25 8.5 59.515625 10.40625 
" id="BitstreamVeraSans-Roman-47"/>
     <path d="M 48.6875 27.296875 
Q 48.6875 37.203125 44.609375 42.84375 
Q 40.53125 48.484375 33.40625 48.484375 
Q 26.265625 48.484375 22.1875 42.84375 
Q 18.109375 37.203125 18.109375 27.296875 
Q 18.109375 17.390625 22.1875 11.75 
Q 26.265625 6.109375 33.40625 6.109375 
Q 40.53125 6.109375 44.609375 11.75 
Q 48.6875 17.390625 48.6875 27.296875 
M 18.109375 46.390625 
Q 20.953125 51.265625 25.265625 53.625 
Q 29.59375 56 35.59375 56 
Q 45.5625 56 51.78125 48.09375 
Q 58.015625 40.1875 58.015625 27.296875 
Q 58.015625 14.40625 51.78125 6.484375 
Q 45.5625 -1.421875 35.59375 -1.421875 
Q 29.59375 -1.421875 25.265625 0.953125 
Q 20.953125 3.328125 18.109375 8.203125 
L 18.109375 0 
L 9.078125 0 
L 9.078125 75.984375 
L 18.109375 75.984375 
z
" id="BitstreamVeraSans-Roman-62"/>
    </defs>
    <g transform="translate(704.668896206 640.873972644)scale(0.14 -0.14)">
     <use xlink:href="#BitstreamVeraSans-Roman-47"/>
     <use x="77.490234375" xlink:href="#BitstreamVeraSans-Roman-72"/>
     <use x="118.572265625" xlink:href="#BitstreamVeraSans-Roman-65"/>
     <use x="180.095703125" xlink:href="#BitstreamVeraSans-Roman-6e"/>
     <use x="243.474609375" xlink:href="#BitstreamVeraSans-Roman-6f"/>
     <use x="304.65625" xlink:href="#BitstreamVeraSans-Roman-62"/>
     <use x="368.1328125" xlink:href="#BitstreamVeraSans-Roman-6c"/>
     <use x="395.916015625" xlink:href="#BitstreamVeraSans-Roman-65"/>
    </g>
   </g>
   <g id="text_13">
    <!-- Nantes -->
    <defs>
     <path d="M 9.8125 72.90625 
L 23.09375 72.90625 
L 55.421875 11.921875 
L 55.421875 72.90625 
L 64.984375 72.90625 
L 64.984375 0 
L 51.703125 0 
L 19.390625 60.984375 
L 19.390625 0 
L 9.8125 0 
z
" id="BitstreamVeraSans-Roman-4e"/>
    </defs>
    <g transform="translate(268.068886851 467.206571503)scale(0.14 -0.14)">
     <use xlink:href="#BitstreamVeraSans-Roman-4e"/>
     <use x="74.8046875" xlink:href="#BitstreamVeraSans-Roman-61"/>
     <use x="136.083984375" xlink:href="#BitstreamVeraSans-Roman-6e"/>
     <use x="199.462890625" xlink:href="#BitstreamVeraSans-Roman-74"/>
     <use x="238.671875" xlink:href="#BitstreamVeraSans-Roman-65"/>
     <use x="300.1953125" xlink:href="#BitstreamVeraSans-Roman-73"/>
    </g>
   </g>
  </g>
  <g id="axes_2">
   <g id="patch_7">
    <path d="M 15.6 895.2 
L 333.801743 895.2 
L 333.801743 714.297702 
L 15.6 714.297702 
z
" style="fill:#f0f0f0;"/>
   </g>
   <g id="matplotlib.axis_3"/>
   <g id="matplotlib.axis_4"/>
   <g id="line2d_14">
    <path clip-path="url(#p14614acaf8)" d="M 139.953949 843.540882 
" style="fill:none;opacity:0.5;"/>
    <g clip-path="url(#p14614acaf8)">
     <use style="fill:#bf00bf;opacity:0.5;stroke:#000000;stroke-width:0.5;" x="139.953948548" xlink:href="#mc170d56436" y="843.540881612"/>
    </g>
   </g>
   <g id="line2d_15">
    <path clip-path="url(#p14614acaf8)" d="M 175.621399 805.569485 
" style="fill:none;opacity:0.5;"/>
    <defs>
     <path d="M 0 77.5 
C 20.55324 77.5 40.26744 69.334111 54.800776 54.800776 
C 69.334111 40.26744 77.5 20.55324 77.5 0 
C 77.5 -20.55324 69.334111 -40.26744 54.800776 -54.800776 
C 40.26744 -69.334111 20.55324 -77.5 0 -77.5 
C -20.55324 -77.5 -40.26744 -69.334111 -54.800776 -54.800776 
C -69.334111 -40.26744 -77.5 -20.55324 -77.5 0 
C -77.5 20.55324 -69.334111 40.26744 -54.800776 54.800776 
C -40.26744 69.334111 -20.55324 77.5 0 77.5 
z
" id="ma1e527e91b" style="stroke:#000000;stroke-width:0.5;"/>
    </defs>
    <g clip-path="url(#p14614acaf8)">
     <use style="fill:#bf00bf;opacity:0.5;stroke:#000000;stroke-width:0.5;" x="175.621399119" xlink:href="#ma1e527e91b" y="805.569484712"/>
    </g>
   </g>
   <g id="line2d_16">
    <path clip-path="url(#p14614acaf8)" d="M 139.027132 832.403513 
" style="fill:none;opacity:0.5;"/>
    <defs>
     <path d="M 0 5.5 
C 1.458617 5.5 2.857689 4.920485 3.889087 3.889087 
C 4.920485 2.857689 5.5 1.458617 5.5 0 
C 5.5 -1.458617 4.920485 -2.857689 3.889087 -3.889087 
C 2.857689 -4.920485 1.458617 -5.5 0 -5.5 
C -1.458617 -5.5 -2.857689 -4.920485 -3.889087 -3.889087 
C -4.920485 -2.857689 -5.5 -1.458617 -5.5 0 
C -5.5 1.458617 -4.920485 2.857689 -3.889087 3.889087 
C -2.857689 4.920485 -1.458617 5.5 0 5.5 
z
" id="mf7baaf4023" style="stroke:#000000;stroke-width:0.5;"/>
    </defs>
    <g clip-path="url(#p14614acaf8)">
     <use style="fill:#bf00bf;opacity:0.5;stroke:#000000;stroke-width:0.5;" x="139.027132287" xlink:href="#mf7baaf4023" y="832.403512944"/>
    </g>
   </g>
   <g id="line2d_17">
    <path clip-path="url(#p14614acaf8)" d="M 142.907784 852.991011 
" style="fill:none;opacity:0.5;"/>
    <g clip-path="url(#p14614acaf8)">
     <use style="fill:#bf00bf;opacity:0.5;stroke:#000000;stroke-width:0.5;" x="142.907783643" xlink:href="#ma3aadb8347" y="852.991011247"/>
    </g>
   </g>
   <g id="line2d_18">
    <path clip-path="url(#p14614acaf8)" d="M 192.91356 873.524406 
" style="fill:none;opacity:0.5;"/>
    <defs>
     <path d="M 0 15 
C 3.978047 15 7.793698 13.419505 10.606602 10.606602 
C 13.419505 7.793698 15 3.978047 15 0 
C 15 -3.978047 13.419505 -7.793698 10.606602 -10.606602 
C 7.793698 -13.419505 3.978047 -15 0 -15 
C -3.978047 -15 -7.793698 -13.419505 -10.606602 -10.606602 
C -13.419505 -7.793698 -15 -3.978047 -15 0 
C -15 3.978047 -13.419505 7.793698 -10.606602 10.606602 
C -7.793698 13.419505 -3.978047 15 0 15 
z
" id="m15024534ae" style="stroke:#000000;stroke-width:0.5;"/>
    </defs>
    <g clip-path="url(#p14614acaf8)">
     <use style="fill:#bf00bf;opacity:0.5;stroke:#000000;stroke-width:0.5;" x="192.913560045" xlink:href="#m15024534ae" y="873.524405699"/>
    </g>
   </g>
   <g id="line2d_19">
    <path clip-path="url(#p14614acaf8)" d="M 177.009115 824.832568 
" style="fill:none;opacity:0.5;"/>
    <g clip-path="url(#p14614acaf8)">
     <use style="fill:#bf00bf;opacity:0.5;stroke:#000000;stroke-width:0.5;" x="177.009115445" xlink:href="#me3df4bf865" y="824.832568325"/>
    </g>
   </g>
   <g id="line2d_20">
    <path clip-path="url(#p14614acaf8)" d="M 132.345761 852.153047 
" style="fill:none;opacity:0.5;"/>
    <defs>
     <path d="M 0 9 
C 2.386828 9 4.676219 8.051703 6.363961 6.363961 
C 8.051703 4.676219 9 2.386828 9 0 
C 9 -2.386828 8.051703 -4.676219 6.363961 -6.363961 
C 4.676219 -8.051703 2.386828 -9 0 -9 
C -2.386828 -9 -4.676219 -8.051703 -6.363961 -6.363961 
C -8.051703 -4.676219 -9 -2.386828 -9 0 
C -9 2.386828 -8.051703 4.676219 -6.363961 6.363961 
C -4.676219 8.051703 -2.386828 9 0 9 
z
" id="mef2f41d28f" style="stroke:#000000;stroke-width:0.5;"/>
    </defs>
    <g clip-path="url(#p14614acaf8)">
     <use style="fill:#bf00bf;opacity:0.5;stroke:#000000;stroke-width:0.5;" x="132.345760638" xlink:href="#mef2f41d28f" y="852.153047203"/>
    </g>
   </g>
   <g id="line2d_21">
    <path clip-path="url(#p14614acaf8)" d="M 130.86373 821.509646 
" style="fill:none;opacity:0.5;"/>
    <g clip-path="url(#p14614acaf8)">
     <use style="fill:#bf00bf;opacity:0.5;stroke:#000000;stroke-width:0.5;" x="130.863730267" xlink:href="#me3df4bf865" y="821.509645963"/>
    </g>
   </g>
   <g id="patch_8">
    <path d="M 15.6 714.297702 
L 333.801743 714.297702 
" style="fill:none;stroke:#000000;stroke-linecap:square;stroke-linejoin:miter;"/>
   </g>
   <g id="patch_9">
    <path d="M 333.801743 895.2 
L 333.801743 714.297702 
" style="fill:none;stroke:#000000;stroke-linecap:square;stroke-linejoin:miter;"/>
   </g>
   <g id="patch_10">
    <path d="M 15.6 895.2 
L 333.801743 895.2 
" style="fill:none;stroke:#000000;stroke-linecap:square;stroke-linejoin:miter;"/>
   </g>
   <g id="patch_11">
    <path d="M 15.6 895.2 
L 15.6 714.297702 
" style="fill:none;stroke:#000000;stroke-linecap:square;stroke-linejoin:miter;"/>
   </g>
   <g id="text_14">
    <!-- Saclay -->
    <defs>
     <path d="M 53.515625 70.515625 
L 53.515625 60.890625 
Q 47.90625 63.578125 42.921875 64.890625 
Q 37.9375 66.21875 33.296875 66.21875 
Q 25.25 66.21875 20.875 63.09375 
Q 16.5 59.96875 16.5 54.203125 
Q 16.5 49.359375 19.40625 46.890625 
Q 22.3125 44.4375 30.421875 42.921875 
L 36.375 41.703125 
Q 47.40625 39.59375 52.65625 34.296875 
Q 57.90625 29 57.90625 20.125 
Q 57.90625 9.515625 50.796875 4.046875 
Q 43.703125 -1.421875 29.984375 -1.421875 
Q 24.8125 -1.421875 18.96875 -0.25 
Q 13.140625 0.921875 6.890625 3.21875 
L 6.890625 13.375 
Q 12.890625 10.015625 18.65625 8.296875 
Q 24.421875 6.59375 29.984375 6.59375 
Q 38.421875 6.59375 43.015625 9.90625 
Q 47.609375 13.234375 47.609375 19.390625 
Q 47.609375 24.75 44.3125 27.78125 
Q 41.015625 30.8125 33.5 32.328125 
L 27.484375 33.5 
Q 16.453125 35.6875 11.515625 40.375 
Q 6.59375 45.0625 6.59375 53.421875 
Q 6.59375 63.09375 13.40625 68.65625 
Q 20.21875 74.21875 32.171875 74.21875 
Q 37.3125 74.21875 42.625 73.28125 
Q 47.953125 72.359375 53.515625 70.515625 
" id="BitstreamVeraSans-Roman-53"/>
    </defs>
    <g transform="translate(143.868353895 836.714913766)scale(0.14 -0.14)">
     <use xlink:href="#BitstreamVeraSans-Roman-53"/>
     <use x="63.4765625" xlink:href="#BitstreamVeraSans-Roman-61"/>
     <use x="124.755859375" xlink:href="#BitstreamVeraSans-Roman-63"/>
     <use x="179.736328125" xlink:href="#BitstreamVeraSans-Roman-6c"/>
     <use x="207.51953125" xlink:href="#BitstreamVeraSans-Roman-61"/>
     <use x="268.798828125" xlink:href="#BitstreamVeraSans-Roman-79"/>
    </g>
   </g>
   <g id="text_15">
    <!-- Paris -->
    <defs>
     <path d="M 19.671875 64.796875 
L 19.671875 37.40625 
L 32.078125 37.40625 
Q 38.96875 37.40625 42.71875 40.96875 
Q 46.484375 44.53125 46.484375 51.125 
Q 46.484375 57.671875 42.71875 61.234375 
Q 38.96875 64.796875 32.078125 64.796875 
z
M 9.8125 72.90625 
L 32.078125 72.90625 
Q 44.34375 72.90625 50.609375 67.359375 
Q 56.890625 61.8125 56.890625 51.125 
Q 56.890625 40.328125 50.609375 34.8125 
Q 44.34375 29.296875 32.078125 29.296875 
L 19.671875 29.296875 
L 19.671875 0 
L 9.8125 0 
z
" id="BitstreamVeraSans-Roman-50"/>
    </defs>
    <g transform="translate(247.23199105 731.047330281)scale(0.14 -0.14)">
     <use xlink:href="#BitstreamVeraSans-Roman-50"/>
     <use x="60.240234375" xlink:href="#BitstreamVeraSans-Roman-61"/>
     <use x="121.51953125" xlink:href="#BitstreamVeraSans-Roman-72"/>
     <use x="162.6328125" xlink:href="#BitstreamVeraSans-Roman-69"/>
     <use x="190.416015625" xlink:href="#BitstreamVeraSans-Roman-73"/>
    </g>
   </g>
   <g id="text_16">
    <!-- Jouy En Josas -->
    <defs>
     <path d="M 9.8125 72.90625 
L 55.90625 72.90625 
L 55.90625 64.59375 
L 19.671875 64.59375 
L 19.671875 43.015625 
L 54.390625 43.015625 
L 54.390625 34.71875 
L 19.671875 34.71875 
L 19.671875 8.296875 
L 56.78125 8.296875 
L 56.78125 0 
L 9.8125 0 
z
" id="BitstreamVeraSans-Roman-45"/>
     <path d="M 9.8125 72.90625 
L 19.671875 72.90625 
L 19.671875 5.078125 
Q 19.671875 -8.109375 14.671875 -14.0625 
Q 9.671875 -20.015625 -1.421875 -20.015625 
L -5.171875 -20.015625 
L -5.171875 -11.71875 
L -2.09375 -11.71875 
Q 4.4375 -11.71875 7.125 -8.046875 
Q 9.8125 -4.390625 9.8125 5.078125 
z
" id="BitstreamVeraSans-Roman-4a"/>
    </defs>
    <g transform="translate(144.092833324 824.426249407)scale(0.14 -0.14)">
     <use xlink:href="#BitstreamVeraSans-Roman-4a"/>
     <use x="29.4921875" xlink:href="#BitstreamVeraSans-Roman-6f"/>
     <use x="90.673828125" xlink:href="#BitstreamVeraSans-Roman-75"/>
     <use x="154.052734375" xlink:href="#BitstreamVeraSans-Roman-79"/>
     <use x="213.232421875" xlink:href="#BitstreamVeraSans-Roman-20"/>
     <use x="245.01953125" xlink:href="#BitstreamVeraSans-Roman-45"/>
     <use x="308.203125" xlink:href="#BitstreamVeraSans-Roman-6e"/>
     <use x="371.58203125" xlink:href="#BitstreamVeraSans-Roman-20"/>
     <use x="403.369140625" xlink:href="#BitstreamVeraSans-Roman-4a"/>
     <use x="432.861328125" xlink:href="#BitstreamVeraSans-Roman-6f"/>
     <use x="494.04296875" xlink:href="#BitstreamVeraSans-Roman-73"/>
     <use x="546.142578125" xlink:href="#BitstreamVeraSans-Roman-61"/>
     <use x="607.421875" xlink:href="#BitstreamVeraSans-Roman-73"/>
    </g>
   </g>
   <g id="text_17">
    <!-- Orsay -->
    <defs>
     <path d="M 39.40625 66.21875 
Q 28.65625 66.21875 22.328125 58.203125 
Q 16.015625 50.203125 16.015625 36.375 
Q 16.015625 22.609375 22.328125 14.59375 
Q 28.65625 6.59375 39.40625 6.59375 
Q 50.140625 6.59375 56.421875 14.59375 
Q 62.703125 22.609375 62.703125 36.375 
Q 62.703125 50.203125 56.421875 58.203125 
Q 50.140625 66.21875 39.40625 66.21875 
M 39.40625 74.21875 
Q 54.734375 74.21875 63.90625 63.9375 
Q 73.09375 53.65625 73.09375 36.375 
Q 73.09375 19.140625 63.90625 8.859375 
Q 54.734375 -1.421875 39.40625 -1.421875 
Q 24.03125 -1.421875 14.8125 8.828125 
Q 5.609375 19.09375 5.609375 36.375 
Q 5.609375 53.65625 14.8125 63.9375 
Q 24.03125 74.21875 39.40625 74.21875 
" id="BitstreamVeraSans-Roman-4f"/>
    </defs>
    <g transform="translate(147.282707266 845.704525125)scale(0.14 -0.14)">
     <use xlink:href="#BitstreamVeraSans-Roman-4f"/>
     <use x="78.7109375" xlink:href="#BitstreamVeraSans-Roman-72"/>
     <use x="119.82421875" xlink:href="#BitstreamVeraSans-Roman-73"/>
     <use x="171.923828125" xlink:href="#BitstreamVeraSans-Roman-61"/>
     <use x="233.203125" xlink:href="#BitstreamVeraSans-Roman-79"/>
    </g>
   </g>
   <g id="text_18">
    <!-- Evry -->
    <defs>
     <path d="M 2.984375 54.6875 
L 12.5 54.6875 
L 29.59375 8.796875 
L 46.6875 54.6875 
L 56.203125 54.6875 
L 35.6875 0 
L 23.484375 0 
z
" id="BitstreamVeraSans-Roman-76"/>
    </defs>
    <g transform="translate(206.959367466 856.567035779)scale(0.14 -0.14)">
     <use xlink:href="#BitstreamVeraSans-Roman-45"/>
     <use x="63.18359375" xlink:href="#BitstreamVeraSans-Roman-76"/>
     <use x="122.36328125" xlink:href="#BitstreamVeraSans-Roman-72"/>
     <use x="163.4765625" xlink:href="#BitstreamVeraSans-Roman-79"/>
    </g>
   </g>
   <g id="text_19">
    <!-- Villejuif -->
    <defs>
     <path d="M 9.421875 54.6875 
L 18.40625 54.6875 
L 18.40625 -0.984375 
Q 18.40625 -11.421875 14.421875 -16.109375 
Q 10.453125 -20.796875 1.609375 -20.796875 
L -1.8125 -20.796875 
L -1.8125 -13.1875 
L 0.59375 -13.1875 
Q 5.71875 -13.1875 7.5625 -10.8125 
Q 9.421875 -8.453125 9.421875 -0.984375 
z
M 9.421875 75.984375 
L 18.40625 75.984375 
L 18.40625 64.59375 
L 9.421875 64.59375 
z
" id="BitstreamVeraSans-Roman-6a"/>
     <path d="M 28.609375 0 
L 0.78125 72.90625 
L 11.078125 72.90625 
L 34.1875 11.53125 
L 57.328125 72.90625 
L 67.578125 72.90625 
L 39.796875 0 
z
" id="BitstreamVeraSans-Roman-56"/>
    </defs>
    <g transform="translate(181.844557344 817.085563926)scale(0.14 -0.14)">
     <use xlink:href="#BitstreamVeraSans-Roman-56"/>
     <use x="68.376953125" xlink:href="#BitstreamVeraSans-Roman-69"/>
     <use x="96.16015625" xlink:href="#BitstreamVeraSans-Roman-6c"/>
     <use x="123.943359375" xlink:href="#BitstreamVeraSans-Roman-6c"/>
     <use x="151.7265625" xlink:href="#BitstreamVeraSans-Roman-65"/>
     <use x="213.25" xlink:href="#BitstreamVeraSans-Roman-6a"/>
     <use x="241.033203125" xlink:href="#BitstreamVeraSans-Roman-75"/>
     <use x="304.412109375" xlink:href="#BitstreamVeraSans-Roman-69"/>
     <use x="332.1953125" xlink:href="#BitstreamVeraSans-Roman-66"/>
    </g>
   </g>
   <g id="text_20">
    <!-- Gif Sur Yvette -->
    <defs>
     <path d="M -0.203125 72.90625 
L 10.40625 72.90625 
L 30.609375 42.921875 
L 50.6875 72.90625 
L 61.28125 72.90625 
L 35.5 34.71875 
L 35.5 0 
L 25.59375 0 
L 25.59375 34.71875 
z
" id="BitstreamVeraSans-Roman-59"/>
    </defs>
    <g transform="translate(140.635089607 840.952155734)scale(0.14 -0.14)">
     <use xlink:href="#BitstreamVeraSans-Roman-47"/>
     <use x="77.490234375" xlink:href="#BitstreamVeraSans-Roman-69"/>
     <use x="105.2734375" xlink:href="#BitstreamVeraSans-Roman-66"/>
     <use x="140.478515625" xlink:href="#BitstreamVeraSans-Roman-20"/>
     <use x="172.265625" xlink:href="#BitstreamVeraSans-Roman-53"/>
     <use x="235.7421875" xlink:href="#BitstreamVeraSans-Roman-75"/>
     <use x="299.12109375" xlink:href="#BitstreamVeraSans-Roman-72"/>
     <use x="340.234375" xlink:href="#BitstreamVeraSans-Roman-20"/>
     <use x="372.021484375" xlink:href="#BitstreamVeraSans-Roman-59"/>
     <use x="433.10546875" xlink:href="#BitstreamVeraSans-Roman-76"/>
     <use x="492.28515625" xlink:href="#BitstreamVeraSans-Roman-65"/>
     <use x="553.80859375" xlink:href="#BitstreamVeraSans-Roman-74"/>
     <use x="593.017578125" xlink:href="#BitstreamVeraSans-Roman-74"/>
     <use x="632.2265625" xlink:href="#BitstreamVeraSans-Roman-65"/>
    </g>
   </g>
   <g id="text_21">
    <!-- Versailles -->
    <g transform="translate(135.468913028 813.992900702)scale(0.14 -0.14)">
     <use xlink:href="#BitstreamVeraSans-Roman-56"/>
     <use x="68.298828125" xlink:href="#BitstreamVeraSans-Roman-65"/>
     <use x="129.822265625" xlink:href="#BitstreamVeraSans-Roman-72"/>
     <use x="170.935546875" xlink:href="#BitstreamVeraSans-Roman-73"/>
     <use x="223.03515625" xlink:href="#BitstreamVeraSans-Roman-61"/>
     <use x="284.314453125" xlink:href="#BitstreamVeraSans-Roman-69"/>
     <use x="312.09765625" xlink:href="#BitstreamVeraSans-Roman-6c"/>
     <use x="339.880859375" xlink:href="#BitstreamVeraSans-Roman-6c"/>
     <use x="367.6640625" xlink:href="#BitstreamVeraSans-Roman-65"/>
     <use x="429.1875" xlink:href="#BitstreamVeraSans-Roman-73"/>
    </g>
   </g>
  </g>
 </g>
 <defs>
  <clipPath id="p38b6e9c56d">
   <rect height="896.4" width="835.749159032" x="7.2" y="7.2"/>
  </clipPath>
  <clipPath id="p14614acaf8">
   <rect height="180.902298155" width="318.201742836" x="15.6" y="714.297701845"/>
  </clipPath>
 </defs>
</svg>
