<?xml version="1.0" encoding="utf-8" standalone="no"?>
<!DOCTYPE svg PUBLIC "-//W3C//DTD SVG 1.1//EN"
  "http://www.w3.org/Graphics/SVG/1.1/DTD/svg11.dtd">
<!-- Created with matplotlib (http://matplotlib.org/) -->
<svg height="408pt" version="1.1" viewBox="0 0 560 408" width="560pt" xmlns="http://www.w3.org/2000/svg" xmlns:xlink="http://www.w3.org/1999/xlink">
 <defs>
  <style type="text/css">
*{stroke-linecap:butt;stroke-linejoin:round;stroke-miterlimit:100000;}
  </style>
 </defs>
 <g id="figure_1">
  <g id="patch_1">
   <path d="M 0 408.74525 
L 560.270125 408.74525 
L 560.270125 0 
L 0 0 
z
" style="fill:#ffffff;"/>
  </g>
  <g id="axes_1">
   <g id="patch_2">
    <path d="M 98.880625 369.31775 
L 545.280625 369.31775 
L 545.280625 23.71775 
L 98.880625 23.71775 
z
" style="fill:#ffffff;"/>
   </g>
   <g id="PolyCollection_1">
    <defs>
     <path d="M 175.406339 -104.2275 
L 175.406339 -61.0275 
L 175.406339 -61.0275 
L 175.406339 -61.0275 
L 175.406339 -61.0275 
L 175.406339 -61.0275 
L 175.406339 -61.0275 
L 175.406339 -61.0275 
L 175.406339 -61.0275 
L 175.406339 -61.0275 
L 175.406339 -61.0275 
L 175.406339 -61.0275 
L 175.406339 -61.0275 
L 175.406339 -61.0275 
L 175.406339 -61.0275 
L 175.406339 -61.0275 
L 175.406339 -61.0275 
L 175.406339 -61.0275 
L 175.406339 -61.0275 
L 175.406339 -61.0275 
L 175.406339 -61.0275 
L 175.406339 -61.0275 
L 175.406339 -61.0275 
L 175.406339 -61.0275 
L 175.406339 -61.0275 
L 175.406339 -61.0275 
L 175.406339 -61.0275 
L 175.406339 -61.0275 
L 175.406339 -61.0275 
L 175.406339 -61.0275 
L 175.406339 -61.0275 
L 175.406339 -61.0275 
L 175.406339 -61.0275 
L 175.406339 -61.0275 
L 175.406339 -61.0275 
L 175.406339 -61.0275 
L 175.406339 -61.0275 
L 175.406339 -61.0275 
L 175.406339 -61.0275 
L 175.406339 -61.0275 
L 175.406339 -61.0275 
L 175.406339 -61.0275 
L 175.406339 -61.0275 
L 175.406339 -61.0275 
L 175.406339 -61.0275 
L 175.406339 -61.0275 
L 175.406339 -61.0275 
L 175.406339 -61.0275 
L 175.406339 -61.0275 
L 175.406339 -61.0275 
L 175.406339 -61.0275 
L 175.406339 -61.0275 
L 175.406339 -61.0275 
L 175.406339 -61.0275 
L 175.406339 -61.0275 
L 175.406339 -61.0275 
L 175.406339 -61.0275 
L 175.406339 -61.0275 
L 175.406339 -61.0275 
L 175.406339 -61.0275 
L 175.406339 -61.0275 
L 175.406339 -61.0275 
L 175.406339 -61.0275 
L 175.406339 -61.0275 
L 175.406339 -61.0275 
L 175.406339 -61.0275 
L 175.406339 -61.0275 
L 175.406339 -61.0275 
L 175.406339 -61.0275 
L 175.406339 -61.0275 
L 175.406339 -61.0275 
L 175.406339 -61.0275 
L 175.406339 -61.0275 
L 175.406339 -61.0275 
L 175.406339 -61.0275 
L 175.406339 -61.0275 
L 175.406339 -61.0275 
L 175.406339 -61.0275 
L 175.406339 -61.0275 
L 175.406339 -61.0275 
L 175.406339 -61.0275 
L 175.406339 -61.0275 
L 175.406339 -61.0275 
L 175.406339 -61.0275 
L 175.406339 -61.0275 
L 175.406339 -61.0275 
L 175.406339 -61.0275 
L 175.406339 -61.0275 
L 175.406339 -61.0275 
L 175.406339 -61.0275 
L 175.406339 -61.0275 
L 175.406339 -61.0275 
L 175.406339 -61.0275 
L 175.406339 -61.0275 
L 175.406339 -61.0275 
L 175.406339 -61.0275 
L 175.406339 -61.0275 
L 175.406339 -61.0275 
L 175.406339 -61.0275 
L 175.406339 -61.0275 
L 175.406339 -61.0275 
L 175.406339 -104.2275 
L 175.406339 -104.2275 
L 175.406339 -104.2275 
L 175.406339 -104.2275 
L 175.406339 -104.2275 
L 175.406339 -104.2275 
L 175.406339 -104.2275 
L 175.406339 -104.2275 
L 175.406339 -104.2275 
L 175.406339 -104.2275 
L 175.406339 -104.2275 
L 175.406339 -104.2275 
L 175.406339 -104.2275 
L 175.406339 -104.2275 
L 175.406339 -104.2275 
L 175.406339 -104.2275 
L 175.406339 -104.2275 
L 175.406339 -104.2275 
L 175.406339 -104.2275 
L 175.406339 -104.2275 
L 175.406339 -104.2275 
L 175.406339 -104.2275 
L 175.406339 -104.2275 
L 175.406339 -104.2275 
L 175.406339 -104.2275 
L 175.406339 -104.2275 
L 175.406339 -104.2275 
L 175.406339 -104.2275 
L 175.406339 -104.2275 
L 175.406339 -104.2275 
L 175.406339 -104.2275 
L 175.406339 -104.2275 
L 175.406339 -104.2275 
L 175.406339 -104.2275 
L 175.406339 -104.2275 
L 175.406339 -104.2275 
L 175.406339 -104.2275 
L 175.406339 -104.2275 
L 175.406339 -104.2275 
L 175.406339 -104.2275 
L 175.406339 -104.2275 
L 175.406339 -104.2275 
L 175.406339 -104.2275 
L 175.406339 -104.2275 
L 175.406339 -104.2275 
L 175.406339 -104.2275 
L 175.406339 -104.2275 
L 175.406339 -104.2275 
L 175.406339 -104.2275 
L 175.406339 -104.2275 
L 175.406339 -104.2275 
L 175.406339 -104.2275 
L 175.406339 -104.2275 
L 175.406339 -104.2275 
L 175.406339 -104.2275 
L 175.406339 -104.2275 
L 175.406339 -104.2275 
L 175.406339 -104.2275 
L 175.406339 -104.2275 
L 175.406339 -104.2275 
L 175.406339 -104.2275 
L 175.406339 -104.2275 
L 175.406339 -104.2275 
L 175.406339 -104.2275 
L 175.406339 -104.2275 
L 175.406339 -104.2275 
L 175.406339 -104.2275 
L 175.406339 -104.2275 
L 175.406339 -104.2275 
L 175.406339 -104.2275 
L 175.406339 -104.2275 
L 175.406339 -104.2275 
L 175.406339 -104.2275 
L 175.406339 -104.2275 
L 175.406339 -104.2275 
L 175.406339 -104.2275 
L 175.406339 -104.2275 
L 175.406339 -104.2275 
L 175.406339 -104.2275 
L 175.406339 -104.2275 
L 175.406339 -104.2275 
L 175.406339 -104.2275 
L 175.406339 -104.2275 
L 175.406339 -104.2275 
L 175.406339 -104.2275 
L 175.406339 -104.2275 
L 175.406339 -104.2275 
L 175.406339 -104.2275 
L 175.406339 -104.2275 
L 175.406339 -104.2275 
L 175.406339 -104.2275 
L 175.406339 -104.2275 
L 175.406339 -104.2275 
L 175.406339 -104.2275 
L 175.406339 -104.2275 
L 175.406339 -104.2275 
L 175.406339 -104.2275 
L 175.406339 -104.2275 
L 175.406339 -104.2275 
L 175.406339 -104.2275 
L 175.406339 -104.2275 
z
" id="mf0b2ff6826" style="stroke:#000000;stroke-opacity:0.3;"/>
    </defs>
    <g clip-path="url(#p38e260ddaf)">
     <use style="fill:#808080;fill-opacity:0.3;stroke:#000000;stroke-opacity:0.3;" x="0.0" xlink:href="#mf0b2ff6826" y="408.74525"/>
    </g>
   </g>
   <g id="PolyCollection_2">
    <defs>
     <path d="M 118.012054 -179.821699 
L 118.012054 -158.233301 
L 120.137768 -157.610588 
L 122.263482 -156.984538 
L 124.389196 -156.357125 
L 126.514911 -155.730338 
L 128.640625 -155.106197 
L 130.766339 -154.486785 
L 132.892054 -153.874276 
L 135.017768 -153.270971 
L 137.143482 -152.679326 
L 139.269196 -152.101991 
L 141.394911 -151.541826 
L 143.520625 -151.001919 
L 145.646339 -150.485586 
L 147.772054 -149.996364 
L 149.897768 -149.537978 
L 152.023482 -149.114302 
L 154.149196 -148.729295 
L 156.274911 -148.386927 
L 158.400625 -148.091089 
L 160.526339 -147.845494 
L 162.652054 -147.653569 
L 164.777768 -147.518344 
L 166.903482 -147.442348 
L 169.029196 -147.4275 
L 171.154911 -147.475026 
L 173.280625 -147.58538 
L 175.406339 -147.758188 
L 177.532054 -147.992219 
L 179.657768 -148.285371 
L 181.783482 -148.634693 
L 183.909196 -149.036426 
L 186.034911 -149.48607 
L 188.160625 -149.978474 
L 190.286339 -150.507945 
L 192.412054 -151.068371 
L 194.537768 -151.653358 
L 196.663482 -152.256371 
L 198.789196 -152.870874 
L 200.914911 -153.490473 
L 203.040625 -154.109047 
L 205.166339 -154.720866 
L 207.292054 -155.320696 
L 209.417768 -155.903892 
L 211.543482 -156.466455 
L 213.669196 -157.005089 
L 215.794911 -157.517222 
L 217.920625 -158.001011 
L 220.046339 -158.455327 
L 222.172054 -158.879724 
L 224.297768 -159.274386 
L 226.423482 -159.640065 
L 228.549196 -159.978007 
L 230.674911 -160.289863 
L 232.800625 -160.577603 
L 234.926339 -160.84342 
L 237.052054 -161.089633 
L 239.177768 -161.3186 
L 241.303482 -161.532626 
L 243.429196 -161.733882 
L 245.554911 -161.924334 
L 247.680625 -162.105681 
L 249.806339 -162.279305 
L 251.932054 -162.446238 
L 254.057768 -162.607136 
L 256.183482 -162.762274 
L 258.309196 -162.911554 
L 260.434911 -163.054524 
L 262.560625 -163.190411 
L 264.686339 -163.318173 
L 266.812054 -163.436547 
L 268.937768 -163.544121 
L 271.063482 -163.6394 
L 273.189196 -163.720881 
L 275.314911 -163.787134 
L 277.440625 -163.836868 
L 279.566339 -163.869011 
L 281.692054 -163.882768 
L 283.817768 -163.877684 
L 285.943482 -163.853685 
L 288.069196 -163.811118 
L 290.194911 -163.750771 
L 292.320625 -163.673882 
L 294.446339 -163.582134 
L 296.572054 -163.477634 
L 298.697768 -163.362881 
L 300.823482 -163.240717 
L 302.949196 -163.114271 
L 305.074911 -162.986894 
L 307.200625 -162.862075 
L 309.326339 -162.743367 
L 311.452054 -162.634299 
L 313.577768 -162.538289 
L 315.703482 -162.458564 
L 317.829196 -162.398075 
L 319.954911 -162.359429 
L 322.080625 -162.344824 
L 324.206339 -162.355996 
L 326.332054 -162.394178 
L 328.457768 -162.460079 
L 328.457768 -175.594921 
L 328.457768 -175.594921 
L 326.332054 -175.660822 
L 324.206339 -175.699004 
L 322.080625 -175.710176 
L 319.954911 -175.695571 
L 317.829196 -175.656925 
L 315.703482 -175.596436 
L 313.577768 -175.516711 
L 311.452054 -175.420701 
L 309.326339 -175.311633 
L 307.200625 -175.192925 
L 305.074911 -175.068106 
L 302.949196 -174.940729 
L 300.823482 -174.814283 
L 298.697768 -174.692119 
L 296.572054 -174.577366 
L 294.446339 -174.472866 
L 292.320625 -174.381118 
L 290.194911 -174.304229 
L 288.069196 -174.243882 
L 285.943482 -174.201315 
L 283.817768 -174.177316 
L 281.692054 -174.172232 
L 279.566339 -174.185989 
L 277.440625 -174.218132 
L 275.314911 -174.267866 
L 273.189196 -174.334119 
L 271.063482 -174.4156 
L 268.937768 -174.510879 
L 266.812054 -174.618453 
L 264.686339 -174.736827 
L 262.560625 -174.864589 
L 260.434911 -175.000476 
L 258.309196 -175.143446 
L 256.183482 -175.292726 
L 254.057768 -175.447864 
L 251.932054 -175.608762 
L 249.806339 -175.775695 
L 247.680625 -175.949319 
L 245.554911 -176.130666 
L 243.429196 -176.321118 
L 241.303482 -176.522374 
L 239.177768 -176.7364 
L 237.052054 -176.965367 
L 234.926339 -177.21158 
L 232.800625 -177.477397 
L 230.674911 -177.765137 
L 228.549196 -178.076993 
L 226.423482 -178.414935 
L 224.297768 -178.780614 
L 222.172054 -179.175276 
L 220.046339 -179.599673 
L 217.920625 -180.053989 
L 215.794911 -180.537778 
L 213.669196 -181.049911 
L 211.543482 -181.588545 
L 209.417768 -182.151108 
L 207.292054 -182.734304 
L 205.166339 -183.334134 
L 203.040625 -183.945953 
L 200.914911 -184.564527 
L 198.789196 -185.184126 
L 196.663482 -185.798629 
L 194.537768 -186.401642 
L 192.412054 -186.986629 
L 190.286339 -187.547055 
L 188.160625 -188.076526 
L 186.034911 -188.56893 
L 183.909196 -189.018574 
L 181.783482 -189.420307 
L 179.657768 -189.769629 
L 177.532054 -190.062781 
L 175.406339 -190.296812 
L 173.280625 -190.46962 
L 171.154911 -190.579974 
L 169.029196 -190.6275 
L 166.903482 -190.612652 
L 164.777768 -190.536656 
L 162.652054 -190.401431 
L 160.526339 -190.209506 
L 158.400625 -189.963911 
L 156.274911 -189.668073 
L 154.149196 -189.325705 
L 152.023482 -188.940698 
L 149.897768 -188.517022 
L 147.772054 -188.058636 
L 145.646339 -187.569414 
L 143.520625 -187.053081 
L 141.394911 -186.513174 
L 139.269196 -185.953009 
L 137.143482 -185.375674 
L 135.017768 -184.784029 
L 132.892054 -184.180724 
L 130.766339 -183.568215 
L 128.640625 -182.948803 
L 126.514911 -182.324662 
L 124.389196 -181.697875 
L 122.263482 -181.070462 
L 120.137768 -180.444412 
L 118.012054 -179.821699 
z
" id="m212d4ce9a9" style="stroke:#000000;stroke-opacity:0.3;"/>
    </defs>
    <g clip-path="url(#p38e260ddaf)">
     <use style="fill:#808080;fill-opacity:0.3;stroke:#000000;stroke-opacity:0.3;" x="0.0" xlink:href="#m212d4ce9a9" y="408.74525"/>
    </g>
   </g>
   <g id="PolyCollection_3">
    <defs>
     <path d="M 105.257768 -257.20562 
L 105.257768 -253.64938 
L 108.2853 -253.187593 
L 111.312833 -252.654308 
L 114.340365 -252.053659 
L 117.367898 -251.393912 
L 120.39543 -250.686628 
L 123.422963 -249.944911 
L 126.450495 -249.180839 
L 129.478028 -248.402474 
L 132.50556 -247.611066 
L 135.533093 -246.799233 
L 138.560625 -245.950887 
L 141.588157 -245.043476 
L 144.61569 -244.05266 
L 147.643222 -242.958961 
L 150.670755 -241.755323 
L 153.698287 -240.454019 
L 156.72582 -239.09115 
L 159.753352 -237.727208 
L 162.780885 -236.442784 
L 165.808417 -235.329532 
L 168.83595 -234.477557 
L 171.863482 -233.961426 
L 174.891015 -233.8275 
L 177.918547 -234.085277 
L 180.94608 -234.704717 
L 183.973612 -235.620302 
L 187.001144 -236.741167 
L 190.028677 -237.965295 
L 193.056209 -239.194931 
L 196.083742 -240.35016 
L 199.111274 -241.378106 
L 202.138807 -242.256267 
L 205.166339 -242.989856 
L 208.193872 -243.604286 
L 211.221404 -244.13492 
L 214.248937 -244.616584 
L 217.276469 -245.075159 
L 220.304002 -245.522889 
L 223.331534 -245.958006 
L 226.359067 -246.36826 
L 229.386599 -246.737033 
L 232.414131 -247.050258 
L 235.441664 -247.30231 
L 238.469196 -247.499426 
L 241.496729 -247.659926 
L 244.524261 -247.811306 
L 247.551794 -247.98502 
L 250.579326 -248.210281 
L 253.606859 -248.508314 
L 256.634391 -248.888347 
L 259.661924 -249.34609 
L 262.689456 -249.864878 
L 265.716989 -250.419005 
L 268.744521 -250.978363 
L 271.772054 -251.513308 
L 274.799586 -251.99874 
L 277.827119 -252.416694 
L 280.854651 -252.75716 
L 283.882183 -253.017288 
L 286.909716 -253.199475 
L 289.937248 -253.309002 
L 292.964781 -253.351925 
L 295.992313 -253.333742 
L 299.019846 -253.259099 
L 302.047378 -253.132503 
L 305.074911 -252.959732 
L 308.102443 -252.74943 
L 311.129976 -252.514342 
L 314.157508 -252.271708 
L 317.185041 -252.042531 
L 320.212573 -251.849736 
L 323.240106 -251.715501 
L 326.267638 -251.658261 
L 329.29517 -251.690013 
L 332.322703 -251.814472 
L 335.350235 -252.026473 
L 338.377768 -252.312739 
L 341.4053 -252.653821 
L 344.432833 -253.026824 
L 347.460365 -253.40836 
L 350.487898 -253.777229 
L 353.51543 -254.116388 
L 356.542963 -254.414032 
L 359.570495 -254.66375 
L 362.598028 -254.863943 
L 365.62556 -255.016768 
L 368.653093 -255.126896 
L 371.680625 -255.200338 
L 374.708157 -255.243515 
L 377.73569 -255.262639 
L 380.763222 -255.263393 
L 383.790755 -255.250849 
L 386.818287 -255.229523 
L 389.84582 -255.203471 
L 392.873352 -255.176356 
L 395.900885 -255.151436 
L 398.928417 -255.131486 
L 401.95595 -255.11866 
L 404.983482 -255.114353 
L 404.983482 -255.740647 
L 404.983482 -255.740647 
L 401.95595 -255.73634 
L 398.928417 -255.723514 
L 395.900885 -255.703564 
L 392.873352 -255.678644 
L 389.84582 -255.651529 
L 386.818287 -255.625477 
L 383.790755 -255.604151 
L 380.763222 -255.591607 
L 377.73569 -255.592361 
L 374.708157 -255.611485 
L 371.680625 -255.654662 
L 368.653093 -255.728104 
L 365.62556 -255.838232 
L 362.598028 -255.991057 
L 359.570495 -256.19125 
L 356.542963 -256.440968 
L 353.51543 -256.738612 
L 350.487898 -257.077771 
L 347.460365 -257.44664 
L 344.432833 -257.828176 
L 341.4053 -258.201179 
L 338.377768 -258.542261 
L 335.350235 -258.828527 
L 332.322703 -259.040528 
L 329.29517 -259.164987 
L 326.267638 -259.196739 
L 323.240106 -259.139499 
L 320.212573 -259.005264 
L 317.185041 -258.812469 
L 314.157508 -258.583292 
L 311.129976 -258.340658 
L 308.102443 -258.10557 
L 305.074911 -257.895268 
L 302.047378 -257.722497 
L 299.019846 -257.595901 
L 295.992313 -257.521258 
L 292.964781 -257.503075 
L 289.937248 -257.545998 
L 286.909716 -257.655525 
L 283.882183 -257.837712 
L 280.854651 -258.09784 
L 277.827119 -258.438306 
L 274.799586 -258.85626 
L 271.772054 -259.341692 
L 268.744521 -259.876637 
L 265.716989 -260.435995 
L 262.689456 -260.990122 
L 259.661924 -261.50891 
L 256.634391 -261.966653 
L 253.606859 -262.346686 
L 250.579326 -262.644719 
L 247.551794 -262.86998 
L 244.524261 -263.043694 
L 241.496729 -263.195074 
L 238.469196 -263.355574 
L 235.441664 -263.55269 
L 232.414131 -263.804742 
L 229.386599 -264.117967 
L 226.359067 -264.48674 
L 223.331534 -264.896994 
L 220.304002 -265.332111 
L 217.276469 -265.779841 
L 214.248937 -266.238416 
L 211.221404 -266.72008 
L 208.193872 -267.250714 
L 205.166339 -267.865144 
L 202.138807 -268.598733 
L 199.111274 -269.476894 
L 196.083742 -270.50484 
L 193.056209 -271.660069 
L 190.028677 -272.889705 
L 187.001144 -274.113833 
L 183.973612 -275.234698 
L 180.94608 -276.150283 
L 177.918547 -276.769723 
L 174.891015 -277.0275 
L 171.863482 -276.893574 
L 168.83595 -276.377443 
L 165.808417 -275.525468 
L 162.780885 -274.412216 
L 159.753352 -273.127792 
L 156.72582 -271.76385 
L 153.698287 -270.400981 
L 150.670755 -269.099677 
L 147.643222 -267.896039 
L 144.61569 -266.80234 
L 141.588157 -265.811524 
L 138.560625 -264.904113 
L 135.533093 -264.055767 
L 132.50556 -263.243934 
L 129.478028 -262.452526 
L 126.450495 -261.674161 
L 123.422963 -260.910089 
L 120.39543 -260.168372 
L 117.367898 -259.461088 
L 114.340365 -258.801341 
L 111.312833 -258.200692 
L 108.2853 -257.667407 
L 105.257768 -257.20562 
z
" id="m89bff7fbd6" style="stroke:#000000;stroke-opacity:0.3;"/>
    </defs>
    <g clip-path="url(#p38e260ddaf)">
     <use style="fill:#808080;fill-opacity:0.3;stroke:#000000;stroke-opacity:0.3;" x="0.0" xlink:href="#m89bff7fbd6" y="408.74525"/>
    </g>
   </g>
   <g id="PolyCollection_4">
    <defs>
     <path d="M 130.766339 -343.697012 
L 130.766339 -339.957988 
L 134.438028 -339.414039 
L 138.109716 -338.695419 
L 141.781404 -337.74859 
L 145.453093 -336.525735 
L 149.124781 -335.000389 
L 152.796469 -333.184288 
L 156.468157 -331.140294 
L 160.139846 -328.985645 
L 163.811534 -326.881333 
L 167.483222 -325.007079 
L 171.154911 -323.526332 
L 174.826599 -322.550145 
L 178.498287 -322.110718 
L 182.169976 -322.153578 
L 185.841664 -322.552053 
L 189.513352 -323.14047 
L 193.185041 -323.756118 
L 196.856729 -324.276902 
L 200.528417 -324.643029 
L 204.200106 -324.8566 
L 207.871794 -324.960662 
L 211.543482 -325.006386 
L 215.21517 -325.02109 
L 218.886859 -324.989406 
L 222.558547 -324.855187 
L 226.230235 -324.544232 
L 229.901924 -324.00022 
L 233.573612 -323.221004 
L 237.2453 -322.281496 
L 240.916989 -321.33333 
L 244.588677 -320.579086 
L 248.260365 -320.2275 
L 251.932054 -320.44279 
L 255.603742 -321.30342 
L 259.27543 -322.782569 
L 262.947119 -324.755355 
L 266.618807 -327.029253 
L 270.290495 -329.387271 
L 273.962183 -331.630706 
L 277.633872 -333.610151 
L 281.30556 -335.238737 
L 284.977248 -336.487976 
L 288.648937 -337.371724 
L 292.320625 -337.926189 
L 295.992313 -338.1933 
L 299.664002 -338.211962 
L 303.33569 -338.017994 
L 307.007378 -337.650219 
L 310.679067 -337.158216 
L 314.350755 -336.607017 
L 318.022443 -336.075544 
L 321.694131 -335.648043 
L 325.36582 -335.400577 
L 329.037508 -335.38659 
L 332.709196 -335.626082 
L 336.380885 -336.101856 
L 340.052573 -336.763994 
L 343.724261 -337.541117 
L 347.39595 -338.355003 
L 351.067638 -339.134549 
L 354.739326 -339.825777 
L 358.411015 -340.396262 
L 362.082703 -340.834259 
L 365.754391 -341.144142 
L 369.42608 -341.340381 
L 373.097768 -341.441981 
L 376.769456 -341.468604 
L 380.441144 -341.438681 
L 384.112833 -341.369122 
L 387.784521 -341.275838 
L 391.456209 -341.174262 
L 395.127898 -341.079278 
L 398.799586 -341.004385 
L 402.471274 -340.960292 
L 406.142963 -340.953463 
L 409.814651 -340.985149 
L 413.486339 -341.051348 
L 417.158028 -341.143763 
L 420.829716 -341.251563 
L 424.501404 -341.363436 
L 428.173093 -341.469445 
L 431.844781 -341.562247 
L 435.516469 -341.637531 
L 439.188157 -341.693744 
L 442.859846 -341.731372 
L 446.531534 -341.752073 
L 450.203222 -341.757942 
L 453.874911 -341.751066 
L 457.546599 -341.733391 
L 461.218287 -341.706838 
L 464.889976 -341.673545 
L 468.561664 -341.636085 
L 472.233352 -341.597546 
L 475.905041 -341.56141 
L 479.576729 -341.531239 
L 483.248417 -341.510213 
L 486.920106 -341.50066 
L 490.591794 -341.503668 
L 494.263482 -341.518907 
L 494.263482 -342.136093 
L 494.263482 -342.136093 
L 490.591794 -342.151332 
L 486.920106 -342.15434 
L 483.248417 -342.144787 
L 479.576729 -342.123761 
L 475.905041 -342.09359 
L 472.233352 -342.057454 
L 468.561664 -342.018915 
L 464.889976 -341.981455 
L 461.218287 -341.948162 
L 457.546599 -341.921609 
L 453.874911 -341.903934 
L 450.203222 -341.897058 
L 446.531534 -341.902927 
L 442.859846 -341.923628 
L 439.188157 -341.961256 
L 435.516469 -342.017469 
L 431.844781 -342.092753 
L 428.173093 -342.185555 
L 424.501404 -342.291564 
L 420.829716 -342.403437 
L 417.158028 -342.511237 
L 413.486339 -342.603652 
L 409.814651 -342.669851 
L 406.142963 -342.701537 
L 402.471274 -342.694708 
L 398.799586 -342.650615 
L 395.127898 -342.575722 
L 391.456209 -342.480738 
L 387.784521 -342.379162 
L 384.112833 -342.285878 
L 380.441144 -342.216319 
L 376.769456 -342.186396 
L 373.097768 -342.213019 
L 369.42608 -342.314619 
L 365.754391 -342.510858 
L 362.082703 -342.820741 
L 358.411015 -343.258738 
L 354.739326 -343.829223 
L 351.067638 -344.520451 
L 347.39595 -345.299997 
L 343.724261 -346.113883 
L 340.052573 -346.891006 
L 336.380885 -347.553144 
L 332.709196 -348.028918 
L 329.037508 -348.26841 
L 325.36582 -348.254423 
L 321.694131 -348.006957 
L 318.022443 -347.579456 
L 314.350755 -347.047983 
L 310.679067 -346.496784 
L 307.007378 -346.004781 
L 303.33569 -345.637006 
L 299.664002 -345.443038 
L 295.992313 -345.4617 
L 292.320625 -345.728811 
L 288.648937 -346.283276 
L 284.977248 -347.167024 
L 281.30556 -348.416263 
L 277.633872 -350.044849 
L 273.962183 -352.024294 
L 270.290495 -354.267729 
L 266.618807 -356.625747 
L 262.947119 -358.899645 
L 259.27543 -360.872431 
L 255.603742 -362.35158 
L 251.932054 -363.21221 
L 248.260365 -363.4275 
L 244.588677 -363.075914 
L 240.916989 -362.32167 
L 237.2453 -361.373504 
L 233.573612 -360.433996 
L 229.901924 -359.65478 
L 226.230235 -359.110768 
L 222.558547 -358.799813 
L 218.886859 -358.665594 
L 215.21517 -358.63391 
L 211.543482 -358.648614 
L 207.871794 -358.694338 
L 204.200106 -358.7984 
L 200.528417 -359.011971 
L 196.856729 -359.378098 
L 193.185041 -359.898882 
L 189.513352 -360.51453 
L 185.841664 -361.102947 
L 182.169976 -361.501422 
L 178.498287 -361.544282 
L 174.826599 -361.104855 
L 171.154911 -360.128668 
L 167.483222 -358.647921 
L 163.811534 -356.773667 
L 160.139846 -354.669355 
L 156.468157 -352.514706 
L 152.796469 -350.470712 
L 149.124781 -348.654611 
L 145.453093 -347.129265 
L 141.781404 -345.90641 
L 138.109716 -344.959581 
L 134.438028 -344.240961 
L 130.766339 -343.697012 
z
" id="m210275f5ef" style="stroke:#000000;stroke-opacity:0.3;"/>
    </defs>
    <g clip-path="url(#p38e260ddaf)">
     <use style="fill:#808080;fill-opacity:0.3;stroke:#000000;stroke-opacity:0.3;" x="0.0" xlink:href="#m210275f5ef" y="408.74525"/>
    </g>
   </g>
   <g id="LineCollection_1">
    <path clip-path="url(#p38e260ddaf)" d="M 175.406339 336.91775 
L 175.406339 315.31775 
" style="fill:none;stroke:#ff0000;"/>
    <path clip-path="url(#p38e260ddaf)" d="M 175.406339 250.51775 
L 175.406339 228.91775 
" style="fill:none;stroke:#ff0000;"/>
    <path clip-path="url(#p38e260ddaf)" d="M 175.406339 164.11775 
L 175.406339 142.51775 
" style="fill:none;stroke:#ff0000;"/>
    <path clip-path="url(#p38e260ddaf)" d="M 213.669196 77.71775 
L 213.669196 56.11775 
" style="fill:none;stroke:#ff0000;"/>
   </g>
   <g id="patch_3">
    <path d="M 98.880625 23.71775 
L 545.280625 23.71775 
" style="fill:none;stroke:#000000;stroke-linecap:square;stroke-linejoin:miter;"/>
   </g>
   <g id="patch_4">
    <path d="M 545.280625 369.31775 
L 545.280625 23.71775 
" style="fill:none;stroke:#000000;stroke-linecap:square;stroke-linejoin:miter;"/>
   </g>
   <g id="patch_5">
    <path d="M 98.880625 369.31775 
L 545.280625 369.31775 
" style="fill:none;stroke:#000000;stroke-linecap:square;stroke-linejoin:miter;"/>
   </g>
   <g id="patch_6">
    <path d="M 98.880625 369.31775 
L 98.880625 23.71775 
" style="fill:none;stroke:#000000;stroke-linecap:square;stroke-linejoin:miter;"/>
   </g>
   <g id="matplotlib.axis_1">
    <g id="xtick_1">
     <g id="line2d_1">
      <defs>
       <path d="M 0 0 
L 0 -4 
" id="m77deff2e75" style="stroke:#000000;stroke-width:0.5;"/>
      </defs>
      <g>
       <use style="stroke:#000000;stroke-width:0.5;" x="98.880625" xlink:href="#m77deff2e75" y="369.31775"/>
      </g>
     </g>
     <g id="line2d_2">
      <defs>
       <path d="M 0 0 
L 0 4 
" id="m573f08c251" style="stroke:#000000;stroke-width:0.5;"/>
      </defs>
      <g>
       <use style="stroke:#000000;stroke-width:0.5;" x="98.880625" xlink:href="#m573f08c251" y="23.71775"/>
      </g>
     </g>
     <g id="text_1">
      <!-- 0 -->
      <defs>
       <path d="M 31.78125 66.40625 
Q 24.171875 66.40625 20.328125 58.90625 
Q 16.5 51.421875 16.5 36.375 
Q 16.5 21.390625 20.328125 13.890625 
Q 24.171875 6.390625 31.78125 6.390625 
Q 39.453125 6.390625 43.28125 13.890625 
Q 47.125 21.390625 47.125 36.375 
Q 47.125 51.421875 43.28125 58.90625 
Q 39.453125 66.40625 31.78125 66.40625 
M 31.78125 74.21875 
Q 44.046875 74.21875 50.515625 64.515625 
Q 56.984375 54.828125 56.984375 36.375 
Q 56.984375 17.96875 50.515625 8.265625 
Q 44.046875 -1.421875 31.78125 -1.421875 
Q 19.53125 -1.421875 13.0625 8.265625 
Q 6.59375 17.96875 6.59375 36.375 
Q 6.59375 54.828125 13.0625 64.515625 
Q 19.53125 74.21875 31.78125 74.21875 
" id="BitstreamVeraSans-Roman-30"/>
      </defs>
      <g transform="translate(95.063125 382.435875)scale(0.12 -0.12)">
       <use xlink:href="#BitstreamVeraSans-Roman-30"/>
      </g>
     </g>
    </g>
    <g id="xtick_2">
     <g id="line2d_3">
      <g>
       <use style="stroke:#000000;stroke-width:0.5;" x="137.143482143" xlink:href="#m77deff2e75" y="369.31775"/>
      </g>
     </g>
     <g id="line2d_4">
      <g>
       <use style="stroke:#000000;stroke-width:0.5;" x="137.143482143" xlink:href="#m573f08c251" y="23.71775"/>
      </g>
     </g>
     <g id="text_2">
      <!-- 6 -->
      <defs>
       <path d="M 33.015625 40.375 
Q 26.375 40.375 22.484375 35.828125 
Q 18.609375 31.296875 18.609375 23.390625 
Q 18.609375 15.53125 22.484375 10.953125 
Q 26.375 6.390625 33.015625 6.390625 
Q 39.65625 6.390625 43.53125 10.953125 
Q 47.40625 15.53125 47.40625 23.390625 
Q 47.40625 31.296875 43.53125 35.828125 
Q 39.65625 40.375 33.015625 40.375 
M 52.59375 71.296875 
L 52.59375 62.3125 
Q 48.875 64.0625 45.09375 64.984375 
Q 41.3125 65.921875 37.59375 65.921875 
Q 27.828125 65.921875 22.671875 59.328125 
Q 17.53125 52.734375 16.796875 39.40625 
Q 19.671875 43.65625 24.015625 45.921875 
Q 28.375 48.1875 33.59375 48.1875 
Q 44.578125 48.1875 50.953125 41.515625 
Q 57.328125 34.859375 57.328125 23.390625 
Q 57.328125 12.15625 50.6875 5.359375 
Q 44.046875 -1.421875 33.015625 -1.421875 
Q 20.359375 -1.421875 13.671875 8.265625 
Q 6.984375 17.96875 6.984375 36.375 
Q 6.984375 53.65625 15.1875 63.9375 
Q 23.390625 74.21875 37.203125 74.21875 
Q 40.921875 74.21875 44.703125 73.484375 
Q 48.484375 72.75 52.59375 71.296875 
" id="BitstreamVeraSans-Roman-36"/>
      </defs>
      <g transform="translate(133.325982143 382.435875)scale(0.12 -0.12)">
       <use xlink:href="#BitstreamVeraSans-Roman-36"/>
      </g>
     </g>
    </g>
    <g id="xtick_3">
     <g id="line2d_5">
      <g>
       <use style="stroke:#000000;stroke-width:0.5;" x="175.406339286" xlink:href="#m77deff2e75" y="369.31775"/>
      </g>
     </g>
     <g id="line2d_6">
      <g>
       <use style="stroke:#000000;stroke-width:0.5;" x="175.406339286" xlink:href="#m573f08c251" y="23.71775"/>
      </g>
     </g>
     <g id="text_3">
      <!-- 12 -->
      <defs>
       <path d="M 19.1875 8.296875 
L 53.609375 8.296875 
L 53.609375 0 
L 7.328125 0 
L 7.328125 8.296875 
Q 12.9375 14.109375 22.625 23.890625 
Q 32.328125 33.6875 34.8125 36.53125 
Q 39.546875 41.84375 41.421875 45.53125 
Q 43.3125 49.21875 43.3125 52.78125 
Q 43.3125 58.59375 39.234375 62.25 
Q 35.15625 65.921875 28.609375 65.921875 
Q 23.96875 65.921875 18.8125 64.3125 
Q 13.671875 62.703125 7.8125 59.421875 
L 7.8125 69.390625 
Q 13.765625 71.78125 18.9375 73 
Q 24.125 74.21875 28.421875 74.21875 
Q 39.75 74.21875 46.484375 68.546875 
Q 53.21875 62.890625 53.21875 53.421875 
Q 53.21875 48.921875 51.53125 44.890625 
Q 49.859375 40.875 45.40625 35.40625 
Q 44.1875 33.984375 37.640625 27.21875 
Q 31.109375 20.453125 19.1875 8.296875 
" id="BitstreamVeraSans-Roman-32"/>
       <path d="M 12.40625 8.296875 
L 28.515625 8.296875 
L 28.515625 63.921875 
L 10.984375 60.40625 
L 10.984375 69.390625 
L 28.421875 72.90625 
L 38.28125 72.90625 
L 38.28125 8.296875 
L 54.390625 8.296875 
L 54.390625 0 
L 12.40625 0 
z
" id="BitstreamVeraSans-Roman-31"/>
      </defs>
      <g transform="translate(167.771339286 382.435875)scale(0.12 -0.12)">
       <use xlink:href="#BitstreamVeraSans-Roman-31"/>
       <use x="63.623046875" xlink:href="#BitstreamVeraSans-Roman-32"/>
      </g>
     </g>
    </g>
    <g id="xtick_4">
     <g id="line2d_7">
      <g>
       <use style="stroke:#000000;stroke-width:0.5;" x="213.669196429" xlink:href="#m77deff2e75" y="369.31775"/>
      </g>
     </g>
     <g id="line2d_8">
      <g>
       <use style="stroke:#000000;stroke-width:0.5;" x="213.669196429" xlink:href="#m573f08c251" y="23.71775"/>
      </g>
     </g>
     <g id="text_4">
      <!-- 18 -->
      <defs>
       <path d="M 31.78125 34.625 
Q 24.75 34.625 20.71875 30.859375 
Q 16.703125 27.09375 16.703125 20.515625 
Q 16.703125 13.921875 20.71875 10.15625 
Q 24.75 6.390625 31.78125 6.390625 
Q 38.8125 6.390625 42.859375 10.171875 
Q 46.921875 13.96875 46.921875 20.515625 
Q 46.921875 27.09375 42.890625 30.859375 
Q 38.875 34.625 31.78125 34.625 
M 21.921875 38.8125 
Q 15.578125 40.375 12.03125 44.71875 
Q 8.5 49.078125 8.5 55.328125 
Q 8.5 64.0625 14.71875 69.140625 
Q 20.953125 74.21875 31.78125 74.21875 
Q 42.671875 74.21875 48.875 69.140625 
Q 55.078125 64.0625 55.078125 55.328125 
Q 55.078125 49.078125 51.53125 44.71875 
Q 48 40.375 41.703125 38.8125 
Q 48.828125 37.15625 52.796875 32.3125 
Q 56.78125 27.484375 56.78125 20.515625 
Q 56.78125 9.90625 50.3125 4.234375 
Q 43.84375 -1.421875 31.78125 -1.421875 
Q 19.734375 -1.421875 13.25 4.234375 
Q 6.78125 9.90625 6.78125 20.515625 
Q 6.78125 27.484375 10.78125 32.3125 
Q 14.796875 37.15625 21.921875 38.8125 
M 18.3125 54.390625 
Q 18.3125 48.734375 21.84375 45.5625 
Q 25.390625 42.390625 31.78125 42.390625 
Q 38.140625 42.390625 41.71875 45.5625 
Q 45.3125 48.734375 45.3125 54.390625 
Q 45.3125 60.0625 41.71875 63.234375 
Q 38.140625 66.40625 31.78125 66.40625 
Q 25.390625 66.40625 21.84375 63.234375 
Q 18.3125 60.0625 18.3125 54.390625 
" id="BitstreamVeraSans-Roman-38"/>
      </defs>
      <g transform="translate(206.034196429 382.435875)scale(0.12 -0.12)">
       <use xlink:href="#BitstreamVeraSans-Roman-31"/>
       <use x="63.623046875" xlink:href="#BitstreamVeraSans-Roman-38"/>
      </g>
     </g>
    </g>
    <g id="xtick_5">
     <g id="line2d_9">
      <g>
       <use style="stroke:#000000;stroke-width:0.5;" x="251.932053571" xlink:href="#m77deff2e75" y="369.31775"/>
      </g>
     </g>
     <g id="line2d_10">
      <g>
       <use style="stroke:#000000;stroke-width:0.5;" x="251.932053571" xlink:href="#m573f08c251" y="23.71775"/>
      </g>
     </g>
     <g id="text_5">
      <!-- 24 -->
      <defs>
       <path d="M 37.796875 64.3125 
L 12.890625 25.390625 
L 37.796875 25.390625 
z
M 35.203125 72.90625 
L 47.609375 72.90625 
L 47.609375 25.390625 
L 58.015625 25.390625 
L 58.015625 17.1875 
L 47.609375 17.1875 
L 47.609375 0 
L 37.796875 0 
L 37.796875 17.1875 
L 4.890625 17.1875 
L 4.890625 26.703125 
z
" id="BitstreamVeraSans-Roman-34"/>
      </defs>
      <g transform="translate(244.297053571 382.435875)scale(0.12 -0.12)">
       <use xlink:href="#BitstreamVeraSans-Roman-32"/>
       <use x="63.623046875" xlink:href="#BitstreamVeraSans-Roman-34"/>
      </g>
     </g>
    </g>
    <g id="xtick_6">
     <g id="line2d_11">
      <g>
       <use style="stroke:#000000;stroke-width:0.5;" x="290.194910714" xlink:href="#m77deff2e75" y="369.31775"/>
      </g>
     </g>
     <g id="line2d_12">
      <g>
       <use style="stroke:#000000;stroke-width:0.5;" x="290.194910714" xlink:href="#m573f08c251" y="23.71775"/>
      </g>
     </g>
     <g id="text_6">
      <!-- 30 -->
      <defs>
       <path d="M 40.578125 39.3125 
Q 47.65625 37.796875 51.625 33 
Q 55.609375 28.21875 55.609375 21.1875 
Q 55.609375 10.40625 48.1875 4.484375 
Q 40.765625 -1.421875 27.09375 -1.421875 
Q 22.515625 -1.421875 17.65625 -0.515625 
Q 12.796875 0.390625 7.625 2.203125 
L 7.625 11.71875 
Q 11.71875 9.328125 16.59375 8.109375 
Q 21.484375 6.890625 26.8125 6.890625 
Q 36.078125 6.890625 40.9375 10.546875 
Q 45.796875 14.203125 45.796875 21.1875 
Q 45.796875 27.640625 41.28125 31.265625 
Q 36.765625 34.90625 28.71875 34.90625 
L 20.21875 34.90625 
L 20.21875 43.015625 
L 29.109375 43.015625 
Q 36.375 43.015625 40.234375 45.921875 
Q 44.09375 48.828125 44.09375 54.296875 
Q 44.09375 59.90625 40.109375 62.90625 
Q 36.140625 65.921875 28.71875 65.921875 
Q 24.65625 65.921875 20.015625 65.03125 
Q 15.375 64.15625 9.8125 62.3125 
L 9.8125 71.09375 
Q 15.4375 72.65625 20.34375 73.4375 
Q 25.25 74.21875 29.59375 74.21875 
Q 40.828125 74.21875 47.359375 69.109375 
Q 53.90625 64.015625 53.90625 55.328125 
Q 53.90625 49.265625 50.4375 45.09375 
Q 46.96875 40.921875 40.578125 39.3125 
" id="BitstreamVeraSans-Roman-33"/>
      </defs>
      <g transform="translate(282.559910714 382.435875)scale(0.12 -0.12)">
       <use xlink:href="#BitstreamVeraSans-Roman-33"/>
       <use x="63.623046875" xlink:href="#BitstreamVeraSans-Roman-30"/>
      </g>
     </g>
    </g>
    <g id="xtick_7">
     <g id="line2d_13">
      <g>
       <use style="stroke:#000000;stroke-width:0.5;" x="328.457767857" xlink:href="#m77deff2e75" y="369.31775"/>
      </g>
     </g>
     <g id="line2d_14">
      <g>
       <use style="stroke:#000000;stroke-width:0.5;" x="328.457767857" xlink:href="#m573f08c251" y="23.71775"/>
      </g>
     </g>
     <g id="text_7">
      <!-- 36 -->
      <g transform="translate(320.822767857 382.435875)scale(0.12 -0.12)">
       <use xlink:href="#BitstreamVeraSans-Roman-33"/>
       <use x="63.623046875" xlink:href="#BitstreamVeraSans-Roman-36"/>
      </g>
     </g>
    </g>
    <g id="xtick_8">
     <g id="line2d_15">
      <g>
       <use style="stroke:#000000;stroke-width:0.5;" x="366.720625" xlink:href="#m77deff2e75" y="369.31775"/>
      </g>
     </g>
     <g id="line2d_16">
      <g>
       <use style="stroke:#000000;stroke-width:0.5;" x="366.720625" xlink:href="#m573f08c251" y="23.71775"/>
      </g>
     </g>
     <g id="text_8">
      <!-- 42 -->
      <g transform="translate(359.085625 382.435875)scale(0.12 -0.12)">
       <use xlink:href="#BitstreamVeraSans-Roman-34"/>
       <use x="63.623046875" xlink:href="#BitstreamVeraSans-Roman-32"/>
      </g>
     </g>
    </g>
    <g id="xtick_9">
     <g id="line2d_17">
      <g>
       <use style="stroke:#000000;stroke-width:0.5;" x="404.983482143" xlink:href="#m77deff2e75" y="369.31775"/>
      </g>
     </g>
     <g id="line2d_18">
      <g>
       <use style="stroke:#000000;stroke-width:0.5;" x="404.983482143" xlink:href="#m573f08c251" y="23.71775"/>
      </g>
     </g>
     <g id="text_9">
      <!-- 48 -->
      <g transform="translate(397.348482143 382.435875)scale(0.12 -0.12)">
       <use xlink:href="#BitstreamVeraSans-Roman-34"/>
       <use x="63.623046875" xlink:href="#BitstreamVeraSans-Roman-38"/>
      </g>
     </g>
    </g>
    <g id="xtick_10">
     <g id="line2d_19">
      <g>
       <use style="stroke:#000000;stroke-width:0.5;" x="443.246339286" xlink:href="#m77deff2e75" y="369.31775"/>
      </g>
     </g>
     <g id="line2d_20">
      <g>
       <use style="stroke:#000000;stroke-width:0.5;" x="443.246339286" xlink:href="#m573f08c251" y="23.71775"/>
      </g>
     </g>
     <g id="text_10">
      <!-- 54 -->
      <defs>
       <path d="M 10.796875 72.90625 
L 49.515625 72.90625 
L 49.515625 64.59375 
L 19.828125 64.59375 
L 19.828125 46.734375 
Q 21.96875 47.46875 24.109375 47.828125 
Q 26.265625 48.1875 28.421875 48.1875 
Q 40.625 48.1875 47.75 41.5 
Q 54.890625 34.8125 54.890625 23.390625 
Q 54.890625 11.625 47.5625 5.09375 
Q 40.234375 -1.421875 26.90625 -1.421875 
Q 22.3125 -1.421875 17.546875 -0.640625 
Q 12.796875 0.140625 7.71875 1.703125 
L 7.71875 11.625 
Q 12.109375 9.234375 16.796875 8.0625 
Q 21.484375 6.890625 26.703125 6.890625 
Q 35.15625 6.890625 40.078125 11.328125 
Q 45.015625 15.765625 45.015625 23.390625 
Q 45.015625 31 40.078125 35.4375 
Q 35.15625 39.890625 26.703125 39.890625 
Q 22.75 39.890625 18.8125 39.015625 
Q 14.890625 38.140625 10.796875 36.28125 
z
" id="BitstreamVeraSans-Roman-35"/>
      </defs>
      <g transform="translate(435.611339286 382.435875)scale(0.12 -0.12)">
       <use xlink:href="#BitstreamVeraSans-Roman-35"/>
       <use x="63.623046875" xlink:href="#BitstreamVeraSans-Roman-34"/>
      </g>
     </g>
    </g>
    <g id="xtick_11">
     <g id="line2d_21">
      <g>
       <use style="stroke:#000000;stroke-width:0.5;" x="481.509196429" xlink:href="#m77deff2e75" y="369.31775"/>
      </g>
     </g>
     <g id="line2d_22">
      <g>
       <use style="stroke:#000000;stroke-width:0.5;" x="481.509196429" xlink:href="#m573f08c251" y="23.71775"/>
      </g>
     </g>
     <g id="text_11">
      <!-- 60 -->
      <g transform="translate(473.874196429 382.435875)scale(0.12 -0.12)">
       <use xlink:href="#BitstreamVeraSans-Roman-36"/>
       <use x="63.623046875" xlink:href="#BitstreamVeraSans-Roman-30"/>
      </g>
     </g>
    </g>
    <g id="text_12">
     <!-- Durée (mois) -->
     <defs>
      <path id="BitstreamVeraSans-Roman-20"/>
      <path d="M 52 44.1875 
Q 55.375 50.25 60.0625 53.125 
Q 64.75 56 71.09375 56 
Q 79.640625 56 84.28125 50.015625 
Q 88.921875 44.046875 88.921875 33.015625 
L 88.921875 0 
L 79.890625 0 
L 79.890625 32.71875 
Q 79.890625 40.578125 77.09375 44.375 
Q 74.3125 48.1875 68.609375 48.1875 
Q 61.625 48.1875 57.5625 43.546875 
Q 53.515625 38.921875 53.515625 30.90625 
L 53.515625 0 
L 44.484375 0 
L 44.484375 32.71875 
Q 44.484375 40.625 41.703125 44.40625 
Q 38.921875 48.1875 33.109375 48.1875 
Q 26.21875 48.1875 22.15625 43.53125 
Q 18.109375 38.875 18.109375 30.90625 
L 18.109375 0 
L 9.078125 0 
L 9.078125 54.6875 
L 18.109375 54.6875 
L 18.109375 46.1875 
Q 21.1875 51.21875 25.484375 53.609375 
Q 29.78125 56 35.6875 56 
Q 41.65625 56 45.828125 52.96875 
Q 50 49.953125 52 44.1875 
" id="BitstreamVeraSans-Roman-6d"/>
      <path d="M 8.015625 75.875 
L 15.828125 75.875 
Q 23.140625 64.359375 26.78125 53.3125 
Q 30.421875 42.28125 30.421875 31.390625 
Q 30.421875 20.453125 26.78125 9.375 
Q 23.140625 -1.703125 15.828125 -13.1875 
L 8.015625 -13.1875 
Q 14.5 -2 17.703125 9.0625 
Q 20.90625 20.125 20.90625 31.390625 
Q 20.90625 42.671875 17.703125 53.65625 
Q 14.5 64.65625 8.015625 75.875 
" id="BitstreamVeraSans-Roman-29"/>
      <path d="M 56.203125 29.59375 
L 56.203125 25.203125 
L 14.890625 25.203125 
Q 15.484375 15.921875 20.484375 11.0625 
Q 25.484375 6.203125 34.421875 6.203125 
Q 39.59375 6.203125 44.453125 7.46875 
Q 49.3125 8.734375 54.109375 11.28125 
L 54.109375 2.78125 
Q 49.265625 0.734375 44.1875 -0.34375 
Q 39.109375 -1.421875 33.890625 -1.421875 
Q 20.796875 -1.421875 13.15625 6.1875 
Q 5.515625 13.8125 5.515625 26.8125 
Q 5.515625 40.234375 12.765625 48.109375 
Q 20.015625 56 32.328125 56 
Q 43.359375 56 49.78125 48.890625 
Q 56.203125 41.796875 56.203125 29.59375 
M 47.21875 32.234375 
Q 47.125 39.59375 43.09375 43.984375 
Q 39.0625 48.390625 32.421875 48.390625 
Q 24.90625 48.390625 20.390625 44.140625 
Q 15.875 39.890625 15.1875 32.171875 
z
M 38.53125 79.984375 
L 48.25 79.984375 
L 32.34375 61.625 
L 24.859375 61.625 
z
" id="BitstreamVeraSans-Roman-e9"/>
      <path d="M 30.609375 48.390625 
Q 23.390625 48.390625 19.1875 42.75 
Q 14.984375 37.109375 14.984375 27.296875 
Q 14.984375 17.484375 19.15625 11.84375 
Q 23.34375 6.203125 30.609375 6.203125 
Q 37.796875 6.203125 41.984375 11.859375 
Q 46.1875 17.53125 46.1875 27.296875 
Q 46.1875 37.015625 41.984375 42.703125 
Q 37.796875 48.390625 30.609375 48.390625 
M 30.609375 56 
Q 42.328125 56 49.015625 48.375 
Q 55.71875 40.765625 55.71875 27.296875 
Q 55.71875 13.875 49.015625 6.21875 
Q 42.328125 -1.421875 30.609375 -1.421875 
Q 18.84375 -1.421875 12.171875 6.21875 
Q 5.515625 13.875 5.515625 27.296875 
Q 5.515625 40.765625 12.171875 48.375 
Q 18.84375 56 30.609375 56 
" id="BitstreamVeraSans-Roman-6f"/>
      <path d="M 19.671875 64.796875 
L 19.671875 8.109375 
L 31.59375 8.109375 
Q 46.6875 8.109375 53.6875 14.9375 
Q 60.6875 21.78125 60.6875 36.53125 
Q 60.6875 51.171875 53.6875 57.984375 
Q 46.6875 64.796875 31.59375 64.796875 
z
M 9.8125 72.90625 
L 30.078125 72.90625 
Q 51.265625 72.90625 61.171875 64.09375 
Q 71.09375 55.28125 71.09375 36.53125 
Q 71.09375 17.671875 61.125 8.828125 
Q 51.171875 0 30.078125 0 
L 9.8125 0 
z
" id="BitstreamVeraSans-Roman-44"/>
      <path d="M 9.421875 54.6875 
L 18.40625 54.6875 
L 18.40625 0 
L 9.421875 0 
z
M 9.421875 75.984375 
L 18.40625 75.984375 
L 18.40625 64.59375 
L 9.421875 64.59375 
z
" id="BitstreamVeraSans-Roman-69"/>
      <path d="M 31 75.875 
Q 24.46875 64.65625 21.28125 53.65625 
Q 18.109375 42.671875 18.109375 31.390625 
Q 18.109375 20.125 21.3125 9.0625 
Q 24.515625 -2 31 -13.1875 
L 23.1875 -13.1875 
Q 15.875 -1.703125 12.234375 9.375 
Q 8.59375 20.453125 8.59375 31.390625 
Q 8.59375 42.28125 12.203125 53.3125 
Q 15.828125 64.359375 23.1875 75.875 
z
" id="BitstreamVeraSans-Roman-28"/>
      <path d="M 56.203125 29.59375 
L 56.203125 25.203125 
L 14.890625 25.203125 
Q 15.484375 15.921875 20.484375 11.0625 
Q 25.484375 6.203125 34.421875 6.203125 
Q 39.59375 6.203125 44.453125 7.46875 
Q 49.3125 8.734375 54.109375 11.28125 
L 54.109375 2.78125 
Q 49.265625 0.734375 44.1875 -0.34375 
Q 39.109375 -1.421875 33.890625 -1.421875 
Q 20.796875 -1.421875 13.15625 6.1875 
Q 5.515625 13.8125 5.515625 26.8125 
Q 5.515625 40.234375 12.765625 48.109375 
Q 20.015625 56 32.328125 56 
Q 43.359375 56 49.78125 48.890625 
Q 56.203125 41.796875 56.203125 29.59375 
M 47.21875 32.234375 
Q 47.125 39.59375 43.09375 43.984375 
Q 39.0625 48.390625 32.421875 48.390625 
Q 24.90625 48.390625 20.390625 44.140625 
Q 15.875 39.890625 15.1875 32.171875 
z
" id="BitstreamVeraSans-Roman-65"/>
      <path d="M 8.5 21.578125 
L 8.5 54.6875 
L 17.484375 54.6875 
L 17.484375 21.921875 
Q 17.484375 14.15625 20.5 10.265625 
Q 23.53125 6.390625 29.59375 6.390625 
Q 36.859375 6.390625 41.078125 11.03125 
Q 45.3125 15.671875 45.3125 23.6875 
L 45.3125 54.6875 
L 54.296875 54.6875 
L 54.296875 0 
L 45.3125 0 
L 45.3125 8.40625 
Q 42.046875 3.421875 37.71875 1 
Q 33.40625 -1.421875 27.6875 -1.421875 
Q 18.265625 -1.421875 13.375 4.4375 
Q 8.5 10.296875 8.5 21.578125 
" id="BitstreamVeraSans-Roman-75"/>
      <path d="M 41.109375 46.296875 
Q 39.59375 47.171875 37.8125 47.578125 
Q 36.03125 48 33.890625 48 
Q 26.265625 48 22.1875 43.046875 
Q 18.109375 38.09375 18.109375 28.8125 
L 18.109375 0 
L 9.078125 0 
L 9.078125 54.6875 
L 18.109375 54.6875 
L 18.109375 46.1875 
Q 20.953125 51.171875 25.484375 53.578125 
Q 30.03125 56 36.53125 56 
Q 37.453125 56 38.578125 55.875 
Q 39.703125 55.765625 41.0625 55.515625 
z
" id="BitstreamVeraSans-Roman-72"/>
      <path d="M 44.28125 53.078125 
L 44.28125 44.578125 
Q 40.484375 46.53125 36.375 47.5 
Q 32.28125 48.484375 27.875 48.484375 
Q 21.1875 48.484375 17.84375 46.4375 
Q 14.5 44.390625 14.5 40.28125 
Q 14.5 37.15625 16.890625 35.375 
Q 19.28125 33.59375 26.515625 31.984375 
L 29.59375 31.296875 
Q 39.15625 29.25 43.1875 25.515625 
Q 47.21875 21.78125 47.21875 15.09375 
Q 47.21875 7.46875 41.1875 3.015625 
Q 35.15625 -1.421875 24.609375 -1.421875 
Q 20.21875 -1.421875 15.453125 -0.5625 
Q 10.6875 0.296875 5.421875 2 
L 5.421875 11.28125 
Q 10.40625 8.6875 15.234375 7.390625 
Q 20.0625 6.109375 24.8125 6.109375 
Q 31.15625 6.109375 34.5625 8.28125 
Q 37.984375 10.453125 37.984375 14.40625 
Q 37.984375 18.0625 35.515625 20.015625 
Q 33.0625 21.96875 24.703125 23.78125 
L 21.578125 24.515625 
Q 13.234375 26.265625 9.515625 29.90625 
Q 5.8125 33.546875 5.8125 39.890625 
Q 5.8125 47.609375 11.28125 51.796875 
Q 16.75 56 26.8125 56 
Q 31.78125 56 36.171875 55.265625 
Q 40.578125 54.546875 44.28125 53.078125 
" id="BitstreamVeraSans-Roman-73"/>
     </defs>
     <g transform="translate(282.9128125 399.049625)scale(0.12 -0.12)">
      <use xlink:href="#BitstreamVeraSans-Roman-44"/>
      <use x="77.001953125" xlink:href="#BitstreamVeraSans-Roman-75"/>
      <use x="140.380859375" xlink:href="#BitstreamVeraSans-Roman-72"/>
      <use x="181.462890625" xlink:href="#BitstreamVeraSans-Roman-e9"/>
      <use x="242.986328125" xlink:href="#BitstreamVeraSans-Roman-65"/>
      <use x="304.509765625" xlink:href="#BitstreamVeraSans-Roman-20"/>
      <use x="336.296875" xlink:href="#BitstreamVeraSans-Roman-28"/>
      <use x="375.310546875" xlink:href="#BitstreamVeraSans-Roman-6d"/>
      <use x="472.72265625" xlink:href="#BitstreamVeraSans-Roman-6f"/>
      <use x="533.904296875" xlink:href="#BitstreamVeraSans-Roman-69"/>
      <use x="561.6875" xlink:href="#BitstreamVeraSans-Roman-73"/>
      <use x="613.787109375" xlink:href="#BitstreamVeraSans-Roman-29"/>
     </g>
    </g>
   </g>
   <g id="matplotlib.axis_2">
    <g id="ytick_1">
     <g id="line2d_23">
      <path clip-path="url(#p38e260ddaf)" d="M 98.880625 326.11775 
L 545.280625 326.11775 
" style="fill:none;stroke:#000000;stroke-dasharray:1.000000,3.000000;stroke-dashoffset:0.0;stroke-width:0.5;"/>
     </g>
     <g id="line2d_24">
      <defs>
       <path d="M 0 0 
L 4 0 
" id="m913da03eed" style="stroke:#000000;stroke-width:0.5;"/>
      </defs>
      <g>
       <use style="stroke:#000000;stroke-width:0.5;" x="98.880625" xlink:href="#m913da03eed" y="326.11775"/>
      </g>
     </g>
     <g id="line2d_25">
      <defs>
       <path d="M 0 0 
L -4 0 
" id="md27d42bcff" style="stroke:#000000;stroke-width:0.5;"/>
      </defs>
      <g>
       <use style="stroke:#000000;stroke-width:0.5;" x="545.280625" xlink:href="#md27d42bcff" y="326.11775"/>
      </g>
     </g>
     <g id="text_13">
      <!-- ATER -->
      <defs>
       <path d="M 9.8125 72.90625 
L 55.90625 72.90625 
L 55.90625 64.59375 
L 19.671875 64.59375 
L 19.671875 43.015625 
L 54.390625 43.015625 
L 54.390625 34.71875 
L 19.671875 34.71875 
L 19.671875 8.296875 
L 56.78125 8.296875 
L 56.78125 0 
L 9.8125 0 
z
" id="BitstreamVeraSans-Roman-45"/>
       <path d="M -0.296875 72.90625 
L 61.375 72.90625 
L 61.375 64.59375 
L 35.5 64.59375 
L 35.5 0 
L 25.59375 0 
L 25.59375 64.59375 
L -0.296875 64.59375 
z
" id="BitstreamVeraSans-Roman-54"/>
       <path d="M 44.390625 34.1875 
Q 47.5625 33.109375 50.5625 29.59375 
Q 53.5625 26.078125 56.59375 19.921875 
L 66.609375 0 
L 56 0 
L 46.6875 18.703125 
Q 43.0625 26.03125 39.671875 28.421875 
Q 36.28125 30.8125 30.421875 30.8125 
L 19.671875 30.8125 
L 19.671875 0 
L 9.8125 0 
L 9.8125 72.90625 
L 32.078125 72.90625 
Q 44.578125 72.90625 50.734375 67.671875 
Q 56.890625 62.453125 56.890625 51.90625 
Q 56.890625 45.015625 53.6875 40.46875 
Q 50.484375 35.9375 44.390625 34.1875 
M 19.671875 64.796875 
L 19.671875 38.921875 
L 32.078125 38.921875 
Q 39.203125 38.921875 42.84375 42.21875 
Q 46.484375 45.515625 46.484375 51.90625 
Q 46.484375 58.296875 42.84375 61.546875 
Q 39.203125 64.796875 32.078125 64.796875 
z
" id="BitstreamVeraSans-Roman-52"/>
       <path d="M 34.1875 63.1875 
L 20.796875 26.90625 
L 47.609375 26.90625 
z
M 28.609375 72.90625 
L 39.796875 72.90625 
L 67.578125 0 
L 57.328125 0 
L 50.6875 18.703125 
L 17.828125 18.703125 
L 11.1875 0 
L 0.78125 0 
z
" id="BitstreamVeraSans-Roman-41"/>
      </defs>
      <g transform="translate(63.435 329.429)scale(0.12 -0.12)">
       <use xlink:href="#BitstreamVeraSans-Roman-41"/>
       <use x="68.298828125" xlink:href="#BitstreamVeraSans-Roman-54"/>
       <use x="129.3828125" xlink:href="#BitstreamVeraSans-Roman-45"/>
       <use x="192.56640625" xlink:href="#BitstreamVeraSans-Roman-52"/>
      </g>
     </g>
    </g>
    <g id="ytick_2">
     <g id="line2d_26">
      <path clip-path="url(#p38e260ddaf)" d="M 98.880625 239.71775 
L 545.280625 239.71775 
" style="fill:none;stroke:#000000;stroke-dasharray:1.000000,3.000000;stroke-dashoffset:0.0;stroke-width:0.5;"/>
     </g>
     <g id="line2d_27">
      <g>
       <use style="stroke:#000000;stroke-width:0.5;" x="98.880625" xlink:href="#m913da03eed" y="239.71775"/>
      </g>
     </g>
     <g id="line2d_28">
      <g>
       <use style="stroke:#000000;stroke-width:0.5;" x="545.280625" xlink:href="#md27d42bcff" y="239.71775"/>
      </g>
     </g>
     <g id="text_14">
      <!-- CDD autre -->
      <defs>
       <path d="M 34.28125 27.484375 
Q 23.390625 27.484375 19.1875 25 
Q 14.984375 22.515625 14.984375 16.5 
Q 14.984375 11.71875 18.140625 8.90625 
Q 21.296875 6.109375 26.703125 6.109375 
Q 34.1875 6.109375 38.703125 11.40625 
Q 43.21875 16.703125 43.21875 25.484375 
L 43.21875 27.484375 
z
M 52.203125 31.203125 
L 52.203125 0 
L 43.21875 0 
L 43.21875 8.296875 
Q 40.140625 3.328125 35.546875 0.953125 
Q 30.953125 -1.421875 24.3125 -1.421875 
Q 15.921875 -1.421875 10.953125 3.296875 
Q 6 8.015625 6 15.921875 
Q 6 25.140625 12.171875 29.828125 
Q 18.359375 34.515625 30.609375 34.515625 
L 43.21875 34.515625 
L 43.21875 35.40625 
Q 43.21875 41.609375 39.140625 45 
Q 35.0625 48.390625 27.6875 48.390625 
Q 23 48.390625 18.546875 47.265625 
Q 14.109375 46.140625 10.015625 43.890625 
L 10.015625 52.203125 
Q 14.9375 54.109375 19.578125 55.046875 
Q 24.21875 56 28.609375 56 
Q 40.484375 56 46.34375 49.84375 
Q 52.203125 43.703125 52.203125 31.203125 
" id="BitstreamVeraSans-Roman-61"/>
       <path d="M 18.3125 70.21875 
L 18.3125 54.6875 
L 36.8125 54.6875 
L 36.8125 47.703125 
L 18.3125 47.703125 
L 18.3125 18.015625 
Q 18.3125 11.328125 20.140625 9.421875 
Q 21.96875 7.515625 27.59375 7.515625 
L 36.8125 7.515625 
L 36.8125 0 
L 27.59375 0 
Q 17.1875 0 13.234375 3.875 
Q 9.28125 7.765625 9.28125 18.015625 
L 9.28125 47.703125 
L 2.6875 47.703125 
L 2.6875 54.6875 
L 9.28125 54.6875 
L 9.28125 70.21875 
z
" id="BitstreamVeraSans-Roman-74"/>
       <path d="M 64.40625 67.28125 
L 64.40625 56.890625 
Q 59.421875 61.53125 53.78125 63.8125 
Q 48.140625 66.109375 41.796875 66.109375 
Q 29.296875 66.109375 22.65625 58.46875 
Q 16.015625 50.828125 16.015625 36.375 
Q 16.015625 21.96875 22.65625 14.328125 
Q 29.296875 6.6875 41.796875 6.6875 
Q 48.140625 6.6875 53.78125 8.984375 
Q 59.421875 11.28125 64.40625 15.921875 
L 64.40625 5.609375 
Q 59.234375 2.09375 53.4375 0.328125 
Q 47.65625 -1.421875 41.21875 -1.421875 
Q 24.65625 -1.421875 15.125 8.703125 
Q 5.609375 18.84375 5.609375 36.375 
Q 5.609375 53.953125 15.125 64.078125 
Q 24.65625 74.21875 41.21875 74.21875 
Q 47.75 74.21875 53.53125 72.484375 
Q 59.328125 70.75 64.40625 67.28125 
" id="BitstreamVeraSans-Roman-43"/>
      </defs>
      <g transform="translate(32.23125 243.029)scale(0.12 -0.12)">
       <use xlink:href="#BitstreamVeraSans-Roman-43"/>
       <use x="69.82421875" xlink:href="#BitstreamVeraSans-Roman-44"/>
       <use x="146.826171875" xlink:href="#BitstreamVeraSans-Roman-44"/>
       <use x="223.828125" xlink:href="#BitstreamVeraSans-Roman-20"/>
       <use x="255.615234375" xlink:href="#BitstreamVeraSans-Roman-61"/>
       <use x="316.89453125" xlink:href="#BitstreamVeraSans-Roman-75"/>
       <use x="380.2734375" xlink:href="#BitstreamVeraSans-Roman-74"/>
       <use x="419.482421875" xlink:href="#BitstreamVeraSans-Roman-72"/>
       <use x="460.564453125" xlink:href="#BitstreamVeraSans-Roman-65"/>
      </g>
     </g>
    </g>
    <g id="ytick_3">
     <g id="line2d_29">
      <path clip-path="url(#p38e260ddaf)" d="M 98.880625 153.31775 
L 545.280625 153.31775 
" style="fill:none;stroke:#000000;stroke-dasharray:1.000000,3.000000;stroke-dashoffset:0.0;stroke-width:0.5;"/>
     </g>
     <g id="line2d_30">
      <g>
       <use style="stroke:#000000;stroke-width:0.5;" x="98.880625" xlink:href="#m913da03eed" y="153.31775"/>
      </g>
     </g>
     <g id="line2d_31">
      <g>
       <use style="stroke:#000000;stroke-width:0.5;" x="545.280625" xlink:href="#md27d42bcff" y="153.31775"/>
      </g>
     </g>
     <g id="text_15">
      <!-- CDD Ingénieur -->
      <defs>
       <path d="M 54.890625 33.015625 
L 54.890625 0 
L 45.90625 0 
L 45.90625 32.71875 
Q 45.90625 40.484375 42.875 44.328125 
Q 39.84375 48.1875 33.796875 48.1875 
Q 26.515625 48.1875 22.3125 43.546875 
Q 18.109375 38.921875 18.109375 30.90625 
L 18.109375 0 
L 9.078125 0 
L 9.078125 54.6875 
L 18.109375 54.6875 
L 18.109375 46.1875 
Q 21.34375 51.125 25.703125 53.5625 
Q 30.078125 56 35.796875 56 
Q 45.21875 56 50.046875 50.171875 
Q 54.890625 44.34375 54.890625 33.015625 
" id="BitstreamVeraSans-Roman-6e"/>
       <path d="M 45.40625 27.984375 
Q 45.40625 37.75 41.375 43.109375 
Q 37.359375 48.484375 30.078125 48.484375 
Q 22.859375 48.484375 18.828125 43.109375 
Q 14.796875 37.75 14.796875 27.984375 
Q 14.796875 18.265625 18.828125 12.890625 
Q 22.859375 7.515625 30.078125 7.515625 
Q 37.359375 7.515625 41.375 12.890625 
Q 45.40625 18.265625 45.40625 27.984375 
M 54.390625 6.78125 
Q 54.390625 -7.171875 48.1875 -13.984375 
Q 42 -20.796875 29.203125 -20.796875 
Q 24.46875 -20.796875 20.265625 -20.09375 
Q 16.0625 -19.390625 12.109375 -17.921875 
L 12.109375 -9.1875 
Q 16.0625 -11.328125 19.921875 -12.34375 
Q 23.78125 -13.375 27.78125 -13.375 
Q 36.625 -13.375 41.015625 -8.765625 
Q 45.40625 -4.15625 45.40625 5.171875 
L 45.40625 9.625 
Q 42.625 4.78125 38.28125 2.390625 
Q 33.9375 0 27.875 0 
Q 17.828125 0 11.671875 7.65625 
Q 5.515625 15.328125 5.515625 27.984375 
Q 5.515625 40.671875 11.671875 48.328125 
Q 17.828125 56 27.875 56 
Q 33.9375 56 38.28125 53.609375 
Q 42.625 51.21875 45.40625 46.390625 
L 45.40625 54.6875 
L 54.390625 54.6875 
z
" id="BitstreamVeraSans-Roman-67"/>
       <path d="M 9.8125 72.90625 
L 19.671875 72.90625 
L 19.671875 0 
L 9.8125 0 
z
" id="BitstreamVeraSans-Roman-49"/>
      </defs>
      <g transform="translate(7.2 156.869)scale(0.12 -0.12)">
       <use xlink:href="#BitstreamVeraSans-Roman-43"/>
       <use x="69.82421875" xlink:href="#BitstreamVeraSans-Roman-44"/>
       <use x="146.826171875" xlink:href="#BitstreamVeraSans-Roman-44"/>
       <use x="223.828125" xlink:href="#BitstreamVeraSans-Roman-20"/>
       <use x="255.615234375" xlink:href="#BitstreamVeraSans-Roman-49"/>
       <use x="285.107421875" xlink:href="#BitstreamVeraSans-Roman-6e"/>
       <use x="348.486328125" xlink:href="#BitstreamVeraSans-Roman-67"/>
       <use x="411.962890625" xlink:href="#BitstreamVeraSans-Roman-e9"/>
       <use x="473.486328125" xlink:href="#BitstreamVeraSans-Roman-6e"/>
       <use x="536.865234375" xlink:href="#BitstreamVeraSans-Roman-69"/>
       <use x="564.6484375" xlink:href="#BitstreamVeraSans-Roman-65"/>
       <use x="626.171875" xlink:href="#BitstreamVeraSans-Roman-75"/>
       <use x="689.55078125" xlink:href="#BitstreamVeraSans-Roman-72"/>
      </g>
     </g>
    </g>
    <g id="ytick_4">
     <g id="line2d_32">
      <path clip-path="url(#p38e260ddaf)" d="M 98.880625 66.91775 
L 545.280625 66.91775 
" style="fill:none;stroke:#000000;stroke-dasharray:1.000000,3.000000;stroke-dashoffset:0.0;stroke-width:0.5;"/>
     </g>
     <g id="line2d_33">
      <g>
       <use style="stroke:#000000;stroke-width:0.5;" x="98.880625" xlink:href="#m913da03eed" y="66.91775"/>
      </g>
     </g>
     <g id="line2d_34">
      <g>
       <use style="stroke:#000000;stroke-width:0.5;" x="545.280625" xlink:href="#md27d42bcff" y="66.91775"/>
      </g>
     </g>
     <g id="text_16">
      <!-- Post-doc / IR -->
      <defs>
       <path d="M 19.671875 64.796875 
L 19.671875 37.40625 
L 32.078125 37.40625 
Q 38.96875 37.40625 42.71875 40.96875 
Q 46.484375 44.53125 46.484375 51.125 
Q 46.484375 57.671875 42.71875 61.234375 
Q 38.96875 64.796875 32.078125 64.796875 
z
M 9.8125 72.90625 
L 32.078125 72.90625 
Q 44.34375 72.90625 50.609375 67.359375 
Q 56.890625 61.8125 56.890625 51.125 
Q 56.890625 40.328125 50.609375 34.8125 
Q 44.34375 29.296875 32.078125 29.296875 
L 19.671875 29.296875 
L 19.671875 0 
L 9.8125 0 
z
" id="BitstreamVeraSans-Roman-50"/>
       <path d="M 45.40625 46.390625 
L 45.40625 75.984375 
L 54.390625 75.984375 
L 54.390625 0 
L 45.40625 0 
L 45.40625 8.203125 
Q 42.578125 3.328125 38.25 0.953125 
Q 33.9375 -1.421875 27.875 -1.421875 
Q 17.96875 -1.421875 11.734375 6.484375 
Q 5.515625 14.40625 5.515625 27.296875 
Q 5.515625 40.1875 11.734375 48.09375 
Q 17.96875 56 27.875 56 
Q 33.9375 56 38.25 53.625 
Q 42.578125 51.265625 45.40625 46.390625 
M 14.796875 27.296875 
Q 14.796875 17.390625 18.875 11.75 
Q 22.953125 6.109375 30.078125 6.109375 
Q 37.203125 6.109375 41.296875 11.75 
Q 45.40625 17.390625 45.40625 27.296875 
Q 45.40625 37.203125 41.296875 42.84375 
Q 37.203125 48.484375 30.078125 48.484375 
Q 22.953125 48.484375 18.875 42.84375 
Q 14.796875 37.203125 14.796875 27.296875 
" id="BitstreamVeraSans-Roman-64"/>
       <path d="M 4.890625 31.390625 
L 31.203125 31.390625 
L 31.203125 23.390625 
L 4.890625 23.390625 
z
" id="BitstreamVeraSans-Roman-2d"/>
       <path d="M 48.78125 52.59375 
L 48.78125 44.1875 
Q 44.96875 46.296875 41.140625 47.34375 
Q 37.3125 48.390625 33.40625 48.390625 
Q 24.65625 48.390625 19.8125 42.84375 
Q 14.984375 37.3125 14.984375 27.296875 
Q 14.984375 17.28125 19.8125 11.734375 
Q 24.65625 6.203125 33.40625 6.203125 
Q 37.3125 6.203125 41.140625 7.25 
Q 44.96875 8.296875 48.78125 10.40625 
L 48.78125 2.09375 
Q 45.015625 0.34375 40.984375 -0.53125 
Q 36.96875 -1.421875 32.421875 -1.421875 
Q 20.0625 -1.421875 12.78125 6.34375 
Q 5.515625 14.109375 5.515625 27.296875 
Q 5.515625 40.671875 12.859375 48.328125 
Q 20.21875 56 33.015625 56 
Q 37.15625 56 41.109375 55.140625 
Q 45.0625 54.296875 48.78125 52.59375 
" id="BitstreamVeraSans-Roman-63"/>
       <path d="M 25.390625 72.90625 
L 33.6875 72.90625 
L 8.296875 -9.28125 
L 0 -9.28125 
z
" id="BitstreamVeraSans-Roman-2f"/>
      </defs>
      <g transform="translate(19.91625 70.229)scale(0.12 -0.12)">
       <use xlink:href="#BitstreamVeraSans-Roman-50"/>
       <use x="60.255859375" xlink:href="#BitstreamVeraSans-Roman-6f"/>
       <use x="121.4375" xlink:href="#BitstreamVeraSans-Roman-73"/>
       <use x="173.537109375" xlink:href="#BitstreamVeraSans-Roman-74"/>
       <use x="212.74609375" xlink:href="#BitstreamVeraSans-Roman-2d"/>
       <use x="248.830078125" xlink:href="#BitstreamVeraSans-Roman-64"/>
       <use x="312.306640625" xlink:href="#BitstreamVeraSans-Roman-6f"/>
       <use x="373.48828125" xlink:href="#BitstreamVeraSans-Roman-63"/>
       <use x="428.46875" xlink:href="#BitstreamVeraSans-Roman-20"/>
       <use x="460.255859375" xlink:href="#BitstreamVeraSans-Roman-2f"/>
       <use x="493.947265625" xlink:href="#BitstreamVeraSans-Roman-20"/>
       <use x="525.734375" xlink:href="#BitstreamVeraSans-Roman-49"/>
       <use x="555.2265625" xlink:href="#BitstreamVeraSans-Roman-52"/>
      </g>
     </g>
    </g>
   </g>
   <g id="text_17">
    <!-- 2 -->
    <g transform="translate(450.907696429 320.789)scale(0.12 -0.12)">
     <use xlink:href="#BitstreamVeraSans-Roman-32"/>
    </g>
   </g>
   <g id="text_18">
    <!-- 66 -->
    <g transform="translate(447.090196429 234.389)scale(0.12 -0.12)">
     <use xlink:href="#BitstreamVeraSans-Roman-36"/>
     <use x="63.623046875" xlink:href="#BitstreamVeraSans-Roman-36"/>
    </g>
   </g>
   <g id="text_19">
    <!-- 305 -->
    <g transform="translate(443.272696429 147.989)scale(0.12 -0.12)">
     <use xlink:href="#BitstreamVeraSans-Roman-33"/>
     <use x="63.623046875" xlink:href="#BitstreamVeraSans-Roman-30"/>
     <use x="127.24609375" xlink:href="#BitstreamVeraSans-Roman-35"/>
    </g>
   </g>
   <g id="text_20">
    <!-- 358 -->
    <g transform="translate(443.272696429 61.589)scale(0.12 -0.12)">
     <use xlink:href="#BitstreamVeraSans-Roman-33"/>
     <use x="63.623046875" xlink:href="#BitstreamVeraSans-Roman-35"/>
     <use x="127.24609375" xlink:href="#BitstreamVeraSans-Roman-38"/>
    </g>
   </g>
   <g id="text_21">
    <!-- Répartition des durées de CDD par type de contrat (2012-2016) -->
    <defs>
     <path d="M 18.109375 8.203125 
L 18.109375 -20.796875 
L 9.078125 -20.796875 
L 9.078125 54.6875 
L 18.109375 54.6875 
L 18.109375 46.390625 
Q 20.953125 51.265625 25.265625 53.625 
Q 29.59375 56 35.59375 56 
Q 45.5625 56 51.78125 48.09375 
Q 58.015625 40.1875 58.015625 27.296875 
Q 58.015625 14.40625 51.78125 6.484375 
Q 45.5625 -1.421875 35.59375 -1.421875 
Q 29.59375 -1.421875 25.265625 0.953125 
Q 20.953125 3.328125 18.109375 8.203125 
M 48.6875 27.296875 
Q 48.6875 37.203125 44.609375 42.84375 
Q 40.53125 48.484375 33.40625 48.484375 
Q 26.265625 48.484375 22.1875 42.84375 
Q 18.109375 37.203125 18.109375 27.296875 
Q 18.109375 17.390625 22.1875 11.75 
Q 26.265625 6.109375 33.40625 6.109375 
Q 40.53125 6.109375 44.609375 11.75 
Q 48.6875 17.390625 48.6875 27.296875 
" id="BitstreamVeraSans-Roman-70"/>
     <path d="M 32.171875 -5.078125 
Q 28.375 -14.84375 24.75 -17.8125 
Q 21.140625 -20.796875 15.09375 -20.796875 
L 7.90625 -20.796875 
L 7.90625 -13.28125 
L 13.1875 -13.28125 
Q 16.890625 -13.28125 18.9375 -11.515625 
Q 21 -9.765625 23.484375 -3.21875 
L 25.09375 0.875 
L 2.984375 54.6875 
L 12.5 54.6875 
L 29.59375 11.921875 
L 46.6875 54.6875 
L 56.203125 54.6875 
z
" id="BitstreamVeraSans-Roman-79"/>
    </defs>
    <g transform="translate(91.091125 18.71775)scale(0.144 -0.144)">
     <use xlink:href="#BitstreamVeraSans-Roman-52"/>
     <use x="69.419921875" xlink:href="#BitstreamVeraSans-Roman-e9"/>
     <use x="130.943359375" xlink:href="#BitstreamVeraSans-Roman-70"/>
     <use x="194.419921875" xlink:href="#BitstreamVeraSans-Roman-61"/>
     <use x="255.69921875" xlink:href="#BitstreamVeraSans-Roman-72"/>
     <use x="296.8125" xlink:href="#BitstreamVeraSans-Roman-74"/>
     <use x="336.021484375" xlink:href="#BitstreamVeraSans-Roman-69"/>
     <use x="363.8046875" xlink:href="#BitstreamVeraSans-Roman-74"/>
     <use x="403.013671875" xlink:href="#BitstreamVeraSans-Roman-69"/>
     <use x="430.796875" xlink:href="#BitstreamVeraSans-Roman-6f"/>
     <use x="491.978515625" xlink:href="#BitstreamVeraSans-Roman-6e"/>
     <use x="555.357421875" xlink:href="#BitstreamVeraSans-Roman-20"/>
     <use x="587.14453125" xlink:href="#BitstreamVeraSans-Roman-64"/>
     <use x="650.62109375" xlink:href="#BitstreamVeraSans-Roman-65"/>
     <use x="712.14453125" xlink:href="#BitstreamVeraSans-Roman-73"/>
     <use x="764.244140625" xlink:href="#BitstreamVeraSans-Roman-20"/>
     <use x="796.03125" xlink:href="#BitstreamVeraSans-Roman-64"/>
     <use x="859.5078125" xlink:href="#BitstreamVeraSans-Roman-75"/>
     <use x="922.88671875" xlink:href="#BitstreamVeraSans-Roman-72"/>
     <use x="963.96875" xlink:href="#BitstreamVeraSans-Roman-e9"/>
     <use x="1025.4921875" xlink:href="#BitstreamVeraSans-Roman-65"/>
     <use x="1087.015625" xlink:href="#BitstreamVeraSans-Roman-73"/>
     <use x="1139.11523438" xlink:href="#BitstreamVeraSans-Roman-20"/>
     <use x="1170.90234375" xlink:href="#BitstreamVeraSans-Roman-64"/>
     <use x="1234.37890625" xlink:href="#BitstreamVeraSans-Roman-65"/>
     <use x="1295.90234375" xlink:href="#BitstreamVeraSans-Roman-20"/>
     <use x="1327.68945312" xlink:href="#BitstreamVeraSans-Roman-43"/>
     <use x="1397.51367188" xlink:href="#BitstreamVeraSans-Roman-44"/>
     <use x="1474.515625" xlink:href="#BitstreamVeraSans-Roman-44"/>
     <use x="1551.51757812" xlink:href="#BitstreamVeraSans-Roman-20"/>
     <use x="1583.3046875" xlink:href="#BitstreamVeraSans-Roman-70"/>
     <use x="1646.78125" xlink:href="#BitstreamVeraSans-Roman-61"/>
     <use x="1708.06054688" xlink:href="#BitstreamVeraSans-Roman-72"/>
     <use x="1749.17382812" xlink:href="#BitstreamVeraSans-Roman-20"/>
     <use x="1780.9609375" xlink:href="#BitstreamVeraSans-Roman-74"/>
     <use x="1820.16992188" xlink:href="#BitstreamVeraSans-Roman-79"/>
     <use x="1879.34960938" xlink:href="#BitstreamVeraSans-Roman-70"/>
     <use x="1942.82617188" xlink:href="#BitstreamVeraSans-Roman-65"/>
     <use x="2004.34960938" xlink:href="#BitstreamVeraSans-Roman-20"/>
     <use x="2036.13671875" xlink:href="#BitstreamVeraSans-Roman-64"/>
     <use x="2099.61328125" xlink:href="#BitstreamVeraSans-Roman-65"/>
     <use x="2161.13671875" xlink:href="#BitstreamVeraSans-Roman-20"/>
     <use x="2192.92382812" xlink:href="#BitstreamVeraSans-Roman-63"/>
     <use x="2247.90429688" xlink:href="#BitstreamVeraSans-Roman-6f"/>
     <use x="2309.0859375" xlink:href="#BitstreamVeraSans-Roman-6e"/>
     <use x="2372.46484375" xlink:href="#BitstreamVeraSans-Roman-74"/>
     <use x="2411.67382812" xlink:href="#BitstreamVeraSans-Roman-72"/>
     <use x="2452.78710938" xlink:href="#BitstreamVeraSans-Roman-61"/>
     <use x="2514.06640625" xlink:href="#BitstreamVeraSans-Roman-74"/>
     <use x="2553.27539062" xlink:href="#BitstreamVeraSans-Roman-20"/>
     <use x="2585.0625" xlink:href="#BitstreamVeraSans-Roman-28"/>
     <use x="2624.07617188" xlink:href="#BitstreamVeraSans-Roman-32"/>
     <use x="2687.69921875" xlink:href="#BitstreamVeraSans-Roman-30"/>
     <use x="2751.32226562" xlink:href="#BitstreamVeraSans-Roman-31"/>
     <use x="2814.9453125" xlink:href="#BitstreamVeraSans-Roman-32"/>
     <use x="2878.56835938" xlink:href="#BitstreamVeraSans-Roman-2d"/>
     <use x="2914.65234375" xlink:href="#BitstreamVeraSans-Roman-32"/>
     <use x="2978.27539062" xlink:href="#BitstreamVeraSans-Roman-30"/>
     <use x="3041.8984375" xlink:href="#BitstreamVeraSans-Roman-31"/>
     <use x="3105.52148438" xlink:href="#BitstreamVeraSans-Roman-36"/>
     <use x="3169.14453125" xlink:href="#BitstreamVeraSans-Roman-29"/>
    </g>
   </g>
  </g>
 </g>
 <defs>
  <clipPath id="p38e260ddaf">
   <rect height="345.6" width="446.4" x="98.880625" y="23.71775"/>
  </clipPath>
 </defs>
</svg>
