<?xml version="1.0" encoding="utf-8" standalone="no"?>
<!DOCTYPE svg PUBLIC "-//W3C//DTD SVG 1.1//EN"
  "http://www.w3.org/Graphics/SVG/1.1/DTD/svg11.dtd">
<!-- Created with matplotlib (http://matplotlib.org/) -->
<svg height="435pt" version="1.1" viewBox="0 0 757 435" width="757pt" xmlns="http://www.w3.org/2000/svg" xmlns:xlink="http://www.w3.org/1999/xlink">
 <defs>
  <style type="text/css">
*{stroke-linecap:butt;stroke-linejoin:round;stroke-miterlimit:100000;}
  </style>
 </defs>
 <g id="figure_1">
  <g id="patch_1">
   <path d="M 0 435.53525 
L 757.68 435.53525 
L 757.68 0 
L 0 0 
z
" style="fill:#f0f0f0;"/>
  </g>
  <g id="axes_1">
   <g id="matplotlib.axis_1"/>
   <g id="matplotlib.axis_2"/>
   <g id="patch_2">
    <path d="M 255.758406 56.203251 
C 214.181767 56.203251 173.872707 70.667002 141.781061 97.100754 
C 109.689416 123.534507 87.771992 160.326448 79.807653 201.133142 
L 255.758406 235.473864 
L 255.758406 56.203251 
z
" style="fill:#ffa500;stroke:#ffffff;stroke-linejoin:miter;"/>
   </g>
   <g id="patch_3">
    <path d="M 79.807653 201.133142 
C 77.675816 212.055988 76.565721 223.153656 76.491753 234.28235 
C 76.417785 245.411043 77.380265 256.522488 79.366721 267.472706 
L 255.758406 235.473864 
L 79.807653 201.133142 
z
" style="fill:#deb887;stroke:#ffffff;stroke-linejoin:miter;"/>
   </g>
   <g id="patch_4">
    <path d="M 79.366721 267.472706 
C 81.353177 278.422925 84.354992 289.164417 88.333271 299.558001 
C 92.31155 309.951586 97.249035 319.952175 103.081749 329.430189 
L 255.758406 235.473864 
L 79.366721 267.472706 
z
" style="fill:#a52a2a;stroke:#ffffff;stroke-linejoin:miter;"/>
   </g>
   <g id="patch_5">
    <path d="M 103.081749 329.430189 
C 107.315969 336.31069 112.010464 342.8971 117.133119 349.144364 
C 122.255775 355.391627 127.794884 361.285467 133.712555 366.785565 
L 255.758406 235.473864 
L 103.081749 329.430189 
z
" style="fill:#6495ed;stroke:#ffffff;stroke-linejoin:miter;"/>
   </g>
   <g id="patch_6">
    <path d="M 133.712555 366.785565 
C 138.5625 371.29328 143.658459 375.528838 148.977 379.472766 
C 154.295542 383.416695 159.828502 387.062939 165.550442 390.394734 
L 255.758406 235.473864 
L 133.712555 366.785565 
z
" style="fill:#dc143c;stroke:#ffffff;stroke-linejoin:miter;"/>
   </g>
   <g id="patch_7">
    <path d="M 165.550442 390.394734 
C 169.669732 392.793331 173.88305 395.026678 178.18035 397.089451 
C 182.47765 399.152223 186.855514 401.04278 191.303502 402.756612 
L 255.758406 235.473864 
L 165.550442 390.394734 
z
" style="fill:#556b2f;stroke:#ffffff;stroke-linejoin:miter;"/>
   </g>
   <g id="patch_8">
    <path d="M 191.303502 402.756612 
C 195.010008 404.184748 198.762956 405.489302 202.55613 406.668112 
C 206.349304 407.846922 210.18061 408.899337 214.043701 409.823616 
L 255.758406 235.473864 
L 191.303502 402.756612 
z
" style="fill:#c0c0c0;stroke:#ffffff;stroke-linejoin:miter;"/>
   </g>
   <g id="patch_9">
    <path d="M 214.043701 409.823616 
C 217.520422 410.655452 221.021247 411.383107 224.541479 412.005606 
C 228.061712 412.628106 231.599777 413.145169 235.150928 413.556105 
L 255.758406 235.473864 
L 214.043701 409.823616 
z
" style="fill:#2f4f4f;stroke:#ffffff;stroke-linejoin:miter;"/>
   </g>
   <g id="patch_10">
    <path d="M 235.150928 413.556105 
C 238.307457 413.921375 241.47314 414.202655 244.644621 414.399649 
C 247.816103 414.596642 250.992261 414.709278 254.16973 414.737437 
L 255.758406 235.473864 
L 235.150928 413.556105 
z
" style="fill:#dda0dd;stroke:#ffffff;stroke-linejoin:miter;"/>
   </g>
   <g id="patch_11">
    <path d="M 254.16973 414.737437 
C 257.082382 414.76325 259.99523 414.718072 262.905681 414.601944 
C 265.816132 414.485816 268.72332 414.298772 271.624656 414.04098 
L 255.758406 235.473864 
L 254.16973 414.737437 
z
" style="fill:#cd853f;stroke:#ffffff;stroke-linejoin:miter;"/>
   </g>
   <g id="patch_12">
    <path d="M 271.624656 414.04098 
C 274.394101 413.794906 277.157447 413.484437 279.91245 413.109825 
C 282.667454 412.735214 285.413369 412.296561 288.147969 411.794223 
L 255.758406 235.473864 
L 271.624656 414.04098 
z
" style="fill:#8b4513;stroke:#ffffff;stroke-linejoin:miter;"/>
   </g>
   <g id="patch_13">
    <path d="M 288.147969 411.794223 
C 290.752338 411.315807 293.345788 410.779748 295.92641 410.18644 
C 298.507031 409.593132 301.07419 408.94272 303.625998 408.235684 
L 255.758406 235.473864 
L 288.147969 411.794223 
z
" style="fill:#ba55d3;stroke:#ffffff;stroke-linejoin:miter;"/>
   </g>
   <g id="patch_14">
    <path d="M 303.625998 408.235684 
C 306.177805 407.528647 308.713635 406.76516 311.231619 405.945784 
C 313.749603 405.126407 316.249124 404.251343 318.728342 403.321235 
L 255.758406 235.473864 
L 303.625998 408.235684 
z
" style="fill:#daa520;stroke:#ffffff;stroke-linejoin:miter;"/>
   </g>
   <g id="patch_15">
    <path d="M 318.728342 403.321235 
C 321.083589 402.437636 323.419978 401.504561 325.735955 400.52263 
C 328.051932 399.5407 330.346985 398.510131 332.619589 397.431609 
L 255.758406 235.473864 
L 318.728342 403.321235 
z
" style="fill:#598556;stroke:#ffffff;stroke-linejoin:miter;"/>
   </g>
   <g id="patch_16">
    <path d="M 332.619589 397.431609 
C 334.892193 396.353087 337.141845 395.22685 339.367049 394.053647 
C 341.592253 392.880444 343.792517 391.660534 345.966378 390.394729 
L 255.758406 235.473864 
L 332.619589 397.431609 
z
" style="fill:#ff7f50;stroke:#ffffff;stroke-linejoin:miter;"/>
   </g>
   <g id="patch_17">
    <path d="M 345.966378 390.394729 
C 380.014592 370.568992 406.595446 340.061055 421.572214 303.618812 
C 436.548981 267.176569 439.102215 226.793936 428.834561 188.755588 
C 418.566907 150.717239 396.040154 117.104423 364.760098 93.148238 
C 333.480043 69.192054 295.158155 56.20325 255.758401 56.203251 
L 255.758406 235.473864 
L 345.966378 390.394729 
z
" style="fill:#20b2aa;stroke:#ffffff;stroke-linejoin:miter;"/>
   </g>
   <g id="text_1">
    <!-- Parts des 15 villes ayant le plus d'offres d'emploi -->
    <defs>
     <path id="BitstreamVeraSans-Roman-20"/>
     <path d="M 52 44.1875 
Q 55.375 50.25 60.0625 53.125 
Q 64.75 56 71.09375 56 
Q 79.640625 56 84.28125 50.015625 
Q 88.921875 44.046875 88.921875 33.015625 
L 88.921875 0 
L 79.890625 0 
L 79.890625 32.71875 
Q 79.890625 40.578125 77.09375 44.375 
Q 74.3125 48.1875 68.609375 48.1875 
Q 61.625 48.1875 57.5625 43.546875 
Q 53.515625 38.921875 53.515625 30.90625 
L 53.515625 0 
L 44.484375 0 
L 44.484375 32.71875 
Q 44.484375 40.625 41.703125 44.40625 
Q 38.921875 48.1875 33.109375 48.1875 
Q 26.21875 48.1875 22.15625 43.53125 
Q 18.109375 38.875 18.109375 30.90625 
L 18.109375 0 
L 9.078125 0 
L 9.078125 54.6875 
L 18.109375 54.6875 
L 18.109375 46.1875 
Q 21.1875 51.21875 25.484375 53.609375 
Q 29.78125 56 35.6875 56 
Q 41.65625 56 45.828125 52.96875 
Q 50 49.953125 52 44.1875 
" id="BitstreamVeraSans-Roman-6d"/>
     <path d="M 12.40625 8.296875 
L 28.515625 8.296875 
L 28.515625 63.921875 
L 10.984375 60.40625 
L 10.984375 69.390625 
L 28.421875 72.90625 
L 38.28125 72.90625 
L 38.28125 8.296875 
L 54.390625 8.296875 
L 54.390625 0 
L 12.40625 0 
z
" id="BitstreamVeraSans-Roman-31"/>
     <path d="M 17.921875 72.90625 
L 17.921875 45.796875 
L 9.625 45.796875 
L 9.625 72.90625 
z
" id="BitstreamVeraSans-Roman-27"/>
     <path d="M 10.796875 72.90625 
L 49.515625 72.90625 
L 49.515625 64.59375 
L 19.828125 64.59375 
L 19.828125 46.734375 
Q 21.96875 47.46875 24.109375 47.828125 
Q 26.265625 48.1875 28.421875 48.1875 
Q 40.625 48.1875 47.75 41.5 
Q 54.890625 34.8125 54.890625 23.390625 
Q 54.890625 11.625 47.5625 5.09375 
Q 40.234375 -1.421875 26.90625 -1.421875 
Q 22.3125 -1.421875 17.546875 -0.640625 
Q 12.796875 0.140625 7.71875 1.703125 
L 7.71875 11.625 
Q 12.109375 9.234375 16.796875 8.0625 
Q 21.484375 6.890625 26.703125 6.890625 
Q 35.15625 6.890625 40.078125 11.328125 
Q 45.015625 15.765625 45.015625 23.390625 
Q 45.015625 31 40.078125 35.4375 
Q 35.15625 39.890625 26.703125 39.890625 
Q 22.75 39.890625 18.8125 39.015625 
Q 14.890625 38.140625 10.796875 36.28125 
z
" id="BitstreamVeraSans-Roman-35"/>
     <path d="M 54.890625 33.015625 
L 54.890625 0 
L 45.90625 0 
L 45.90625 32.71875 
Q 45.90625 40.484375 42.875 44.328125 
Q 39.84375 48.1875 33.796875 48.1875 
Q 26.515625 48.1875 22.3125 43.546875 
Q 18.109375 38.921875 18.109375 30.90625 
L 18.109375 0 
L 9.078125 0 
L 9.078125 54.6875 
L 18.109375 54.6875 
L 18.109375 46.1875 
Q 21.34375 51.125 25.703125 53.5625 
Q 30.078125 56 35.796875 56 
Q 45.21875 56 50.046875 50.171875 
Q 54.890625 44.34375 54.890625 33.015625 
" id="BitstreamVeraSans-Roman-6e"/>
     <path d="M 34.28125 27.484375 
Q 23.390625 27.484375 19.1875 25 
Q 14.984375 22.515625 14.984375 16.5 
Q 14.984375 11.71875 18.140625 8.90625 
Q 21.296875 6.109375 26.703125 6.109375 
Q 34.1875 6.109375 38.703125 11.40625 
Q 43.21875 16.703125 43.21875 25.484375 
L 43.21875 27.484375 
z
M 52.203125 31.203125 
L 52.203125 0 
L 43.21875 0 
L 43.21875 8.296875 
Q 40.140625 3.328125 35.546875 0.953125 
Q 30.953125 -1.421875 24.3125 -1.421875 
Q 15.921875 -1.421875 10.953125 3.296875 
Q 6 8.015625 6 15.921875 
Q 6 25.140625 12.171875 29.828125 
Q 18.359375 34.515625 30.609375 34.515625 
L 43.21875 34.515625 
L 43.21875 35.40625 
Q 43.21875 41.609375 39.140625 45 
Q 35.0625 48.390625 27.6875 48.390625 
Q 23 48.390625 18.546875 47.265625 
Q 14.109375 46.140625 10.015625 43.890625 
L 10.015625 52.203125 
Q 14.9375 54.109375 19.578125 55.046875 
Q 24.21875 56 28.609375 56 
Q 40.484375 56 46.34375 49.84375 
Q 52.203125 43.703125 52.203125 31.203125 
" id="BitstreamVeraSans-Roman-61"/>
     <path d="M 30.609375 48.390625 
Q 23.390625 48.390625 19.1875 42.75 
Q 14.984375 37.109375 14.984375 27.296875 
Q 14.984375 17.484375 19.15625 11.84375 
Q 23.34375 6.203125 30.609375 6.203125 
Q 37.796875 6.203125 41.984375 11.859375 
Q 46.1875 17.53125 46.1875 27.296875 
Q 46.1875 37.015625 41.984375 42.703125 
Q 37.796875 48.390625 30.609375 48.390625 
M 30.609375 56 
Q 42.328125 56 49.015625 48.375 
Q 55.71875 40.765625 55.71875 27.296875 
Q 55.71875 13.875 49.015625 6.21875 
Q 42.328125 -1.421875 30.609375 -1.421875 
Q 18.84375 -1.421875 12.171875 6.21875 
Q 5.515625 13.875 5.515625 27.296875 
Q 5.515625 40.765625 12.171875 48.375 
Q 18.84375 56 30.609375 56 
" id="BitstreamVeraSans-Roman-6f"/>
     <path d="M 9.421875 75.984375 
L 18.40625 75.984375 
L 18.40625 0 
L 9.421875 0 
z
" id="BitstreamVeraSans-Roman-6c"/>
     <path d="M 19.671875 64.796875 
L 19.671875 37.40625 
L 32.078125 37.40625 
Q 38.96875 37.40625 42.71875 40.96875 
Q 46.484375 44.53125 46.484375 51.125 
Q 46.484375 57.671875 42.71875 61.234375 
Q 38.96875 64.796875 32.078125 64.796875 
z
M 9.8125 72.90625 
L 32.078125 72.90625 
Q 44.34375 72.90625 50.609375 67.359375 
Q 56.890625 61.8125 56.890625 51.125 
Q 56.890625 40.328125 50.609375 34.8125 
Q 44.34375 29.296875 32.078125 29.296875 
L 19.671875 29.296875 
L 19.671875 0 
L 9.8125 0 
z
" id="BitstreamVeraSans-Roman-50"/>
     <path d="M 2.984375 54.6875 
L 12.5 54.6875 
L 29.59375 8.796875 
L 46.6875 54.6875 
L 56.203125 54.6875 
L 35.6875 0 
L 23.484375 0 
z
" id="BitstreamVeraSans-Roman-76"/>
     <path d="M 37.109375 75.984375 
L 37.109375 68.5 
L 28.515625 68.5 
Q 23.6875 68.5 21.796875 66.546875 
Q 19.921875 64.59375 19.921875 59.515625 
L 19.921875 54.6875 
L 34.71875 54.6875 
L 34.71875 47.703125 
L 19.921875 47.703125 
L 19.921875 0 
L 10.890625 0 
L 10.890625 47.703125 
L 2.296875 47.703125 
L 2.296875 54.6875 
L 10.890625 54.6875 
L 10.890625 58.5 
Q 10.890625 67.625 15.140625 71.796875 
Q 19.390625 75.984375 28.609375 75.984375 
z
" id="BitstreamVeraSans-Roman-66"/>
     <path d="M 9.421875 54.6875 
L 18.40625 54.6875 
L 18.40625 0 
L 9.421875 0 
z
M 9.421875 75.984375 
L 18.40625 75.984375 
L 18.40625 64.59375 
L 9.421875 64.59375 
z
" id="BitstreamVeraSans-Roman-69"/>
     <path d="M 32.171875 -5.078125 
Q 28.375 -14.84375 24.75 -17.8125 
Q 21.140625 -20.796875 15.09375 -20.796875 
L 7.90625 -20.796875 
L 7.90625 -13.28125 
L 13.1875 -13.28125 
Q 16.890625 -13.28125 18.9375 -11.515625 
Q 21 -9.765625 23.484375 -3.21875 
L 25.09375 0.875 
L 2.984375 54.6875 
L 12.5 54.6875 
L 29.59375 11.921875 
L 46.6875 54.6875 
L 56.203125 54.6875 
z
" id="BitstreamVeraSans-Roman-79"/>
     <path d="M 56.203125 29.59375 
L 56.203125 25.203125 
L 14.890625 25.203125 
Q 15.484375 15.921875 20.484375 11.0625 
Q 25.484375 6.203125 34.421875 6.203125 
Q 39.59375 6.203125 44.453125 7.46875 
Q 49.3125 8.734375 54.109375 11.28125 
L 54.109375 2.78125 
Q 49.265625 0.734375 44.1875 -0.34375 
Q 39.109375 -1.421875 33.890625 -1.421875 
Q 20.796875 -1.421875 13.15625 6.1875 
Q 5.515625 13.8125 5.515625 26.8125 
Q 5.515625 40.234375 12.765625 48.109375 
Q 20.015625 56 32.328125 56 
Q 43.359375 56 49.78125 48.890625 
Q 56.203125 41.796875 56.203125 29.59375 
M 47.21875 32.234375 
Q 47.125 39.59375 43.09375 43.984375 
Q 39.0625 48.390625 32.421875 48.390625 
Q 24.90625 48.390625 20.390625 44.140625 
Q 15.875 39.890625 15.1875 32.171875 
z
" id="BitstreamVeraSans-Roman-65"/>
     <path d="M 45.40625 46.390625 
L 45.40625 75.984375 
L 54.390625 75.984375 
L 54.390625 0 
L 45.40625 0 
L 45.40625 8.203125 
Q 42.578125 3.328125 38.25 0.953125 
Q 33.9375 -1.421875 27.875 -1.421875 
Q 17.96875 -1.421875 11.734375 6.484375 
Q 5.515625 14.40625 5.515625 27.296875 
Q 5.515625 40.1875 11.734375 48.09375 
Q 17.96875 56 27.875 56 
Q 33.9375 56 38.25 53.625 
Q 42.578125 51.265625 45.40625 46.390625 
M 14.796875 27.296875 
Q 14.796875 17.390625 18.875 11.75 
Q 22.953125 6.109375 30.078125 6.109375 
Q 37.203125 6.109375 41.296875 11.75 
Q 45.40625 17.390625 45.40625 27.296875 
Q 45.40625 37.203125 41.296875 42.84375 
Q 37.203125 48.484375 30.078125 48.484375 
Q 22.953125 48.484375 18.875 42.84375 
Q 14.796875 37.203125 14.796875 27.296875 
" id="BitstreamVeraSans-Roman-64"/>
     <path d="M 18.3125 70.21875 
L 18.3125 54.6875 
L 36.8125 54.6875 
L 36.8125 47.703125 
L 18.3125 47.703125 
L 18.3125 18.015625 
Q 18.3125 11.328125 20.140625 9.421875 
Q 21.96875 7.515625 27.59375 7.515625 
L 36.8125 7.515625 
L 36.8125 0 
L 27.59375 0 
Q 17.1875 0 13.234375 3.875 
Q 9.28125 7.765625 9.28125 18.015625 
L 9.28125 47.703125 
L 2.6875 47.703125 
L 2.6875 54.6875 
L 9.28125 54.6875 
L 9.28125 70.21875 
z
" id="BitstreamVeraSans-Roman-74"/>
     <path d="M 8.5 21.578125 
L 8.5 54.6875 
L 17.484375 54.6875 
L 17.484375 21.921875 
Q 17.484375 14.15625 20.5 10.265625 
Q 23.53125 6.390625 29.59375 6.390625 
Q 36.859375 6.390625 41.078125 11.03125 
Q 45.3125 15.671875 45.3125 23.6875 
L 45.3125 54.6875 
L 54.296875 54.6875 
L 54.296875 0 
L 45.3125 0 
L 45.3125 8.40625 
Q 42.046875 3.421875 37.71875 1 
Q 33.40625 -1.421875 27.6875 -1.421875 
Q 18.265625 -1.421875 13.375 4.4375 
Q 8.5 10.296875 8.5 21.578125 
" id="BitstreamVeraSans-Roman-75"/>
     <path d="M 41.109375 46.296875 
Q 39.59375 47.171875 37.8125 47.578125 
Q 36.03125 48 33.890625 48 
Q 26.265625 48 22.1875 43.046875 
Q 18.109375 38.09375 18.109375 28.8125 
L 18.109375 0 
L 9.078125 0 
L 9.078125 54.6875 
L 18.109375 54.6875 
L 18.109375 46.1875 
Q 20.953125 51.171875 25.484375 53.578125 
Q 30.03125 56 36.53125 56 
Q 37.453125 56 38.578125 55.875 
Q 39.703125 55.765625 41.0625 55.515625 
z
" id="BitstreamVeraSans-Roman-72"/>
     <path d="M 44.28125 53.078125 
L 44.28125 44.578125 
Q 40.484375 46.53125 36.375 47.5 
Q 32.28125 48.484375 27.875 48.484375 
Q 21.1875 48.484375 17.84375 46.4375 
Q 14.5 44.390625 14.5 40.28125 
Q 14.5 37.15625 16.890625 35.375 
Q 19.28125 33.59375 26.515625 31.984375 
L 29.59375 31.296875 
Q 39.15625 29.25 43.1875 25.515625 
Q 47.21875 21.78125 47.21875 15.09375 
Q 47.21875 7.46875 41.1875 3.015625 
Q 35.15625 -1.421875 24.609375 -1.421875 
Q 20.21875 -1.421875 15.453125 -0.5625 
Q 10.6875 0.296875 5.421875 2 
L 5.421875 11.28125 
Q 10.40625 8.6875 15.234375 7.390625 
Q 20.0625 6.109375 24.8125 6.109375 
Q 31.15625 6.109375 34.5625 8.28125 
Q 37.984375 10.453125 37.984375 14.40625 
Q 37.984375 18.0625 35.515625 20.015625 
Q 33.0625 21.96875 24.703125 23.78125 
L 21.578125 24.515625 
Q 13.234375 26.265625 9.515625 29.90625 
Q 5.8125 33.546875 5.8125 39.890625 
Q 5.8125 47.609375 11.28125 51.796875 
Q 16.75 56 26.8125 56 
Q 31.78125 56 36.171875 55.265625 
Q 40.578125 54.546875 44.28125 53.078125 
" id="BitstreamVeraSans-Roman-73"/>
     <path d="M 18.109375 8.203125 
L 18.109375 -20.796875 
L 9.078125 -20.796875 
L 9.078125 54.6875 
L 18.109375 54.6875 
L 18.109375 46.390625 
Q 20.953125 51.265625 25.265625 53.625 
Q 29.59375 56 35.59375 56 
Q 45.5625 56 51.78125 48.09375 
Q 58.015625 40.1875 58.015625 27.296875 
Q 58.015625 14.40625 51.78125 6.484375 
Q 45.5625 -1.421875 35.59375 -1.421875 
Q 29.59375 -1.421875 25.265625 0.953125 
Q 20.953125 3.328125 18.109375 8.203125 
M 48.6875 27.296875 
Q 48.6875 37.203125 44.609375 42.84375 
Q 40.53125 48.484375 33.40625 48.484375 
Q 26.265625 48.484375 22.1875 42.84375 
Q 18.109375 37.203125 18.109375 27.296875 
Q 18.109375 17.390625 22.1875 11.75 
Q 26.265625 6.109375 33.40625 6.109375 
Q 40.53125 6.109375 44.609375 11.75 
Q 48.6875 17.390625 48.6875 27.296875 
" id="BitstreamVeraSans-Roman-70"/>
    </defs>
    <g transform="translate(10.14795 22.51845)scale(0.2016 -0.2016)">
     <use xlink:href="#BitstreamVeraSans-Roman-50"/>
     <use x="60.240234375" xlink:href="#BitstreamVeraSans-Roman-61"/>
     <use x="121.51953125" xlink:href="#BitstreamVeraSans-Roman-72"/>
     <use x="162.6328125" xlink:href="#BitstreamVeraSans-Roman-74"/>
     <use x="201.841796875" xlink:href="#BitstreamVeraSans-Roman-73"/>
     <use x="253.94140625" xlink:href="#BitstreamVeraSans-Roman-20"/>
     <use x="285.728515625" xlink:href="#BitstreamVeraSans-Roman-64"/>
     <use x="349.205078125" xlink:href="#BitstreamVeraSans-Roman-65"/>
     <use x="410.728515625" xlink:href="#BitstreamVeraSans-Roman-73"/>
     <use x="462.828125" xlink:href="#BitstreamVeraSans-Roman-20"/>
     <use x="494.615234375" xlink:href="#BitstreamVeraSans-Roman-31"/>
     <use x="558.23828125" xlink:href="#BitstreamVeraSans-Roman-35"/>
     <use x="621.861328125" xlink:href="#BitstreamVeraSans-Roman-20"/>
     <use x="653.6484375" xlink:href="#BitstreamVeraSans-Roman-76"/>
     <use x="712.828125" xlink:href="#BitstreamVeraSans-Roman-69"/>
     <use x="740.611328125" xlink:href="#BitstreamVeraSans-Roman-6c"/>
     <use x="768.39453125" xlink:href="#BitstreamVeraSans-Roman-6c"/>
     <use x="796.177734375" xlink:href="#BitstreamVeraSans-Roman-65"/>
     <use x="857.701171875" xlink:href="#BitstreamVeraSans-Roman-73"/>
     <use x="909.80078125" xlink:href="#BitstreamVeraSans-Roman-20"/>
     <use x="941.587890625" xlink:href="#BitstreamVeraSans-Roman-61"/>
     <use x="1002.8671875" xlink:href="#BitstreamVeraSans-Roman-79"/>
     <use x="1062.046875" xlink:href="#BitstreamVeraSans-Roman-61"/>
     <use x="1123.32617188" xlink:href="#BitstreamVeraSans-Roman-6e"/>
     <use x="1186.70507812" xlink:href="#BitstreamVeraSans-Roman-74"/>
     <use x="1225.9140625" xlink:href="#BitstreamVeraSans-Roman-20"/>
     <use x="1257.70117188" xlink:href="#BitstreamVeraSans-Roman-6c"/>
     <use x="1285.484375" xlink:href="#BitstreamVeraSans-Roman-65"/>
     <use x="1347.0078125" xlink:href="#BitstreamVeraSans-Roman-20"/>
     <use x="1378.79492188" xlink:href="#BitstreamVeraSans-Roman-70"/>
     <use x="1442.27148438" xlink:href="#BitstreamVeraSans-Roman-6c"/>
     <use x="1470.0546875" xlink:href="#BitstreamVeraSans-Roman-75"/>
     <use x="1533.43359375" xlink:href="#BitstreamVeraSans-Roman-73"/>
     <use x="1585.53320312" xlink:href="#BitstreamVeraSans-Roman-20"/>
     <use x="1617.3203125" xlink:href="#BitstreamVeraSans-Roman-64"/>
     <use x="1680.796875" xlink:href="#BitstreamVeraSans-Roman-27"/>
     <use x="1708.28710938" xlink:href="#BitstreamVeraSans-Roman-6f"/>
     <use x="1769.46875" xlink:href="#BitstreamVeraSans-Roman-66"/>
     <use x="1804.67382812" xlink:href="#BitstreamVeraSans-Roman-66"/>
     <use x="1839.87890625" xlink:href="#BitstreamVeraSans-Roman-72"/>
     <use x="1880.9609375" xlink:href="#BitstreamVeraSans-Roman-65"/>
     <use x="1942.484375" xlink:href="#BitstreamVeraSans-Roman-73"/>
     <use x="1994.58398438" xlink:href="#BitstreamVeraSans-Roman-20"/>
     <use x="2026.37109375" xlink:href="#BitstreamVeraSans-Roman-64"/>
     <use x="2089.84765625" xlink:href="#BitstreamVeraSans-Roman-27"/>
     <use x="2117.33789062" xlink:href="#BitstreamVeraSans-Roman-65"/>
     <use x="2178.86132812" xlink:href="#BitstreamVeraSans-Roman-6d"/>
     <use x="2276.2734375" xlink:href="#BitstreamVeraSans-Roman-70"/>
     <use x="2339.75" xlink:href="#BitstreamVeraSans-Roman-6c"/>
     <use x="2367.53320312" xlink:href="#BitstreamVeraSans-Roman-6f"/>
     <use x="2428.71484375" xlink:href="#BitstreamVeraSans-Roman-69"/>
    </g>
   </g>
   <g id="legend_1">
    <g id="patch_18">
     <path d="M 501.364875 428.33525 
L 747.12 428.33525 
Q 750.48 428.33525 750.48 424.97525 
L 750.48 32.10725 
Q 750.48 28.74725 747.12 28.74725 
L 501.364875 28.74725 
Q 498.004875 28.74725 498.004875 32.10725 
L 498.004875 424.97525 
Q 498.004875 428.33525 501.364875 428.33525 
z
" style="fill:#f0f0f0;stroke:#f0f0f0;stroke-linejoin:miter;"/>
    </g>
    <g id="patch_19">
     <path d="M 504.724875 48.232625 
L 538.324875 48.232625 
L 538.324875 36.472625 
L 504.724875 36.472625 
z
" style="fill:#ffa500;stroke:#ffffff;stroke-linejoin:miter;"/>
    </g>
    <g id="text_2">
     <!-- Paris - 21.93 % -->
     <defs>
      <path d="M 19.1875 8.296875 
L 53.609375 8.296875 
L 53.609375 0 
L 7.328125 0 
L 7.328125 8.296875 
Q 12.9375 14.109375 22.625 23.890625 
Q 32.328125 33.6875 34.8125 36.53125 
Q 39.546875 41.84375 41.421875 45.53125 
Q 43.3125 49.21875 43.3125 52.78125 
Q 43.3125 58.59375 39.234375 62.25 
Q 35.15625 65.921875 28.609375 65.921875 
Q 23.96875 65.921875 18.8125 64.3125 
Q 13.671875 62.703125 7.8125 59.421875 
L 7.8125 69.390625 
Q 13.765625 71.78125 18.9375 73 
Q 24.125 74.21875 28.421875 74.21875 
Q 39.75 74.21875 46.484375 68.546875 
Q 53.21875 62.890625 53.21875 53.421875 
Q 53.21875 48.921875 51.53125 44.890625 
Q 49.859375 40.875 45.40625 35.40625 
Q 44.1875 33.984375 37.640625 27.21875 
Q 31.109375 20.453125 19.1875 8.296875 
" id="BitstreamVeraSans-Roman-32"/>
      <path d="M 40.578125 39.3125 
Q 47.65625 37.796875 51.625 33 
Q 55.609375 28.21875 55.609375 21.1875 
Q 55.609375 10.40625 48.1875 4.484375 
Q 40.765625 -1.421875 27.09375 -1.421875 
Q 22.515625 -1.421875 17.65625 -0.515625 
Q 12.796875 0.390625 7.625 2.203125 
L 7.625 11.71875 
Q 11.71875 9.328125 16.59375 8.109375 
Q 21.484375 6.890625 26.8125 6.890625 
Q 36.078125 6.890625 40.9375 10.546875 
Q 45.796875 14.203125 45.796875 21.1875 
Q 45.796875 27.640625 41.28125 31.265625 
Q 36.765625 34.90625 28.71875 34.90625 
L 20.21875 34.90625 
L 20.21875 43.015625 
L 29.109375 43.015625 
Q 36.375 43.015625 40.234375 45.921875 
Q 44.09375 48.828125 44.09375 54.296875 
Q 44.09375 59.90625 40.109375 62.90625 
Q 36.140625 65.921875 28.71875 65.921875 
Q 24.65625 65.921875 20.015625 65.03125 
Q 15.375 64.15625 9.8125 62.3125 
L 9.8125 71.09375 
Q 15.4375 72.65625 20.34375 73.4375 
Q 25.25 74.21875 29.59375 74.21875 
Q 40.828125 74.21875 47.359375 69.109375 
Q 53.90625 64.015625 53.90625 55.328125 
Q 53.90625 49.265625 50.4375 45.09375 
Q 46.96875 40.921875 40.578125 39.3125 
" id="BitstreamVeraSans-Roman-33"/>
      <path d="M 72.703125 32.078125 
Q 68.453125 32.078125 66.03125 28.46875 
Q 63.625 24.859375 63.625 18.40625 
Q 63.625 12.0625 66.03125 8.421875 
Q 68.453125 4.78125 72.703125 4.78125 
Q 76.859375 4.78125 79.265625 8.421875 
Q 81.6875 12.0625 81.6875 18.40625 
Q 81.6875 24.8125 79.265625 28.4375 
Q 76.859375 32.078125 72.703125 32.078125 
M 72.703125 38.28125 
Q 80.421875 38.28125 84.953125 32.90625 
Q 89.5 27.546875 89.5 18.40625 
Q 89.5 9.28125 84.9375 3.921875 
Q 80.375 -1.421875 72.703125 -1.421875 
Q 64.890625 -1.421875 60.34375 3.921875 
Q 55.8125 9.28125 55.8125 18.40625 
Q 55.8125 27.59375 60.375 32.9375 
Q 64.9375 38.28125 72.703125 38.28125 
M 22.3125 68.015625 
Q 18.109375 68.015625 15.6875 64.375 
Q 13.28125 60.75 13.28125 54.390625 
Q 13.28125 47.953125 15.671875 44.328125 
Q 18.0625 40.71875 22.3125 40.71875 
Q 26.5625 40.71875 28.96875 44.328125 
Q 31.390625 47.953125 31.390625 54.390625 
Q 31.390625 60.6875 28.953125 64.34375 
Q 26.515625 68.015625 22.3125 68.015625 
M 66.40625 74.21875 
L 74.21875 74.21875 
L 28.609375 -1.421875 
L 20.796875 -1.421875 
z
M 22.3125 74.21875 
Q 30.03125 74.21875 34.609375 68.875 
Q 39.203125 63.53125 39.203125 54.390625 
Q 39.203125 45.171875 34.640625 39.84375 
Q 30.078125 34.515625 22.3125 34.515625 
Q 14.546875 34.515625 10.03125 39.859375 
Q 5.515625 45.21875 5.515625 54.390625 
Q 5.515625 63.484375 10.046875 68.84375 
Q 14.59375 74.21875 22.3125 74.21875 
" id="BitstreamVeraSans-Roman-25"/>
      <path d="M 10.984375 1.515625 
L 10.984375 10.5 
Q 14.703125 8.734375 18.5 7.8125 
Q 22.3125 6.890625 25.984375 6.890625 
Q 35.75 6.890625 40.890625 13.453125 
Q 46.046875 20.015625 46.78125 33.40625 
Q 43.953125 29.203125 39.59375 26.953125 
Q 35.25 24.703125 29.984375 24.703125 
Q 19.046875 24.703125 12.671875 31.3125 
Q 6.296875 37.9375 6.296875 49.421875 
Q 6.296875 60.640625 12.9375 67.421875 
Q 19.578125 74.21875 30.609375 74.21875 
Q 43.265625 74.21875 49.921875 64.515625 
Q 56.59375 54.828125 56.59375 36.375 
Q 56.59375 19.140625 48.40625 8.859375 
Q 40.234375 -1.421875 26.421875 -1.421875 
Q 22.703125 -1.421875 18.890625 -0.6875 
Q 15.09375 0.046875 10.984375 1.515625 
M 30.609375 32.421875 
Q 37.25 32.421875 41.125 36.953125 
Q 45.015625 41.5 45.015625 49.421875 
Q 45.015625 57.28125 41.125 61.84375 
Q 37.25 66.40625 30.609375 66.40625 
Q 23.96875 66.40625 20.09375 61.84375 
Q 16.21875 57.28125 16.21875 49.421875 
Q 16.21875 41.5 20.09375 36.953125 
Q 23.96875 32.421875 30.609375 32.421875 
" id="BitstreamVeraSans-Roman-39"/>
      <path d="M 10.6875 12.40625 
L 21 12.40625 
L 21 0 
L 10.6875 0 
z
" id="BitstreamVeraSans-Roman-2e"/>
      <path d="M 4.890625 31.390625 
L 31.203125 31.390625 
L 31.203125 23.390625 
L 4.890625 23.390625 
z
" id="BitstreamVeraSans-Roman-2d"/>
     </defs>
     <g transform="translate(551.764875 48.232625)scale(0.168 -0.168)">
      <use xlink:href="#BitstreamVeraSans-Roman-50"/>
      <use x="60.240234375" xlink:href="#BitstreamVeraSans-Roman-61"/>
      <use x="121.51953125" xlink:href="#BitstreamVeraSans-Roman-72"/>
      <use x="162.6328125" xlink:href="#BitstreamVeraSans-Roman-69"/>
      <use x="190.416015625" xlink:href="#BitstreamVeraSans-Roman-73"/>
      <use x="242.515625" xlink:href="#BitstreamVeraSans-Roman-20"/>
      <use x="274.302734375" xlink:href="#BitstreamVeraSans-Roman-2d"/>
      <use x="310.38671875" xlink:href="#BitstreamVeraSans-Roman-20"/>
      <use x="342.173828125" xlink:href="#BitstreamVeraSans-Roman-32"/>
      <use x="405.796875" xlink:href="#BitstreamVeraSans-Roman-31"/>
      <use x="469.419921875" xlink:href="#BitstreamVeraSans-Roman-2e"/>
      <use x="501.20703125" xlink:href="#BitstreamVeraSans-Roman-39"/>
      <use x="564.830078125" xlink:href="#BitstreamVeraSans-Roman-33"/>
      <use x="628.453125" xlink:href="#BitstreamVeraSans-Roman-20"/>
      <use x="660.240234375" xlink:href="#BitstreamVeraSans-Roman-25"/>
     </g>
    </g>
    <g id="patch_20">
     <path d="M 504.724875 72.891875 
L 538.324875 72.891875 
L 538.324875 61.131875 
L 504.724875 61.131875 
z
" style="fill:#deb887;stroke:#ffffff;stroke-linejoin:miter;"/>
    </g>
    <g id="text_3">
     <!-- Lyon - 5.92 % -->
     <defs>
      <path d="M 9.8125 72.90625 
L 19.671875 72.90625 
L 19.671875 8.296875 
L 55.171875 8.296875 
L 55.171875 0 
L 9.8125 0 
z
" id="BitstreamVeraSans-Roman-4c"/>
     </defs>
     <g transform="translate(551.764875 72.891875)scale(0.168 -0.168)">
      <use xlink:href="#BitstreamVeraSans-Roman-4c"/>
      <use x="55.572265625" xlink:href="#BitstreamVeraSans-Roman-79"/>
      <use x="114.751953125" xlink:href="#BitstreamVeraSans-Roman-6f"/>
      <use x="175.93359375" xlink:href="#BitstreamVeraSans-Roman-6e"/>
      <use x="239.3125" xlink:href="#BitstreamVeraSans-Roman-20"/>
      <use x="271.099609375" xlink:href="#BitstreamVeraSans-Roman-2d"/>
      <use x="307.18359375" xlink:href="#BitstreamVeraSans-Roman-20"/>
      <use x="338.970703125" xlink:href="#BitstreamVeraSans-Roman-35"/>
      <use x="402.59375" xlink:href="#BitstreamVeraSans-Roman-2e"/>
      <use x="434.380859375" xlink:href="#BitstreamVeraSans-Roman-39"/>
      <use x="498.00390625" xlink:href="#BitstreamVeraSans-Roman-32"/>
      <use x="561.626953125" xlink:href="#BitstreamVeraSans-Roman-20"/>
      <use x="593.4140625" xlink:href="#BitstreamVeraSans-Roman-25"/>
     </g>
    </g>
    <g id="patch_21">
     <path d="M 504.724875 97.551125 
L 538.324875 97.551125 
L 538.324875 85.791125 
L 504.724875 85.791125 
z
" style="fill:#a52a2a;stroke:#ffffff;stroke-linejoin:miter;"/>
    </g>
    <g id="text_4">
     <!-- Montpellier - 5.92 % -->
     <defs>
      <path d="M 9.8125 72.90625 
L 24.515625 72.90625 
L 43.109375 23.296875 
L 61.8125 72.90625 
L 76.515625 72.90625 
L 76.515625 0 
L 66.890625 0 
L 66.890625 64.015625 
L 48.09375 14.015625 
L 38.1875 14.015625 
L 19.390625 64.015625 
L 19.390625 0 
L 9.8125 0 
z
" id="BitstreamVeraSans-Roman-4d"/>
     </defs>
     <g transform="translate(551.764875 97.551125)scale(0.168 -0.168)">
      <use xlink:href="#BitstreamVeraSans-Roman-4d"/>
      <use x="86.279296875" xlink:href="#BitstreamVeraSans-Roman-6f"/>
      <use x="147.4609375" xlink:href="#BitstreamVeraSans-Roman-6e"/>
      <use x="210.83984375" xlink:href="#BitstreamVeraSans-Roman-74"/>
      <use x="250.048828125" xlink:href="#BitstreamVeraSans-Roman-70"/>
      <use x="313.525390625" xlink:href="#BitstreamVeraSans-Roman-65"/>
      <use x="375.048828125" xlink:href="#BitstreamVeraSans-Roman-6c"/>
      <use x="402.83203125" xlink:href="#BitstreamVeraSans-Roman-6c"/>
      <use x="430.615234375" xlink:href="#BitstreamVeraSans-Roman-69"/>
      <use x="458.3984375" xlink:href="#BitstreamVeraSans-Roman-65"/>
      <use x="519.921875" xlink:href="#BitstreamVeraSans-Roman-72"/>
      <use x="561.03515625" xlink:href="#BitstreamVeraSans-Roman-20"/>
      <use x="592.822265625" xlink:href="#BitstreamVeraSans-Roman-2d"/>
      <use x="628.90625" xlink:href="#BitstreamVeraSans-Roman-20"/>
      <use x="660.693359375" xlink:href="#BitstreamVeraSans-Roman-35"/>
      <use x="724.31640625" xlink:href="#BitstreamVeraSans-Roman-2e"/>
      <use x="756.103515625" xlink:href="#BitstreamVeraSans-Roman-39"/>
      <use x="819.7265625" xlink:href="#BitstreamVeraSans-Roman-32"/>
      <use x="883.349609375" xlink:href="#BitstreamVeraSans-Roman-20"/>
      <use x="915.13671875" xlink:href="#BitstreamVeraSans-Roman-25"/>
     </g>
    </g>
    <g id="patch_22">
     <path d="M 504.724875 122.210375 
L 538.324875 122.210375 
L 538.324875 110.450375 
L 504.724875 110.450375 
z
" style="fill:#6495ed;stroke:#ffffff;stroke-linejoin:miter;"/>
    </g>
    <g id="text_5">
     <!-- Evry - 4.30 % -->
     <defs>
      <path d="M 9.8125 72.90625 
L 55.90625 72.90625 
L 55.90625 64.59375 
L 19.671875 64.59375 
L 19.671875 43.015625 
L 54.390625 43.015625 
L 54.390625 34.71875 
L 19.671875 34.71875 
L 19.671875 8.296875 
L 56.78125 8.296875 
L 56.78125 0 
L 9.8125 0 
z
" id="BitstreamVeraSans-Roman-45"/>
      <path d="M 31.78125 66.40625 
Q 24.171875 66.40625 20.328125 58.90625 
Q 16.5 51.421875 16.5 36.375 
Q 16.5 21.390625 20.328125 13.890625 
Q 24.171875 6.390625 31.78125 6.390625 
Q 39.453125 6.390625 43.28125 13.890625 
Q 47.125 21.390625 47.125 36.375 
Q 47.125 51.421875 43.28125 58.90625 
Q 39.453125 66.40625 31.78125 66.40625 
M 31.78125 74.21875 
Q 44.046875 74.21875 50.515625 64.515625 
Q 56.984375 54.828125 56.984375 36.375 
Q 56.984375 17.96875 50.515625 8.265625 
Q 44.046875 -1.421875 31.78125 -1.421875 
Q 19.53125 -1.421875 13.0625 8.265625 
Q 6.59375 17.96875 6.59375 36.375 
Q 6.59375 54.828125 13.0625 64.515625 
Q 19.53125 74.21875 31.78125 74.21875 
" id="BitstreamVeraSans-Roman-30"/>
      <path d="M 37.796875 64.3125 
L 12.890625 25.390625 
L 37.796875 25.390625 
z
M 35.203125 72.90625 
L 47.609375 72.90625 
L 47.609375 25.390625 
L 58.015625 25.390625 
L 58.015625 17.1875 
L 47.609375 17.1875 
L 47.609375 0 
L 37.796875 0 
L 37.796875 17.1875 
L 4.890625 17.1875 
L 4.890625 26.703125 
z
" id="BitstreamVeraSans-Roman-34"/>
     </defs>
     <g transform="translate(551.764875 122.210375)scale(0.168 -0.168)">
      <use xlink:href="#BitstreamVeraSans-Roman-45"/>
      <use x="63.18359375" xlink:href="#BitstreamVeraSans-Roman-76"/>
      <use x="122.36328125" xlink:href="#BitstreamVeraSans-Roman-72"/>
      <use x="163.4765625" xlink:href="#BitstreamVeraSans-Roman-79"/>
      <use x="222.65625" xlink:href="#BitstreamVeraSans-Roman-20"/>
      <use x="254.443359375" xlink:href="#BitstreamVeraSans-Roman-2d"/>
      <use x="290.52734375" xlink:href="#BitstreamVeraSans-Roman-20"/>
      <use x="322.314453125" xlink:href="#BitstreamVeraSans-Roman-34"/>
      <use x="385.9375" xlink:href="#BitstreamVeraSans-Roman-2e"/>
      <use x="417.724609375" xlink:href="#BitstreamVeraSans-Roman-33"/>
      <use x="481.34765625" xlink:href="#BitstreamVeraSans-Roman-30"/>
      <use x="544.970703125" xlink:href="#BitstreamVeraSans-Roman-20"/>
      <use x="576.7578125" xlink:href="#BitstreamVeraSans-Roman-25"/>
     </g>
    </g>
    <g id="patch_23">
     <path d="M 504.724875 146.869625 
L 538.324875 146.869625 
L 538.324875 135.109625 
L 504.724875 135.109625 
z
" style="fill:#dc143c;stroke:#ffffff;stroke-linejoin:miter;"/>
    </g>
    <g id="text_6">
     <!-- Toulouse - 3.53 % -->
     <defs>
      <path d="M -0.296875 72.90625 
L 61.375 72.90625 
L 61.375 64.59375 
L 35.5 64.59375 
L 35.5 0 
L 25.59375 0 
L 25.59375 64.59375 
L -0.296875 64.59375 
z
" id="BitstreamVeraSans-Roman-54"/>
     </defs>
     <g transform="translate(551.764875 146.869625)scale(0.168 -0.168)">
      <use xlink:href="#BitstreamVeraSans-Roman-54"/>
      <use x="60.818359375" xlink:href="#BitstreamVeraSans-Roman-6f"/>
      <use x="122.0" xlink:href="#BitstreamVeraSans-Roman-75"/>
      <use x="185.37890625" xlink:href="#BitstreamVeraSans-Roman-6c"/>
      <use x="213.162109375" xlink:href="#BitstreamVeraSans-Roman-6f"/>
      <use x="274.34375" xlink:href="#BitstreamVeraSans-Roman-75"/>
      <use x="337.72265625" xlink:href="#BitstreamVeraSans-Roman-73"/>
      <use x="389.822265625" xlink:href="#BitstreamVeraSans-Roman-65"/>
      <use x="451.345703125" xlink:href="#BitstreamVeraSans-Roman-20"/>
      <use x="483.1328125" xlink:href="#BitstreamVeraSans-Roman-2d"/>
      <use x="519.216796875" xlink:href="#BitstreamVeraSans-Roman-20"/>
      <use x="551.00390625" xlink:href="#BitstreamVeraSans-Roman-33"/>
      <use x="614.626953125" xlink:href="#BitstreamVeraSans-Roman-2e"/>
      <use x="646.4140625" xlink:href="#BitstreamVeraSans-Roman-35"/>
      <use x="710.037109375" xlink:href="#BitstreamVeraSans-Roman-33"/>
      <use x="773.66015625" xlink:href="#BitstreamVeraSans-Roman-20"/>
      <use x="805.447265625" xlink:href="#BitstreamVeraSans-Roman-25"/>
     </g>
    </g>
    <g id="patch_24">
     <path d="M 504.724875 171.528875 
L 538.324875 171.528875 
L 538.324875 159.768875 
L 504.724875 159.768875 
z
" style="fill:#556b2f;stroke:#ffffff;stroke-linejoin:miter;"/>
    </g>
    <g id="text_7">
     <!-- Gif Sur Yvette - 2.54 % -->
     <defs>
      <path d="M 59.515625 10.40625 
L 59.515625 29.984375 
L 43.40625 29.984375 
L 43.40625 38.09375 
L 69.28125 38.09375 
L 69.28125 6.78125 
Q 63.578125 2.734375 56.6875 0.65625 
Q 49.8125 -1.421875 42 -1.421875 
Q 24.90625 -1.421875 15.25 8.5625 
Q 5.609375 18.5625 5.609375 36.375 
Q 5.609375 54.25 15.25 64.234375 
Q 24.90625 74.21875 42 74.21875 
Q 49.125 74.21875 55.546875 72.453125 
Q 61.96875 70.703125 67.390625 67.28125 
L 67.390625 56.78125 
Q 61.921875 61.421875 55.765625 63.765625 
Q 49.609375 66.109375 42.828125 66.109375 
Q 29.4375 66.109375 22.71875 58.640625 
Q 16.015625 51.171875 16.015625 36.375 
Q 16.015625 21.625 22.71875 14.15625 
Q 29.4375 6.6875 42.828125 6.6875 
Q 48.046875 6.6875 52.140625 7.59375 
Q 56.25 8.5 59.515625 10.40625 
" id="BitstreamVeraSans-Roman-47"/>
      <path d="M -0.203125 72.90625 
L 10.40625 72.90625 
L 30.609375 42.921875 
L 50.6875 72.90625 
L 61.28125 72.90625 
L 35.5 34.71875 
L 35.5 0 
L 25.59375 0 
L 25.59375 34.71875 
z
" id="BitstreamVeraSans-Roman-59"/>
      <path d="M 53.515625 70.515625 
L 53.515625 60.890625 
Q 47.90625 63.578125 42.921875 64.890625 
Q 37.9375 66.21875 33.296875 66.21875 
Q 25.25 66.21875 20.875 63.09375 
Q 16.5 59.96875 16.5 54.203125 
Q 16.5 49.359375 19.40625 46.890625 
Q 22.3125 44.4375 30.421875 42.921875 
L 36.375 41.703125 
Q 47.40625 39.59375 52.65625 34.296875 
Q 57.90625 29 57.90625 20.125 
Q 57.90625 9.515625 50.796875 4.046875 
Q 43.703125 -1.421875 29.984375 -1.421875 
Q 24.8125 -1.421875 18.96875 -0.25 
Q 13.140625 0.921875 6.890625 3.21875 
L 6.890625 13.375 
Q 12.890625 10.015625 18.65625 8.296875 
Q 24.421875 6.59375 29.984375 6.59375 
Q 38.421875 6.59375 43.015625 9.90625 
Q 47.609375 13.234375 47.609375 19.390625 
Q 47.609375 24.75 44.3125 27.78125 
Q 41.015625 30.8125 33.5 32.328125 
L 27.484375 33.5 
Q 16.453125 35.6875 11.515625 40.375 
Q 6.59375 45.0625 6.59375 53.421875 
Q 6.59375 63.09375 13.40625 68.65625 
Q 20.21875 74.21875 32.171875 74.21875 
Q 37.3125 74.21875 42.625 73.28125 
Q 47.953125 72.359375 53.515625 70.515625 
" id="BitstreamVeraSans-Roman-53"/>
     </defs>
     <g transform="translate(551.764875 171.528875)scale(0.168 -0.168)">
      <use xlink:href="#BitstreamVeraSans-Roman-47"/>
      <use x="77.490234375" xlink:href="#BitstreamVeraSans-Roman-69"/>
      <use x="105.2734375" xlink:href="#BitstreamVeraSans-Roman-66"/>
      <use x="140.478515625" xlink:href="#BitstreamVeraSans-Roman-20"/>
      <use x="172.265625" xlink:href="#BitstreamVeraSans-Roman-53"/>
      <use x="235.7421875" xlink:href="#BitstreamVeraSans-Roman-75"/>
      <use x="299.12109375" xlink:href="#BitstreamVeraSans-Roman-72"/>
      <use x="340.234375" xlink:href="#BitstreamVeraSans-Roman-20"/>
      <use x="372.021484375" xlink:href="#BitstreamVeraSans-Roman-59"/>
      <use x="433.10546875" xlink:href="#BitstreamVeraSans-Roman-76"/>
      <use x="492.28515625" xlink:href="#BitstreamVeraSans-Roman-65"/>
      <use x="553.80859375" xlink:href="#BitstreamVeraSans-Roman-74"/>
      <use x="593.017578125" xlink:href="#BitstreamVeraSans-Roman-74"/>
      <use x="632.2265625" xlink:href="#BitstreamVeraSans-Roman-65"/>
      <use x="693.75" xlink:href="#BitstreamVeraSans-Roman-20"/>
      <use x="725.537109375" xlink:href="#BitstreamVeraSans-Roman-2d"/>
      <use x="761.62109375" xlink:href="#BitstreamVeraSans-Roman-20"/>
      <use x="793.408203125" xlink:href="#BitstreamVeraSans-Roman-32"/>
      <use x="857.03125" xlink:href="#BitstreamVeraSans-Roman-2e"/>
      <use x="888.818359375" xlink:href="#BitstreamVeraSans-Roman-35"/>
      <use x="952.44140625" xlink:href="#BitstreamVeraSans-Roman-34"/>
      <use x="1016.06445312" xlink:href="#BitstreamVeraSans-Roman-20"/>
      <use x="1047.8515625" xlink:href="#BitstreamVeraSans-Roman-25"/>
     </g>
    </g>
    <g id="patch_25">
     <path d="M 504.724875 196.188125 
L 538.324875 196.188125 
L 538.324875 184.428125 
L 504.724875 184.428125 
z
" style="fill:#c0c0c0;stroke:#ffffff;stroke-linejoin:miter;"/>
    </g>
    <g id="text_8">
     <!-- Grenoble - 2.12 % -->
     <defs>
      <path d="M 48.6875 27.296875 
Q 48.6875 37.203125 44.609375 42.84375 
Q 40.53125 48.484375 33.40625 48.484375 
Q 26.265625 48.484375 22.1875 42.84375 
Q 18.109375 37.203125 18.109375 27.296875 
Q 18.109375 17.390625 22.1875 11.75 
Q 26.265625 6.109375 33.40625 6.109375 
Q 40.53125 6.109375 44.609375 11.75 
Q 48.6875 17.390625 48.6875 27.296875 
M 18.109375 46.390625 
Q 20.953125 51.265625 25.265625 53.625 
Q 29.59375 56 35.59375 56 
Q 45.5625 56 51.78125 48.09375 
Q 58.015625 40.1875 58.015625 27.296875 
Q 58.015625 14.40625 51.78125 6.484375 
Q 45.5625 -1.421875 35.59375 -1.421875 
Q 29.59375 -1.421875 25.265625 0.953125 
Q 20.953125 3.328125 18.109375 8.203125 
L 18.109375 0 
L 9.078125 0 
L 9.078125 75.984375 
L 18.109375 75.984375 
z
" id="BitstreamVeraSans-Roman-62"/>
     </defs>
     <g transform="translate(551.764875 196.188125)scale(0.168 -0.168)">
      <use xlink:href="#BitstreamVeraSans-Roman-47"/>
      <use x="77.490234375" xlink:href="#BitstreamVeraSans-Roman-72"/>
      <use x="118.572265625" xlink:href="#BitstreamVeraSans-Roman-65"/>
      <use x="180.095703125" xlink:href="#BitstreamVeraSans-Roman-6e"/>
      <use x="243.474609375" xlink:href="#BitstreamVeraSans-Roman-6f"/>
      <use x="304.65625" xlink:href="#BitstreamVeraSans-Roman-62"/>
      <use x="368.1328125" xlink:href="#BitstreamVeraSans-Roman-6c"/>
      <use x="395.916015625" xlink:href="#BitstreamVeraSans-Roman-65"/>
      <use x="457.439453125" xlink:href="#BitstreamVeraSans-Roman-20"/>
      <use x="489.2265625" xlink:href="#BitstreamVeraSans-Roman-2d"/>
      <use x="525.310546875" xlink:href="#BitstreamVeraSans-Roman-20"/>
      <use x="557.09765625" xlink:href="#BitstreamVeraSans-Roman-32"/>
      <use x="620.720703125" xlink:href="#BitstreamVeraSans-Roman-2e"/>
      <use x="652.5078125" xlink:href="#BitstreamVeraSans-Roman-31"/>
      <use x="716.130859375" xlink:href="#BitstreamVeraSans-Roman-32"/>
      <use x="779.75390625" xlink:href="#BitstreamVeraSans-Roman-20"/>
      <use x="811.541015625" xlink:href="#BitstreamVeraSans-Roman-25"/>
     </g>
    </g>
    <g id="patch_26">
     <path d="M 504.724875 220.847375 
L 538.324875 220.847375 
L 538.324875 209.087375 
L 504.724875 209.087375 
z
" style="fill:#2f4f4f;stroke:#ffffff;stroke-linejoin:miter;"/>
    </g>
    <g id="text_9">
     <!-- Rennes - 1.90 % -->
     <defs>
      <path d="M 44.390625 34.1875 
Q 47.5625 33.109375 50.5625 29.59375 
Q 53.5625 26.078125 56.59375 19.921875 
L 66.609375 0 
L 56 0 
L 46.6875 18.703125 
Q 43.0625 26.03125 39.671875 28.421875 
Q 36.28125 30.8125 30.421875 30.8125 
L 19.671875 30.8125 
L 19.671875 0 
L 9.8125 0 
L 9.8125 72.90625 
L 32.078125 72.90625 
Q 44.578125 72.90625 50.734375 67.671875 
Q 56.890625 62.453125 56.890625 51.90625 
Q 56.890625 45.015625 53.6875 40.46875 
Q 50.484375 35.9375 44.390625 34.1875 
M 19.671875 64.796875 
L 19.671875 38.921875 
L 32.078125 38.921875 
Q 39.203125 38.921875 42.84375 42.21875 
Q 46.484375 45.515625 46.484375 51.90625 
Q 46.484375 58.296875 42.84375 61.546875 
Q 39.203125 64.796875 32.078125 64.796875 
z
" id="BitstreamVeraSans-Roman-52"/>
     </defs>
     <g transform="translate(551.764875 220.847375)scale(0.168 -0.168)">
      <use xlink:href="#BitstreamVeraSans-Roman-52"/>
      <use x="69.419921875" xlink:href="#BitstreamVeraSans-Roman-65"/>
      <use x="130.943359375" xlink:href="#BitstreamVeraSans-Roman-6e"/>
      <use x="194.322265625" xlink:href="#BitstreamVeraSans-Roman-6e"/>
      <use x="257.701171875" xlink:href="#BitstreamVeraSans-Roman-65"/>
      <use x="319.224609375" xlink:href="#BitstreamVeraSans-Roman-73"/>
      <use x="371.32421875" xlink:href="#BitstreamVeraSans-Roman-20"/>
      <use x="403.111328125" xlink:href="#BitstreamVeraSans-Roman-2d"/>
      <use x="439.1953125" xlink:href="#BitstreamVeraSans-Roman-20"/>
      <use x="470.982421875" xlink:href="#BitstreamVeraSans-Roman-31"/>
      <use x="534.60546875" xlink:href="#BitstreamVeraSans-Roman-2e"/>
      <use x="566.392578125" xlink:href="#BitstreamVeraSans-Roman-39"/>
      <use x="630.015625" xlink:href="#BitstreamVeraSans-Roman-30"/>
      <use x="693.638671875" xlink:href="#BitstreamVeraSans-Roman-20"/>
      <use x="725.42578125" xlink:href="#BitstreamVeraSans-Roman-25"/>
     </g>
    </g>
    <g id="patch_27">
     <path d="M 504.724875 245.506625 
L 538.324875 245.506625 
L 538.324875 233.746625 
L 504.724875 233.746625 
z
" style="fill:#dda0dd;stroke:#ffffff;stroke-linejoin:miter;"/>
    </g>
    <g id="text_10">
     <!-- Bordeaux - 1.69 % -->
     <defs>
      <path d="M 33.015625 40.375 
Q 26.375 40.375 22.484375 35.828125 
Q 18.609375 31.296875 18.609375 23.390625 
Q 18.609375 15.53125 22.484375 10.953125 
Q 26.375 6.390625 33.015625 6.390625 
Q 39.65625 6.390625 43.53125 10.953125 
Q 47.40625 15.53125 47.40625 23.390625 
Q 47.40625 31.296875 43.53125 35.828125 
Q 39.65625 40.375 33.015625 40.375 
M 52.59375 71.296875 
L 52.59375 62.3125 
Q 48.875 64.0625 45.09375 64.984375 
Q 41.3125 65.921875 37.59375 65.921875 
Q 27.828125 65.921875 22.671875 59.328125 
Q 17.53125 52.734375 16.796875 39.40625 
Q 19.671875 43.65625 24.015625 45.921875 
Q 28.375 48.1875 33.59375 48.1875 
Q 44.578125 48.1875 50.953125 41.515625 
Q 57.328125 34.859375 57.328125 23.390625 
Q 57.328125 12.15625 50.6875 5.359375 
Q 44.046875 -1.421875 33.015625 -1.421875 
Q 20.359375 -1.421875 13.671875 8.265625 
Q 6.984375 17.96875 6.984375 36.375 
Q 6.984375 53.65625 15.1875 63.9375 
Q 23.390625 74.21875 37.203125 74.21875 
Q 40.921875 74.21875 44.703125 73.484375 
Q 48.484375 72.75 52.59375 71.296875 
" id="BitstreamVeraSans-Roman-36"/>
      <path d="M 19.671875 34.8125 
L 19.671875 8.109375 
L 35.5 8.109375 
Q 43.453125 8.109375 47.28125 11.40625 
Q 51.125 14.703125 51.125 21.484375 
Q 51.125 28.328125 47.28125 31.5625 
Q 43.453125 34.8125 35.5 34.8125 
z
M 19.671875 64.796875 
L 19.671875 42.828125 
L 34.28125 42.828125 
Q 41.5 42.828125 45.03125 45.53125 
Q 48.578125 48.25 48.578125 53.8125 
Q 48.578125 59.328125 45.03125 62.0625 
Q 41.5 64.796875 34.28125 64.796875 
z
M 9.8125 72.90625 
L 35.015625 72.90625 
Q 46.296875 72.90625 52.390625 68.21875 
Q 58.5 63.53125 58.5 54.890625 
Q 58.5 48.1875 55.375 44.234375 
Q 52.25 40.28125 46.1875 39.3125 
Q 53.46875 37.75 57.5 32.78125 
Q 61.53125 27.828125 61.53125 20.40625 
Q 61.53125 10.640625 54.890625 5.3125 
Q 48.25 0 35.984375 0 
L 9.8125 0 
z
" id="BitstreamVeraSans-Roman-42"/>
      <path d="M 54.890625 54.6875 
L 35.109375 28.078125 
L 55.90625 0 
L 45.3125 0 
L 29.390625 21.484375 
L 13.484375 0 
L 2.875 0 
L 24.125 28.609375 
L 4.6875 54.6875 
L 15.28125 54.6875 
L 29.78125 35.203125 
L 44.28125 54.6875 
z
" id="BitstreamVeraSans-Roman-78"/>
     </defs>
     <g transform="translate(551.764875 245.506625)scale(0.168 -0.168)">
      <use xlink:href="#BitstreamVeraSans-Roman-42"/>
      <use x="68.603515625" xlink:href="#BitstreamVeraSans-Roman-6f"/>
      <use x="129.78515625" xlink:href="#BitstreamVeraSans-Roman-72"/>
      <use x="170.8828125" xlink:href="#BitstreamVeraSans-Roman-64"/>
      <use x="234.359375" xlink:href="#BitstreamVeraSans-Roman-65"/>
      <use x="295.8828125" xlink:href="#BitstreamVeraSans-Roman-61"/>
      <use x="357.162109375" xlink:href="#BitstreamVeraSans-Roman-75"/>
      <use x="420.541015625" xlink:href="#BitstreamVeraSans-Roman-78"/>
      <use x="479.720703125" xlink:href="#BitstreamVeraSans-Roman-20"/>
      <use x="511.5078125" xlink:href="#BitstreamVeraSans-Roman-2d"/>
      <use x="547.591796875" xlink:href="#BitstreamVeraSans-Roman-20"/>
      <use x="579.37890625" xlink:href="#BitstreamVeraSans-Roman-31"/>
      <use x="643.001953125" xlink:href="#BitstreamVeraSans-Roman-2e"/>
      <use x="674.7890625" xlink:href="#BitstreamVeraSans-Roman-36"/>
      <use x="738.412109375" xlink:href="#BitstreamVeraSans-Roman-39"/>
      <use x="802.03515625" xlink:href="#BitstreamVeraSans-Roman-20"/>
      <use x="833.822265625" xlink:href="#BitstreamVeraSans-Roman-25"/>
     </g>
    </g>
    <g id="patch_28">
     <path d="M 504.724875 270.165875 
L 538.324875 270.165875 
L 538.324875 258.405875 
L 504.724875 258.405875 
z
" style="fill:#cd853f;stroke:#ffffff;stroke-linejoin:miter;"/>
    </g>
    <g id="text_11">
     <!-- Jouy En Josas - 1.55 % -->
     <defs>
      <path d="M 9.8125 72.90625 
L 19.671875 72.90625 
L 19.671875 5.078125 
Q 19.671875 -8.109375 14.671875 -14.0625 
Q 9.671875 -20.015625 -1.421875 -20.015625 
L -5.171875 -20.015625 
L -5.171875 -11.71875 
L -2.09375 -11.71875 
Q 4.4375 -11.71875 7.125 -8.046875 
Q 9.8125 -4.390625 9.8125 5.078125 
z
" id="BitstreamVeraSans-Roman-4a"/>
     </defs>
     <g transform="translate(551.764875 270.165875)scale(0.168 -0.168)">
      <use xlink:href="#BitstreamVeraSans-Roman-4a"/>
      <use x="29.4921875" xlink:href="#BitstreamVeraSans-Roman-6f"/>
      <use x="90.673828125" xlink:href="#BitstreamVeraSans-Roman-75"/>
      <use x="154.052734375" xlink:href="#BitstreamVeraSans-Roman-79"/>
      <use x="213.232421875" xlink:href="#BitstreamVeraSans-Roman-20"/>
      <use x="245.01953125" xlink:href="#BitstreamVeraSans-Roman-45"/>
      <use x="308.203125" xlink:href="#BitstreamVeraSans-Roman-6e"/>
      <use x="371.58203125" xlink:href="#BitstreamVeraSans-Roman-20"/>
      <use x="403.369140625" xlink:href="#BitstreamVeraSans-Roman-4a"/>
      <use x="432.861328125" xlink:href="#BitstreamVeraSans-Roman-6f"/>
      <use x="494.04296875" xlink:href="#BitstreamVeraSans-Roman-73"/>
      <use x="546.142578125" xlink:href="#BitstreamVeraSans-Roman-61"/>
      <use x="607.421875" xlink:href="#BitstreamVeraSans-Roman-73"/>
      <use x="659.521484375" xlink:href="#BitstreamVeraSans-Roman-20"/>
      <use x="691.30859375" xlink:href="#BitstreamVeraSans-Roman-2d"/>
      <use x="727.392578125" xlink:href="#BitstreamVeraSans-Roman-20"/>
      <use x="759.1796875" xlink:href="#BitstreamVeraSans-Roman-31"/>
      <use x="822.802734375" xlink:href="#BitstreamVeraSans-Roman-2e"/>
      <use x="854.58984375" xlink:href="#BitstreamVeraSans-Roman-35"/>
      <use x="918.212890625" xlink:href="#BitstreamVeraSans-Roman-35"/>
      <use x="981.8359375" xlink:href="#BitstreamVeraSans-Roman-20"/>
      <use x="1013.62304688" xlink:href="#BitstreamVeraSans-Roman-25"/>
     </g>
    </g>
    <g id="patch_29">
     <path d="M 504.724875 294.825125 
L 538.324875 294.825125 
L 538.324875 283.065125 
L 504.724875 283.065125 
z
" style="fill:#8b4513;stroke:#ffffff;stroke-linejoin:miter;"/>
    </g>
    <g id="text_12">
     <!-- Villejuif - 1.48 % -->
     <defs>
      <path d="M 31.78125 34.625 
Q 24.75 34.625 20.71875 30.859375 
Q 16.703125 27.09375 16.703125 20.515625 
Q 16.703125 13.921875 20.71875 10.15625 
Q 24.75 6.390625 31.78125 6.390625 
Q 38.8125 6.390625 42.859375 10.171875 
Q 46.921875 13.96875 46.921875 20.515625 
Q 46.921875 27.09375 42.890625 30.859375 
Q 38.875 34.625 31.78125 34.625 
M 21.921875 38.8125 
Q 15.578125 40.375 12.03125 44.71875 
Q 8.5 49.078125 8.5 55.328125 
Q 8.5 64.0625 14.71875 69.140625 
Q 20.953125 74.21875 31.78125 74.21875 
Q 42.671875 74.21875 48.875 69.140625 
Q 55.078125 64.0625 55.078125 55.328125 
Q 55.078125 49.078125 51.53125 44.71875 
Q 48 40.375 41.703125 38.8125 
Q 48.828125 37.15625 52.796875 32.3125 
Q 56.78125 27.484375 56.78125 20.515625 
Q 56.78125 9.90625 50.3125 4.234375 
Q 43.84375 -1.421875 31.78125 -1.421875 
Q 19.734375 -1.421875 13.25 4.234375 
Q 6.78125 9.90625 6.78125 20.515625 
Q 6.78125 27.484375 10.78125 32.3125 
Q 14.796875 37.15625 21.921875 38.8125 
M 18.3125 54.390625 
Q 18.3125 48.734375 21.84375 45.5625 
Q 25.390625 42.390625 31.78125 42.390625 
Q 38.140625 42.390625 41.71875 45.5625 
Q 45.3125 48.734375 45.3125 54.390625 
Q 45.3125 60.0625 41.71875 63.234375 
Q 38.140625 66.40625 31.78125 66.40625 
Q 25.390625 66.40625 21.84375 63.234375 
Q 18.3125 60.0625 18.3125 54.390625 
" id="BitstreamVeraSans-Roman-38"/>
      <path d="M 9.421875 54.6875 
L 18.40625 54.6875 
L 18.40625 -0.984375 
Q 18.40625 -11.421875 14.421875 -16.109375 
Q 10.453125 -20.796875 1.609375 -20.796875 
L -1.8125 -20.796875 
L -1.8125 -13.1875 
L 0.59375 -13.1875 
Q 5.71875 -13.1875 7.5625 -10.8125 
Q 9.421875 -8.453125 9.421875 -0.984375 
z
M 9.421875 75.984375 
L 18.40625 75.984375 
L 18.40625 64.59375 
L 9.421875 64.59375 
z
" id="BitstreamVeraSans-Roman-6a"/>
      <path d="M 28.609375 0 
L 0.78125 72.90625 
L 11.078125 72.90625 
L 34.1875 11.53125 
L 57.328125 72.90625 
L 67.578125 72.90625 
L 39.796875 0 
z
" id="BitstreamVeraSans-Roman-56"/>
     </defs>
     <g transform="translate(551.764875 294.825125)scale(0.168 -0.168)">
      <use xlink:href="#BitstreamVeraSans-Roman-56"/>
      <use x="68.376953125" xlink:href="#BitstreamVeraSans-Roman-69"/>
      <use x="96.16015625" xlink:href="#BitstreamVeraSans-Roman-6c"/>
      <use x="123.943359375" xlink:href="#BitstreamVeraSans-Roman-6c"/>
      <use x="151.7265625" xlink:href="#BitstreamVeraSans-Roman-65"/>
      <use x="213.25" xlink:href="#BitstreamVeraSans-Roman-6a"/>
      <use x="241.033203125" xlink:href="#BitstreamVeraSans-Roman-75"/>
      <use x="304.412109375" xlink:href="#BitstreamVeraSans-Roman-69"/>
      <use x="332.1953125" xlink:href="#BitstreamVeraSans-Roman-66"/>
      <use x="367.400390625" xlink:href="#BitstreamVeraSans-Roman-20"/>
      <use x="399.1875" xlink:href="#BitstreamVeraSans-Roman-2d"/>
      <use x="435.271484375" xlink:href="#BitstreamVeraSans-Roman-20"/>
      <use x="467.05859375" xlink:href="#BitstreamVeraSans-Roman-31"/>
      <use x="530.681640625" xlink:href="#BitstreamVeraSans-Roman-2e"/>
      <use x="562.46875" xlink:href="#BitstreamVeraSans-Roman-34"/>
      <use x="626.091796875" xlink:href="#BitstreamVeraSans-Roman-38"/>
      <use x="689.71484375" xlink:href="#BitstreamVeraSans-Roman-20"/>
      <use x="721.501953125" xlink:href="#BitstreamVeraSans-Roman-25"/>
     </g>
    </g>
    <g id="patch_30">
     <path d="M 504.724875 319.484375 
L 538.324875 319.484375 
L 538.324875 307.724375 
L 504.724875 307.724375 
z
" style="fill:#ba55d3;stroke:#ffffff;stroke-linejoin:miter;"/>
    </g>
    <g id="text_13">
     <!-- Versailles - 1.41 % -->
     <g transform="translate(551.764875 319.484375)scale(0.168 -0.168)">
      <use xlink:href="#BitstreamVeraSans-Roman-56"/>
      <use x="68.298828125" xlink:href="#BitstreamVeraSans-Roman-65"/>
      <use x="129.822265625" xlink:href="#BitstreamVeraSans-Roman-72"/>
      <use x="170.935546875" xlink:href="#BitstreamVeraSans-Roman-73"/>
      <use x="223.03515625" xlink:href="#BitstreamVeraSans-Roman-61"/>
      <use x="284.314453125" xlink:href="#BitstreamVeraSans-Roman-69"/>
      <use x="312.09765625" xlink:href="#BitstreamVeraSans-Roman-6c"/>
      <use x="339.880859375" xlink:href="#BitstreamVeraSans-Roman-6c"/>
      <use x="367.6640625" xlink:href="#BitstreamVeraSans-Roman-65"/>
      <use x="429.1875" xlink:href="#BitstreamVeraSans-Roman-73"/>
      <use x="481.287109375" xlink:href="#BitstreamVeraSans-Roman-20"/>
      <use x="513.07421875" xlink:href="#BitstreamVeraSans-Roman-2d"/>
      <use x="549.158203125" xlink:href="#BitstreamVeraSans-Roman-20"/>
      <use x="580.9453125" xlink:href="#BitstreamVeraSans-Roman-31"/>
      <use x="644.568359375" xlink:href="#BitstreamVeraSans-Roman-2e"/>
      <use x="676.35546875" xlink:href="#BitstreamVeraSans-Roman-34"/>
      <use x="739.978515625" xlink:href="#BitstreamVeraSans-Roman-31"/>
      <use x="803.6015625" xlink:href="#BitstreamVeraSans-Roman-20"/>
      <use x="835.388671875" xlink:href="#BitstreamVeraSans-Roman-25"/>
     </g>
    </g>
    <g id="patch_31">
     <path d="M 504.724875 344.143625 
L 538.324875 344.143625 
L 538.324875 332.383625 
L 504.724875 332.383625 
z
" style="fill:#daa520;stroke:#ffffff;stroke-linejoin:miter;"/>
    </g>
    <g id="text_14">
     <!-- Lille - 1.41 % -->
     <g transform="translate(551.764875 344.143625)scale(0.168 -0.168)">
      <use xlink:href="#BitstreamVeraSans-Roman-4c"/>
      <use x="55.712890625" xlink:href="#BitstreamVeraSans-Roman-69"/>
      <use x="83.49609375" xlink:href="#BitstreamVeraSans-Roman-6c"/>
      <use x="111.279296875" xlink:href="#BitstreamVeraSans-Roman-6c"/>
      <use x="139.0625" xlink:href="#BitstreamVeraSans-Roman-65"/>
      <use x="200.5859375" xlink:href="#BitstreamVeraSans-Roman-20"/>
      <use x="232.373046875" xlink:href="#BitstreamVeraSans-Roman-2d"/>
      <use x="268.45703125" xlink:href="#BitstreamVeraSans-Roman-20"/>
      <use x="300.244140625" xlink:href="#BitstreamVeraSans-Roman-31"/>
      <use x="363.8671875" xlink:href="#BitstreamVeraSans-Roman-2e"/>
      <use x="395.654296875" xlink:href="#BitstreamVeraSans-Roman-34"/>
      <use x="459.27734375" xlink:href="#BitstreamVeraSans-Roman-31"/>
      <use x="522.900390625" xlink:href="#BitstreamVeraSans-Roman-20"/>
      <use x="554.6875" xlink:href="#BitstreamVeraSans-Roman-25"/>
     </g>
    </g>
    <g id="patch_32">
     <path d="M 504.724875 368.802875 
L 538.324875 368.802875 
L 538.324875 357.042875 
L 504.724875 357.042875 
z
" style="fill:#598556;stroke:#ffffff;stroke-linejoin:miter;"/>
    </g>
    <g id="text_15">
     <!-- Orsay - 1.34 % -->
     <defs>
      <path d="M 39.40625 66.21875 
Q 28.65625 66.21875 22.328125 58.203125 
Q 16.015625 50.203125 16.015625 36.375 
Q 16.015625 22.609375 22.328125 14.59375 
Q 28.65625 6.59375 39.40625 6.59375 
Q 50.140625 6.59375 56.421875 14.59375 
Q 62.703125 22.609375 62.703125 36.375 
Q 62.703125 50.203125 56.421875 58.203125 
Q 50.140625 66.21875 39.40625 66.21875 
M 39.40625 74.21875 
Q 54.734375 74.21875 63.90625 63.9375 
Q 73.09375 53.65625 73.09375 36.375 
Q 73.09375 19.140625 63.90625 8.859375 
Q 54.734375 -1.421875 39.40625 -1.421875 
Q 24.03125 -1.421875 14.8125 8.828125 
Q 5.609375 19.09375 5.609375 36.375 
Q 5.609375 53.65625 14.8125 63.9375 
Q 24.03125 74.21875 39.40625 74.21875 
" id="BitstreamVeraSans-Roman-4f"/>
     </defs>
     <g transform="translate(551.764875 368.802875)scale(0.168 -0.168)">
      <use xlink:href="#BitstreamVeraSans-Roman-4f"/>
      <use x="78.7109375" xlink:href="#BitstreamVeraSans-Roman-72"/>
      <use x="119.82421875" xlink:href="#BitstreamVeraSans-Roman-73"/>
      <use x="171.923828125" xlink:href="#BitstreamVeraSans-Roman-61"/>
      <use x="233.203125" xlink:href="#BitstreamVeraSans-Roman-79"/>
      <use x="292.3828125" xlink:href="#BitstreamVeraSans-Roman-20"/>
      <use x="324.169921875" xlink:href="#BitstreamVeraSans-Roman-2d"/>
      <use x="360.25390625" xlink:href="#BitstreamVeraSans-Roman-20"/>
      <use x="392.041015625" xlink:href="#BitstreamVeraSans-Roman-31"/>
      <use x="455.6640625" xlink:href="#BitstreamVeraSans-Roman-2e"/>
      <use x="487.451171875" xlink:href="#BitstreamVeraSans-Roman-33"/>
      <use x="551.07421875" xlink:href="#BitstreamVeraSans-Roman-34"/>
      <use x="614.697265625" xlink:href="#BitstreamVeraSans-Roman-20"/>
      <use x="646.484375" xlink:href="#BitstreamVeraSans-Roman-25"/>
     </g>
    </g>
    <g id="patch_33">
     <path d="M 504.724875 393.462125 
L 538.324875 393.462125 
L 538.324875 381.702125 
L 504.724875 381.702125 
z
" style="fill:#ff7f50;stroke:#ffffff;stroke-linejoin:miter;"/>
    </g>
    <g id="text_16">
     <!-- Marseille - 1.34 % -->
     <g transform="translate(551.764875 393.462125)scale(0.168 -0.168)">
      <use xlink:href="#BitstreamVeraSans-Roman-4d"/>
      <use x="86.279296875" xlink:href="#BitstreamVeraSans-Roman-61"/>
      <use x="147.55859375" xlink:href="#BitstreamVeraSans-Roman-72"/>
      <use x="188.671875" xlink:href="#BitstreamVeraSans-Roman-73"/>
      <use x="240.771484375" xlink:href="#BitstreamVeraSans-Roman-65"/>
      <use x="302.294921875" xlink:href="#BitstreamVeraSans-Roman-69"/>
      <use x="330.078125" xlink:href="#BitstreamVeraSans-Roman-6c"/>
      <use x="357.861328125" xlink:href="#BitstreamVeraSans-Roman-6c"/>
      <use x="385.64453125" xlink:href="#BitstreamVeraSans-Roman-65"/>
      <use x="447.16796875" xlink:href="#BitstreamVeraSans-Roman-20"/>
      <use x="478.955078125" xlink:href="#BitstreamVeraSans-Roman-2d"/>
      <use x="515.0390625" xlink:href="#BitstreamVeraSans-Roman-20"/>
      <use x="546.826171875" xlink:href="#BitstreamVeraSans-Roman-31"/>
      <use x="610.44921875" xlink:href="#BitstreamVeraSans-Roman-2e"/>
      <use x="642.236328125" xlink:href="#BitstreamVeraSans-Roman-33"/>
      <use x="705.859375" xlink:href="#BitstreamVeraSans-Roman-34"/>
      <use x="769.482421875" xlink:href="#BitstreamVeraSans-Roman-20"/>
      <use x="801.26953125" xlink:href="#BitstreamVeraSans-Roman-25"/>
     </g>
    </g>
    <g id="patch_34">
     <path d="M 504.724875 418.121375 
L 538.324875 418.121375 
L 538.324875 406.361375 
L 504.724875 406.361375 
z
" style="fill:#20b2aa;stroke:#ffffff;stroke-linejoin:miter;"/>
    </g>
    <g id="text_17">
     <!-- Autres - 41.61 % -->
     <defs>
      <path d="M 34.1875 63.1875 
L 20.796875 26.90625 
L 47.609375 26.90625 
z
M 28.609375 72.90625 
L 39.796875 72.90625 
L 67.578125 0 
L 57.328125 0 
L 50.6875 18.703125 
L 17.828125 18.703125 
L 11.1875 0 
L 0.78125 0 
z
" id="BitstreamVeraSans-Roman-41"/>
     </defs>
     <g transform="translate(551.764875 418.121375)scale(0.168 -0.168)">
      <use xlink:href="#BitstreamVeraSans-Roman-41"/>
      <use x="68.408203125" xlink:href="#BitstreamVeraSans-Roman-75"/>
      <use x="131.787109375" xlink:href="#BitstreamVeraSans-Roman-74"/>
      <use x="170.99609375" xlink:href="#BitstreamVeraSans-Roman-72"/>
      <use x="212.078125" xlink:href="#BitstreamVeraSans-Roman-65"/>
      <use x="273.6015625" xlink:href="#BitstreamVeraSans-Roman-73"/>
      <use x="325.701171875" xlink:href="#BitstreamVeraSans-Roman-20"/>
      <use x="357.48828125" xlink:href="#BitstreamVeraSans-Roman-2d"/>
      <use x="393.572265625" xlink:href="#BitstreamVeraSans-Roman-20"/>
      <use x="425.359375" xlink:href="#BitstreamVeraSans-Roman-34"/>
      <use x="488.982421875" xlink:href="#BitstreamVeraSans-Roman-31"/>
      <use x="552.60546875" xlink:href="#BitstreamVeraSans-Roman-2e"/>
      <use x="584.392578125" xlink:href="#BitstreamVeraSans-Roman-36"/>
      <use x="648.015625" xlink:href="#BitstreamVeraSans-Roman-31"/>
      <use x="711.638671875" xlink:href="#BitstreamVeraSans-Roman-20"/>
      <use x="743.42578125" xlink:href="#BitstreamVeraSans-Roman-25"/>
     </g>
    </g>
   </g>
  </g>
 </g>
</svg>
