<?xml version="1.0" encoding="utf-8" standalone="no"?>
<!DOCTYPE svg PUBLIC "-//W3C//DTD SVG 1.1//EN"
  "http://www.w3.org/Graphics/SVG/1.1/DTD/svg11.dtd">
<!-- Created with matplotlib (http://matplotlib.org/) -->
<svg height="426pt" version="1.1" viewBox="0 0 721 426" width="721pt" xmlns="http://www.w3.org/2000/svg" xmlns:xlink="http://www.w3.org/1999/xlink">
 <defs>
  <style type="text/css">
*{stroke-linecap:butt;stroke-linejoin:round;stroke-miterlimit:100000;}
  </style>
 </defs>
 <g id="figure_1">
  <g id="patch_1">
   <path d="M 0 426.45425 
L 721.6555 426.45425 
L 721.6555 0 
L 0 0 
z
" style="fill:#ffffff;"/>
  </g>
  <g id="axes_1">
   <g id="patch_2">
    <path d="M 236.2225 369.31775 
L 682.6225 369.31775 
L 682.6225 23.71775 
L 236.2225 23.71775 
z
" style="fill:#ffffff;"/>
   </g>
   <g id="patch_3">
    <path clip-path="url(#pcbadf866af)" d="M 236.2225 362.671596 
L 299.993929 362.671596 
L 299.993929 349.379288 
L 236.2225 349.379288 
z
" style="fill:#6f3883;stroke:#000000;stroke-linejoin:miter;"/>
   </g>
   <g id="patch_4">
    <path clip-path="url(#pcbadf866af)" d="M 236.2225 336.086981 
L 633.0225 336.086981 
L 633.0225 322.794673 
L 236.2225 322.794673 
z
" style="fill:#6f3883;stroke:#000000;stroke-linejoin:miter;"/>
   </g>
   <g id="patch_5">
    <path clip-path="url(#pcbadf866af)" d="M 236.2225 309.502365 
L 459.4225 309.502365 
L 459.4225 296.210058 
L 236.2225 296.210058 
z
" style="fill:#6f3883;stroke:#000000;stroke-linejoin:miter;"/>
   </g>
   <g id="patch_6">
    <path clip-path="url(#pcbadf866af)" d="M 236.2225 282.91775 
L 487.3225 282.91775 
L 487.3225 269.625442 
L 236.2225 269.625442 
z
" style="fill:#6f3883;stroke:#000000;stroke-linejoin:miter;"/>
   </g>
   <g id="patch_7">
    <path clip-path="url(#pcbadf866af)" d="M 236.2225 256.333135 
L 470.051071 256.333135 
L 470.051071 243.040827 
L 236.2225 243.040827 
z
" style="fill:#6f3883;stroke:#000000;stroke-linejoin:miter;"/>
   </g>
   <g id="patch_8">
    <path clip-path="url(#pcbadf866af)" d="M 236.2225 229.748519 
L 468.3505 229.748519 
L 468.3505 216.456212 
L 236.2225 216.456212 
z
" style="fill:#6f3883;stroke:#000000;stroke-linejoin:miter;"/>
   </g>
   <g id="patch_9">
    <path clip-path="url(#pcbadf866af)" d="M 236.2225 203.163904 
L 504.0625 203.163904 
L 504.0625 189.871596 
L 236.2225 189.871596 
z
" style="fill:#6f3883;stroke:#000000;stroke-linejoin:miter;"/>
   </g>
   <g id="patch_10">
    <path clip-path="url(#pcbadf866af)" d="M 236.2225 176.579288 
L 452.2225 176.579288 
L 452.2225 163.286981 
L 236.2225 163.286981 
z
" style="fill:#6f3883;stroke:#000000;stroke-linejoin:miter;"/>
   </g>
   <g id="patch_11">
    <path clip-path="url(#pcbadf866af)" d="M 236.2225 149.994673 
L 447.675132 149.994673 
L 447.675132 136.702365 
L 236.2225 136.702365 
z
" style="fill:#6f3883;stroke:#000000;stroke-linejoin:miter;"/>
   </g>
   <g id="patch_12">
    <path clip-path="url(#pcbadf866af)" d="M 236.2225 123.410058 
L 454.108214 123.410058 
L 454.108214 110.11775 
L 236.2225 110.11775 
z
" style="fill:#6f3883;stroke:#000000;stroke-linejoin:miter;"/>
   </g>
   <g id="patch_13">
    <path clip-path="url(#pcbadf866af)" d="M 236.2225 96.825442 
L 435.789559 96.825442 
L 435.789559 83.533135 
L 236.2225 83.533135 
z
" style="fill:#6f3883;stroke:#000000;stroke-linejoin:miter;"/>
   </g>
   <g id="patch_14">
    <path clip-path="url(#pcbadf866af)" d="M 236.2225 70.240827 
L 299.491791 70.240827 
L 299.491791 56.948519 
L 236.2225 56.948519 
z
" style="fill:#6f3883;stroke:#000000;stroke-linejoin:miter;"/>
   </g>
   <g id="patch_15">
    <path clip-path="url(#pcbadf866af)" d="M 236.2225 43.656212 
L 435.204318 43.656212 
L 435.204318 30.363904 
L 236.2225 30.363904 
z
" style="fill:#6f3883;stroke:#000000;stroke-linejoin:miter;"/>
   </g>
   <g id="patch_16">
    <path clip-path="url(#pcbadf866af)" d="M 299.993929 362.671596 
L 682.6225 362.671596 
L 682.6225 349.379288 
L 299.993929 349.379288 
z
" style="fill:#87ad3e;stroke:#000000;stroke-linejoin:miter;"/>
   </g>
   <g id="patch_17">
    <path clip-path="url(#pcbadf866af)" d="M 633.0225 336.086981 
L 682.6225 336.086981 
L 682.6225 322.794673 
L 633.0225 322.794673 
z
" style="fill:#87ad3e;stroke:#000000;stroke-linejoin:miter;"/>
   </g>
   <g id="patch_18">
    <path clip-path="url(#pcbadf866af)" d="M 459.4225 309.502365 
L 682.6225 309.502365 
L 682.6225 296.210058 
L 459.4225 296.210058 
z
" style="fill:#87ad3e;stroke:#000000;stroke-linejoin:miter;"/>
   </g>
   <g id="patch_19">
    <path clip-path="url(#pcbadf866af)" d="M 487.3225 282.91775 
L 682.6225 282.91775 
L 682.6225 269.625442 
L 487.3225 269.625442 
z
" style="fill:#87ad3e;stroke:#000000;stroke-linejoin:miter;"/>
   </g>
   <g id="patch_20">
    <path clip-path="url(#pcbadf866af)" d="M 470.051071 256.333135 
L 682.6225 256.333135 
L 682.6225 243.040827 
L 470.051071 243.040827 
z
" style="fill:#87ad3e;stroke:#000000;stroke-linejoin:miter;"/>
   </g>
   <g id="patch_21">
    <path clip-path="url(#pcbadf866af)" d="M 468.3505 229.748519 
L 682.6225 229.748519 
L 682.6225 216.456212 
L 468.3505 216.456212 
z
" style="fill:#87ad3e;stroke:#000000;stroke-linejoin:miter;"/>
   </g>
   <g id="patch_22">
    <path clip-path="url(#pcbadf866af)" d="M 504.0625 203.163904 
L 682.6225 203.163904 
L 682.6225 189.871596 
L 504.0625 189.871596 
z
" style="fill:#87ad3e;stroke:#000000;stroke-linejoin:miter;"/>
   </g>
   <g id="patch_23">
    <path clip-path="url(#pcbadf866af)" d="M 452.2225 176.579288 
L 682.6225 176.579288 
L 682.6225 163.286981 
L 452.2225 163.286981 
z
" style="fill:#87ad3e;stroke:#000000;stroke-linejoin:miter;"/>
   </g>
   <g id="patch_24">
    <path clip-path="url(#pcbadf866af)" d="M 447.675132 149.994673 
L 682.6225 149.994673 
L 682.6225 136.702365 
L 447.675132 136.702365 
z
" style="fill:#87ad3e;stroke:#000000;stroke-linejoin:miter;"/>
   </g>
   <g id="patch_25">
    <path clip-path="url(#pcbadf866af)" d="M 454.108214 123.410058 
L 682.6225 123.410058 
L 682.6225 110.11775 
L 454.108214 110.11775 
z
" style="fill:#87ad3e;stroke:#000000;stroke-linejoin:miter;"/>
   </g>
   <g id="patch_26">
    <path clip-path="url(#pcbadf866af)" d="M 435.789559 96.825442 
L 682.6225 96.825442 
L 682.6225 83.533135 
L 435.789559 83.533135 
z
" style="fill:#87ad3e;stroke:#000000;stroke-linejoin:miter;"/>
   </g>
   <g id="patch_27">
    <path clip-path="url(#pcbadf866af)" d="M 299.491791 70.240827 
L 682.6225 70.240827 
L 682.6225 56.948519 
L 299.491791 56.948519 
z
" style="fill:#87ad3e;stroke:#000000;stroke-linejoin:miter;"/>
   </g>
   <g id="patch_28">
    <path clip-path="url(#pcbadf866af)" d="M 435.204318 43.656212 
L 682.6225 43.656212 
L 682.6225 30.363904 
L 435.204318 30.363904 
z
" style="fill:#87ad3e;stroke:#000000;stroke-linejoin:miter;"/>
   </g>
   <g id="patch_29">
    <path d="M 236.2225 23.71775 
L 682.6225 23.71775 
" style="fill:none;stroke:#000000;stroke-linecap:square;stroke-linejoin:miter;"/>
   </g>
   <g id="patch_30">
    <path d="M 682.6225 369.31775 
L 682.6225 23.71775 
" style="fill:none;stroke:#000000;stroke-linecap:square;stroke-linejoin:miter;"/>
   </g>
   <g id="patch_31">
    <path d="M 236.2225 369.31775 
L 682.6225 369.31775 
" style="fill:none;stroke:#000000;stroke-linecap:square;stroke-linejoin:miter;"/>
   </g>
   <g id="patch_32">
    <path d="M 236.2225 369.31775 
L 236.2225 23.71775 
" style="fill:none;stroke:#000000;stroke-linecap:square;stroke-linejoin:miter;"/>
   </g>
   <g id="matplotlib.axis_1">
    <g id="xtick_1">
     <g id="line2d_1">
      <defs>
       <path d="M 0 0 
L 0 -4 
" id="me1a3a3981e" style="stroke:#000000;stroke-width:0.5;"/>
      </defs>
      <g>
       <use style="stroke:#000000;stroke-width:0.5;" x="236.2225" xlink:href="#me1a3a3981e" y="369.31775"/>
      </g>
     </g>
     <g id="line2d_2">
      <defs>
       <path d="M 0 0 
L 0 4 
" id="m5efd7da963" style="stroke:#000000;stroke-width:0.5;"/>
      </defs>
      <g>
       <use style="stroke:#000000;stroke-width:0.5;" x="236.2225" xlink:href="#m5efd7da963" y="23.71775"/>
      </g>
     </g>
     <g id="text_1">
      <!-- 0.0 -->
      <defs>
       <path d="M 31.78125 66.40625 
Q 24.171875 66.40625 20.328125 58.90625 
Q 16.5 51.421875 16.5 36.375 
Q 16.5 21.390625 20.328125 13.890625 
Q 24.171875 6.390625 31.78125 6.390625 
Q 39.453125 6.390625 43.28125 13.890625 
Q 47.125 21.390625 47.125 36.375 
Q 47.125 51.421875 43.28125 58.90625 
Q 39.453125 66.40625 31.78125 66.40625 
M 31.78125 74.21875 
Q 44.046875 74.21875 50.515625 64.515625 
Q 56.984375 54.828125 56.984375 36.375 
Q 56.984375 17.96875 50.515625 8.265625 
Q 44.046875 -1.421875 31.78125 -1.421875 
Q 19.53125 -1.421875 13.0625 8.265625 
Q 6.59375 17.96875 6.59375 36.375 
Q 6.59375 54.828125 13.0625 64.515625 
Q 19.53125 74.21875 31.78125 74.21875 
" id="BitstreamVeraSans-Roman-30"/>
       <path d="M 10.6875 12.40625 
L 21 12.40625 
L 21 0 
L 10.6875 0 
z
" id="BitstreamVeraSans-Roman-2e"/>
      </defs>
      <g transform="translate(226.680625 382.435875)scale(0.12 -0.12)">
       <use xlink:href="#BitstreamVeraSans-Roman-30"/>
       <use x="63.623046875" xlink:href="#BitstreamVeraSans-Roman-2e"/>
       <use x="95.41015625" xlink:href="#BitstreamVeraSans-Roman-30"/>
      </g>
     </g>
    </g>
    <g id="xtick_2">
     <g id="line2d_3">
      <g>
       <use style="stroke:#000000;stroke-width:0.5;" x="325.5025" xlink:href="#me1a3a3981e" y="369.31775"/>
      </g>
     </g>
     <g id="line2d_4">
      <g>
       <use style="stroke:#000000;stroke-width:0.5;" x="325.5025" xlink:href="#m5efd7da963" y="23.71775"/>
      </g>
     </g>
     <g id="text_2">
      <!-- 0.2 -->
      <defs>
       <path d="M 19.1875 8.296875 
L 53.609375 8.296875 
L 53.609375 0 
L 7.328125 0 
L 7.328125 8.296875 
Q 12.9375 14.109375 22.625 23.890625 
Q 32.328125 33.6875 34.8125 36.53125 
Q 39.546875 41.84375 41.421875 45.53125 
Q 43.3125 49.21875 43.3125 52.78125 
Q 43.3125 58.59375 39.234375 62.25 
Q 35.15625 65.921875 28.609375 65.921875 
Q 23.96875 65.921875 18.8125 64.3125 
Q 13.671875 62.703125 7.8125 59.421875 
L 7.8125 69.390625 
Q 13.765625 71.78125 18.9375 73 
Q 24.125 74.21875 28.421875 74.21875 
Q 39.75 74.21875 46.484375 68.546875 
Q 53.21875 62.890625 53.21875 53.421875 
Q 53.21875 48.921875 51.53125 44.890625 
Q 49.859375 40.875 45.40625 35.40625 
Q 44.1875 33.984375 37.640625 27.21875 
Q 31.109375 20.453125 19.1875 8.296875 
" id="BitstreamVeraSans-Roman-32"/>
      </defs>
      <g transform="translate(315.960625 382.435875)scale(0.12 -0.12)">
       <use xlink:href="#BitstreamVeraSans-Roman-30"/>
       <use x="63.623046875" xlink:href="#BitstreamVeraSans-Roman-2e"/>
       <use x="95.41015625" xlink:href="#BitstreamVeraSans-Roman-32"/>
      </g>
     </g>
    </g>
    <g id="xtick_3">
     <g id="line2d_5">
      <g>
       <use style="stroke:#000000;stroke-width:0.5;" x="414.7825" xlink:href="#me1a3a3981e" y="369.31775"/>
      </g>
     </g>
     <g id="line2d_6">
      <g>
       <use style="stroke:#000000;stroke-width:0.5;" x="414.7825" xlink:href="#m5efd7da963" y="23.71775"/>
      </g>
     </g>
     <g id="text_3">
      <!-- 0.4 -->
      <defs>
       <path d="M 37.796875 64.3125 
L 12.890625 25.390625 
L 37.796875 25.390625 
z
M 35.203125 72.90625 
L 47.609375 72.90625 
L 47.609375 25.390625 
L 58.015625 25.390625 
L 58.015625 17.1875 
L 47.609375 17.1875 
L 47.609375 0 
L 37.796875 0 
L 37.796875 17.1875 
L 4.890625 17.1875 
L 4.890625 26.703125 
z
" id="BitstreamVeraSans-Roman-34"/>
      </defs>
      <g transform="translate(405.240625 382.435875)scale(0.12 -0.12)">
       <use xlink:href="#BitstreamVeraSans-Roman-30"/>
       <use x="63.623046875" xlink:href="#BitstreamVeraSans-Roman-2e"/>
       <use x="95.41015625" xlink:href="#BitstreamVeraSans-Roman-34"/>
      </g>
     </g>
    </g>
    <g id="xtick_4">
     <g id="line2d_7">
      <g>
       <use style="stroke:#000000;stroke-width:0.5;" x="504.0625" xlink:href="#me1a3a3981e" y="369.31775"/>
      </g>
     </g>
     <g id="line2d_8">
      <g>
       <use style="stroke:#000000;stroke-width:0.5;" x="504.0625" xlink:href="#m5efd7da963" y="23.71775"/>
      </g>
     </g>
     <g id="text_4">
      <!-- 0.6 -->
      <defs>
       <path d="M 33.015625 40.375 
Q 26.375 40.375 22.484375 35.828125 
Q 18.609375 31.296875 18.609375 23.390625 
Q 18.609375 15.53125 22.484375 10.953125 
Q 26.375 6.390625 33.015625 6.390625 
Q 39.65625 6.390625 43.53125 10.953125 
Q 47.40625 15.53125 47.40625 23.390625 
Q 47.40625 31.296875 43.53125 35.828125 
Q 39.65625 40.375 33.015625 40.375 
M 52.59375 71.296875 
L 52.59375 62.3125 
Q 48.875 64.0625 45.09375 64.984375 
Q 41.3125 65.921875 37.59375 65.921875 
Q 27.828125 65.921875 22.671875 59.328125 
Q 17.53125 52.734375 16.796875 39.40625 
Q 19.671875 43.65625 24.015625 45.921875 
Q 28.375 48.1875 33.59375 48.1875 
Q 44.578125 48.1875 50.953125 41.515625 
Q 57.328125 34.859375 57.328125 23.390625 
Q 57.328125 12.15625 50.6875 5.359375 
Q 44.046875 -1.421875 33.015625 -1.421875 
Q 20.359375 -1.421875 13.671875 8.265625 
Q 6.984375 17.96875 6.984375 36.375 
Q 6.984375 53.65625 15.1875 63.9375 
Q 23.390625 74.21875 37.203125 74.21875 
Q 40.921875 74.21875 44.703125 73.484375 
Q 48.484375 72.75 52.59375 71.296875 
" id="BitstreamVeraSans-Roman-36"/>
      </defs>
      <g transform="translate(494.520625 382.435875)scale(0.12 -0.12)">
       <use xlink:href="#BitstreamVeraSans-Roman-30"/>
       <use x="63.623046875" xlink:href="#BitstreamVeraSans-Roman-2e"/>
       <use x="95.41015625" xlink:href="#BitstreamVeraSans-Roman-36"/>
      </g>
     </g>
    </g>
    <g id="xtick_5">
     <g id="line2d_9">
      <g>
       <use style="stroke:#000000;stroke-width:0.5;" x="593.3425" xlink:href="#me1a3a3981e" y="369.31775"/>
      </g>
     </g>
     <g id="line2d_10">
      <g>
       <use style="stroke:#000000;stroke-width:0.5;" x="593.3425" xlink:href="#m5efd7da963" y="23.71775"/>
      </g>
     </g>
     <g id="text_5">
      <!-- 0.8 -->
      <defs>
       <path d="M 31.78125 34.625 
Q 24.75 34.625 20.71875 30.859375 
Q 16.703125 27.09375 16.703125 20.515625 
Q 16.703125 13.921875 20.71875 10.15625 
Q 24.75 6.390625 31.78125 6.390625 
Q 38.8125 6.390625 42.859375 10.171875 
Q 46.921875 13.96875 46.921875 20.515625 
Q 46.921875 27.09375 42.890625 30.859375 
Q 38.875 34.625 31.78125 34.625 
M 21.921875 38.8125 
Q 15.578125 40.375 12.03125 44.71875 
Q 8.5 49.078125 8.5 55.328125 
Q 8.5 64.0625 14.71875 69.140625 
Q 20.953125 74.21875 31.78125 74.21875 
Q 42.671875 74.21875 48.875 69.140625 
Q 55.078125 64.0625 55.078125 55.328125 
Q 55.078125 49.078125 51.53125 44.71875 
Q 48 40.375 41.703125 38.8125 
Q 48.828125 37.15625 52.796875 32.3125 
Q 56.78125 27.484375 56.78125 20.515625 
Q 56.78125 9.90625 50.3125 4.234375 
Q 43.84375 -1.421875 31.78125 -1.421875 
Q 19.734375 -1.421875 13.25 4.234375 
Q 6.78125 9.90625 6.78125 20.515625 
Q 6.78125 27.484375 10.78125 32.3125 
Q 14.796875 37.15625 21.921875 38.8125 
M 18.3125 54.390625 
Q 18.3125 48.734375 21.84375 45.5625 
Q 25.390625 42.390625 31.78125 42.390625 
Q 38.140625 42.390625 41.71875 45.5625 
Q 45.3125 48.734375 45.3125 54.390625 
Q 45.3125 60.0625 41.71875 63.234375 
Q 38.140625 66.40625 31.78125 66.40625 
Q 25.390625 66.40625 21.84375 63.234375 
Q 18.3125 60.0625 18.3125 54.390625 
" id="BitstreamVeraSans-Roman-38"/>
      </defs>
      <g transform="translate(583.800625 382.435875)scale(0.12 -0.12)">
       <use xlink:href="#BitstreamVeraSans-Roman-30"/>
       <use x="63.623046875" xlink:href="#BitstreamVeraSans-Roman-2e"/>
       <use x="95.41015625" xlink:href="#BitstreamVeraSans-Roman-38"/>
      </g>
     </g>
    </g>
    <g id="xtick_6">
     <g id="line2d_11">
      <g>
       <use style="stroke:#000000;stroke-width:0.5;" x="682.6225" xlink:href="#me1a3a3981e" y="369.31775"/>
      </g>
     </g>
     <g id="line2d_12">
      <g>
       <use style="stroke:#000000;stroke-width:0.5;" x="682.6225" xlink:href="#m5efd7da963" y="23.71775"/>
      </g>
     </g>
     <g id="text_6">
      <!-- 1.0 -->
      <defs>
       <path d="M 12.40625 8.296875 
L 28.515625 8.296875 
L 28.515625 63.921875 
L 10.984375 60.40625 
L 10.984375 69.390625 
L 28.421875 72.90625 
L 38.28125 72.90625 
L 38.28125 8.296875 
L 54.390625 8.296875 
L 54.390625 0 
L 12.40625 0 
z
" id="BitstreamVeraSans-Roman-31"/>
      </defs>
      <g transform="translate(673.080625 382.435875)scale(0.12 -0.12)">
       <use xlink:href="#BitstreamVeraSans-Roman-31"/>
       <use x="63.623046875" xlink:href="#BitstreamVeraSans-Roman-2e"/>
       <use x="95.41015625" xlink:href="#BitstreamVeraSans-Roman-30"/>
      </g>
     </g>
    </g>
   </g>
   <g id="matplotlib.axis_2">
    <g id="ytick_1">
     <g id="text_7">
      <!-- Centre -->
      <defs>
       <path d="M 56.203125 29.59375 
L 56.203125 25.203125 
L 14.890625 25.203125 
Q 15.484375 15.921875 20.484375 11.0625 
Q 25.484375 6.203125 34.421875 6.203125 
Q 39.59375 6.203125 44.453125 7.46875 
Q 49.3125 8.734375 54.109375 11.28125 
L 54.109375 2.78125 
Q 49.265625 0.734375 44.1875 -0.34375 
Q 39.109375 -1.421875 33.890625 -1.421875 
Q 20.796875 -1.421875 13.15625 6.1875 
Q 5.515625 13.8125 5.515625 26.8125 
Q 5.515625 40.234375 12.765625 48.109375 
Q 20.015625 56 32.328125 56 
Q 43.359375 56 49.78125 48.890625 
Q 56.203125 41.796875 56.203125 29.59375 
M 47.21875 32.234375 
Q 47.125 39.59375 43.09375 43.984375 
Q 39.0625 48.390625 32.421875 48.390625 
Q 24.90625 48.390625 20.390625 44.140625 
Q 15.875 39.890625 15.1875 32.171875 
z
" id="BitstreamVeraSans-Roman-65"/>
       <path d="M 54.890625 33.015625 
L 54.890625 0 
L 45.90625 0 
L 45.90625 32.71875 
Q 45.90625 40.484375 42.875 44.328125 
Q 39.84375 48.1875 33.796875 48.1875 
Q 26.515625 48.1875 22.3125 43.546875 
Q 18.109375 38.921875 18.109375 30.90625 
L 18.109375 0 
L 9.078125 0 
L 9.078125 54.6875 
L 18.109375 54.6875 
L 18.109375 46.1875 
Q 21.34375 51.125 25.703125 53.5625 
Q 30.078125 56 35.796875 56 
Q 45.21875 56 50.046875 50.171875 
Q 54.890625 44.34375 54.890625 33.015625 
" id="BitstreamVeraSans-Roman-6e"/>
       <path d="M 18.3125 70.21875 
L 18.3125 54.6875 
L 36.8125 54.6875 
L 36.8125 47.703125 
L 18.3125 47.703125 
L 18.3125 18.015625 
Q 18.3125 11.328125 20.140625 9.421875 
Q 21.96875 7.515625 27.59375 7.515625 
L 36.8125 7.515625 
L 36.8125 0 
L 27.59375 0 
Q 17.1875 0 13.234375 3.875 
Q 9.28125 7.765625 9.28125 18.015625 
L 9.28125 47.703125 
L 2.6875 47.703125 
L 2.6875 54.6875 
L 9.28125 54.6875 
L 9.28125 70.21875 
z
" id="BitstreamVeraSans-Roman-74"/>
       <path d="M 64.40625 67.28125 
L 64.40625 56.890625 
Q 59.421875 61.53125 53.78125 63.8125 
Q 48.140625 66.109375 41.796875 66.109375 
Q 29.296875 66.109375 22.65625 58.46875 
Q 16.015625 50.828125 16.015625 36.375 
Q 16.015625 21.96875 22.65625 14.328125 
Q 29.296875 6.6875 41.796875 6.6875 
Q 48.140625 6.6875 53.78125 8.984375 
Q 59.421875 11.28125 64.40625 15.921875 
L 64.40625 5.609375 
Q 59.234375 2.09375 53.4375 0.328125 
Q 47.65625 -1.421875 41.21875 -1.421875 
Q 24.65625 -1.421875 15.125 8.703125 
Q 5.609375 18.84375 5.609375 36.375 
Q 5.609375 53.953125 15.125 64.078125 
Q 24.65625 74.21875 41.21875 74.21875 
Q 47.75 74.21875 53.53125 72.484375 
Q 59.328125 70.75 64.40625 67.28125 
" id="BitstreamVeraSans-Roman-43"/>
       <path d="M 41.109375 46.296875 
Q 39.59375 47.171875 37.8125 47.578125 
Q 36.03125 48 33.890625 48 
Q 26.265625 48 22.1875 43.046875 
Q 18.109375 38.09375 18.109375 28.8125 
L 18.109375 0 
L 9.078125 0 
L 9.078125 54.6875 
L 18.109375 54.6875 
L 18.109375 46.1875 
Q 20.953125 51.171875 25.484375 53.578125 
Q 30.03125 56 36.53125 56 
Q 37.453125 56 38.578125 55.875 
Q 39.703125 55.765625 41.0625 55.515625 
z
" id="BitstreamVeraSans-Roman-72"/>
      </defs>
      <g transform="translate(191.836875 359.336692308)scale(0.12 -0.12)">
       <use xlink:href="#BitstreamVeraSans-Roman-43"/>
       <use x="69.82421875" xlink:href="#BitstreamVeraSans-Roman-65"/>
       <use x="131.34765625" xlink:href="#BitstreamVeraSans-Roman-6e"/>
       <use x="194.7265625" xlink:href="#BitstreamVeraSans-Roman-74"/>
       <use x="233.935546875" xlink:href="#BitstreamVeraSans-Roman-72"/>
       <use x="275.017578125" xlink:href="#BitstreamVeraSans-Roman-65"/>
      </g>
     </g>
    </g>
    <g id="ytick_2">
     <g id="text_8">
      <!-- Bourgogne-Franche-Comté -->
      <defs>
       <path d="M 54.890625 33.015625 
L 54.890625 0 
L 45.90625 0 
L 45.90625 32.71875 
Q 45.90625 40.484375 42.875 44.328125 
Q 39.84375 48.1875 33.796875 48.1875 
Q 26.515625 48.1875 22.3125 43.546875 
Q 18.109375 38.921875 18.109375 30.90625 
L 18.109375 0 
L 9.078125 0 
L 9.078125 75.984375 
L 18.109375 75.984375 
L 18.109375 46.1875 
Q 21.34375 51.125 25.703125 53.5625 
Q 30.078125 56 35.796875 56 
Q 45.21875 56 50.046875 50.171875 
Q 54.890625 44.34375 54.890625 33.015625 
" id="BitstreamVeraSans-Roman-68"/>
       <path d="M 52 44.1875 
Q 55.375 50.25 60.0625 53.125 
Q 64.75 56 71.09375 56 
Q 79.640625 56 84.28125 50.015625 
Q 88.921875 44.046875 88.921875 33.015625 
L 88.921875 0 
L 79.890625 0 
L 79.890625 32.71875 
Q 79.890625 40.578125 77.09375 44.375 
Q 74.3125 48.1875 68.609375 48.1875 
Q 61.625 48.1875 57.5625 43.546875 
Q 53.515625 38.921875 53.515625 30.90625 
L 53.515625 0 
L 44.484375 0 
L 44.484375 32.71875 
Q 44.484375 40.625 41.703125 44.40625 
Q 38.921875 48.1875 33.109375 48.1875 
Q 26.21875 48.1875 22.15625 43.53125 
Q 18.109375 38.875 18.109375 30.90625 
L 18.109375 0 
L 9.078125 0 
L 9.078125 54.6875 
L 18.109375 54.6875 
L 18.109375 46.1875 
Q 21.1875 51.21875 25.484375 53.609375 
Q 29.78125 56 35.6875 56 
Q 41.65625 56 45.828125 52.96875 
Q 50 49.953125 52 44.1875 
" id="BitstreamVeraSans-Roman-6d"/>
       <path d="M 30.609375 48.390625 
Q 23.390625 48.390625 19.1875 42.75 
Q 14.984375 37.109375 14.984375 27.296875 
Q 14.984375 17.484375 19.15625 11.84375 
Q 23.34375 6.203125 30.609375 6.203125 
Q 37.796875 6.203125 41.984375 11.859375 
Q 46.1875 17.53125 46.1875 27.296875 
Q 46.1875 37.015625 41.984375 42.703125 
Q 37.796875 48.390625 30.609375 48.390625 
M 30.609375 56 
Q 42.328125 56 49.015625 48.375 
Q 55.71875 40.765625 55.71875 27.296875 
Q 55.71875 13.875 49.015625 6.21875 
Q 42.328125 -1.421875 30.609375 -1.421875 
Q 18.84375 -1.421875 12.171875 6.21875 
Q 5.515625 13.875 5.515625 27.296875 
Q 5.515625 40.765625 12.171875 48.375 
Q 18.84375 56 30.609375 56 
" id="BitstreamVeraSans-Roman-6f"/>
       <path d="M 9.8125 72.90625 
L 51.703125 72.90625 
L 51.703125 64.59375 
L 19.671875 64.59375 
L 19.671875 43.109375 
L 48.578125 43.109375 
L 48.578125 34.8125 
L 19.671875 34.8125 
L 19.671875 0 
L 9.8125 0 
z
" id="BitstreamVeraSans-Roman-46"/>
       <path d="M 19.671875 34.8125 
L 19.671875 8.109375 
L 35.5 8.109375 
Q 43.453125 8.109375 47.28125 11.40625 
Q 51.125 14.703125 51.125 21.484375 
Q 51.125 28.328125 47.28125 31.5625 
Q 43.453125 34.8125 35.5 34.8125 
z
M 19.671875 64.796875 
L 19.671875 42.828125 
L 34.28125 42.828125 
Q 41.5 42.828125 45.03125 45.53125 
Q 48.578125 48.25 48.578125 53.8125 
Q 48.578125 59.328125 45.03125 62.0625 
Q 41.5 64.796875 34.28125 64.796875 
z
M 9.8125 72.90625 
L 35.015625 72.90625 
Q 46.296875 72.90625 52.390625 68.21875 
Q 58.5 63.53125 58.5 54.890625 
Q 58.5 48.1875 55.375 44.234375 
Q 52.25 40.28125 46.1875 39.3125 
Q 53.46875 37.75 57.5 32.78125 
Q 61.53125 27.828125 61.53125 20.40625 
Q 61.53125 10.640625 54.890625 5.3125 
Q 48.25 0 35.984375 0 
L 9.8125 0 
z
" id="BitstreamVeraSans-Roman-42"/>
       <path d="M 56.203125 29.59375 
L 56.203125 25.203125 
L 14.890625 25.203125 
Q 15.484375 15.921875 20.484375 11.0625 
Q 25.484375 6.203125 34.421875 6.203125 
Q 39.59375 6.203125 44.453125 7.46875 
Q 49.3125 8.734375 54.109375 11.28125 
L 54.109375 2.78125 
Q 49.265625 0.734375 44.1875 -0.34375 
Q 39.109375 -1.421875 33.890625 -1.421875 
Q 20.796875 -1.421875 13.15625 6.1875 
Q 5.515625 13.8125 5.515625 26.8125 
Q 5.515625 40.234375 12.765625 48.109375 
Q 20.015625 56 32.328125 56 
Q 43.359375 56 49.78125 48.890625 
Q 56.203125 41.796875 56.203125 29.59375 
M 47.21875 32.234375 
Q 47.125 39.59375 43.09375 43.984375 
Q 39.0625 48.390625 32.421875 48.390625 
Q 24.90625 48.390625 20.390625 44.140625 
Q 15.875 39.890625 15.1875 32.171875 
z
M 38.53125 79.984375 
L 48.25 79.984375 
L 32.34375 61.625 
L 24.859375 61.625 
z
" id="BitstreamVeraSans-Roman-e9"/>
       <path d="M 45.40625 27.984375 
Q 45.40625 37.75 41.375 43.109375 
Q 37.359375 48.484375 30.078125 48.484375 
Q 22.859375 48.484375 18.828125 43.109375 
Q 14.796875 37.75 14.796875 27.984375 
Q 14.796875 18.265625 18.828125 12.890625 
Q 22.859375 7.515625 30.078125 7.515625 
Q 37.359375 7.515625 41.375 12.890625 
Q 45.40625 18.265625 45.40625 27.984375 
M 54.390625 6.78125 
Q 54.390625 -7.171875 48.1875 -13.984375 
Q 42 -20.796875 29.203125 -20.796875 
Q 24.46875 -20.796875 20.265625 -20.09375 
Q 16.0625 -19.390625 12.109375 -17.921875 
L 12.109375 -9.1875 
Q 16.0625 -11.328125 19.921875 -12.34375 
Q 23.78125 -13.375 27.78125 -13.375 
Q 36.625 -13.375 41.015625 -8.765625 
Q 45.40625 -4.15625 45.40625 5.171875 
L 45.40625 9.625 
Q 42.625 4.78125 38.28125 2.390625 
Q 33.9375 0 27.875 0 
Q 17.828125 0 11.671875 7.65625 
Q 5.515625 15.328125 5.515625 27.984375 
Q 5.515625 40.671875 11.671875 48.328125 
Q 17.828125 56 27.875 56 
Q 33.9375 56 38.28125 53.609375 
Q 42.625 51.21875 45.40625 46.390625 
L 45.40625 54.6875 
L 54.390625 54.6875 
z
" id="BitstreamVeraSans-Roman-67"/>
       <path d="M 8.5 21.578125 
L 8.5 54.6875 
L 17.484375 54.6875 
L 17.484375 21.921875 
Q 17.484375 14.15625 20.5 10.265625 
Q 23.53125 6.390625 29.59375 6.390625 
Q 36.859375 6.390625 41.078125 11.03125 
Q 45.3125 15.671875 45.3125 23.6875 
L 45.3125 54.6875 
L 54.296875 54.6875 
L 54.296875 0 
L 45.3125 0 
L 45.3125 8.40625 
Q 42.046875 3.421875 37.71875 1 
Q 33.40625 -1.421875 27.6875 -1.421875 
Q 18.265625 -1.421875 13.375 4.4375 
Q 8.5 10.296875 8.5 21.578125 
" id="BitstreamVeraSans-Roman-75"/>
       <path d="M 34.28125 27.484375 
Q 23.390625 27.484375 19.1875 25 
Q 14.984375 22.515625 14.984375 16.5 
Q 14.984375 11.71875 18.140625 8.90625 
Q 21.296875 6.109375 26.703125 6.109375 
Q 34.1875 6.109375 38.703125 11.40625 
Q 43.21875 16.703125 43.21875 25.484375 
L 43.21875 27.484375 
z
M 52.203125 31.203125 
L 52.203125 0 
L 43.21875 0 
L 43.21875 8.296875 
Q 40.140625 3.328125 35.546875 0.953125 
Q 30.953125 -1.421875 24.3125 -1.421875 
Q 15.921875 -1.421875 10.953125 3.296875 
Q 6 8.015625 6 15.921875 
Q 6 25.140625 12.171875 29.828125 
Q 18.359375 34.515625 30.609375 34.515625 
L 43.21875 34.515625 
L 43.21875 35.40625 
Q 43.21875 41.609375 39.140625 45 
Q 35.0625 48.390625 27.6875 48.390625 
Q 23 48.390625 18.546875 47.265625 
Q 14.109375 46.140625 10.015625 43.890625 
L 10.015625 52.203125 
Q 14.9375 54.109375 19.578125 55.046875 
Q 24.21875 56 28.609375 56 
Q 40.484375 56 46.34375 49.84375 
Q 52.203125 43.703125 52.203125 31.203125 
" id="BitstreamVeraSans-Roman-61"/>
       <path d="M 48.78125 52.59375 
L 48.78125 44.1875 
Q 44.96875 46.296875 41.140625 47.34375 
Q 37.3125 48.390625 33.40625 48.390625 
Q 24.65625 48.390625 19.8125 42.84375 
Q 14.984375 37.3125 14.984375 27.296875 
Q 14.984375 17.28125 19.8125 11.734375 
Q 24.65625 6.203125 33.40625 6.203125 
Q 37.3125 6.203125 41.140625 7.25 
Q 44.96875 8.296875 48.78125 10.40625 
L 48.78125 2.09375 
Q 45.015625 0.34375 40.984375 -0.53125 
Q 36.96875 -1.421875 32.421875 -1.421875 
Q 20.0625 -1.421875 12.78125 6.34375 
Q 5.515625 14.109375 5.515625 27.296875 
Q 5.515625 40.671875 12.859375 48.328125 
Q 20.21875 56 33.015625 56 
Q 37.15625 56 41.109375 55.140625 
Q 45.0625 54.296875 48.78125 52.59375 
" id="BitstreamVeraSans-Roman-63"/>
       <path d="M 4.890625 31.390625 
L 31.203125 31.390625 
L 31.203125 23.390625 
L 4.890625 23.390625 
z
" id="BitstreamVeraSans-Roman-2d"/>
      </defs>
      <g transform="translate(70.018125 332.992076923)scale(0.12 -0.12)">
       <use xlink:href="#BitstreamVeraSans-Roman-42"/>
       <use x="68.603515625" xlink:href="#BitstreamVeraSans-Roman-6f"/>
       <use x="129.78515625" xlink:href="#BitstreamVeraSans-Roman-75"/>
       <use x="193.1640625" xlink:href="#BitstreamVeraSans-Roman-72"/>
       <use x="234.26171875" xlink:href="#BitstreamVeraSans-Roman-67"/>
       <use x="297.73828125" xlink:href="#BitstreamVeraSans-Roman-6f"/>
       <use x="358.919921875" xlink:href="#BitstreamVeraSans-Roman-67"/>
       <use x="422.396484375" xlink:href="#BitstreamVeraSans-Roman-6e"/>
       <use x="485.775390625" xlink:href="#BitstreamVeraSans-Roman-65"/>
       <use x="547.298828125" xlink:href="#BitstreamVeraSans-Roman-2d"/>
       <use x="583.3828125" xlink:href="#BitstreamVeraSans-Roman-46"/>
       <use x="640.79296875" xlink:href="#BitstreamVeraSans-Roman-72"/>
       <use x="681.90625" xlink:href="#BitstreamVeraSans-Roman-61"/>
       <use x="743.185546875" xlink:href="#BitstreamVeraSans-Roman-6e"/>
       <use x="806.564453125" xlink:href="#BitstreamVeraSans-Roman-63"/>
       <use x="861.544921875" xlink:href="#BitstreamVeraSans-Roman-68"/>
       <use x="924.923828125" xlink:href="#BitstreamVeraSans-Roman-65"/>
       <use x="986.447265625" xlink:href="#BitstreamVeraSans-Roman-2d"/>
       <use x="1022.53125" xlink:href="#BitstreamVeraSans-Roman-43"/>
       <use x="1092.35546875" xlink:href="#BitstreamVeraSans-Roman-6f"/>
       <use x="1153.53710938" xlink:href="#BitstreamVeraSans-Roman-6d"/>
       <use x="1250.94921875" xlink:href="#BitstreamVeraSans-Roman-74"/>
       <use x="1290.15820312" xlink:href="#BitstreamVeraSans-Roman-e9"/>
      </g>
     </g>
    </g>
    <g id="ytick_3">
     <g id="text_9">
      <!-- Normandie -->
      <defs>
       <path d="M 45.40625 46.390625 
L 45.40625 75.984375 
L 54.390625 75.984375 
L 54.390625 0 
L 45.40625 0 
L 45.40625 8.203125 
Q 42.578125 3.328125 38.25 0.953125 
Q 33.9375 -1.421875 27.875 -1.421875 
Q 17.96875 -1.421875 11.734375 6.484375 
Q 5.515625 14.40625 5.515625 27.296875 
Q 5.515625 40.1875 11.734375 48.09375 
Q 17.96875 56 27.875 56 
Q 33.9375 56 38.25 53.625 
Q 42.578125 51.265625 45.40625 46.390625 
M 14.796875 27.296875 
Q 14.796875 17.390625 18.875 11.75 
Q 22.953125 6.109375 30.078125 6.109375 
Q 37.203125 6.109375 41.296875 11.75 
Q 45.40625 17.390625 45.40625 27.296875 
Q 45.40625 37.203125 41.296875 42.84375 
Q 37.203125 48.484375 30.078125 48.484375 
Q 22.953125 48.484375 18.875 42.84375 
Q 14.796875 37.203125 14.796875 27.296875 
" id="BitstreamVeraSans-Roman-64"/>
       <path d="M 9.8125 72.90625 
L 23.09375 72.90625 
L 55.421875 11.921875 
L 55.421875 72.90625 
L 64.984375 72.90625 
L 64.984375 0 
L 51.703125 0 
L 19.390625 60.984375 
L 19.390625 0 
L 9.8125 0 
z
" id="BitstreamVeraSans-Roman-4e"/>
       <path d="M 9.421875 54.6875 
L 18.40625 54.6875 
L 18.40625 0 
L 9.421875 0 
z
M 9.421875 75.984375 
L 18.40625 75.984375 
L 18.40625 64.59375 
L 9.421875 64.59375 
z
" id="BitstreamVeraSans-Roman-69"/>
      </defs>
      <g transform="translate(165.988125 306.167461538)scale(0.12 -0.12)">
       <use xlink:href="#BitstreamVeraSans-Roman-4e"/>
       <use x="74.8046875" xlink:href="#BitstreamVeraSans-Roman-6f"/>
       <use x="135.986328125" xlink:href="#BitstreamVeraSans-Roman-72"/>
       <use x="177.083984375" xlink:href="#BitstreamVeraSans-Roman-6d"/>
       <use x="274.49609375" xlink:href="#BitstreamVeraSans-Roman-61"/>
       <use x="335.775390625" xlink:href="#BitstreamVeraSans-Roman-6e"/>
       <use x="399.154296875" xlink:href="#BitstreamVeraSans-Roman-64"/>
       <use x="462.630859375" xlink:href="#BitstreamVeraSans-Roman-69"/>
       <use x="490.4140625" xlink:href="#BitstreamVeraSans-Roman-65"/>
      </g>
     </g>
    </g>
    <g id="ytick_4">
     <g id="text_10">
      <!-- Nord-Pas-de-Calais-Picardie -->
      <defs>
       <path d="M 19.671875 64.796875 
L 19.671875 37.40625 
L 32.078125 37.40625 
Q 38.96875 37.40625 42.71875 40.96875 
Q 46.484375 44.53125 46.484375 51.125 
Q 46.484375 57.671875 42.71875 61.234375 
Q 38.96875 64.796875 32.078125 64.796875 
z
M 9.8125 72.90625 
L 32.078125 72.90625 
Q 44.34375 72.90625 50.609375 67.359375 
Q 56.890625 61.8125 56.890625 51.125 
Q 56.890625 40.328125 50.609375 34.8125 
Q 44.34375 29.296875 32.078125 29.296875 
L 19.671875 29.296875 
L 19.671875 0 
L 9.8125 0 
z
" id="BitstreamVeraSans-Roman-50"/>
       <path d="M 44.28125 53.078125 
L 44.28125 44.578125 
Q 40.484375 46.53125 36.375 47.5 
Q 32.28125 48.484375 27.875 48.484375 
Q 21.1875 48.484375 17.84375 46.4375 
Q 14.5 44.390625 14.5 40.28125 
Q 14.5 37.15625 16.890625 35.375 
Q 19.28125 33.59375 26.515625 31.984375 
L 29.59375 31.296875 
Q 39.15625 29.25 43.1875 25.515625 
Q 47.21875 21.78125 47.21875 15.09375 
Q 47.21875 7.46875 41.1875 3.015625 
Q 35.15625 -1.421875 24.609375 -1.421875 
Q 20.21875 -1.421875 15.453125 -0.5625 
Q 10.6875 0.296875 5.421875 2 
L 5.421875 11.28125 
Q 10.40625 8.6875 15.234375 7.390625 
Q 20.0625 6.109375 24.8125 6.109375 
Q 31.15625 6.109375 34.5625 8.28125 
Q 37.984375 10.453125 37.984375 14.40625 
Q 37.984375 18.0625 35.515625 20.015625 
Q 33.0625 21.96875 24.703125 23.78125 
L 21.578125 24.515625 
Q 13.234375 26.265625 9.515625 29.90625 
Q 5.8125 33.546875 5.8125 39.890625 
Q 5.8125 47.609375 11.28125 51.796875 
Q 16.75 56 26.8125 56 
Q 31.78125 56 36.171875 55.265625 
Q 40.578125 54.546875 44.28125 53.078125 
" id="BitstreamVeraSans-Roman-73"/>
       <path d="M 9.421875 75.984375 
L 18.40625 75.984375 
L 18.40625 0 
L 9.421875 0 
z
" id="BitstreamVeraSans-Roman-6c"/>
      </defs>
      <g transform="translate(66.410625 279.582846154)scale(0.12 -0.12)">
       <use xlink:href="#BitstreamVeraSans-Roman-4e"/>
       <use x="74.8046875" xlink:href="#BitstreamVeraSans-Roman-6f"/>
       <use x="135.986328125" xlink:href="#BitstreamVeraSans-Roman-72"/>
       <use x="177.083984375" xlink:href="#BitstreamVeraSans-Roman-64"/>
       <use x="240.560546875" xlink:href="#BitstreamVeraSans-Roman-2d"/>
       <use x="276.64453125" xlink:href="#BitstreamVeraSans-Roman-50"/>
       <use x="336.884765625" xlink:href="#BitstreamVeraSans-Roman-61"/>
       <use x="398.1640625" xlink:href="#BitstreamVeraSans-Roman-73"/>
       <use x="450.263671875" xlink:href="#BitstreamVeraSans-Roman-2d"/>
       <use x="486.34765625" xlink:href="#BitstreamVeraSans-Roman-64"/>
       <use x="549.82421875" xlink:href="#BitstreamVeraSans-Roman-65"/>
       <use x="611.34765625" xlink:href="#BitstreamVeraSans-Roman-2d"/>
       <use x="647.431640625" xlink:href="#BitstreamVeraSans-Roman-43"/>
       <use x="717.255859375" xlink:href="#BitstreamVeraSans-Roman-61"/>
       <use x="778.53515625" xlink:href="#BitstreamVeraSans-Roman-6c"/>
       <use x="806.318359375" xlink:href="#BitstreamVeraSans-Roman-61"/>
       <use x="867.59765625" xlink:href="#BitstreamVeraSans-Roman-69"/>
       <use x="895.380859375" xlink:href="#BitstreamVeraSans-Roman-73"/>
       <use x="947.48046875" xlink:href="#BitstreamVeraSans-Roman-2d"/>
       <use x="983.564453125" xlink:href="#BitstreamVeraSans-Roman-50"/>
       <use x="1043.8359375" xlink:href="#BitstreamVeraSans-Roman-69"/>
       <use x="1071.61914062" xlink:href="#BitstreamVeraSans-Roman-63"/>
       <use x="1126.59960938" xlink:href="#BitstreamVeraSans-Roman-61"/>
       <use x="1187.87890625" xlink:href="#BitstreamVeraSans-Roman-72"/>
       <use x="1228.9765625" xlink:href="#BitstreamVeraSans-Roman-64"/>
       <use x="1292.453125" xlink:href="#BitstreamVeraSans-Roman-69"/>
       <use x="1320.23632812" xlink:href="#BitstreamVeraSans-Roman-65"/>
      </g>
     </g>
    </g>
    <g id="ytick_5">
     <g id="text_11">
      <!-- Pays de la Loire -->
      <defs>
       <path id="BitstreamVeraSans-Roman-20"/>
       <path d="M 9.8125 72.90625 
L 19.671875 72.90625 
L 19.671875 8.296875 
L 55.171875 8.296875 
L 55.171875 0 
L 9.8125 0 
z
" id="BitstreamVeraSans-Roman-4c"/>
       <path d="M 32.171875 -5.078125 
Q 28.375 -14.84375 24.75 -17.8125 
Q 21.140625 -20.796875 15.09375 -20.796875 
L 7.90625 -20.796875 
L 7.90625 -13.28125 
L 13.1875 -13.28125 
Q 16.890625 -13.28125 18.9375 -11.515625 
Q 21 -9.765625 23.484375 -3.21875 
L 25.09375 0.875 
L 2.984375 54.6875 
L 12.5 54.6875 
L 29.59375 11.921875 
L 46.6875 54.6875 
L 56.203125 54.6875 
z
" id="BitstreamVeraSans-Roman-79"/>
      </defs>
      <g transform="translate(137.4825 252.998230769)scale(0.12 -0.12)">
       <use xlink:href="#BitstreamVeraSans-Roman-50"/>
       <use x="60.240234375" xlink:href="#BitstreamVeraSans-Roman-61"/>
       <use x="121.51953125" xlink:href="#BitstreamVeraSans-Roman-79"/>
       <use x="180.69921875" xlink:href="#BitstreamVeraSans-Roman-73"/>
       <use x="232.798828125" xlink:href="#BitstreamVeraSans-Roman-20"/>
       <use x="264.5859375" xlink:href="#BitstreamVeraSans-Roman-64"/>
       <use x="328.0625" xlink:href="#BitstreamVeraSans-Roman-65"/>
       <use x="389.5859375" xlink:href="#BitstreamVeraSans-Roman-20"/>
       <use x="421.373046875" xlink:href="#BitstreamVeraSans-Roman-6c"/>
       <use x="449.15625" xlink:href="#BitstreamVeraSans-Roman-61"/>
       <use x="510.435546875" xlink:href="#BitstreamVeraSans-Roman-20"/>
       <use x="542.22265625" xlink:href="#BitstreamVeraSans-Roman-4c"/>
       <use x="597.919921875" xlink:href="#BitstreamVeraSans-Roman-6f"/>
       <use x="659.1015625" xlink:href="#BitstreamVeraSans-Roman-69"/>
       <use x="686.884765625" xlink:href="#BitstreamVeraSans-Roman-72"/>
       <use x="727.966796875" xlink:href="#BitstreamVeraSans-Roman-65"/>
      </g>
     </g>
    </g>
    <g id="ytick_6">
     <g id="text_12">
      <!-- Aquitaine-Limousin-Poitou-Charentes -->
      <defs>
       <path d="M 34.1875 63.1875 
L 20.796875 26.90625 
L 47.609375 26.90625 
z
M 28.609375 72.90625 
L 39.796875 72.90625 
L 67.578125 0 
L 57.328125 0 
L 50.6875 18.703125 
L 17.828125 18.703125 
L 11.1875 0 
L 0.78125 0 
z
" id="BitstreamVeraSans-Roman-41"/>
       <path d="M 14.796875 27.296875 
Q 14.796875 17.390625 18.875 11.75 
Q 22.953125 6.109375 30.078125 6.109375 
Q 37.203125 6.109375 41.296875 11.75 
Q 45.40625 17.390625 45.40625 27.296875 
Q 45.40625 37.203125 41.296875 42.84375 
Q 37.203125 48.484375 30.078125 48.484375 
Q 22.953125 48.484375 18.875 42.84375 
Q 14.796875 37.203125 14.796875 27.296875 
M 45.40625 8.203125 
Q 42.578125 3.328125 38.25 0.953125 
Q 33.9375 -1.421875 27.875 -1.421875 
Q 17.96875 -1.421875 11.734375 6.484375 
Q 5.515625 14.40625 5.515625 27.296875 
Q 5.515625 40.1875 11.734375 48.09375 
Q 17.96875 56 27.875 56 
Q 33.9375 56 38.25 53.625 
Q 42.578125 51.265625 45.40625 46.390625 
L 45.40625 54.6875 
L 54.390625 54.6875 
L 54.390625 -20.796875 
L 45.40625 -20.796875 
z
" id="BitstreamVeraSans-Roman-71"/>
      </defs>
      <g transform="translate(9.09 226.413615385)scale(0.12 -0.12)">
       <use xlink:href="#BitstreamVeraSans-Roman-41"/>
       <use x="68.392578125" xlink:href="#BitstreamVeraSans-Roman-71"/>
       <use x="131.869140625" xlink:href="#BitstreamVeraSans-Roman-75"/>
       <use x="195.248046875" xlink:href="#BitstreamVeraSans-Roman-69"/>
       <use x="223.03125" xlink:href="#BitstreamVeraSans-Roman-74"/>
       <use x="262.240234375" xlink:href="#BitstreamVeraSans-Roman-61"/>
       <use x="323.51953125" xlink:href="#BitstreamVeraSans-Roman-69"/>
       <use x="351.302734375" xlink:href="#BitstreamVeraSans-Roman-6e"/>
       <use x="414.681640625" xlink:href="#BitstreamVeraSans-Roman-65"/>
       <use x="476.205078125" xlink:href="#BitstreamVeraSans-Roman-2d"/>
       <use x="512.2890625" xlink:href="#BitstreamVeraSans-Roman-4c"/>
       <use x="568.001953125" xlink:href="#BitstreamVeraSans-Roman-69"/>
       <use x="595.78515625" xlink:href="#BitstreamVeraSans-Roman-6d"/>
       <use x="693.197265625" xlink:href="#BitstreamVeraSans-Roman-6f"/>
       <use x="754.37890625" xlink:href="#BitstreamVeraSans-Roman-75"/>
       <use x="817.7578125" xlink:href="#BitstreamVeraSans-Roman-73"/>
       <use x="869.857421875" xlink:href="#BitstreamVeraSans-Roman-69"/>
       <use x="897.640625" xlink:href="#BitstreamVeraSans-Roman-6e"/>
       <use x="961.01953125" xlink:href="#BitstreamVeraSans-Roman-2d"/>
       <use x="997.103515625" xlink:href="#BitstreamVeraSans-Roman-50"/>
       <use x="1057.359375" xlink:href="#BitstreamVeraSans-Roman-6f"/>
       <use x="1118.54101562" xlink:href="#BitstreamVeraSans-Roman-69"/>
       <use x="1146.32421875" xlink:href="#BitstreamVeraSans-Roman-74"/>
       <use x="1185.53320312" xlink:href="#BitstreamVeraSans-Roman-6f"/>
       <use x="1246.71484375" xlink:href="#BitstreamVeraSans-Roman-75"/>
       <use x="1310.09375" xlink:href="#BitstreamVeraSans-Roman-2d"/>
       <use x="1346.17773438" xlink:href="#BitstreamVeraSans-Roman-43"/>
       <use x="1416.00195312" xlink:href="#BitstreamVeraSans-Roman-68"/>
       <use x="1479.38085938" xlink:href="#BitstreamVeraSans-Roman-61"/>
       <use x="1540.66015625" xlink:href="#BitstreamVeraSans-Roman-72"/>
       <use x="1581.7421875" xlink:href="#BitstreamVeraSans-Roman-65"/>
       <use x="1643.265625" xlink:href="#BitstreamVeraSans-Roman-6e"/>
       <use x="1706.64453125" xlink:href="#BitstreamVeraSans-Roman-74"/>
       <use x="1745.85351562" xlink:href="#BitstreamVeraSans-Roman-65"/>
       <use x="1807.37695312" xlink:href="#BitstreamVeraSans-Roman-73"/>
      </g>
     </g>
    </g>
    <g id="ytick_7">
     <g id="text_13">
      <!-- Alsace-Champagne-Ardenne-Lorraine -->
      <defs>
       <path d="M 18.109375 8.203125 
L 18.109375 -20.796875 
L 9.078125 -20.796875 
L 9.078125 54.6875 
L 18.109375 54.6875 
L 18.109375 46.390625 
Q 20.953125 51.265625 25.265625 53.625 
Q 29.59375 56 35.59375 56 
Q 45.5625 56 51.78125 48.09375 
Q 58.015625 40.1875 58.015625 27.296875 
Q 58.015625 14.40625 51.78125 6.484375 
Q 45.5625 -1.421875 35.59375 -1.421875 
Q 29.59375 -1.421875 25.265625 0.953125 
Q 20.953125 3.328125 18.109375 8.203125 
M 48.6875 27.296875 
Q 48.6875 37.203125 44.609375 42.84375 
Q 40.53125 48.484375 33.40625 48.484375 
Q 26.265625 48.484375 22.1875 42.84375 
Q 18.109375 37.203125 18.109375 27.296875 
Q 18.109375 17.390625 22.1875 11.75 
Q 26.265625 6.109375 33.40625 6.109375 
Q 40.53125 6.109375 44.609375 11.75 
Q 48.6875 17.390625 48.6875 27.296875 
" id="BitstreamVeraSans-Roman-70"/>
      </defs>
      <g transform="translate(7.2 199.829)scale(0.12 -0.12)">
       <use xlink:href="#BitstreamVeraSans-Roman-41"/>
       <use x="68.408203125" xlink:href="#BitstreamVeraSans-Roman-6c"/>
       <use x="96.19140625" xlink:href="#BitstreamVeraSans-Roman-73"/>
       <use x="148.291015625" xlink:href="#BitstreamVeraSans-Roman-61"/>
       <use x="209.5703125" xlink:href="#BitstreamVeraSans-Roman-63"/>
       <use x="264.55078125" xlink:href="#BitstreamVeraSans-Roman-65"/>
       <use x="326.07421875" xlink:href="#BitstreamVeraSans-Roman-2d"/>
       <use x="362.158203125" xlink:href="#BitstreamVeraSans-Roman-43"/>
       <use x="431.982421875" xlink:href="#BitstreamVeraSans-Roman-68"/>
       <use x="495.361328125" xlink:href="#BitstreamVeraSans-Roman-61"/>
       <use x="556.640625" xlink:href="#BitstreamVeraSans-Roman-6d"/>
       <use x="654.052734375" xlink:href="#BitstreamVeraSans-Roman-70"/>
       <use x="717.529296875" xlink:href="#BitstreamVeraSans-Roman-61"/>
       <use x="778.80859375" xlink:href="#BitstreamVeraSans-Roman-67"/>
       <use x="842.28515625" xlink:href="#BitstreamVeraSans-Roman-6e"/>
       <use x="905.6640625" xlink:href="#BitstreamVeraSans-Roman-65"/>
       <use x="967.1875" xlink:href="#BitstreamVeraSans-Roman-2d"/>
       <use x="1003.24023438" xlink:href="#BitstreamVeraSans-Roman-41"/>
       <use x="1071.6484375" xlink:href="#BitstreamVeraSans-Roman-72"/>
       <use x="1112.74609375" xlink:href="#BitstreamVeraSans-Roman-64"/>
       <use x="1176.22265625" xlink:href="#BitstreamVeraSans-Roman-65"/>
       <use x="1237.74609375" xlink:href="#BitstreamVeraSans-Roman-6e"/>
       <use x="1301.125" xlink:href="#BitstreamVeraSans-Roman-6e"/>
       <use x="1364.50390625" xlink:href="#BitstreamVeraSans-Roman-65"/>
       <use x="1426.02734375" xlink:href="#BitstreamVeraSans-Roman-2d"/>
       <use x="1462.11132812" xlink:href="#BitstreamVeraSans-Roman-4c"/>
       <use x="1517.80859375" xlink:href="#BitstreamVeraSans-Roman-6f"/>
       <use x="1578.99023438" xlink:href="#BitstreamVeraSans-Roman-72"/>
       <use x="1620.08789062" xlink:href="#BitstreamVeraSans-Roman-72"/>
       <use x="1661.20117188" xlink:href="#BitstreamVeraSans-Roman-61"/>
       <use x="1722.48046875" xlink:href="#BitstreamVeraSans-Roman-69"/>
       <use x="1750.26367188" xlink:href="#BitstreamVeraSans-Roman-6e"/>
       <use x="1813.64257812" xlink:href="#BitstreamVeraSans-Roman-65"/>
      </g>
     </g>
    </g>
    <g id="ytick_8">
     <g id="text_14">
      <!-- Provence-Alpes-Côte d'Azur -->
      <defs>
       <path d="M 2.984375 54.6875 
L 12.5 54.6875 
L 29.59375 8.796875 
L 46.6875 54.6875 
L 56.203125 54.6875 
L 35.6875 0 
L 23.484375 0 
z
" id="BitstreamVeraSans-Roman-76"/>
       <path d="M 30.609375 48.390625 
Q 23.390625 48.390625 19.1875 42.75 
Q 14.984375 37.109375 14.984375 27.296875 
Q 14.984375 17.484375 19.15625 11.84375 
Q 23.34375 6.203125 30.609375 6.203125 
Q 37.796875 6.203125 41.984375 11.859375 
Q 46.1875 17.53125 46.1875 27.296875 
Q 46.1875 37.015625 41.984375 42.703125 
Q 37.796875 48.390625 30.609375 48.390625 
M 30.609375 56 
Q 42.328125 56 49.015625 48.375 
Q 55.71875 40.765625 55.71875 27.296875 
Q 55.71875 13.875 49.015625 6.21875 
Q 42.328125 -1.421875 30.609375 -1.421875 
Q 18.84375 -1.421875 12.171875 6.21875 
Q 5.515625 13.875 5.515625 27.296875 
Q 5.515625 40.765625 12.171875 48.375 
Q 18.84375 56 30.609375 56 
M 27.015625 79.984375 
L 34.234375 79.984375 
L 46.203125 61.625 
L 39.421875 61.625 
L 30.625 73.578125 
L 21.84375 61.625 
L 15.046875 61.625 
z
" id="BitstreamVeraSans-Roman-f4"/>
       <path d="M 17.921875 72.90625 
L 17.921875 45.796875 
L 9.625 45.796875 
L 9.625 72.90625 
z
" id="BitstreamVeraSans-Roman-27"/>
       <path d="M 5.515625 54.6875 
L 48.1875 54.6875 
L 48.1875 46.484375 
L 14.40625 7.171875 
L 48.1875 7.171875 
L 48.1875 0 
L 4.296875 0 
L 4.296875 8.203125 
L 38.09375 47.515625 
L 5.515625 47.515625 
z
" id="BitstreamVeraSans-Roman-7a"/>
      </defs>
      <g transform="translate(65.608125 173.484384615)scale(0.12 -0.12)">
       <use xlink:href="#BitstreamVeraSans-Roman-50"/>
       <use x="60.287109375" xlink:href="#BitstreamVeraSans-Roman-72"/>
       <use x="101.369140625" xlink:href="#BitstreamVeraSans-Roman-6f"/>
       <use x="162.55078125" xlink:href="#BitstreamVeraSans-Roman-76"/>
       <use x="221.73046875" xlink:href="#BitstreamVeraSans-Roman-65"/>
       <use x="283.25390625" xlink:href="#BitstreamVeraSans-Roman-6e"/>
       <use x="346.6328125" xlink:href="#BitstreamVeraSans-Roman-63"/>
       <use x="401.61328125" xlink:href="#BitstreamVeraSans-Roman-65"/>
       <use x="463.13671875" xlink:href="#BitstreamVeraSans-Roman-2d"/>
       <use x="499.189453125" xlink:href="#BitstreamVeraSans-Roman-41"/>
       <use x="567.59765625" xlink:href="#BitstreamVeraSans-Roman-6c"/>
       <use x="595.380859375" xlink:href="#BitstreamVeraSans-Roman-70"/>
       <use x="658.857421875" xlink:href="#BitstreamVeraSans-Roman-65"/>
       <use x="720.380859375" xlink:href="#BitstreamVeraSans-Roman-73"/>
       <use x="772.48046875" xlink:href="#BitstreamVeraSans-Roman-2d"/>
       <use x="808.564453125" xlink:href="#BitstreamVeraSans-Roman-43"/>
       <use x="878.388671875" xlink:href="#BitstreamVeraSans-Roman-f4"/>
       <use x="939.5703125" xlink:href="#BitstreamVeraSans-Roman-74"/>
       <use x="978.779296875" xlink:href="#BitstreamVeraSans-Roman-65"/>
       <use x="1040.30273438" xlink:href="#BitstreamVeraSans-Roman-20"/>
       <use x="1072.08984375" xlink:href="#BitstreamVeraSans-Roman-64"/>
       <use x="1135.56640625" xlink:href="#BitstreamVeraSans-Roman-27"/>
       <use x="1163.05664062" xlink:href="#BitstreamVeraSans-Roman-41"/>
       <use x="1231.46484375" xlink:href="#BitstreamVeraSans-Roman-7a"/>
       <use x="1283.95507812" xlink:href="#BitstreamVeraSans-Roman-75"/>
       <use x="1347.33398438" xlink:href="#BitstreamVeraSans-Roman-72"/>
      </g>
     </g>
    </g>
    <g id="ytick_9">
     <g id="text_15">
      <!-- Bretagne -->
      <g transform="translate(177.01125 146.659769231)scale(0.12 -0.12)">
       <use xlink:href="#BitstreamVeraSans-Roman-42"/>
       <use x="68.603515625" xlink:href="#BitstreamVeraSans-Roman-72"/>
       <use x="109.685546875" xlink:href="#BitstreamVeraSans-Roman-65"/>
       <use x="171.208984375" xlink:href="#BitstreamVeraSans-Roman-74"/>
       <use x="210.41796875" xlink:href="#BitstreamVeraSans-Roman-61"/>
       <use x="271.697265625" xlink:href="#BitstreamVeraSans-Roman-67"/>
       <use x="335.173828125" xlink:href="#BitstreamVeraSans-Roman-6e"/>
       <use x="398.552734375" xlink:href="#BitstreamVeraSans-Roman-65"/>
      </g>
     </g>
    </g>
    <g id="ytick_10">
     <g id="text_16">
      <!-- Languedoc-Roussillon-Midi-Pyrénées -->
      <defs>
       <path d="M 44.390625 34.1875 
Q 47.5625 33.109375 50.5625 29.59375 
Q 53.5625 26.078125 56.59375 19.921875 
L 66.609375 0 
L 56 0 
L 46.6875 18.703125 
Q 43.0625 26.03125 39.671875 28.421875 
Q 36.28125 30.8125 30.421875 30.8125 
L 19.671875 30.8125 
L 19.671875 0 
L 9.8125 0 
L 9.8125 72.90625 
L 32.078125 72.90625 
Q 44.578125 72.90625 50.734375 67.671875 
Q 56.890625 62.453125 56.890625 51.90625 
Q 56.890625 45.015625 53.6875 40.46875 
Q 50.484375 35.9375 44.390625 34.1875 
M 19.671875 64.796875 
L 19.671875 38.921875 
L 32.078125 38.921875 
Q 39.203125 38.921875 42.84375 42.21875 
Q 46.484375 45.515625 46.484375 51.90625 
Q 46.484375 58.296875 42.84375 61.546875 
Q 39.203125 64.796875 32.078125 64.796875 
z
" id="BitstreamVeraSans-Roman-52"/>
       <path d="M 9.8125 72.90625 
L 24.515625 72.90625 
L 43.109375 23.296875 
L 61.8125 72.90625 
L 76.515625 72.90625 
L 76.515625 0 
L 66.890625 0 
L 66.890625 64.015625 
L 48.09375 14.015625 
L 38.1875 14.015625 
L 19.390625 64.015625 
L 19.390625 0 
L 9.8125 0 
z
" id="BitstreamVeraSans-Roman-4d"/>
      </defs>
      <g transform="translate(12.78 120.315153846)scale(0.12 -0.12)">
       <use xlink:href="#BitstreamVeraSans-Roman-4c"/>
       <use x="55.712890625" xlink:href="#BitstreamVeraSans-Roman-61"/>
       <use x="116.9921875" xlink:href="#BitstreamVeraSans-Roman-6e"/>
       <use x="180.37109375" xlink:href="#BitstreamVeraSans-Roman-67"/>
       <use x="243.84765625" xlink:href="#BitstreamVeraSans-Roman-75"/>
       <use x="307.2265625" xlink:href="#BitstreamVeraSans-Roman-65"/>
       <use x="368.75" xlink:href="#BitstreamVeraSans-Roman-64"/>
       <use x="432.2265625" xlink:href="#BitstreamVeraSans-Roman-6f"/>
       <use x="493.408203125" xlink:href="#BitstreamVeraSans-Roman-63"/>
       <use x="548.388671875" xlink:href="#BitstreamVeraSans-Roman-2d"/>
       <use x="584.47265625" xlink:href="#BitstreamVeraSans-Roman-52"/>
       <use x="653.892578125" xlink:href="#BitstreamVeraSans-Roman-6f"/>
       <use x="715.07421875" xlink:href="#BitstreamVeraSans-Roman-75"/>
       <use x="778.453125" xlink:href="#BitstreamVeraSans-Roman-73"/>
       <use x="830.552734375" xlink:href="#BitstreamVeraSans-Roman-73"/>
       <use x="882.65234375" xlink:href="#BitstreamVeraSans-Roman-69"/>
       <use x="910.435546875" xlink:href="#BitstreamVeraSans-Roman-6c"/>
       <use x="938.21875" xlink:href="#BitstreamVeraSans-Roman-6c"/>
       <use x="966.001953125" xlink:href="#BitstreamVeraSans-Roman-6f"/>
       <use x="1027.18359375" xlink:href="#BitstreamVeraSans-Roman-6e"/>
       <use x="1090.5625" xlink:href="#BitstreamVeraSans-Roman-2d"/>
       <use x="1126.64648438" xlink:href="#BitstreamVeraSans-Roman-4d"/>
       <use x="1212.92578125" xlink:href="#BitstreamVeraSans-Roman-69"/>
       <use x="1240.70898438" xlink:href="#BitstreamVeraSans-Roman-64"/>
       <use x="1304.18554688" xlink:href="#BitstreamVeraSans-Roman-69"/>
       <use x="1331.96875" xlink:href="#BitstreamVeraSans-Roman-2d"/>
       <use x="1368.05273438" xlink:href="#BitstreamVeraSans-Roman-50"/>
       <use x="1428.35546875" xlink:href="#BitstreamVeraSans-Roman-79"/>
       <use x="1487.53515625" xlink:href="#BitstreamVeraSans-Roman-72"/>
       <use x="1528.6171875" xlink:href="#BitstreamVeraSans-Roman-e9"/>
       <use x="1590.140625" xlink:href="#BitstreamVeraSans-Roman-6e"/>
       <use x="1653.51953125" xlink:href="#BitstreamVeraSans-Roman-e9"/>
       <use x="1715.04296875" xlink:href="#BitstreamVeraSans-Roman-65"/>
       <use x="1776.56640625" xlink:href="#BitstreamVeraSans-Roman-73"/>
      </g>
     </g>
    </g>
    <g id="ytick_11">
     <g id="text_17">
      <!-- Auvergne-Rhône-Alpes -->
      <g transform="translate(94.659375 93.7305384615)scale(0.12 -0.12)">
       <use xlink:href="#BitstreamVeraSans-Roman-41"/>
       <use x="68.408203125" xlink:href="#BitstreamVeraSans-Roman-75"/>
       <use x="131.787109375" xlink:href="#BitstreamVeraSans-Roman-76"/>
       <use x="190.966796875" xlink:href="#BitstreamVeraSans-Roman-65"/>
       <use x="252.490234375" xlink:href="#BitstreamVeraSans-Roman-72"/>
       <use x="293.587890625" xlink:href="#BitstreamVeraSans-Roman-67"/>
       <use x="357.064453125" xlink:href="#BitstreamVeraSans-Roman-6e"/>
       <use x="420.443359375" xlink:href="#BitstreamVeraSans-Roman-65"/>
       <use x="481.966796875" xlink:href="#BitstreamVeraSans-Roman-2d"/>
       <use x="518.05078125" xlink:href="#BitstreamVeraSans-Roman-52"/>
       <use x="587.533203125" xlink:href="#BitstreamVeraSans-Roman-68"/>
       <use x="650.912109375" xlink:href="#BitstreamVeraSans-Roman-f4"/>
       <use x="712.09375" xlink:href="#BitstreamVeraSans-Roman-6e"/>
       <use x="775.47265625" xlink:href="#BitstreamVeraSans-Roman-65"/>
       <use x="836.99609375" xlink:href="#BitstreamVeraSans-Roman-2d"/>
       <use x="873.048828125" xlink:href="#BitstreamVeraSans-Roman-41"/>
       <use x="941.45703125" xlink:href="#BitstreamVeraSans-Roman-6c"/>
       <use x="969.240234375" xlink:href="#BitstreamVeraSans-Roman-70"/>
       <use x="1032.71679688" xlink:href="#BitstreamVeraSans-Roman-65"/>
       <use x="1094.24023438" xlink:href="#BitstreamVeraSans-Roman-73"/>
      </g>
     </g>
    </g>
    <g id="ytick_12">
     <g id="text_18">
      <!-- Étranger -->
      <defs>
       <path d="M 9.8125 72.90625 
L 55.90625 72.90625 
L 55.90625 64.59375 
L 19.671875 64.59375 
L 19.671875 43.015625 
L 54.390625 43.015625 
L 54.390625 34.71875 
L 19.671875 34.71875 
L 19.671875 8.296875 
L 56.78125 8.296875 
L 56.78125 0 
L 9.8125 0 
z
M 35.4375 92.515625 
L 44.46875 92.515625 
L 33.34375 79.625 
L 25.859375 79.625 
z
" id="BitstreamVeraSans-Roman-c9"/>
      </defs>
      <g transform="translate(180.10875 67.8977980769)scale(0.12 -0.12)">
       <use xlink:href="#BitstreamVeraSans-Roman-c9"/>
       <use x="63.18359375" xlink:href="#BitstreamVeraSans-Roman-74"/>
       <use x="102.392578125" xlink:href="#BitstreamVeraSans-Roman-72"/>
       <use x="143.505859375" xlink:href="#BitstreamVeraSans-Roman-61"/>
       <use x="204.78515625" xlink:href="#BitstreamVeraSans-Roman-6e"/>
       <use x="268.1640625" xlink:href="#BitstreamVeraSans-Roman-67"/>
       <use x="331.640625" xlink:href="#BitstreamVeraSans-Roman-65"/>
       <use x="393.1640625" xlink:href="#BitstreamVeraSans-Roman-72"/>
      </g>
     </g>
    </g>
    <g id="ytick_13">
     <g id="text_19">
      <!-- Île-de-France -->
      <defs>
       <path d="M 9.8125 72.90625 
L 19.671875 72.90625 
L 19.671875 0 
L 9.8125 0 
z
M 10.15625 92.609375 
L 19.34375 92.609375 
L 29.640625 79.625 
L 22.859375 79.625 
L 14.75 88.3125 
L 6.640625 79.625 
L -0.140625 79.625 
z
" id="BitstreamVeraSans-Roman-ce"/>
      </defs>
      <g transform="translate(153.541875 40.3213076923)scale(0.12 -0.12)">
       <use xlink:href="#BitstreamVeraSans-Roman-ce"/>
       <use x="29.4921875" xlink:href="#BitstreamVeraSans-Roman-6c"/>
       <use x="57.275390625" xlink:href="#BitstreamVeraSans-Roman-65"/>
       <use x="118.798828125" xlink:href="#BitstreamVeraSans-Roman-2d"/>
       <use x="154.8828125" xlink:href="#BitstreamVeraSans-Roman-64"/>
       <use x="218.359375" xlink:href="#BitstreamVeraSans-Roman-65"/>
       <use x="279.8828125" xlink:href="#BitstreamVeraSans-Roman-2d"/>
       <use x="315.966796875" xlink:href="#BitstreamVeraSans-Roman-46"/>
       <use x="373.376953125" xlink:href="#BitstreamVeraSans-Roman-72"/>
       <use x="414.490234375" xlink:href="#BitstreamVeraSans-Roman-61"/>
       <use x="475.76953125" xlink:href="#BitstreamVeraSans-Roman-6e"/>
       <use x="539.1484375" xlink:href="#BitstreamVeraSans-Roman-63"/>
       <use x="594.12890625" xlink:href="#BitstreamVeraSans-Roman-65"/>
      </g>
     </g>
    </g>
   </g>
   <g id="text_20">
    <!-- 7 -->
    <defs>
     <path d="M 8.203125 72.90625 
L 55.078125 72.90625 
L 55.078125 68.703125 
L 28.609375 0 
L 18.3125 0 
L 43.21875 64.59375 
L 8.203125 64.59375 
z
" id="BitstreamVeraSans-Roman-37"/>
    </defs>
    <g transform="translate(691.5505 360.013134615)scale(0.12 -0.12)">
     <use xlink:href="#BitstreamVeraSans-Roman-37"/>
    </g>
   </g>
   <g id="text_21">
    <!-- 9 -->
    <defs>
     <path d="M 10.984375 1.515625 
L 10.984375 10.5 
Q 14.703125 8.734375 18.5 7.8125 
Q 22.3125 6.890625 25.984375 6.890625 
Q 35.75 6.890625 40.890625 13.453125 
Q 46.046875 20.015625 46.78125 33.40625 
Q 43.953125 29.203125 39.59375 26.953125 
Q 35.25 24.703125 29.984375 24.703125 
Q 19.046875 24.703125 12.671875 31.3125 
Q 6.296875 37.9375 6.296875 49.421875 
Q 6.296875 60.640625 12.9375 67.421875 
Q 19.578125 74.21875 30.609375 74.21875 
Q 43.265625 74.21875 49.921875 64.515625 
Q 56.59375 54.828125 56.59375 36.375 
Q 56.59375 19.140625 48.40625 8.859375 
Q 40.234375 -1.421875 26.421875 -1.421875 
Q 22.703125 -1.421875 18.890625 -0.6875 
Q 15.09375 0.046875 10.984375 1.515625 
M 30.609375 32.421875 
Q 37.25 32.421875 41.125 36.953125 
Q 45.015625 41.5 45.015625 49.421875 
Q 45.015625 57.28125 41.125 61.84375 
Q 37.25 66.40625 30.609375 66.40625 
Q 23.96875 66.40625 20.09375 61.84375 
Q 16.21875 57.28125 16.21875 49.421875 
Q 16.21875 41.5 20.09375 36.953125 
Q 23.96875 32.421875 30.609375 32.421875 
" id="BitstreamVeraSans-Roman-39"/>
    </defs>
    <g transform="translate(691.5505 333.428519231)scale(0.12 -0.12)">
     <use xlink:href="#BitstreamVeraSans-Roman-39"/>
    </g>
   </g>
   <g id="text_22">
    <!-- 12 -->
    <g transform="translate(691.5505 306.843903846)scale(0.12 -0.12)">
     <use xlink:href="#BitstreamVeraSans-Roman-31"/>
     <use x="63.623046875" xlink:href="#BitstreamVeraSans-Roman-32"/>
    </g>
   </g>
   <g id="text_23">
    <!-- 16 -->
    <g transform="translate(691.5505 280.259288462)scale(0.12 -0.12)">
     <use xlink:href="#BitstreamVeraSans-Roman-31"/>
     <use x="63.623046875" xlink:href="#BitstreamVeraSans-Roman-36"/>
    </g>
   </g>
   <g id="text_24">
    <!-- 21 -->
    <g transform="translate(691.5505 253.674673077)scale(0.12 -0.12)">
     <use xlink:href="#BitstreamVeraSans-Roman-32"/>
     <use x="63.623046875" xlink:href="#BitstreamVeraSans-Roman-31"/>
    </g>
   </g>
   <g id="text_25">
    <!-- 25 -->
    <defs>
     <path d="M 10.796875 72.90625 
L 49.515625 72.90625 
L 49.515625 64.59375 
L 19.828125 64.59375 
L 19.828125 46.734375 
Q 21.96875 47.46875 24.109375 47.828125 
Q 26.265625 48.1875 28.421875 48.1875 
Q 40.625 48.1875 47.75 41.5 
Q 54.890625 34.8125 54.890625 23.390625 
Q 54.890625 11.625 47.5625 5.09375 
Q 40.234375 -1.421875 26.90625 -1.421875 
Q 22.3125 -1.421875 17.546875 -0.640625 
Q 12.796875 0.140625 7.71875 1.703125 
L 7.71875 11.625 
Q 12.109375 9.234375 16.796875 8.0625 
Q 21.484375 6.890625 26.703125 6.890625 
Q 35.15625 6.890625 40.078125 11.328125 
Q 45.015625 15.765625 45.015625 23.390625 
Q 45.015625 31 40.078125 35.4375 
Q 35.15625 39.890625 26.703125 39.890625 
Q 22.75 39.890625 18.8125 39.015625 
Q 14.890625 38.140625 10.796875 36.28125 
z
" id="BitstreamVeraSans-Roman-35"/>
    </defs>
    <g transform="translate(691.5505 227.090057692)scale(0.12 -0.12)">
     <use xlink:href="#BitstreamVeraSans-Roman-32"/>
     <use x="63.623046875" xlink:href="#BitstreamVeraSans-Roman-35"/>
    </g>
   </g>
   <g id="text_26">
    <!-- 30 -->
    <defs>
     <path d="M 40.578125 39.3125 
Q 47.65625 37.796875 51.625 33 
Q 55.609375 28.21875 55.609375 21.1875 
Q 55.609375 10.40625 48.1875 4.484375 
Q 40.765625 -1.421875 27.09375 -1.421875 
Q 22.515625 -1.421875 17.65625 -0.515625 
Q 12.796875 0.390625 7.625 2.203125 
L 7.625 11.71875 
Q 11.71875 9.328125 16.59375 8.109375 
Q 21.484375 6.890625 26.8125 6.890625 
Q 36.078125 6.890625 40.9375 10.546875 
Q 45.796875 14.203125 45.796875 21.1875 
Q 45.796875 27.640625 41.28125 31.265625 
Q 36.765625 34.90625 28.71875 34.90625 
L 20.21875 34.90625 
L 20.21875 43.015625 
L 29.109375 43.015625 
Q 36.375 43.015625 40.234375 45.921875 
Q 44.09375 48.828125 44.09375 54.296875 
Q 44.09375 59.90625 40.109375 62.90625 
Q 36.140625 65.921875 28.71875 65.921875 
Q 24.65625 65.921875 20.015625 65.03125 
Q 15.375 64.15625 9.8125 62.3125 
L 9.8125 71.09375 
Q 15.4375 72.65625 20.34375 73.4375 
Q 25.25 74.21875 29.59375 74.21875 
Q 40.828125 74.21875 47.359375 69.109375 
Q 53.90625 64.015625 53.90625 55.328125 
Q 53.90625 49.265625 50.4375 45.09375 
Q 46.96875 40.921875 40.578125 39.3125 
" id="BitstreamVeraSans-Roman-33"/>
    </defs>
    <g transform="translate(691.5505 200.505442308)scale(0.12 -0.12)">
     <use xlink:href="#BitstreamVeraSans-Roman-33"/>
     <use x="63.623046875" xlink:href="#BitstreamVeraSans-Roman-30"/>
    </g>
   </g>
   <g id="text_27">
    <!-- 31 -->
    <g transform="translate(691.5505 173.920826923)scale(0.12 -0.12)">
     <use xlink:href="#BitstreamVeraSans-Roman-33"/>
     <use x="63.623046875" xlink:href="#BitstreamVeraSans-Roman-31"/>
    </g>
   </g>
   <g id="text_28">
    <!-- 38 -->
    <g transform="translate(691.5505 147.336211538)scale(0.12 -0.12)">
     <use xlink:href="#BitstreamVeraSans-Roman-33"/>
     <use x="63.623046875" xlink:href="#BitstreamVeraSans-Roman-38"/>
    </g>
   </g>
   <g id="text_29">
    <!-- 84 -->
    <g transform="translate(691.5505 120.751596154)scale(0.12 -0.12)">
     <use xlink:href="#BitstreamVeraSans-Roman-38"/>
     <use x="63.623046875" xlink:href="#BitstreamVeraSans-Roman-34"/>
    </g>
   </g>
   <g id="text_30">
    <!-- 85 -->
    <g transform="translate(691.5505 94.1669807692)scale(0.12 -0.12)">
     <use xlink:href="#BitstreamVeraSans-Roman-38"/>
     <use x="63.623046875" xlink:href="#BitstreamVeraSans-Roman-35"/>
    </g>
   </g>
   <g id="text_31">
    <!-- 127 -->
    <g transform="translate(691.5505 67.5823653846)scale(0.12 -0.12)">
     <use xlink:href="#BitstreamVeraSans-Roman-31"/>
     <use x="63.623046875" xlink:href="#BitstreamVeraSans-Roman-32"/>
     <use x="127.24609375" xlink:href="#BitstreamVeraSans-Roman-37"/>
    </g>
   </g>
   <g id="text_32">
    <!-- 341 -->
    <g transform="translate(691.5505 40.99775)scale(0.12 -0.12)">
     <use xlink:href="#BitstreamVeraSans-Roman-33"/>
     <use x="63.623046875" xlink:href="#BitstreamVeraSans-Roman-34"/>
     <use x="127.24609375" xlink:href="#BitstreamVeraSans-Roman-31"/>
    </g>
   </g>
   <g id="text_33">
    <!-- Proportion des diplômes requis par région (2012-2016) -->
    <defs>
     <path d="M 8.015625 75.875 
L 15.828125 75.875 
Q 23.140625 64.359375 26.78125 53.3125 
Q 30.421875 42.28125 30.421875 31.390625 
Q 30.421875 20.453125 26.78125 9.375 
Q 23.140625 -1.703125 15.828125 -13.1875 
L 8.015625 -13.1875 
Q 14.5 -2 17.703125 9.0625 
Q 20.90625 20.125 20.90625 31.390625 
Q 20.90625 42.671875 17.703125 53.65625 
Q 14.5 64.65625 8.015625 75.875 
" id="BitstreamVeraSans-Roman-29"/>
     <path d="M 31 75.875 
Q 24.46875 64.65625 21.28125 53.65625 
Q 18.109375 42.671875 18.109375 31.390625 
Q 18.109375 20.125 21.3125 9.0625 
Q 24.515625 -2 31 -13.1875 
L 23.1875 -13.1875 
Q 15.875 -1.703125 12.234375 9.375 
Q 8.59375 20.453125 8.59375 31.390625 
Q 8.59375 42.28125 12.203125 53.3125 
Q 15.828125 64.359375 23.1875 75.875 
z
" id="BitstreamVeraSans-Roman-28"/>
    </defs>
    <g transform="translate(260.761 18.71775)scale(0.144 -0.144)">
     <use xlink:href="#BitstreamVeraSans-Roman-50"/>
     <use x="60.287109375" xlink:href="#BitstreamVeraSans-Roman-72"/>
     <use x="101.369140625" xlink:href="#BitstreamVeraSans-Roman-6f"/>
     <use x="162.55078125" xlink:href="#BitstreamVeraSans-Roman-70"/>
     <use x="226.02734375" xlink:href="#BitstreamVeraSans-Roman-6f"/>
     <use x="287.208984375" xlink:href="#BitstreamVeraSans-Roman-72"/>
     <use x="328.322265625" xlink:href="#BitstreamVeraSans-Roman-74"/>
     <use x="367.53125" xlink:href="#BitstreamVeraSans-Roman-69"/>
     <use x="395.314453125" xlink:href="#BitstreamVeraSans-Roman-6f"/>
     <use x="456.49609375" xlink:href="#BitstreamVeraSans-Roman-6e"/>
     <use x="519.875" xlink:href="#BitstreamVeraSans-Roman-20"/>
     <use x="551.662109375" xlink:href="#BitstreamVeraSans-Roman-64"/>
     <use x="615.138671875" xlink:href="#BitstreamVeraSans-Roman-65"/>
     <use x="676.662109375" xlink:href="#BitstreamVeraSans-Roman-73"/>
     <use x="728.76171875" xlink:href="#BitstreamVeraSans-Roman-20"/>
     <use x="760.548828125" xlink:href="#BitstreamVeraSans-Roman-64"/>
     <use x="824.025390625" xlink:href="#BitstreamVeraSans-Roman-69"/>
     <use x="851.80859375" xlink:href="#BitstreamVeraSans-Roman-70"/>
     <use x="915.28515625" xlink:href="#BitstreamVeraSans-Roman-6c"/>
     <use x="943.068359375" xlink:href="#BitstreamVeraSans-Roman-f4"/>
     <use x="1004.25" xlink:href="#BitstreamVeraSans-Roman-6d"/>
     <use x="1101.66210938" xlink:href="#BitstreamVeraSans-Roman-65"/>
     <use x="1163.18554688" xlink:href="#BitstreamVeraSans-Roman-73"/>
     <use x="1215.28515625" xlink:href="#BitstreamVeraSans-Roman-20"/>
     <use x="1247.07226562" xlink:href="#BitstreamVeraSans-Roman-72"/>
     <use x="1288.15429688" xlink:href="#BitstreamVeraSans-Roman-65"/>
     <use x="1349.67773438" xlink:href="#BitstreamVeraSans-Roman-71"/>
     <use x="1413.15429688" xlink:href="#BitstreamVeraSans-Roman-75"/>
     <use x="1476.53320312" xlink:href="#BitstreamVeraSans-Roman-69"/>
     <use x="1504.31640625" xlink:href="#BitstreamVeraSans-Roman-73"/>
     <use x="1556.41601562" xlink:href="#BitstreamVeraSans-Roman-20"/>
     <use x="1588.203125" xlink:href="#BitstreamVeraSans-Roman-70"/>
     <use x="1651.6796875" xlink:href="#BitstreamVeraSans-Roman-61"/>
     <use x="1712.95898438" xlink:href="#BitstreamVeraSans-Roman-72"/>
     <use x="1754.07226562" xlink:href="#BitstreamVeraSans-Roman-20"/>
     <use x="1785.859375" xlink:href="#BitstreamVeraSans-Roman-72"/>
     <use x="1826.94140625" xlink:href="#BitstreamVeraSans-Roman-e9"/>
     <use x="1888.46484375" xlink:href="#BitstreamVeraSans-Roman-67"/>
     <use x="1951.94140625" xlink:href="#BitstreamVeraSans-Roman-69"/>
     <use x="1979.72460938" xlink:href="#BitstreamVeraSans-Roman-6f"/>
     <use x="2040.90625" xlink:href="#BitstreamVeraSans-Roman-6e"/>
     <use x="2104.28515625" xlink:href="#BitstreamVeraSans-Roman-20"/>
     <use x="2136.07226562" xlink:href="#BitstreamVeraSans-Roman-28"/>
     <use x="2175.0859375" xlink:href="#BitstreamVeraSans-Roman-32"/>
     <use x="2238.70898438" xlink:href="#BitstreamVeraSans-Roman-30"/>
     <use x="2302.33203125" xlink:href="#BitstreamVeraSans-Roman-31"/>
     <use x="2365.95507812" xlink:href="#BitstreamVeraSans-Roman-32"/>
     <use x="2429.578125" xlink:href="#BitstreamVeraSans-Roman-2d"/>
     <use x="2465.66210938" xlink:href="#BitstreamVeraSans-Roman-32"/>
     <use x="2529.28515625" xlink:href="#BitstreamVeraSans-Roman-30"/>
     <use x="2592.90820312" xlink:href="#BitstreamVeraSans-Roman-31"/>
     <use x="2656.53125" xlink:href="#BitstreamVeraSans-Roman-36"/>
     <use x="2720.15429688" xlink:href="#BitstreamVeraSans-Roman-29"/>
    </g>
   </g>
   <g id="legend_1">
    <g id="patch_33">
     <path d="M 364.78975 419.25425 
L 563.8225 419.25425 
L 563.8225 393.79775 
L 364.78975 393.79775 
z
" style="fill:#ffffff;stroke:#000000;stroke-linejoin:miter;"/>
    </g>
    <g id="patch_34">
     <path d="M 370.54975 410.4995 
L 399.34975 410.4995 
L 399.34975 400.4195 
L 370.54975 400.4195 
z
" style="fill:#6f3883;stroke:#000000;stroke-linejoin:miter;"/>
    </g>
    <g id="text_34">
     <!-- Master -->
     <g transform="translate(410.86975 410.4995)scale(0.144 -0.144)">
      <use xlink:href="#BitstreamVeraSans-Roman-4d"/>
      <use x="86.279296875" xlink:href="#BitstreamVeraSans-Roman-61"/>
      <use x="147.55859375" xlink:href="#BitstreamVeraSans-Roman-73"/>
      <use x="199.658203125" xlink:href="#BitstreamVeraSans-Roman-74"/>
      <use x="238.8671875" xlink:href="#BitstreamVeraSans-Roman-65"/>
      <use x="300.390625" xlink:href="#BitstreamVeraSans-Roman-72"/>
     </g>
    </g>
    <g id="patch_35">
     <path d="M 488.84575 410.4995 
L 517.64575 410.4995 
L 517.64575 400.4195 
L 488.84575 400.4195 
z
" style="fill:#87ad3e;stroke:#000000;stroke-linejoin:miter;"/>
    </g>
    <g id="text_35">
     <!-- PhD -->
     <defs>
      <path d="M 19.671875 64.796875 
L 19.671875 8.109375 
L 31.59375 8.109375 
Q 46.6875 8.109375 53.6875 14.9375 
Q 60.6875 21.78125 60.6875 36.53125 
Q 60.6875 51.171875 53.6875 57.984375 
Q 46.6875 64.796875 31.59375 64.796875 
z
M 9.8125 72.90625 
L 30.078125 72.90625 
Q 51.265625 72.90625 61.171875 64.09375 
Q 71.09375 55.28125 71.09375 36.53125 
Q 71.09375 17.671875 61.125 8.828125 
Q 51.171875 0 30.078125 0 
L 9.8125 0 
z
" id="BitstreamVeraSans-Roman-44"/>
     </defs>
     <g transform="translate(529.16575 410.4995)scale(0.144 -0.144)">
      <use xlink:href="#BitstreamVeraSans-Roman-50"/>
      <use x="60.302734375" xlink:href="#BitstreamVeraSans-Roman-68"/>
      <use x="123.681640625" xlink:href="#BitstreamVeraSans-Roman-44"/>
     </g>
    </g>
   </g>
  </g>
 </g>
 <defs>
  <clipPath id="pcbadf866af">
   <rect height="345.6" width="446.4" x="236.2225" y="23.71775"/>
  </clipPath>
 </defs>
</svg>
