<?xml version="1.0" encoding="utf-8" standalone="no"?>
<!DOCTYPE svg PUBLIC "-//W3C//DTD SVG 1.1//EN"
  "http://www.w3.org/Graphics/SVG/1.1/DTD/svg11.dtd">
<!-- Created with matplotlib (http://matplotlib.org/) -->
<svg height="508pt" version="1.1" viewBox="0 0 611 508" width="611pt" xmlns="http://www.w3.org/2000/svg" xmlns:xlink="http://www.w3.org/1999/xlink">
 <defs>
  <style type="text/css">
*{stroke-linecap:butt;stroke-linejoin:round;stroke-miterlimit:100000;}
  </style>
 </defs>
 <g id="figure_1">
  <g id="patch_1">
   <path d="M 0 508.81772 
L 611.76365 508.81772 
L 611.76365 0 
L 0 0 
z
" style="fill:#f0f0f0;"/>
  </g>
  <g id="axes_1">
   <g id="patch_2">
    <path d="M 66.69875 438.30572 
L 567.81875 438.30572 
L 567.81875 79.74572 
L 66.69875 79.74572 
z
" style="fill:#f0f0f0;"/>
   </g>
   <g id="matplotlib.axis_1">
    <g id="xtick_1">
     <g id="line2d_1">
      <path clip-path="url(#p41eada45b7)" d="M 66.69875 438.30572 
L 66.69875 79.74572 
" style="fill:none;stroke:#cbcbcb;"/>
     </g>
     <g id="line2d_2">
      <defs>
       <path d="M 0 0 
L 0 0 
" id="m3336c6d654" style="stroke:#000000;stroke-width:0.5;"/>
      </defs>
      <g>
       <use style="stroke:#000000;stroke-width:0.5;" x="66.69875" xlink:href="#m3336c6d654" y="438.30572"/>
      </g>
     </g>
     <g id="line2d_3">
      <g>
       <use style="stroke:#000000;stroke-width:0.5;" x="66.69875" xlink:href="#m3336c6d654" y="79.74572"/>
      </g>
     </g>
     <g id="text_1">
      <!-- 0.0 -->
      <defs>
       <path d="M 31.78125 66.40625 
Q 24.171875 66.40625 20.328125 58.90625 
Q 16.5 51.421875 16.5 36.375 
Q 16.5 21.390625 20.328125 13.890625 
Q 24.171875 6.390625 31.78125 6.390625 
Q 39.453125 6.390625 43.28125 13.890625 
Q 47.125 21.390625 47.125 36.375 
Q 47.125 51.421875 43.28125 58.90625 
Q 39.453125 66.40625 31.78125 66.40625 
M 31.78125 74.21875 
Q 44.046875 74.21875 50.515625 64.515625 
Q 56.984375 54.828125 56.984375 36.375 
Q 56.984375 17.96875 50.515625 8.265625 
Q 44.046875 -1.421875 31.78125 -1.421875 
Q 19.53125 -1.421875 13.0625 8.265625 
Q 6.59375 17.96875 6.59375 36.375 
Q 6.59375 54.828125 13.0625 64.515625 
Q 19.53125 74.21875 31.78125 74.21875 
" id="BitstreamVeraSans-Roman-30"/>
       <path d="M 10.6875 12.40625 
L 21 12.40625 
L 21 0 
L 10.6875 0 
z
" id="BitstreamVeraSans-Roman-2e"/>
      </defs>
      <g transform="translate(60.3375 448.38447)scale(0.08 -0.08)">
       <use xlink:href="#BitstreamVeraSans-Roman-30"/>
       <use x="63.623046875" xlink:href="#BitstreamVeraSans-Roman-2e"/>
       <use x="95.41015625" xlink:href="#BitstreamVeraSans-Roman-30"/>
      </g>
     </g>
    </g>
    <g id="xtick_2">
     <g id="line2d_4">
      <path clip-path="url(#p41eada45b7)" d="M 166.92275 438.30572 
L 166.92275 79.74572 
" style="fill:none;stroke:#cbcbcb;"/>
     </g>
     <g id="line2d_5">
      <g>
       <use style="stroke:#000000;stroke-width:0.5;" x="166.92275" xlink:href="#m3336c6d654" y="438.30572"/>
      </g>
     </g>
     <g id="line2d_6">
      <g>
       <use style="stroke:#000000;stroke-width:0.5;" x="166.92275" xlink:href="#m3336c6d654" y="79.74572"/>
      </g>
     </g>
     <g id="text_2">
      <!-- 0.2 -->
      <defs>
       <path d="M 19.1875 8.296875 
L 53.609375 8.296875 
L 53.609375 0 
L 7.328125 0 
L 7.328125 8.296875 
Q 12.9375 14.109375 22.625 23.890625 
Q 32.328125 33.6875 34.8125 36.53125 
Q 39.546875 41.84375 41.421875 45.53125 
Q 43.3125 49.21875 43.3125 52.78125 
Q 43.3125 58.59375 39.234375 62.25 
Q 35.15625 65.921875 28.609375 65.921875 
Q 23.96875 65.921875 18.8125 64.3125 
Q 13.671875 62.703125 7.8125 59.421875 
L 7.8125 69.390625 
Q 13.765625 71.78125 18.9375 73 
Q 24.125 74.21875 28.421875 74.21875 
Q 39.75 74.21875 46.484375 68.546875 
Q 53.21875 62.890625 53.21875 53.421875 
Q 53.21875 48.921875 51.53125 44.890625 
Q 49.859375 40.875 45.40625 35.40625 
Q 44.1875 33.984375 37.640625 27.21875 
Q 31.109375 20.453125 19.1875 8.296875 
" id="BitstreamVeraSans-Roman-32"/>
      </defs>
      <g transform="translate(160.5615 448.38447)scale(0.08 -0.08)">
       <use xlink:href="#BitstreamVeraSans-Roman-30"/>
       <use x="63.623046875" xlink:href="#BitstreamVeraSans-Roman-2e"/>
       <use x="95.41015625" xlink:href="#BitstreamVeraSans-Roman-32"/>
      </g>
     </g>
    </g>
    <g id="xtick_3">
     <g id="line2d_7">
      <path clip-path="url(#p41eada45b7)" d="M 267.14675 438.30572 
L 267.14675 79.74572 
" style="fill:none;stroke:#cbcbcb;"/>
     </g>
     <g id="line2d_8">
      <g>
       <use style="stroke:#000000;stroke-width:0.5;" x="267.14675" xlink:href="#m3336c6d654" y="438.30572"/>
      </g>
     </g>
     <g id="line2d_9">
      <g>
       <use style="stroke:#000000;stroke-width:0.5;" x="267.14675" xlink:href="#m3336c6d654" y="79.74572"/>
      </g>
     </g>
     <g id="text_3">
      <!-- 0.4 -->
      <defs>
       <path d="M 37.796875 64.3125 
L 12.890625 25.390625 
L 37.796875 25.390625 
z
M 35.203125 72.90625 
L 47.609375 72.90625 
L 47.609375 25.390625 
L 58.015625 25.390625 
L 58.015625 17.1875 
L 47.609375 17.1875 
L 47.609375 0 
L 37.796875 0 
L 37.796875 17.1875 
L 4.890625 17.1875 
L 4.890625 26.703125 
z
" id="BitstreamVeraSans-Roman-34"/>
      </defs>
      <g transform="translate(260.7855 448.38447)scale(0.08 -0.08)">
       <use xlink:href="#BitstreamVeraSans-Roman-30"/>
       <use x="63.623046875" xlink:href="#BitstreamVeraSans-Roman-2e"/>
       <use x="95.41015625" xlink:href="#BitstreamVeraSans-Roman-34"/>
      </g>
     </g>
    </g>
    <g id="xtick_4">
     <g id="line2d_10">
      <path clip-path="url(#p41eada45b7)" d="M 367.37075 438.30572 
L 367.37075 79.74572 
" style="fill:none;stroke:#cbcbcb;"/>
     </g>
     <g id="line2d_11">
      <g>
       <use style="stroke:#000000;stroke-width:0.5;" x="367.37075" xlink:href="#m3336c6d654" y="438.30572"/>
      </g>
     </g>
     <g id="line2d_12">
      <g>
       <use style="stroke:#000000;stroke-width:0.5;" x="367.37075" xlink:href="#m3336c6d654" y="79.74572"/>
      </g>
     </g>
     <g id="text_4">
      <!-- 0.6 -->
      <defs>
       <path d="M 33.015625 40.375 
Q 26.375 40.375 22.484375 35.828125 
Q 18.609375 31.296875 18.609375 23.390625 
Q 18.609375 15.53125 22.484375 10.953125 
Q 26.375 6.390625 33.015625 6.390625 
Q 39.65625 6.390625 43.53125 10.953125 
Q 47.40625 15.53125 47.40625 23.390625 
Q 47.40625 31.296875 43.53125 35.828125 
Q 39.65625 40.375 33.015625 40.375 
M 52.59375 71.296875 
L 52.59375 62.3125 
Q 48.875 64.0625 45.09375 64.984375 
Q 41.3125 65.921875 37.59375 65.921875 
Q 27.828125 65.921875 22.671875 59.328125 
Q 17.53125 52.734375 16.796875 39.40625 
Q 19.671875 43.65625 24.015625 45.921875 
Q 28.375 48.1875 33.59375 48.1875 
Q 44.578125 48.1875 50.953125 41.515625 
Q 57.328125 34.859375 57.328125 23.390625 
Q 57.328125 12.15625 50.6875 5.359375 
Q 44.046875 -1.421875 33.015625 -1.421875 
Q 20.359375 -1.421875 13.671875 8.265625 
Q 6.984375 17.96875 6.984375 36.375 
Q 6.984375 53.65625 15.1875 63.9375 
Q 23.390625 74.21875 37.203125 74.21875 
Q 40.921875 74.21875 44.703125 73.484375 
Q 48.484375 72.75 52.59375 71.296875 
" id="BitstreamVeraSans-Roman-36"/>
      </defs>
      <g transform="translate(361.0095 448.38447)scale(0.08 -0.08)">
       <use xlink:href="#BitstreamVeraSans-Roman-30"/>
       <use x="63.623046875" xlink:href="#BitstreamVeraSans-Roman-2e"/>
       <use x="95.41015625" xlink:href="#BitstreamVeraSans-Roman-36"/>
      </g>
     </g>
    </g>
    <g id="xtick_5">
     <g id="line2d_13">
      <path clip-path="url(#p41eada45b7)" d="M 467.59475 438.30572 
L 467.59475 79.74572 
" style="fill:none;stroke:#cbcbcb;"/>
     </g>
     <g id="line2d_14">
      <g>
       <use style="stroke:#000000;stroke-width:0.5;" x="467.59475" xlink:href="#m3336c6d654" y="438.30572"/>
      </g>
     </g>
     <g id="line2d_15">
      <g>
       <use style="stroke:#000000;stroke-width:0.5;" x="467.59475" xlink:href="#m3336c6d654" y="79.74572"/>
      </g>
     </g>
     <g id="text_5">
      <!-- 0.8 -->
      <defs>
       <path d="M 31.78125 34.625 
Q 24.75 34.625 20.71875 30.859375 
Q 16.703125 27.09375 16.703125 20.515625 
Q 16.703125 13.921875 20.71875 10.15625 
Q 24.75 6.390625 31.78125 6.390625 
Q 38.8125 6.390625 42.859375 10.171875 
Q 46.921875 13.96875 46.921875 20.515625 
Q 46.921875 27.09375 42.890625 30.859375 
Q 38.875 34.625 31.78125 34.625 
M 21.921875 38.8125 
Q 15.578125 40.375 12.03125 44.71875 
Q 8.5 49.078125 8.5 55.328125 
Q 8.5 64.0625 14.71875 69.140625 
Q 20.953125 74.21875 31.78125 74.21875 
Q 42.671875 74.21875 48.875 69.140625 
Q 55.078125 64.0625 55.078125 55.328125 
Q 55.078125 49.078125 51.53125 44.71875 
Q 48 40.375 41.703125 38.8125 
Q 48.828125 37.15625 52.796875 32.3125 
Q 56.78125 27.484375 56.78125 20.515625 
Q 56.78125 9.90625 50.3125 4.234375 
Q 43.84375 -1.421875 31.78125 -1.421875 
Q 19.734375 -1.421875 13.25 4.234375 
Q 6.78125 9.90625 6.78125 20.515625 
Q 6.78125 27.484375 10.78125 32.3125 
Q 14.796875 37.15625 21.921875 38.8125 
M 18.3125 54.390625 
Q 18.3125 48.734375 21.84375 45.5625 
Q 25.390625 42.390625 31.78125 42.390625 
Q 38.140625 42.390625 41.71875 45.5625 
Q 45.3125 48.734375 45.3125 54.390625 
Q 45.3125 60.0625 41.71875 63.234375 
Q 38.140625 66.40625 31.78125 66.40625 
Q 25.390625 66.40625 21.84375 63.234375 
Q 18.3125 60.0625 18.3125 54.390625 
" id="BitstreamVeraSans-Roman-38"/>
      </defs>
      <g transform="translate(461.2335 448.38447)scale(0.08 -0.08)">
       <use xlink:href="#BitstreamVeraSans-Roman-30"/>
       <use x="63.623046875" xlink:href="#BitstreamVeraSans-Roman-2e"/>
       <use x="95.41015625" xlink:href="#BitstreamVeraSans-Roman-38"/>
      </g>
     </g>
    </g>
    <g id="xtick_6">
     <g id="line2d_16">
      <path clip-path="url(#p41eada45b7)" d="M 567.81875 438.30572 
L 567.81875 79.74572 
" style="fill:none;stroke:#cbcbcb;"/>
     </g>
     <g id="line2d_17">
      <g>
       <use style="stroke:#000000;stroke-width:0.5;" x="567.81875" xlink:href="#m3336c6d654" y="438.30572"/>
      </g>
     </g>
     <g id="line2d_18">
      <g>
       <use style="stroke:#000000;stroke-width:0.5;" x="567.81875" xlink:href="#m3336c6d654" y="79.74572"/>
      </g>
     </g>
     <g id="text_6">
      <!-- 1.0 -->
      <defs>
       <path d="M 12.40625 8.296875 
L 28.515625 8.296875 
L 28.515625 63.921875 
L 10.984375 60.40625 
L 10.984375 69.390625 
L 28.421875 72.90625 
L 38.28125 72.90625 
L 38.28125 8.296875 
L 54.390625 8.296875 
L 54.390625 0 
L 12.40625 0 
z
" id="BitstreamVeraSans-Roman-31"/>
      </defs>
      <g transform="translate(561.4575 448.38447)scale(0.08 -0.08)">
       <use xlink:href="#BitstreamVeraSans-Roman-31"/>
       <use x="63.623046875" xlink:href="#BitstreamVeraSans-Roman-2e"/>
       <use x="95.41015625" xlink:href="#BitstreamVeraSans-Roman-30"/>
      </g>
     </g>
    </g>
   </g>
   <g id="matplotlib.axis_2">
    <g id="ytick_1">
     <g id="line2d_19">
      <path clip-path="url(#p41eada45b7)" d="M 66.69875 420.37772 
L 567.81875 420.37772 
" style="fill:none;stroke:#cbcbcb;"/>
     </g>
     <g id="line2d_20">
      <g>
       <use style="stroke:#000000;stroke-width:0.5;" x="66.69875" xlink:href="#m3336c6d654" y="420.37772"/>
      </g>
     </g>
     <g id="line2d_21">
      <g>
       <use style="stroke:#000000;stroke-width:0.5;" x="567.81875" xlink:href="#m3336c6d654" y="420.37772"/>
      </g>
     </g>
     <g id="text_7">
      <!-- Jouy En Josas -->
      <defs>
       <path id="BitstreamVeraSans-Roman-20"/>
       <path d="M 9.8125 72.90625 
L 19.671875 72.90625 
L 19.671875 5.078125 
Q 19.671875 -8.109375 14.671875 -14.0625 
Q 9.671875 -20.015625 -1.421875 -20.015625 
L -5.171875 -20.015625 
L -5.171875 -11.71875 
L -2.09375 -11.71875 
Q 4.4375 -11.71875 7.125 -8.046875 
Q 9.8125 -4.390625 9.8125 5.078125 
z
" id="BitstreamVeraSans-Roman-4a"/>
       <path d="M 54.890625 33.015625 
L 54.890625 0 
L 45.90625 0 
L 45.90625 32.71875 
Q 45.90625 40.484375 42.875 44.328125 
Q 39.84375 48.1875 33.796875 48.1875 
Q 26.515625 48.1875 22.3125 43.546875 
Q 18.109375 38.921875 18.109375 30.90625 
L 18.109375 0 
L 9.078125 0 
L 9.078125 54.6875 
L 18.109375 54.6875 
L 18.109375 46.1875 
Q 21.34375 51.125 25.703125 53.5625 
Q 30.078125 56 35.796875 56 
Q 45.21875 56 50.046875 50.171875 
Q 54.890625 44.34375 54.890625 33.015625 
" id="BitstreamVeraSans-Roman-6e"/>
       <path d="M 30.609375 48.390625 
Q 23.390625 48.390625 19.1875 42.75 
Q 14.984375 37.109375 14.984375 27.296875 
Q 14.984375 17.484375 19.15625 11.84375 
Q 23.34375 6.203125 30.609375 6.203125 
Q 37.796875 6.203125 41.984375 11.859375 
Q 46.1875 17.53125 46.1875 27.296875 
Q 46.1875 37.015625 41.984375 42.703125 
Q 37.796875 48.390625 30.609375 48.390625 
M 30.609375 56 
Q 42.328125 56 49.015625 48.375 
Q 55.71875 40.765625 55.71875 27.296875 
Q 55.71875 13.875 49.015625 6.21875 
Q 42.328125 -1.421875 30.609375 -1.421875 
Q 18.84375 -1.421875 12.171875 6.21875 
Q 5.515625 13.875 5.515625 27.296875 
Q 5.515625 40.765625 12.171875 48.375 
Q 18.84375 56 30.609375 56 
" id="BitstreamVeraSans-Roman-6f"/>
       <path d="M 9.8125 72.90625 
L 55.90625 72.90625 
L 55.90625 64.59375 
L 19.671875 64.59375 
L 19.671875 43.015625 
L 54.390625 43.015625 
L 54.390625 34.71875 
L 19.671875 34.71875 
L 19.671875 8.296875 
L 56.78125 8.296875 
L 56.78125 0 
L 9.8125 0 
z
" id="BitstreamVeraSans-Roman-45"/>
       <path d="M 32.171875 -5.078125 
Q 28.375 -14.84375 24.75 -17.8125 
Q 21.140625 -20.796875 15.09375 -20.796875 
L 7.90625 -20.796875 
L 7.90625 -13.28125 
L 13.1875 -13.28125 
Q 16.890625 -13.28125 18.9375 -11.515625 
Q 21 -9.765625 23.484375 -3.21875 
L 25.09375 0.875 
L 2.984375 54.6875 
L 12.5 54.6875 
L 29.59375 11.921875 
L 46.6875 54.6875 
L 56.203125 54.6875 
z
" id="BitstreamVeraSans-Roman-79"/>
       <path d="M 8.5 21.578125 
L 8.5 54.6875 
L 17.484375 54.6875 
L 17.484375 21.921875 
Q 17.484375 14.15625 20.5 10.265625 
Q 23.53125 6.390625 29.59375 6.390625 
Q 36.859375 6.390625 41.078125 11.03125 
Q 45.3125 15.671875 45.3125 23.6875 
L 45.3125 54.6875 
L 54.296875 54.6875 
L 54.296875 0 
L 45.3125 0 
L 45.3125 8.40625 
Q 42.046875 3.421875 37.71875 1 
Q 33.40625 -1.421875 27.6875 -1.421875 
Q 18.265625 -1.421875 13.375 4.4375 
Q 8.5 10.296875 8.5 21.578125 
" id="BitstreamVeraSans-Roman-75"/>
       <path d="M 34.28125 27.484375 
Q 23.390625 27.484375 19.1875 25 
Q 14.984375 22.515625 14.984375 16.5 
Q 14.984375 11.71875 18.140625 8.90625 
Q 21.296875 6.109375 26.703125 6.109375 
Q 34.1875 6.109375 38.703125 11.40625 
Q 43.21875 16.703125 43.21875 25.484375 
L 43.21875 27.484375 
z
M 52.203125 31.203125 
L 52.203125 0 
L 43.21875 0 
L 43.21875 8.296875 
Q 40.140625 3.328125 35.546875 0.953125 
Q 30.953125 -1.421875 24.3125 -1.421875 
Q 15.921875 -1.421875 10.953125 3.296875 
Q 6 8.015625 6 15.921875 
Q 6 25.140625 12.171875 29.828125 
Q 18.359375 34.515625 30.609375 34.515625 
L 43.21875 34.515625 
L 43.21875 35.40625 
Q 43.21875 41.609375 39.140625 45 
Q 35.0625 48.390625 27.6875 48.390625 
Q 23 48.390625 18.546875 47.265625 
Q 14.109375 46.140625 10.015625 43.890625 
L 10.015625 52.203125 
Q 14.9375 54.109375 19.578125 55.046875 
Q 24.21875 56 28.609375 56 
Q 40.484375 56 46.34375 49.84375 
Q 52.203125 43.703125 52.203125 31.203125 
" id="BitstreamVeraSans-Roman-61"/>
       <path d="M 44.28125 53.078125 
L 44.28125 44.578125 
Q 40.484375 46.53125 36.375 47.5 
Q 32.28125 48.484375 27.875 48.484375 
Q 21.1875 48.484375 17.84375 46.4375 
Q 14.5 44.390625 14.5 40.28125 
Q 14.5 37.15625 16.890625 35.375 
Q 19.28125 33.59375 26.515625 31.984375 
L 29.59375 31.296875 
Q 39.15625 29.25 43.1875 25.515625 
Q 47.21875 21.78125 47.21875 15.09375 
Q 47.21875 7.46875 41.1875 3.015625 
Q 35.15625 -1.421875 24.609375 -1.421875 
Q 20.21875 -1.421875 15.453125 -0.5625 
Q 10.6875 0.296875 5.421875 2 
L 5.421875 11.28125 
Q 10.40625 8.6875 15.234375 7.390625 
Q 20.0625 6.109375 24.8125 6.109375 
Q 31.15625 6.109375 34.5625 8.28125 
Q 37.984375 10.453125 37.984375 14.40625 
Q 37.984375 18.0625 35.515625 20.015625 
Q 33.0625 21.96875 24.703125 23.78125 
L 21.578125 24.515625 
Q 13.234375 26.265625 9.515625 29.90625 
Q 5.8125 33.546875 5.8125 39.890625 
Q 5.8125 47.609375 11.28125 51.796875 
Q 16.75 56 26.8125 56 
Q 31.78125 56 36.171875 55.265625 
Q 40.578125 54.546875 44.28125 53.078125 
" id="BitstreamVeraSans-Roman-73"/>
      </defs>
      <g transform="translate(9.93625 422.58522)scale(0.08 -0.08)">
       <use xlink:href="#BitstreamVeraSans-Roman-4a"/>
       <use x="29.4921875" xlink:href="#BitstreamVeraSans-Roman-6f"/>
       <use x="90.673828125" xlink:href="#BitstreamVeraSans-Roman-75"/>
       <use x="154.052734375" xlink:href="#BitstreamVeraSans-Roman-79"/>
       <use x="213.232421875" xlink:href="#BitstreamVeraSans-Roman-20"/>
       <use x="245.01953125" xlink:href="#BitstreamVeraSans-Roman-45"/>
       <use x="308.203125" xlink:href="#BitstreamVeraSans-Roman-6e"/>
       <use x="371.58203125" xlink:href="#BitstreamVeraSans-Roman-20"/>
       <use x="403.369140625" xlink:href="#BitstreamVeraSans-Roman-4a"/>
       <use x="432.861328125" xlink:href="#BitstreamVeraSans-Roman-6f"/>
       <use x="494.04296875" xlink:href="#BitstreamVeraSans-Roman-73"/>
       <use x="546.142578125" xlink:href="#BitstreamVeraSans-Roman-61"/>
       <use x="607.421875" xlink:href="#BitstreamVeraSans-Roman-73"/>
      </g>
     </g>
    </g>
    <g id="ytick_2">
     <g id="line2d_22">
      <path clip-path="url(#p41eada45b7)" d="M 66.69875 384.52172 
L 567.81875 384.52172 
" style="fill:none;stroke:#cbcbcb;"/>
     </g>
     <g id="line2d_23">
      <g>
       <use style="stroke:#000000;stroke-width:0.5;" x="66.69875" xlink:href="#m3336c6d654" y="384.52172"/>
      </g>
     </g>
     <g id="line2d_24">
      <g>
       <use style="stroke:#000000;stroke-width:0.5;" x="567.81875" xlink:href="#m3336c6d654" y="384.52172"/>
      </g>
     </g>
     <g id="text_8">
      <!-- Bordeaux -->
      <defs>
       <path d="M 56.203125 29.59375 
L 56.203125 25.203125 
L 14.890625 25.203125 
Q 15.484375 15.921875 20.484375 11.0625 
Q 25.484375 6.203125 34.421875 6.203125 
Q 39.59375 6.203125 44.453125 7.46875 
Q 49.3125 8.734375 54.109375 11.28125 
L 54.109375 2.78125 
Q 49.265625 0.734375 44.1875 -0.34375 
Q 39.109375 -1.421875 33.890625 -1.421875 
Q 20.796875 -1.421875 13.15625 6.1875 
Q 5.515625 13.8125 5.515625 26.8125 
Q 5.515625 40.234375 12.765625 48.109375 
Q 20.015625 56 32.328125 56 
Q 43.359375 56 49.78125 48.890625 
Q 56.203125 41.796875 56.203125 29.59375 
M 47.21875 32.234375 
Q 47.125 39.59375 43.09375 43.984375 
Q 39.0625 48.390625 32.421875 48.390625 
Q 24.90625 48.390625 20.390625 44.140625 
Q 15.875 39.890625 15.1875 32.171875 
z
" id="BitstreamVeraSans-Roman-65"/>
       <path d="M 45.40625 46.390625 
L 45.40625 75.984375 
L 54.390625 75.984375 
L 54.390625 0 
L 45.40625 0 
L 45.40625 8.203125 
Q 42.578125 3.328125 38.25 0.953125 
Q 33.9375 -1.421875 27.875 -1.421875 
Q 17.96875 -1.421875 11.734375 6.484375 
Q 5.515625 14.40625 5.515625 27.296875 
Q 5.515625 40.1875 11.734375 48.09375 
Q 17.96875 56 27.875 56 
Q 33.9375 56 38.25 53.625 
Q 42.578125 51.265625 45.40625 46.390625 
M 14.796875 27.296875 
Q 14.796875 17.390625 18.875 11.75 
Q 22.953125 6.109375 30.078125 6.109375 
Q 37.203125 6.109375 41.296875 11.75 
Q 45.40625 17.390625 45.40625 27.296875 
Q 45.40625 37.203125 41.296875 42.84375 
Q 37.203125 48.484375 30.078125 48.484375 
Q 22.953125 48.484375 18.875 42.84375 
Q 14.796875 37.203125 14.796875 27.296875 
" id="BitstreamVeraSans-Roman-64"/>
       <path d="M 41.109375 46.296875 
Q 39.59375 47.171875 37.8125 47.578125 
Q 36.03125 48 33.890625 48 
Q 26.265625 48 22.1875 43.046875 
Q 18.109375 38.09375 18.109375 28.8125 
L 18.109375 0 
L 9.078125 0 
L 9.078125 54.6875 
L 18.109375 54.6875 
L 18.109375 46.1875 
Q 20.953125 51.171875 25.484375 53.578125 
Q 30.03125 56 36.53125 56 
Q 37.453125 56 38.578125 55.875 
Q 39.703125 55.765625 41.0625 55.515625 
z
" id="BitstreamVeraSans-Roman-72"/>
       <path d="M 19.671875 34.8125 
L 19.671875 8.109375 
L 35.5 8.109375 
Q 43.453125 8.109375 47.28125 11.40625 
Q 51.125 14.703125 51.125 21.484375 
Q 51.125 28.328125 47.28125 31.5625 
Q 43.453125 34.8125 35.5 34.8125 
z
M 19.671875 64.796875 
L 19.671875 42.828125 
L 34.28125 42.828125 
Q 41.5 42.828125 45.03125 45.53125 
Q 48.578125 48.25 48.578125 53.8125 
Q 48.578125 59.328125 45.03125 62.0625 
Q 41.5 64.796875 34.28125 64.796875 
z
M 9.8125 72.90625 
L 35.015625 72.90625 
Q 46.296875 72.90625 52.390625 68.21875 
Q 58.5 63.53125 58.5 54.890625 
Q 58.5 48.1875 55.375 44.234375 
Q 52.25 40.28125 46.1875 39.3125 
Q 53.46875 37.75 57.5 32.78125 
Q 61.53125 27.828125 61.53125 20.40625 
Q 61.53125 10.640625 54.890625 5.3125 
Q 48.25 0 35.984375 0 
L 9.8125 0 
z
" id="BitstreamVeraSans-Roman-42"/>
       <path d="M 54.890625 54.6875 
L 35.109375 28.078125 
L 55.90625 0 
L 45.3125 0 
L 29.390625 21.484375 
L 13.484375 0 
L 2.875 0 
L 24.125 28.609375 
L 4.6875 54.6875 
L 15.28125 54.6875 
L 29.78125 35.203125 
L 44.28125 54.6875 
z
" id="BitstreamVeraSans-Roman-78"/>
      </defs>
      <g transform="translate(24.31875 386.72922)scale(0.08 -0.08)">
       <use xlink:href="#BitstreamVeraSans-Roman-42"/>
       <use x="68.603515625" xlink:href="#BitstreamVeraSans-Roman-6f"/>
       <use x="129.78515625" xlink:href="#BitstreamVeraSans-Roman-72"/>
       <use x="170.8828125" xlink:href="#BitstreamVeraSans-Roman-64"/>
       <use x="234.359375" xlink:href="#BitstreamVeraSans-Roman-65"/>
       <use x="295.8828125" xlink:href="#BitstreamVeraSans-Roman-61"/>
       <use x="357.162109375" xlink:href="#BitstreamVeraSans-Roman-75"/>
       <use x="420.541015625" xlink:href="#BitstreamVeraSans-Roman-78"/>
      </g>
     </g>
    </g>
    <g id="ytick_3">
     <g id="line2d_25">
      <path clip-path="url(#p41eada45b7)" d="M 66.69875 348.66572 
L 567.81875 348.66572 
" style="fill:none;stroke:#cbcbcb;"/>
     </g>
     <g id="line2d_26">
      <g>
       <use style="stroke:#000000;stroke-width:0.5;" x="66.69875" xlink:href="#m3336c6d654" y="348.66572"/>
      </g>
     </g>
     <g id="line2d_27">
      <g>
       <use style="stroke:#000000;stroke-width:0.5;" x="567.81875" xlink:href="#m3336c6d654" y="348.66572"/>
      </g>
     </g>
     <g id="text_9">
      <!-- Rennes -->
      <defs>
       <path d="M 44.390625 34.1875 
Q 47.5625 33.109375 50.5625 29.59375 
Q 53.5625 26.078125 56.59375 19.921875 
L 66.609375 0 
L 56 0 
L 46.6875 18.703125 
Q 43.0625 26.03125 39.671875 28.421875 
Q 36.28125 30.8125 30.421875 30.8125 
L 19.671875 30.8125 
L 19.671875 0 
L 9.8125 0 
L 9.8125 72.90625 
L 32.078125 72.90625 
Q 44.578125 72.90625 50.734375 67.671875 
Q 56.890625 62.453125 56.890625 51.90625 
Q 56.890625 45.015625 53.6875 40.46875 
Q 50.484375 35.9375 44.390625 34.1875 
M 19.671875 64.796875 
L 19.671875 38.921875 
L 32.078125 38.921875 
Q 39.203125 38.921875 42.84375 42.21875 
Q 46.484375 45.515625 46.484375 51.90625 
Q 46.484375 58.296875 42.84375 61.546875 
Q 39.203125 64.796875 32.078125 64.796875 
z
" id="BitstreamVeraSans-Roman-52"/>
      </defs>
      <g transform="translate(32.9925 350.87322)scale(0.08 -0.08)">
       <use xlink:href="#BitstreamVeraSans-Roman-52"/>
       <use x="69.419921875" xlink:href="#BitstreamVeraSans-Roman-65"/>
       <use x="130.943359375" xlink:href="#BitstreamVeraSans-Roman-6e"/>
       <use x="194.322265625" xlink:href="#BitstreamVeraSans-Roman-6e"/>
       <use x="257.701171875" xlink:href="#BitstreamVeraSans-Roman-65"/>
       <use x="319.224609375" xlink:href="#BitstreamVeraSans-Roman-73"/>
      </g>
     </g>
    </g>
    <g id="ytick_4">
     <g id="line2d_28">
      <path clip-path="url(#p41eada45b7)" d="M 66.69875 312.80972 
L 567.81875 312.80972 
" style="fill:none;stroke:#cbcbcb;"/>
     </g>
     <g id="line2d_29">
      <g>
       <use style="stroke:#000000;stroke-width:0.5;" x="66.69875" xlink:href="#m3336c6d654" y="312.80972"/>
      </g>
     </g>
     <g id="line2d_30">
      <g>
       <use style="stroke:#000000;stroke-width:0.5;" x="567.81875" xlink:href="#m3336c6d654" y="312.80972"/>
      </g>
     </g>
     <g id="text_10">
      <!-- Grenoble -->
      <defs>
       <path d="M 59.515625 10.40625 
L 59.515625 29.984375 
L 43.40625 29.984375 
L 43.40625 38.09375 
L 69.28125 38.09375 
L 69.28125 6.78125 
Q 63.578125 2.734375 56.6875 0.65625 
Q 49.8125 -1.421875 42 -1.421875 
Q 24.90625 -1.421875 15.25 8.5625 
Q 5.609375 18.5625 5.609375 36.375 
Q 5.609375 54.25 15.25 64.234375 
Q 24.90625 74.21875 42 74.21875 
Q 49.125 74.21875 55.546875 72.453125 
Q 61.96875 70.703125 67.390625 67.28125 
L 67.390625 56.78125 
Q 61.921875 61.421875 55.765625 63.765625 
Q 49.609375 66.109375 42.828125 66.109375 
Q 29.4375 66.109375 22.71875 58.640625 
Q 16.015625 51.171875 16.015625 36.375 
Q 16.015625 21.625 22.71875 14.15625 
Q 29.4375 6.6875 42.828125 6.6875 
Q 48.046875 6.6875 52.140625 7.59375 
Q 56.25 8.5 59.515625 10.40625 
" id="BitstreamVeraSans-Roman-47"/>
       <path d="M 9.421875 75.984375 
L 18.40625 75.984375 
L 18.40625 0 
L 9.421875 0 
z
" id="BitstreamVeraSans-Roman-6c"/>
       <path d="M 48.6875 27.296875 
Q 48.6875 37.203125 44.609375 42.84375 
Q 40.53125 48.484375 33.40625 48.484375 
Q 26.265625 48.484375 22.1875 42.84375 
Q 18.109375 37.203125 18.109375 27.296875 
Q 18.109375 17.390625 22.1875 11.75 
Q 26.265625 6.109375 33.40625 6.109375 
Q 40.53125 6.109375 44.609375 11.75 
Q 48.6875 17.390625 48.6875 27.296875 
M 18.109375 46.390625 
Q 20.953125 51.265625 25.265625 53.625 
Q 29.59375 56 35.59375 56 
Q 45.5625 56 51.78125 48.09375 
Q 58.015625 40.1875 58.015625 27.296875 
Q 58.015625 14.40625 51.78125 6.484375 
Q 45.5625 -1.421875 35.59375 -1.421875 
Q 29.59375 -1.421875 25.265625 0.953125 
Q 20.953125 3.328125 18.109375 8.203125 
L 18.109375 0 
L 9.078125 0 
L 9.078125 75.984375 
L 18.109375 75.984375 
z
" id="BitstreamVeraSans-Roman-62"/>
      </defs>
      <g transform="translate(26.1025 315.01722)scale(0.08 -0.08)">
       <use xlink:href="#BitstreamVeraSans-Roman-47"/>
       <use x="77.490234375" xlink:href="#BitstreamVeraSans-Roman-72"/>
       <use x="118.572265625" xlink:href="#BitstreamVeraSans-Roman-65"/>
       <use x="180.095703125" xlink:href="#BitstreamVeraSans-Roman-6e"/>
       <use x="243.474609375" xlink:href="#BitstreamVeraSans-Roman-6f"/>
       <use x="304.65625" xlink:href="#BitstreamVeraSans-Roman-62"/>
       <use x="368.1328125" xlink:href="#BitstreamVeraSans-Roman-6c"/>
       <use x="395.916015625" xlink:href="#BitstreamVeraSans-Roman-65"/>
      </g>
     </g>
    </g>
    <g id="ytick_5">
     <g id="line2d_31">
      <path clip-path="url(#p41eada45b7)" d="M 66.69875 276.95372 
L 567.81875 276.95372 
" style="fill:none;stroke:#cbcbcb;"/>
     </g>
     <g id="line2d_32">
      <g>
       <use style="stroke:#000000;stroke-width:0.5;" x="66.69875" xlink:href="#m3336c6d654" y="276.95372"/>
      </g>
     </g>
     <g id="line2d_33">
      <g>
       <use style="stroke:#000000;stroke-width:0.5;" x="567.81875" xlink:href="#m3336c6d654" y="276.95372"/>
      </g>
     </g>
     <g id="text_11">
      <!-- Gif Sur Yvette -->
      <defs>
       <path d="M 53.515625 70.515625 
L 53.515625 60.890625 
Q 47.90625 63.578125 42.921875 64.890625 
Q 37.9375 66.21875 33.296875 66.21875 
Q 25.25 66.21875 20.875 63.09375 
Q 16.5 59.96875 16.5 54.203125 
Q 16.5 49.359375 19.40625 46.890625 
Q 22.3125 44.4375 30.421875 42.921875 
L 36.375 41.703125 
Q 47.40625 39.59375 52.65625 34.296875 
Q 57.90625 29 57.90625 20.125 
Q 57.90625 9.515625 50.796875 4.046875 
Q 43.703125 -1.421875 29.984375 -1.421875 
Q 24.8125 -1.421875 18.96875 -0.25 
Q 13.140625 0.921875 6.890625 3.21875 
L 6.890625 13.375 
Q 12.890625 10.015625 18.65625 8.296875 
Q 24.421875 6.59375 29.984375 6.59375 
Q 38.421875 6.59375 43.015625 9.90625 
Q 47.609375 13.234375 47.609375 19.390625 
Q 47.609375 24.75 44.3125 27.78125 
Q 41.015625 30.8125 33.5 32.328125 
L 27.484375 33.5 
Q 16.453125 35.6875 11.515625 40.375 
Q 6.59375 45.0625 6.59375 53.421875 
Q 6.59375 63.09375 13.40625 68.65625 
Q 20.21875 74.21875 32.171875 74.21875 
Q 37.3125 74.21875 42.625 73.28125 
Q 47.953125 72.359375 53.515625 70.515625 
" id="BitstreamVeraSans-Roman-53"/>
       <path d="M 9.421875 54.6875 
L 18.40625 54.6875 
L 18.40625 0 
L 9.421875 0 
z
M 9.421875 75.984375 
L 18.40625 75.984375 
L 18.40625 64.59375 
L 9.421875 64.59375 
z
" id="BitstreamVeraSans-Roman-69"/>
       <path d="M 2.984375 54.6875 
L 12.5 54.6875 
L 29.59375 8.796875 
L 46.6875 54.6875 
L 56.203125 54.6875 
L 35.6875 0 
L 23.484375 0 
z
" id="BitstreamVeraSans-Roman-76"/>
       <path d="M -0.203125 72.90625 
L 10.40625 72.90625 
L 30.609375 42.921875 
L 50.6875 72.90625 
L 61.28125 72.90625 
L 35.5 34.71875 
L 35.5 0 
L 25.59375 0 
L 25.59375 34.71875 
z
" id="BitstreamVeraSans-Roman-59"/>
       <path d="M 18.3125 70.21875 
L 18.3125 54.6875 
L 36.8125 54.6875 
L 36.8125 47.703125 
L 18.3125 47.703125 
L 18.3125 18.015625 
Q 18.3125 11.328125 20.140625 9.421875 
Q 21.96875 7.515625 27.59375 7.515625 
L 36.8125 7.515625 
L 36.8125 0 
L 27.59375 0 
Q 17.1875 0 13.234375 3.875 
Q 9.28125 7.765625 9.28125 18.015625 
L 9.28125 47.703125 
L 2.6875 47.703125 
L 2.6875 54.6875 
L 9.28125 54.6875 
L 9.28125 70.21875 
z
" id="BitstreamVeraSans-Roman-74"/>
       <path d="M 37.109375 75.984375 
L 37.109375 68.5 
L 28.515625 68.5 
Q 23.6875 68.5 21.796875 66.546875 
Q 19.921875 64.59375 19.921875 59.515625 
L 19.921875 54.6875 
L 34.71875 54.6875 
L 34.71875 47.703125 
L 19.921875 47.703125 
L 19.921875 0 
L 10.890625 0 
L 10.890625 47.703125 
L 2.296875 47.703125 
L 2.296875 54.6875 
L 10.890625 54.6875 
L 10.890625 58.5 
Q 10.890625 67.625 15.140625 71.796875 
Q 19.390625 75.984375 28.609375 75.984375 
z
" id="BitstreamVeraSans-Roman-66"/>
      </defs>
      <g transform="translate(7.2 279.16122)scale(0.08 -0.08)">
       <use xlink:href="#BitstreamVeraSans-Roman-47"/>
       <use x="77.490234375" xlink:href="#BitstreamVeraSans-Roman-69"/>
       <use x="105.2734375" xlink:href="#BitstreamVeraSans-Roman-66"/>
       <use x="140.478515625" xlink:href="#BitstreamVeraSans-Roman-20"/>
       <use x="172.265625" xlink:href="#BitstreamVeraSans-Roman-53"/>
       <use x="235.7421875" xlink:href="#BitstreamVeraSans-Roman-75"/>
       <use x="299.12109375" xlink:href="#BitstreamVeraSans-Roman-72"/>
       <use x="340.234375" xlink:href="#BitstreamVeraSans-Roman-20"/>
       <use x="372.021484375" xlink:href="#BitstreamVeraSans-Roman-59"/>
       <use x="433.10546875" xlink:href="#BitstreamVeraSans-Roman-76"/>
       <use x="492.28515625" xlink:href="#BitstreamVeraSans-Roman-65"/>
       <use x="553.80859375" xlink:href="#BitstreamVeraSans-Roman-74"/>
       <use x="593.017578125" xlink:href="#BitstreamVeraSans-Roman-74"/>
       <use x="632.2265625" xlink:href="#BitstreamVeraSans-Roman-65"/>
      </g>
     </g>
    </g>
    <g id="ytick_6">
     <g id="line2d_34">
      <path clip-path="url(#p41eada45b7)" d="M 66.69875 241.09772 
L 567.81875 241.09772 
" style="fill:none;stroke:#cbcbcb;"/>
     </g>
     <g id="line2d_35">
      <g>
       <use style="stroke:#000000;stroke-width:0.5;" x="66.69875" xlink:href="#m3336c6d654" y="241.09772"/>
      </g>
     </g>
     <g id="line2d_36">
      <g>
       <use style="stroke:#000000;stroke-width:0.5;" x="567.81875" xlink:href="#m3336c6d654" y="241.09772"/>
      </g>
     </g>
     <g id="text_12">
      <!-- Toulouse -->
      <defs>
       <path d="M -0.296875 72.90625 
L 61.375 72.90625 
L 61.375 64.59375 
L 35.5 64.59375 
L 35.5 0 
L 25.59375 0 
L 25.59375 64.59375 
L -0.296875 64.59375 
z
" id="BitstreamVeraSans-Roman-54"/>
      </defs>
      <g transform="translate(26.59125 243.30522)scale(0.08 -0.08)">
       <use xlink:href="#BitstreamVeraSans-Roman-54"/>
       <use x="60.818359375" xlink:href="#BitstreamVeraSans-Roman-6f"/>
       <use x="122.0" xlink:href="#BitstreamVeraSans-Roman-75"/>
       <use x="185.37890625" xlink:href="#BitstreamVeraSans-Roman-6c"/>
       <use x="213.162109375" xlink:href="#BitstreamVeraSans-Roman-6f"/>
       <use x="274.34375" xlink:href="#BitstreamVeraSans-Roman-75"/>
       <use x="337.72265625" xlink:href="#BitstreamVeraSans-Roman-73"/>
       <use x="389.822265625" xlink:href="#BitstreamVeraSans-Roman-65"/>
      </g>
     </g>
    </g>
    <g id="ytick_7">
     <g id="line2d_37">
      <path clip-path="url(#p41eada45b7)" d="M 66.69875 205.24172 
L 567.81875 205.24172 
" style="fill:none;stroke:#cbcbcb;"/>
     </g>
     <g id="line2d_38">
      <g>
       <use style="stroke:#000000;stroke-width:0.5;" x="66.69875" xlink:href="#m3336c6d654" y="205.24172"/>
      </g>
     </g>
     <g id="line2d_39">
      <g>
       <use style="stroke:#000000;stroke-width:0.5;" x="567.81875" xlink:href="#m3336c6d654" y="205.24172"/>
      </g>
     </g>
     <g id="text_13">
      <!-- Evry -->
      <g transform="translate(44.885 207.44922)scale(0.08 -0.08)">
       <use xlink:href="#BitstreamVeraSans-Roman-45"/>
       <use x="63.18359375" xlink:href="#BitstreamVeraSans-Roman-76"/>
       <use x="122.36328125" xlink:href="#BitstreamVeraSans-Roman-72"/>
       <use x="163.4765625" xlink:href="#BitstreamVeraSans-Roman-79"/>
      </g>
     </g>
    </g>
    <g id="ytick_8">
     <g id="line2d_40">
      <path clip-path="url(#p41eada45b7)" d="M 66.69875 169.38572 
L 567.81875 169.38572 
" style="fill:none;stroke:#cbcbcb;"/>
     </g>
     <g id="line2d_41">
      <g>
       <use style="stroke:#000000;stroke-width:0.5;" x="66.69875" xlink:href="#m3336c6d654" y="169.38572"/>
      </g>
     </g>
     <g id="line2d_42">
      <g>
       <use style="stroke:#000000;stroke-width:0.5;" x="567.81875" xlink:href="#m3336c6d654" y="169.38572"/>
      </g>
     </g>
     <g id="text_14">
      <!-- Lyon -->
      <defs>
       <path d="M 9.8125 72.90625 
L 19.671875 72.90625 
L 19.671875 8.296875 
L 55.171875 8.296875 
L 55.171875 0 
L 9.8125 0 
z
" id="BitstreamVeraSans-Roman-4c"/>
      </defs>
      <g transform="translate(43.5525 171.59322)scale(0.08 -0.08)">
       <use xlink:href="#BitstreamVeraSans-Roman-4c"/>
       <use x="55.572265625" xlink:href="#BitstreamVeraSans-Roman-79"/>
       <use x="114.751953125" xlink:href="#BitstreamVeraSans-Roman-6f"/>
       <use x="175.93359375" xlink:href="#BitstreamVeraSans-Roman-6e"/>
      </g>
     </g>
    </g>
    <g id="ytick_9">
     <g id="line2d_43">
      <path clip-path="url(#p41eada45b7)" d="M 66.69875 133.52972 
L 567.81875 133.52972 
" style="fill:none;stroke:#cbcbcb;"/>
     </g>
     <g id="line2d_44">
      <g>
       <use style="stroke:#000000;stroke-width:0.5;" x="66.69875" xlink:href="#m3336c6d654" y="133.52972"/>
      </g>
     </g>
     <g id="line2d_45">
      <g>
       <use style="stroke:#000000;stroke-width:0.5;" x="567.81875" xlink:href="#m3336c6d654" y="133.52972"/>
      </g>
     </g>
     <g id="text_15">
      <!-- Montpellier -->
      <defs>
       <path d="M 9.8125 72.90625 
L 24.515625 72.90625 
L 43.109375 23.296875 
L 61.8125 72.90625 
L 76.515625 72.90625 
L 76.515625 0 
L 66.890625 0 
L 66.890625 64.015625 
L 48.09375 14.015625 
L 38.1875 14.015625 
L 19.390625 64.015625 
L 19.390625 0 
L 9.8125 0 
z
" id="BitstreamVeraSans-Roman-4d"/>
       <path d="M 18.109375 8.203125 
L 18.109375 -20.796875 
L 9.078125 -20.796875 
L 9.078125 54.6875 
L 18.109375 54.6875 
L 18.109375 46.390625 
Q 20.953125 51.265625 25.265625 53.625 
Q 29.59375 56 35.59375 56 
Q 45.5625 56 51.78125 48.09375 
Q 58.015625 40.1875 58.015625 27.296875 
Q 58.015625 14.40625 51.78125 6.484375 
Q 45.5625 -1.421875 35.59375 -1.421875 
Q 29.59375 -1.421875 25.265625 0.953125 
Q 20.953125 3.328125 18.109375 8.203125 
M 48.6875 27.296875 
Q 48.6875 37.203125 44.609375 42.84375 
Q 40.53125 48.484375 33.40625 48.484375 
Q 26.265625 48.484375 22.1875 42.84375 
Q 18.109375 37.203125 18.109375 27.296875 
Q 18.109375 17.390625 22.1875 11.75 
Q 26.265625 6.109375 33.40625 6.109375 
Q 40.53125 6.109375 44.609375 11.75 
Q 48.6875 17.390625 48.6875 27.296875 
" id="BitstreamVeraSans-Roman-70"/>
      </defs>
      <g transform="translate(17.815 135.73722)scale(0.08 -0.08)">
       <use xlink:href="#BitstreamVeraSans-Roman-4d"/>
       <use x="86.279296875" xlink:href="#BitstreamVeraSans-Roman-6f"/>
       <use x="147.4609375" xlink:href="#BitstreamVeraSans-Roman-6e"/>
       <use x="210.83984375" xlink:href="#BitstreamVeraSans-Roman-74"/>
       <use x="250.048828125" xlink:href="#BitstreamVeraSans-Roman-70"/>
       <use x="313.525390625" xlink:href="#BitstreamVeraSans-Roman-65"/>
       <use x="375.048828125" xlink:href="#BitstreamVeraSans-Roman-6c"/>
       <use x="402.83203125" xlink:href="#BitstreamVeraSans-Roman-6c"/>
       <use x="430.615234375" xlink:href="#BitstreamVeraSans-Roman-69"/>
       <use x="458.3984375" xlink:href="#BitstreamVeraSans-Roman-65"/>
       <use x="519.921875" xlink:href="#BitstreamVeraSans-Roman-72"/>
      </g>
     </g>
    </g>
    <g id="ytick_10">
     <g id="line2d_46">
      <path clip-path="url(#p41eada45b7)" d="M 66.69875 97.67372 
L 567.81875 97.67372 
" style="fill:none;stroke:#cbcbcb;"/>
     </g>
     <g id="line2d_47">
      <g>
       <use style="stroke:#000000;stroke-width:0.5;" x="66.69875" xlink:href="#m3336c6d654" y="97.67372"/>
      </g>
     </g>
     <g id="line2d_48">
      <g>
       <use style="stroke:#000000;stroke-width:0.5;" x="567.81875" xlink:href="#m3336c6d654" y="97.67372"/>
      </g>
     </g>
     <g id="text_16">
      <!-- Paris -->
      <defs>
       <path d="M 19.671875 64.796875 
L 19.671875 37.40625 
L 32.078125 37.40625 
Q 38.96875 37.40625 42.71875 40.96875 
Q 46.484375 44.53125 46.484375 51.125 
Q 46.484375 57.671875 42.71875 61.234375 
Q 38.96875 64.796875 32.078125 64.796875 
z
M 9.8125 72.90625 
L 32.078125 72.90625 
Q 44.34375 72.90625 50.609375 67.359375 
Q 56.890625 61.8125 56.890625 51.125 
Q 56.890625 40.328125 50.609375 34.8125 
Q 44.34375 29.296875 32.078125 29.296875 
L 19.671875 29.296875 
L 19.671875 0 
L 9.8125 0 
z
" id="BitstreamVeraSans-Roman-50"/>
      </defs>
      <g transform="translate(43.29875 99.88122)scale(0.08 -0.08)">
       <use xlink:href="#BitstreamVeraSans-Roman-50"/>
       <use x="60.240234375" xlink:href="#BitstreamVeraSans-Roman-61"/>
       <use x="121.51953125" xlink:href="#BitstreamVeraSans-Roman-72"/>
       <use x="162.6328125" xlink:href="#BitstreamVeraSans-Roman-69"/>
       <use x="190.416015625" xlink:href="#BitstreamVeraSans-Roman-73"/>
      </g>
     </g>
    </g>
   </g>
   <g id="patch_3">
    <path clip-path="url(#p41eada45b7)" d="M 66.69875 429.34172 
L 385.593295 429.34172 
L 385.593295 411.41372 
L 66.69875 411.41372 
z
" style="fill:#ffa500;stroke:#ffffff;stroke-linejoin:miter;"/>
   </g>
   <g id="patch_4">
    <path clip-path="url(#p41eada45b7)" d="M 66.69875 393.48572 
L 275.49875 393.48572 
L 275.49875 375.55772 
L 66.69875 375.55772 
z
" style="fill:#ffa500;stroke:#ffffff;stroke-linejoin:miter;"/>
   </g>
   <g id="patch_5">
    <path clip-path="url(#p41eada45b7)" d="M 66.69875 357.62972 
L 345.09875 357.62972 
L 345.09875 339.70172 
L 66.69875 339.70172 
z
" style="fill:#ffa500;stroke:#ffffff;stroke-linejoin:miter;"/>
   </g>
   <g id="patch_6">
    <path clip-path="url(#p41eada45b7)" d="M 66.69875 321.77372 
L 384.07475 321.77372 
L 384.07475 303.84572 
L 66.69875 303.84572 
z
" style="fill:#ffa500;stroke:#ffffff;stroke-linejoin:miter;"/>
   </g>
   <g id="patch_7">
    <path clip-path="url(#p41eada45b7)" d="M 66.69875 285.91772 
L 331.17875 285.91772 
L 331.17875 267.98972 
L 66.69875 267.98972 
z
" style="fill:#ffa500;stroke:#ffffff;stroke-linejoin:miter;"/>
   </g>
   <g id="patch_8">
    <path clip-path="url(#p41eada45b7)" d="M 66.69875 250.06172 
L 347.32595 250.06172 
L 347.32595 232.13372 
L 66.69875 232.13372 
z
" style="fill:#ffa500;stroke:#ffffff;stroke-linejoin:miter;"/>
   </g>
   <g id="patch_9">
    <path clip-path="url(#p41eada45b7)" d="M 66.69875 214.20572 
L 272.075799 214.20572 
L 272.075799 196.27772 
L 66.69875 196.27772 
z
" style="fill:#ffa500;stroke:#ffffff;stroke-linejoin:miter;"/>
   </g>
   <g id="patch_10">
    <path clip-path="url(#p41eada45b7)" d="M 66.69875 178.34972 
L 311.293036 178.34972 
L 311.293036 160.42172 
L 66.69875 160.42172 
z
" style="fill:#ffa500;stroke:#ffffff;stroke-linejoin:miter;"/>
   </g>
   <g id="patch_11">
    <path clip-path="url(#p41eada45b7)" d="M 66.69875 142.49372 
L 317.25875 142.49372 
L 317.25875 124.56572 
L 66.69875 124.56572 
z
" style="fill:#ffa500;stroke:#ffffff;stroke-linejoin:miter;"/>
   </g>
   <g id="patch_12">
    <path clip-path="url(#p41eada45b7)" d="M 66.69875 106.63772 
L 340.622866 106.63772 
L 340.622866 88.70972 
L 66.69875 88.70972 
z
" style="fill:#ffa500;stroke:#ffffff;stroke-linejoin:miter;"/>
   </g>
   <g id="patch_13">
    <path clip-path="url(#p41eada45b7)" d="M 385.593295 429.34172 
L 522.262386 429.34172 
L 522.262386 411.41372 
L 385.593295 411.41372 
z
" style="fill:#deb887;stroke:#ffffff;stroke-linejoin:miter;"/>
   </g>
   <g id="patch_14">
    <path clip-path="url(#p41eada45b7)" d="M 66.69875 393.48572 
L 66.69875 393.48572 
L 66.69875 375.55772 
L 66.69875 375.55772 
z
" style="fill:#deb887;stroke:#ffffff;stroke-linejoin:miter;"/>
   </g>
   <g id="patch_15">
    <path clip-path="url(#p41eada45b7)" d="M 345.09875 357.62972 
L 382.21875 357.62972 
L 382.21875 339.70172 
L 345.09875 339.70172 
z
" style="fill:#deb887;stroke:#ffffff;stroke-linejoin:miter;"/>
   </g>
   <g id="patch_16">
    <path clip-path="url(#p41eada45b7)" d="M 384.07475 321.77372 
L 450.89075 321.77372 
L 450.89075 303.84572 
L 384.07475 303.84572 
z
" style="fill:#deb887;stroke:#ffffff;stroke-linejoin:miter;"/>
   </g>
   <g id="patch_17">
    <path clip-path="url(#p41eada45b7)" d="M 331.17875 285.91772 
L 428.61875 285.91772 
L 428.61875 267.98972 
L 331.17875 267.98972 
z
" style="fill:#deb887;stroke:#ffffff;stroke-linejoin:miter;"/>
   </g>
   <g id="patch_18">
    <path clip-path="url(#p41eada45b7)" d="M 347.32595 250.06172 
L 377.39315 250.06172 
L 377.39315 232.13372 
L 347.32595 232.13372 
z
" style="fill:#deb887;stroke:#ffffff;stroke-linejoin:miter;"/>
   </g>
   <g id="patch_19">
    <path clip-path="url(#p41eada45b7)" d="M 272.075799 214.20572 
L 362.441701 214.20572 
L 362.441701 196.27772 
L 272.075799 196.27772 
z
" style="fill:#deb887;stroke:#ffffff;stroke-linejoin:miter;"/>
   </g>
   <g id="patch_20">
    <path clip-path="url(#p41eada45b7)" d="M 311.293036 178.34972 
L 448.504464 178.34972 
L 448.504464 160.42172 
L 311.293036 160.42172 
z
" style="fill:#deb887;stroke:#ffffff;stroke-linejoin:miter;"/>
   </g>
   <g id="patch_21">
    <path clip-path="url(#p41eada45b7)" d="M 317.25875 142.49372 
L 370.950179 142.49372 
L 370.950179 124.56572 
L 317.25875 124.56572 
z
" style="fill:#deb887;stroke:#ffffff;stroke-linejoin:miter;"/>
   </g>
   <g id="patch_22">
    <path clip-path="url(#p41eada45b7)" d="M 340.622866 106.63772 
L 461.47174 106.63772 
L 461.47174 88.70972 
L 340.622866 88.70972 
z
" style="fill:#deb887;stroke:#ffffff;stroke-linejoin:miter;"/>
   </g>
   <g id="patch_23">
    <path clip-path="url(#p41eada45b7)" d="M 522.262386 429.34172 
L 567.81875 429.34172 
L 567.81875 411.41372 
L 522.262386 411.41372 
z
" style="fill:#a52a2a;stroke:#ffffff;stroke-linejoin:miter;"/>
   </g>
   <g id="patch_24">
    <path clip-path="url(#p41eada45b7)" d="M 275.49875 393.48572 
L 526.05875 393.48572 
L 526.05875 375.55772 
L 275.49875 375.55772 
z
" style="fill:#a52a2a;stroke:#ffffff;stroke-linejoin:miter;"/>
   </g>
   <g id="patch_25">
    <path clip-path="url(#p41eada45b7)" d="M 382.21875 357.62972 
L 512.13875 357.62972 
L 512.13875 339.70172 
L 382.21875 339.70172 
z
" style="fill:#a52a2a;stroke:#ffffff;stroke-linejoin:miter;"/>
   </g>
   <g id="patch_26">
    <path clip-path="url(#p41eada45b7)" d="M 450.89075 321.77372 
L 551.11475 321.77372 
L 551.11475 303.84572 
L 450.89075 303.84572 
z
" style="fill:#a52a2a;stroke:#ffffff;stroke-linejoin:miter;"/>
   </g>
   <g id="patch_27">
    <path clip-path="url(#p41eada45b7)" d="M 428.61875 285.91772 
L 539.97875 285.91772 
L 539.97875 267.98972 
L 428.61875 267.98972 
z
" style="fill:#a52a2a;stroke:#ffffff;stroke-linejoin:miter;"/>
   </g>
   <g id="patch_28">
    <path clip-path="url(#p41eada45b7)" d="M 377.39315 250.06172 
L 527.72915 250.06172 
L 527.72915 232.13372 
L 377.39315 232.13372 
z
" style="fill:#a52a2a;stroke:#ffffff;stroke-linejoin:miter;"/>
   </g>
   <g id="patch_29">
    <path clip-path="url(#p41eada45b7)" d="M 362.441701 214.20572 
L 534.958422 214.20572 
L 534.958422 196.27772 
L 362.441701 196.27772 
z
" style="fill:#a52a2a;stroke:#ffffff;stroke-linejoin:miter;"/>
   </g>
   <g id="patch_30">
    <path clip-path="url(#p41eada45b7)" d="M 448.504464 178.34972 
L 549.921607 178.34972 
L 549.921607 160.42172 
L 448.504464 160.42172 
z
" style="fill:#a52a2a;stroke:#ffffff;stroke-linejoin:miter;"/>
   </g>
   <g id="patch_31">
    <path clip-path="url(#p41eada45b7)" d="M 370.950179 142.49372 
L 543.955893 142.49372 
L 543.955893 124.56572 
L 370.950179 124.56572 
z
" style="fill:#a52a2a;stroke:#ffffff;stroke-linejoin:miter;"/>
   </g>
   <g id="patch_32">
    <path clip-path="url(#p41eada45b7)" d="M 461.47174 106.63772 
L 540.426338 106.63772 
L 540.426338 88.70972 
L 461.47174 88.70972 
z
" style="fill:#a52a2a;stroke:#ffffff;stroke-linejoin:miter;"/>
   </g>
   <g id="patch_33">
    <path clip-path="url(#p41eada45b7)" d="M 66.69875 429.34172 
L 66.69875 429.34172 
L 66.69875 411.41372 
L 66.69875 411.41372 
z
" style="fill:#6495ed;stroke:#ffffff;stroke-linejoin:miter;"/>
   </g>
   <g id="patch_34">
    <path clip-path="url(#p41eada45b7)" d="M 526.05875 393.48572 
L 567.81875 393.48572 
L 567.81875 375.55772 
L 526.05875 375.55772 
z
" style="fill:#6495ed;stroke:#ffffff;stroke-linejoin:miter;"/>
   </g>
   <g id="patch_35">
    <path clip-path="url(#p41eada45b7)" d="M 512.13875 357.62972 
L 567.81875 357.62972 
L 567.81875 339.70172 
L 512.13875 339.70172 
z
" style="fill:#6495ed;stroke:#ffffff;stroke-linejoin:miter;"/>
   </g>
   <g id="patch_36">
    <path clip-path="url(#p41eada45b7)" d="M 551.11475 321.77372 
L 567.81875 321.77372 
L 567.81875 303.84572 
L 551.11475 303.84572 
z
" style="fill:#6495ed;stroke:#ffffff;stroke-linejoin:miter;"/>
   </g>
   <g id="patch_37">
    <path clip-path="url(#p41eada45b7)" d="M 539.97875 285.91772 
L 567.81875 285.91772 
L 567.81875 267.98972 
L 539.97875 267.98972 
z
" style="fill:#6495ed;stroke:#ffffff;stroke-linejoin:miter;"/>
   </g>
   <g id="patch_38">
    <path clip-path="url(#p41eada45b7)" d="M 527.72915 250.06172 
L 567.81875 250.06172 
L 567.81875 232.13372 
L 527.72915 232.13372 
z
" style="fill:#6495ed;stroke:#ffffff;stroke-linejoin:miter;"/>
   </g>
   <g id="patch_39">
    <path clip-path="url(#p41eada45b7)" d="M 534.958422 214.20572 
L 567.81875 214.20572 
L 567.81875 196.27772 
L 534.958422 196.27772 
z
" style="fill:#6495ed;stroke:#ffffff;stroke-linejoin:miter;"/>
   </g>
   <g id="patch_40">
    <path clip-path="url(#p41eada45b7)" d="M 549.921607 178.34972 
L 567.81875 178.34972 
L 567.81875 160.42172 
L 549.921607 160.42172 
z
" style="fill:#6495ed;stroke:#ffffff;stroke-linejoin:miter;"/>
   </g>
   <g id="patch_41">
    <path clip-path="url(#p41eada45b7)" d="M 543.955893 142.49372 
L 567.81875 142.49372 
L 567.81875 124.56572 
L 543.955893 124.56572 
z
" style="fill:#6495ed;stroke:#ffffff;stroke-linejoin:miter;"/>
   </g>
   <g id="patch_42">
    <path clip-path="url(#p41eada45b7)" d="M 540.426338 106.63772 
L 567.81875 106.63772 
L 567.81875 88.70972 
L 540.426338 88.70972 
z
" style="fill:#6495ed;stroke:#ffffff;stroke-linejoin:miter;"/>
   </g>
   <g id="patch_43">
    <path d="M 66.69875 79.74572 
L 567.81875 79.74572 
" style="fill:none;stroke:#f0f0f0;stroke-linecap:square;stroke-linejoin:miter;stroke-width:3.0;"/>
   </g>
   <g id="patch_44">
    <path d="M 567.81875 438.30572 
L 567.81875 79.74572 
" style="fill:none;stroke:#f0f0f0;stroke-linecap:square;stroke-linejoin:miter;stroke-width:3.0;"/>
   </g>
   <g id="patch_45">
    <path d="M 66.69875 438.30572 
L 567.81875 438.30572 
" style="fill:none;stroke:#f0f0f0;stroke-linecap:square;stroke-linejoin:miter;stroke-width:3.0;"/>
   </g>
   <g id="patch_46">
    <path d="M 66.69875 438.30572 
L 66.69875 79.74572 
" style="fill:none;stroke:#f0f0f0;stroke-linecap:square;stroke-linejoin:miter;stroke-width:3.0;"/>
   </g>
   <g id="text_17">
    <!-- 22 -->
    <g transform="translate(577.84115 424.240845)scale(0.14 -0.14)">
     <use xlink:href="#BitstreamVeraSans-Roman-32"/>
     <use x="63.623046875" xlink:href="#BitstreamVeraSans-Roman-32"/>
    </g>
   </g>
   <g id="text_18">
    <!-- 24 -->
    <g transform="translate(577.84115 388.384845)scale(0.14 -0.14)">
     <use xlink:href="#BitstreamVeraSans-Roman-32"/>
     <use x="63.623046875" xlink:href="#BitstreamVeraSans-Roman-34"/>
    </g>
   </g>
   <g id="text_19">
    <!-- 27 -->
    <defs>
     <path d="M 8.203125 72.90625 
L 55.078125 72.90625 
L 55.078125 68.703125 
L 28.609375 0 
L 18.3125 0 
L 43.21875 64.59375 
L 8.203125 64.59375 
z
" id="BitstreamVeraSans-Roman-37"/>
    </defs>
    <g transform="translate(577.84115 352.528845)scale(0.14 -0.14)">
     <use xlink:href="#BitstreamVeraSans-Roman-32"/>
     <use x="63.623046875" xlink:href="#BitstreamVeraSans-Roman-37"/>
    </g>
   </g>
   <g id="text_20">
    <!-- 30 -->
    <defs>
     <path d="M 40.578125 39.3125 
Q 47.65625 37.796875 51.625 33 
Q 55.609375 28.21875 55.609375 21.1875 
Q 55.609375 10.40625 48.1875 4.484375 
Q 40.765625 -1.421875 27.09375 -1.421875 
Q 22.515625 -1.421875 17.65625 -0.515625 
Q 12.796875 0.390625 7.625 2.203125 
L 7.625 11.71875 
Q 11.71875 9.328125 16.59375 8.109375 
Q 21.484375 6.890625 26.8125 6.890625 
Q 36.078125 6.890625 40.9375 10.546875 
Q 45.796875 14.203125 45.796875 21.1875 
Q 45.796875 27.640625 41.28125 31.265625 
Q 36.765625 34.90625 28.71875 34.90625 
L 20.21875 34.90625 
L 20.21875 43.015625 
L 29.109375 43.015625 
Q 36.375 43.015625 40.234375 45.921875 
Q 44.09375 48.828125 44.09375 54.296875 
Q 44.09375 59.90625 40.109375 62.90625 
Q 36.140625 65.921875 28.71875 65.921875 
Q 24.65625 65.921875 20.015625 65.03125 
Q 15.375 64.15625 9.8125 62.3125 
L 9.8125 71.09375 
Q 15.4375 72.65625 20.34375 73.4375 
Q 25.25 74.21875 29.59375 74.21875 
Q 40.828125 74.21875 47.359375 69.109375 
Q 53.90625 64.015625 53.90625 55.328125 
Q 53.90625 49.265625 50.4375 45.09375 
Q 46.96875 40.921875 40.578125 39.3125 
" id="BitstreamVeraSans-Roman-33"/>
    </defs>
    <g transform="translate(577.84115 316.672845)scale(0.14 -0.14)">
     <use xlink:href="#BitstreamVeraSans-Roman-33"/>
     <use x="63.623046875" xlink:href="#BitstreamVeraSans-Roman-30"/>
    </g>
   </g>
   <g id="text_21">
    <!-- 36 -->
    <g transform="translate(577.84115 280.816845)scale(0.14 -0.14)">
     <use xlink:href="#BitstreamVeraSans-Roman-33"/>
     <use x="63.623046875" xlink:href="#BitstreamVeraSans-Roman-36"/>
    </g>
   </g>
   <g id="text_22">
    <!-- 50 -->
    <defs>
     <path d="M 10.796875 72.90625 
L 49.515625 72.90625 
L 49.515625 64.59375 
L 19.828125 64.59375 
L 19.828125 46.734375 
Q 21.96875 47.46875 24.109375 47.828125 
Q 26.265625 48.1875 28.421875 48.1875 
Q 40.625 48.1875 47.75 41.5 
Q 54.890625 34.8125 54.890625 23.390625 
Q 54.890625 11.625 47.5625 5.09375 
Q 40.234375 -1.421875 26.90625 -1.421875 
Q 22.3125 -1.421875 17.546875 -0.640625 
Q 12.796875 0.140625 7.71875 1.703125 
L 7.71875 11.625 
Q 12.109375 9.234375 16.796875 8.0625 
Q 21.484375 6.890625 26.703125 6.890625 
Q 35.15625 6.890625 40.078125 11.328125 
Q 45.015625 15.765625 45.015625 23.390625 
Q 45.015625 31 40.078125 35.4375 
Q 35.15625 39.890625 26.703125 39.890625 
Q 22.75 39.890625 18.8125 39.015625 
Q 14.890625 38.140625 10.796875 36.28125 
z
" id="BitstreamVeraSans-Roman-35"/>
    </defs>
    <g transform="translate(577.84115 244.960845)scale(0.14 -0.14)">
     <use xlink:href="#BitstreamVeraSans-Roman-35"/>
     <use x="63.623046875" xlink:href="#BitstreamVeraSans-Roman-30"/>
    </g>
   </g>
   <g id="text_23">
    <!-- 61 -->
    <g transform="translate(577.84115 209.104845)scale(0.14 -0.14)">
     <use xlink:href="#BitstreamVeraSans-Roman-36"/>
     <use x="63.623046875" xlink:href="#BitstreamVeraSans-Roman-31"/>
    </g>
   </g>
   <g id="text_24">
    <!-- 84 -->
    <g transform="translate(577.84115 173.248845)scale(0.14 -0.14)">
     <use xlink:href="#BitstreamVeraSans-Roman-38"/>
     <use x="63.623046875" xlink:href="#BitstreamVeraSans-Roman-34"/>
    </g>
   </g>
   <g id="text_25">
    <!-- 84 -->
    <g transform="translate(577.84115 137.392845)scale(0.14 -0.14)">
     <use xlink:href="#BitstreamVeraSans-Roman-38"/>
     <use x="63.623046875" xlink:href="#BitstreamVeraSans-Roman-34"/>
    </g>
   </g>
   <g id="text_26">
    <!-- 311 -->
    <g transform="translate(577.84115 101.536845)scale(0.14 -0.14)">
     <use xlink:href="#BitstreamVeraSans-Roman-33"/>
     <use x="63.623046875" xlink:href="#BitstreamVeraSans-Roman-31"/>
     <use x="127.24609375" xlink:href="#BitstreamVeraSans-Roman-31"/>
    </g>
   </g>
   <g id="text_27">
    <!-- Rpartition des types d'offres -->
    <defs>
     <path d="M 56.203125 29.59375 
L 56.203125 25.203125 
L 14.890625 25.203125 
Q 15.484375 15.921875 20.484375 11.0625 
Q 25.484375 6.203125 34.421875 6.203125 
Q 39.59375 6.203125 44.453125 7.46875 
Q 49.3125 8.734375 54.109375 11.28125 
L 54.109375 2.78125 
Q 49.265625 0.734375 44.1875 -0.34375 
Q 39.109375 -1.421875 33.890625 -1.421875 
Q 20.796875 -1.421875 13.15625 6.1875 
Q 5.515625 13.8125 5.515625 26.8125 
Q 5.515625 40.234375 12.765625 48.109375 
Q 20.015625 56 32.328125 56 
Q 43.359375 56 49.78125 48.890625 
Q 56.203125 41.796875 56.203125 29.59375 
M 47.21875 32.234375 
Q 47.125 39.59375 43.09375 43.984375 
Q 39.0625 48.390625 32.421875 48.390625 
Q 24.90625 48.390625 20.390625 44.140625 
Q 15.875 39.890625 15.1875 32.171875 
z
M 38.53125 79.984375 
L 48.25 79.984375 
L 32.34375 61.625 
L 24.859375 61.625 
z
" id="BitstreamVeraSans-Roman-e9"/>
     <path d="M 17.921875 72.90625 
L 17.921875 45.796875 
L 9.625 45.796875 
L 9.625 72.90625 
z
" id="BitstreamVeraSans-Roman-27"/>
    </defs>
    <g transform="translate(168.016475 23.32485)scale(0.2016 -0.2016)">
     <use xlink:href="#BitstreamVeraSans-Roman-52"/>
     <use x="69.419921875" xlink:href="#BitstreamVeraSans-Roman-e9"/>
     <use x="130.943359375" xlink:href="#BitstreamVeraSans-Roman-70"/>
     <use x="194.419921875" xlink:href="#BitstreamVeraSans-Roman-61"/>
     <use x="255.69921875" xlink:href="#BitstreamVeraSans-Roman-72"/>
     <use x="296.8125" xlink:href="#BitstreamVeraSans-Roman-74"/>
     <use x="336.021484375" xlink:href="#BitstreamVeraSans-Roman-69"/>
     <use x="363.8046875" xlink:href="#BitstreamVeraSans-Roman-74"/>
     <use x="403.013671875" xlink:href="#BitstreamVeraSans-Roman-69"/>
     <use x="430.796875" xlink:href="#BitstreamVeraSans-Roman-6f"/>
     <use x="491.978515625" xlink:href="#BitstreamVeraSans-Roman-6e"/>
     <use x="555.357421875" xlink:href="#BitstreamVeraSans-Roman-20"/>
     <use x="587.14453125" xlink:href="#BitstreamVeraSans-Roman-64"/>
     <use x="650.62109375" xlink:href="#BitstreamVeraSans-Roman-65"/>
     <use x="712.14453125" xlink:href="#BitstreamVeraSans-Roman-73"/>
     <use x="764.244140625" xlink:href="#BitstreamVeraSans-Roman-20"/>
     <use x="796.03125" xlink:href="#BitstreamVeraSans-Roman-74"/>
     <use x="835.240234375" xlink:href="#BitstreamVeraSans-Roman-79"/>
     <use x="894.419921875" xlink:href="#BitstreamVeraSans-Roman-70"/>
     <use x="957.896484375" xlink:href="#BitstreamVeraSans-Roman-65"/>
     <use x="1019.41992188" xlink:href="#BitstreamVeraSans-Roman-73"/>
     <use x="1071.51953125" xlink:href="#BitstreamVeraSans-Roman-20"/>
     <use x="1103.30664062" xlink:href="#BitstreamVeraSans-Roman-64"/>
     <use x="1166.78320312" xlink:href="#BitstreamVeraSans-Roman-27"/>
     <use x="1194.2734375" xlink:href="#BitstreamVeraSans-Roman-6f"/>
     <use x="1255.45507812" xlink:href="#BitstreamVeraSans-Roman-66"/>
     <use x="1290.66015625" xlink:href="#BitstreamVeraSans-Roman-66"/>
     <use x="1325.86523438" xlink:href="#BitstreamVeraSans-Roman-72"/>
     <use x="1366.94726562" xlink:href="#BitstreamVeraSans-Roman-65"/>
     <use x="1428.47070312" xlink:href="#BitstreamVeraSans-Roman-73"/>
    </g>
    <!-- dans les 10 villes ayant le plus d'offres -->
    <g transform="translate(121.187 45.89964)scale(0.2016 -0.2016)">
     <use xlink:href="#BitstreamVeraSans-Roman-64"/>
     <use x="63.4765625" xlink:href="#BitstreamVeraSans-Roman-61"/>
     <use x="124.755859375" xlink:href="#BitstreamVeraSans-Roman-6e"/>
     <use x="188.134765625" xlink:href="#BitstreamVeraSans-Roman-73"/>
     <use x="240.234375" xlink:href="#BitstreamVeraSans-Roman-20"/>
     <use x="272.021484375" xlink:href="#BitstreamVeraSans-Roman-6c"/>
     <use x="299.8046875" xlink:href="#BitstreamVeraSans-Roman-65"/>
     <use x="361.328125" xlink:href="#BitstreamVeraSans-Roman-73"/>
     <use x="413.427734375" xlink:href="#BitstreamVeraSans-Roman-20"/>
     <use x="445.21484375" xlink:href="#BitstreamVeraSans-Roman-31"/>
     <use x="508.837890625" xlink:href="#BitstreamVeraSans-Roman-30"/>
     <use x="572.4609375" xlink:href="#BitstreamVeraSans-Roman-20"/>
     <use x="604.248046875" xlink:href="#BitstreamVeraSans-Roman-76"/>
     <use x="663.427734375" xlink:href="#BitstreamVeraSans-Roman-69"/>
     <use x="691.2109375" xlink:href="#BitstreamVeraSans-Roman-6c"/>
     <use x="718.994140625" xlink:href="#BitstreamVeraSans-Roman-6c"/>
     <use x="746.77734375" xlink:href="#BitstreamVeraSans-Roman-65"/>
     <use x="808.30078125" xlink:href="#BitstreamVeraSans-Roman-73"/>
     <use x="860.400390625" xlink:href="#BitstreamVeraSans-Roman-20"/>
     <use x="892.1875" xlink:href="#BitstreamVeraSans-Roman-61"/>
     <use x="953.466796875" xlink:href="#BitstreamVeraSans-Roman-79"/>
     <use x="1012.64648438" xlink:href="#BitstreamVeraSans-Roman-61"/>
     <use x="1073.92578125" xlink:href="#BitstreamVeraSans-Roman-6e"/>
     <use x="1137.3046875" xlink:href="#BitstreamVeraSans-Roman-74"/>
     <use x="1176.51367188" xlink:href="#BitstreamVeraSans-Roman-20"/>
     <use x="1208.30078125" xlink:href="#BitstreamVeraSans-Roman-6c"/>
     <use x="1236.08398438" xlink:href="#BitstreamVeraSans-Roman-65"/>
     <use x="1297.60742188" xlink:href="#BitstreamVeraSans-Roman-20"/>
     <use x="1329.39453125" xlink:href="#BitstreamVeraSans-Roman-70"/>
     <use x="1392.87109375" xlink:href="#BitstreamVeraSans-Roman-6c"/>
     <use x="1420.65429688" xlink:href="#BitstreamVeraSans-Roman-75"/>
     <use x="1484.03320312" xlink:href="#BitstreamVeraSans-Roman-73"/>
     <use x="1536.1328125" xlink:href="#BitstreamVeraSans-Roman-20"/>
     <use x="1567.91992188" xlink:href="#BitstreamVeraSans-Roman-64"/>
     <use x="1631.39648438" xlink:href="#BitstreamVeraSans-Roman-27"/>
     <use x="1658.88671875" xlink:href="#BitstreamVeraSans-Roman-6f"/>
     <use x="1720.06835938" xlink:href="#BitstreamVeraSans-Roman-66"/>
     <use x="1755.2734375" xlink:href="#BitstreamVeraSans-Roman-66"/>
     <use x="1790.47851562" xlink:href="#BitstreamVeraSans-Roman-72"/>
     <use x="1831.56054688" xlink:href="#BitstreamVeraSans-Roman-65"/>
     <use x="1893.08398438" xlink:href="#BitstreamVeraSans-Roman-73"/>
    </g>
   </g>
   <g id="legend_1">
    <g id="patch_47">
     <path d="M 86.36375 501.61772 
L 548.15375 501.61772 
Q 551.51375 501.61772 551.51375 498.25772 
L 551.51375 475.27847 
Q 551.51375 471.91847 548.15375 471.91847 
L 86.36375 471.91847 
Q 83.00375 471.91847 83.00375 475.27847 
L 83.00375 498.25772 
Q 83.00375 501.61772 86.36375 501.61772 
z
" style="fill:#f0f0f0;stroke:#f0f0f0;stroke-linejoin:miter;"/>
    </g>
    <g id="patch_48">
     <path d="M 89.72375 491.403845 
L 123.32375 491.403845 
L 123.32375 479.643845 
L 89.72375 479.643845 
z
" style="fill:#ffa500;stroke:#ffffff;stroke-linejoin:miter;"/>
    </g>
    <g id="text_28">
     <!-- CDD -->
     <defs>
      <path d="M 19.671875 64.796875 
L 19.671875 8.109375 
L 31.59375 8.109375 
Q 46.6875 8.109375 53.6875 14.9375 
Q 60.6875 21.78125 60.6875 36.53125 
Q 60.6875 51.171875 53.6875 57.984375 
Q 46.6875 64.796875 31.59375 64.796875 
z
M 9.8125 72.90625 
L 30.078125 72.90625 
Q 51.265625 72.90625 61.171875 64.09375 
Q 71.09375 55.28125 71.09375 36.53125 
Q 71.09375 17.671875 61.125 8.828125 
Q 51.171875 0 30.078125 0 
L 9.8125 0 
z
" id="BitstreamVeraSans-Roman-44"/>
      <path d="M 64.40625 67.28125 
L 64.40625 56.890625 
Q 59.421875 61.53125 53.78125 63.8125 
Q 48.140625 66.109375 41.796875 66.109375 
Q 29.296875 66.109375 22.65625 58.46875 
Q 16.015625 50.828125 16.015625 36.375 
Q 16.015625 21.96875 22.65625 14.328125 
Q 29.296875 6.6875 41.796875 6.6875 
Q 48.140625 6.6875 53.78125 8.984375 
Q 59.421875 11.28125 64.40625 15.921875 
L 64.40625 5.609375 
Q 59.234375 2.09375 53.4375 0.328125 
Q 47.65625 -1.421875 41.21875 -1.421875 
Q 24.65625 -1.421875 15.125 8.703125 
Q 5.609375 18.84375 5.609375 36.375 
Q 5.609375 53.953125 15.125 64.078125 
Q 24.65625 74.21875 41.21875 74.21875 
Q 47.75 74.21875 53.53125 72.484375 
Q 59.328125 70.75 64.40625 67.28125 
" id="BitstreamVeraSans-Roman-43"/>
     </defs>
     <g transform="translate(136.76375 491.403845)scale(0.168 -0.168)">
      <use xlink:href="#BitstreamVeraSans-Roman-43"/>
      <use x="69.82421875" xlink:href="#BitstreamVeraSans-Roman-44"/>
      <use x="146.826171875" xlink:href="#BitstreamVeraSans-Roman-44"/>
     </g>
    </g>
    <g id="patch_49">
     <path d="M 207.966875 491.403845 
L 241.566875 491.403845 
L 241.566875 479.643845 
L 207.966875 479.643845 
z
" style="fill:#deb887;stroke:#ffffff;stroke-linejoin:miter;"/>
    </g>
    <g id="text_29">
     <!-- CDI -->
     <defs>
      <path d="M 9.8125 72.90625 
L 19.671875 72.90625 
L 19.671875 0 
L 9.8125 0 
z
" id="BitstreamVeraSans-Roman-49"/>
     </defs>
     <g transform="translate(255.006875 491.403845)scale(0.168 -0.168)">
      <use xlink:href="#BitstreamVeraSans-Roman-43"/>
      <use x="69.82421875" xlink:href="#BitstreamVeraSans-Roman-44"/>
      <use x="146.826171875" xlink:href="#BitstreamVeraSans-Roman-49"/>
     </g>
    </g>
    <g id="patch_50">
     <path d="M 318.23 491.403845 
L 351.83 491.403845 
L 351.83 479.643845 
L 318.23 479.643845 
z
" style="fill:#a52a2a;stroke:#ffffff;stroke-linejoin:miter;"/>
    </g>
    <g id="text_30">
     <!-- Stage -->
     <defs>
      <path d="M 45.40625 27.984375 
Q 45.40625 37.75 41.375 43.109375 
Q 37.359375 48.484375 30.078125 48.484375 
Q 22.859375 48.484375 18.828125 43.109375 
Q 14.796875 37.75 14.796875 27.984375 
Q 14.796875 18.265625 18.828125 12.890625 
Q 22.859375 7.515625 30.078125 7.515625 
Q 37.359375 7.515625 41.375 12.890625 
Q 45.40625 18.265625 45.40625 27.984375 
M 54.390625 6.78125 
Q 54.390625 -7.171875 48.1875 -13.984375 
Q 42 -20.796875 29.203125 -20.796875 
Q 24.46875 -20.796875 20.265625 -20.09375 
Q 16.0625 -19.390625 12.109375 -17.921875 
L 12.109375 -9.1875 
Q 16.0625 -11.328125 19.921875 -12.34375 
Q 23.78125 -13.375 27.78125 -13.375 
Q 36.625 -13.375 41.015625 -8.765625 
Q 45.40625 -4.15625 45.40625 5.171875 
L 45.40625 9.625 
Q 42.625 4.78125 38.28125 2.390625 
Q 33.9375 0 27.875 0 
Q 17.828125 0 11.671875 7.65625 
Q 5.515625 15.328125 5.515625 27.984375 
Q 5.515625 40.671875 11.671875 48.328125 
Q 17.828125 56 27.875 56 
Q 33.9375 56 38.28125 53.609375 
Q 42.625 51.21875 45.40625 46.390625 
L 45.40625 54.6875 
L 54.390625 54.6875 
z
" id="BitstreamVeraSans-Roman-67"/>
     </defs>
     <g transform="translate(365.27 491.403845)scale(0.168 -0.168)">
      <use xlink:href="#BitstreamVeraSans-Roman-53"/>
      <use x="63.4765625" xlink:href="#BitstreamVeraSans-Roman-74"/>
      <use x="102.685546875" xlink:href="#BitstreamVeraSans-Roman-61"/>
      <use x="163.96484375" xlink:href="#BitstreamVeraSans-Roman-67"/>
      <use x="227.44140625" xlink:href="#BitstreamVeraSans-Roman-65"/>
     </g>
    </g>
    <g id="patch_51">
     <path d="M 447.419375 491.403845 
L 481.019375 491.403845 
L 481.019375 479.643845 
L 447.419375 479.643845 
z
" style="fill:#6495ed;stroke:#ffffff;stroke-linejoin:miter;"/>
    </g>
    <g id="text_31">
     <!-- Thse -->
     <defs>
      <path d="M 56.203125 29.59375 
L 56.203125 25.203125 
L 14.890625 25.203125 
Q 15.484375 15.921875 20.484375 11.0625 
Q 25.484375 6.203125 34.421875 6.203125 
Q 39.59375 6.203125 44.453125 7.46875 
Q 49.3125 8.734375 54.109375 11.28125 
L 54.109375 2.78125 
Q 49.265625 0.734375 44.1875 -0.34375 
Q 39.109375 -1.421875 33.890625 -1.421875 
Q 20.796875 -1.421875 13.15625 6.1875 
Q 5.515625 13.8125 5.515625 26.8125 
Q 5.515625 40.234375 12.765625 48.109375 
Q 20.015625 56 32.328125 56 
Q 43.359375 56 49.78125 48.890625 
Q 56.203125 41.796875 56.203125 29.59375 
M 47.21875 32.234375 
Q 47.125 39.59375 43.09375 43.984375 
Q 39.0625 48.390625 32.421875 48.390625 
Q 24.90625 48.390625 20.390625 44.140625 
Q 15.875 39.890625 15.1875 32.171875 
z
M 24.671875 79.984375 
L 38.4375 61.71875 
L 30.96875 61.71875 
L 15.046875 79.984375 
z
" id="BitstreamVeraSans-Roman-e8"/>
      <path d="M 54.890625 33.015625 
L 54.890625 0 
L 45.90625 0 
L 45.90625 32.71875 
Q 45.90625 40.484375 42.875 44.328125 
Q 39.84375 48.1875 33.796875 48.1875 
Q 26.515625 48.1875 22.3125 43.546875 
Q 18.109375 38.921875 18.109375 30.90625 
L 18.109375 0 
L 9.078125 0 
L 9.078125 75.984375 
L 18.109375 75.984375 
L 18.109375 46.1875 
Q 21.34375 51.125 25.703125 53.5625 
Q 30.078125 56 35.796875 56 
Q 45.21875 56 50.046875 50.171875 
Q 54.890625 44.34375 54.890625 33.015625 
" id="BitstreamVeraSans-Roman-68"/>
     </defs>
     <g transform="translate(494.459375 491.403845)scale(0.168 -0.168)">
      <use xlink:href="#BitstreamVeraSans-Roman-54"/>
      <use x="61.083984375" xlink:href="#BitstreamVeraSans-Roman-68"/>
      <use x="124.462890625" xlink:href="#BitstreamVeraSans-Roman-e8"/>
      <use x="185.986328125" xlink:href="#BitstreamVeraSans-Roman-73"/>
      <use x="238.0859375" xlink:href="#BitstreamVeraSans-Roman-65"/>
     </g>
    </g>
   </g>
  </g>
 </g>
 <defs>
  <clipPath id="p41eada45b7">
   <rect height="358.56" width="501.12" x="66.69875" y="79.74572"/>
  </clipPath>
 </defs>
</svg>
