<?xml version="1.0" encoding="utf-8" standalone="no"?>
<!DOCTYPE svg PUBLIC "-//W3C//DTD SVG 1.1//EN"
  "http://www.w3.org/Graphics/SVG/1.1/DTD/svg11.dtd">
<!-- Created with matplotlib (http://matplotlib.org/) -->
<svg height="477pt" version="1.1" viewBox="0 0 723 477" width="723pt" xmlns="http://www.w3.org/2000/svg" xmlns:xlink="http://www.w3.org/1999/xlink">
 <defs>
  <style type="text/css">
*{stroke-linecap:butt;stroke-linejoin:round;stroke-miterlimit:100000;}
  </style>
 </defs>
 <g id="figure_1">
  <g id="patch_1">
   <path d="M 0 477.255213 
L 723.593625 477.255213 
L 723.593625 0 
L 0 0 
z
" style="fill:#f0f0f0;"/>
  </g>
  <g id="axes_1">
   <g id="patch_2">
    <path d="M 71.033625 415.56965 
L 572.153625 415.56965 
L 572.153625 57.00965 
L 71.033625 57.00965 
z
" style="fill:#f0f0f0;"/>
   </g>
   <g id="matplotlib.axis_1">
    <g id="xtick_1">
     <g id="line2d_1">
      <path clip-path="url(#p7c8a687739)" d="M 153.657968 415.56965 
L 153.657968 57.00965 
" style="fill:none;stroke:#cbcbcb;"/>
     </g>
     <g id="line2d_2">
      <defs>
       <path d="M 0 0 
L 0 0 
" id="m187896ff62" style="stroke:#000000;stroke-width:0.5;"/>
      </defs>
      <g>
       <use style="stroke:#000000;stroke-width:0.5;" x="153.657968164" xlink:href="#m187896ff62" y="415.56965"/>
      </g>
     </g>
     <g id="line2d_3">
      <g>
       <use style="stroke:#000000;stroke-width:0.5;" x="153.657968164" xlink:href="#m187896ff62" y="57.00965"/>
      </g>
     </g>
     <g id="text_1">
      <!-- Jan -->
      <defs>
       <path d="M 54.890625 33.015625 
L 54.890625 0 
L 45.90625 0 
L 45.90625 32.71875 
Q 45.90625 40.484375 42.875 44.328125 
Q 39.84375 48.1875 33.796875 48.1875 
Q 26.515625 48.1875 22.3125 43.546875 
Q 18.109375 38.921875 18.109375 30.90625 
L 18.109375 0 
L 9.078125 0 
L 9.078125 54.6875 
L 18.109375 54.6875 
L 18.109375 46.1875 
Q 21.34375 51.125 25.703125 53.5625 
Q 30.078125 56 35.796875 56 
Q 45.21875 56 50.046875 50.171875 
Q 54.890625 44.34375 54.890625 33.015625 
" id="BitstreamVeraSans-Roman-6e"/>
       <path d="M 34.28125 27.484375 
Q 23.390625 27.484375 19.1875 25 
Q 14.984375 22.515625 14.984375 16.5 
Q 14.984375 11.71875 18.140625 8.90625 
Q 21.296875 6.109375 26.703125 6.109375 
Q 34.1875 6.109375 38.703125 11.40625 
Q 43.21875 16.703125 43.21875 25.484375 
L 43.21875 27.484375 
z
M 52.203125 31.203125 
L 52.203125 0 
L 43.21875 0 
L 43.21875 8.296875 
Q 40.140625 3.328125 35.546875 0.953125 
Q 30.953125 -1.421875 24.3125 -1.421875 
Q 15.921875 -1.421875 10.953125 3.296875 
Q 6 8.015625 6 15.921875 
Q 6 25.140625 12.171875 29.828125 
Q 18.359375 34.515625 30.609375 34.515625 
L 43.21875 34.515625 
L 43.21875 35.40625 
Q 43.21875 41.609375 39.140625 45 
Q 35.0625 48.390625 27.6875 48.390625 
Q 23 48.390625 18.546875 47.265625 
Q 14.109375 46.140625 10.015625 43.890625 
L 10.015625 52.203125 
Q 14.9375 54.109375 19.578125 55.046875 
Q 24.21875 56 28.609375 56 
Q 40.484375 56 46.34375 49.84375 
Q 52.203125 43.703125 52.203125 31.203125 
" id="BitstreamVeraSans-Roman-61"/>
       <path d="M 9.8125 72.90625 
L 19.671875 72.90625 
L 19.671875 5.078125 
Q 19.671875 -8.109375 14.671875 -14.0625 
Q 9.671875 -20.015625 -1.421875 -20.015625 
L -5.171875 -20.015625 
L -5.171875 -11.71875 
L -2.09375 -11.71875 
Q 4.4375 -11.71875 7.125 -8.046875 
Q 9.8125 -4.390625 9.8125 5.078125 
z
" id="BitstreamVeraSans-Roman-4a"/>
      </defs>
      <g transform="translate(142.867030664 430.2074625)scale(0.14 -0.14)">
       <use xlink:href="#BitstreamVeraSans-Roman-4a"/>
       <use x="29.4921875" xlink:href="#BitstreamVeraSans-Roman-61"/>
       <use x="90.771484375" xlink:href="#BitstreamVeraSans-Roman-6e"/>
      </g>
      <!-- 2013 -->
      <defs>
       <path d="M 19.1875 8.296875 
L 53.609375 8.296875 
L 53.609375 0 
L 7.328125 0 
L 7.328125 8.296875 
Q 12.9375 14.109375 22.625 23.890625 
Q 32.328125 33.6875 34.8125 36.53125 
Q 39.546875 41.84375 41.421875 45.53125 
Q 43.3125 49.21875 43.3125 52.78125 
Q 43.3125 58.59375 39.234375 62.25 
Q 35.15625 65.921875 28.609375 65.921875 
Q 23.96875 65.921875 18.8125 64.3125 
Q 13.671875 62.703125 7.8125 59.421875 
L 7.8125 69.390625 
Q 13.765625 71.78125 18.9375 73 
Q 24.125 74.21875 28.421875 74.21875 
Q 39.75 74.21875 46.484375 68.546875 
Q 53.21875 62.890625 53.21875 53.421875 
Q 53.21875 48.921875 51.53125 44.890625 
Q 49.859375 40.875 45.40625 35.40625 
Q 44.1875 33.984375 37.640625 27.21875 
Q 31.109375 20.453125 19.1875 8.296875 
" id="BitstreamVeraSans-Roman-32"/>
       <path d="M 40.578125 39.3125 
Q 47.65625 37.796875 51.625 33 
Q 55.609375 28.21875 55.609375 21.1875 
Q 55.609375 10.40625 48.1875 4.484375 
Q 40.765625 -1.421875 27.09375 -1.421875 
Q 22.515625 -1.421875 17.65625 -0.515625 
Q 12.796875 0.390625 7.625 2.203125 
L 7.625 11.71875 
Q 11.71875 9.328125 16.59375 8.109375 
Q 21.484375 6.890625 26.8125 6.890625 
Q 36.078125 6.890625 40.9375 10.546875 
Q 45.796875 14.203125 45.796875 21.1875 
Q 45.796875 27.640625 41.28125 31.265625 
Q 36.765625 34.90625 28.71875 34.90625 
L 20.21875 34.90625 
L 20.21875 43.015625 
L 29.109375 43.015625 
Q 36.375 43.015625 40.234375 45.921875 
Q 44.09375 48.828125 44.09375 54.296875 
Q 44.09375 59.90625 40.109375 62.90625 
Q 36.140625 65.921875 28.71875 65.921875 
Q 24.65625 65.921875 20.015625 65.03125 
Q 15.375 64.15625 9.8125 62.3125 
L 9.8125 71.09375 
Q 15.4375 72.65625 20.34375 73.4375 
Q 25.25 74.21875 29.59375 74.21875 
Q 40.828125 74.21875 47.359375 69.109375 
Q 53.90625 64.015625 53.90625 55.328125 
Q 53.90625 49.265625 50.4375 45.09375 
Q 46.96875 40.921875 40.578125 39.3125 
" id="BitstreamVeraSans-Roman-33"/>
       <path d="M 31.78125 66.40625 
Q 24.171875 66.40625 20.328125 58.90625 
Q 16.5 51.421875 16.5 36.375 
Q 16.5 21.390625 20.328125 13.890625 
Q 24.171875 6.390625 31.78125 6.390625 
Q 39.453125 6.390625 43.28125 13.890625 
Q 47.125 21.390625 47.125 36.375 
Q 47.125 51.421875 43.28125 58.90625 
Q 39.453125 66.40625 31.78125 66.40625 
M 31.78125 74.21875 
Q 44.046875 74.21875 50.515625 64.515625 
Q 56.984375 54.828125 56.984375 36.375 
Q 56.984375 17.96875 50.515625 8.265625 
Q 44.046875 -1.421875 31.78125 -1.421875 
Q 19.53125 -1.421875 13.0625 8.265625 
Q 6.59375 17.96875 6.59375 36.375 
Q 6.59375 54.828125 13.0625 64.515625 
Q 19.53125 74.21875 31.78125 74.21875 
" id="BitstreamVeraSans-Roman-30"/>
       <path d="M 12.40625 8.296875 
L 28.515625 8.296875 
L 28.515625 63.921875 
L 10.984375 60.40625 
L 10.984375 69.390625 
L 28.421875 72.90625 
L 38.28125 72.90625 
L 38.28125 8.296875 
L 54.390625 8.296875 
L 54.390625 0 
L 12.40625 0 
z
" id="BitstreamVeraSans-Roman-31"/>
      </defs>
      <g transform="translate(135.842968164 445.8844)scale(0.14 -0.14)">
       <use xlink:href="#BitstreamVeraSans-Roman-32"/>
       <use x="63.623046875" xlink:href="#BitstreamVeraSans-Roman-30"/>
       <use x="127.24609375" xlink:href="#BitstreamVeraSans-Roman-31"/>
       <use x="190.869140625" xlink:href="#BitstreamVeraSans-Roman-33"/>
      </g>
     </g>
    </g>
    <g id="xtick_2">
     <g id="line2d_4">
      <path clip-path="url(#p7c8a687739)" d="M 276.250998 415.56965 
L 276.250998 57.00965 
" style="fill:none;stroke:#cbcbcb;"/>
     </g>
     <g id="line2d_5">
      <g>
       <use style="stroke:#000000;stroke-width:0.5;" x="276.250997654" xlink:href="#m187896ff62" y="415.56965"/>
      </g>
     </g>
     <g id="line2d_6">
      <g>
       <use style="stroke:#000000;stroke-width:0.5;" x="276.250997654" xlink:href="#m187896ff62" y="57.00965"/>
      </g>
     </g>
     <g id="text_2">
      <!-- Jan -->
      <g transform="translate(265.460060154 430.2074625)scale(0.14 -0.14)">
       <use xlink:href="#BitstreamVeraSans-Roman-4a"/>
       <use x="29.4921875" xlink:href="#BitstreamVeraSans-Roman-61"/>
       <use x="90.771484375" xlink:href="#BitstreamVeraSans-Roman-6e"/>
      </g>
      <!-- 2014 -->
      <defs>
       <path d="M 37.796875 64.3125 
L 12.890625 25.390625 
L 37.796875 25.390625 
z
M 35.203125 72.90625 
L 47.609375 72.90625 
L 47.609375 25.390625 
L 58.015625 25.390625 
L 58.015625 17.1875 
L 47.609375 17.1875 
L 47.609375 0 
L 37.796875 0 
L 37.796875 17.1875 
L 4.890625 17.1875 
L 4.890625 26.703125 
z
" id="BitstreamVeraSans-Roman-34"/>
      </defs>
      <g transform="translate(258.435997654 445.8844)scale(0.14 -0.14)">
       <use xlink:href="#BitstreamVeraSans-Roman-32"/>
       <use x="63.623046875" xlink:href="#BitstreamVeraSans-Roman-30"/>
       <use x="127.24609375" xlink:href="#BitstreamVeraSans-Roman-31"/>
       <use x="190.869140625" xlink:href="#BitstreamVeraSans-Roman-34"/>
      </g>
     </g>
    </g>
    <g id="xtick_3">
     <g id="line2d_7">
      <path clip-path="url(#p7c8a687739)" d="M 398.844027 415.56965 
L 398.844027 57.00965 
" style="fill:none;stroke:#cbcbcb;"/>
     </g>
     <g id="line2d_8">
      <g>
       <use style="stroke:#000000;stroke-width:0.5;" x="398.844027145" xlink:href="#m187896ff62" y="415.56965"/>
      </g>
     </g>
     <g id="line2d_9">
      <g>
       <use style="stroke:#000000;stroke-width:0.5;" x="398.844027145" xlink:href="#m187896ff62" y="57.00965"/>
      </g>
     </g>
     <g id="text_3">
      <!-- Jan -->
      <g transform="translate(388.053089645 430.2074625)scale(0.14 -0.14)">
       <use xlink:href="#BitstreamVeraSans-Roman-4a"/>
       <use x="29.4921875" xlink:href="#BitstreamVeraSans-Roman-61"/>
       <use x="90.771484375" xlink:href="#BitstreamVeraSans-Roman-6e"/>
      </g>
      <!-- 2015 -->
      <defs>
       <path d="M 10.796875 72.90625 
L 49.515625 72.90625 
L 49.515625 64.59375 
L 19.828125 64.59375 
L 19.828125 46.734375 
Q 21.96875 47.46875 24.109375 47.828125 
Q 26.265625 48.1875 28.421875 48.1875 
Q 40.625 48.1875 47.75 41.5 
Q 54.890625 34.8125 54.890625 23.390625 
Q 54.890625 11.625 47.5625 5.09375 
Q 40.234375 -1.421875 26.90625 -1.421875 
Q 22.3125 -1.421875 17.546875 -0.640625 
Q 12.796875 0.140625 7.71875 1.703125 
L 7.71875 11.625 
Q 12.109375 9.234375 16.796875 8.0625 
Q 21.484375 6.890625 26.703125 6.890625 
Q 35.15625 6.890625 40.078125 11.328125 
Q 45.015625 15.765625 45.015625 23.390625 
Q 45.015625 31 40.078125 35.4375 
Q 35.15625 39.890625 26.703125 39.890625 
Q 22.75 39.890625 18.8125 39.015625 
Q 14.890625 38.140625 10.796875 36.28125 
z
" id="BitstreamVeraSans-Roman-35"/>
      </defs>
      <g transform="translate(381.029027145 445.8844)scale(0.14 -0.14)">
       <use xlink:href="#BitstreamVeraSans-Roman-32"/>
       <use x="63.623046875" xlink:href="#BitstreamVeraSans-Roman-30"/>
       <use x="127.24609375" xlink:href="#BitstreamVeraSans-Roman-31"/>
       <use x="190.869140625" xlink:href="#BitstreamVeraSans-Roman-35"/>
      </g>
     </g>
    </g>
    <g id="xtick_4">
     <g id="line2d_10">
      <path clip-path="url(#p7c8a687739)" d="M 521.437057 415.56965 
L 521.437057 57.00965 
" style="fill:none;stroke:#cbcbcb;"/>
     </g>
     <g id="line2d_11">
      <g>
       <use style="stroke:#000000;stroke-width:0.5;" x="521.437056635" xlink:href="#m187896ff62" y="415.56965"/>
      </g>
     </g>
     <g id="line2d_12">
      <g>
       <use style="stroke:#000000;stroke-width:0.5;" x="521.437056635" xlink:href="#m187896ff62" y="57.00965"/>
      </g>
     </g>
     <g id="text_4">
      <!-- Jan -->
      <g transform="translate(510.646119135 430.2074625)scale(0.14 -0.14)">
       <use xlink:href="#BitstreamVeraSans-Roman-4a"/>
       <use x="29.4921875" xlink:href="#BitstreamVeraSans-Roman-61"/>
       <use x="90.771484375" xlink:href="#BitstreamVeraSans-Roman-6e"/>
      </g>
      <!-- 2016 -->
      <defs>
       <path d="M 33.015625 40.375 
Q 26.375 40.375 22.484375 35.828125 
Q 18.609375 31.296875 18.609375 23.390625 
Q 18.609375 15.53125 22.484375 10.953125 
Q 26.375 6.390625 33.015625 6.390625 
Q 39.65625 6.390625 43.53125 10.953125 
Q 47.40625 15.53125 47.40625 23.390625 
Q 47.40625 31.296875 43.53125 35.828125 
Q 39.65625 40.375 33.015625 40.375 
M 52.59375 71.296875 
L 52.59375 62.3125 
Q 48.875 64.0625 45.09375 64.984375 
Q 41.3125 65.921875 37.59375 65.921875 
Q 27.828125 65.921875 22.671875 59.328125 
Q 17.53125 52.734375 16.796875 39.40625 
Q 19.671875 43.65625 24.015625 45.921875 
Q 28.375 48.1875 33.59375 48.1875 
Q 44.578125 48.1875 50.953125 41.515625 
Q 57.328125 34.859375 57.328125 23.390625 
Q 57.328125 12.15625 50.6875 5.359375 
Q 44.046875 -1.421875 33.015625 -1.421875 
Q 20.359375 -1.421875 13.671875 8.265625 
Q 6.984375 17.96875 6.984375 36.375 
Q 6.984375 53.65625 15.1875 63.9375 
Q 23.390625 74.21875 37.203125 74.21875 
Q 40.921875 74.21875 44.703125 73.484375 
Q 48.484375 72.75 52.59375 71.296875 
" id="BitstreamVeraSans-Roman-36"/>
      </defs>
      <g transform="translate(503.622056635 445.8844)scale(0.14 -0.14)">
       <use xlink:href="#BitstreamVeraSans-Roman-32"/>
       <use x="63.623046875" xlink:href="#BitstreamVeraSans-Roman-30"/>
       <use x="127.24609375" xlink:href="#BitstreamVeraSans-Roman-31"/>
       <use x="190.869140625" xlink:href="#BitstreamVeraSans-Roman-36"/>
      </g>
     </g>
    </g>
    <g id="xtick_5">
     <g id="line2d_13">
      <g>
       <use style="stroke:#000000;stroke-width:0.5;" x="91.8576464477" xlink:href="#m187896ff62" y="415.56965"/>
      </g>
     </g>
     <g id="line2d_14">
      <g>
       <use style="stroke:#000000;stroke-width:0.5;" x="91.8576464477" xlink:href="#m187896ff62" y="57.00965"/>
      </g>
     </g>
     <g id="text_5">
      <!-- Jul -->
      <defs>
       <path d="M 8.5 21.578125 
L 8.5 54.6875 
L 17.484375 54.6875 
L 17.484375 21.921875 
Q 17.484375 14.15625 20.5 10.265625 
Q 23.53125 6.390625 29.59375 6.390625 
Q 36.859375 6.390625 41.078125 11.03125 
Q 45.3125 15.671875 45.3125 23.6875 
L 45.3125 54.6875 
L 54.296875 54.6875 
L 54.296875 0 
L 45.3125 0 
L 45.3125 8.40625 
Q 42.046875 3.421875 37.71875 1 
Q 33.40625 -1.421875 27.6875 -1.421875 
Q 18.265625 -1.421875 13.375 4.4375 
Q 8.5 10.296875 8.5 21.578125 
" id="BitstreamVeraSans-Roman-75"/>
       <path d="M 9.421875 75.984375 
L 18.40625 75.984375 
L 18.40625 0 
L 9.421875 0 
z
" id="BitstreamVeraSans-Roman-6c"/>
      </defs>
      <g transform="translate(83.4117089477 430.2074625)scale(0.14 -0.14)">
       <use xlink:href="#BitstreamVeraSans-Roman-4a"/>
       <use x="29.4921875" xlink:href="#BitstreamVeraSans-Roman-75"/>
       <use x="92.87109375" xlink:href="#BitstreamVeraSans-Roman-6c"/>
      </g>
     </g>
    </g>
    <g id="xtick_6">
     <g id="line2d_15">
      <g>
       <use style="stroke:#000000;stroke-width:0.5;" x="214.450675938" xlink:href="#m187896ff62" y="415.56965"/>
      </g>
     </g>
     <g id="line2d_16">
      <g>
       <use style="stroke:#000000;stroke-width:0.5;" x="214.450675938" xlink:href="#m187896ff62" y="57.00965"/>
      </g>
     </g>
     <g id="text_6">
      <!-- Jul -->
      <g transform="translate(206.004738438 430.2074625)scale(0.14 -0.14)">
       <use xlink:href="#BitstreamVeraSans-Roman-4a"/>
       <use x="29.4921875" xlink:href="#BitstreamVeraSans-Roman-75"/>
       <use x="92.87109375" xlink:href="#BitstreamVeraSans-Roman-6c"/>
      </g>
     </g>
    </g>
    <g id="xtick_7">
     <g id="line2d_17">
      <g>
       <use style="stroke:#000000;stroke-width:0.5;" x="337.043705429" xlink:href="#m187896ff62" y="415.56965"/>
      </g>
     </g>
     <g id="line2d_18">
      <g>
       <use style="stroke:#000000;stroke-width:0.5;" x="337.043705429" xlink:href="#m187896ff62" y="57.00965"/>
      </g>
     </g>
     <g id="text_7">
      <!-- Jul -->
      <g transform="translate(328.597767929 430.2074625)scale(0.14 -0.14)">
       <use xlink:href="#BitstreamVeraSans-Roman-4a"/>
       <use x="29.4921875" xlink:href="#BitstreamVeraSans-Roman-75"/>
       <use x="92.87109375" xlink:href="#BitstreamVeraSans-Roman-6c"/>
      </g>
     </g>
    </g>
    <g id="xtick_8">
     <g id="line2d_19">
      <g>
       <use style="stroke:#000000;stroke-width:0.5;" x="459.63673492" xlink:href="#m187896ff62" y="415.56965"/>
      </g>
     </g>
     <g id="line2d_20">
      <g>
       <use style="stroke:#000000;stroke-width:0.5;" x="459.63673492" xlink:href="#m187896ff62" y="57.00965"/>
      </g>
     </g>
     <g id="text_8">
      <!-- Jul -->
      <g transform="translate(451.19079742 430.2074625)scale(0.14 -0.14)">
       <use xlink:href="#BitstreamVeraSans-Roman-4a"/>
       <use x="29.4921875" xlink:href="#BitstreamVeraSans-Roman-75"/>
       <use x="92.87109375" xlink:href="#BitstreamVeraSans-Roman-6c"/>
      </g>
     </g>
    </g>
    <g id="text_9">
     <!-- Date -->
     <defs>
      <path d="M 56.203125 29.59375 
L 56.203125 25.203125 
L 14.890625 25.203125 
Q 15.484375 15.921875 20.484375 11.0625 
Q 25.484375 6.203125 34.421875 6.203125 
Q 39.59375 6.203125 44.453125 7.46875 
Q 49.3125 8.734375 54.109375 11.28125 
L 54.109375 2.78125 
Q 49.265625 0.734375 44.1875 -0.34375 
Q 39.109375 -1.421875 33.890625 -1.421875 
Q 20.796875 -1.421875 13.15625 6.1875 
Q 5.515625 13.8125 5.515625 26.8125 
Q 5.515625 40.234375 12.765625 48.109375 
Q 20.015625 56 32.328125 56 
Q 43.359375 56 49.78125 48.890625 
Q 56.203125 41.796875 56.203125 29.59375 
M 47.21875 32.234375 
Q 47.125 39.59375 43.09375 43.984375 
Q 39.0625 48.390625 32.421875 48.390625 
Q 24.90625 48.390625 20.390625 44.140625 
Q 15.875 39.890625 15.1875 32.171875 
z
" id="BitstreamVeraSans-Roman-65"/>
      <path d="M 18.3125 70.21875 
L 18.3125 54.6875 
L 36.8125 54.6875 
L 36.8125 47.703125 
L 18.3125 47.703125 
L 18.3125 18.015625 
Q 18.3125 11.328125 20.140625 9.421875 
Q 21.96875 7.515625 27.59375 7.515625 
L 36.8125 7.515625 
L 36.8125 0 
L 27.59375 0 
Q 17.1875 0 13.234375 3.875 
Q 9.28125 7.765625 9.28125 18.015625 
L 9.28125 47.703125 
L 2.6875 47.703125 
L 2.6875 54.6875 
L 9.28125 54.6875 
L 9.28125 70.21875 
z
" id="BitstreamVeraSans-Roman-74"/>
      <path d="M 19.671875 64.796875 
L 19.671875 8.109375 
L 31.59375 8.109375 
Q 46.6875 8.109375 53.6875 14.9375 
Q 60.6875 21.78125 60.6875 36.53125 
Q 60.6875 51.171875 53.6875 57.984375 
Q 46.6875 64.796875 31.59375 64.796875 
z
M 9.8125 72.90625 
L 30.078125 72.90625 
Q 51.265625 72.90625 61.171875 64.09375 
Q 71.09375 55.28125 71.09375 36.53125 
Q 71.09375 17.671875 61.125 8.828125 
Q 51.171875 0 30.078125 0 
L 9.8125 0 
z
" id="BitstreamVeraSans-Roman-44"/>
     </defs>
     <g transform="translate(301.5163125 466.5613375)scale(0.168 -0.168)">
      <use xlink:href="#BitstreamVeraSans-Roman-44"/>
      <use x="77.001953125" xlink:href="#BitstreamVeraSans-Roman-61"/>
      <use x="138.28125" xlink:href="#BitstreamVeraSans-Roman-74"/>
      <use x="177.490234375" xlink:href="#BitstreamVeraSans-Roman-65"/>
     </g>
    </g>
   </g>
   <g id="matplotlib.axis_2">
    <g id="ytick_1">
     <g id="line2d_21">
      <path clip-path="url(#p7c8a687739)" d="M 71.033625 415.56965 
L 572.153625 415.56965 
" style="fill:none;stroke:#cbcbcb;"/>
     </g>
     <g id="line2d_22">
      <g>
       <use style="stroke:#000000;stroke-width:0.5;" x="71.033625" xlink:href="#m187896ff62" y="415.56965"/>
      </g>
     </g>
     <g id="line2d_23">
      <g>
       <use style="stroke:#000000;stroke-width:0.5;" x="572.153625" xlink:href="#m187896ff62" y="415.56965"/>
      </g>
     </g>
     <g id="text_10">
      <!-- 0 -->
      <g transform="translate(58.126125 419.432775)scale(0.14 -0.14)">
       <use xlink:href="#BitstreamVeraSans-Roman-30"/>
      </g>
     </g>
    </g>
    <g id="ytick_2">
     <g id="line2d_24">
      <path clip-path="url(#p7c8a687739)" d="M 71.033625 343.85765 
L 572.153625 343.85765 
" style="fill:none;stroke:#cbcbcb;"/>
     </g>
     <g id="line2d_25">
      <g>
       <use style="stroke:#000000;stroke-width:0.5;" x="71.033625" xlink:href="#m187896ff62" y="343.85765"/>
      </g>
     </g>
     <g id="line2d_26">
      <g>
       <use style="stroke:#000000;stroke-width:0.5;" x="572.153625" xlink:href="#m187896ff62" y="343.85765"/>
      </g>
     </g>
     <g id="text_11">
      <!-- 20 -->
      <g transform="translate(49.218625 347.720775)scale(0.14 -0.14)">
       <use xlink:href="#BitstreamVeraSans-Roman-32"/>
       <use x="63.623046875" xlink:href="#BitstreamVeraSans-Roman-30"/>
      </g>
     </g>
    </g>
    <g id="ytick_3">
     <g id="line2d_27">
      <path clip-path="url(#p7c8a687739)" d="M 71.033625 272.14565 
L 572.153625 272.14565 
" style="fill:none;stroke:#cbcbcb;"/>
     </g>
     <g id="line2d_28">
      <g>
       <use style="stroke:#000000;stroke-width:0.5;" x="71.033625" xlink:href="#m187896ff62" y="272.14565"/>
      </g>
     </g>
     <g id="line2d_29">
      <g>
       <use style="stroke:#000000;stroke-width:0.5;" x="572.153625" xlink:href="#m187896ff62" y="272.14565"/>
      </g>
     </g>
     <g id="text_12">
      <!-- 40 -->
      <g transform="translate(49.218625 276.008775)scale(0.14 -0.14)">
       <use xlink:href="#BitstreamVeraSans-Roman-34"/>
       <use x="63.623046875" xlink:href="#BitstreamVeraSans-Roman-30"/>
      </g>
     </g>
    </g>
    <g id="ytick_4">
     <g id="line2d_30">
      <path clip-path="url(#p7c8a687739)" d="M 71.033625 200.43365 
L 572.153625 200.43365 
" style="fill:none;stroke:#cbcbcb;"/>
     </g>
     <g id="line2d_31">
      <g>
       <use style="stroke:#000000;stroke-width:0.5;" x="71.033625" xlink:href="#m187896ff62" y="200.43365"/>
      </g>
     </g>
     <g id="line2d_32">
      <g>
       <use style="stroke:#000000;stroke-width:0.5;" x="572.153625" xlink:href="#m187896ff62" y="200.43365"/>
      </g>
     </g>
     <g id="text_13">
      <!-- 60 -->
      <g transform="translate(49.218625 204.296775)scale(0.14 -0.14)">
       <use xlink:href="#BitstreamVeraSans-Roman-36"/>
       <use x="63.623046875" xlink:href="#BitstreamVeraSans-Roman-30"/>
      </g>
     </g>
    </g>
    <g id="ytick_5">
     <g id="line2d_33">
      <path clip-path="url(#p7c8a687739)" d="M 71.033625 128.72165 
L 572.153625 128.72165 
" style="fill:none;stroke:#cbcbcb;"/>
     </g>
     <g id="line2d_34">
      <g>
       <use style="stroke:#000000;stroke-width:0.5;" x="71.033625" xlink:href="#m187896ff62" y="128.72165"/>
      </g>
     </g>
     <g id="line2d_35">
      <g>
       <use style="stroke:#000000;stroke-width:0.5;" x="572.153625" xlink:href="#m187896ff62" y="128.72165"/>
      </g>
     </g>
     <g id="text_14">
      <!-- 80 -->
      <defs>
       <path d="M 31.78125 34.625 
Q 24.75 34.625 20.71875 30.859375 
Q 16.703125 27.09375 16.703125 20.515625 
Q 16.703125 13.921875 20.71875 10.15625 
Q 24.75 6.390625 31.78125 6.390625 
Q 38.8125 6.390625 42.859375 10.171875 
Q 46.921875 13.96875 46.921875 20.515625 
Q 46.921875 27.09375 42.890625 30.859375 
Q 38.875 34.625 31.78125 34.625 
M 21.921875 38.8125 
Q 15.578125 40.375 12.03125 44.71875 
Q 8.5 49.078125 8.5 55.328125 
Q 8.5 64.0625 14.71875 69.140625 
Q 20.953125 74.21875 31.78125 74.21875 
Q 42.671875 74.21875 48.875 69.140625 
Q 55.078125 64.0625 55.078125 55.328125 
Q 55.078125 49.078125 51.53125 44.71875 
Q 48 40.375 41.703125 38.8125 
Q 48.828125 37.15625 52.796875 32.3125 
Q 56.78125 27.484375 56.78125 20.515625 
Q 56.78125 9.90625 50.3125 4.234375 
Q 43.84375 -1.421875 31.78125 -1.421875 
Q 19.734375 -1.421875 13.25 4.234375 
Q 6.78125 9.90625 6.78125 20.515625 
Q 6.78125 27.484375 10.78125 32.3125 
Q 14.796875 37.15625 21.921875 38.8125 
M 18.3125 54.390625 
Q 18.3125 48.734375 21.84375 45.5625 
Q 25.390625 42.390625 31.78125 42.390625 
Q 38.140625 42.390625 41.71875 45.5625 
Q 45.3125 48.734375 45.3125 54.390625 
Q 45.3125 60.0625 41.71875 63.234375 
Q 38.140625 66.40625 31.78125 66.40625 
Q 25.390625 66.40625 21.84375 63.234375 
Q 18.3125 60.0625 18.3125 54.390625 
" id="BitstreamVeraSans-Roman-38"/>
      </defs>
      <g transform="translate(49.218625 132.584775)scale(0.14 -0.14)">
       <use xlink:href="#BitstreamVeraSans-Roman-38"/>
       <use x="63.623046875" xlink:href="#BitstreamVeraSans-Roman-30"/>
      </g>
     </g>
    </g>
    <g id="ytick_6">
     <g id="line2d_36">
      <path clip-path="url(#p7c8a687739)" d="M 71.033625 57.00965 
L 572.153625 57.00965 
" style="fill:none;stroke:#cbcbcb;"/>
     </g>
     <g id="line2d_37">
      <g>
       <use style="stroke:#000000;stroke-width:0.5;" x="71.033625" xlink:href="#m187896ff62" y="57.00965"/>
      </g>
     </g>
     <g id="line2d_38">
      <g>
       <use style="stroke:#000000;stroke-width:0.5;" x="572.153625" xlink:href="#m187896ff62" y="57.00965"/>
      </g>
     </g>
     <g id="text_15">
      <!-- 100 -->
      <g transform="translate(40.311125 60.872775)scale(0.14 -0.14)">
       <use xlink:href="#BitstreamVeraSans-Roman-31"/>
       <use x="63.623046875" xlink:href="#BitstreamVeraSans-Roman-30"/>
       <use x="127.24609375" xlink:href="#BitstreamVeraSans-Roman-30"/>
      </g>
     </g>
    </g>
    <g id="text_16">
     <!-- %des offres -->
     <defs>
      <path id="BitstreamVeraSans-Roman-20"/>
      <path d="M 72.703125 32.078125 
Q 68.453125 32.078125 66.03125 28.46875 
Q 63.625 24.859375 63.625 18.40625 
Q 63.625 12.0625 66.03125 8.421875 
Q 68.453125 4.78125 72.703125 4.78125 
Q 76.859375 4.78125 79.265625 8.421875 
Q 81.6875 12.0625 81.6875 18.40625 
Q 81.6875 24.8125 79.265625 28.4375 
Q 76.859375 32.078125 72.703125 32.078125 
M 72.703125 38.28125 
Q 80.421875 38.28125 84.953125 32.90625 
Q 89.5 27.546875 89.5 18.40625 
Q 89.5 9.28125 84.9375 3.921875 
Q 80.375 -1.421875 72.703125 -1.421875 
Q 64.890625 -1.421875 60.34375 3.921875 
Q 55.8125 9.28125 55.8125 18.40625 
Q 55.8125 27.59375 60.375 32.9375 
Q 64.9375 38.28125 72.703125 38.28125 
M 22.3125 68.015625 
Q 18.109375 68.015625 15.6875 64.375 
Q 13.28125 60.75 13.28125 54.390625 
Q 13.28125 47.953125 15.671875 44.328125 
Q 18.0625 40.71875 22.3125 40.71875 
Q 26.5625 40.71875 28.96875 44.328125 
Q 31.390625 47.953125 31.390625 54.390625 
Q 31.390625 60.6875 28.953125 64.34375 
Q 26.515625 68.015625 22.3125 68.015625 
M 66.40625 74.21875 
L 74.21875 74.21875 
L 28.609375 -1.421875 
L 20.796875 -1.421875 
z
M 22.3125 74.21875 
Q 30.03125 74.21875 34.609375 68.875 
Q 39.203125 63.53125 39.203125 54.390625 
Q 39.203125 45.171875 34.640625 39.84375 
Q 30.078125 34.515625 22.3125 34.515625 
Q 14.546875 34.515625 10.03125 39.859375 
Q 5.515625 45.21875 5.515625 54.390625 
Q 5.515625 63.484375 10.046875 68.84375 
Q 14.59375 74.21875 22.3125 74.21875 
" id="BitstreamVeraSans-Roman-25"/>
      <path d="M 30.609375 48.390625 
Q 23.390625 48.390625 19.1875 42.75 
Q 14.984375 37.109375 14.984375 27.296875 
Q 14.984375 17.484375 19.15625 11.84375 
Q 23.34375 6.203125 30.609375 6.203125 
Q 37.796875 6.203125 41.984375 11.859375 
Q 46.1875 17.53125 46.1875 27.296875 
Q 46.1875 37.015625 41.984375 42.703125 
Q 37.796875 48.390625 30.609375 48.390625 
M 30.609375 56 
Q 42.328125 56 49.015625 48.375 
Q 55.71875 40.765625 55.71875 27.296875 
Q 55.71875 13.875 49.015625 6.21875 
Q 42.328125 -1.421875 30.609375 -1.421875 
Q 18.84375 -1.421875 12.171875 6.21875 
Q 5.515625 13.875 5.515625 27.296875 
Q 5.515625 40.765625 12.171875 48.375 
Q 18.84375 56 30.609375 56 
" id="BitstreamVeraSans-Roman-6f"/>
      <path d="M 45.40625 46.390625 
L 45.40625 75.984375 
L 54.390625 75.984375 
L 54.390625 0 
L 45.40625 0 
L 45.40625 8.203125 
Q 42.578125 3.328125 38.25 0.953125 
Q 33.9375 -1.421875 27.875 -1.421875 
Q 17.96875 -1.421875 11.734375 6.484375 
Q 5.515625 14.40625 5.515625 27.296875 
Q 5.515625 40.1875 11.734375 48.09375 
Q 17.96875 56 27.875 56 
Q 33.9375 56 38.25 53.625 
Q 42.578125 51.265625 45.40625 46.390625 
M 14.796875 27.296875 
Q 14.796875 17.390625 18.875 11.75 
Q 22.953125 6.109375 30.078125 6.109375 
Q 37.203125 6.109375 41.296875 11.75 
Q 45.40625 17.390625 45.40625 27.296875 
Q 45.40625 37.203125 41.296875 42.84375 
Q 37.203125 48.484375 30.078125 48.484375 
Q 22.953125 48.484375 18.875 42.84375 
Q 14.796875 37.203125 14.796875 27.296875 
" id="BitstreamVeraSans-Roman-64"/>
      <path d="M 37.109375 75.984375 
L 37.109375 68.5 
L 28.515625 68.5 
Q 23.6875 68.5 21.796875 66.546875 
Q 19.921875 64.59375 19.921875 59.515625 
L 19.921875 54.6875 
L 34.71875 54.6875 
L 34.71875 47.703125 
L 19.921875 47.703125 
L 19.921875 0 
L 10.890625 0 
L 10.890625 47.703125 
L 2.296875 47.703125 
L 2.296875 54.6875 
L 10.890625 54.6875 
L 10.890625 58.5 
Q 10.890625 67.625 15.140625 71.796875 
Q 19.390625 75.984375 28.609375 75.984375 
z
" id="BitstreamVeraSans-Roman-66"/>
      <path d="M 41.109375 46.296875 
Q 39.59375 47.171875 37.8125 47.578125 
Q 36.03125 48 33.890625 48 
Q 26.265625 48 22.1875 43.046875 
Q 18.109375 38.09375 18.109375 28.8125 
L 18.109375 0 
L 9.078125 0 
L 9.078125 54.6875 
L 18.109375 54.6875 
L 18.109375 46.1875 
Q 20.953125 51.171875 25.484375 53.578125 
Q 30.03125 56 36.53125 56 
Q 37.453125 56 38.578125 55.875 
Q 39.703125 55.765625 41.0625 55.515625 
z
" id="BitstreamVeraSans-Roman-72"/>
      <path d="M 44.28125 53.078125 
L 44.28125 44.578125 
Q 40.484375 46.53125 36.375 47.5 
Q 32.28125 48.484375 27.875 48.484375 
Q 21.1875 48.484375 17.84375 46.4375 
Q 14.5 44.390625 14.5 40.28125 
Q 14.5 37.15625 16.890625 35.375 
Q 19.28125 33.59375 26.515625 31.984375 
L 29.59375 31.296875 
Q 39.15625 29.25 43.1875 25.515625 
Q 47.21875 21.78125 47.21875 15.09375 
Q 47.21875 7.46875 41.1875 3.015625 
Q 35.15625 -1.421875 24.609375 -1.421875 
Q 20.21875 -1.421875 15.453125 -0.5625 
Q 10.6875 0.296875 5.421875 2 
L 5.421875 11.28125 
Q 10.40625 8.6875 15.234375 7.390625 
Q 20.0625 6.109375 24.8125 6.109375 
Q 31.15625 6.109375 34.5625 8.28125 
Q 37.984375 10.453125 37.984375 14.40625 
Q 37.984375 18.0625 35.515625 20.015625 
Q 33.0625 21.96875 24.703125 23.78125 
L 21.578125 24.515625 
Q 13.234375 26.265625 9.515625 29.90625 
Q 5.8125 33.546875 5.8125 39.890625 
Q 5.8125 47.609375 11.28125 51.796875 
Q 16.75 56 26.8125 56 
Q 31.78125 56 36.171875 55.265625 
Q 40.578125 54.546875 44.28125 53.078125 
" id="BitstreamVeraSans-Roman-73"/>
     </defs>
     <g transform="translate(31.81725 285.8667125)rotate(-90.0)scale(0.168 -0.168)">
      <use xlink:href="#BitstreamVeraSans-Roman-25"/>
      <use x="95.01953125" xlink:href="#BitstreamVeraSans-Roman-64"/>
      <use x="158.49609375" xlink:href="#BitstreamVeraSans-Roman-65"/>
      <use x="220.01953125" xlink:href="#BitstreamVeraSans-Roman-73"/>
      <use x="272.119140625" xlink:href="#BitstreamVeraSans-Roman-20"/>
      <use x="303.90625" xlink:href="#BitstreamVeraSans-Roman-6f"/>
      <use x="365.087890625" xlink:href="#BitstreamVeraSans-Roman-66"/>
      <use x="400.29296875" xlink:href="#BitstreamVeraSans-Roman-66"/>
      <use x="435.498046875" xlink:href="#BitstreamVeraSans-Roman-72"/>
      <use x="476.580078125" xlink:href="#BitstreamVeraSans-Roman-65"/>
      <use x="538.103515625" xlink:href="#BitstreamVeraSans-Roman-73"/>
     </g>
    </g>
   </g>
   <g id="PolyCollection_1">
    <defs>
     <path d="M 71.033625 -61.685563 
L 71.033625 -61.685563 
L 81.445636 -61.685563 
L 91.521775 -61.685563 
L 101.933786 -61.685563 
L 112.345797 -61.685563 
L 122.421936 -61.685563 
L 132.833947 -61.685563 
L 142.910086 -61.685563 
L 153.322097 -61.685563 
L 163.734108 -61.685563 
L 173.138504 -61.685563 
L 183.550515 -61.685563 
L 193.626654 -61.685563 
L 204.038665 -61.685563 
L 214.114805 -61.685563 
L 224.526815 -61.685563 
L 234.938826 -61.685563 
L 245.014965 -61.685563 
L 255.426976 -61.685563 
L 265.503116 -61.685563 
L 275.915126 -61.685563 
L 286.327137 -61.685563 
L 295.731534 -61.685563 
L 306.143545 -61.685563 
L 316.219684 -61.685563 
L 326.631695 -61.685563 
L 336.707834 -61.685563 
L 347.119845 -61.685563 
L 357.531856 -61.685563 
L 367.607995 -61.685563 
L 378.020006 -61.685563 
L 388.096145 -61.685563 
L 398.508156 -61.685563 
L 408.920167 -61.685563 
L 418.324563 -61.685563 
L 428.736574 -61.685563 
L 438.812713 -61.685563 
L 449.224724 -61.685563 
L 459.300864 -61.685563 
L 469.712874 -61.685563 
L 480.124885 -61.685563 
L 490.201024 -61.685563 
L 500.613035 -61.685563 
L 510.689175 -61.685563 
L 521.101185 -61.685563 
L 531.513196 -61.685563 
L 541.253464 -61.685563 
L 551.665475 -61.685563 
L 561.741614 -61.685563 
L 572.153625 -61.685563 
L 572.153625 -172.011716 
L 572.153625 -172.011716 
L 561.741614 -181.205563 
L 551.665475 -256.33242 
L 541.253464 -193.786615 
L 531.513196 -207.765563 
L 521.101185 -215.354134 
L 510.689175 -151.325563 
L 500.613035 -116.848639 
L 490.201024 -199.593255 
L 480.124885 -212.658194 
L 469.712874 -250.401352 
L 459.300864 -240.965563 
L 449.224724 -169.253563 
L 438.812713 -215.354134 
L 428.736574 -193.157563 
L 418.324563 -216.738535 
L 408.920167 -266.576991 
L 398.508156 -174.915036 
L 388.096145 -186.402084 
L 378.020006 -240.965563 
L 367.607995 -170.812519 
L 357.531856 -254.756332 
L 347.119845 -247.147631 
L 336.707834 -201.991649 
L 326.631695 -227.174793 
L 316.219684 -112.90842 
L 306.143545 -266.576991 
L 295.731534 -202.54842 
L 286.327137 -106.505563 
L 275.915126 -189.742705 
L 265.503116 -254.756332 
L 255.426976 -420.245563 
L 245.014965 -229.013563 
L 234.938826 -317.799848 
L 224.526815 -181.205563 
L 214.114805 -221.045563 
L 204.038665 -330.605563 
L 193.626654 -375.425563 
L 183.550515 -312.677563 
L 173.138504 -215.354134 
L 163.734108 -276.821563 
L 153.322097 -181.205563 
L 142.910086 -61.685563 
L 132.833947 -360.485563 
L 122.421936 -285.785563 
L 112.345797 -61.685563 
L 101.933786 -215.354134 
L 91.521775 -181.205563 
L 81.445636 -61.685563 
L 71.033625 -61.685563 
z
" id="mfc6d8373ff"/>
    </defs>
    <g clip-path="url(#p7c8a687739)">
     <use style="fill:#ffa500;fill-opacity:0.8;" x="0.0" xlink:href="#mfc6d8373ff" y="477.2552125"/>
    </g>
   </g>
   <g id="PolyCollection_2">
    <defs>
     <path d="M 71.033625 -420.245563 
L 71.033625 -61.685563 
L 81.445636 -61.685563 
L 91.521775 -181.205563 
L 101.933786 -215.354134 
L 112.345797 -61.685563 
L 122.421936 -285.785563 
L 132.833947 -360.485563 
L 142.910086 -61.685563 
L 153.322097 -181.205563 
L 163.734108 -276.821563 
L 173.138504 -215.354134 
L 183.550515 -312.677563 
L 193.626654 -375.425563 
L 204.038665 -330.605563 
L 214.114805 -221.045563 
L 224.526815 -181.205563 
L 234.938826 -317.799848 
L 245.014965 -229.013563 
L 255.426976 -420.245563 
L 265.503116 -254.756332 
L 275.915126 -189.742705 
L 286.327137 -106.505563 
L 295.731534 -202.54842 
L 306.143545 -266.576991 
L 316.219684 -112.90842 
L 326.631695 -227.174793 
L 336.707834 -201.991649 
L 347.119845 -247.147631 
L 357.531856 -254.756332 
L 367.607995 -170.812519 
L 378.020006 -240.965563 
L 388.096145 -186.402084 
L 398.508156 -174.915036 
L 408.920167 -266.576991 
L 418.324563 -216.738535 
L 428.736574 -193.157563 
L 438.812713 -215.354134 
L 449.224724 -169.253563 
L 459.300864 -240.965563 
L 469.712874 -250.401352 
L 480.124885 -212.658194 
L 490.201024 -199.593255 
L 500.613035 -116.848639 
L 510.689175 -151.325563 
L 521.101185 -215.354134 
L 531.513196 -207.765563 
L 541.253464 -193.786615 
L 551.665475 -256.33242 
L 561.741614 -181.205563 
L 572.153625 -172.011716 
L 572.153625 -420.245563 
L 572.153625 -420.245563 
L 561.741614 -420.245563 
L 551.665475 -420.245563 
L 541.253464 -420.245563 
L 531.513196 -420.245563 
L 521.101185 -420.245563 
L 510.689175 -420.245563 
L 500.613035 -420.245563 
L 490.201024 -420.245563 
L 480.124885 -420.245563 
L 469.712874 -420.245563 
L 459.300864 -420.245563 
L 449.224724 -420.245563 
L 438.812713 -420.245563 
L 428.736574 -420.245563 
L 418.324563 -420.245563 
L 408.920167 -420.245563 
L 398.508156 -420.245563 
L 388.096145 -420.245563 
L 378.020006 -420.245563 
L 367.607995 -420.245563 
L 357.531856 -420.245563 
L 347.119845 -420.245563 
L 336.707834 -420.245563 
L 326.631695 -420.245563 
L 316.219684 -420.245563 
L 306.143545 -420.245563 
L 295.731534 -420.245563 
L 286.327137 -420.245563 
L 275.915126 -420.245563 
L 265.503116 -420.245563 
L 255.426976 -420.245563 
L 245.014965 -420.245563 
L 234.938826 -420.245563 
L 224.526815 -420.245563 
L 214.114805 -420.245563 
L 204.038665 -420.245563 
L 193.626654 -420.245563 
L 183.550515 -420.245563 
L 173.138504 -420.245563 
L 163.734108 -420.245563 
L 153.322097 -420.245563 
L 142.910086 -420.245563 
L 132.833947 -420.245563 
L 122.421936 -420.245563 
L 112.345797 -420.245563 
L 101.933786 -420.245563 
L 91.521775 -420.245563 
L 81.445636 -61.685563 
L 71.033625 -420.245563 
z
" id="m0886d60c70"/>
    </defs>
    <g clip-path="url(#p7c8a687739)">
     <use style="fill:#deb887;fill-opacity:0.8;" x="0.0" xlink:href="#m0886d60c70" y="477.2552125"/>
    </g>
   </g>
   <g id="patch_3">
    <path d="M 71.033625 57.00965 
L 572.153625 57.00965 
" style="fill:none;stroke:#f0f0f0;stroke-linecap:square;stroke-linejoin:miter;stroke-width:3.0;"/>
   </g>
   <g id="patch_4">
    <path d="M 572.153625 415.56965 
L 572.153625 57.00965 
" style="fill:none;stroke:#f0f0f0;stroke-linecap:square;stroke-linejoin:miter;stroke-width:3.0;"/>
   </g>
   <g id="patch_5">
    <path d="M 71.033625 415.56965 
L 572.153625 415.56965 
" style="fill:none;stroke:#f0f0f0;stroke-linecap:square;stroke-linejoin:miter;stroke-width:3.0;"/>
   </g>
   <g id="patch_6">
    <path d="M 71.033625 415.56965 
L 71.033625 57.00965 
" style="fill:none;stroke:#f0f0f0;stroke-linecap:square;stroke-linejoin:miter;stroke-width:3.0;"/>
   </g>
   <g id="text_17">
    <!-- Proportion des niveaux de diplôme requis pour les CDD et CDI -->
    <defs>
     <path d="M 30.609375 48.390625 
Q 23.390625 48.390625 19.1875 42.75 
Q 14.984375 37.109375 14.984375 27.296875 
Q 14.984375 17.484375 19.15625 11.84375 
Q 23.34375 6.203125 30.609375 6.203125 
Q 37.796875 6.203125 41.984375 11.859375 
Q 46.1875 17.53125 46.1875 27.296875 
Q 46.1875 37.015625 41.984375 42.703125 
Q 37.796875 48.390625 30.609375 48.390625 
M 30.609375 56 
Q 42.328125 56 49.015625 48.375 
Q 55.71875 40.765625 55.71875 27.296875 
Q 55.71875 13.875 49.015625 6.21875 
Q 42.328125 -1.421875 30.609375 -1.421875 
Q 18.84375 -1.421875 12.171875 6.21875 
Q 5.515625 13.875 5.515625 27.296875 
Q 5.515625 40.765625 12.171875 48.375 
Q 18.84375 56 30.609375 56 
M 27.015625 79.984375 
L 34.234375 79.984375 
L 46.203125 61.625 
L 39.421875 61.625 
L 30.625 73.578125 
L 21.84375 61.625 
L 15.046875 61.625 
z
" id="BitstreamVeraSans-Roman-f4"/>
     <path d="M 19.671875 64.796875 
L 19.671875 37.40625 
L 32.078125 37.40625 
Q 38.96875 37.40625 42.71875 40.96875 
Q 46.484375 44.53125 46.484375 51.125 
Q 46.484375 57.671875 42.71875 61.234375 
Q 38.96875 64.796875 32.078125 64.796875 
z
M 9.8125 72.90625 
L 32.078125 72.90625 
Q 44.34375 72.90625 50.609375 67.359375 
Q 56.890625 61.8125 56.890625 51.125 
Q 56.890625 40.328125 50.609375 34.8125 
Q 44.34375 29.296875 32.078125 29.296875 
L 19.671875 29.296875 
L 19.671875 0 
L 9.8125 0 
z
" id="BitstreamVeraSans-Roman-50"/>
     <path d="M 9.421875 54.6875 
L 18.40625 54.6875 
L 18.40625 0 
L 9.421875 0 
z
M 9.421875 75.984375 
L 18.40625 75.984375 
L 18.40625 64.59375 
L 9.421875 64.59375 
z
" id="BitstreamVeraSans-Roman-69"/>
     <path d="M 9.8125 72.90625 
L 19.671875 72.90625 
L 19.671875 0 
L 9.8125 0 
z
" id="BitstreamVeraSans-Roman-49"/>
     <path d="M 54.890625 54.6875 
L 35.109375 28.078125 
L 55.90625 0 
L 45.3125 0 
L 29.390625 21.484375 
L 13.484375 0 
L 2.875 0 
L 24.125 28.609375 
L 4.6875 54.6875 
L 15.28125 54.6875 
L 29.78125 35.203125 
L 44.28125 54.6875 
z
" id="BitstreamVeraSans-Roman-78"/>
     <path d="M 52 44.1875 
Q 55.375 50.25 60.0625 53.125 
Q 64.75 56 71.09375 56 
Q 79.640625 56 84.28125 50.015625 
Q 88.921875 44.046875 88.921875 33.015625 
L 88.921875 0 
L 79.890625 0 
L 79.890625 32.71875 
Q 79.890625 40.578125 77.09375 44.375 
Q 74.3125 48.1875 68.609375 48.1875 
Q 61.625 48.1875 57.5625 43.546875 
Q 53.515625 38.921875 53.515625 30.90625 
L 53.515625 0 
L 44.484375 0 
L 44.484375 32.71875 
Q 44.484375 40.625 41.703125 44.40625 
Q 38.921875 48.1875 33.109375 48.1875 
Q 26.21875 48.1875 22.15625 43.53125 
Q 18.109375 38.875 18.109375 30.90625 
L 18.109375 0 
L 9.078125 0 
L 9.078125 54.6875 
L 18.109375 54.6875 
L 18.109375 46.1875 
Q 21.1875 51.21875 25.484375 53.609375 
Q 29.78125 56 35.6875 56 
Q 41.65625 56 45.828125 52.96875 
Q 50 49.953125 52 44.1875 
" id="BitstreamVeraSans-Roman-6d"/>
     <path d="M 2.984375 54.6875 
L 12.5 54.6875 
L 29.59375 8.796875 
L 46.6875 54.6875 
L 56.203125 54.6875 
L 35.6875 0 
L 23.484375 0 
z
" id="BitstreamVeraSans-Roman-76"/>
     <path d="M 64.40625 67.28125 
L 64.40625 56.890625 
Q 59.421875 61.53125 53.78125 63.8125 
Q 48.140625 66.109375 41.796875 66.109375 
Q 29.296875 66.109375 22.65625 58.46875 
Q 16.015625 50.828125 16.015625 36.375 
Q 16.015625 21.96875 22.65625 14.328125 
Q 29.296875 6.6875 41.796875 6.6875 
Q 48.140625 6.6875 53.78125 8.984375 
Q 59.421875 11.28125 64.40625 15.921875 
L 64.40625 5.609375 
Q 59.234375 2.09375 53.4375 0.328125 
Q 47.65625 -1.421875 41.21875 -1.421875 
Q 24.65625 -1.421875 15.125 8.703125 
Q 5.609375 18.84375 5.609375 36.375 
Q 5.609375 53.953125 15.125 64.078125 
Q 24.65625 74.21875 41.21875 74.21875 
Q 47.75 74.21875 53.53125 72.484375 
Q 59.328125 70.75 64.40625 67.28125 
" id="BitstreamVeraSans-Roman-43"/>
     <path d="M 18.109375 8.203125 
L 18.109375 -20.796875 
L 9.078125 -20.796875 
L 9.078125 54.6875 
L 18.109375 54.6875 
L 18.109375 46.390625 
Q 20.953125 51.265625 25.265625 53.625 
Q 29.59375 56 35.59375 56 
Q 45.5625 56 51.78125 48.09375 
Q 58.015625 40.1875 58.015625 27.296875 
Q 58.015625 14.40625 51.78125 6.484375 
Q 45.5625 -1.421875 35.59375 -1.421875 
Q 29.59375 -1.421875 25.265625 0.953125 
Q 20.953125 3.328125 18.109375 8.203125 
M 48.6875 27.296875 
Q 48.6875 37.203125 44.609375 42.84375 
Q 40.53125 48.484375 33.40625 48.484375 
Q 26.265625 48.484375 22.1875 42.84375 
Q 18.109375 37.203125 18.109375 27.296875 
Q 18.109375 17.390625 22.1875 11.75 
Q 26.265625 6.109375 33.40625 6.109375 
Q 40.53125 6.109375 44.609375 11.75 
Q 48.6875 17.390625 48.6875 27.296875 
" id="BitstreamVeraSans-Roman-70"/>
     <path d="M 14.796875 27.296875 
Q 14.796875 17.390625 18.875 11.75 
Q 22.953125 6.109375 30.078125 6.109375 
Q 37.203125 6.109375 41.296875 11.75 
Q 45.40625 17.390625 45.40625 27.296875 
Q 45.40625 37.203125 41.296875 42.84375 
Q 37.203125 48.484375 30.078125 48.484375 
Q 22.953125 48.484375 18.875 42.84375 
Q 14.796875 37.203125 14.796875 27.296875 
M 45.40625 8.203125 
Q 42.578125 3.328125 38.25 0.953125 
Q 33.9375 -1.421875 27.875 -1.421875 
Q 17.96875 -1.421875 11.734375 6.484375 
Q 5.515625 14.40625 5.515625 27.296875 
Q 5.515625 40.1875 11.734375 48.09375 
Q 17.96875 56 27.875 56 
Q 33.9375 56 38.25 53.625 
Q 42.578125 51.265625 45.40625 46.390625 
L 45.40625 54.6875 
L 54.390625 54.6875 
L 54.390625 -20.796875 
L 45.40625 -20.796875 
z
" id="BitstreamVeraSans-Roman-71"/>
    </defs>
    <g transform="translate(7.2 23.32485)scale(0.2016 -0.2016)">
     <use xlink:href="#BitstreamVeraSans-Roman-50"/>
     <use x="60.287109375" xlink:href="#BitstreamVeraSans-Roman-72"/>
     <use x="101.369140625" xlink:href="#BitstreamVeraSans-Roman-6f"/>
     <use x="162.55078125" xlink:href="#BitstreamVeraSans-Roman-70"/>
     <use x="226.02734375" xlink:href="#BitstreamVeraSans-Roman-6f"/>
     <use x="287.208984375" xlink:href="#BitstreamVeraSans-Roman-72"/>
     <use x="328.322265625" xlink:href="#BitstreamVeraSans-Roman-74"/>
     <use x="367.53125" xlink:href="#BitstreamVeraSans-Roman-69"/>
     <use x="395.314453125" xlink:href="#BitstreamVeraSans-Roman-6f"/>
     <use x="456.49609375" xlink:href="#BitstreamVeraSans-Roman-6e"/>
     <use x="519.875" xlink:href="#BitstreamVeraSans-Roman-20"/>
     <use x="551.662109375" xlink:href="#BitstreamVeraSans-Roman-64"/>
     <use x="615.138671875" xlink:href="#BitstreamVeraSans-Roman-65"/>
     <use x="676.662109375" xlink:href="#BitstreamVeraSans-Roman-73"/>
     <use x="728.76171875" xlink:href="#BitstreamVeraSans-Roman-20"/>
     <use x="760.548828125" xlink:href="#BitstreamVeraSans-Roman-6e"/>
     <use x="823.927734375" xlink:href="#BitstreamVeraSans-Roman-69"/>
     <use x="851.7109375" xlink:href="#BitstreamVeraSans-Roman-76"/>
     <use x="910.890625" xlink:href="#BitstreamVeraSans-Roman-65"/>
     <use x="972.4140625" xlink:href="#BitstreamVeraSans-Roman-61"/>
     <use x="1033.69335938" xlink:href="#BitstreamVeraSans-Roman-75"/>
     <use x="1097.07226562" xlink:href="#BitstreamVeraSans-Roman-78"/>
     <use x="1156.25195312" xlink:href="#BitstreamVeraSans-Roman-20"/>
     <use x="1188.0390625" xlink:href="#BitstreamVeraSans-Roman-64"/>
     <use x="1251.515625" xlink:href="#BitstreamVeraSans-Roman-65"/>
     <use x="1313.0390625" xlink:href="#BitstreamVeraSans-Roman-20"/>
     <use x="1344.82617188" xlink:href="#BitstreamVeraSans-Roman-64"/>
     <use x="1408.30273438" xlink:href="#BitstreamVeraSans-Roman-69"/>
     <use x="1436.0859375" xlink:href="#BitstreamVeraSans-Roman-70"/>
     <use x="1499.5625" xlink:href="#BitstreamVeraSans-Roman-6c"/>
     <use x="1527.34570312" xlink:href="#BitstreamVeraSans-Roman-f4"/>
     <use x="1588.52734375" xlink:href="#BitstreamVeraSans-Roman-6d"/>
     <use x="1685.93945312" xlink:href="#BitstreamVeraSans-Roman-65"/>
     <use x="1747.46289062" xlink:href="#BitstreamVeraSans-Roman-20"/>
     <use x="1779.25" xlink:href="#BitstreamVeraSans-Roman-72"/>
     <use x="1820.33203125" xlink:href="#BitstreamVeraSans-Roman-65"/>
     <use x="1881.85546875" xlink:href="#BitstreamVeraSans-Roman-71"/>
     <use x="1945.33203125" xlink:href="#BitstreamVeraSans-Roman-75"/>
     <use x="2008.7109375" xlink:href="#BitstreamVeraSans-Roman-69"/>
     <use x="2036.49414062" xlink:href="#BitstreamVeraSans-Roman-73"/>
     <use x="2088.59375" xlink:href="#BitstreamVeraSans-Roman-20"/>
     <use x="2120.38085938" xlink:href="#BitstreamVeraSans-Roman-70"/>
     <use x="2183.85742188" xlink:href="#BitstreamVeraSans-Roman-6f"/>
     <use x="2245.0390625" xlink:href="#BitstreamVeraSans-Roman-75"/>
     <use x="2308.41796875" xlink:href="#BitstreamVeraSans-Roman-72"/>
     <use x="2349.53125" xlink:href="#BitstreamVeraSans-Roman-20"/>
     <use x="2381.31835938" xlink:href="#BitstreamVeraSans-Roman-6c"/>
     <use x="2409.1015625" xlink:href="#BitstreamVeraSans-Roman-65"/>
     <use x="2470.625" xlink:href="#BitstreamVeraSans-Roman-73"/>
     <use x="2522.72460938" xlink:href="#BitstreamVeraSans-Roman-20"/>
     <use x="2554.51171875" xlink:href="#BitstreamVeraSans-Roman-43"/>
     <use x="2624.3359375" xlink:href="#BitstreamVeraSans-Roman-44"/>
     <use x="2701.33789062" xlink:href="#BitstreamVeraSans-Roman-44"/>
     <use x="2778.33984375" xlink:href="#BitstreamVeraSans-Roman-20"/>
     <use x="2810.12695312" xlink:href="#BitstreamVeraSans-Roman-65"/>
     <use x="2871.65039062" xlink:href="#BitstreamVeraSans-Roman-74"/>
     <use x="2910.859375" xlink:href="#BitstreamVeraSans-Roman-20"/>
     <use x="2942.64648438" xlink:href="#BitstreamVeraSans-Roman-43"/>
     <use x="3012.47070312" xlink:href="#BitstreamVeraSans-Roman-44"/>
     <use x="3089.47265625" xlink:href="#BitstreamVeraSans-Roman-49"/>
    </g>
   </g>
  </g>
  <g id="legend_1">
   <g id="patch_7">
    <path d="M 576.948 288.434463 
L 688.08 288.434463 
Q 691.44 288.434463 691.44 285.074463 
L 691.44 237.435963 
Q 691.44 234.075963 688.08 234.075963 
L 576.948 234.075963 
Q 573.588 234.075963 573.588 237.435963 
L 573.588 285.074463 
Q 573.588 288.434463 576.948 288.434463 
z
" style="fill:#f0f0f0;"/>
   </g>
   <g id="patch_8">
    <path d="M 580.308 253.561338 
L 613.908 253.561338 
L 613.908 241.801338 
L 580.308 241.801338 
z
" style="fill:#ffa500;fill-opacity:0.8;"/>
   </g>
   <g id="text_18">
    <!-- Master -->
    <defs>
     <path d="M 9.8125 72.90625 
L 24.515625 72.90625 
L 43.109375 23.296875 
L 61.8125 72.90625 
L 76.515625 72.90625 
L 76.515625 0 
L 66.890625 0 
L 66.890625 64.015625 
L 48.09375 14.015625 
L 38.1875 14.015625 
L 19.390625 64.015625 
L 19.390625 0 
L 9.8125 0 
z
" id="BitstreamVeraSans-Roman-4d"/>
    </defs>
    <g transform="translate(627.348 253.5613375)scale(0.168 -0.168)">
     <use xlink:href="#BitstreamVeraSans-Roman-4d"/>
     <use x="86.279296875" xlink:href="#BitstreamVeraSans-Roman-61"/>
     <use x="147.55859375" xlink:href="#BitstreamVeraSans-Roman-73"/>
     <use x="199.658203125" xlink:href="#BitstreamVeraSans-Roman-74"/>
     <use x="238.8671875" xlink:href="#BitstreamVeraSans-Roman-65"/>
     <use x="300.390625" xlink:href="#BitstreamVeraSans-Roman-72"/>
    </g>
   </g>
   <g id="patch_9">
    <path d="M 580.308 278.220588 
L 613.908 278.220588 
L 613.908 266.460588 
L 580.308 266.460588 
z
" style="fill:#deb887;fill-opacity:0.8;"/>
   </g>
   <g id="text_19">
    <!-- PhD -->
    <defs>
     <path d="M 54.890625 33.015625 
L 54.890625 0 
L 45.90625 0 
L 45.90625 32.71875 
Q 45.90625 40.484375 42.875 44.328125 
Q 39.84375 48.1875 33.796875 48.1875 
Q 26.515625 48.1875 22.3125 43.546875 
Q 18.109375 38.921875 18.109375 30.90625 
L 18.109375 0 
L 9.078125 0 
L 9.078125 75.984375 
L 18.109375 75.984375 
L 18.109375 46.1875 
Q 21.34375 51.125 25.703125 53.5625 
Q 30.078125 56 35.796875 56 
Q 45.21875 56 50.046875 50.171875 
Q 54.890625 44.34375 54.890625 33.015625 
" id="BitstreamVeraSans-Roman-68"/>
    </defs>
    <g transform="translate(627.348 278.2205875)scale(0.168 -0.168)">
     <use xlink:href="#BitstreamVeraSans-Roman-50"/>
     <use x="60.302734375" xlink:href="#BitstreamVeraSans-Roman-68"/>
     <use x="123.681640625" xlink:href="#BitstreamVeraSans-Roman-44"/>
    </g>
   </g>
  </g>
 </g>
 <defs>
  <clipPath id="p7c8a687739">
   <rect height="358.56" width="501.12" x="71.033625" y="57.00965"/>
  </clipPath>
 </defs>
</svg>
