<?xml version="1.0" encoding="utf-8" standalone="no"?>
<!DOCTYPE svg PUBLIC "-//W3C//DTD SVG 1.1//EN"
  "http://www.w3.org/Graphics/SVG/1.1/DTD/svg11.dtd">
<!-- Created with matplotlib (http://matplotlib.org/) -->
<svg height="464pt" version="1.1" viewBox="0 0 558 464" width="558pt" xmlns="http://www.w3.org/2000/svg" xmlns:xlink="http://www.w3.org/1999/xlink">
 <defs>
  <style type="text/css">
*{stroke-linecap:butt;stroke-linejoin:round;stroke-miterlimit:100000;}
  </style>
 </defs>
 <g id="figure_1">
  <g id="patch_1">
   <path d="M 0 464.104575 
L 558.59425 464.104575 
L 558.59425 0 
L 0 0 
z
" style="fill:#f0f0f0;"/>
  </g>
  <g id="axes_1">
   <g id="patch_2">
    <path d="M 50.27425 418.09595 
L 551.39425 418.09595 
L 551.39425 59.53595 
L 50.27425 59.53595 
z
" style="fill:#f0f0f0;"/>
   </g>
   <g id="matplotlib.axis_1">
    <g id="xtick_1">
     <g id="line2d_1">
      <path clip-path="url(#p93f4c8da0e)" d="M 142.316699 418.09595 
L 142.316699 59.53595 
" style="fill:none;stroke:#cbcbcb;"/>
     </g>
     <g id="line2d_2">
      <defs>
       <path d="M 0 0 
L 0 0 
" id="mb1b6a027e0" style="stroke:#000000;stroke-width:0.5;"/>
      </defs>
      <g>
       <use style="stroke:#000000;stroke-width:0.5;" x="142.31669898" xlink:href="#mb1b6a027e0" y="418.09595"/>
      </g>
     </g>
     <g id="line2d_3">
      <g>
       <use style="stroke:#000000;stroke-width:0.5;" x="142.31669898" xlink:href="#mb1b6a027e0" y="59.53595"/>
      </g>
     </g>
     <g id="text_1">
      <!-- 2013 -->
      <defs>
       <path d="M 19.1875 8.296875 
L 53.609375 8.296875 
L 53.609375 0 
L 7.328125 0 
L 7.328125 8.296875 
Q 12.9375 14.109375 22.625 23.890625 
Q 32.328125 33.6875 34.8125 36.53125 
Q 39.546875 41.84375 41.421875 45.53125 
Q 43.3125 49.21875 43.3125 52.78125 
Q 43.3125 58.59375 39.234375 62.25 
Q 35.15625 65.921875 28.609375 65.921875 
Q 23.96875 65.921875 18.8125 64.3125 
Q 13.671875 62.703125 7.8125 59.421875 
L 7.8125 69.390625 
Q 13.765625 71.78125 18.9375 73 
Q 24.125 74.21875 28.421875 74.21875 
Q 39.75 74.21875 46.484375 68.546875 
Q 53.21875 62.890625 53.21875 53.421875 
Q 53.21875 48.921875 51.53125 44.890625 
Q 49.859375 40.875 45.40625 35.40625 
Q 44.1875 33.984375 37.640625 27.21875 
Q 31.109375 20.453125 19.1875 8.296875 
" id="BitstreamVeraSans-Roman-32"/>
       <path d="M 40.578125 39.3125 
Q 47.65625 37.796875 51.625 33 
Q 55.609375 28.21875 55.609375 21.1875 
Q 55.609375 10.40625 48.1875 4.484375 
Q 40.765625 -1.421875 27.09375 -1.421875 
Q 22.515625 -1.421875 17.65625 -0.515625 
Q 12.796875 0.390625 7.625 2.203125 
L 7.625 11.71875 
Q 11.71875 9.328125 16.59375 8.109375 
Q 21.484375 6.890625 26.8125 6.890625 
Q 36.078125 6.890625 40.9375 10.546875 
Q 45.796875 14.203125 45.796875 21.1875 
Q 45.796875 27.640625 41.28125 31.265625 
Q 36.765625 34.90625 28.71875 34.90625 
L 20.21875 34.90625 
L 20.21875 43.015625 
L 29.109375 43.015625 
Q 36.375 43.015625 40.234375 45.921875 
Q 44.09375 48.828125 44.09375 54.296875 
Q 44.09375 59.90625 40.109375 62.90625 
Q 36.140625 65.921875 28.71875 65.921875 
Q 24.65625 65.921875 20.015625 65.03125 
Q 15.375 64.15625 9.8125 62.3125 
L 9.8125 71.09375 
Q 15.4375 72.65625 20.34375 73.4375 
Q 25.25 74.21875 29.59375 74.21875 
Q 40.828125 74.21875 47.359375 69.109375 
Q 53.90625 64.015625 53.90625 55.328125 
Q 53.90625 49.265625 50.4375 45.09375 
Q 46.96875 40.921875 40.578125 39.3125 
" id="BitstreamVeraSans-Roman-33"/>
       <path d="M 31.78125 66.40625 
Q 24.171875 66.40625 20.328125 58.90625 
Q 16.5 51.421875 16.5 36.375 
Q 16.5 21.390625 20.328125 13.890625 
Q 24.171875 6.390625 31.78125 6.390625 
Q 39.453125 6.390625 43.28125 13.890625 
Q 47.125 21.390625 47.125 36.375 
Q 47.125 51.421875 43.28125 58.90625 
Q 39.453125 66.40625 31.78125 66.40625 
M 31.78125 74.21875 
Q 44.046875 74.21875 50.515625 64.515625 
Q 56.984375 54.828125 56.984375 36.375 
Q 56.984375 17.96875 50.515625 8.265625 
Q 44.046875 -1.421875 31.78125 -1.421875 
Q 19.53125 -1.421875 13.0625 8.265625 
Q 6.59375 17.96875 6.59375 36.375 
Q 6.59375 54.828125 13.0625 64.515625 
Q 19.53125 74.21875 31.78125 74.21875 
" id="BitstreamVeraSans-Roman-30"/>
       <path d="M 12.40625 8.296875 
L 28.515625 8.296875 
L 28.515625 63.921875 
L 10.984375 60.40625 
L 10.984375 69.390625 
L 28.421875 72.90625 
L 38.28125 72.90625 
L 38.28125 8.296875 
L 54.390625 8.296875 
L 54.390625 0 
L 12.40625 0 
z
" id="BitstreamVeraSans-Roman-31"/>
      </defs>
      <g transform="translate(124.50169898 432.7337625)scale(0.14 -0.14)">
       <use xlink:href="#BitstreamVeraSans-Roman-32"/>
       <use x="63.623046875" xlink:href="#BitstreamVeraSans-Roman-30"/>
       <use x="127.24609375" xlink:href="#BitstreamVeraSans-Roman-31"/>
       <use x="190.869140625" xlink:href="#BitstreamVeraSans-Roman-33"/>
      </g>
     </g>
    </g>
    <g id="xtick_2">
     <g id="line2d_4">
      <path clip-path="url(#p93f4c8da0e)" d="M 265.039964 418.09595 
L 265.039964 59.53595 
" style="fill:none;stroke:#cbcbcb;"/>
     </g>
     <g id="line2d_5">
      <g>
       <use style="stroke:#000000;stroke-width:0.5;" x="265.039964286" xlink:href="#mb1b6a027e0" y="418.09595"/>
      </g>
     </g>
     <g id="line2d_6">
      <g>
       <use style="stroke:#000000;stroke-width:0.5;" x="265.039964286" xlink:href="#mb1b6a027e0" y="59.53595"/>
      </g>
     </g>
     <g id="text_2">
      <!-- 2014 -->
      <defs>
       <path d="M 37.796875 64.3125 
L 12.890625 25.390625 
L 37.796875 25.390625 
z
M 35.203125 72.90625 
L 47.609375 72.90625 
L 47.609375 25.390625 
L 58.015625 25.390625 
L 58.015625 17.1875 
L 47.609375 17.1875 
L 47.609375 0 
L 37.796875 0 
L 37.796875 17.1875 
L 4.890625 17.1875 
L 4.890625 26.703125 
z
" id="BitstreamVeraSans-Roman-34"/>
      </defs>
      <g transform="translate(247.224964286 432.7337625)scale(0.14 -0.14)">
       <use xlink:href="#BitstreamVeraSans-Roman-32"/>
       <use x="63.623046875" xlink:href="#BitstreamVeraSans-Roman-30"/>
       <use x="127.24609375" xlink:href="#BitstreamVeraSans-Roman-31"/>
       <use x="190.869140625" xlink:href="#BitstreamVeraSans-Roman-34"/>
      </g>
     </g>
    </g>
    <g id="xtick_3">
     <g id="line2d_7">
      <path clip-path="url(#p93f4c8da0e)" d="M 387.76323 418.09595 
L 387.76323 59.53595 
" style="fill:none;stroke:#cbcbcb;"/>
     </g>
     <g id="line2d_8">
      <g>
       <use style="stroke:#000000;stroke-width:0.5;" x="387.763229592" xlink:href="#mb1b6a027e0" y="418.09595"/>
      </g>
     </g>
     <g id="line2d_9">
      <g>
       <use style="stroke:#000000;stroke-width:0.5;" x="387.763229592" xlink:href="#mb1b6a027e0" y="59.53595"/>
      </g>
     </g>
     <g id="text_3">
      <!-- 2015 -->
      <defs>
       <path d="M 10.796875 72.90625 
L 49.515625 72.90625 
L 49.515625 64.59375 
L 19.828125 64.59375 
L 19.828125 46.734375 
Q 21.96875 47.46875 24.109375 47.828125 
Q 26.265625 48.1875 28.421875 48.1875 
Q 40.625 48.1875 47.75 41.5 
Q 54.890625 34.8125 54.890625 23.390625 
Q 54.890625 11.625 47.5625 5.09375 
Q 40.234375 -1.421875 26.90625 -1.421875 
Q 22.3125 -1.421875 17.546875 -0.640625 
Q 12.796875 0.140625 7.71875 1.703125 
L 7.71875 11.625 
Q 12.109375 9.234375 16.796875 8.0625 
Q 21.484375 6.890625 26.703125 6.890625 
Q 35.15625 6.890625 40.078125 11.328125 
Q 45.015625 15.765625 45.015625 23.390625 
Q 45.015625 31 40.078125 35.4375 
Q 35.15625 39.890625 26.703125 39.890625 
Q 22.75 39.890625 18.8125 39.015625 
Q 14.890625 38.140625 10.796875 36.28125 
z
" id="BitstreamVeraSans-Roman-35"/>
      </defs>
      <g transform="translate(369.948229592 432.7337625)scale(0.14 -0.14)">
       <use xlink:href="#BitstreamVeraSans-Roman-32"/>
       <use x="63.623046875" xlink:href="#BitstreamVeraSans-Roman-30"/>
       <use x="127.24609375" xlink:href="#BitstreamVeraSans-Roman-31"/>
       <use x="190.869140625" xlink:href="#BitstreamVeraSans-Roman-35"/>
      </g>
     </g>
    </g>
    <g id="xtick_4">
     <g id="line2d_10">
      <path clip-path="url(#p93f4c8da0e)" d="M 510.486495 418.09595 
L 510.486495 59.53595 
" style="fill:none;stroke:#cbcbcb;"/>
     </g>
     <g id="line2d_11">
      <g>
       <use style="stroke:#000000;stroke-width:0.5;" x="510.486494898" xlink:href="#mb1b6a027e0" y="418.09595"/>
      </g>
     </g>
     <g id="line2d_12">
      <g>
       <use style="stroke:#000000;stroke-width:0.5;" x="510.486494898" xlink:href="#mb1b6a027e0" y="59.53595"/>
      </g>
     </g>
     <g id="text_4">
      <!-- 2016 -->
      <defs>
       <path d="M 33.015625 40.375 
Q 26.375 40.375 22.484375 35.828125 
Q 18.609375 31.296875 18.609375 23.390625 
Q 18.609375 15.53125 22.484375 10.953125 
Q 26.375 6.390625 33.015625 6.390625 
Q 39.65625 6.390625 43.53125 10.953125 
Q 47.40625 15.53125 47.40625 23.390625 
Q 47.40625 31.296875 43.53125 35.828125 
Q 39.65625 40.375 33.015625 40.375 
M 52.59375 71.296875 
L 52.59375 62.3125 
Q 48.875 64.0625 45.09375 64.984375 
Q 41.3125 65.921875 37.59375 65.921875 
Q 27.828125 65.921875 22.671875 59.328125 
Q 17.53125 52.734375 16.796875 39.40625 
Q 19.671875 43.65625 24.015625 45.921875 
Q 28.375 48.1875 33.59375 48.1875 
Q 44.578125 48.1875 50.953125 41.515625 
Q 57.328125 34.859375 57.328125 23.390625 
Q 57.328125 12.15625 50.6875 5.359375 
Q 44.046875 -1.421875 33.015625 -1.421875 
Q 20.359375 -1.421875 13.671875 8.265625 
Q 6.984375 17.96875 6.984375 36.375 
Q 6.984375 53.65625 15.1875 63.9375 
Q 23.390625 74.21875 37.203125 74.21875 
Q 40.921875 74.21875 44.703125 73.484375 
Q 48.484375 72.75 52.59375 71.296875 
" id="BitstreamVeraSans-Roman-36"/>
      </defs>
      <g transform="translate(492.671494898 432.7337625)scale(0.14 -0.14)">
       <use xlink:href="#BitstreamVeraSans-Roman-32"/>
       <use x="63.623046875" xlink:href="#BitstreamVeraSans-Roman-30"/>
       <use x="127.24609375" xlink:href="#BitstreamVeraSans-Roman-31"/>
       <use x="190.869140625" xlink:href="#BitstreamVeraSans-Roman-36"/>
      </g>
     </g>
    </g>
    <g id="xtick_5">
     <g id="line2d_13">
      <g>
       <use style="stroke:#000000;stroke-width:0.5;" x="50.27425" xlink:href="#mb1b6a027e0" y="418.09595"/>
      </g>
     </g>
     <g id="line2d_14">
      <g>
       <use style="stroke:#000000;stroke-width:0.5;" x="50.27425" xlink:href="#mb1b6a027e0" y="59.53595"/>
      </g>
     </g>
    </g>
    <g id="xtick_6">
     <g id="line2d_15">
      <g>
       <use style="stroke:#000000;stroke-width:0.5;" x="80.9550663265" xlink:href="#mb1b6a027e0" y="418.09595"/>
      </g>
     </g>
     <g id="line2d_16">
      <g>
       <use style="stroke:#000000;stroke-width:0.5;" x="80.9550663265" xlink:href="#mb1b6a027e0" y="59.53595"/>
      </g>
     </g>
    </g>
    <g id="xtick_7">
     <g id="line2d_17">
      <g>
       <use style="stroke:#000000;stroke-width:0.5;" x="111.635882653" xlink:href="#mb1b6a027e0" y="418.09595"/>
      </g>
     </g>
     <g id="line2d_18">
      <g>
       <use style="stroke:#000000;stroke-width:0.5;" x="111.635882653" xlink:href="#mb1b6a027e0" y="59.53595"/>
      </g>
     </g>
    </g>
    <g id="xtick_8">
     <g id="line2d_19">
      <g>
       <use style="stroke:#000000;stroke-width:0.5;" x="142.31669898" xlink:href="#mb1b6a027e0" y="418.09595"/>
      </g>
     </g>
     <g id="line2d_20">
      <g>
       <use style="stroke:#000000;stroke-width:0.5;" x="142.31669898" xlink:href="#mb1b6a027e0" y="59.53595"/>
      </g>
     </g>
    </g>
    <g id="xtick_9">
     <g id="line2d_21">
      <g>
       <use style="stroke:#000000;stroke-width:0.5;" x="172.997515306" xlink:href="#mb1b6a027e0" y="418.09595"/>
      </g>
     </g>
     <g id="line2d_22">
      <g>
       <use style="stroke:#000000;stroke-width:0.5;" x="172.997515306" xlink:href="#mb1b6a027e0" y="59.53595"/>
      </g>
     </g>
    </g>
    <g id="xtick_10">
     <g id="line2d_23">
      <g>
       <use style="stroke:#000000;stroke-width:0.5;" x="203.678331633" xlink:href="#mb1b6a027e0" y="418.09595"/>
      </g>
     </g>
     <g id="line2d_24">
      <g>
       <use style="stroke:#000000;stroke-width:0.5;" x="203.678331633" xlink:href="#mb1b6a027e0" y="59.53595"/>
      </g>
     </g>
    </g>
    <g id="xtick_11">
     <g id="line2d_25">
      <g>
       <use style="stroke:#000000;stroke-width:0.5;" x="234.359147959" xlink:href="#mb1b6a027e0" y="418.09595"/>
      </g>
     </g>
     <g id="line2d_26">
      <g>
       <use style="stroke:#000000;stroke-width:0.5;" x="234.359147959" xlink:href="#mb1b6a027e0" y="59.53595"/>
      </g>
     </g>
    </g>
    <g id="xtick_12">
     <g id="line2d_27">
      <g>
       <use style="stroke:#000000;stroke-width:0.5;" x="265.039964286" xlink:href="#mb1b6a027e0" y="418.09595"/>
      </g>
     </g>
     <g id="line2d_28">
      <g>
       <use style="stroke:#000000;stroke-width:0.5;" x="265.039964286" xlink:href="#mb1b6a027e0" y="59.53595"/>
      </g>
     </g>
    </g>
    <g id="xtick_13">
     <g id="line2d_29">
      <g>
       <use style="stroke:#000000;stroke-width:0.5;" x="295.720780612" xlink:href="#mb1b6a027e0" y="418.09595"/>
      </g>
     </g>
     <g id="line2d_30">
      <g>
       <use style="stroke:#000000;stroke-width:0.5;" x="295.720780612" xlink:href="#mb1b6a027e0" y="59.53595"/>
      </g>
     </g>
    </g>
    <g id="xtick_14">
     <g id="line2d_31">
      <g>
       <use style="stroke:#000000;stroke-width:0.5;" x="326.401596939" xlink:href="#mb1b6a027e0" y="418.09595"/>
      </g>
     </g>
     <g id="line2d_32">
      <g>
       <use style="stroke:#000000;stroke-width:0.5;" x="326.401596939" xlink:href="#mb1b6a027e0" y="59.53595"/>
      </g>
     </g>
    </g>
    <g id="xtick_15">
     <g id="line2d_33">
      <g>
       <use style="stroke:#000000;stroke-width:0.5;" x="357.082413265" xlink:href="#mb1b6a027e0" y="418.09595"/>
      </g>
     </g>
     <g id="line2d_34">
      <g>
       <use style="stroke:#000000;stroke-width:0.5;" x="357.082413265" xlink:href="#mb1b6a027e0" y="59.53595"/>
      </g>
     </g>
    </g>
    <g id="xtick_16">
     <g id="line2d_35">
      <g>
       <use style="stroke:#000000;stroke-width:0.5;" x="387.763229592" xlink:href="#mb1b6a027e0" y="418.09595"/>
      </g>
     </g>
     <g id="line2d_36">
      <g>
       <use style="stroke:#000000;stroke-width:0.5;" x="387.763229592" xlink:href="#mb1b6a027e0" y="59.53595"/>
      </g>
     </g>
    </g>
    <g id="xtick_17">
     <g id="line2d_37">
      <g>
       <use style="stroke:#000000;stroke-width:0.5;" x="418.444045918" xlink:href="#mb1b6a027e0" y="418.09595"/>
      </g>
     </g>
     <g id="line2d_38">
      <g>
       <use style="stroke:#000000;stroke-width:0.5;" x="418.444045918" xlink:href="#mb1b6a027e0" y="59.53595"/>
      </g>
     </g>
    </g>
    <g id="xtick_18">
     <g id="line2d_39">
      <g>
       <use style="stroke:#000000;stroke-width:0.5;" x="449.124862245" xlink:href="#mb1b6a027e0" y="418.09595"/>
      </g>
     </g>
     <g id="line2d_40">
      <g>
       <use style="stroke:#000000;stroke-width:0.5;" x="449.124862245" xlink:href="#mb1b6a027e0" y="59.53595"/>
      </g>
     </g>
    </g>
    <g id="xtick_19">
     <g id="line2d_41">
      <g>
       <use style="stroke:#000000;stroke-width:0.5;" x="479.805678571" xlink:href="#mb1b6a027e0" y="418.09595"/>
      </g>
     </g>
     <g id="line2d_42">
      <g>
       <use style="stroke:#000000;stroke-width:0.5;" x="479.805678571" xlink:href="#mb1b6a027e0" y="59.53595"/>
      </g>
     </g>
    </g>
    <g id="xtick_20">
     <g id="line2d_43">
      <g>
       <use style="stroke:#000000;stroke-width:0.5;" x="510.486494898" xlink:href="#mb1b6a027e0" y="418.09595"/>
      </g>
     </g>
     <g id="line2d_44">
      <g>
       <use style="stroke:#000000;stroke-width:0.5;" x="510.486494898" xlink:href="#mb1b6a027e0" y="59.53595"/>
      </g>
     </g>
    </g>
    <g id="xtick_21">
     <g id="line2d_45">
      <g>
       <use style="stroke:#000000;stroke-width:0.5;" x="541.167311224" xlink:href="#mb1b6a027e0" y="418.09595"/>
      </g>
     </g>
     <g id="line2d_46">
      <g>
       <use style="stroke:#000000;stroke-width:0.5;" x="541.167311224" xlink:href="#mb1b6a027e0" y="59.53595"/>
      </g>
     </g>
    </g>
    <g id="text_5">
     <!-- Date -->
     <defs>
      <path d="M 56.203125 29.59375 
L 56.203125 25.203125 
L 14.890625 25.203125 
Q 15.484375 15.921875 20.484375 11.0625 
Q 25.484375 6.203125 34.421875 6.203125 
Q 39.59375 6.203125 44.453125 7.46875 
Q 49.3125 8.734375 54.109375 11.28125 
L 54.109375 2.78125 
Q 49.265625 0.734375 44.1875 -0.34375 
Q 39.109375 -1.421875 33.890625 -1.421875 
Q 20.796875 -1.421875 13.15625 6.1875 
Q 5.515625 13.8125 5.515625 26.8125 
Q 5.515625 40.234375 12.765625 48.109375 
Q 20.015625 56 32.328125 56 
Q 43.359375 56 49.78125 48.890625 
Q 56.203125 41.796875 56.203125 29.59375 
M 47.21875 32.234375 
Q 47.125 39.59375 43.09375 43.984375 
Q 39.0625 48.390625 32.421875 48.390625 
Q 24.90625 48.390625 20.390625 44.140625 
Q 15.875 39.890625 15.1875 32.171875 
z
" id="BitstreamVeraSans-Roman-65"/>
      <path d="M 18.3125 70.21875 
L 18.3125 54.6875 
L 36.8125 54.6875 
L 36.8125 47.703125 
L 18.3125 47.703125 
L 18.3125 18.015625 
Q 18.3125 11.328125 20.140625 9.421875 
Q 21.96875 7.515625 27.59375 7.515625 
L 36.8125 7.515625 
L 36.8125 0 
L 27.59375 0 
Q 17.1875 0 13.234375 3.875 
Q 9.28125 7.765625 9.28125 18.015625 
L 9.28125 47.703125 
L 2.6875 47.703125 
L 2.6875 54.6875 
L 9.28125 54.6875 
L 9.28125 70.21875 
z
" id="BitstreamVeraSans-Roman-74"/>
      <path d="M 19.671875 64.796875 
L 19.671875 8.109375 
L 31.59375 8.109375 
Q 46.6875 8.109375 53.6875 14.9375 
Q 60.6875 21.78125 60.6875 36.53125 
Q 60.6875 51.171875 53.6875 57.984375 
Q 46.6875 64.796875 31.59375 64.796875 
z
M 9.8125 72.90625 
L 30.078125 72.90625 
Q 51.265625 72.90625 61.171875 64.09375 
Q 71.09375 55.28125 71.09375 36.53125 
Q 71.09375 17.671875 61.125 8.828125 
Q 51.171875 0 30.078125 0 
L 9.8125 0 
z
" id="BitstreamVeraSans-Roman-44"/>
      <path d="M 34.28125 27.484375 
Q 23.390625 27.484375 19.1875 25 
Q 14.984375 22.515625 14.984375 16.5 
Q 14.984375 11.71875 18.140625 8.90625 
Q 21.296875 6.109375 26.703125 6.109375 
Q 34.1875 6.109375 38.703125 11.40625 
Q 43.21875 16.703125 43.21875 25.484375 
L 43.21875 27.484375 
z
M 52.203125 31.203125 
L 52.203125 0 
L 43.21875 0 
L 43.21875 8.296875 
Q 40.140625 3.328125 35.546875 0.953125 
Q 30.953125 -1.421875 24.3125 -1.421875 
Q 15.921875 -1.421875 10.953125 3.296875 
Q 6 8.015625 6 15.921875 
Q 6 25.140625 12.171875 29.828125 
Q 18.359375 34.515625 30.609375 34.515625 
L 43.21875 34.515625 
L 43.21875 35.40625 
Q 43.21875 41.609375 39.140625 45 
Q 35.0625 48.390625 27.6875 48.390625 
Q 23 48.390625 18.546875 47.265625 
Q 14.109375 46.140625 10.015625 43.890625 
L 10.015625 52.203125 
Q 14.9375 54.109375 19.578125 55.046875 
Q 24.21875 56 28.609375 56 
Q 40.484375 56 46.34375 49.84375 
Q 52.203125 43.703125 52.203125 31.203125 
" id="BitstreamVeraSans-Roman-61"/>
     </defs>
     <g transform="translate(280.7569375 453.4107)scale(0.168 -0.168)">
      <use xlink:href="#BitstreamVeraSans-Roman-44"/>
      <use x="77.001953125" xlink:href="#BitstreamVeraSans-Roman-61"/>
      <use x="138.28125" xlink:href="#BitstreamVeraSans-Roman-74"/>
      <use x="177.490234375" xlink:href="#BitstreamVeraSans-Roman-65"/>
     </g>
    </g>
   </g>
   <g id="matplotlib.axis_2">
    <g id="ytick_1">
     <g id="line2d_47">
      <path clip-path="url(#p93f4c8da0e)" d="M 50.27425 418.09595 
L 551.39425 418.09595 
" style="fill:none;stroke:#cbcbcb;"/>
     </g>
     <g id="line2d_48">
      <g>
       <use style="stroke:#000000;stroke-width:0.5;" x="50.27425" xlink:href="#mb1b6a027e0" y="418.09595"/>
      </g>
     </g>
     <g id="line2d_49">
      <g>
       <use style="stroke:#000000;stroke-width:0.5;" x="551.39425" xlink:href="#mb1b6a027e0" y="418.09595"/>
      </g>
     </g>
     <g id="text_6">
      <!-- 0 -->
      <g transform="translate(37.36675 421.959075)scale(0.14 -0.14)">
       <use xlink:href="#BitstreamVeraSans-Roman-30"/>
      </g>
     </g>
    </g>
    <g id="ytick_2">
     <g id="line2d_50">
      <path clip-path="url(#p93f4c8da0e)" d="M 50.27425 366.873093 
L 551.39425 366.873093 
" style="fill:none;stroke:#cbcbcb;"/>
     </g>
     <g id="line2d_51">
      <g>
       <use style="stroke:#000000;stroke-width:0.5;" x="50.27425" xlink:href="#mb1b6a027e0" y="366.873092857"/>
      </g>
     </g>
     <g id="line2d_52">
      <g>
       <use style="stroke:#000000;stroke-width:0.5;" x="551.39425" xlink:href="#mb1b6a027e0" y="366.873092857"/>
      </g>
     </g>
     <g id="text_7">
      <!-- 5 -->
      <g transform="translate(37.36675 370.736217857)scale(0.14 -0.14)">
       <use xlink:href="#BitstreamVeraSans-Roman-35"/>
      </g>
     </g>
    </g>
    <g id="ytick_3">
     <g id="line2d_53">
      <path clip-path="url(#p93f4c8da0e)" d="M 50.27425 315.650236 
L 551.39425 315.650236 
" style="fill:none;stroke:#cbcbcb;"/>
     </g>
     <g id="line2d_54">
      <g>
       <use style="stroke:#000000;stroke-width:0.5;" x="50.27425" xlink:href="#mb1b6a027e0" y="315.650235714"/>
      </g>
     </g>
     <g id="line2d_55">
      <g>
       <use style="stroke:#000000;stroke-width:0.5;" x="551.39425" xlink:href="#mb1b6a027e0" y="315.650235714"/>
      </g>
     </g>
     <g id="text_8">
      <!-- 10 -->
      <g transform="translate(28.45925 319.513360714)scale(0.14 -0.14)">
       <use xlink:href="#BitstreamVeraSans-Roman-31"/>
       <use x="63.623046875" xlink:href="#BitstreamVeraSans-Roman-30"/>
      </g>
     </g>
    </g>
    <g id="ytick_4">
     <g id="line2d_56">
      <path clip-path="url(#p93f4c8da0e)" d="M 50.27425 264.427379 
L 551.39425 264.427379 
" style="fill:none;stroke:#cbcbcb;"/>
     </g>
     <g id="line2d_57">
      <g>
       <use style="stroke:#000000;stroke-width:0.5;" x="50.27425" xlink:href="#mb1b6a027e0" y="264.427378571"/>
      </g>
     </g>
     <g id="line2d_58">
      <g>
       <use style="stroke:#000000;stroke-width:0.5;" x="551.39425" xlink:href="#mb1b6a027e0" y="264.427378571"/>
      </g>
     </g>
     <g id="text_9">
      <!-- 15 -->
      <g transform="translate(28.45925 268.290503571)scale(0.14 -0.14)">
       <use xlink:href="#BitstreamVeraSans-Roman-31"/>
       <use x="63.623046875" xlink:href="#BitstreamVeraSans-Roman-35"/>
      </g>
     </g>
    </g>
    <g id="ytick_5">
     <g id="line2d_59">
      <path clip-path="url(#p93f4c8da0e)" d="M 50.27425 213.204521 
L 551.39425 213.204521 
" style="fill:none;stroke:#cbcbcb;"/>
     </g>
     <g id="line2d_60">
      <g>
       <use style="stroke:#000000;stroke-width:0.5;" x="50.27425" xlink:href="#mb1b6a027e0" y="213.204521429"/>
      </g>
     </g>
     <g id="line2d_61">
      <g>
       <use style="stroke:#000000;stroke-width:0.5;" x="551.39425" xlink:href="#mb1b6a027e0" y="213.204521429"/>
      </g>
     </g>
     <g id="text_10">
      <!-- 20 -->
      <g transform="translate(28.45925 217.067646429)scale(0.14 -0.14)">
       <use xlink:href="#BitstreamVeraSans-Roman-32"/>
       <use x="63.623046875" xlink:href="#BitstreamVeraSans-Roman-30"/>
      </g>
     </g>
    </g>
    <g id="ytick_6">
     <g id="line2d_62">
      <path clip-path="url(#p93f4c8da0e)" d="M 50.27425 161.981664 
L 551.39425 161.981664 
" style="fill:none;stroke:#cbcbcb;"/>
     </g>
     <g id="line2d_63">
      <g>
       <use style="stroke:#000000;stroke-width:0.5;" x="50.27425" xlink:href="#mb1b6a027e0" y="161.981664286"/>
      </g>
     </g>
     <g id="line2d_64">
      <g>
       <use style="stroke:#000000;stroke-width:0.5;" x="551.39425" xlink:href="#mb1b6a027e0" y="161.981664286"/>
      </g>
     </g>
     <g id="text_11">
      <!-- 25 -->
      <g transform="translate(28.45925 165.844789286)scale(0.14 -0.14)">
       <use xlink:href="#BitstreamVeraSans-Roman-32"/>
       <use x="63.623046875" xlink:href="#BitstreamVeraSans-Roman-35"/>
      </g>
     </g>
    </g>
    <g id="ytick_7">
     <g id="line2d_65">
      <path clip-path="url(#p93f4c8da0e)" d="M 50.27425 110.758807 
L 551.39425 110.758807 
" style="fill:none;stroke:#cbcbcb;"/>
     </g>
     <g id="line2d_66">
      <g>
       <use style="stroke:#000000;stroke-width:0.5;" x="50.27425" xlink:href="#mb1b6a027e0" y="110.758807143"/>
      </g>
     </g>
     <g id="line2d_67">
      <g>
       <use style="stroke:#000000;stroke-width:0.5;" x="551.39425" xlink:href="#mb1b6a027e0" y="110.758807143"/>
      </g>
     </g>
     <g id="text_12">
      <!-- 30 -->
      <g transform="translate(28.45925 114.621932143)scale(0.14 -0.14)">
       <use xlink:href="#BitstreamVeraSans-Roman-33"/>
       <use x="63.623046875" xlink:href="#BitstreamVeraSans-Roman-30"/>
      </g>
     </g>
    </g>
    <g id="ytick_8">
     <g id="line2d_68">
      <path clip-path="url(#p93f4c8da0e)" d="M 50.27425 59.53595 
L 551.39425 59.53595 
" style="fill:none;stroke:#cbcbcb;"/>
     </g>
     <g id="line2d_69">
      <g>
       <use style="stroke:#000000;stroke-width:0.5;" x="50.27425" xlink:href="#mb1b6a027e0" y="59.53595"/>
      </g>
     </g>
     <g id="line2d_70">
      <g>
       <use style="stroke:#000000;stroke-width:0.5;" x="551.39425" xlink:href="#mb1b6a027e0" y="59.53595"/>
      </g>
     </g>
     <g id="text_13">
      <!-- 35 -->
      <g transform="translate(28.45925 63.399075)scale(0.14 -0.14)">
       <use xlink:href="#BitstreamVeraSans-Roman-33"/>
       <use x="63.623046875" xlink:href="#BitstreamVeraSans-Roman-35"/>
      </g>
     </g>
    </g>
    <g id="text_14">
     <!-- Nombre d'offres -->
     <defs>
      <path id="BitstreamVeraSans-Roman-20"/>
      <path d="M 9.8125 72.90625 
L 23.09375 72.90625 
L 55.421875 11.921875 
L 55.421875 72.90625 
L 64.984375 72.90625 
L 64.984375 0 
L 51.703125 0 
L 19.390625 60.984375 
L 19.390625 0 
L 9.8125 0 
z
" id="BitstreamVeraSans-Roman-4e"/>
      <path d="M 17.921875 72.90625 
L 17.921875 45.796875 
L 9.625 45.796875 
L 9.625 72.90625 
z
" id="BitstreamVeraSans-Roman-27"/>
      <path d="M 52 44.1875 
Q 55.375 50.25 60.0625 53.125 
Q 64.75 56 71.09375 56 
Q 79.640625 56 84.28125 50.015625 
Q 88.921875 44.046875 88.921875 33.015625 
L 88.921875 0 
L 79.890625 0 
L 79.890625 32.71875 
Q 79.890625 40.578125 77.09375 44.375 
Q 74.3125 48.1875 68.609375 48.1875 
Q 61.625 48.1875 57.5625 43.546875 
Q 53.515625 38.921875 53.515625 30.90625 
L 53.515625 0 
L 44.484375 0 
L 44.484375 32.71875 
Q 44.484375 40.625 41.703125 44.40625 
Q 38.921875 48.1875 33.109375 48.1875 
Q 26.21875 48.1875 22.15625 43.53125 
Q 18.109375 38.875 18.109375 30.90625 
L 18.109375 0 
L 9.078125 0 
L 9.078125 54.6875 
L 18.109375 54.6875 
L 18.109375 46.1875 
Q 21.1875 51.21875 25.484375 53.609375 
Q 29.78125 56 35.6875 56 
Q 41.65625 56 45.828125 52.96875 
Q 50 49.953125 52 44.1875 
" id="BitstreamVeraSans-Roman-6d"/>
      <path d="M 30.609375 48.390625 
Q 23.390625 48.390625 19.1875 42.75 
Q 14.984375 37.109375 14.984375 27.296875 
Q 14.984375 17.484375 19.15625 11.84375 
Q 23.34375 6.203125 30.609375 6.203125 
Q 37.796875 6.203125 41.984375 11.859375 
Q 46.1875 17.53125 46.1875 27.296875 
Q 46.1875 37.015625 41.984375 42.703125 
Q 37.796875 48.390625 30.609375 48.390625 
M 30.609375 56 
Q 42.328125 56 49.015625 48.375 
Q 55.71875 40.765625 55.71875 27.296875 
Q 55.71875 13.875 49.015625 6.21875 
Q 42.328125 -1.421875 30.609375 -1.421875 
Q 18.84375 -1.421875 12.171875 6.21875 
Q 5.515625 13.875 5.515625 27.296875 
Q 5.515625 40.765625 12.171875 48.375 
Q 18.84375 56 30.609375 56 
" id="BitstreamVeraSans-Roman-6f"/>
      <path d="M 45.40625 46.390625 
L 45.40625 75.984375 
L 54.390625 75.984375 
L 54.390625 0 
L 45.40625 0 
L 45.40625 8.203125 
Q 42.578125 3.328125 38.25 0.953125 
Q 33.9375 -1.421875 27.875 -1.421875 
Q 17.96875 -1.421875 11.734375 6.484375 
Q 5.515625 14.40625 5.515625 27.296875 
Q 5.515625 40.1875 11.734375 48.09375 
Q 17.96875 56 27.875 56 
Q 33.9375 56 38.25 53.625 
Q 42.578125 51.265625 45.40625 46.390625 
M 14.796875 27.296875 
Q 14.796875 17.390625 18.875 11.75 
Q 22.953125 6.109375 30.078125 6.109375 
Q 37.203125 6.109375 41.296875 11.75 
Q 45.40625 17.390625 45.40625 27.296875 
Q 45.40625 37.203125 41.296875 42.84375 
Q 37.203125 48.484375 30.078125 48.484375 
Q 22.953125 48.484375 18.875 42.84375 
Q 14.796875 37.203125 14.796875 27.296875 
" id="BitstreamVeraSans-Roman-64"/>
      <path d="M 37.109375 75.984375 
L 37.109375 68.5 
L 28.515625 68.5 
Q 23.6875 68.5 21.796875 66.546875 
Q 19.921875 64.59375 19.921875 59.515625 
L 19.921875 54.6875 
L 34.71875 54.6875 
L 34.71875 47.703125 
L 19.921875 47.703125 
L 19.921875 0 
L 10.890625 0 
L 10.890625 47.703125 
L 2.296875 47.703125 
L 2.296875 54.6875 
L 10.890625 54.6875 
L 10.890625 58.5 
Q 10.890625 67.625 15.140625 71.796875 
Q 19.390625 75.984375 28.609375 75.984375 
z
" id="BitstreamVeraSans-Roman-66"/>
      <path d="M 41.109375 46.296875 
Q 39.59375 47.171875 37.8125 47.578125 
Q 36.03125 48 33.890625 48 
Q 26.265625 48 22.1875 43.046875 
Q 18.109375 38.09375 18.109375 28.8125 
L 18.109375 0 
L 9.078125 0 
L 9.078125 54.6875 
L 18.109375 54.6875 
L 18.109375 46.1875 
Q 20.953125 51.171875 25.484375 53.578125 
Q 30.03125 56 36.53125 56 
Q 37.453125 56 38.578125 55.875 
Q 39.703125 55.765625 41.0625 55.515625 
z
" id="BitstreamVeraSans-Roman-72"/>
      <path d="M 44.28125 53.078125 
L 44.28125 44.578125 
Q 40.484375 46.53125 36.375 47.5 
Q 32.28125 48.484375 27.875 48.484375 
Q 21.1875 48.484375 17.84375 46.4375 
Q 14.5 44.390625 14.5 40.28125 
Q 14.5 37.15625 16.890625 35.375 
Q 19.28125 33.59375 26.515625 31.984375 
L 29.59375 31.296875 
Q 39.15625 29.25 43.1875 25.515625 
Q 47.21875 21.78125 47.21875 15.09375 
Q 47.21875 7.46875 41.1875 3.015625 
Q 35.15625 -1.421875 24.609375 -1.421875 
Q 20.21875 -1.421875 15.453125 -0.5625 
Q 10.6875 0.296875 5.421875 2 
L 5.421875 11.28125 
Q 10.40625 8.6875 15.234375 7.390625 
Q 20.0625 6.109375 24.8125 6.109375 
Q 31.15625 6.109375 34.5625 8.28125 
Q 37.984375 10.453125 37.984375 14.40625 
Q 37.984375 18.0625 35.515625 20.015625 
Q 33.0625 21.96875 24.703125 23.78125 
L 21.578125 24.515625 
Q 13.234375 26.265625 9.515625 29.90625 
Q 5.8125 33.546875 5.8125 39.890625 
Q 5.8125 47.609375 11.28125 51.796875 
Q 16.75 56 26.8125 56 
Q 31.78125 56 36.171875 55.265625 
Q 40.578125 54.546875 44.28125 53.078125 
" id="BitstreamVeraSans-Roman-73"/>
      <path d="M 48.6875 27.296875 
Q 48.6875 37.203125 44.609375 42.84375 
Q 40.53125 48.484375 33.40625 48.484375 
Q 26.265625 48.484375 22.1875 42.84375 
Q 18.109375 37.203125 18.109375 27.296875 
Q 18.109375 17.390625 22.1875 11.75 
Q 26.265625 6.109375 33.40625 6.109375 
Q 40.53125 6.109375 44.609375 11.75 
Q 48.6875 17.390625 48.6875 27.296875 
M 18.109375 46.390625 
Q 20.953125 51.265625 25.265625 53.625 
Q 29.59375 56 35.59375 56 
Q 45.5625 56 51.78125 48.09375 
Q 58.015625 40.1875 58.015625 27.296875 
Q 58.015625 14.40625 51.78125 6.484375 
Q 45.5625 -1.421875 35.59375 -1.421875 
Q 29.59375 -1.421875 25.265625 0.953125 
Q 20.953125 3.328125 18.109375 8.203125 
L 18.109375 0 
L 9.078125 0 
L 9.078125 75.984375 
L 18.109375 75.984375 
z
" id="BitstreamVeraSans-Roman-62"/>
     </defs>
     <g transform="translate(19.965375 306.7338875)rotate(-90.0)scale(0.168 -0.168)">
      <use xlink:href="#BitstreamVeraSans-Roman-4e"/>
      <use x="74.8046875" xlink:href="#BitstreamVeraSans-Roman-6f"/>
      <use x="135.986328125" xlink:href="#BitstreamVeraSans-Roman-6d"/>
      <use x="233.3984375" xlink:href="#BitstreamVeraSans-Roman-62"/>
      <use x="296.875" xlink:href="#BitstreamVeraSans-Roman-72"/>
      <use x="337.95703125" xlink:href="#BitstreamVeraSans-Roman-65"/>
      <use x="399.48046875" xlink:href="#BitstreamVeraSans-Roman-20"/>
      <use x="431.267578125" xlink:href="#BitstreamVeraSans-Roman-64"/>
      <use x="494.744140625" xlink:href="#BitstreamVeraSans-Roman-27"/>
      <use x="522.234375" xlink:href="#BitstreamVeraSans-Roman-6f"/>
      <use x="583.416015625" xlink:href="#BitstreamVeraSans-Roman-66"/>
      <use x="618.62109375" xlink:href="#BitstreamVeraSans-Roman-66"/>
      <use x="653.826171875" xlink:href="#BitstreamVeraSans-Roman-72"/>
      <use x="694.908203125" xlink:href="#BitstreamVeraSans-Roman-65"/>
      <use x="756.431640625" xlink:href="#BitstreamVeraSans-Roman-73"/>
     </g>
    </g>
   </g>
   <g id="PolyCollection_1">
    <defs>
     <path d="M 50.27425 -46.008625 
L 50.27425 -46.008625 
L 60.501189 -46.008625 
L 70.728128 -46.008625 
L 80.955066 -46.008625 
L 91.182005 -46.008625 
L 101.408944 -46.008625 
L 111.635883 -46.008625 
L 121.862821 -46.008625 
L 132.08976 -46.008625 
L 142.316699 -46.008625 
L 152.543638 -46.008625 
L 162.770577 -46.008625 
L 172.997515 -46.008625 
L 183.224454 -46.008625 
L 193.451393 -46.008625 
L 203.678332 -46.008625 
L 213.90527 -46.008625 
L 224.132209 -46.008625 
L 234.359148 -46.008625 
L 244.586087 -46.008625 
L 254.813026 -46.008625 
L 265.039964 -46.008625 
L 275.266903 -46.008625 
L 285.493842 -46.008625 
L 295.720781 -46.008625 
L 305.947719 -46.008625 
L 316.174658 -46.008625 
L 326.401597 -46.008625 
L 336.628536 -46.008625 
L 346.855474 -46.008625 
L 357.082413 -46.008625 
L 367.309352 -46.008625 
L 377.536291 -46.008625 
L 387.76323 -46.008625 
L 397.990168 -46.008625 
L 408.217107 -46.008625 
L 418.444046 -46.008625 
L 428.670985 -46.008625 
L 438.897923 -46.008625 
L 449.124862 -46.008625 
L 459.351801 -46.008625 
L 469.57874 -46.008625 
L 479.805679 -46.008625 
L 490.032617 -46.008625 
L 500.259556 -46.008625 
L 510.486495 -46.008625 
L 520.713434 -46.008625 
L 530.940372 -46.008625 
L 541.167311 -46.008625 
L 551.39425 -46.008625 
L 551.39425 -46.008625 
L 551.39425 -46.008625 
L 541.167311 -56.253196 
L 530.940372 -46.008625 
L 520.713434 -46.008625 
L 510.486495 -46.008625 
L 500.259556 -46.008625 
L 490.032617 -46.008625 
L 479.805679 -46.008625 
L 469.57874 -46.008625 
L 459.351801 -46.008625 
L 449.124862 -46.008625 
L 438.897923 -46.008625 
L 428.670985 -46.008625 
L 418.444046 -46.008625 
L 408.217107 -56.253196 
L 397.990168 -46.008625 
L 387.76323 -46.008625 
L 377.536291 -46.008625 
L 367.309352 -46.008625 
L 357.082413 -46.008625 
L 346.855474 -46.008625 
L 336.628536 -46.008625 
L 326.401597 -46.008625 
L 316.174658 -46.008625 
L 305.947719 -46.008625 
L 295.720781 -46.008625 
L 285.493842 -46.008625 
L 275.266903 -46.008625 
L 265.039964 -46.008625 
L 254.813026 -46.008625 
L 244.586087 -46.008625 
L 234.359148 -46.008625 
L 224.132209 -46.008625 
L 213.90527 -46.008625 
L 203.678332 -46.008625 
L 193.451393 -46.008625 
L 183.224454 -46.008625 
L 172.997515 -46.008625 
L 162.770577 -46.008625 
L 152.543638 -46.008625 
L 142.316699 -46.008625 
L 132.08976 -46.008625 
L 121.862821 -46.008625 
L 111.635883 -46.008625 
L 101.408944 -46.008625 
L 91.182005 -46.008625 
L 80.955066 -46.008625 
L 70.728128 -46.008625 
L 60.501189 -46.008625 
L 50.27425 -46.008625 
z
" id="m49317d7eb8"/>
    </defs>
    <g clip-path="url(#p93f4c8da0e)">
     <use style="fill:#ffa500;" x="0.0" xlink:href="#m49317d7eb8" y="464.104575"/>
    </g>
   </g>
   <g id="PolyCollection_2">
    <defs>
     <path d="M 50.27425 -46.008625 
L 50.27425 -46.008625 
L 60.501189 -46.008625 
L 70.728128 -46.008625 
L 80.955066 -46.008625 
L 91.182005 -46.008625 
L 101.408944 -46.008625 
L 111.635883 -46.008625 
L 121.862821 -46.008625 
L 132.08976 -46.008625 
L 142.316699 -46.008625 
L 152.543638 -46.008625 
L 162.770577 -46.008625 
L 172.997515 -46.008625 
L 183.224454 -46.008625 
L 193.451393 -46.008625 
L 203.678332 -46.008625 
L 213.90527 -46.008625 
L 224.132209 -46.008625 
L 234.359148 -46.008625 
L 244.586087 -46.008625 
L 254.813026 -46.008625 
L 265.039964 -46.008625 
L 275.266903 -46.008625 
L 285.493842 -46.008625 
L 295.720781 -46.008625 
L 305.947719 -46.008625 
L 316.174658 -46.008625 
L 326.401597 -46.008625 
L 336.628536 -46.008625 
L 346.855474 -46.008625 
L 357.082413 -46.008625 
L 367.309352 -46.008625 
L 377.536291 -46.008625 
L 387.76323 -46.008625 
L 397.990168 -46.008625 
L 408.217107 -56.253196 
L 418.444046 -46.008625 
L 428.670985 -46.008625 
L 438.897923 -46.008625 
L 449.124862 -46.008625 
L 459.351801 -46.008625 
L 469.57874 -46.008625 
L 479.805679 -46.008625 
L 490.032617 -46.008625 
L 500.259556 -46.008625 
L 510.486495 -46.008625 
L 520.713434 -46.008625 
L 530.940372 -46.008625 
L 541.167311 -56.253196 
L 551.39425 -46.008625 
L 551.39425 -86.986911 
L 551.39425 -86.986911 
L 541.167311 -86.986911 
L 530.940372 -230.410911 
L 520.713434 -168.943482 
L 510.486495 -158.698911 
L 500.259556 -117.720625 
L 490.032617 -97.231482 
L 479.805679 -86.986911 
L 469.57874 -138.209768 
L 459.351801 -127.965196 
L 449.124862 -138.209768 
L 438.897923 -179.188054 
L 428.670985 -107.476054 
L 418.444046 -127.965196 
L 408.217107 -148.454339 
L 397.990168 -168.943482 
L 387.76323 -179.188054 
L 377.536291 -86.986911 
L 367.309352 -117.720625 
L 357.082413 -148.454339 
L 346.855474 -117.720625 
L 336.628536 -107.476054 
L 326.401597 -189.432625 
L 316.174658 -138.209768 
L 305.947719 -97.231482 
L 295.720781 -66.497768 
L 285.493842 -86.986911 
L 275.266903 -117.720625 
L 265.039964 -76.742339 
L 254.813026 -86.986911 
L 244.586087 -117.720625 
L 234.359148 -86.986911 
L 224.132209 -117.720625 
L 213.90527 -148.454339 
L 203.678332 -86.986911 
L 193.451393 -86.986911 
L 183.224454 -97.231482 
L 172.997515 -117.720625 
L 162.770577 -117.720625 
L 152.543638 -76.742339 
L 142.316699 -107.476054 
L 132.08976 -66.497768 
L 121.862821 -46.008625 
L 111.635883 -97.231482 
L 101.408944 -97.231482 
L 91.182005 -46.008625 
L 80.955066 -76.742339 
L 70.728128 -66.497768 
L 60.501189 -46.008625 
L 50.27425 -46.008625 
z
" id="ma3cb9bff3c"/>
    </defs>
    <g clip-path="url(#p93f4c8da0e)">
     <use style="fill:#deb887;" x="0.0" xlink:href="#ma3cb9bff3c" y="464.104575"/>
    </g>
   </g>
   <g id="PolyCollection_3">
    <defs>
     <path d="M 50.27425 -46.008625 
L 50.27425 -46.008625 
L 60.501189 -46.008625 
L 70.728128 -66.497768 
L 80.955066 -76.742339 
L 91.182005 -46.008625 
L 101.408944 -97.231482 
L 111.635883 -97.231482 
L 121.862821 -46.008625 
L 132.08976 -66.497768 
L 142.316699 -107.476054 
L 152.543638 -76.742339 
L 162.770577 -117.720625 
L 172.997515 -117.720625 
L 183.224454 -97.231482 
L 193.451393 -86.986911 
L 203.678332 -86.986911 
L 213.90527 -148.454339 
L 224.132209 -117.720625 
L 234.359148 -86.986911 
L 244.586087 -117.720625 
L 254.813026 -86.986911 
L 265.039964 -76.742339 
L 275.266903 -117.720625 
L 285.493842 -86.986911 
L 295.720781 -66.497768 
L 305.947719 -97.231482 
L 316.174658 -138.209768 
L 326.401597 -189.432625 
L 336.628536 -107.476054 
L 346.855474 -117.720625 
L 357.082413 -148.454339 
L 367.309352 -117.720625 
L 377.536291 -86.986911 
L 387.76323 -179.188054 
L 397.990168 -168.943482 
L 408.217107 -148.454339 
L 418.444046 -127.965196 
L 428.670985 -107.476054 
L 438.897923 -179.188054 
L 449.124862 -138.209768 
L 459.351801 -127.965196 
L 469.57874 -138.209768 
L 479.805679 -86.986911 
L 490.032617 -97.231482 
L 500.259556 -117.720625 
L 510.486495 -158.698911 
L 520.713434 -168.943482 
L 530.940372 -230.410911 
L 541.167311 -86.986911 
L 551.39425 -86.986911 
L 551.39425 -117.720625 
L 551.39425 -117.720625 
L 541.167311 -117.720625 
L 530.940372 -250.900054 
L 520.713434 -199.677196 
L 510.486495 -209.921768 
L 500.259556 -158.698911 
L 490.032617 -117.720625 
L 479.805679 -86.986911 
L 469.57874 -138.209768 
L 459.351801 -127.965196 
L 449.124862 -158.698911 
L 438.897923 -189.432625 
L 428.670985 -107.476054 
L 418.444046 -148.454339 
L 408.217107 -168.943482 
L 397.990168 -220.166339 
L 387.76323 -189.432625 
L 377.536291 -86.986911 
L 367.309352 -117.720625 
L 357.082413 -158.698911 
L 346.855474 -127.965196 
L 336.628536 -117.720625 
L 326.401597 -240.655482 
L 316.174658 -138.209768 
L 305.947719 -117.720625 
L 295.720781 -76.742339 
L 285.493842 -86.986911 
L 275.266903 -158.698911 
L 265.039964 -76.742339 
L 254.813026 -97.231482 
L 244.586087 -148.454339 
L 234.359148 -107.476054 
L 224.132209 -127.965196 
L 213.90527 -158.698911 
L 203.678332 -97.231482 
L 193.451393 -107.476054 
L 183.224454 -107.476054 
L 172.997515 -127.965196 
L 162.770577 -138.209768 
L 152.543638 -76.742339 
L 142.316699 -117.720625 
L 132.08976 -86.986911 
L 121.862821 -56.253196 
L 111.635883 -107.476054 
L 101.408944 -107.476054 
L 91.182005 -46.008625 
L 80.955066 -76.742339 
L 70.728128 -66.497768 
L 60.501189 -46.008625 
L 50.27425 -46.008625 
z
" id="m1e6c5dc6d0"/>
    </defs>
    <g clip-path="url(#p93f4c8da0e)">
     <use style="fill:#a52a2a;" x="0.0" xlink:href="#m1e6c5dc6d0" y="464.104575"/>
    </g>
   </g>
   <g id="PolyCollection_4">
    <defs>
     <path d="M 50.27425 -56.253196 
L 50.27425 -46.008625 
L 60.501189 -46.008625 
L 70.728128 -66.497768 
L 80.955066 -76.742339 
L 91.182005 -46.008625 
L 101.408944 -107.476054 
L 111.635883 -107.476054 
L 121.862821 -56.253196 
L 132.08976 -86.986911 
L 142.316699 -117.720625 
L 152.543638 -76.742339 
L 162.770577 -138.209768 
L 172.997515 -127.965196 
L 183.224454 -107.476054 
L 193.451393 -107.476054 
L 203.678332 -97.231482 
L 213.90527 -158.698911 
L 224.132209 -127.965196 
L 234.359148 -107.476054 
L 244.586087 -148.454339 
L 254.813026 -97.231482 
L 265.039964 -76.742339 
L 275.266903 -158.698911 
L 285.493842 -86.986911 
L 295.720781 -76.742339 
L 305.947719 -117.720625 
L 316.174658 -138.209768 
L 326.401597 -240.655482 
L 336.628536 -117.720625 
L 346.855474 -127.965196 
L 357.082413 -158.698911 
L 367.309352 -117.720625 
L 377.536291 -86.986911 
L 387.76323 -189.432625 
L 397.990168 -220.166339 
L 408.217107 -168.943482 
L 418.444046 -148.454339 
L 428.670985 -107.476054 
L 438.897923 -189.432625 
L 449.124862 -158.698911 
L 459.351801 -127.965196 
L 469.57874 -138.209768 
L 479.805679 -86.986911 
L 490.032617 -117.720625 
L 500.259556 -158.698911 
L 510.486495 -209.921768 
L 520.713434 -199.677196 
L 530.940372 -250.900054 
L 541.167311 -117.720625 
L 551.39425 -117.720625 
L 551.39425 -199.677196 
L 551.39425 -199.677196 
L 541.167311 -209.921768 
L 530.940372 -384.079482 
L 520.713434 -404.568625 
L 510.486495 -353.345768 
L 500.259556 -261.144625 
L 490.032617 -261.144625 
L 479.805679 -281.633768 
L 469.57874 -302.122911 
L 459.351801 -230.410911 
L 449.124862 -230.410911 
L 438.897923 -291.878339 
L 428.670985 -209.921768 
L 418.444046 -261.144625 
L 408.217107 -322.612054 
L 397.990168 -312.367482 
L 387.76323 -271.389196 
L 377.536291 -220.166339 
L 367.309352 -240.655482 
L 357.082413 -250.900054 
L 346.855474 -281.633768 
L 336.628536 -168.943482 
L 326.401597 -384.079482 
L 316.174658 -250.900054 
L 305.947719 -189.432625 
L 295.720781 -199.677196 
L 285.493842 -107.476054 
L 275.266903 -271.389196 
L 265.039964 -250.900054 
L 254.813026 -168.943482 
L 244.586087 -199.677196 
L 234.359148 -107.476054 
L 224.132209 -209.921768 
L 213.90527 -199.677196 
L 203.678332 -158.698911 
L 193.451393 -158.698911 
L 183.224454 -127.965196 
L 172.997515 -138.209768 
L 162.770577 -158.698911 
L 152.543638 -107.476054 
L 142.316699 -158.698911 
L 132.08976 -127.965196 
L 121.862821 -76.742339 
L 111.635883 -117.720625 
L 101.408944 -127.965196 
L 91.182005 -66.497768 
L 80.955066 -117.720625 
L 70.728128 -107.476054 
L 60.501189 -46.008625 
L 50.27425 -56.253196 
z
" id="mf09848ad13"/>
    </defs>
    <g clip-path="url(#p93f4c8da0e)">
     <use style="fill:#6495ed;" x="0.0" xlink:href="#mf09848ad13" y="464.104575"/>
    </g>
   </g>
   <g id="line2d_71">
    <path clip-path="url(#p93f4c8da0e)" d="M 50.27425 418.09595 
L 60.501189 418.09595 
L 70.728128 418.09595 
L 80.955066 418.09595 
L 91.182005 418.09595 
L 101.408944 418.09595 
L 111.635883 418.09595 
L 121.862821 418.09595 
L 132.08976 418.09595 
L 142.316699 418.09595 
L 152.543638 418.09595 
L 162.770577 418.09595 
L 172.997515 418.09595 
L 183.224454 418.09595 
L 193.451393 418.09595 
L 203.678332 418.09595 
L 213.90527 418.09595 
L 224.132209 418.09595 
L 234.359148 418.09595 
L 244.586087 418.09595 
L 254.813026 418.09595 
L 265.039964 418.09595 
L 275.266903 418.09595 
L 285.493842 418.09595 
L 295.720781 418.09595 
L 305.947719 418.09595 
L 316.174658 418.09595 
L 326.401597 418.09595 
L 336.628536 418.09595 
L 346.855474 418.09595 
L 357.082413 418.09595 
L 367.309352 418.09595 
L 377.536291 418.09595 
L 387.76323 418.09595 
L 397.990168 418.09595 
L 408.217107 407.851379 
L 418.444046 418.09595 
L 428.670985 418.09595 
L 438.897923 418.09595 
L 449.124862 418.09595 
L 459.351801 418.09595 
L 469.57874 418.09595 
L 479.805679 418.09595 
L 490.032617 418.09595 
L 500.259556 418.09595 
L 510.486495 418.09595 
L 520.713434 418.09595 
L 530.940372 418.09595 
L 541.167311 407.851379 
L 551.39425 418.09595 
" style="fill:none;"/>
   </g>
   <g id="line2d_72">
    <path clip-path="url(#p93f4c8da0e)" d="M 50.27425 418.09595 
L 60.501189 418.09595 
L 70.728128 397.606807 
L 80.955066 387.362236 
L 91.182005 418.09595 
L 101.408944 366.873093 
L 111.635883 366.873093 
L 121.862821 418.09595 
L 132.08976 397.606807 
L 142.316699 356.628521 
L 152.543638 387.362236 
L 162.770577 346.38395 
L 172.997515 346.38395 
L 183.224454 366.873093 
L 193.451393 377.117664 
L 203.678332 377.117664 
L 213.90527 315.650236 
L 224.132209 346.38395 
L 234.359148 377.117664 
L 244.586087 346.38395 
L 254.813026 377.117664 
L 265.039964 387.362236 
L 275.266903 346.38395 
L 285.493842 377.117664 
L 295.720781 397.606807 
L 305.947719 366.873093 
L 316.174658 325.894807 
L 326.401597 274.67195 
L 336.628536 356.628521 
L 346.855474 346.38395 
L 357.082413 315.650236 
L 367.309352 346.38395 
L 377.536291 377.117664 
L 387.76323 284.916521 
L 397.990168 295.161093 
L 408.217107 315.650236 
L 418.444046 336.139379 
L 428.670985 356.628521 
L 438.897923 284.916521 
L 449.124862 325.894807 
L 459.351801 336.139379 
L 469.57874 325.894807 
L 479.805679 377.117664 
L 490.032617 366.873093 
L 500.259556 346.38395 
L 510.486495 305.405664 
L 520.713434 295.161093 
L 530.940372 233.693664 
L 541.167311 377.117664 
L 551.39425 377.117664 
" style="fill:none;"/>
   </g>
   <g id="line2d_73">
    <path clip-path="url(#p93f4c8da0e)" d="M 50.27425 418.09595 
L 60.501189 418.09595 
L 70.728128 397.606807 
L 80.955066 387.362236 
L 91.182005 418.09595 
L 101.408944 356.628521 
L 111.635883 356.628521 
L 121.862821 407.851379 
L 132.08976 377.117664 
L 142.316699 346.38395 
L 152.543638 387.362236 
L 162.770577 325.894807 
L 172.997515 336.139379 
L 183.224454 356.628521 
L 193.451393 356.628521 
L 203.678332 366.873093 
L 213.90527 305.405664 
L 224.132209 336.139379 
L 234.359148 356.628521 
L 244.586087 315.650236 
L 254.813026 366.873093 
L 265.039964 387.362236 
L 275.266903 305.405664 
L 285.493842 377.117664 
L 295.720781 387.362236 
L 305.947719 346.38395 
L 316.174658 325.894807 
L 326.401597 223.449093 
L 336.628536 346.38395 
L 346.855474 336.139379 
L 357.082413 305.405664 
L 367.309352 346.38395 
L 377.536291 377.117664 
L 387.76323 274.67195 
L 397.990168 243.938236 
L 408.217107 295.161093 
L 418.444046 315.650236 
L 428.670985 356.628521 
L 438.897923 274.67195 
L 449.124862 305.405664 
L 459.351801 336.139379 
L 469.57874 325.894807 
L 479.805679 377.117664 
L 490.032617 346.38395 
L 500.259556 305.405664 
L 510.486495 254.182807 
L 520.713434 264.427379 
L 530.940372 213.204521 
L 541.167311 346.38395 
L 551.39425 346.38395 
" style="fill:none;"/>
   </g>
   <g id="line2d_74">
    <path clip-path="url(#p93f4c8da0e)" d="M 50.27425 407.851379 
L 60.501189 418.09595 
L 70.728128 356.628521 
L 80.955066 346.38395 
L 91.182005 397.606807 
L 101.408944 336.139379 
L 111.635883 346.38395 
L 121.862821 387.362236 
L 132.08976 336.139379 
L 142.316699 305.405664 
L 152.543638 356.628521 
L 162.770577 305.405664 
L 172.997515 325.894807 
L 183.224454 336.139379 
L 193.451393 305.405664 
L 203.678332 305.405664 
L 213.90527 264.427379 
L 224.132209 254.182807 
L 234.359148 356.628521 
L 244.586087 264.427379 
L 254.813026 295.161093 
L 265.039964 213.204521 
L 275.266903 192.715379 
L 285.493842 356.628521 
L 295.720781 264.427379 
L 305.947719 274.67195 
L 316.174658 213.204521 
L 326.401597 80.025093 
L 336.628536 295.161093 
L 346.855474 182.470807 
L 357.082413 213.204521 
L 367.309352 223.449093 
L 377.536291 243.938236 
L 387.76323 192.715379 
L 397.990168 151.737093 
L 408.217107 141.492521 
L 418.444046 202.95995 
L 428.670985 254.182807 
L 438.897923 172.226236 
L 449.124862 233.693664 
L 459.351801 233.693664 
L 469.57874 161.981664 
L 479.805679 182.470807 
L 490.032617 202.95995 
L 500.259556 202.95995 
L 510.486495 110.758807 
L 520.713434 59.53595 
L 530.940372 80.025093 
L 541.167311 254.182807 
L 551.39425 264.427379 
" style="fill:none;"/>
   </g>
   <g id="patch_3">
    <path d="M 50.27425 59.53595 
L 551.39425 59.53595 
" style="fill:none;stroke:#f0f0f0;stroke-linecap:square;stroke-linejoin:miter;stroke-width:3.0;"/>
   </g>
   <g id="patch_4">
    <path d="M 551.39425 418.09595 
L 551.39425 59.53595 
" style="fill:none;stroke:#f0f0f0;stroke-linecap:square;stroke-linejoin:miter;stroke-width:3.0;"/>
   </g>
   <g id="patch_5">
    <path d="M 50.27425 418.09595 
L 551.39425 418.09595 
" style="fill:none;stroke:#f0f0f0;stroke-linecap:square;stroke-linejoin:miter;stroke-width:3.0;"/>
   </g>
   <g id="patch_6">
    <path d="M 50.27425 418.09595 
L 50.27425 59.53595 
" style="fill:none;stroke:#f0f0f0;stroke-linecap:square;stroke-linejoin:miter;stroke-width:3.0;"/>
   </g>
   <g id="text_15">
    <!-- Évolution des types de CDD -->
    <defs>
     <path d="M 9.8125 72.90625 
L 55.90625 72.90625 
L 55.90625 64.59375 
L 19.671875 64.59375 
L 19.671875 43.015625 
L 54.390625 43.015625 
L 54.390625 34.71875 
L 19.671875 34.71875 
L 19.671875 8.296875 
L 56.78125 8.296875 
L 56.78125 0 
L 9.8125 0 
z
M 35.4375 92.515625 
L 44.46875 92.515625 
L 33.34375 79.625 
L 25.859375 79.625 
z
" id="BitstreamVeraSans-Roman-c9"/>
     <path d="M 54.890625 33.015625 
L 54.890625 0 
L 45.90625 0 
L 45.90625 32.71875 
Q 45.90625 40.484375 42.875 44.328125 
Q 39.84375 48.1875 33.796875 48.1875 
Q 26.515625 48.1875 22.3125 43.546875 
Q 18.109375 38.921875 18.109375 30.90625 
L 18.109375 0 
L 9.078125 0 
L 9.078125 54.6875 
L 18.109375 54.6875 
L 18.109375 46.1875 
Q 21.34375 51.125 25.703125 53.5625 
Q 30.078125 56 35.796875 56 
Q 45.21875 56 50.046875 50.171875 
Q 54.890625 44.34375 54.890625 33.015625 
" id="BitstreamVeraSans-Roman-6e"/>
     <path d="M 9.421875 75.984375 
L 18.40625 75.984375 
L 18.40625 0 
L 9.421875 0 
z
" id="BitstreamVeraSans-Roman-6c"/>
     <path d="M 9.421875 54.6875 
L 18.40625 54.6875 
L 18.40625 0 
L 9.421875 0 
z
M 9.421875 75.984375 
L 18.40625 75.984375 
L 18.40625 64.59375 
L 9.421875 64.59375 
z
" id="BitstreamVeraSans-Roman-69"/>
     <path d="M 32.171875 -5.078125 
Q 28.375 -14.84375 24.75 -17.8125 
Q 21.140625 -20.796875 15.09375 -20.796875 
L 7.90625 -20.796875 
L 7.90625 -13.28125 
L 13.1875 -13.28125 
Q 16.890625 -13.28125 18.9375 -11.515625 
Q 21 -9.765625 23.484375 -3.21875 
L 25.09375 0.875 
L 2.984375 54.6875 
L 12.5 54.6875 
L 29.59375 11.921875 
L 46.6875 54.6875 
L 56.203125 54.6875 
z
" id="BitstreamVeraSans-Roman-79"/>
     <path d="M 2.984375 54.6875 
L 12.5 54.6875 
L 29.59375 8.796875 
L 46.6875 54.6875 
L 56.203125 54.6875 
L 35.6875 0 
L 23.484375 0 
z
" id="BitstreamVeraSans-Roman-76"/>
     <path d="M 64.40625 67.28125 
L 64.40625 56.890625 
Q 59.421875 61.53125 53.78125 63.8125 
Q 48.140625 66.109375 41.796875 66.109375 
Q 29.296875 66.109375 22.65625 58.46875 
Q 16.015625 50.828125 16.015625 36.375 
Q 16.015625 21.96875 22.65625 14.328125 
Q 29.296875 6.6875 41.796875 6.6875 
Q 48.140625 6.6875 53.78125 8.984375 
Q 59.421875 11.28125 64.40625 15.921875 
L 64.40625 5.609375 
Q 59.234375 2.09375 53.4375 0.328125 
Q 47.65625 -1.421875 41.21875 -1.421875 
Q 24.65625 -1.421875 15.125 8.703125 
Q 5.609375 18.84375 5.609375 36.375 
Q 5.609375 53.953125 15.125 64.078125 
Q 24.65625 74.21875 41.21875 74.21875 
Q 47.75 74.21875 53.53125 72.484375 
Q 59.328125 70.75 64.40625 67.28125 
" id="BitstreamVeraSans-Roman-43"/>
     <path d="M 8.5 21.578125 
L 8.5 54.6875 
L 17.484375 54.6875 
L 17.484375 21.921875 
Q 17.484375 14.15625 20.5 10.265625 
Q 23.53125 6.390625 29.59375 6.390625 
Q 36.859375 6.390625 41.078125 11.03125 
Q 45.3125 15.671875 45.3125 23.6875 
L 45.3125 54.6875 
L 54.296875 54.6875 
L 54.296875 0 
L 45.3125 0 
L 45.3125 8.40625 
Q 42.046875 3.421875 37.71875 1 
Q 33.40625 -1.421875 27.6875 -1.421875 
Q 18.265625 -1.421875 13.375 4.4375 
Q 8.5 10.296875 8.5 21.578125 
" id="BitstreamVeraSans-Roman-75"/>
     <path d="M 18.109375 8.203125 
L 18.109375 -20.796875 
L 9.078125 -20.796875 
L 9.078125 54.6875 
L 18.109375 54.6875 
L 18.109375 46.390625 
Q 20.953125 51.265625 25.265625 53.625 
Q 29.59375 56 35.59375 56 
Q 45.5625 56 51.78125 48.09375 
Q 58.015625 40.1875 58.015625 27.296875 
Q 58.015625 14.40625 51.78125 6.484375 
Q 45.5625 -1.421875 35.59375 -1.421875 
Q 29.59375 -1.421875 25.265625 0.953125 
Q 20.953125 3.328125 18.109375 8.203125 
M 48.6875 27.296875 
Q 48.6875 37.203125 44.609375 42.84375 
Q 40.53125 48.484375 33.40625 48.484375 
Q 26.265625 48.484375 22.1875 42.84375 
Q 18.109375 37.203125 18.109375 27.296875 
Q 18.109375 17.390625 22.1875 11.75 
Q 26.265625 6.109375 33.40625 6.109375 
Q 40.53125 6.109375 44.609375 11.75 
Q 48.6875 17.390625 48.6875 27.296875 
" id="BitstreamVeraSans-Roman-70"/>
    </defs>
    <g transform="translate(160.234 25.85115)scale(0.2016 -0.2016)">
     <use xlink:href="#BitstreamVeraSans-Roman-c9"/>
     <use x="63.18359375" xlink:href="#BitstreamVeraSans-Roman-76"/>
     <use x="122.36328125" xlink:href="#BitstreamVeraSans-Roman-6f"/>
     <use x="183.544921875" xlink:href="#BitstreamVeraSans-Roman-6c"/>
     <use x="211.328125" xlink:href="#BitstreamVeraSans-Roman-75"/>
     <use x="274.70703125" xlink:href="#BitstreamVeraSans-Roman-74"/>
     <use x="313.916015625" xlink:href="#BitstreamVeraSans-Roman-69"/>
     <use x="341.69921875" xlink:href="#BitstreamVeraSans-Roman-6f"/>
     <use x="402.880859375" xlink:href="#BitstreamVeraSans-Roman-6e"/>
     <use x="466.259765625" xlink:href="#BitstreamVeraSans-Roman-20"/>
     <use x="498.046875" xlink:href="#BitstreamVeraSans-Roman-64"/>
     <use x="561.5234375" xlink:href="#BitstreamVeraSans-Roman-65"/>
     <use x="623.046875" xlink:href="#BitstreamVeraSans-Roman-73"/>
     <use x="675.146484375" xlink:href="#BitstreamVeraSans-Roman-20"/>
     <use x="706.93359375" xlink:href="#BitstreamVeraSans-Roman-74"/>
     <use x="746.142578125" xlink:href="#BitstreamVeraSans-Roman-79"/>
     <use x="805.322265625" xlink:href="#BitstreamVeraSans-Roman-70"/>
     <use x="868.798828125" xlink:href="#BitstreamVeraSans-Roman-65"/>
     <use x="930.322265625" xlink:href="#BitstreamVeraSans-Roman-73"/>
     <use x="982.421875" xlink:href="#BitstreamVeraSans-Roman-20"/>
     <use x="1014.20898438" xlink:href="#BitstreamVeraSans-Roman-64"/>
     <use x="1077.68554688" xlink:href="#BitstreamVeraSans-Roman-65"/>
     <use x="1139.20898438" xlink:href="#BitstreamVeraSans-Roman-20"/>
     <use x="1170.99609375" xlink:href="#BitstreamVeraSans-Roman-43"/>
     <use x="1240.8203125" xlink:href="#BitstreamVeraSans-Roman-44"/>
     <use x="1317.82226562" xlink:href="#BitstreamVeraSans-Roman-44"/>
    </g>
   </g>
   <g id="legend_1">
    <g id="patch_7">
     <path d="M 62.03425 194.234325 
L 238.547125 194.234325 
Q 241.907125 194.234325 241.907125 190.874325 
L 241.907125 71.29595 
Q 241.907125 67.93595 238.547125 67.93595 
L 62.03425 67.93595 
Q 58.67425 67.93595 58.67425 71.29595 
L 58.67425 190.874325 
Q 58.67425 194.234325 62.03425 194.234325 
z
" style="fill:#f0f0f0;"/>
    </g>
    <g id="text_16">
     <!-- Type -->
     <defs>
      <path d="M -0.296875 72.90625 
L 61.375 72.90625 
L 61.375 64.59375 
L 35.5 64.59375 
L 35.5 0 
L 25.59375 0 
L 25.59375 64.59375 
L -0.296875 64.59375 
z
" id="BitstreamVeraSans-Roman-54"/>
     </defs>
     <g transform="translate(133.13740625 85.2937625)scale(0.14 -0.14)">
      <use xlink:href="#BitstreamVeraSans-Roman-54"/>
      <use x="60.849609375" xlink:href="#BitstreamVeraSans-Roman-79"/>
      <use x="120.029296875" xlink:href="#BitstreamVeraSans-Roman-70"/>
      <use x="183.505859375" xlink:href="#BitstreamVeraSans-Roman-65"/>
     </g>
    </g>
    <g id="patch_8">
     <path d="M 65.39425 109.3707 
L 98.99425 109.3707 
L 98.99425 97.6107 
L 65.39425 97.6107 
z
" style="fill:#ffa500;"/>
    </g>
    <g id="text_17">
     <!-- ATER -->
     <defs>
      <path d="M 9.8125 72.90625 
L 55.90625 72.90625 
L 55.90625 64.59375 
L 19.671875 64.59375 
L 19.671875 43.015625 
L 54.390625 43.015625 
L 54.390625 34.71875 
L 19.671875 34.71875 
L 19.671875 8.296875 
L 56.78125 8.296875 
L 56.78125 0 
L 9.8125 0 
z
" id="BitstreamVeraSans-Roman-45"/>
      <path d="M 44.390625 34.1875 
Q 47.5625 33.109375 50.5625 29.59375 
Q 53.5625 26.078125 56.59375 19.921875 
L 66.609375 0 
L 56 0 
L 46.6875 18.703125 
Q 43.0625 26.03125 39.671875 28.421875 
Q 36.28125 30.8125 30.421875 30.8125 
L 19.671875 30.8125 
L 19.671875 0 
L 9.8125 0 
L 9.8125 72.90625 
L 32.078125 72.90625 
Q 44.578125 72.90625 50.734375 67.671875 
Q 56.890625 62.453125 56.890625 51.90625 
Q 56.890625 45.015625 53.6875 40.46875 
Q 50.484375 35.9375 44.390625 34.1875 
M 19.671875 64.796875 
L 19.671875 38.921875 
L 32.078125 38.921875 
Q 39.203125 38.921875 42.84375 42.21875 
Q 46.484375 45.515625 46.484375 51.90625 
Q 46.484375 58.296875 42.84375 61.546875 
Q 39.203125 64.796875 32.078125 64.796875 
z
" id="BitstreamVeraSans-Roman-52"/>
      <path d="M 34.1875 63.1875 
L 20.796875 26.90625 
L 47.609375 26.90625 
z
M 28.609375 72.90625 
L 39.796875 72.90625 
L 67.578125 0 
L 57.328125 0 
L 50.6875 18.703125 
L 17.828125 18.703125 
L 11.1875 0 
L 0.78125 0 
z
" id="BitstreamVeraSans-Roman-41"/>
     </defs>
     <g transform="translate(112.43425 109.3707)scale(0.168 -0.168)">
      <use xlink:href="#BitstreamVeraSans-Roman-41"/>
      <use x="68.298828125" xlink:href="#BitstreamVeraSans-Roman-54"/>
      <use x="129.3828125" xlink:href="#BitstreamVeraSans-Roman-45"/>
      <use x="192.56640625" xlink:href="#BitstreamVeraSans-Roman-52"/>
     </g>
    </g>
    <g id="patch_9">
     <path d="M 65.39425 134.70195 
L 98.99425 134.70195 
L 98.99425 122.94195 
L 65.39425 122.94195 
z
" style="fill:#deb887;"/>
    </g>
    <g id="text_18">
     <!-- CDD Ingénieur -->
     <defs>
      <path d="M 56.203125 29.59375 
L 56.203125 25.203125 
L 14.890625 25.203125 
Q 15.484375 15.921875 20.484375 11.0625 
Q 25.484375 6.203125 34.421875 6.203125 
Q 39.59375 6.203125 44.453125 7.46875 
Q 49.3125 8.734375 54.109375 11.28125 
L 54.109375 2.78125 
Q 49.265625 0.734375 44.1875 -0.34375 
Q 39.109375 -1.421875 33.890625 -1.421875 
Q 20.796875 -1.421875 13.15625 6.1875 
Q 5.515625 13.8125 5.515625 26.8125 
Q 5.515625 40.234375 12.765625 48.109375 
Q 20.015625 56 32.328125 56 
Q 43.359375 56 49.78125 48.890625 
Q 56.203125 41.796875 56.203125 29.59375 
M 47.21875 32.234375 
Q 47.125 39.59375 43.09375 43.984375 
Q 39.0625 48.390625 32.421875 48.390625 
Q 24.90625 48.390625 20.390625 44.140625 
Q 15.875 39.890625 15.1875 32.171875 
z
M 38.53125 79.984375 
L 48.25 79.984375 
L 32.34375 61.625 
L 24.859375 61.625 
z
" id="BitstreamVeraSans-Roman-e9"/>
      <path d="M 45.40625 27.984375 
Q 45.40625 37.75 41.375 43.109375 
Q 37.359375 48.484375 30.078125 48.484375 
Q 22.859375 48.484375 18.828125 43.109375 
Q 14.796875 37.75 14.796875 27.984375 
Q 14.796875 18.265625 18.828125 12.890625 
Q 22.859375 7.515625 30.078125 7.515625 
Q 37.359375 7.515625 41.375 12.890625 
Q 45.40625 18.265625 45.40625 27.984375 
M 54.390625 6.78125 
Q 54.390625 -7.171875 48.1875 -13.984375 
Q 42 -20.796875 29.203125 -20.796875 
Q 24.46875 -20.796875 20.265625 -20.09375 
Q 16.0625 -19.390625 12.109375 -17.921875 
L 12.109375 -9.1875 
Q 16.0625 -11.328125 19.921875 -12.34375 
Q 23.78125 -13.375 27.78125 -13.375 
Q 36.625 -13.375 41.015625 -8.765625 
Q 45.40625 -4.15625 45.40625 5.171875 
L 45.40625 9.625 
Q 42.625 4.78125 38.28125 2.390625 
Q 33.9375 0 27.875 0 
Q 17.828125 0 11.671875 7.65625 
Q 5.515625 15.328125 5.515625 27.984375 
Q 5.515625 40.671875 11.671875 48.328125 
Q 17.828125 56 27.875 56 
Q 33.9375 56 38.28125 53.609375 
Q 42.625 51.21875 45.40625 46.390625 
L 45.40625 54.6875 
L 54.390625 54.6875 
z
" id="BitstreamVeraSans-Roman-67"/>
      <path d="M 9.8125 72.90625 
L 19.671875 72.90625 
L 19.671875 0 
L 9.8125 0 
z
" id="BitstreamVeraSans-Roman-49"/>
     </defs>
     <g transform="translate(112.43425 134.70195)scale(0.168 -0.168)">
      <use xlink:href="#BitstreamVeraSans-Roman-43"/>
      <use x="69.82421875" xlink:href="#BitstreamVeraSans-Roman-44"/>
      <use x="146.826171875" xlink:href="#BitstreamVeraSans-Roman-44"/>
      <use x="223.828125" xlink:href="#BitstreamVeraSans-Roman-20"/>
      <use x="255.615234375" xlink:href="#BitstreamVeraSans-Roman-49"/>
      <use x="285.107421875" xlink:href="#BitstreamVeraSans-Roman-6e"/>
      <use x="348.486328125" xlink:href="#BitstreamVeraSans-Roman-67"/>
      <use x="411.962890625" xlink:href="#BitstreamVeraSans-Roman-e9"/>
      <use x="473.486328125" xlink:href="#BitstreamVeraSans-Roman-6e"/>
      <use x="536.865234375" xlink:href="#BitstreamVeraSans-Roman-69"/>
      <use x="564.6484375" xlink:href="#BitstreamVeraSans-Roman-65"/>
      <use x="626.171875" xlink:href="#BitstreamVeraSans-Roman-75"/>
      <use x="689.55078125" xlink:href="#BitstreamVeraSans-Roman-72"/>
     </g>
    </g>
    <g id="patch_10">
     <path d="M 65.39425 159.3612 
L 98.99425 159.3612 
L 98.99425 147.6012 
L 65.39425 147.6012 
z
" style="fill:#a52a2a;"/>
    </g>
    <g id="text_19">
     <!-- CDD autre -->
     <g transform="translate(112.43425 159.3612)scale(0.168 -0.168)">
      <use xlink:href="#BitstreamVeraSans-Roman-43"/>
      <use x="69.82421875" xlink:href="#BitstreamVeraSans-Roman-44"/>
      <use x="146.826171875" xlink:href="#BitstreamVeraSans-Roman-44"/>
      <use x="223.828125" xlink:href="#BitstreamVeraSans-Roman-20"/>
      <use x="255.615234375" xlink:href="#BitstreamVeraSans-Roman-61"/>
      <use x="316.89453125" xlink:href="#BitstreamVeraSans-Roman-75"/>
      <use x="380.2734375" xlink:href="#BitstreamVeraSans-Roman-74"/>
      <use x="419.482421875" xlink:href="#BitstreamVeraSans-Roman-72"/>
      <use x="460.564453125" xlink:href="#BitstreamVeraSans-Roman-65"/>
     </g>
    </g>
    <g id="patch_11">
     <path d="M 65.39425 184.02045 
L 98.99425 184.02045 
L 98.99425 172.26045 
L 65.39425 172.26045 
z
" style="fill:#6495ed;"/>
    </g>
    <g id="text_20">
     <!-- Post-doc / IR -->
     <defs>
      <path d="M 19.671875 64.796875 
L 19.671875 37.40625 
L 32.078125 37.40625 
Q 38.96875 37.40625 42.71875 40.96875 
Q 46.484375 44.53125 46.484375 51.125 
Q 46.484375 57.671875 42.71875 61.234375 
Q 38.96875 64.796875 32.078125 64.796875 
z
M 9.8125 72.90625 
L 32.078125 72.90625 
Q 44.34375 72.90625 50.609375 67.359375 
Q 56.890625 61.8125 56.890625 51.125 
Q 56.890625 40.328125 50.609375 34.8125 
Q 44.34375 29.296875 32.078125 29.296875 
L 19.671875 29.296875 
L 19.671875 0 
L 9.8125 0 
z
" id="BitstreamVeraSans-Roman-50"/>
      <path d="M 4.890625 31.390625 
L 31.203125 31.390625 
L 31.203125 23.390625 
L 4.890625 23.390625 
z
" id="BitstreamVeraSans-Roman-2d"/>
      <path d="M 48.78125 52.59375 
L 48.78125 44.1875 
Q 44.96875 46.296875 41.140625 47.34375 
Q 37.3125 48.390625 33.40625 48.390625 
Q 24.65625 48.390625 19.8125 42.84375 
Q 14.984375 37.3125 14.984375 27.296875 
Q 14.984375 17.28125 19.8125 11.734375 
Q 24.65625 6.203125 33.40625 6.203125 
Q 37.3125 6.203125 41.140625 7.25 
Q 44.96875 8.296875 48.78125 10.40625 
L 48.78125 2.09375 
Q 45.015625 0.34375 40.984375 -0.53125 
Q 36.96875 -1.421875 32.421875 -1.421875 
Q 20.0625 -1.421875 12.78125 6.34375 
Q 5.515625 14.109375 5.515625 27.296875 
Q 5.515625 40.671875 12.859375 48.328125 
Q 20.21875 56 33.015625 56 
Q 37.15625 56 41.109375 55.140625 
Q 45.0625 54.296875 48.78125 52.59375 
" id="BitstreamVeraSans-Roman-63"/>
      <path d="M 25.390625 72.90625 
L 33.6875 72.90625 
L 8.296875 -9.28125 
L 0 -9.28125 
z
" id="BitstreamVeraSans-Roman-2f"/>
     </defs>
     <g transform="translate(112.43425 184.02045)scale(0.168 -0.168)">
      <use xlink:href="#BitstreamVeraSans-Roman-50"/>
      <use x="60.255859375" xlink:href="#BitstreamVeraSans-Roman-6f"/>
      <use x="121.4375" xlink:href="#BitstreamVeraSans-Roman-73"/>
      <use x="173.537109375" xlink:href="#BitstreamVeraSans-Roman-74"/>
      <use x="212.74609375" xlink:href="#BitstreamVeraSans-Roman-2d"/>
      <use x="248.830078125" xlink:href="#BitstreamVeraSans-Roman-64"/>
      <use x="312.306640625" xlink:href="#BitstreamVeraSans-Roman-6f"/>
      <use x="373.48828125" xlink:href="#BitstreamVeraSans-Roman-63"/>
      <use x="428.46875" xlink:href="#BitstreamVeraSans-Roman-20"/>
      <use x="460.255859375" xlink:href="#BitstreamVeraSans-Roman-2f"/>
      <use x="493.947265625" xlink:href="#BitstreamVeraSans-Roman-20"/>
      <use x="525.734375" xlink:href="#BitstreamVeraSans-Roman-49"/>
      <use x="555.2265625" xlink:href="#BitstreamVeraSans-Roman-52"/>
     </g>
    </g>
   </g>
  </g>
 </g>
 <defs>
  <clipPath id="p93f4c8da0e">
   <rect height="358.56" width="501.12" x="50.27425" y="59.53595"/>
  </clipPath>
 </defs>
</svg>
