<?xml version="1.0" encoding="utf-8" standalone="no"?>
<!DOCTYPE svg PUBLIC "-//W3C//DTD SVG 1.1//EN"
  "http://www.w3.org/Graphics/SVG/1.1/DTD/svg11.dtd">
<!-- Created with matplotlib (http://matplotlib.org/) -->
<svg height="479pt" version="1.1" viewBox="0 0 772 479" width="772pt" xmlns="http://www.w3.org/2000/svg" xmlns:xlink="http://www.w3.org/1999/xlink">
 <defs>
  <style type="text/css">
*{stroke-linecap:butt;stroke-linejoin:round;stroke-miterlimit:100000;}
  </style>
 </defs>
 <g id="figure_1">
  <g id="patch_1">
   <path d="M 0 479.781513 
L 772.22175 479.781513 
L 772.22175 0 
L 0 0 
z
" style="fill:#f0f0f0;"/>
  </g>
  <g id="axes_1">
   <g id="patch_2">
    <path d="M 59.18175 418.09595 
L 560.30175 418.09595 
L 560.30175 59.53595 
L 59.18175 59.53595 
z
" style="fill:#f0f0f0;"/>
   </g>
   <g id="matplotlib.axis_1">
    <g id="xtick_1">
     <g id="line2d_1">
      <path clip-path="url(#pba3821c1ae)" d="M 141.806093 418.09595 
L 141.806093 59.53595 
" style="fill:none;stroke:#cbcbcb;"/>
     </g>
     <g id="line2d_2">
      <defs>
       <path d="M 0 0 
L 0 0 
" id="ma34dd1fb90" style="stroke:#000000;stroke-width:0.5;"/>
      </defs>
      <g>
       <use style="stroke:#000000;stroke-width:0.5;" x="141.806093164" xlink:href="#ma34dd1fb90" y="418.09595"/>
      </g>
     </g>
     <g id="line2d_3">
      <g>
       <use style="stroke:#000000;stroke-width:0.5;" x="141.806093164" xlink:href="#ma34dd1fb90" y="59.53595"/>
      </g>
     </g>
     <g id="text_1">
      <!-- Jan -->
      <defs>
       <path d="M 54.890625 33.015625 
L 54.890625 0 
L 45.90625 0 
L 45.90625 32.71875 
Q 45.90625 40.484375 42.875 44.328125 
Q 39.84375 48.1875 33.796875 48.1875 
Q 26.515625 48.1875 22.3125 43.546875 
Q 18.109375 38.921875 18.109375 30.90625 
L 18.109375 0 
L 9.078125 0 
L 9.078125 54.6875 
L 18.109375 54.6875 
L 18.109375 46.1875 
Q 21.34375 51.125 25.703125 53.5625 
Q 30.078125 56 35.796875 56 
Q 45.21875 56 50.046875 50.171875 
Q 54.890625 44.34375 54.890625 33.015625 
" id="BitstreamVeraSans-Roman-6e"/>
       <path d="M 34.28125 27.484375 
Q 23.390625 27.484375 19.1875 25 
Q 14.984375 22.515625 14.984375 16.5 
Q 14.984375 11.71875 18.140625 8.90625 
Q 21.296875 6.109375 26.703125 6.109375 
Q 34.1875 6.109375 38.703125 11.40625 
Q 43.21875 16.703125 43.21875 25.484375 
L 43.21875 27.484375 
z
M 52.203125 31.203125 
L 52.203125 0 
L 43.21875 0 
L 43.21875 8.296875 
Q 40.140625 3.328125 35.546875 0.953125 
Q 30.953125 -1.421875 24.3125 -1.421875 
Q 15.921875 -1.421875 10.953125 3.296875 
Q 6 8.015625 6 15.921875 
Q 6 25.140625 12.171875 29.828125 
Q 18.359375 34.515625 30.609375 34.515625 
L 43.21875 34.515625 
L 43.21875 35.40625 
Q 43.21875 41.609375 39.140625 45 
Q 35.0625 48.390625 27.6875 48.390625 
Q 23 48.390625 18.546875 47.265625 
Q 14.109375 46.140625 10.015625 43.890625 
L 10.015625 52.203125 
Q 14.9375 54.109375 19.578125 55.046875 
Q 24.21875 56 28.609375 56 
Q 40.484375 56 46.34375 49.84375 
Q 52.203125 43.703125 52.203125 31.203125 
" id="BitstreamVeraSans-Roman-61"/>
       <path d="M 9.8125 72.90625 
L 19.671875 72.90625 
L 19.671875 5.078125 
Q 19.671875 -8.109375 14.671875 -14.0625 
Q 9.671875 -20.015625 -1.421875 -20.015625 
L -5.171875 -20.015625 
L -5.171875 -11.71875 
L -2.09375 -11.71875 
Q 4.4375 -11.71875 7.125 -8.046875 
Q 9.8125 -4.390625 9.8125 5.078125 
z
" id="BitstreamVeraSans-Roman-4a"/>
      </defs>
      <g transform="translate(131.015155664 432.7337625)scale(0.14 -0.14)">
       <use xlink:href="#BitstreamVeraSans-Roman-4a"/>
       <use x="29.4921875" xlink:href="#BitstreamVeraSans-Roman-61"/>
       <use x="90.771484375" xlink:href="#BitstreamVeraSans-Roman-6e"/>
      </g>
      <!-- 2013 -->
      <defs>
       <path d="M 19.1875 8.296875 
L 53.609375 8.296875 
L 53.609375 0 
L 7.328125 0 
L 7.328125 8.296875 
Q 12.9375 14.109375 22.625 23.890625 
Q 32.328125 33.6875 34.8125 36.53125 
Q 39.546875 41.84375 41.421875 45.53125 
Q 43.3125 49.21875 43.3125 52.78125 
Q 43.3125 58.59375 39.234375 62.25 
Q 35.15625 65.921875 28.609375 65.921875 
Q 23.96875 65.921875 18.8125 64.3125 
Q 13.671875 62.703125 7.8125 59.421875 
L 7.8125 69.390625 
Q 13.765625 71.78125 18.9375 73 
Q 24.125 74.21875 28.421875 74.21875 
Q 39.75 74.21875 46.484375 68.546875 
Q 53.21875 62.890625 53.21875 53.421875 
Q 53.21875 48.921875 51.53125 44.890625 
Q 49.859375 40.875 45.40625 35.40625 
Q 44.1875 33.984375 37.640625 27.21875 
Q 31.109375 20.453125 19.1875 8.296875 
" id="BitstreamVeraSans-Roman-32"/>
       <path d="M 40.578125 39.3125 
Q 47.65625 37.796875 51.625 33 
Q 55.609375 28.21875 55.609375 21.1875 
Q 55.609375 10.40625 48.1875 4.484375 
Q 40.765625 -1.421875 27.09375 -1.421875 
Q 22.515625 -1.421875 17.65625 -0.515625 
Q 12.796875 0.390625 7.625 2.203125 
L 7.625 11.71875 
Q 11.71875 9.328125 16.59375 8.109375 
Q 21.484375 6.890625 26.8125 6.890625 
Q 36.078125 6.890625 40.9375 10.546875 
Q 45.796875 14.203125 45.796875 21.1875 
Q 45.796875 27.640625 41.28125 31.265625 
Q 36.765625 34.90625 28.71875 34.90625 
L 20.21875 34.90625 
L 20.21875 43.015625 
L 29.109375 43.015625 
Q 36.375 43.015625 40.234375 45.921875 
Q 44.09375 48.828125 44.09375 54.296875 
Q 44.09375 59.90625 40.109375 62.90625 
Q 36.140625 65.921875 28.71875 65.921875 
Q 24.65625 65.921875 20.015625 65.03125 
Q 15.375 64.15625 9.8125 62.3125 
L 9.8125 71.09375 
Q 15.4375 72.65625 20.34375 73.4375 
Q 25.25 74.21875 29.59375 74.21875 
Q 40.828125 74.21875 47.359375 69.109375 
Q 53.90625 64.015625 53.90625 55.328125 
Q 53.90625 49.265625 50.4375 45.09375 
Q 46.96875 40.921875 40.578125 39.3125 
" id="BitstreamVeraSans-Roman-33"/>
       <path d="M 31.78125 66.40625 
Q 24.171875 66.40625 20.328125 58.90625 
Q 16.5 51.421875 16.5 36.375 
Q 16.5 21.390625 20.328125 13.890625 
Q 24.171875 6.390625 31.78125 6.390625 
Q 39.453125 6.390625 43.28125 13.890625 
Q 47.125 21.390625 47.125 36.375 
Q 47.125 51.421875 43.28125 58.90625 
Q 39.453125 66.40625 31.78125 66.40625 
M 31.78125 74.21875 
Q 44.046875 74.21875 50.515625 64.515625 
Q 56.984375 54.828125 56.984375 36.375 
Q 56.984375 17.96875 50.515625 8.265625 
Q 44.046875 -1.421875 31.78125 -1.421875 
Q 19.53125 -1.421875 13.0625 8.265625 
Q 6.59375 17.96875 6.59375 36.375 
Q 6.59375 54.828125 13.0625 64.515625 
Q 19.53125 74.21875 31.78125 74.21875 
" id="BitstreamVeraSans-Roman-30"/>
       <path d="M 12.40625 8.296875 
L 28.515625 8.296875 
L 28.515625 63.921875 
L 10.984375 60.40625 
L 10.984375 69.390625 
L 28.421875 72.90625 
L 38.28125 72.90625 
L 38.28125 8.296875 
L 54.390625 8.296875 
L 54.390625 0 
L 12.40625 0 
z
" id="BitstreamVeraSans-Roman-31"/>
      </defs>
      <g transform="translate(123.991093164 448.4107)scale(0.14 -0.14)">
       <use xlink:href="#BitstreamVeraSans-Roman-32"/>
       <use x="63.623046875" xlink:href="#BitstreamVeraSans-Roman-30"/>
       <use x="127.24609375" xlink:href="#BitstreamVeraSans-Roman-31"/>
       <use x="190.869140625" xlink:href="#BitstreamVeraSans-Roman-33"/>
      </g>
     </g>
    </g>
    <g id="xtick_2">
     <g id="line2d_4">
      <path clip-path="url(#pba3821c1ae)" d="M 264.399123 418.09595 
L 264.399123 59.53595 
" style="fill:none;stroke:#cbcbcb;"/>
     </g>
     <g id="line2d_5">
      <g>
       <use style="stroke:#000000;stroke-width:0.5;" x="264.399122654" xlink:href="#ma34dd1fb90" y="418.09595"/>
      </g>
     </g>
     <g id="line2d_6">
      <g>
       <use style="stroke:#000000;stroke-width:0.5;" x="264.399122654" xlink:href="#ma34dd1fb90" y="59.53595"/>
      </g>
     </g>
     <g id="text_2">
      <!-- Jan -->
      <g transform="translate(253.608185154 432.7337625)scale(0.14 -0.14)">
       <use xlink:href="#BitstreamVeraSans-Roman-4a"/>
       <use x="29.4921875" xlink:href="#BitstreamVeraSans-Roman-61"/>
       <use x="90.771484375" xlink:href="#BitstreamVeraSans-Roman-6e"/>
      </g>
      <!-- 2014 -->
      <defs>
       <path d="M 37.796875 64.3125 
L 12.890625 25.390625 
L 37.796875 25.390625 
z
M 35.203125 72.90625 
L 47.609375 72.90625 
L 47.609375 25.390625 
L 58.015625 25.390625 
L 58.015625 17.1875 
L 47.609375 17.1875 
L 47.609375 0 
L 37.796875 0 
L 37.796875 17.1875 
L 4.890625 17.1875 
L 4.890625 26.703125 
z
" id="BitstreamVeraSans-Roman-34"/>
      </defs>
      <g transform="translate(246.584122654 448.4107)scale(0.14 -0.14)">
       <use xlink:href="#BitstreamVeraSans-Roman-32"/>
       <use x="63.623046875" xlink:href="#BitstreamVeraSans-Roman-30"/>
       <use x="127.24609375" xlink:href="#BitstreamVeraSans-Roman-31"/>
       <use x="190.869140625" xlink:href="#BitstreamVeraSans-Roman-34"/>
      </g>
     </g>
    </g>
    <g id="xtick_3">
     <g id="line2d_7">
      <path clip-path="url(#pba3821c1ae)" d="M 386.992152 418.09595 
L 386.992152 59.53595 
" style="fill:none;stroke:#cbcbcb;"/>
     </g>
     <g id="line2d_8">
      <g>
       <use style="stroke:#000000;stroke-width:0.5;" x="386.992152145" xlink:href="#ma34dd1fb90" y="418.09595"/>
      </g>
     </g>
     <g id="line2d_9">
      <g>
       <use style="stroke:#000000;stroke-width:0.5;" x="386.992152145" xlink:href="#ma34dd1fb90" y="59.53595"/>
      </g>
     </g>
     <g id="text_3">
      <!-- Jan -->
      <g transform="translate(376.201214645 432.7337625)scale(0.14 -0.14)">
       <use xlink:href="#BitstreamVeraSans-Roman-4a"/>
       <use x="29.4921875" xlink:href="#BitstreamVeraSans-Roman-61"/>
       <use x="90.771484375" xlink:href="#BitstreamVeraSans-Roman-6e"/>
      </g>
      <!-- 2015 -->
      <defs>
       <path d="M 10.796875 72.90625 
L 49.515625 72.90625 
L 49.515625 64.59375 
L 19.828125 64.59375 
L 19.828125 46.734375 
Q 21.96875 47.46875 24.109375 47.828125 
Q 26.265625 48.1875 28.421875 48.1875 
Q 40.625 48.1875 47.75 41.5 
Q 54.890625 34.8125 54.890625 23.390625 
Q 54.890625 11.625 47.5625 5.09375 
Q 40.234375 -1.421875 26.90625 -1.421875 
Q 22.3125 -1.421875 17.546875 -0.640625 
Q 12.796875 0.140625 7.71875 1.703125 
L 7.71875 11.625 
Q 12.109375 9.234375 16.796875 8.0625 
Q 21.484375 6.890625 26.703125 6.890625 
Q 35.15625 6.890625 40.078125 11.328125 
Q 45.015625 15.765625 45.015625 23.390625 
Q 45.015625 31 40.078125 35.4375 
Q 35.15625 39.890625 26.703125 39.890625 
Q 22.75 39.890625 18.8125 39.015625 
Q 14.890625 38.140625 10.796875 36.28125 
z
" id="BitstreamVeraSans-Roman-35"/>
      </defs>
      <g transform="translate(369.177152145 448.4107)scale(0.14 -0.14)">
       <use xlink:href="#BitstreamVeraSans-Roman-32"/>
       <use x="63.623046875" xlink:href="#BitstreamVeraSans-Roman-30"/>
       <use x="127.24609375" xlink:href="#BitstreamVeraSans-Roman-31"/>
       <use x="190.869140625" xlink:href="#BitstreamVeraSans-Roman-35"/>
      </g>
     </g>
    </g>
    <g id="xtick_4">
     <g id="line2d_10">
      <path clip-path="url(#pba3821c1ae)" d="M 509.585182 418.09595 
L 509.585182 59.53595 
" style="fill:none;stroke:#cbcbcb;"/>
     </g>
     <g id="line2d_11">
      <g>
       <use style="stroke:#000000;stroke-width:0.5;" x="509.585181635" xlink:href="#ma34dd1fb90" y="418.09595"/>
      </g>
     </g>
     <g id="line2d_12">
      <g>
       <use style="stroke:#000000;stroke-width:0.5;" x="509.585181635" xlink:href="#ma34dd1fb90" y="59.53595"/>
      </g>
     </g>
     <g id="text_4">
      <!-- Jan -->
      <g transform="translate(498.794244135 432.7337625)scale(0.14 -0.14)">
       <use xlink:href="#BitstreamVeraSans-Roman-4a"/>
       <use x="29.4921875" xlink:href="#BitstreamVeraSans-Roman-61"/>
       <use x="90.771484375" xlink:href="#BitstreamVeraSans-Roman-6e"/>
      </g>
      <!-- 2016 -->
      <defs>
       <path d="M 33.015625 40.375 
Q 26.375 40.375 22.484375 35.828125 
Q 18.609375 31.296875 18.609375 23.390625 
Q 18.609375 15.53125 22.484375 10.953125 
Q 26.375 6.390625 33.015625 6.390625 
Q 39.65625 6.390625 43.53125 10.953125 
Q 47.40625 15.53125 47.40625 23.390625 
Q 47.40625 31.296875 43.53125 35.828125 
Q 39.65625 40.375 33.015625 40.375 
M 52.59375 71.296875 
L 52.59375 62.3125 
Q 48.875 64.0625 45.09375 64.984375 
Q 41.3125 65.921875 37.59375 65.921875 
Q 27.828125 65.921875 22.671875 59.328125 
Q 17.53125 52.734375 16.796875 39.40625 
Q 19.671875 43.65625 24.015625 45.921875 
Q 28.375 48.1875 33.59375 48.1875 
Q 44.578125 48.1875 50.953125 41.515625 
Q 57.328125 34.859375 57.328125 23.390625 
Q 57.328125 12.15625 50.6875 5.359375 
Q 44.046875 -1.421875 33.015625 -1.421875 
Q 20.359375 -1.421875 13.671875 8.265625 
Q 6.984375 17.96875 6.984375 36.375 
Q 6.984375 53.65625 15.1875 63.9375 
Q 23.390625 74.21875 37.203125 74.21875 
Q 40.921875 74.21875 44.703125 73.484375 
Q 48.484375 72.75 52.59375 71.296875 
" id="BitstreamVeraSans-Roman-36"/>
      </defs>
      <g transform="translate(491.770181635 448.4107)scale(0.14 -0.14)">
       <use xlink:href="#BitstreamVeraSans-Roman-32"/>
       <use x="63.623046875" xlink:href="#BitstreamVeraSans-Roman-30"/>
       <use x="127.24609375" xlink:href="#BitstreamVeraSans-Roman-31"/>
       <use x="190.869140625" xlink:href="#BitstreamVeraSans-Roman-36"/>
      </g>
     </g>
    </g>
    <g id="xtick_5">
     <g id="line2d_13">
      <g>
       <use style="stroke:#000000;stroke-width:0.5;" x="80.0057714477" xlink:href="#ma34dd1fb90" y="418.09595"/>
      </g>
     </g>
     <g id="line2d_14">
      <g>
       <use style="stroke:#000000;stroke-width:0.5;" x="80.0057714477" xlink:href="#ma34dd1fb90" y="59.53595"/>
      </g>
     </g>
     <g id="text_5">
      <!-- Jul -->
      <defs>
       <path d="M 8.5 21.578125 
L 8.5 54.6875 
L 17.484375 54.6875 
L 17.484375 21.921875 
Q 17.484375 14.15625 20.5 10.265625 
Q 23.53125 6.390625 29.59375 6.390625 
Q 36.859375 6.390625 41.078125 11.03125 
Q 45.3125 15.671875 45.3125 23.6875 
L 45.3125 54.6875 
L 54.296875 54.6875 
L 54.296875 0 
L 45.3125 0 
L 45.3125 8.40625 
Q 42.046875 3.421875 37.71875 1 
Q 33.40625 -1.421875 27.6875 -1.421875 
Q 18.265625 -1.421875 13.375 4.4375 
Q 8.5 10.296875 8.5 21.578125 
" id="BitstreamVeraSans-Roman-75"/>
       <path d="M 9.421875 75.984375 
L 18.40625 75.984375 
L 18.40625 0 
L 9.421875 0 
z
" id="BitstreamVeraSans-Roman-6c"/>
      </defs>
      <g transform="translate(71.5598339477 432.7337625)scale(0.14 -0.14)">
       <use xlink:href="#BitstreamVeraSans-Roman-4a"/>
       <use x="29.4921875" xlink:href="#BitstreamVeraSans-Roman-75"/>
       <use x="92.87109375" xlink:href="#BitstreamVeraSans-Roman-6c"/>
      </g>
     </g>
    </g>
    <g id="xtick_6">
     <g id="line2d_15">
      <g>
       <use style="stroke:#000000;stroke-width:0.5;" x="202.598800938" xlink:href="#ma34dd1fb90" y="418.09595"/>
      </g>
     </g>
     <g id="line2d_16">
      <g>
       <use style="stroke:#000000;stroke-width:0.5;" x="202.598800938" xlink:href="#ma34dd1fb90" y="59.53595"/>
      </g>
     </g>
     <g id="text_6">
      <!-- Jul -->
      <g transform="translate(194.152863438 432.7337625)scale(0.14 -0.14)">
       <use xlink:href="#BitstreamVeraSans-Roman-4a"/>
       <use x="29.4921875" xlink:href="#BitstreamVeraSans-Roman-75"/>
       <use x="92.87109375" xlink:href="#BitstreamVeraSans-Roman-6c"/>
      </g>
     </g>
    </g>
    <g id="xtick_7">
     <g id="line2d_17">
      <g>
       <use style="stroke:#000000;stroke-width:0.5;" x="325.191830429" xlink:href="#ma34dd1fb90" y="418.09595"/>
      </g>
     </g>
     <g id="line2d_18">
      <g>
       <use style="stroke:#000000;stroke-width:0.5;" x="325.191830429" xlink:href="#ma34dd1fb90" y="59.53595"/>
      </g>
     </g>
     <g id="text_7">
      <!-- Jul -->
      <g transform="translate(316.745892929 432.7337625)scale(0.14 -0.14)">
       <use xlink:href="#BitstreamVeraSans-Roman-4a"/>
       <use x="29.4921875" xlink:href="#BitstreamVeraSans-Roman-75"/>
       <use x="92.87109375" xlink:href="#BitstreamVeraSans-Roman-6c"/>
      </g>
     </g>
    </g>
    <g id="xtick_8">
     <g id="line2d_19">
      <g>
       <use style="stroke:#000000;stroke-width:0.5;" x="447.78485992" xlink:href="#ma34dd1fb90" y="418.09595"/>
      </g>
     </g>
     <g id="line2d_20">
      <g>
       <use style="stroke:#000000;stroke-width:0.5;" x="447.78485992" xlink:href="#ma34dd1fb90" y="59.53595"/>
      </g>
     </g>
     <g id="text_8">
      <!-- Jul -->
      <g transform="translate(439.33892242 432.7337625)scale(0.14 -0.14)">
       <use xlink:href="#BitstreamVeraSans-Roman-4a"/>
       <use x="29.4921875" xlink:href="#BitstreamVeraSans-Roman-75"/>
       <use x="92.87109375" xlink:href="#BitstreamVeraSans-Roman-6c"/>
      </g>
     </g>
    </g>
    <g id="text_9">
     <!-- Date -->
     <defs>
      <path d="M 56.203125 29.59375 
L 56.203125 25.203125 
L 14.890625 25.203125 
Q 15.484375 15.921875 20.484375 11.0625 
Q 25.484375 6.203125 34.421875 6.203125 
Q 39.59375 6.203125 44.453125 7.46875 
Q 49.3125 8.734375 54.109375 11.28125 
L 54.109375 2.78125 
Q 49.265625 0.734375 44.1875 -0.34375 
Q 39.109375 -1.421875 33.890625 -1.421875 
Q 20.796875 -1.421875 13.15625 6.1875 
Q 5.515625 13.8125 5.515625 26.8125 
Q 5.515625 40.234375 12.765625 48.109375 
Q 20.015625 56 32.328125 56 
Q 43.359375 56 49.78125 48.890625 
Q 56.203125 41.796875 56.203125 29.59375 
M 47.21875 32.234375 
Q 47.125 39.59375 43.09375 43.984375 
Q 39.0625 48.390625 32.421875 48.390625 
Q 24.90625 48.390625 20.390625 44.140625 
Q 15.875 39.890625 15.1875 32.171875 
z
" id="BitstreamVeraSans-Roman-65"/>
      <path d="M 18.3125 70.21875 
L 18.3125 54.6875 
L 36.8125 54.6875 
L 36.8125 47.703125 
L 18.3125 47.703125 
L 18.3125 18.015625 
Q 18.3125 11.328125 20.140625 9.421875 
Q 21.96875 7.515625 27.59375 7.515625 
L 36.8125 7.515625 
L 36.8125 0 
L 27.59375 0 
Q 17.1875 0 13.234375 3.875 
Q 9.28125 7.765625 9.28125 18.015625 
L 9.28125 47.703125 
L 2.6875 47.703125 
L 2.6875 54.6875 
L 9.28125 54.6875 
L 9.28125 70.21875 
z
" id="BitstreamVeraSans-Roman-74"/>
      <path d="M 19.671875 64.796875 
L 19.671875 8.109375 
L 31.59375 8.109375 
Q 46.6875 8.109375 53.6875 14.9375 
Q 60.6875 21.78125 60.6875 36.53125 
Q 60.6875 51.171875 53.6875 57.984375 
Q 46.6875 64.796875 31.59375 64.796875 
z
M 9.8125 72.90625 
L 30.078125 72.90625 
Q 51.265625 72.90625 61.171875 64.09375 
Q 71.09375 55.28125 71.09375 36.53125 
Q 71.09375 17.671875 61.125 8.828125 
Q 51.171875 0 30.078125 0 
L 9.8125 0 
z
" id="BitstreamVeraSans-Roman-44"/>
     </defs>
     <g transform="translate(289.6644375 469.0876375)scale(0.168 -0.168)">
      <use xlink:href="#BitstreamVeraSans-Roman-44"/>
      <use x="77.001953125" xlink:href="#BitstreamVeraSans-Roman-61"/>
      <use x="138.28125" xlink:href="#BitstreamVeraSans-Roman-74"/>
      <use x="177.490234375" xlink:href="#BitstreamVeraSans-Roman-65"/>
     </g>
    </g>
   </g>
   <g id="matplotlib.axis_2">
    <g id="ytick_1">
     <g id="line2d_21">
      <path clip-path="url(#pba3821c1ae)" d="M 59.18175 418.09595 
L 560.30175 418.09595 
" style="fill:none;stroke:#cbcbcb;"/>
     </g>
     <g id="line2d_22">
      <g>
       <use style="stroke:#000000;stroke-width:0.5;" x="59.18175" xlink:href="#ma34dd1fb90" y="418.09595"/>
      </g>
     </g>
     <g id="line2d_23">
      <g>
       <use style="stroke:#000000;stroke-width:0.5;" x="560.30175" xlink:href="#ma34dd1fb90" y="418.09595"/>
      </g>
     </g>
     <g id="text_10">
      <!-- 0 -->
      <g transform="translate(46.27425 421.959075)scale(0.14 -0.14)">
       <use xlink:href="#BitstreamVeraSans-Roman-30"/>
      </g>
     </g>
    </g>
    <g id="ytick_2">
     <g id="line2d_24">
      <path clip-path="url(#pba3821c1ae)" d="M 59.18175 346.38395 
L 560.30175 346.38395 
" style="fill:none;stroke:#cbcbcb;"/>
     </g>
     <g id="line2d_25">
      <g>
       <use style="stroke:#000000;stroke-width:0.5;" x="59.18175" xlink:href="#ma34dd1fb90" y="346.38395"/>
      </g>
     </g>
     <g id="line2d_26">
      <g>
       <use style="stroke:#000000;stroke-width:0.5;" x="560.30175" xlink:href="#ma34dd1fb90" y="346.38395"/>
      </g>
     </g>
     <g id="text_11">
      <!-- 20 -->
      <g transform="translate(37.36675 350.247075)scale(0.14 -0.14)">
       <use xlink:href="#BitstreamVeraSans-Roman-32"/>
       <use x="63.623046875" xlink:href="#BitstreamVeraSans-Roman-30"/>
      </g>
     </g>
    </g>
    <g id="ytick_3">
     <g id="line2d_27">
      <path clip-path="url(#pba3821c1ae)" d="M 59.18175 274.67195 
L 560.30175 274.67195 
" style="fill:none;stroke:#cbcbcb;"/>
     </g>
     <g id="line2d_28">
      <g>
       <use style="stroke:#000000;stroke-width:0.5;" x="59.18175" xlink:href="#ma34dd1fb90" y="274.67195"/>
      </g>
     </g>
     <g id="line2d_29">
      <g>
       <use style="stroke:#000000;stroke-width:0.5;" x="560.30175" xlink:href="#ma34dd1fb90" y="274.67195"/>
      </g>
     </g>
     <g id="text_12">
      <!-- 40 -->
      <g transform="translate(37.36675 278.535075)scale(0.14 -0.14)">
       <use xlink:href="#BitstreamVeraSans-Roman-34"/>
       <use x="63.623046875" xlink:href="#BitstreamVeraSans-Roman-30"/>
      </g>
     </g>
    </g>
    <g id="ytick_4">
     <g id="line2d_30">
      <path clip-path="url(#pba3821c1ae)" d="M 59.18175 202.95995 
L 560.30175 202.95995 
" style="fill:none;stroke:#cbcbcb;"/>
     </g>
     <g id="line2d_31">
      <g>
       <use style="stroke:#000000;stroke-width:0.5;" x="59.18175" xlink:href="#ma34dd1fb90" y="202.95995"/>
      </g>
     </g>
     <g id="line2d_32">
      <g>
       <use style="stroke:#000000;stroke-width:0.5;" x="560.30175" xlink:href="#ma34dd1fb90" y="202.95995"/>
      </g>
     </g>
     <g id="text_13">
      <!-- 60 -->
      <g transform="translate(37.36675 206.823075)scale(0.14 -0.14)">
       <use xlink:href="#BitstreamVeraSans-Roman-36"/>
       <use x="63.623046875" xlink:href="#BitstreamVeraSans-Roman-30"/>
      </g>
     </g>
    </g>
    <g id="ytick_5">
     <g id="line2d_33">
      <path clip-path="url(#pba3821c1ae)" d="M 59.18175 131.24795 
L 560.30175 131.24795 
" style="fill:none;stroke:#cbcbcb;"/>
     </g>
     <g id="line2d_34">
      <g>
       <use style="stroke:#000000;stroke-width:0.5;" x="59.18175" xlink:href="#ma34dd1fb90" y="131.24795"/>
      </g>
     </g>
     <g id="line2d_35">
      <g>
       <use style="stroke:#000000;stroke-width:0.5;" x="560.30175" xlink:href="#ma34dd1fb90" y="131.24795"/>
      </g>
     </g>
     <g id="text_14">
      <!-- 80 -->
      <defs>
       <path d="M 31.78125 34.625 
Q 24.75 34.625 20.71875 30.859375 
Q 16.703125 27.09375 16.703125 20.515625 
Q 16.703125 13.921875 20.71875 10.15625 
Q 24.75 6.390625 31.78125 6.390625 
Q 38.8125 6.390625 42.859375 10.171875 
Q 46.921875 13.96875 46.921875 20.515625 
Q 46.921875 27.09375 42.890625 30.859375 
Q 38.875 34.625 31.78125 34.625 
M 21.921875 38.8125 
Q 15.578125 40.375 12.03125 44.71875 
Q 8.5 49.078125 8.5 55.328125 
Q 8.5 64.0625 14.71875 69.140625 
Q 20.953125 74.21875 31.78125 74.21875 
Q 42.671875 74.21875 48.875 69.140625 
Q 55.078125 64.0625 55.078125 55.328125 
Q 55.078125 49.078125 51.53125 44.71875 
Q 48 40.375 41.703125 38.8125 
Q 48.828125 37.15625 52.796875 32.3125 
Q 56.78125 27.484375 56.78125 20.515625 
Q 56.78125 9.90625 50.3125 4.234375 
Q 43.84375 -1.421875 31.78125 -1.421875 
Q 19.734375 -1.421875 13.25 4.234375 
Q 6.78125 9.90625 6.78125 20.515625 
Q 6.78125 27.484375 10.78125 32.3125 
Q 14.796875 37.15625 21.921875 38.8125 
M 18.3125 54.390625 
Q 18.3125 48.734375 21.84375 45.5625 
Q 25.390625 42.390625 31.78125 42.390625 
Q 38.140625 42.390625 41.71875 45.5625 
Q 45.3125 48.734375 45.3125 54.390625 
Q 45.3125 60.0625 41.71875 63.234375 
Q 38.140625 66.40625 31.78125 66.40625 
Q 25.390625 66.40625 21.84375 63.234375 
Q 18.3125 60.0625 18.3125 54.390625 
" id="BitstreamVeraSans-Roman-38"/>
      </defs>
      <g transform="translate(37.36675 135.111075)scale(0.14 -0.14)">
       <use xlink:href="#BitstreamVeraSans-Roman-38"/>
       <use x="63.623046875" xlink:href="#BitstreamVeraSans-Roman-30"/>
      </g>
     </g>
    </g>
    <g id="ytick_6">
     <g id="line2d_36">
      <path clip-path="url(#pba3821c1ae)" d="M 59.18175 59.53595 
L 560.30175 59.53595 
" style="fill:none;stroke:#cbcbcb;"/>
     </g>
     <g id="line2d_37">
      <g>
       <use style="stroke:#000000;stroke-width:0.5;" x="59.18175" xlink:href="#ma34dd1fb90" y="59.53595"/>
      </g>
     </g>
     <g id="line2d_38">
      <g>
       <use style="stroke:#000000;stroke-width:0.5;" x="560.30175" xlink:href="#ma34dd1fb90" y="59.53595"/>
      </g>
     </g>
     <g id="text_15">
      <!-- 100 -->
      <g transform="translate(28.45925 63.399075)scale(0.14 -0.14)">
       <use xlink:href="#BitstreamVeraSans-Roman-31"/>
       <use x="63.623046875" xlink:href="#BitstreamVeraSans-Roman-30"/>
       <use x="127.24609375" xlink:href="#BitstreamVeraSans-Roman-30"/>
      </g>
     </g>
    </g>
    <g id="text_16">
     <!-- %des offres -->
     <defs>
      <path id="BitstreamVeraSans-Roman-20"/>
      <path d="M 72.703125 32.078125 
Q 68.453125 32.078125 66.03125 28.46875 
Q 63.625 24.859375 63.625 18.40625 
Q 63.625 12.0625 66.03125 8.421875 
Q 68.453125 4.78125 72.703125 4.78125 
Q 76.859375 4.78125 79.265625 8.421875 
Q 81.6875 12.0625 81.6875 18.40625 
Q 81.6875 24.8125 79.265625 28.4375 
Q 76.859375 32.078125 72.703125 32.078125 
M 72.703125 38.28125 
Q 80.421875 38.28125 84.953125 32.90625 
Q 89.5 27.546875 89.5 18.40625 
Q 89.5 9.28125 84.9375 3.921875 
Q 80.375 -1.421875 72.703125 -1.421875 
Q 64.890625 -1.421875 60.34375 3.921875 
Q 55.8125 9.28125 55.8125 18.40625 
Q 55.8125 27.59375 60.375 32.9375 
Q 64.9375 38.28125 72.703125 38.28125 
M 22.3125 68.015625 
Q 18.109375 68.015625 15.6875 64.375 
Q 13.28125 60.75 13.28125 54.390625 
Q 13.28125 47.953125 15.671875 44.328125 
Q 18.0625 40.71875 22.3125 40.71875 
Q 26.5625 40.71875 28.96875 44.328125 
Q 31.390625 47.953125 31.390625 54.390625 
Q 31.390625 60.6875 28.953125 64.34375 
Q 26.515625 68.015625 22.3125 68.015625 
M 66.40625 74.21875 
L 74.21875 74.21875 
L 28.609375 -1.421875 
L 20.796875 -1.421875 
z
M 22.3125 74.21875 
Q 30.03125 74.21875 34.609375 68.875 
Q 39.203125 63.53125 39.203125 54.390625 
Q 39.203125 45.171875 34.640625 39.84375 
Q 30.078125 34.515625 22.3125 34.515625 
Q 14.546875 34.515625 10.03125 39.859375 
Q 5.515625 45.21875 5.515625 54.390625 
Q 5.515625 63.484375 10.046875 68.84375 
Q 14.59375 74.21875 22.3125 74.21875 
" id="BitstreamVeraSans-Roman-25"/>
      <path d="M 30.609375 48.390625 
Q 23.390625 48.390625 19.1875 42.75 
Q 14.984375 37.109375 14.984375 27.296875 
Q 14.984375 17.484375 19.15625 11.84375 
Q 23.34375 6.203125 30.609375 6.203125 
Q 37.796875 6.203125 41.984375 11.859375 
Q 46.1875 17.53125 46.1875 27.296875 
Q 46.1875 37.015625 41.984375 42.703125 
Q 37.796875 48.390625 30.609375 48.390625 
M 30.609375 56 
Q 42.328125 56 49.015625 48.375 
Q 55.71875 40.765625 55.71875 27.296875 
Q 55.71875 13.875 49.015625 6.21875 
Q 42.328125 -1.421875 30.609375 -1.421875 
Q 18.84375 -1.421875 12.171875 6.21875 
Q 5.515625 13.875 5.515625 27.296875 
Q 5.515625 40.765625 12.171875 48.375 
Q 18.84375 56 30.609375 56 
" id="BitstreamVeraSans-Roman-6f"/>
      <path d="M 45.40625 46.390625 
L 45.40625 75.984375 
L 54.390625 75.984375 
L 54.390625 0 
L 45.40625 0 
L 45.40625 8.203125 
Q 42.578125 3.328125 38.25 0.953125 
Q 33.9375 -1.421875 27.875 -1.421875 
Q 17.96875 -1.421875 11.734375 6.484375 
Q 5.515625 14.40625 5.515625 27.296875 
Q 5.515625 40.1875 11.734375 48.09375 
Q 17.96875 56 27.875 56 
Q 33.9375 56 38.25 53.625 
Q 42.578125 51.265625 45.40625 46.390625 
M 14.796875 27.296875 
Q 14.796875 17.390625 18.875 11.75 
Q 22.953125 6.109375 30.078125 6.109375 
Q 37.203125 6.109375 41.296875 11.75 
Q 45.40625 17.390625 45.40625 27.296875 
Q 45.40625 37.203125 41.296875 42.84375 
Q 37.203125 48.484375 30.078125 48.484375 
Q 22.953125 48.484375 18.875 42.84375 
Q 14.796875 37.203125 14.796875 27.296875 
" id="BitstreamVeraSans-Roman-64"/>
      <path d="M 37.109375 75.984375 
L 37.109375 68.5 
L 28.515625 68.5 
Q 23.6875 68.5 21.796875 66.546875 
Q 19.921875 64.59375 19.921875 59.515625 
L 19.921875 54.6875 
L 34.71875 54.6875 
L 34.71875 47.703125 
L 19.921875 47.703125 
L 19.921875 0 
L 10.890625 0 
L 10.890625 47.703125 
L 2.296875 47.703125 
L 2.296875 54.6875 
L 10.890625 54.6875 
L 10.890625 58.5 
Q 10.890625 67.625 15.140625 71.796875 
Q 19.390625 75.984375 28.609375 75.984375 
z
" id="BitstreamVeraSans-Roman-66"/>
      <path d="M 41.109375 46.296875 
Q 39.59375 47.171875 37.8125 47.578125 
Q 36.03125 48 33.890625 48 
Q 26.265625 48 22.1875 43.046875 
Q 18.109375 38.09375 18.109375 28.8125 
L 18.109375 0 
L 9.078125 0 
L 9.078125 54.6875 
L 18.109375 54.6875 
L 18.109375 46.1875 
Q 20.953125 51.171875 25.484375 53.578125 
Q 30.03125 56 36.53125 56 
Q 37.453125 56 38.578125 55.875 
Q 39.703125 55.765625 41.0625 55.515625 
z
" id="BitstreamVeraSans-Roman-72"/>
      <path d="M 44.28125 53.078125 
L 44.28125 44.578125 
Q 40.484375 46.53125 36.375 47.5 
Q 32.28125 48.484375 27.875 48.484375 
Q 21.1875 48.484375 17.84375 46.4375 
Q 14.5 44.390625 14.5 40.28125 
Q 14.5 37.15625 16.890625 35.375 
Q 19.28125 33.59375 26.515625 31.984375 
L 29.59375 31.296875 
Q 39.15625 29.25 43.1875 25.515625 
Q 47.21875 21.78125 47.21875 15.09375 
Q 47.21875 7.46875 41.1875 3.015625 
Q 35.15625 -1.421875 24.609375 -1.421875 
Q 20.21875 -1.421875 15.453125 -0.5625 
Q 10.6875 0.296875 5.421875 2 
L 5.421875 11.28125 
Q 10.40625 8.6875 15.234375 7.390625 
Q 20.0625 6.109375 24.8125 6.109375 
Q 31.15625 6.109375 34.5625 8.28125 
Q 37.984375 10.453125 37.984375 14.40625 
Q 37.984375 18.0625 35.515625 20.015625 
Q 33.0625 21.96875 24.703125 23.78125 
L 21.578125 24.515625 
Q 13.234375 26.265625 9.515625 29.90625 
Q 5.8125 33.546875 5.8125 39.890625 
Q 5.8125 47.609375 11.28125 51.796875 
Q 16.75 56 26.8125 56 
Q 31.78125 56 36.171875 55.265625 
Q 40.578125 54.546875 44.28125 53.078125 
" id="BitstreamVeraSans-Roman-73"/>
     </defs>
     <g transform="translate(19.965375 288.3930125)rotate(-90.0)scale(0.168 -0.168)">
      <use xlink:href="#BitstreamVeraSans-Roman-25"/>
      <use x="95.01953125" xlink:href="#BitstreamVeraSans-Roman-64"/>
      <use x="158.49609375" xlink:href="#BitstreamVeraSans-Roman-65"/>
      <use x="220.01953125" xlink:href="#BitstreamVeraSans-Roman-73"/>
      <use x="272.119140625" xlink:href="#BitstreamVeraSans-Roman-20"/>
      <use x="303.90625" xlink:href="#BitstreamVeraSans-Roman-6f"/>
      <use x="365.087890625" xlink:href="#BitstreamVeraSans-Roman-66"/>
      <use x="400.29296875" xlink:href="#BitstreamVeraSans-Roman-66"/>
      <use x="435.498046875" xlink:href="#BitstreamVeraSans-Roman-72"/>
      <use x="476.580078125" xlink:href="#BitstreamVeraSans-Roman-65"/>
      <use x="538.103515625" xlink:href="#BitstreamVeraSans-Roman-73"/>
     </g>
    </g>
   </g>
   <g id="PolyCollection_1">
    <defs>
     <path d="M 59.18175 -61.685563 
L 59.18175 -61.685563 
L 69.593761 -61.685563 
L 79.6699 -61.685563 
L 90.081911 -61.685563 
L 100.493922 -61.685563 
L 110.570061 -61.685563 
L 120.982072 -61.685563 
L 131.058211 -61.685563 
L 141.470222 -61.685563 
L 151.882233 -61.685563 
L 161.286629 -61.685563 
L 171.69864 -61.685563 
L 181.774779 -61.685563 
L 192.18679 -61.685563 
L 202.26293 -61.685563 
L 212.67494 -61.685563 
L 223.086951 -61.685563 
L 233.16309 -61.685563 
L 243.575101 -61.685563 
L 253.651241 -61.685563 
L 264.063251 -61.685563 
L 274.475262 -61.685563 
L 283.879659 -61.685563 
L 294.29167 -61.685563 
L 304.367809 -61.685563 
L 314.77982 -61.685563 
L 324.855959 -61.685563 
L 335.26797 -61.685563 
L 345.679981 -61.685563 
L 355.75612 -61.685563 
L 366.168131 -61.685563 
L 376.24427 -61.685563 
L 386.656281 -61.685563 
L 397.068292 -61.685563 
L 406.472688 -61.685563 
L 416.884699 -61.685563 
L 426.960838 -61.685563 
L 437.372849 -61.685563 
L 447.448989 -61.685563 
L 457.860999 -61.685563 
L 468.27301 -61.685563 
L 478.349149 -61.685563 
L 488.76116 -61.685563 
L 498.8373 -61.685563 
L 509.24931 -61.685563 
L 519.661321 -61.685563 
L 529.401589 -61.685563 
L 539.8136 -61.685563 
L 549.889739 -61.685563 
L 560.30175 -61.685563 
L 560.30175 -61.685563 
L 560.30175 -61.685563 
L 549.889739 -84.095562 
L 539.8136 -61.685563 
L 529.401589 -61.685563 
L 519.661321 -61.685563 
L 509.24931 -61.685563 
L 498.8373 -61.685563 
L 488.76116 -61.685563 
L 478.349149 -61.685563 
L 468.27301 -61.685563 
L 457.860999 -61.685563 
L 447.448989 -61.685563 
L 437.372849 -61.685563 
L 426.960838 -61.685563 
L 416.884699 -74.965563 
L 406.472688 -61.685563 
L 397.068292 -61.685563 
L 386.656281 -61.685563 
L 376.24427 -61.685563 
L 366.168131 -61.685563 
L 355.75612 -61.685563 
L 345.679981 -61.685563 
L 335.26797 -61.685563 
L 324.855959 -61.685563 
L 314.77982 -61.685563 
L 304.367809 -61.685563 
L 294.29167 -61.685563 
L 283.879659 -61.685563 
L 274.475262 -61.685563 
L 264.063251 -61.685563 
L 253.651241 -61.685563 
L 243.575101 -61.685563 
L 233.16309 -61.685563 
L 223.086951 -61.685563 
L 212.67494 -61.685563 
L 202.26293 -61.685563 
L 192.18679 -61.685563 
L 181.774779 -61.685563 
L 171.69864 -61.685563 
L 161.286629 -61.685563 
L 151.882233 -61.685563 
L 141.470222 -61.685563 
L 131.058211 -61.685563 
L 120.982072 -61.685563 
L 110.570061 -61.685563 
L 100.493922 -61.685563 
L 90.081911 -61.685563 
L 79.6699 -61.685563 
L 69.593761 -61.685563 
L 59.18175 -61.685563 
z
" id="m42ec09d76f"/>
    </defs>
    <g clip-path="url(#pba3821c1ae)">
     <use style="fill:#ffa500;fill-opacity:0.8;" x="0.0" xlink:href="#m42ec09d76f" y="479.7815125"/>
    </g>
   </g>
   <g id="PolyCollection_2">
    <defs>
     <path d="M 59.18175 -61.685563 
L 59.18175 -61.685563 
L 69.593761 -61.685563 
L 79.6699 -61.685563 
L 90.081911 -61.685563 
L 100.493922 -61.685563 
L 110.570061 -61.685563 
L 120.982072 -61.685563 
L 131.058211 -61.685563 
L 141.470222 -61.685563 
L 151.882233 -61.685563 
L 161.286629 -61.685563 
L 171.69864 -61.685563 
L 181.774779 -61.685563 
L 192.18679 -61.685563 
L 202.26293 -61.685563 
L 212.67494 -61.685563 
L 223.086951 -61.685563 
L 233.16309 -61.685563 
L 243.575101 -61.685563 
L 253.651241 -61.685563 
L 264.063251 -61.685563 
L 274.475262 -61.685563 
L 283.879659 -61.685563 
L 294.29167 -61.685563 
L 304.367809 -61.685563 
L 314.77982 -61.685563 
L 324.855959 -61.685563 
L 335.26797 -61.685563 
L 345.679981 -61.685563 
L 355.75612 -61.685563 
L 366.168131 -61.685563 
L 376.24427 -61.685563 
L 386.656281 -61.685563 
L 397.068292 -61.685563 
L 406.472688 -61.685563 
L 416.884699 -74.965563 
L 426.960838 -61.685563 
L 437.372849 -61.685563 
L 447.448989 -61.685563 
L 457.860999 -61.685563 
L 468.27301 -61.685563 
L 478.349149 -61.685563 
L 488.76116 -61.685563 
L 498.8373 -61.685563 
L 509.24931 -61.685563 
L 519.661321 -61.685563 
L 529.401589 -61.685563 
L 539.8136 -61.685563 
L 549.889739 -84.095562 
L 560.30175 -61.685563 
L 560.30175 -157.301563 
L 560.30175 -157.301563 
L 549.889739 -151.325563 
L 539.8136 -257.263744 
L 529.401589 -184.62042 
L 519.661321 -193.157563 
L 509.24931 -181.205563 
L 498.8373 -147.056991 
L 488.76116 -124.043823 
L 478.349149 -190.767163 
L 468.27301 -221.045563 
L 457.860999 -240.965563 
L 447.448989 -255.905563 
L 437.372849 -196.145563 
L 426.960838 -198.279848 
L 416.884699 -194.485563 
L 406.472688 -227.174793 
L 397.068292 -273.561926 
L 386.656281 -146.052621 
L 376.24427 -193.786615 
L 366.168131 -240.965563 
L 355.75612 -170.812519 
L 345.679981 -240.965563 
L 335.26797 -213.801926 
L 324.855959 -223.037563 
L 314.77982 -189.742705 
L 304.367809 -109.493563 
L 294.29167 -300.725563 
L 283.879659 -175.772835 
L 274.475262 -115.469563 
L 264.063251 -181.205563 
L 253.651241 -229.013563 
L 243.575101 -300.725563 
L 233.16309 -218.555563 
L 223.086951 -300.725563 
L 212.67494 -192.071017 
L 202.26293 -192.071017 
L 192.18679 -285.785563 
L 181.774779 -340.565563 
L 171.69864 -289.860108 
L 161.286629 -240.965563 
L 151.882233 -257.263744 
L 141.470222 -151.325563 
L 131.058211 -61.685563 
L 120.982072 -317.799848 
L 110.570061 -285.785563 
L 100.493922 -61.685563 
L 90.081911 -215.354134 
L 79.6699 -181.205563 
L 69.593761 -61.685563 
L 59.18175 -61.685563 
z
" id="m731a581c2c"/>
    </defs>
    <g clip-path="url(#pba3821c1ae)">
     <use style="fill:#deb887;fill-opacity:0.8;" x="0.0" xlink:href="#m731a581c2c" y="479.7815125"/>
    </g>
   </g>
   <g id="PolyCollection_3">
    <defs>
     <path d="M 59.18175 -61.685563 
L 59.18175 -61.685563 
L 69.593761 -61.685563 
L 79.6699 -181.205563 
L 90.081911 -215.354134 
L 100.493922 -61.685563 
L 110.570061 -285.785563 
L 120.982072 -317.799848 
L 131.058211 -61.685563 
L 141.470222 -151.325563 
L 151.882233 -257.263744 
L 161.286629 -240.965563 
L 171.69864 -289.860108 
L 181.774779 -340.565563 
L 192.18679 -285.785563 
L 202.26293 -192.071017 
L 212.67494 -192.071017 
L 223.086951 -300.725563 
L 233.16309 -218.555563 
L 243.575101 -300.725563 
L 253.651241 -229.013563 
L 264.063251 -181.205563 
L 274.475262 -115.469563 
L 283.879659 -175.772835 
L 294.29167 -300.725563 
L 304.367809 -109.493563 
L 314.77982 -189.742705 
L 324.855959 -223.037563 
L 335.26797 -213.801926 
L 345.679981 -240.965563 
L 355.75612 -170.812519 
L 366.168131 -240.965563 
L 376.24427 -193.786615 
L 386.656281 -146.052621 
L 397.068292 -273.561926 
L 406.472688 -227.174793 
L 416.884699 -194.485563 
L 426.960838 -198.279848 
L 437.372849 -196.145563 
L 447.448989 -255.905563 
L 457.860999 -240.965563 
L 468.27301 -221.045563 
L 478.349149 -190.767163 
L 488.76116 -124.043823 
L 498.8373 -147.056991 
L 509.24931 -181.205563 
L 519.661321 -193.157563 
L 529.401589 -184.62042 
L 539.8136 -257.263744 
L 549.889739 -151.325563 
L 560.30175 -157.301563 
L 560.30175 -229.013563 
L 560.30175 -229.013563 
L 549.889739 -218.555563 
L 539.8136 -278.994653 
L 529.401589 -215.354134 
L 519.661321 -252.917563 
L 509.24931 -249.502705 
L 498.8373 -181.205563 
L 488.76116 -124.043823 
L 478.349149 -190.767163 
L 468.27301 -221.045563 
L 457.860999 -280.805563 
L 447.448989 -270.845563 
L 437.372849 -196.145563 
L 426.960838 -232.42842 
L 416.884699 -221.045563 
L 406.472688 -296.128639 
L 397.068292 -289.860108 
L 386.656281 -146.052621 
L 376.24427 -193.786615 
L 366.168131 -258.893563 
L 355.75612 -186.402084 
L 345.679981 -270.845563 
L 335.26797 -268.129199 
L 324.855959 -223.037563 
L 314.77982 -240.965563 
L 304.367809 -133.397563 
L 294.29167 -300.725563 
L 283.879659 -240.965563 
L 274.475262 -115.469563 
L 264.063251 -211.085563 
L 253.651241 -300.725563 
L 243.575101 -420.245563 
L 233.16309 -240.965563 
L 223.086951 -324.629563 
L 212.67494 -224.667381 
L 202.26293 -257.263744 
L 192.18679 -330.605563 
L 181.774779 -380.405563 
L 171.69864 -355.052835 
L 161.286629 -240.965563 
L 151.882233 -289.860108 
L 141.470222 -240.965563 
L 131.058211 -181.205563 
L 120.982072 -369.022705 
L 110.570061 -330.605563 
L 100.493922 -61.685563 
L 90.081911 -215.354134 
L 79.6699 -181.205563 
L 69.593761 -61.685563 
L 59.18175 -61.685563 
z
" id="m7709553bba"/>
    </defs>
    <g clip-path="url(#pba3821c1ae)">
     <use style="fill:#a52a2a;fill-opacity:0.8;" x="0.0" xlink:href="#m7709553bba" y="479.7815125"/>
    </g>
   </g>
   <g id="PolyCollection_4">
    <defs>
     <path d="M 59.18175 -420.245563 
L 59.18175 -61.685563 
L 69.593761 -61.685563 
L 79.6699 -181.205563 
L 90.081911 -215.354134 
L 100.493922 -61.685563 
L 110.570061 -330.605563 
L 120.982072 -369.022705 
L 131.058211 -181.205563 
L 141.470222 -240.965563 
L 151.882233 -289.860108 
L 161.286629 -240.965563 
L 171.69864 -355.052835 
L 181.774779 -380.405563 
L 192.18679 -330.605563 
L 202.26293 -257.263744 
L 212.67494 -224.667381 
L 223.086951 -324.629563 
L 233.16309 -240.965563 
L 243.575101 -420.245563 
L 253.651241 -300.725563 
L 264.063251 -211.085563 
L 274.475262 -115.469563 
L 283.879659 -240.965563 
L 294.29167 -300.725563 
L 304.367809 -133.397563 
L 314.77982 -240.965563 
L 324.855959 -223.037563 
L 335.26797 -268.129199 
L 345.679981 -270.845563 
L 355.75612 -186.402084 
L 366.168131 -258.893563 
L 376.24427 -193.786615 
L 386.656281 -146.052621 
L 397.068292 -289.860108 
L 406.472688 -296.128639 
L 416.884699 -221.045563 
L 426.960838 -232.42842 
L 437.372849 -196.145563 
L 447.448989 -270.845563 
L 457.860999 -280.805563 
L 468.27301 -221.045563 
L 478.349149 -190.767163 
L 488.76116 -124.043823 
L 498.8373 -181.205563 
L 509.24931 -249.502705 
L 519.661321 -252.917563 
L 529.401589 -215.354134 
L 539.8136 -278.994653 
L 549.889739 -218.555563 
L 560.30175 -229.013563 
L 560.30175 -420.245563 
L 560.30175 -420.245563 
L 549.889739 -420.245563 
L 539.8136 -420.245563 
L 529.401589 -420.245563 
L 519.661321 -420.245563 
L 509.24931 -420.245563 
L 498.8373 -420.245563 
L 488.76116 -420.245563 
L 478.349149 -420.245563 
L 468.27301 -420.245563 
L 457.860999 -420.245563 
L 447.448989 -420.245563 
L 437.372849 -420.245563 
L 426.960838 -420.245563 
L 416.884699 -420.245563 
L 406.472688 -420.245563 
L 397.068292 -420.245563 
L 386.656281 -420.245563 
L 376.24427 -420.245563 
L 366.168131 -420.245563 
L 355.75612 -420.245563 
L 345.679981 -420.245563 
L 335.26797 -420.245563 
L 324.855959 -420.245563 
L 314.77982 -420.245563 
L 304.367809 -420.245563 
L 294.29167 -420.245563 
L 283.879659 -420.245563 
L 274.475262 -420.245563 
L 264.063251 -420.245563 
L 253.651241 -420.245563 
L 243.575101 -420.245563 
L 233.16309 -420.245563 
L 223.086951 -420.245563 
L 212.67494 -420.245563 
L 202.26293 -420.245563 
L 192.18679 -420.245563 
L 181.774779 -420.245563 
L 171.69864 -420.245563 
L 161.286629 -420.245563 
L 151.882233 -420.245563 
L 141.470222 -420.245563 
L 131.058211 -420.245563 
L 120.982072 -420.245563 
L 110.570061 -420.245563 
L 100.493922 -420.245563 
L 90.081911 -420.245563 
L 79.6699 -420.245563 
L 69.593761 -61.685563 
L 59.18175 -420.245563 
z
" id="mb9e31b70ef"/>
    </defs>
    <g clip-path="url(#pba3821c1ae)">
     <use style="fill:#6495ed;fill-opacity:0.8;" x="0.0" xlink:href="#mb9e31b70ef" y="479.7815125"/>
    </g>
   </g>
   <g id="patch_3">
    <path d="M 59.18175 59.53595 
L 560.30175 59.53595 
" style="fill:none;stroke:#f0f0f0;stroke-linecap:square;stroke-linejoin:miter;stroke-width:3.0;"/>
   </g>
   <g id="patch_4">
    <path d="M 560.30175 418.09595 
L 560.30175 59.53595 
" style="fill:none;stroke:#f0f0f0;stroke-linecap:square;stroke-linejoin:miter;stroke-width:3.0;"/>
   </g>
   <g id="patch_5">
    <path d="M 59.18175 418.09595 
L 560.30175 418.09595 
" style="fill:none;stroke:#f0f0f0;stroke-linecap:square;stroke-linejoin:miter;stroke-width:3.0;"/>
   </g>
   <g id="patch_6">
    <path d="M 59.18175 418.09595 
L 59.18175 59.53595 
" style="fill:none;stroke:#f0f0f0;stroke-linecap:square;stroke-linejoin:miter;stroke-width:3.0;"/>
   </g>
   <g id="text_17">
    <!-- Évolution de la proportion des types de CDD -->
    <defs>
     <path d="M 64.40625 67.28125 
L 64.40625 56.890625 
Q 59.421875 61.53125 53.78125 63.8125 
Q 48.140625 66.109375 41.796875 66.109375 
Q 29.296875 66.109375 22.65625 58.46875 
Q 16.015625 50.828125 16.015625 36.375 
Q 16.015625 21.96875 22.65625 14.328125 
Q 29.296875 6.6875 41.796875 6.6875 
Q 48.140625 6.6875 53.78125 8.984375 
Q 59.421875 11.28125 64.40625 15.921875 
L 64.40625 5.609375 
Q 59.234375 2.09375 53.4375 0.328125 
Q 47.65625 -1.421875 41.21875 -1.421875 
Q 24.65625 -1.421875 15.125 8.703125 
Q 5.609375 18.84375 5.609375 36.375 
Q 5.609375 53.953125 15.125 64.078125 
Q 24.65625 74.21875 41.21875 74.21875 
Q 47.75 74.21875 53.53125 72.484375 
Q 59.328125 70.75 64.40625 67.28125 
" id="BitstreamVeraSans-Roman-43"/>
     <path d="M 32.171875 -5.078125 
Q 28.375 -14.84375 24.75 -17.8125 
Q 21.140625 -20.796875 15.09375 -20.796875 
L 7.90625 -20.796875 
L 7.90625 -13.28125 
L 13.1875 -13.28125 
Q 16.890625 -13.28125 18.9375 -11.515625 
Q 21 -9.765625 23.484375 -3.21875 
L 25.09375 0.875 
L 2.984375 54.6875 
L 12.5 54.6875 
L 29.59375 11.921875 
L 46.6875 54.6875 
L 56.203125 54.6875 
z
" id="BitstreamVeraSans-Roman-79"/>
     <path d="M 2.984375 54.6875 
L 12.5 54.6875 
L 29.59375 8.796875 
L 46.6875 54.6875 
L 56.203125 54.6875 
L 35.6875 0 
L 23.484375 0 
z
" id="BitstreamVeraSans-Roman-76"/>
     <path d="M 9.421875 54.6875 
L 18.40625 54.6875 
L 18.40625 0 
L 9.421875 0 
z
M 9.421875 75.984375 
L 18.40625 75.984375 
L 18.40625 64.59375 
L 9.421875 64.59375 
z
" id="BitstreamVeraSans-Roman-69"/>
     <path d="M 9.8125 72.90625 
L 55.90625 72.90625 
L 55.90625 64.59375 
L 19.671875 64.59375 
L 19.671875 43.015625 
L 54.390625 43.015625 
L 54.390625 34.71875 
L 19.671875 34.71875 
L 19.671875 8.296875 
L 56.78125 8.296875 
L 56.78125 0 
L 9.8125 0 
z
M 35.4375 92.515625 
L 44.46875 92.515625 
L 33.34375 79.625 
L 25.859375 79.625 
z
" id="BitstreamVeraSans-Roman-c9"/>
     <path d="M 18.109375 8.203125 
L 18.109375 -20.796875 
L 9.078125 -20.796875 
L 9.078125 54.6875 
L 18.109375 54.6875 
L 18.109375 46.390625 
Q 20.953125 51.265625 25.265625 53.625 
Q 29.59375 56 35.59375 56 
Q 45.5625 56 51.78125 48.09375 
Q 58.015625 40.1875 58.015625 27.296875 
Q 58.015625 14.40625 51.78125 6.484375 
Q 45.5625 -1.421875 35.59375 -1.421875 
Q 29.59375 -1.421875 25.265625 0.953125 
Q 20.953125 3.328125 18.109375 8.203125 
M 48.6875 27.296875 
Q 48.6875 37.203125 44.609375 42.84375 
Q 40.53125 48.484375 33.40625 48.484375 
Q 26.265625 48.484375 22.1875 42.84375 
Q 18.109375 37.203125 18.109375 27.296875 
Q 18.109375 17.390625 22.1875 11.75 
Q 26.265625 6.109375 33.40625 6.109375 
Q 40.53125 6.109375 44.609375 11.75 
Q 48.6875 17.390625 48.6875 27.296875 
" id="BitstreamVeraSans-Roman-70"/>
    </defs>
    <g transform="translate(85.2255 25.85115)scale(0.2016 -0.2016)">
     <use xlink:href="#BitstreamVeraSans-Roman-c9"/>
     <use x="63.18359375" xlink:href="#BitstreamVeraSans-Roman-76"/>
     <use x="122.36328125" xlink:href="#BitstreamVeraSans-Roman-6f"/>
     <use x="183.544921875" xlink:href="#BitstreamVeraSans-Roman-6c"/>
     <use x="211.328125" xlink:href="#BitstreamVeraSans-Roman-75"/>
     <use x="274.70703125" xlink:href="#BitstreamVeraSans-Roman-74"/>
     <use x="313.916015625" xlink:href="#BitstreamVeraSans-Roman-69"/>
     <use x="341.69921875" xlink:href="#BitstreamVeraSans-Roman-6f"/>
     <use x="402.880859375" xlink:href="#BitstreamVeraSans-Roman-6e"/>
     <use x="466.259765625" xlink:href="#BitstreamVeraSans-Roman-20"/>
     <use x="498.046875" xlink:href="#BitstreamVeraSans-Roman-64"/>
     <use x="561.5234375" xlink:href="#BitstreamVeraSans-Roman-65"/>
     <use x="623.046875" xlink:href="#BitstreamVeraSans-Roman-20"/>
     <use x="654.833984375" xlink:href="#BitstreamVeraSans-Roman-6c"/>
     <use x="682.6171875" xlink:href="#BitstreamVeraSans-Roman-61"/>
     <use x="743.896484375" xlink:href="#BitstreamVeraSans-Roman-20"/>
     <use x="775.68359375" xlink:href="#BitstreamVeraSans-Roman-70"/>
     <use x="839.16015625" xlink:href="#BitstreamVeraSans-Roman-72"/>
     <use x="880.2421875" xlink:href="#BitstreamVeraSans-Roman-6f"/>
     <use x="941.423828125" xlink:href="#BitstreamVeraSans-Roman-70"/>
     <use x="1004.90039062" xlink:href="#BitstreamVeraSans-Roman-6f"/>
     <use x="1066.08203125" xlink:href="#BitstreamVeraSans-Roman-72"/>
     <use x="1107.1953125" xlink:href="#BitstreamVeraSans-Roman-74"/>
     <use x="1146.40429688" xlink:href="#BitstreamVeraSans-Roman-69"/>
     <use x="1174.1875" xlink:href="#BitstreamVeraSans-Roman-6f"/>
     <use x="1235.36914062" xlink:href="#BitstreamVeraSans-Roman-6e"/>
     <use x="1298.74804688" xlink:href="#BitstreamVeraSans-Roman-20"/>
     <use x="1330.53515625" xlink:href="#BitstreamVeraSans-Roman-64"/>
     <use x="1394.01171875" xlink:href="#BitstreamVeraSans-Roman-65"/>
     <use x="1455.53515625" xlink:href="#BitstreamVeraSans-Roman-73"/>
     <use x="1507.63476562" xlink:href="#BitstreamVeraSans-Roman-20"/>
     <use x="1539.421875" xlink:href="#BitstreamVeraSans-Roman-74"/>
     <use x="1578.63085938" xlink:href="#BitstreamVeraSans-Roman-79"/>
     <use x="1637.81054688" xlink:href="#BitstreamVeraSans-Roman-70"/>
     <use x="1701.28710938" xlink:href="#BitstreamVeraSans-Roman-65"/>
     <use x="1762.81054688" xlink:href="#BitstreamVeraSans-Roman-73"/>
     <use x="1814.91015625" xlink:href="#BitstreamVeraSans-Roman-20"/>
     <use x="1846.69726562" xlink:href="#BitstreamVeraSans-Roman-64"/>
     <use x="1910.17382812" xlink:href="#BitstreamVeraSans-Roman-65"/>
     <use x="1971.69726562" xlink:href="#BitstreamVeraSans-Roman-20"/>
     <use x="2003.484375" xlink:href="#BitstreamVeraSans-Roman-43"/>
     <use x="2073.30859375" xlink:href="#BitstreamVeraSans-Roman-44"/>
     <use x="2150.31054688" xlink:href="#BitstreamVeraSans-Roman-44"/>
    </g>
   </g>
  </g>
  <g id="legend_1">
   <g id="patch_7">
    <path d="M 572.047125 315.956013 
L 748.56 315.956013 
Q 751.92 315.956013 751.92 312.596013 
L 751.92 214.967013 
Q 751.92 211.607013 748.56 211.607013 
L 572.047125 211.607013 
Q 568.687125 211.607013 568.687125 214.967013 
L 568.687125 312.596013 
Q 568.687125 315.956013 572.047125 315.956013 
z
" style="fill:#f0f0f0;"/>
   </g>
   <g id="patch_8">
    <path d="M 575.407125 231.092388 
L 609.007125 231.092388 
L 609.007125 219.332388 
L 575.407125 219.332388 
z
" style="fill:#ffa500;fill-opacity:0.8;"/>
   </g>
   <g id="text_18">
    <!-- ATER -->
    <defs>
     <path d="M 9.8125 72.90625 
L 55.90625 72.90625 
L 55.90625 64.59375 
L 19.671875 64.59375 
L 19.671875 43.015625 
L 54.390625 43.015625 
L 54.390625 34.71875 
L 19.671875 34.71875 
L 19.671875 8.296875 
L 56.78125 8.296875 
L 56.78125 0 
L 9.8125 0 
z
" id="BitstreamVeraSans-Roman-45"/>
     <path d="M -0.296875 72.90625 
L 61.375 72.90625 
L 61.375 64.59375 
L 35.5 64.59375 
L 35.5 0 
L 25.59375 0 
L 25.59375 64.59375 
L -0.296875 64.59375 
z
" id="BitstreamVeraSans-Roman-54"/>
     <path d="M 44.390625 34.1875 
Q 47.5625 33.109375 50.5625 29.59375 
Q 53.5625 26.078125 56.59375 19.921875 
L 66.609375 0 
L 56 0 
L 46.6875 18.703125 
Q 43.0625 26.03125 39.671875 28.421875 
Q 36.28125 30.8125 30.421875 30.8125 
L 19.671875 30.8125 
L 19.671875 0 
L 9.8125 0 
L 9.8125 72.90625 
L 32.078125 72.90625 
Q 44.578125 72.90625 50.734375 67.671875 
Q 56.890625 62.453125 56.890625 51.90625 
Q 56.890625 45.015625 53.6875 40.46875 
Q 50.484375 35.9375 44.390625 34.1875 
M 19.671875 64.796875 
L 19.671875 38.921875 
L 32.078125 38.921875 
Q 39.203125 38.921875 42.84375 42.21875 
Q 46.484375 45.515625 46.484375 51.90625 
Q 46.484375 58.296875 42.84375 61.546875 
Q 39.203125 64.796875 32.078125 64.796875 
z
" id="BitstreamVeraSans-Roman-52"/>
     <path d="M 34.1875 63.1875 
L 20.796875 26.90625 
L 47.609375 26.90625 
z
M 28.609375 72.90625 
L 39.796875 72.90625 
L 67.578125 0 
L 57.328125 0 
L 50.6875 18.703125 
L 17.828125 18.703125 
L 11.1875 0 
L 0.78125 0 
z
" id="BitstreamVeraSans-Roman-41"/>
    </defs>
    <g transform="translate(622.447125 231.0923875)scale(0.168 -0.168)">
     <use xlink:href="#BitstreamVeraSans-Roman-41"/>
     <use x="68.298828125" xlink:href="#BitstreamVeraSans-Roman-54"/>
     <use x="129.3828125" xlink:href="#BitstreamVeraSans-Roman-45"/>
     <use x="192.56640625" xlink:href="#BitstreamVeraSans-Roman-52"/>
    </g>
   </g>
   <g id="patch_9">
    <path d="M 575.407125 256.423638 
L 609.007125 256.423638 
L 609.007125 244.663638 
L 575.407125 244.663638 
z
" style="fill:#deb887;fill-opacity:0.8;"/>
   </g>
   <g id="text_19">
    <!-- CDD Ingénieur -->
    <defs>
     <path d="M 56.203125 29.59375 
L 56.203125 25.203125 
L 14.890625 25.203125 
Q 15.484375 15.921875 20.484375 11.0625 
Q 25.484375 6.203125 34.421875 6.203125 
Q 39.59375 6.203125 44.453125 7.46875 
Q 49.3125 8.734375 54.109375 11.28125 
L 54.109375 2.78125 
Q 49.265625 0.734375 44.1875 -0.34375 
Q 39.109375 -1.421875 33.890625 -1.421875 
Q 20.796875 -1.421875 13.15625 6.1875 
Q 5.515625 13.8125 5.515625 26.8125 
Q 5.515625 40.234375 12.765625 48.109375 
Q 20.015625 56 32.328125 56 
Q 43.359375 56 49.78125 48.890625 
Q 56.203125 41.796875 56.203125 29.59375 
M 47.21875 32.234375 
Q 47.125 39.59375 43.09375 43.984375 
Q 39.0625 48.390625 32.421875 48.390625 
Q 24.90625 48.390625 20.390625 44.140625 
Q 15.875 39.890625 15.1875 32.171875 
z
M 38.53125 79.984375 
L 48.25 79.984375 
L 32.34375 61.625 
L 24.859375 61.625 
z
" id="BitstreamVeraSans-Roman-e9"/>
     <path d="M 45.40625 27.984375 
Q 45.40625 37.75 41.375 43.109375 
Q 37.359375 48.484375 30.078125 48.484375 
Q 22.859375 48.484375 18.828125 43.109375 
Q 14.796875 37.75 14.796875 27.984375 
Q 14.796875 18.265625 18.828125 12.890625 
Q 22.859375 7.515625 30.078125 7.515625 
Q 37.359375 7.515625 41.375 12.890625 
Q 45.40625 18.265625 45.40625 27.984375 
M 54.390625 6.78125 
Q 54.390625 -7.171875 48.1875 -13.984375 
Q 42 -20.796875 29.203125 -20.796875 
Q 24.46875 -20.796875 20.265625 -20.09375 
Q 16.0625 -19.390625 12.109375 -17.921875 
L 12.109375 -9.1875 
Q 16.0625 -11.328125 19.921875 -12.34375 
Q 23.78125 -13.375 27.78125 -13.375 
Q 36.625 -13.375 41.015625 -8.765625 
Q 45.40625 -4.15625 45.40625 5.171875 
L 45.40625 9.625 
Q 42.625 4.78125 38.28125 2.390625 
Q 33.9375 0 27.875 0 
Q 17.828125 0 11.671875 7.65625 
Q 5.515625 15.328125 5.515625 27.984375 
Q 5.515625 40.671875 11.671875 48.328125 
Q 17.828125 56 27.875 56 
Q 33.9375 56 38.28125 53.609375 
Q 42.625 51.21875 45.40625 46.390625 
L 45.40625 54.6875 
L 54.390625 54.6875 
z
" id="BitstreamVeraSans-Roman-67"/>
     <path d="M 9.8125 72.90625 
L 19.671875 72.90625 
L 19.671875 0 
L 9.8125 0 
z
" id="BitstreamVeraSans-Roman-49"/>
    </defs>
    <g transform="translate(622.447125 256.4236375)scale(0.168 -0.168)">
     <use xlink:href="#BitstreamVeraSans-Roman-43"/>
     <use x="69.82421875" xlink:href="#BitstreamVeraSans-Roman-44"/>
     <use x="146.826171875" xlink:href="#BitstreamVeraSans-Roman-44"/>
     <use x="223.828125" xlink:href="#BitstreamVeraSans-Roman-20"/>
     <use x="255.615234375" xlink:href="#BitstreamVeraSans-Roman-49"/>
     <use x="285.107421875" xlink:href="#BitstreamVeraSans-Roman-6e"/>
     <use x="348.486328125" xlink:href="#BitstreamVeraSans-Roman-67"/>
     <use x="411.962890625" xlink:href="#BitstreamVeraSans-Roman-e9"/>
     <use x="473.486328125" xlink:href="#BitstreamVeraSans-Roman-6e"/>
     <use x="536.865234375" xlink:href="#BitstreamVeraSans-Roman-69"/>
     <use x="564.6484375" xlink:href="#BitstreamVeraSans-Roman-65"/>
     <use x="626.171875" xlink:href="#BitstreamVeraSans-Roman-75"/>
     <use x="689.55078125" xlink:href="#BitstreamVeraSans-Roman-72"/>
    </g>
   </g>
   <g id="patch_10">
    <path d="M 575.407125 281.082888 
L 609.007125 281.082888 
L 609.007125 269.322888 
L 575.407125 269.322888 
z
" style="fill:#a52a2a;fill-opacity:0.8;"/>
   </g>
   <g id="text_20">
    <!-- CDD autre -->
    <g transform="translate(622.447125 281.0828875)scale(0.168 -0.168)">
     <use xlink:href="#BitstreamVeraSans-Roman-43"/>
     <use x="69.82421875" xlink:href="#BitstreamVeraSans-Roman-44"/>
     <use x="146.826171875" xlink:href="#BitstreamVeraSans-Roman-44"/>
     <use x="223.828125" xlink:href="#BitstreamVeraSans-Roman-20"/>
     <use x="255.615234375" xlink:href="#BitstreamVeraSans-Roman-61"/>
     <use x="316.89453125" xlink:href="#BitstreamVeraSans-Roman-75"/>
     <use x="380.2734375" xlink:href="#BitstreamVeraSans-Roman-74"/>
     <use x="419.482421875" xlink:href="#BitstreamVeraSans-Roman-72"/>
     <use x="460.564453125" xlink:href="#BitstreamVeraSans-Roman-65"/>
    </g>
   </g>
   <g id="patch_11">
    <path d="M 575.407125 305.742138 
L 609.007125 305.742138 
L 609.007125 293.982138 
L 575.407125 293.982138 
z
" style="fill:#6495ed;fill-opacity:0.8;"/>
   </g>
   <g id="text_21">
    <!-- Post-doc / IR -->
    <defs>
     <path d="M 19.671875 64.796875 
L 19.671875 37.40625 
L 32.078125 37.40625 
Q 38.96875 37.40625 42.71875 40.96875 
Q 46.484375 44.53125 46.484375 51.125 
Q 46.484375 57.671875 42.71875 61.234375 
Q 38.96875 64.796875 32.078125 64.796875 
z
M 9.8125 72.90625 
L 32.078125 72.90625 
Q 44.34375 72.90625 50.609375 67.359375 
Q 56.890625 61.8125 56.890625 51.125 
Q 56.890625 40.328125 50.609375 34.8125 
Q 44.34375 29.296875 32.078125 29.296875 
L 19.671875 29.296875 
L 19.671875 0 
L 9.8125 0 
z
" id="BitstreamVeraSans-Roman-50"/>
     <path d="M 4.890625 31.390625 
L 31.203125 31.390625 
L 31.203125 23.390625 
L 4.890625 23.390625 
z
" id="BitstreamVeraSans-Roman-2d"/>
     <path d="M 48.78125 52.59375 
L 48.78125 44.1875 
Q 44.96875 46.296875 41.140625 47.34375 
Q 37.3125 48.390625 33.40625 48.390625 
Q 24.65625 48.390625 19.8125 42.84375 
Q 14.984375 37.3125 14.984375 27.296875 
Q 14.984375 17.28125 19.8125 11.734375 
Q 24.65625 6.203125 33.40625 6.203125 
Q 37.3125 6.203125 41.140625 7.25 
Q 44.96875 8.296875 48.78125 10.40625 
L 48.78125 2.09375 
Q 45.015625 0.34375 40.984375 -0.53125 
Q 36.96875 -1.421875 32.421875 -1.421875 
Q 20.0625 -1.421875 12.78125 6.34375 
Q 5.515625 14.109375 5.515625 27.296875 
Q 5.515625 40.671875 12.859375 48.328125 
Q 20.21875 56 33.015625 56 
Q 37.15625 56 41.109375 55.140625 
Q 45.0625 54.296875 48.78125 52.59375 
" id="BitstreamVeraSans-Roman-63"/>
     <path d="M 25.390625 72.90625 
L 33.6875 72.90625 
L 8.296875 -9.28125 
L 0 -9.28125 
z
" id="BitstreamVeraSans-Roman-2f"/>
    </defs>
    <g transform="translate(622.447125 305.7421375)scale(0.168 -0.168)">
     <use xlink:href="#BitstreamVeraSans-Roman-50"/>
     <use x="60.255859375" xlink:href="#BitstreamVeraSans-Roman-6f"/>
     <use x="121.4375" xlink:href="#BitstreamVeraSans-Roman-73"/>
     <use x="173.537109375" xlink:href="#BitstreamVeraSans-Roman-74"/>
     <use x="212.74609375" xlink:href="#BitstreamVeraSans-Roman-2d"/>
     <use x="248.830078125" xlink:href="#BitstreamVeraSans-Roman-64"/>
     <use x="312.306640625" xlink:href="#BitstreamVeraSans-Roman-6f"/>
     <use x="373.48828125" xlink:href="#BitstreamVeraSans-Roman-63"/>
     <use x="428.46875" xlink:href="#BitstreamVeraSans-Roman-20"/>
     <use x="460.255859375" xlink:href="#BitstreamVeraSans-Roman-2f"/>
     <use x="493.947265625" xlink:href="#BitstreamVeraSans-Roman-20"/>
     <use x="525.734375" xlink:href="#BitstreamVeraSans-Roman-49"/>
     <use x="555.2265625" xlink:href="#BitstreamVeraSans-Roman-52"/>
    </g>
   </g>
  </g>
 </g>
 <defs>
  <clipPath id="pba3821c1ae">
   <rect height="358.56" width="501.12" x="59.18175" y="59.53595"/>
  </clipPath>
 </defs>
</svg>
