<?xml version="1.0" encoding="utf-8" standalone="no"?>
<!DOCTYPE svg PUBLIC "-//W3C//DTD SVG 1.1//EN"
  "http://www.w3.org/Graphics/SVG/1.1/DTD/svg11.dtd">
<!-- Created with matplotlib (http://matplotlib.org/) -->
<svg height="458pt" version="1.1" viewBox="0 0 550 458" width="550pt" xmlns="http://www.w3.org/2000/svg" xmlns:xlink="http://www.w3.org/1999/xlink">
 <defs>
  <style type="text/css">
*{stroke-linecap:butt;stroke-linejoin:round;stroke-miterlimit:100000;}
  </style>
 </defs>
 <g id="figure_1">
  <g id="patch_1">
   <path d="M 0 458.2977 
L 550.95925 458.2977 
L 550.95925 0 
L 0 0 
z
" style="fill:#f0f0f0;"/>
  </g>
  <g id="axes_1">
   <g id="patch_2">
    <path d="M 42.63925 418.09595 
L 543.75925 418.09595 
L 543.75925 59.53595 
L 42.63925 59.53595 
z
" style="fill:#f0f0f0;"/>
   </g>
   <g id="matplotlib.axis_1">
    <g id="xtick_1">
     <g id="line2d_1">
      <path clip-path="url(#pf85d8bc93e)" d="M 134.681699 418.09595 
L 134.681699 59.53595 
" style="fill:none;stroke:#cbcbcb;"/>
     </g>
     <g id="line2d_2">
      <defs>
       <path d="M 0 0 
L 0 0 
" id="m9ff31ff184" style="stroke:#000000;stroke-width:0.5;"/>
      </defs>
      <g>
       <use style="stroke:#000000;stroke-width:0.5;" x="134.68169898" xlink:href="#m9ff31ff184" y="418.09595"/>
      </g>
     </g>
     <g id="line2d_3">
      <g>
       <use style="stroke:#000000;stroke-width:0.5;" x="134.68169898" xlink:href="#m9ff31ff184" y="59.53595"/>
      </g>
     </g>
     <g id="text_1">
      <!-- 2013 -->
      <defs>
       <path d="M 19.1875 8.296875 
L 53.609375 8.296875 
L 53.609375 0 
L 7.328125 0 
L 7.328125 8.296875 
Q 12.9375 14.109375 22.625 23.890625 
Q 32.328125 33.6875 34.8125 36.53125 
Q 39.546875 41.84375 41.421875 45.53125 
Q 43.3125 49.21875 43.3125 52.78125 
Q 43.3125 58.59375 39.234375 62.25 
Q 35.15625 65.921875 28.609375 65.921875 
Q 23.96875 65.921875 18.8125 64.3125 
Q 13.671875 62.703125 7.8125 59.421875 
L 7.8125 69.390625 
Q 13.765625 71.78125 18.9375 73 
Q 24.125 74.21875 28.421875 74.21875 
Q 39.75 74.21875 46.484375 68.546875 
Q 53.21875 62.890625 53.21875 53.421875 
Q 53.21875 48.921875 51.53125 44.890625 
Q 49.859375 40.875 45.40625 35.40625 
Q 44.1875 33.984375 37.640625 27.21875 
Q 31.109375 20.453125 19.1875 8.296875 
" id="BitstreamVeraSans-Roman-32"/>
       <path d="M 40.578125 39.3125 
Q 47.65625 37.796875 51.625 33 
Q 55.609375 28.21875 55.609375 21.1875 
Q 55.609375 10.40625 48.1875 4.484375 
Q 40.765625 -1.421875 27.09375 -1.421875 
Q 22.515625 -1.421875 17.65625 -0.515625 
Q 12.796875 0.390625 7.625 2.203125 
L 7.625 11.71875 
Q 11.71875 9.328125 16.59375 8.109375 
Q 21.484375 6.890625 26.8125 6.890625 
Q 36.078125 6.890625 40.9375 10.546875 
Q 45.796875 14.203125 45.796875 21.1875 
Q 45.796875 27.640625 41.28125 31.265625 
Q 36.765625 34.90625 28.71875 34.90625 
L 20.21875 34.90625 
L 20.21875 43.015625 
L 29.109375 43.015625 
Q 36.375 43.015625 40.234375 45.921875 
Q 44.09375 48.828125 44.09375 54.296875 
Q 44.09375 59.90625 40.109375 62.90625 
Q 36.140625 65.921875 28.71875 65.921875 
Q 24.65625 65.921875 20.015625 65.03125 
Q 15.375 64.15625 9.8125 62.3125 
L 9.8125 71.09375 
Q 15.4375 72.65625 20.34375 73.4375 
Q 25.25 74.21875 29.59375 74.21875 
Q 40.828125 74.21875 47.359375 69.109375 
Q 53.90625 64.015625 53.90625 55.328125 
Q 53.90625 49.265625 50.4375 45.09375 
Q 46.96875 40.921875 40.578125 39.3125 
" id="BitstreamVeraSans-Roman-33"/>
       <path d="M 31.78125 66.40625 
Q 24.171875 66.40625 20.328125 58.90625 
Q 16.5 51.421875 16.5 36.375 
Q 16.5 21.390625 20.328125 13.890625 
Q 24.171875 6.390625 31.78125 6.390625 
Q 39.453125 6.390625 43.28125 13.890625 
Q 47.125 21.390625 47.125 36.375 
Q 47.125 51.421875 43.28125 58.90625 
Q 39.453125 66.40625 31.78125 66.40625 
M 31.78125 74.21875 
Q 44.046875 74.21875 50.515625 64.515625 
Q 56.984375 54.828125 56.984375 36.375 
Q 56.984375 17.96875 50.515625 8.265625 
Q 44.046875 -1.421875 31.78125 -1.421875 
Q 19.53125 -1.421875 13.0625 8.265625 
Q 6.59375 17.96875 6.59375 36.375 
Q 6.59375 54.828125 13.0625 64.515625 
Q 19.53125 74.21875 31.78125 74.21875 
" id="BitstreamVeraSans-Roman-30"/>
       <path d="M 12.40625 8.296875 
L 28.515625 8.296875 
L 28.515625 63.921875 
L 10.984375 60.40625 
L 10.984375 69.390625 
L 28.421875 72.90625 
L 38.28125 72.90625 
L 38.28125 8.296875 
L 54.390625 8.296875 
L 54.390625 0 
L 12.40625 0 
z
" id="BitstreamVeraSans-Roman-31"/>
      </defs>
      <g transform="translate(124.50169898 428.1747)scale(0.08 -0.08)">
       <use xlink:href="#BitstreamVeraSans-Roman-32"/>
       <use x="63.623046875" xlink:href="#BitstreamVeraSans-Roman-30"/>
       <use x="127.24609375" xlink:href="#BitstreamVeraSans-Roman-31"/>
       <use x="190.869140625" xlink:href="#BitstreamVeraSans-Roman-33"/>
      </g>
     </g>
    </g>
    <g id="xtick_2">
     <g id="line2d_4">
      <path clip-path="url(#pf85d8bc93e)" d="M 257.404964 418.09595 
L 257.404964 59.53595 
" style="fill:none;stroke:#cbcbcb;"/>
     </g>
     <g id="line2d_5">
      <g>
       <use style="stroke:#000000;stroke-width:0.5;" x="257.404964286" xlink:href="#m9ff31ff184" y="418.09595"/>
      </g>
     </g>
     <g id="line2d_6">
      <g>
       <use style="stroke:#000000;stroke-width:0.5;" x="257.404964286" xlink:href="#m9ff31ff184" y="59.53595"/>
      </g>
     </g>
     <g id="text_2">
      <!-- 2014 -->
      <defs>
       <path d="M 37.796875 64.3125 
L 12.890625 25.390625 
L 37.796875 25.390625 
z
M 35.203125 72.90625 
L 47.609375 72.90625 
L 47.609375 25.390625 
L 58.015625 25.390625 
L 58.015625 17.1875 
L 47.609375 17.1875 
L 47.609375 0 
L 37.796875 0 
L 37.796875 17.1875 
L 4.890625 17.1875 
L 4.890625 26.703125 
z
" id="BitstreamVeraSans-Roman-34"/>
      </defs>
      <g transform="translate(247.224964286 428.1747)scale(0.08 -0.08)">
       <use xlink:href="#BitstreamVeraSans-Roman-32"/>
       <use x="63.623046875" xlink:href="#BitstreamVeraSans-Roman-30"/>
       <use x="127.24609375" xlink:href="#BitstreamVeraSans-Roman-31"/>
       <use x="190.869140625" xlink:href="#BitstreamVeraSans-Roman-34"/>
      </g>
     </g>
    </g>
    <g id="xtick_3">
     <g id="line2d_7">
      <path clip-path="url(#pf85d8bc93e)" d="M 380.12823 418.09595 
L 380.12823 59.53595 
" style="fill:none;stroke:#cbcbcb;"/>
     </g>
     <g id="line2d_8">
      <g>
       <use style="stroke:#000000;stroke-width:0.5;" x="380.128229592" xlink:href="#m9ff31ff184" y="418.09595"/>
      </g>
     </g>
     <g id="line2d_9">
      <g>
       <use style="stroke:#000000;stroke-width:0.5;" x="380.128229592" xlink:href="#m9ff31ff184" y="59.53595"/>
      </g>
     </g>
     <g id="text_3">
      <!-- 2015 -->
      <defs>
       <path d="M 10.796875 72.90625 
L 49.515625 72.90625 
L 49.515625 64.59375 
L 19.828125 64.59375 
L 19.828125 46.734375 
Q 21.96875 47.46875 24.109375 47.828125 
Q 26.265625 48.1875 28.421875 48.1875 
Q 40.625 48.1875 47.75 41.5 
Q 54.890625 34.8125 54.890625 23.390625 
Q 54.890625 11.625 47.5625 5.09375 
Q 40.234375 -1.421875 26.90625 -1.421875 
Q 22.3125 -1.421875 17.546875 -0.640625 
Q 12.796875 0.140625 7.71875 1.703125 
L 7.71875 11.625 
Q 12.109375 9.234375 16.796875 8.0625 
Q 21.484375 6.890625 26.703125 6.890625 
Q 35.15625 6.890625 40.078125 11.328125 
Q 45.015625 15.765625 45.015625 23.390625 
Q 45.015625 31 40.078125 35.4375 
Q 35.15625 39.890625 26.703125 39.890625 
Q 22.75 39.890625 18.8125 39.015625 
Q 14.890625 38.140625 10.796875 36.28125 
z
" id="BitstreamVeraSans-Roman-35"/>
      </defs>
      <g transform="translate(369.948229592 428.1747)scale(0.08 -0.08)">
       <use xlink:href="#BitstreamVeraSans-Roman-32"/>
       <use x="63.623046875" xlink:href="#BitstreamVeraSans-Roman-30"/>
       <use x="127.24609375" xlink:href="#BitstreamVeraSans-Roman-31"/>
       <use x="190.869140625" xlink:href="#BitstreamVeraSans-Roman-35"/>
      </g>
     </g>
    </g>
    <g id="xtick_4">
     <g id="line2d_10">
      <path clip-path="url(#pf85d8bc93e)" d="M 502.851495 418.09595 
L 502.851495 59.53595 
" style="fill:none;stroke:#cbcbcb;"/>
     </g>
     <g id="line2d_11">
      <g>
       <use style="stroke:#000000;stroke-width:0.5;" x="502.851494898" xlink:href="#m9ff31ff184" y="418.09595"/>
      </g>
     </g>
     <g id="line2d_12">
      <g>
       <use style="stroke:#000000;stroke-width:0.5;" x="502.851494898" xlink:href="#m9ff31ff184" y="59.53595"/>
      </g>
     </g>
     <g id="text_4">
      <!-- 2016 -->
      <defs>
       <path d="M 33.015625 40.375 
Q 26.375 40.375 22.484375 35.828125 
Q 18.609375 31.296875 18.609375 23.390625 
Q 18.609375 15.53125 22.484375 10.953125 
Q 26.375 6.390625 33.015625 6.390625 
Q 39.65625 6.390625 43.53125 10.953125 
Q 47.40625 15.53125 47.40625 23.390625 
Q 47.40625 31.296875 43.53125 35.828125 
Q 39.65625 40.375 33.015625 40.375 
M 52.59375 71.296875 
L 52.59375 62.3125 
Q 48.875 64.0625 45.09375 64.984375 
Q 41.3125 65.921875 37.59375 65.921875 
Q 27.828125 65.921875 22.671875 59.328125 
Q 17.53125 52.734375 16.796875 39.40625 
Q 19.671875 43.65625 24.015625 45.921875 
Q 28.375 48.1875 33.59375 48.1875 
Q 44.578125 48.1875 50.953125 41.515625 
Q 57.328125 34.859375 57.328125 23.390625 
Q 57.328125 12.15625 50.6875 5.359375 
Q 44.046875 -1.421875 33.015625 -1.421875 
Q 20.359375 -1.421875 13.671875 8.265625 
Q 6.984375 17.96875 6.984375 36.375 
Q 6.984375 53.65625 15.1875 63.9375 
Q 23.390625 74.21875 37.203125 74.21875 
Q 40.921875 74.21875 44.703125 73.484375 
Q 48.484375 72.75 52.59375 71.296875 
" id="BitstreamVeraSans-Roman-36"/>
      </defs>
      <g transform="translate(492.671494898 428.1747)scale(0.08 -0.08)">
       <use xlink:href="#BitstreamVeraSans-Roman-32"/>
       <use x="63.623046875" xlink:href="#BitstreamVeraSans-Roman-30"/>
       <use x="127.24609375" xlink:href="#BitstreamVeraSans-Roman-31"/>
       <use x="190.869140625" xlink:href="#BitstreamVeraSans-Roman-36"/>
      </g>
     </g>
    </g>
    <g id="xtick_5">
     <g id="line2d_13">
      <g>
       <use style="stroke:#000000;stroke-width:0.5;" x="42.63925" xlink:href="#m9ff31ff184" y="418.09595"/>
      </g>
     </g>
     <g id="line2d_14">
      <g>
       <use style="stroke:#000000;stroke-width:0.5;" x="42.63925" xlink:href="#m9ff31ff184" y="59.53595"/>
      </g>
     </g>
    </g>
    <g id="xtick_6">
     <g id="line2d_15">
      <g>
       <use style="stroke:#000000;stroke-width:0.5;" x="73.3200663265" xlink:href="#m9ff31ff184" y="418.09595"/>
      </g>
     </g>
     <g id="line2d_16">
      <g>
       <use style="stroke:#000000;stroke-width:0.5;" x="73.3200663265" xlink:href="#m9ff31ff184" y="59.53595"/>
      </g>
     </g>
    </g>
    <g id="xtick_7">
     <g id="line2d_17">
      <g>
       <use style="stroke:#000000;stroke-width:0.5;" x="104.000882653" xlink:href="#m9ff31ff184" y="418.09595"/>
      </g>
     </g>
     <g id="line2d_18">
      <g>
       <use style="stroke:#000000;stroke-width:0.5;" x="104.000882653" xlink:href="#m9ff31ff184" y="59.53595"/>
      </g>
     </g>
    </g>
    <g id="xtick_8">
     <g id="line2d_19">
      <g>
       <use style="stroke:#000000;stroke-width:0.5;" x="134.68169898" xlink:href="#m9ff31ff184" y="418.09595"/>
      </g>
     </g>
     <g id="line2d_20">
      <g>
       <use style="stroke:#000000;stroke-width:0.5;" x="134.68169898" xlink:href="#m9ff31ff184" y="59.53595"/>
      </g>
     </g>
    </g>
    <g id="xtick_9">
     <g id="line2d_21">
      <g>
       <use style="stroke:#000000;stroke-width:0.5;" x="165.362515306" xlink:href="#m9ff31ff184" y="418.09595"/>
      </g>
     </g>
     <g id="line2d_22">
      <g>
       <use style="stroke:#000000;stroke-width:0.5;" x="165.362515306" xlink:href="#m9ff31ff184" y="59.53595"/>
      </g>
     </g>
    </g>
    <g id="xtick_10">
     <g id="line2d_23">
      <g>
       <use style="stroke:#000000;stroke-width:0.5;" x="196.043331633" xlink:href="#m9ff31ff184" y="418.09595"/>
      </g>
     </g>
     <g id="line2d_24">
      <g>
       <use style="stroke:#000000;stroke-width:0.5;" x="196.043331633" xlink:href="#m9ff31ff184" y="59.53595"/>
      </g>
     </g>
    </g>
    <g id="xtick_11">
     <g id="line2d_25">
      <g>
       <use style="stroke:#000000;stroke-width:0.5;" x="226.724147959" xlink:href="#m9ff31ff184" y="418.09595"/>
      </g>
     </g>
     <g id="line2d_26">
      <g>
       <use style="stroke:#000000;stroke-width:0.5;" x="226.724147959" xlink:href="#m9ff31ff184" y="59.53595"/>
      </g>
     </g>
    </g>
    <g id="xtick_12">
     <g id="line2d_27">
      <g>
       <use style="stroke:#000000;stroke-width:0.5;" x="257.404964286" xlink:href="#m9ff31ff184" y="418.09595"/>
      </g>
     </g>
     <g id="line2d_28">
      <g>
       <use style="stroke:#000000;stroke-width:0.5;" x="257.404964286" xlink:href="#m9ff31ff184" y="59.53595"/>
      </g>
     </g>
    </g>
    <g id="xtick_13">
     <g id="line2d_29">
      <g>
       <use style="stroke:#000000;stroke-width:0.5;" x="288.085780612" xlink:href="#m9ff31ff184" y="418.09595"/>
      </g>
     </g>
     <g id="line2d_30">
      <g>
       <use style="stroke:#000000;stroke-width:0.5;" x="288.085780612" xlink:href="#m9ff31ff184" y="59.53595"/>
      </g>
     </g>
    </g>
    <g id="xtick_14">
     <g id="line2d_31">
      <g>
       <use style="stroke:#000000;stroke-width:0.5;" x="318.766596939" xlink:href="#m9ff31ff184" y="418.09595"/>
      </g>
     </g>
     <g id="line2d_32">
      <g>
       <use style="stroke:#000000;stroke-width:0.5;" x="318.766596939" xlink:href="#m9ff31ff184" y="59.53595"/>
      </g>
     </g>
    </g>
    <g id="xtick_15">
     <g id="line2d_33">
      <g>
       <use style="stroke:#000000;stroke-width:0.5;" x="349.447413265" xlink:href="#m9ff31ff184" y="418.09595"/>
      </g>
     </g>
     <g id="line2d_34">
      <g>
       <use style="stroke:#000000;stroke-width:0.5;" x="349.447413265" xlink:href="#m9ff31ff184" y="59.53595"/>
      </g>
     </g>
    </g>
    <g id="xtick_16">
     <g id="line2d_35">
      <g>
       <use style="stroke:#000000;stroke-width:0.5;" x="380.128229592" xlink:href="#m9ff31ff184" y="418.09595"/>
      </g>
     </g>
     <g id="line2d_36">
      <g>
       <use style="stroke:#000000;stroke-width:0.5;" x="380.128229592" xlink:href="#m9ff31ff184" y="59.53595"/>
      </g>
     </g>
    </g>
    <g id="xtick_17">
     <g id="line2d_37">
      <g>
       <use style="stroke:#000000;stroke-width:0.5;" x="410.809045918" xlink:href="#m9ff31ff184" y="418.09595"/>
      </g>
     </g>
     <g id="line2d_38">
      <g>
       <use style="stroke:#000000;stroke-width:0.5;" x="410.809045918" xlink:href="#m9ff31ff184" y="59.53595"/>
      </g>
     </g>
    </g>
    <g id="xtick_18">
     <g id="line2d_39">
      <g>
       <use style="stroke:#000000;stroke-width:0.5;" x="441.489862245" xlink:href="#m9ff31ff184" y="418.09595"/>
      </g>
     </g>
     <g id="line2d_40">
      <g>
       <use style="stroke:#000000;stroke-width:0.5;" x="441.489862245" xlink:href="#m9ff31ff184" y="59.53595"/>
      </g>
     </g>
    </g>
    <g id="xtick_19">
     <g id="line2d_41">
      <g>
       <use style="stroke:#000000;stroke-width:0.5;" x="472.170678571" xlink:href="#m9ff31ff184" y="418.09595"/>
      </g>
     </g>
     <g id="line2d_42">
      <g>
       <use style="stroke:#000000;stroke-width:0.5;" x="472.170678571" xlink:href="#m9ff31ff184" y="59.53595"/>
      </g>
     </g>
    </g>
    <g id="xtick_20">
     <g id="line2d_43">
      <g>
       <use style="stroke:#000000;stroke-width:0.5;" x="502.851494898" xlink:href="#m9ff31ff184" y="418.09595"/>
      </g>
     </g>
     <g id="line2d_44">
      <g>
       <use style="stroke:#000000;stroke-width:0.5;" x="502.851494898" xlink:href="#m9ff31ff184" y="59.53595"/>
      </g>
     </g>
    </g>
    <g id="xtick_21">
     <g id="line2d_45">
      <g>
       <use style="stroke:#000000;stroke-width:0.5;" x="533.532311224" xlink:href="#m9ff31ff184" y="418.09595"/>
      </g>
     </g>
     <g id="line2d_46">
      <g>
       <use style="stroke:#000000;stroke-width:0.5;" x="533.532311224" xlink:href="#m9ff31ff184" y="59.53595"/>
      </g>
     </g>
    </g>
    <g id="text_5">
     <!-- Date -->
     <defs>
      <path d="M 32.90625 24.609375 
Q 27.4375 24.609375 24.671875 22.75 
Q 21.921875 20.90625 21.921875 17.28125 
Q 21.921875 13.96875 24.140625 12.078125 
Q 26.375 10.203125 30.328125 10.203125 
Q 35.25 10.203125 38.625 13.734375 
Q 42 17.28125 42 22.609375 
L 42 24.609375 
z
M 59.625 31.203125 
L 59.625 0 
L 42 0 
L 42 8.109375 
Q 38.484375 3.125 34.078125 0.84375 
Q 29.6875 -1.421875 23.390625 -1.421875 
Q 14.890625 -1.421875 9.59375 3.53125 
Q 4.296875 8.5 4.296875 16.40625 
Q 4.296875 26.03125 10.90625 30.515625 
Q 17.53125 35.015625 31.6875 35.015625 
L 42 35.015625 
L 42 36.375 
Q 42 40.53125 38.71875 42.453125 
Q 35.453125 44.390625 28.515625 44.390625 
Q 22.90625 44.390625 18.0625 43.265625 
Q 13.234375 42.140625 9.078125 39.890625 
L 9.078125 53.21875 
Q 14.703125 54.59375 20.359375 55.296875 
Q 26.03125 56 31.6875 56 
Q 46.484375 56 53.046875 50.171875 
Q 59.625 44.34375 59.625 31.203125 
" id="BitstreamVeraSans-Bold-61"/>
      <path d="M 27.984375 58.6875 
L 27.984375 14.203125 
L 34.71875 14.203125 
Q 46.234375 14.203125 52.3125 19.921875 
Q 58.40625 25.640625 58.40625 36.53125 
Q 58.40625 47.359375 52.34375 53.015625 
Q 46.296875 58.6875 34.71875 58.6875 
z
M 9.1875 72.90625 
L 29 72.90625 
Q 45.609375 72.90625 53.734375 70.53125 
Q 61.859375 68.171875 67.671875 62.5 
Q 72.796875 57.5625 75.28125 51.109375 
Q 77.78125 44.671875 77.78125 36.53125 
Q 77.78125 28.265625 75.28125 21.796875 
Q 72.796875 15.328125 67.671875 10.40625 
Q 61.8125 4.734375 53.609375 2.359375 
Q 45.40625 0 29 0 
L 9.1875 0 
z
" id="BitstreamVeraSans-Bold-44"/>
      <path d="M 27.484375 70.21875 
L 27.484375 54.6875 
L 45.515625 54.6875 
L 45.515625 42.1875 
L 27.484375 42.1875 
L 27.484375 19 
Q 27.484375 15.1875 29 13.84375 
Q 30.515625 12.5 35.015625 12.5 
L 44 12.5 
L 44 0 
L 29 0 
Q 18.65625 0 14.328125 4.3125 
Q 10.015625 8.640625 10.015625 19 
L 10.015625 42.1875 
L 1.3125 42.1875 
L 1.3125 54.6875 
L 10.015625 54.6875 
L 10.015625 70.21875 
z
" id="BitstreamVeraSans-Bold-74"/>
      <path d="M 62.984375 27.484375 
L 62.984375 22.515625 
L 22.125 22.515625 
Q 22.75 16.359375 26.5625 13.28125 
Q 30.375 10.203125 37.203125 10.203125 
Q 42.71875 10.203125 48.5 11.84375 
Q 54.296875 13.484375 60.40625 16.796875 
L 60.40625 3.328125 
Q 54.203125 0.984375 48 -0.21875 
Q 41.796875 -1.421875 35.59375 -1.421875 
Q 20.75 -1.421875 12.515625 6.125 
Q 4.296875 13.671875 4.296875 27.296875 
Q 4.296875 40.671875 12.375 48.328125 
Q 20.453125 56 34.625 56 
Q 47.515625 56 55.25 48.234375 
Q 62.984375 40.484375 62.984375 27.484375 
M 45.015625 33.296875 
Q 45.015625 38.28125 42.109375 41.328125 
Q 39.203125 44.390625 34.515625 44.390625 
Q 29.4375 44.390625 26.265625 41.53125 
Q 23.09375 38.671875 22.3125 33.296875 
z
" id="BitstreamVeraSans-Bold-65"/>
     </defs>
     <g transform="translate(270.84475 447.603825)scale(0.168 -0.168)">
      <use xlink:href="#BitstreamVeraSans-Bold-44"/>
      <use x="83.0078125" xlink:href="#BitstreamVeraSans-Bold-61"/>
      <use x="150.48828125" xlink:href="#BitstreamVeraSans-Bold-74"/>
      <use x="198.291015625" xlink:href="#BitstreamVeraSans-Bold-65"/>
     </g>
    </g>
   </g>
   <g id="matplotlib.axis_2">
    <g id="ytick_1">
     <g id="line2d_47">
      <path clip-path="url(#pf85d8bc93e)" d="M 42.63925 418.09595 
L 543.75925 418.09595 
" style="fill:none;stroke:#cbcbcb;"/>
     </g>
     <g id="line2d_48">
      <g>
       <use style="stroke:#000000;stroke-width:0.5;" x="42.63925" xlink:href="#m9ff31ff184" y="418.09595"/>
      </g>
     </g>
     <g id="line2d_49">
      <g>
       <use style="stroke:#000000;stroke-width:0.5;" x="543.75925" xlink:href="#m9ff31ff184" y="418.09595"/>
      </g>
     </g>
     <g id="text_6">
      <!-- 0 -->
      <g transform="translate(33.54925 420.30345)scale(0.08 -0.08)">
       <use xlink:href="#BitstreamVeraSans-Roman-30"/>
      </g>
     </g>
    </g>
    <g id="ytick_2">
     <g id="line2d_50">
      <path clip-path="url(#pf85d8bc93e)" d="M 42.63925 366.873093 
L 543.75925 366.873093 
" style="fill:none;stroke:#cbcbcb;"/>
     </g>
     <g id="line2d_51">
      <g>
       <use style="stroke:#000000;stroke-width:0.5;" x="42.63925" xlink:href="#m9ff31ff184" y="366.873092857"/>
      </g>
     </g>
     <g id="line2d_52">
      <g>
       <use style="stroke:#000000;stroke-width:0.5;" x="543.75925" xlink:href="#m9ff31ff184" y="366.873092857"/>
      </g>
     </g>
     <g id="text_7">
      <!-- 5 -->
      <g transform="translate(33.54925 369.080592857)scale(0.08 -0.08)">
       <use xlink:href="#BitstreamVeraSans-Roman-35"/>
      </g>
     </g>
    </g>
    <g id="ytick_3">
     <g id="line2d_53">
      <path clip-path="url(#pf85d8bc93e)" d="M 42.63925 315.650236 
L 543.75925 315.650236 
" style="fill:none;stroke:#cbcbcb;"/>
     </g>
     <g id="line2d_54">
      <g>
       <use style="stroke:#000000;stroke-width:0.5;" x="42.63925" xlink:href="#m9ff31ff184" y="315.650235714"/>
      </g>
     </g>
     <g id="line2d_55">
      <g>
       <use style="stroke:#000000;stroke-width:0.5;" x="543.75925" xlink:href="#m9ff31ff184" y="315.650235714"/>
      </g>
     </g>
     <g id="text_8">
      <!-- 10 -->
      <g transform="translate(28.45925 317.857735714)scale(0.08 -0.08)">
       <use xlink:href="#BitstreamVeraSans-Roman-31"/>
       <use x="63.623046875" xlink:href="#BitstreamVeraSans-Roman-30"/>
      </g>
     </g>
    </g>
    <g id="ytick_4">
     <g id="line2d_56">
      <path clip-path="url(#pf85d8bc93e)" d="M 42.63925 264.427379 
L 543.75925 264.427379 
" style="fill:none;stroke:#cbcbcb;"/>
     </g>
     <g id="line2d_57">
      <g>
       <use style="stroke:#000000;stroke-width:0.5;" x="42.63925" xlink:href="#m9ff31ff184" y="264.427378571"/>
      </g>
     </g>
     <g id="line2d_58">
      <g>
       <use style="stroke:#000000;stroke-width:0.5;" x="543.75925" xlink:href="#m9ff31ff184" y="264.427378571"/>
      </g>
     </g>
     <g id="text_9">
      <!-- 15 -->
      <g transform="translate(28.45925 266.634878571)scale(0.08 -0.08)">
       <use xlink:href="#BitstreamVeraSans-Roman-31"/>
       <use x="63.623046875" xlink:href="#BitstreamVeraSans-Roman-35"/>
      </g>
     </g>
    </g>
    <g id="ytick_5">
     <g id="line2d_59">
      <path clip-path="url(#pf85d8bc93e)" d="M 42.63925 213.204521 
L 543.75925 213.204521 
" style="fill:none;stroke:#cbcbcb;"/>
     </g>
     <g id="line2d_60">
      <g>
       <use style="stroke:#000000;stroke-width:0.5;" x="42.63925" xlink:href="#m9ff31ff184" y="213.204521429"/>
      </g>
     </g>
     <g id="line2d_61">
      <g>
       <use style="stroke:#000000;stroke-width:0.5;" x="543.75925" xlink:href="#m9ff31ff184" y="213.204521429"/>
      </g>
     </g>
     <g id="text_10">
      <!-- 20 -->
      <g transform="translate(28.45925 215.412021429)scale(0.08 -0.08)">
       <use xlink:href="#BitstreamVeraSans-Roman-32"/>
       <use x="63.623046875" xlink:href="#BitstreamVeraSans-Roman-30"/>
      </g>
     </g>
    </g>
    <g id="ytick_6">
     <g id="line2d_62">
      <path clip-path="url(#pf85d8bc93e)" d="M 42.63925 161.981664 
L 543.75925 161.981664 
" style="fill:none;stroke:#cbcbcb;"/>
     </g>
     <g id="line2d_63">
      <g>
       <use style="stroke:#000000;stroke-width:0.5;" x="42.63925" xlink:href="#m9ff31ff184" y="161.981664286"/>
      </g>
     </g>
     <g id="line2d_64">
      <g>
       <use style="stroke:#000000;stroke-width:0.5;" x="543.75925" xlink:href="#m9ff31ff184" y="161.981664286"/>
      </g>
     </g>
     <g id="text_11">
      <!-- 25 -->
      <g transform="translate(28.45925 164.189164286)scale(0.08 -0.08)">
       <use xlink:href="#BitstreamVeraSans-Roman-32"/>
       <use x="63.623046875" xlink:href="#BitstreamVeraSans-Roman-35"/>
      </g>
     </g>
    </g>
    <g id="ytick_7">
     <g id="line2d_65">
      <path clip-path="url(#pf85d8bc93e)" d="M 42.63925 110.758807 
L 543.75925 110.758807 
" style="fill:none;stroke:#cbcbcb;"/>
     </g>
     <g id="line2d_66">
      <g>
       <use style="stroke:#000000;stroke-width:0.5;" x="42.63925" xlink:href="#m9ff31ff184" y="110.758807143"/>
      </g>
     </g>
     <g id="line2d_67">
      <g>
       <use style="stroke:#000000;stroke-width:0.5;" x="543.75925" xlink:href="#m9ff31ff184" y="110.758807143"/>
      </g>
     </g>
     <g id="text_12">
      <!-- 30 -->
      <g transform="translate(28.45925 112.966307143)scale(0.08 -0.08)">
       <use xlink:href="#BitstreamVeraSans-Roman-33"/>
       <use x="63.623046875" xlink:href="#BitstreamVeraSans-Roman-30"/>
      </g>
     </g>
    </g>
    <g id="ytick_8">
     <g id="line2d_68">
      <path clip-path="url(#pf85d8bc93e)" d="M 42.63925 59.53595 
L 543.75925 59.53595 
" style="fill:none;stroke:#cbcbcb;"/>
     </g>
     <g id="line2d_69">
      <g>
       <use style="stroke:#000000;stroke-width:0.5;" x="42.63925" xlink:href="#m9ff31ff184" y="59.53595"/>
      </g>
     </g>
     <g id="line2d_70">
      <g>
       <use style="stroke:#000000;stroke-width:0.5;" x="543.75925" xlink:href="#m9ff31ff184" y="59.53595"/>
      </g>
     </g>
     <g id="text_13">
      <!-- 35 -->
      <g transform="translate(28.45925 61.74345)scale(0.08 -0.08)">
       <use xlink:href="#BitstreamVeraSans-Roman-33"/>
       <use x="63.623046875" xlink:href="#BitstreamVeraSans-Roman-35"/>
      </g>
     </g>
    </g>
    <g id="text_14">
     <!-- Nombre d'offres -->
     <defs>
      <path d="M 21.09375 72.90625 
L 21.09375 45.796875 
L 9.515625 45.796875 
L 9.515625 72.90625 
z
" id="BitstreamVeraSans-Bold-27"/>
      <path id="BitstreamVeraSans-Bold-20"/>
      <path d="M 37.5 11.28125 
Q 43.109375 11.28125 46.0625 15.375 
Q 49.03125 19.484375 49.03125 27.296875 
Q 49.03125 35.109375 46.0625 39.203125 
Q 43.109375 43.3125 37.5 43.3125 
Q 31.890625 43.3125 28.875 39.1875 
Q 25.875 35.0625 25.875 27.296875 
Q 25.875 19.53125 28.875 15.40625 
Q 31.890625 11.28125 37.5 11.28125 
M 25.875 46.6875 
Q 29.5 51.46875 33.890625 53.734375 
Q 38.28125 56 44 56 
Q 54.109375 56 60.59375 47.96875 
Q 67.09375 39.9375 67.09375 27.296875 
Q 67.09375 14.65625 60.59375 6.609375 
Q 54.109375 -1.421875 44 -1.421875 
Q 38.28125 -1.421875 33.890625 0.84375 
Q 29.5 3.125 25.875 7.90625 
L 25.875 0 
L 8.40625 0 
L 8.40625 75.984375 
L 25.875 75.984375 
z
" id="BitstreamVeraSans-Bold-62"/>
      <path d="M 51.125 52.984375 
L 51.125 39.703125 
Q 45.515625 42.046875 40.28125 43.21875 
Q 35.0625 44.390625 30.421875 44.390625 
Q 25.4375 44.390625 23.015625 43.140625 
Q 20.609375 41.890625 20.609375 39.3125 
Q 20.609375 37.203125 22.4375 36.078125 
Q 24.265625 34.96875 29 34.421875 
L 32.078125 33.984375 
Q 45.515625 32.28125 50.140625 28.375 
Q 54.78125 24.46875 54.78125 16.109375 
Q 54.78125 7.375 48.328125 2.96875 
Q 41.890625 -1.421875 29.109375 -1.421875 
Q 23.6875 -1.421875 17.890625 -0.5625 
Q 12.109375 0.296875 6 2 
L 6 15.28125 
Q 11.234375 12.75 16.71875 11.46875 
Q 22.21875 10.203125 27.875 10.203125 
Q 33.015625 10.203125 35.59375 11.609375 
Q 38.1875 13.03125 38.1875 15.828125 
Q 38.1875 18.171875 36.40625 19.3125 
Q 34.625 20.453125 29.296875 21.09375 
L 26.21875 21.484375 
Q 14.546875 22.953125 9.859375 26.90625 
Q 5.171875 30.859375 5.171875 38.921875 
Q 5.171875 47.609375 11.125 51.796875 
Q 17.09375 56 29.390625 56 
Q 34.234375 56 39.546875 55.265625 
Q 44.875 54.546875 51.125 52.984375 
" id="BitstreamVeraSans-Bold-73"/>
      <path d="M 49.03125 39.796875 
Q 46.734375 40.875 44.453125 41.375 
Q 42.1875 41.890625 39.890625 41.890625 
Q 33.15625 41.890625 29.515625 37.5625 
Q 25.875 33.25 25.875 25.203125 
L 25.875 0 
L 8.40625 0 
L 8.40625 54.6875 
L 25.875 54.6875 
L 25.875 45.703125 
Q 29.25 51.078125 33.609375 53.53125 
Q 37.984375 56 44.09375 56 
Q 44.96875 56 45.984375 55.921875 
Q 47.015625 55.859375 48.96875 55.609375 
z
" id="BitstreamVeraSans-Bold-72"/>
      <path d="M 44.390625 75.984375 
L 44.390625 64.5 
L 34.71875 64.5 
Q 31 64.5 29.53125 63.15625 
Q 28.078125 61.8125 28.078125 58.5 
L 28.078125 54.6875 
L 43.015625 54.6875 
L 43.015625 42.1875 
L 28.078125 42.1875 
L 28.078125 0 
L 10.59375 0 
L 10.59375 42.1875 
L 1.90625 42.1875 
L 1.90625 54.6875 
L 10.59375 54.6875 
L 10.59375 58.5 
Q 10.59375 67.4375 15.578125 71.703125 
Q 20.5625 75.984375 31 75.984375 
z
" id="BitstreamVeraSans-Bold-66"/>
      <path d="M 45.609375 46.6875 
L 45.609375 75.984375 
L 63.1875 75.984375 
L 63.1875 0 
L 45.609375 0 
L 45.609375 7.90625 
Q 42 3.078125 37.640625 0.828125 
Q 33.296875 -1.421875 27.59375 -1.421875 
Q 17.484375 -1.421875 10.984375 6.609375 
Q 4.5 14.65625 4.5 27.296875 
Q 4.5 39.9375 10.984375 47.96875 
Q 17.484375 56 27.59375 56 
Q 33.25 56 37.625 53.734375 
Q 42 51.46875 45.609375 46.6875 
M 34.078125 11.28125 
Q 39.703125 11.28125 42.65625 15.375 
Q 45.609375 19.484375 45.609375 27.296875 
Q 45.609375 35.109375 42.65625 39.203125 
Q 39.703125 43.3125 34.078125 43.3125 
Q 28.515625 43.3125 25.5625 39.203125 
Q 22.609375 35.109375 22.609375 27.296875 
Q 22.609375 19.484375 25.5625 15.375 
Q 28.515625 11.28125 34.078125 11.28125 
" id="BitstreamVeraSans-Bold-64"/>
      <path d="M 9.1875 72.90625 
L 30.171875 72.90625 
L 56.6875 22.90625 
L 56.6875 72.90625 
L 74.515625 72.90625 
L 74.515625 0 
L 53.515625 0 
L 27 50 
L 27 0 
L 9.1875 0 
z
" id="BitstreamVeraSans-Bold-4e"/>
      <path d="M 34.421875 43.5 
Q 28.609375 43.5 25.5625 39.328125 
Q 22.515625 35.15625 22.515625 27.296875 
Q 22.515625 19.4375 25.5625 15.25 
Q 28.609375 11.078125 34.421875 11.078125 
Q 40.140625 11.078125 43.15625 15.25 
Q 46.1875 19.4375 46.1875 27.296875 
Q 46.1875 35.15625 43.15625 39.328125 
Q 40.140625 43.5 34.421875 43.5 
M 34.421875 56 
Q 48.53125 56 56.46875 48.375 
Q 64.40625 40.765625 64.40625 27.296875 
Q 64.40625 13.8125 56.46875 6.1875 
Q 48.53125 -1.421875 34.421875 -1.421875 
Q 20.265625 -1.421875 12.28125 6.1875 
Q 4.296875 13.8125 4.296875 27.296875 
Q 4.296875 40.765625 12.28125 48.375 
Q 20.265625 56 34.421875 56 
" id="BitstreamVeraSans-Bold-6f"/>
      <path d="M 59.078125 45.609375 
Q 62.40625 50.6875 66.96875 53.34375 
Q 71.53125 56 77 56 
Q 86.421875 56 91.359375 50.1875 
Q 96.296875 44.390625 96.296875 33.296875 
L 96.296875 0 
L 78.71875 0 
L 78.71875 28.515625 
Q 78.765625 29.15625 78.78125 29.828125 
Q 78.8125 30.515625 78.8125 31.78125 
Q 78.8125 37.59375 77.09375 40.203125 
Q 75.390625 42.828125 71.578125 42.828125 
Q 66.609375 42.828125 63.890625 38.71875 
Q 61.1875 34.625 61.078125 26.859375 
L 61.078125 0 
L 43.5 0 
L 43.5 28.515625 
Q 43.5 37.59375 41.9375 40.203125 
Q 40.375 42.828125 36.375 42.828125 
Q 31.34375 42.828125 28.609375 38.703125 
Q 25.875 34.578125 25.875 26.90625 
L 25.875 0 
L 8.296875 0 
L 8.296875 54.6875 
L 25.875 54.6875 
L 25.875 46.6875 
Q 29.109375 51.3125 33.28125 53.65625 
Q 37.453125 56 42.484375 56 
Q 48.140625 56 52.484375 53.265625 
Q 56.84375 50.53125 59.078125 45.609375 
" id="BitstreamVeraSans-Bold-6d"/>
     </defs>
     <g transform="translate(19.965375 315.6483875)rotate(-90.0)scale(0.168 -0.168)">
      <use xlink:href="#BitstreamVeraSans-Bold-4e"/>
      <use x="83.69140625" xlink:href="#BitstreamVeraSans-Bold-6f"/>
      <use x="152.392578125" xlink:href="#BitstreamVeraSans-Bold-6d"/>
      <use x="256.591796875" xlink:href="#BitstreamVeraSans-Bold-62"/>
      <use x="328.173828125" xlink:href="#BitstreamVeraSans-Bold-72"/>
      <use x="377.490234375" xlink:href="#BitstreamVeraSans-Bold-65"/>
      <use x="445.3125" xlink:href="#BitstreamVeraSans-Bold-20"/>
      <use x="480.126953125" xlink:href="#BitstreamVeraSans-Bold-64"/>
      <use x="551.708984375" xlink:href="#BitstreamVeraSans-Bold-27"/>
      <use x="582.32421875" xlink:href="#BitstreamVeraSans-Bold-6f"/>
      <use x="651.025390625" xlink:href="#BitstreamVeraSans-Bold-66"/>
      <use x="694.53125" xlink:href="#BitstreamVeraSans-Bold-66"/>
      <use x="738.037109375" xlink:href="#BitstreamVeraSans-Bold-72"/>
      <use x="787.353515625" xlink:href="#BitstreamVeraSans-Bold-65"/>
      <use x="855.17578125" xlink:href="#BitstreamVeraSans-Bold-73"/>
     </g>
    </g>
   </g>
   <g id="PolyCollection_1">
    <defs>
     <path d="M 42.63925 -40.20175 
L 42.63925 -40.20175 
L 52.866189 -40.20175 
L 63.093128 -40.20175 
L 73.320066 -40.20175 
L 83.547005 -40.20175 
L 93.773944 -40.20175 
L 104.000883 -40.20175 
L 114.227821 -40.20175 
L 124.45476 -40.20175 
L 134.681699 -40.20175 
L 144.908638 -40.20175 
L 155.135577 -40.20175 
L 165.362515 -40.20175 
L 175.589454 -40.20175 
L 185.816393 -40.20175 
L 196.043332 -40.20175 
L 206.27027 -40.20175 
L 216.497209 -40.20175 
L 226.724148 -40.20175 
L 236.951087 -40.20175 
L 247.178026 -40.20175 
L 257.404964 -40.20175 
L 267.631903 -40.20175 
L 277.858842 -40.20175 
L 288.085781 -40.20175 
L 298.312719 -40.20175 
L 308.539658 -40.20175 
L 318.766597 -40.20175 
L 328.993536 -40.20175 
L 339.220474 -40.20175 
L 349.447413 -40.20175 
L 359.674352 -40.20175 
L 369.901291 -40.20175 
L 380.12823 -40.20175 
L 390.355168 -40.20175 
L 400.582107 -40.20175 
L 410.809046 -40.20175 
L 421.035985 -40.20175 
L 431.262923 -40.20175 
L 441.489862 -40.20175 
L 451.716801 -40.20175 
L 461.94374 -40.20175 
L 472.170679 -40.20175 
L 482.397617 -40.20175 
L 492.624556 -40.20175 
L 502.851495 -40.20175 
L 513.078434 -40.20175 
L 523.305372 -40.20175 
L 533.532311 -40.20175 
L 543.75925 -40.20175 
L 543.75925 -40.20175 
L 543.75925 -40.20175 
L 533.532311 -50.446321 
L 523.305372 -40.20175 
L 513.078434 -40.20175 
L 502.851495 -40.20175 
L 492.624556 -40.20175 
L 482.397617 -40.20175 
L 472.170679 -40.20175 
L 461.94374 -40.20175 
L 451.716801 -40.20175 
L 441.489862 -40.20175 
L 431.262923 -40.20175 
L 421.035985 -40.20175 
L 410.809046 -40.20175 
L 400.582107 -50.446321 
L 390.355168 -40.20175 
L 380.12823 -40.20175 
L 369.901291 -40.20175 
L 359.674352 -40.20175 
L 349.447413 -40.20175 
L 339.220474 -40.20175 
L 328.993536 -40.20175 
L 318.766597 -40.20175 
L 308.539658 -40.20175 
L 298.312719 -40.20175 
L 288.085781 -40.20175 
L 277.858842 -40.20175 
L 267.631903 -40.20175 
L 257.404964 -40.20175 
L 247.178026 -40.20175 
L 236.951087 -40.20175 
L 226.724148 -40.20175 
L 216.497209 -40.20175 
L 206.27027 -40.20175 
L 196.043332 -40.20175 
L 185.816393 -40.20175 
L 175.589454 -40.20175 
L 165.362515 -40.20175 
L 155.135577 -40.20175 
L 144.908638 -40.20175 
L 134.681699 -40.20175 
L 124.45476 -40.20175 
L 114.227821 -40.20175 
L 104.000883 -40.20175 
L 93.773944 -40.20175 
L 83.547005 -40.20175 
L 73.320066 -40.20175 
L 63.093128 -40.20175 
L 52.866189 -40.20175 
L 42.63925 -40.20175 
z
" id="mda9267146e"/>
    </defs>
    <g clip-path="url(#pf85d8bc93e)">
     <use style="fill:#ffa500;" x="0.0" xlink:href="#mda9267146e" y="458.2977"/>
    </g>
   </g>
   <g id="PolyCollection_2">
    <defs>
     <path d="M 42.63925 -40.20175 
L 42.63925 -40.20175 
L 52.866189 -40.20175 
L 63.093128 -40.20175 
L 73.320066 -40.20175 
L 83.547005 -40.20175 
L 93.773944 -40.20175 
L 104.000883 -40.20175 
L 114.227821 -40.20175 
L 124.45476 -40.20175 
L 134.681699 -40.20175 
L 144.908638 -40.20175 
L 155.135577 -40.20175 
L 165.362515 -40.20175 
L 175.589454 -40.20175 
L 185.816393 -40.20175 
L 196.043332 -40.20175 
L 206.27027 -40.20175 
L 216.497209 -40.20175 
L 226.724148 -40.20175 
L 236.951087 -40.20175 
L 247.178026 -40.20175 
L 257.404964 -40.20175 
L 267.631903 -40.20175 
L 277.858842 -40.20175 
L 288.085781 -40.20175 
L 298.312719 -40.20175 
L 308.539658 -40.20175 
L 318.766597 -40.20175 
L 328.993536 -40.20175 
L 339.220474 -40.20175 
L 349.447413 -40.20175 
L 359.674352 -40.20175 
L 369.901291 -40.20175 
L 380.12823 -40.20175 
L 390.355168 -40.20175 
L 400.582107 -50.446321 
L 410.809046 -40.20175 
L 421.035985 -40.20175 
L 431.262923 -40.20175 
L 441.489862 -40.20175 
L 451.716801 -40.20175 
L 461.94374 -40.20175 
L 472.170679 -40.20175 
L 482.397617 -40.20175 
L 492.624556 -40.20175 
L 502.851495 -40.20175 
L 513.078434 -40.20175 
L 523.305372 -40.20175 
L 533.532311 -50.446321 
L 543.75925 -40.20175 
L 543.75925 -81.180036 
L 543.75925 -81.180036 
L 533.532311 -81.180036 
L 523.305372 -224.604036 
L 513.078434 -163.136607 
L 502.851495 -152.892036 
L 492.624556 -111.91375 
L 482.397617 -91.424607 
L 472.170679 -81.180036 
L 461.94374 -132.402893 
L 451.716801 -122.158321 
L 441.489862 -132.402893 
L 431.262923 -173.381179 
L 421.035985 -101.669179 
L 410.809046 -122.158321 
L 400.582107 -142.647464 
L 390.355168 -163.136607 
L 380.12823 -173.381179 
L 369.901291 -81.180036 
L 359.674352 -111.91375 
L 349.447413 -142.647464 
L 339.220474 -111.91375 
L 328.993536 -101.669179 
L 318.766597 -183.62575 
L 308.539658 -132.402893 
L 298.312719 -91.424607 
L 288.085781 -60.690893 
L 277.858842 -81.180036 
L 267.631903 -111.91375 
L 257.404964 -70.935464 
L 247.178026 -81.180036 
L 236.951087 -111.91375 
L 226.724148 -81.180036 
L 216.497209 -111.91375 
L 206.27027 -142.647464 
L 196.043332 -81.180036 
L 185.816393 -81.180036 
L 175.589454 -91.424607 
L 165.362515 -111.91375 
L 155.135577 -111.91375 
L 144.908638 -70.935464 
L 134.681699 -101.669179 
L 124.45476 -60.690893 
L 114.227821 -40.20175 
L 104.000883 -91.424607 
L 93.773944 -91.424607 
L 83.547005 -40.20175 
L 73.320066 -70.935464 
L 63.093128 -60.690893 
L 52.866189 -40.20175 
L 42.63925 -40.20175 
z
" id="m1a97a5d037"/>
    </defs>
    <g clip-path="url(#pf85d8bc93e)">
     <use style="fill:#deb887;" x="0.0" xlink:href="#m1a97a5d037" y="458.2977"/>
    </g>
   </g>
   <g id="PolyCollection_3">
    <defs>
     <path d="M 42.63925 -40.20175 
L 42.63925 -40.20175 
L 52.866189 -40.20175 
L 63.093128 -60.690893 
L 73.320066 -70.935464 
L 83.547005 -40.20175 
L 93.773944 -91.424607 
L 104.000883 -91.424607 
L 114.227821 -40.20175 
L 124.45476 -60.690893 
L 134.681699 -101.669179 
L 144.908638 -70.935464 
L 155.135577 -111.91375 
L 165.362515 -111.91375 
L 175.589454 -91.424607 
L 185.816393 -81.180036 
L 196.043332 -81.180036 
L 206.27027 -142.647464 
L 216.497209 -111.91375 
L 226.724148 -81.180036 
L 236.951087 -111.91375 
L 247.178026 -81.180036 
L 257.404964 -70.935464 
L 267.631903 -111.91375 
L 277.858842 -81.180036 
L 288.085781 -60.690893 
L 298.312719 -91.424607 
L 308.539658 -132.402893 
L 318.766597 -183.62575 
L 328.993536 -101.669179 
L 339.220474 -111.91375 
L 349.447413 -142.647464 
L 359.674352 -111.91375 
L 369.901291 -81.180036 
L 380.12823 -173.381179 
L 390.355168 -163.136607 
L 400.582107 -142.647464 
L 410.809046 -122.158321 
L 421.035985 -101.669179 
L 431.262923 -173.381179 
L 441.489862 -132.402893 
L 451.716801 -122.158321 
L 461.94374 -132.402893 
L 472.170679 -81.180036 
L 482.397617 -91.424607 
L 492.624556 -111.91375 
L 502.851495 -152.892036 
L 513.078434 -163.136607 
L 523.305372 -224.604036 
L 533.532311 -81.180036 
L 543.75925 -81.180036 
L 543.75925 -111.91375 
L 543.75925 -111.91375 
L 533.532311 -111.91375 
L 523.305372 -245.093179 
L 513.078434 -193.870321 
L 502.851495 -204.114893 
L 492.624556 -152.892036 
L 482.397617 -111.91375 
L 472.170679 -81.180036 
L 461.94374 -132.402893 
L 451.716801 -122.158321 
L 441.489862 -152.892036 
L 431.262923 -183.62575 
L 421.035985 -101.669179 
L 410.809046 -142.647464 
L 400.582107 -163.136607 
L 390.355168 -214.359464 
L 380.12823 -183.62575 
L 369.901291 -81.180036 
L 359.674352 -111.91375 
L 349.447413 -152.892036 
L 339.220474 -122.158321 
L 328.993536 -111.91375 
L 318.766597 -234.848607 
L 308.539658 -132.402893 
L 298.312719 -111.91375 
L 288.085781 -70.935464 
L 277.858842 -81.180036 
L 267.631903 -152.892036 
L 257.404964 -70.935464 
L 247.178026 -91.424607 
L 236.951087 -142.647464 
L 226.724148 -101.669179 
L 216.497209 -122.158321 
L 206.27027 -152.892036 
L 196.043332 -91.424607 
L 185.816393 -101.669179 
L 175.589454 -101.669179 
L 165.362515 -122.158321 
L 155.135577 -132.402893 
L 144.908638 -70.935464 
L 134.681699 -111.91375 
L 124.45476 -81.180036 
L 114.227821 -50.446321 
L 104.000883 -101.669179 
L 93.773944 -101.669179 
L 83.547005 -40.20175 
L 73.320066 -70.935464 
L 63.093128 -60.690893 
L 52.866189 -40.20175 
L 42.63925 -40.20175 
z
" id="m6a87290248"/>
    </defs>
    <g clip-path="url(#pf85d8bc93e)">
     <use style="fill:#a52a2a;" x="0.0" xlink:href="#m6a87290248" y="458.2977"/>
    </g>
   </g>
   <g id="PolyCollection_4">
    <defs>
     <path d="M 42.63925 -50.446321 
L 42.63925 -40.20175 
L 52.866189 -40.20175 
L 63.093128 -60.690893 
L 73.320066 -70.935464 
L 83.547005 -40.20175 
L 93.773944 -101.669179 
L 104.000883 -101.669179 
L 114.227821 -50.446321 
L 124.45476 -81.180036 
L 134.681699 -111.91375 
L 144.908638 -70.935464 
L 155.135577 -132.402893 
L 165.362515 -122.158321 
L 175.589454 -101.669179 
L 185.816393 -101.669179 
L 196.043332 -91.424607 
L 206.27027 -152.892036 
L 216.497209 -122.158321 
L 226.724148 -101.669179 
L 236.951087 -142.647464 
L 247.178026 -91.424607 
L 257.404964 -70.935464 
L 267.631903 -152.892036 
L 277.858842 -81.180036 
L 288.085781 -70.935464 
L 298.312719 -111.91375 
L 308.539658 -132.402893 
L 318.766597 -234.848607 
L 328.993536 -111.91375 
L 339.220474 -122.158321 
L 349.447413 -152.892036 
L 359.674352 -111.91375 
L 369.901291 -81.180036 
L 380.12823 -183.62575 
L 390.355168 -214.359464 
L 400.582107 -163.136607 
L 410.809046 -142.647464 
L 421.035985 -101.669179 
L 431.262923 -183.62575 
L 441.489862 -152.892036 
L 451.716801 -122.158321 
L 461.94374 -132.402893 
L 472.170679 -81.180036 
L 482.397617 -111.91375 
L 492.624556 -152.892036 
L 502.851495 -204.114893 
L 513.078434 -193.870321 
L 523.305372 -245.093179 
L 533.532311 -111.91375 
L 543.75925 -111.91375 
L 543.75925 -193.870321 
L 543.75925 -193.870321 
L 533.532311 -204.114893 
L 523.305372 -378.272607 
L 513.078434 -398.76175 
L 502.851495 -347.538893 
L 492.624556 -255.33775 
L 482.397617 -255.33775 
L 472.170679 -275.826893 
L 461.94374 -296.316036 
L 451.716801 -224.604036 
L 441.489862 -224.604036 
L 431.262923 -286.071464 
L 421.035985 -204.114893 
L 410.809046 -255.33775 
L 400.582107 -316.805179 
L 390.355168 -306.560607 
L 380.12823 -265.582321 
L 369.901291 -214.359464 
L 359.674352 -234.848607 
L 349.447413 -245.093179 
L 339.220474 -275.826893 
L 328.993536 -163.136607 
L 318.766597 -378.272607 
L 308.539658 -245.093179 
L 298.312719 -183.62575 
L 288.085781 -193.870321 
L 277.858842 -101.669179 
L 267.631903 -265.582321 
L 257.404964 -245.093179 
L 247.178026 -163.136607 
L 236.951087 -193.870321 
L 226.724148 -101.669179 
L 216.497209 -204.114893 
L 206.27027 -193.870321 
L 196.043332 -152.892036 
L 185.816393 -152.892036 
L 175.589454 -122.158321 
L 165.362515 -132.402893 
L 155.135577 -152.892036 
L 144.908638 -101.669179 
L 134.681699 -152.892036 
L 124.45476 -122.158321 
L 114.227821 -70.935464 
L 104.000883 -111.91375 
L 93.773944 -122.158321 
L 83.547005 -60.690893 
L 73.320066 -111.91375 
L 63.093128 -101.669179 
L 52.866189 -40.20175 
L 42.63925 -50.446321 
z
" id="me571bf5892"/>
    </defs>
    <g clip-path="url(#pf85d8bc93e)">
     <use style="fill:#6495ed;" x="0.0" xlink:href="#me571bf5892" y="458.2977"/>
    </g>
   </g>
   <g id="line2d_71">
    <path clip-path="url(#pf85d8bc93e)" d="M 42.63925 418.09595 
L 52.866189 418.09595 
L 63.093128 418.09595 
L 73.320066 418.09595 
L 83.547005 418.09595 
L 93.773944 418.09595 
L 104.000883 418.09595 
L 114.227821 418.09595 
L 124.45476 418.09595 
L 134.681699 418.09595 
L 144.908638 418.09595 
L 155.135577 418.09595 
L 165.362515 418.09595 
L 175.589454 418.09595 
L 185.816393 418.09595 
L 196.043332 418.09595 
L 206.27027 418.09595 
L 216.497209 418.09595 
L 226.724148 418.09595 
L 236.951087 418.09595 
L 247.178026 418.09595 
L 257.404964 418.09595 
L 267.631903 418.09595 
L 277.858842 418.09595 
L 288.085781 418.09595 
L 298.312719 418.09595 
L 308.539658 418.09595 
L 318.766597 418.09595 
L 328.993536 418.09595 
L 339.220474 418.09595 
L 349.447413 418.09595 
L 359.674352 418.09595 
L 369.901291 418.09595 
L 380.12823 418.09595 
L 390.355168 418.09595 
L 400.582107 407.851379 
L 410.809046 418.09595 
L 421.035985 418.09595 
L 431.262923 418.09595 
L 441.489862 418.09595 
L 451.716801 418.09595 
L 461.94374 418.09595 
L 472.170679 418.09595 
L 482.397617 418.09595 
L 492.624556 418.09595 
L 502.851495 418.09595 
L 513.078434 418.09595 
L 523.305372 418.09595 
L 533.532311 407.851379 
L 543.75925 418.09595 
" style="fill:none;"/>
   </g>
   <g id="line2d_72">
    <path clip-path="url(#pf85d8bc93e)" d="M 42.63925 418.09595 
L 52.866189 418.09595 
L 63.093128 397.606807 
L 73.320066 387.362236 
L 83.547005 418.09595 
L 93.773944 366.873093 
L 104.000883 366.873093 
L 114.227821 418.09595 
L 124.45476 397.606807 
L 134.681699 356.628521 
L 144.908638 387.362236 
L 155.135577 346.38395 
L 165.362515 346.38395 
L 175.589454 366.873093 
L 185.816393 377.117664 
L 196.043332 377.117664 
L 206.27027 315.650236 
L 216.497209 346.38395 
L 226.724148 377.117664 
L 236.951087 346.38395 
L 247.178026 377.117664 
L 257.404964 387.362236 
L 267.631903 346.38395 
L 277.858842 377.117664 
L 288.085781 397.606807 
L 298.312719 366.873093 
L 308.539658 325.894807 
L 318.766597 274.67195 
L 328.993536 356.628521 
L 339.220474 346.38395 
L 349.447413 315.650236 
L 359.674352 346.38395 
L 369.901291 377.117664 
L 380.12823 284.916521 
L 390.355168 295.161093 
L 400.582107 315.650236 
L 410.809046 336.139379 
L 421.035985 356.628521 
L 431.262923 284.916521 
L 441.489862 325.894807 
L 451.716801 336.139379 
L 461.94374 325.894807 
L 472.170679 377.117664 
L 482.397617 366.873093 
L 492.624556 346.38395 
L 502.851495 305.405664 
L 513.078434 295.161093 
L 523.305372 233.693664 
L 533.532311 377.117664 
L 543.75925 377.117664 
" style="fill:none;"/>
   </g>
   <g id="line2d_73">
    <path clip-path="url(#pf85d8bc93e)" d="M 42.63925 418.09595 
L 52.866189 418.09595 
L 63.093128 397.606807 
L 73.320066 387.362236 
L 83.547005 418.09595 
L 93.773944 356.628521 
L 104.000883 356.628521 
L 114.227821 407.851379 
L 124.45476 377.117664 
L 134.681699 346.38395 
L 144.908638 387.362236 
L 155.135577 325.894807 
L 165.362515 336.139379 
L 175.589454 356.628521 
L 185.816393 356.628521 
L 196.043332 366.873093 
L 206.27027 305.405664 
L 216.497209 336.139379 
L 226.724148 356.628521 
L 236.951087 315.650236 
L 247.178026 366.873093 
L 257.404964 387.362236 
L 267.631903 305.405664 
L 277.858842 377.117664 
L 288.085781 387.362236 
L 298.312719 346.38395 
L 308.539658 325.894807 
L 318.766597 223.449093 
L 328.993536 346.38395 
L 339.220474 336.139379 
L 349.447413 305.405664 
L 359.674352 346.38395 
L 369.901291 377.117664 
L 380.12823 274.67195 
L 390.355168 243.938236 
L 400.582107 295.161093 
L 410.809046 315.650236 
L 421.035985 356.628521 
L 431.262923 274.67195 
L 441.489862 305.405664 
L 451.716801 336.139379 
L 461.94374 325.894807 
L 472.170679 377.117664 
L 482.397617 346.38395 
L 492.624556 305.405664 
L 502.851495 254.182807 
L 513.078434 264.427379 
L 523.305372 213.204521 
L 533.532311 346.38395 
L 543.75925 346.38395 
" style="fill:none;"/>
   </g>
   <g id="line2d_74">
    <path clip-path="url(#pf85d8bc93e)" d="M 42.63925 407.851379 
L 52.866189 418.09595 
L 63.093128 356.628521 
L 73.320066 346.38395 
L 83.547005 397.606807 
L 93.773944 336.139379 
L 104.000883 346.38395 
L 114.227821 387.362236 
L 124.45476 336.139379 
L 134.681699 305.405664 
L 144.908638 356.628521 
L 155.135577 305.405664 
L 165.362515 325.894807 
L 175.589454 336.139379 
L 185.816393 305.405664 
L 196.043332 305.405664 
L 206.27027 264.427379 
L 216.497209 254.182807 
L 226.724148 356.628521 
L 236.951087 264.427379 
L 247.178026 295.161093 
L 257.404964 213.204521 
L 267.631903 192.715379 
L 277.858842 356.628521 
L 288.085781 264.427379 
L 298.312719 274.67195 
L 308.539658 213.204521 
L 318.766597 80.025093 
L 328.993536 295.161093 
L 339.220474 182.470807 
L 349.447413 213.204521 
L 359.674352 223.449093 
L 369.901291 243.938236 
L 380.12823 192.715379 
L 390.355168 151.737093 
L 400.582107 141.492521 
L 410.809046 202.95995 
L 421.035985 254.182807 
L 431.262923 172.226236 
L 441.489862 233.693664 
L 451.716801 233.693664 
L 461.94374 161.981664 
L 472.170679 182.470807 
L 482.397617 202.95995 
L 492.624556 202.95995 
L 502.851495 110.758807 
L 513.078434 59.53595 
L 523.305372 80.025093 
L 533.532311 254.182807 
L 543.75925 264.427379 
" style="fill:none;"/>
   </g>
   <g id="patch_3">
    <path d="M 42.63925 59.53595 
L 543.75925 59.53595 
" style="fill:none;stroke:#f0f0f0;stroke-linecap:square;stroke-linejoin:miter;stroke-width:3.0;"/>
   </g>
   <g id="patch_4">
    <path d="M 543.75925 418.09595 
L 543.75925 59.53595 
" style="fill:none;stroke:#f0f0f0;stroke-linecap:square;stroke-linejoin:miter;stroke-width:3.0;"/>
   </g>
   <g id="patch_5">
    <path d="M 42.63925 418.09595 
L 543.75925 418.09595 
" style="fill:none;stroke:#f0f0f0;stroke-linecap:square;stroke-linejoin:miter;stroke-width:3.0;"/>
   </g>
   <g id="patch_6">
    <path d="M 42.63925 418.09595 
L 42.63925 59.53595 
" style="fill:none;stroke:#f0f0f0;stroke-linecap:square;stroke-linejoin:miter;stroke-width:3.0;"/>
   </g>
   <g id="text_15">
    <!-- Évolution des types de CDD -->
    <defs>
     <path id="BitstreamVeraSans-Roman-20"/>
     <path d="M 9.8125 72.90625 
L 55.90625 72.90625 
L 55.90625 64.59375 
L 19.671875 64.59375 
L 19.671875 43.015625 
L 54.390625 43.015625 
L 54.390625 34.71875 
L 19.671875 34.71875 
L 19.671875 8.296875 
L 56.78125 8.296875 
L 56.78125 0 
L 9.8125 0 
z
M 35.4375 92.515625 
L 44.46875 92.515625 
L 33.34375 79.625 
L 25.859375 79.625 
z
" id="BitstreamVeraSans-Roman-c9"/>
     <path d="M 64.40625 67.28125 
L 64.40625 56.890625 
Q 59.421875 61.53125 53.78125 63.8125 
Q 48.140625 66.109375 41.796875 66.109375 
Q 29.296875 66.109375 22.65625 58.46875 
Q 16.015625 50.828125 16.015625 36.375 
Q 16.015625 21.96875 22.65625 14.328125 
Q 29.296875 6.6875 41.796875 6.6875 
Q 48.140625 6.6875 53.78125 8.984375 
Q 59.421875 11.28125 64.40625 15.921875 
L 64.40625 5.609375 
Q 59.234375 2.09375 53.4375 0.328125 
Q 47.65625 -1.421875 41.21875 -1.421875 
Q 24.65625 -1.421875 15.125 8.703125 
Q 5.609375 18.84375 5.609375 36.375 
Q 5.609375 53.953125 15.125 64.078125 
Q 24.65625 74.21875 41.21875 74.21875 
Q 47.75 74.21875 53.53125 72.484375 
Q 59.328125 70.75 64.40625 67.28125 
" id="BitstreamVeraSans-Roman-43"/>
     <path d="M 54.890625 33.015625 
L 54.890625 0 
L 45.90625 0 
L 45.90625 32.71875 
Q 45.90625 40.484375 42.875 44.328125 
Q 39.84375 48.1875 33.796875 48.1875 
Q 26.515625 48.1875 22.3125 43.546875 
Q 18.109375 38.921875 18.109375 30.90625 
L 18.109375 0 
L 9.078125 0 
L 9.078125 54.6875 
L 18.109375 54.6875 
L 18.109375 46.1875 
Q 21.34375 51.125 25.703125 53.5625 
Q 30.078125 56 35.796875 56 
Q 45.21875 56 50.046875 50.171875 
Q 54.890625 44.34375 54.890625 33.015625 
" id="BitstreamVeraSans-Roman-6e"/>
     <path d="M 30.609375 48.390625 
Q 23.390625 48.390625 19.1875 42.75 
Q 14.984375 37.109375 14.984375 27.296875 
Q 14.984375 17.484375 19.15625 11.84375 
Q 23.34375 6.203125 30.609375 6.203125 
Q 37.796875 6.203125 41.984375 11.859375 
Q 46.1875 17.53125 46.1875 27.296875 
Q 46.1875 37.015625 41.984375 42.703125 
Q 37.796875 48.390625 30.609375 48.390625 
M 30.609375 56 
Q 42.328125 56 49.015625 48.375 
Q 55.71875 40.765625 55.71875 27.296875 
Q 55.71875 13.875 49.015625 6.21875 
Q 42.328125 -1.421875 30.609375 -1.421875 
Q 18.84375 -1.421875 12.171875 6.21875 
Q 5.515625 13.875 5.515625 27.296875 
Q 5.515625 40.765625 12.171875 48.375 
Q 18.84375 56 30.609375 56 
" id="BitstreamVeraSans-Roman-6f"/>
     <path d="M 9.421875 75.984375 
L 18.40625 75.984375 
L 18.40625 0 
L 9.421875 0 
z
" id="BitstreamVeraSans-Roman-6c"/>
     <path d="M 56.203125 29.59375 
L 56.203125 25.203125 
L 14.890625 25.203125 
Q 15.484375 15.921875 20.484375 11.0625 
Q 25.484375 6.203125 34.421875 6.203125 
Q 39.59375 6.203125 44.453125 7.46875 
Q 49.3125 8.734375 54.109375 11.28125 
L 54.109375 2.78125 
Q 49.265625 0.734375 44.1875 -0.34375 
Q 39.109375 -1.421875 33.890625 -1.421875 
Q 20.796875 -1.421875 13.15625 6.1875 
Q 5.515625 13.8125 5.515625 26.8125 
Q 5.515625 40.234375 12.765625 48.109375 
Q 20.015625 56 32.328125 56 
Q 43.359375 56 49.78125 48.890625 
Q 56.203125 41.796875 56.203125 29.59375 
M 47.21875 32.234375 
Q 47.125 39.59375 43.09375 43.984375 
Q 39.0625 48.390625 32.421875 48.390625 
Q 24.90625 48.390625 20.390625 44.140625 
Q 15.875 39.890625 15.1875 32.171875 
z
" id="BitstreamVeraSans-Roman-65"/>
     <path d="M 19.671875 64.796875 
L 19.671875 8.109375 
L 31.59375 8.109375 
Q 46.6875 8.109375 53.6875 14.9375 
Q 60.6875 21.78125 60.6875 36.53125 
Q 60.6875 51.171875 53.6875 57.984375 
Q 46.6875 64.796875 31.59375 64.796875 
z
M 9.8125 72.90625 
L 30.078125 72.90625 
Q 51.265625 72.90625 61.171875 64.09375 
Q 71.09375 55.28125 71.09375 36.53125 
Q 71.09375 17.671875 61.125 8.828125 
Q 51.171875 0 30.078125 0 
L 9.8125 0 
z
" id="BitstreamVeraSans-Roman-44"/>
     <path d="M 9.421875 54.6875 
L 18.40625 54.6875 
L 18.40625 0 
L 9.421875 0 
z
M 9.421875 75.984375 
L 18.40625 75.984375 
L 18.40625 64.59375 
L 9.421875 64.59375 
z
" id="BitstreamVeraSans-Roman-69"/>
     <path d="M 32.171875 -5.078125 
Q 28.375 -14.84375 24.75 -17.8125 
Q 21.140625 -20.796875 15.09375 -20.796875 
L 7.90625 -20.796875 
L 7.90625 -13.28125 
L 13.1875 -13.28125 
Q 16.890625 -13.28125 18.9375 -11.515625 
Q 21 -9.765625 23.484375 -3.21875 
L 25.09375 0.875 
L 2.984375 54.6875 
L 12.5 54.6875 
L 29.59375 11.921875 
L 46.6875 54.6875 
L 56.203125 54.6875 
z
" id="BitstreamVeraSans-Roman-79"/>
     <path d="M 2.984375 54.6875 
L 12.5 54.6875 
L 29.59375 8.796875 
L 46.6875 54.6875 
L 56.203125 54.6875 
L 35.6875 0 
L 23.484375 0 
z
" id="BitstreamVeraSans-Roman-76"/>
     <path d="M 45.40625 46.390625 
L 45.40625 75.984375 
L 54.390625 75.984375 
L 54.390625 0 
L 45.40625 0 
L 45.40625 8.203125 
Q 42.578125 3.328125 38.25 0.953125 
Q 33.9375 -1.421875 27.875 -1.421875 
Q 17.96875 -1.421875 11.734375 6.484375 
Q 5.515625 14.40625 5.515625 27.296875 
Q 5.515625 40.1875 11.734375 48.09375 
Q 17.96875 56 27.875 56 
Q 33.9375 56 38.25 53.625 
Q 42.578125 51.265625 45.40625 46.390625 
M 14.796875 27.296875 
Q 14.796875 17.390625 18.875 11.75 
Q 22.953125 6.109375 30.078125 6.109375 
Q 37.203125 6.109375 41.296875 11.75 
Q 45.40625 17.390625 45.40625 27.296875 
Q 45.40625 37.203125 41.296875 42.84375 
Q 37.203125 48.484375 30.078125 48.484375 
Q 22.953125 48.484375 18.875 42.84375 
Q 14.796875 37.203125 14.796875 27.296875 
" id="BitstreamVeraSans-Roman-64"/>
     <path d="M 18.3125 70.21875 
L 18.3125 54.6875 
L 36.8125 54.6875 
L 36.8125 47.703125 
L 18.3125 47.703125 
L 18.3125 18.015625 
Q 18.3125 11.328125 20.140625 9.421875 
Q 21.96875 7.515625 27.59375 7.515625 
L 36.8125 7.515625 
L 36.8125 0 
L 27.59375 0 
Q 17.1875 0 13.234375 3.875 
Q 9.28125 7.765625 9.28125 18.015625 
L 9.28125 47.703125 
L 2.6875 47.703125 
L 2.6875 54.6875 
L 9.28125 54.6875 
L 9.28125 70.21875 
z
" id="BitstreamVeraSans-Roman-74"/>
     <path d="M 8.5 21.578125 
L 8.5 54.6875 
L 17.484375 54.6875 
L 17.484375 21.921875 
Q 17.484375 14.15625 20.5 10.265625 
Q 23.53125 6.390625 29.59375 6.390625 
Q 36.859375 6.390625 41.078125 11.03125 
Q 45.3125 15.671875 45.3125 23.6875 
L 45.3125 54.6875 
L 54.296875 54.6875 
L 54.296875 0 
L 45.3125 0 
L 45.3125 8.40625 
Q 42.046875 3.421875 37.71875 1 
Q 33.40625 -1.421875 27.6875 -1.421875 
Q 18.265625 -1.421875 13.375 4.4375 
Q 8.5 10.296875 8.5 21.578125 
" id="BitstreamVeraSans-Roman-75"/>
     <path d="M 44.28125 53.078125 
L 44.28125 44.578125 
Q 40.484375 46.53125 36.375 47.5 
Q 32.28125 48.484375 27.875 48.484375 
Q 21.1875 48.484375 17.84375 46.4375 
Q 14.5 44.390625 14.5 40.28125 
Q 14.5 37.15625 16.890625 35.375 
Q 19.28125 33.59375 26.515625 31.984375 
L 29.59375 31.296875 
Q 39.15625 29.25 43.1875 25.515625 
Q 47.21875 21.78125 47.21875 15.09375 
Q 47.21875 7.46875 41.1875 3.015625 
Q 35.15625 -1.421875 24.609375 -1.421875 
Q 20.21875 -1.421875 15.453125 -0.5625 
Q 10.6875 0.296875 5.421875 2 
L 5.421875 11.28125 
Q 10.40625 8.6875 15.234375 7.390625 
Q 20.0625 6.109375 24.8125 6.109375 
Q 31.15625 6.109375 34.5625 8.28125 
Q 37.984375 10.453125 37.984375 14.40625 
Q 37.984375 18.0625 35.515625 20.015625 
Q 33.0625 21.96875 24.703125 23.78125 
L 21.578125 24.515625 
Q 13.234375 26.265625 9.515625 29.90625 
Q 5.8125 33.546875 5.8125 39.890625 
Q 5.8125 47.609375 11.28125 51.796875 
Q 16.75 56 26.8125 56 
Q 31.78125 56 36.171875 55.265625 
Q 40.578125 54.546875 44.28125 53.078125 
" id="BitstreamVeraSans-Roman-73"/>
     <path d="M 18.109375 8.203125 
L 18.109375 -20.796875 
L 9.078125 -20.796875 
L 9.078125 54.6875 
L 18.109375 54.6875 
L 18.109375 46.390625 
Q 20.953125 51.265625 25.265625 53.625 
Q 29.59375 56 35.59375 56 
Q 45.5625 56 51.78125 48.09375 
Q 58.015625 40.1875 58.015625 27.296875 
Q 58.015625 14.40625 51.78125 6.484375 
Q 45.5625 -1.421875 35.59375 -1.421875 
Q 29.59375 -1.421875 25.265625 0.953125 
Q 20.953125 3.328125 18.109375 8.203125 
M 48.6875 27.296875 
Q 48.6875 37.203125 44.609375 42.84375 
Q 40.53125 48.484375 33.40625 48.484375 
Q 26.265625 48.484375 22.1875 42.84375 
Q 18.109375 37.203125 18.109375 27.296875 
Q 18.109375 17.390625 22.1875 11.75 
Q 26.265625 6.109375 33.40625 6.109375 
Q 40.53125 6.109375 44.609375 11.75 
Q 48.6875 17.390625 48.6875 27.296875 
" id="BitstreamVeraSans-Roman-70"/>
    </defs>
    <g transform="translate(152.599 25.85115)scale(0.2016 -0.2016)">
     <use xlink:href="#BitstreamVeraSans-Roman-c9"/>
     <use x="63.18359375" xlink:href="#BitstreamVeraSans-Roman-76"/>
     <use x="122.36328125" xlink:href="#BitstreamVeraSans-Roman-6f"/>
     <use x="183.544921875" xlink:href="#BitstreamVeraSans-Roman-6c"/>
     <use x="211.328125" xlink:href="#BitstreamVeraSans-Roman-75"/>
     <use x="274.70703125" xlink:href="#BitstreamVeraSans-Roman-74"/>
     <use x="313.916015625" xlink:href="#BitstreamVeraSans-Roman-69"/>
     <use x="341.69921875" xlink:href="#BitstreamVeraSans-Roman-6f"/>
     <use x="402.880859375" xlink:href="#BitstreamVeraSans-Roman-6e"/>
     <use x="466.259765625" xlink:href="#BitstreamVeraSans-Roman-20"/>
     <use x="498.046875" xlink:href="#BitstreamVeraSans-Roman-64"/>
     <use x="561.5234375" xlink:href="#BitstreamVeraSans-Roman-65"/>
     <use x="623.046875" xlink:href="#BitstreamVeraSans-Roman-73"/>
     <use x="675.146484375" xlink:href="#BitstreamVeraSans-Roman-20"/>
     <use x="706.93359375" xlink:href="#BitstreamVeraSans-Roman-74"/>
     <use x="746.142578125" xlink:href="#BitstreamVeraSans-Roman-79"/>
     <use x="805.322265625" xlink:href="#BitstreamVeraSans-Roman-70"/>
     <use x="868.798828125" xlink:href="#BitstreamVeraSans-Roman-65"/>
     <use x="930.322265625" xlink:href="#BitstreamVeraSans-Roman-73"/>
     <use x="982.421875" xlink:href="#BitstreamVeraSans-Roman-20"/>
     <use x="1014.20898438" xlink:href="#BitstreamVeraSans-Roman-64"/>
     <use x="1077.68554688" xlink:href="#BitstreamVeraSans-Roman-65"/>
     <use x="1139.20898438" xlink:href="#BitstreamVeraSans-Roman-20"/>
     <use x="1170.99609375" xlink:href="#BitstreamVeraSans-Roman-43"/>
     <use x="1240.8203125" xlink:href="#BitstreamVeraSans-Roman-44"/>
     <use x="1317.82226562" xlink:href="#BitstreamVeraSans-Roman-44"/>
    </g>
   </g>
   <g id="legend_1">
    <g id="patch_7">
     <path d="M 54.39925 194.234325 
L 230.912125 194.234325 
Q 234.272125 194.234325 234.272125 190.874325 
L 234.272125 71.29595 
Q 234.272125 67.93595 230.912125 67.93595 
L 54.39925 67.93595 
Q 51.03925 67.93595 51.03925 71.29595 
L 51.03925 190.874325 
Q 51.03925 194.234325 54.39925 194.234325 
z
" style="fill:#f0f0f0;"/>
    </g>
    <g id="text_16">
     <!-- Type -->
     <defs>
      <path d="M -0.296875 72.90625 
L 61.375 72.90625 
L 61.375 64.59375 
L 35.5 64.59375 
L 35.5 0 
L 25.59375 0 
L 25.59375 64.59375 
L -0.296875 64.59375 
z
" id="BitstreamVeraSans-Roman-54"/>
     </defs>
     <g transform="translate(125.50240625 85.2937625)scale(0.14 -0.14)">
      <use xlink:href="#BitstreamVeraSans-Roman-54"/>
      <use x="60.849609375" xlink:href="#BitstreamVeraSans-Roman-79"/>
      <use x="120.029296875" xlink:href="#BitstreamVeraSans-Roman-70"/>
      <use x="183.505859375" xlink:href="#BitstreamVeraSans-Roman-65"/>
     </g>
    </g>
    <g id="patch_8">
     <path d="M 57.75925 109.3707 
L 91.35925 109.3707 
L 91.35925 97.6107 
L 57.75925 97.6107 
z
" style="fill:#ffa500;"/>
    </g>
    <g id="text_17">
     <!-- ATER -->
     <defs>
      <path d="M 9.8125 72.90625 
L 55.90625 72.90625 
L 55.90625 64.59375 
L 19.671875 64.59375 
L 19.671875 43.015625 
L 54.390625 43.015625 
L 54.390625 34.71875 
L 19.671875 34.71875 
L 19.671875 8.296875 
L 56.78125 8.296875 
L 56.78125 0 
L 9.8125 0 
z
" id="BitstreamVeraSans-Roman-45"/>
      <path d="M 44.390625 34.1875 
Q 47.5625 33.109375 50.5625 29.59375 
Q 53.5625 26.078125 56.59375 19.921875 
L 66.609375 0 
L 56 0 
L 46.6875 18.703125 
Q 43.0625 26.03125 39.671875 28.421875 
Q 36.28125 30.8125 30.421875 30.8125 
L 19.671875 30.8125 
L 19.671875 0 
L 9.8125 0 
L 9.8125 72.90625 
L 32.078125 72.90625 
Q 44.578125 72.90625 50.734375 67.671875 
Q 56.890625 62.453125 56.890625 51.90625 
Q 56.890625 45.015625 53.6875 40.46875 
Q 50.484375 35.9375 44.390625 34.1875 
M 19.671875 64.796875 
L 19.671875 38.921875 
L 32.078125 38.921875 
Q 39.203125 38.921875 42.84375 42.21875 
Q 46.484375 45.515625 46.484375 51.90625 
Q 46.484375 58.296875 42.84375 61.546875 
Q 39.203125 64.796875 32.078125 64.796875 
z
" id="BitstreamVeraSans-Roman-52"/>
      <path d="M 34.1875 63.1875 
L 20.796875 26.90625 
L 47.609375 26.90625 
z
M 28.609375 72.90625 
L 39.796875 72.90625 
L 67.578125 0 
L 57.328125 0 
L 50.6875 18.703125 
L 17.828125 18.703125 
L 11.1875 0 
L 0.78125 0 
z
" id="BitstreamVeraSans-Roman-41"/>
     </defs>
     <g transform="translate(104.79925 109.3707)scale(0.168 -0.168)">
      <use xlink:href="#BitstreamVeraSans-Roman-41"/>
      <use x="68.298828125" xlink:href="#BitstreamVeraSans-Roman-54"/>
      <use x="129.3828125" xlink:href="#BitstreamVeraSans-Roman-45"/>
      <use x="192.56640625" xlink:href="#BitstreamVeraSans-Roman-52"/>
     </g>
    </g>
    <g id="patch_9">
     <path d="M 57.75925 134.70195 
L 91.35925 134.70195 
L 91.35925 122.94195 
L 57.75925 122.94195 
z
" style="fill:#deb887;"/>
    </g>
    <g id="text_18">
     <!-- CDD Ingénieur -->
     <defs>
      <path d="M 56.203125 29.59375 
L 56.203125 25.203125 
L 14.890625 25.203125 
Q 15.484375 15.921875 20.484375 11.0625 
Q 25.484375 6.203125 34.421875 6.203125 
Q 39.59375 6.203125 44.453125 7.46875 
Q 49.3125 8.734375 54.109375 11.28125 
L 54.109375 2.78125 
Q 49.265625 0.734375 44.1875 -0.34375 
Q 39.109375 -1.421875 33.890625 -1.421875 
Q 20.796875 -1.421875 13.15625 6.1875 
Q 5.515625 13.8125 5.515625 26.8125 
Q 5.515625 40.234375 12.765625 48.109375 
Q 20.015625 56 32.328125 56 
Q 43.359375 56 49.78125 48.890625 
Q 56.203125 41.796875 56.203125 29.59375 
M 47.21875 32.234375 
Q 47.125 39.59375 43.09375 43.984375 
Q 39.0625 48.390625 32.421875 48.390625 
Q 24.90625 48.390625 20.390625 44.140625 
Q 15.875 39.890625 15.1875 32.171875 
z
M 38.53125 79.984375 
L 48.25 79.984375 
L 32.34375 61.625 
L 24.859375 61.625 
z
" id="BitstreamVeraSans-Roman-e9"/>
      <path d="M 45.40625 27.984375 
Q 45.40625 37.75 41.375 43.109375 
Q 37.359375 48.484375 30.078125 48.484375 
Q 22.859375 48.484375 18.828125 43.109375 
Q 14.796875 37.75 14.796875 27.984375 
Q 14.796875 18.265625 18.828125 12.890625 
Q 22.859375 7.515625 30.078125 7.515625 
Q 37.359375 7.515625 41.375 12.890625 
Q 45.40625 18.265625 45.40625 27.984375 
M 54.390625 6.78125 
Q 54.390625 -7.171875 48.1875 -13.984375 
Q 42 -20.796875 29.203125 -20.796875 
Q 24.46875 -20.796875 20.265625 -20.09375 
Q 16.0625 -19.390625 12.109375 -17.921875 
L 12.109375 -9.1875 
Q 16.0625 -11.328125 19.921875 -12.34375 
Q 23.78125 -13.375 27.78125 -13.375 
Q 36.625 -13.375 41.015625 -8.765625 
Q 45.40625 -4.15625 45.40625 5.171875 
L 45.40625 9.625 
Q 42.625 4.78125 38.28125 2.390625 
Q 33.9375 0 27.875 0 
Q 17.828125 0 11.671875 7.65625 
Q 5.515625 15.328125 5.515625 27.984375 
Q 5.515625 40.671875 11.671875 48.328125 
Q 17.828125 56 27.875 56 
Q 33.9375 56 38.28125 53.609375 
Q 42.625 51.21875 45.40625 46.390625 
L 45.40625 54.6875 
L 54.390625 54.6875 
z
" id="BitstreamVeraSans-Roman-67"/>
      <path d="M 41.109375 46.296875 
Q 39.59375 47.171875 37.8125 47.578125 
Q 36.03125 48 33.890625 48 
Q 26.265625 48 22.1875 43.046875 
Q 18.109375 38.09375 18.109375 28.8125 
L 18.109375 0 
L 9.078125 0 
L 9.078125 54.6875 
L 18.109375 54.6875 
L 18.109375 46.1875 
Q 20.953125 51.171875 25.484375 53.578125 
Q 30.03125 56 36.53125 56 
Q 37.453125 56 38.578125 55.875 
Q 39.703125 55.765625 41.0625 55.515625 
z
" id="BitstreamVeraSans-Roman-72"/>
      <path d="M 9.8125 72.90625 
L 19.671875 72.90625 
L 19.671875 0 
L 9.8125 0 
z
" id="BitstreamVeraSans-Roman-49"/>
     </defs>
     <g transform="translate(104.79925 134.70195)scale(0.168 -0.168)">
      <use xlink:href="#BitstreamVeraSans-Roman-43"/>
      <use x="69.82421875" xlink:href="#BitstreamVeraSans-Roman-44"/>
      <use x="146.826171875" xlink:href="#BitstreamVeraSans-Roman-44"/>
      <use x="223.828125" xlink:href="#BitstreamVeraSans-Roman-20"/>
      <use x="255.615234375" xlink:href="#BitstreamVeraSans-Roman-49"/>
      <use x="285.107421875" xlink:href="#BitstreamVeraSans-Roman-6e"/>
      <use x="348.486328125" xlink:href="#BitstreamVeraSans-Roman-67"/>
      <use x="411.962890625" xlink:href="#BitstreamVeraSans-Roman-e9"/>
      <use x="473.486328125" xlink:href="#BitstreamVeraSans-Roman-6e"/>
      <use x="536.865234375" xlink:href="#BitstreamVeraSans-Roman-69"/>
      <use x="564.6484375" xlink:href="#BitstreamVeraSans-Roman-65"/>
      <use x="626.171875" xlink:href="#BitstreamVeraSans-Roman-75"/>
      <use x="689.55078125" xlink:href="#BitstreamVeraSans-Roman-72"/>
     </g>
    </g>
    <g id="patch_10">
     <path d="M 57.75925 159.3612 
L 91.35925 159.3612 
L 91.35925 147.6012 
L 57.75925 147.6012 
z
" style="fill:#a52a2a;"/>
    </g>
    <g id="text_19">
     <!-- CDD autre -->
     <defs>
      <path d="M 34.28125 27.484375 
Q 23.390625 27.484375 19.1875 25 
Q 14.984375 22.515625 14.984375 16.5 
Q 14.984375 11.71875 18.140625 8.90625 
Q 21.296875 6.109375 26.703125 6.109375 
Q 34.1875 6.109375 38.703125 11.40625 
Q 43.21875 16.703125 43.21875 25.484375 
L 43.21875 27.484375 
z
M 52.203125 31.203125 
L 52.203125 0 
L 43.21875 0 
L 43.21875 8.296875 
Q 40.140625 3.328125 35.546875 0.953125 
Q 30.953125 -1.421875 24.3125 -1.421875 
Q 15.921875 -1.421875 10.953125 3.296875 
Q 6 8.015625 6 15.921875 
Q 6 25.140625 12.171875 29.828125 
Q 18.359375 34.515625 30.609375 34.515625 
L 43.21875 34.515625 
L 43.21875 35.40625 
Q 43.21875 41.609375 39.140625 45 
Q 35.0625 48.390625 27.6875 48.390625 
Q 23 48.390625 18.546875 47.265625 
Q 14.109375 46.140625 10.015625 43.890625 
L 10.015625 52.203125 
Q 14.9375 54.109375 19.578125 55.046875 
Q 24.21875 56 28.609375 56 
Q 40.484375 56 46.34375 49.84375 
Q 52.203125 43.703125 52.203125 31.203125 
" id="BitstreamVeraSans-Roman-61"/>
     </defs>
     <g transform="translate(104.79925 159.3612)scale(0.168 -0.168)">
      <use xlink:href="#BitstreamVeraSans-Roman-43"/>
      <use x="69.82421875" xlink:href="#BitstreamVeraSans-Roman-44"/>
      <use x="146.826171875" xlink:href="#BitstreamVeraSans-Roman-44"/>
      <use x="223.828125" xlink:href="#BitstreamVeraSans-Roman-20"/>
      <use x="255.615234375" xlink:href="#BitstreamVeraSans-Roman-61"/>
      <use x="316.89453125" xlink:href="#BitstreamVeraSans-Roman-75"/>
      <use x="380.2734375" xlink:href="#BitstreamVeraSans-Roman-74"/>
      <use x="419.482421875" xlink:href="#BitstreamVeraSans-Roman-72"/>
      <use x="460.564453125" xlink:href="#BitstreamVeraSans-Roman-65"/>
     </g>
    </g>
    <g id="patch_11">
     <path d="M 57.75925 184.02045 
L 91.35925 184.02045 
L 91.35925 172.26045 
L 57.75925 172.26045 
z
" style="fill:#6495ed;"/>
    </g>
    <g id="text_20">
     <!-- Post-doc / IR -->
     <defs>
      <path d="M 19.671875 64.796875 
L 19.671875 37.40625 
L 32.078125 37.40625 
Q 38.96875 37.40625 42.71875 40.96875 
Q 46.484375 44.53125 46.484375 51.125 
Q 46.484375 57.671875 42.71875 61.234375 
Q 38.96875 64.796875 32.078125 64.796875 
z
M 9.8125 72.90625 
L 32.078125 72.90625 
Q 44.34375 72.90625 50.609375 67.359375 
Q 56.890625 61.8125 56.890625 51.125 
Q 56.890625 40.328125 50.609375 34.8125 
Q 44.34375 29.296875 32.078125 29.296875 
L 19.671875 29.296875 
L 19.671875 0 
L 9.8125 0 
z
" id="BitstreamVeraSans-Roman-50"/>
      <path d="M 4.890625 31.390625 
L 31.203125 31.390625 
L 31.203125 23.390625 
L 4.890625 23.390625 
z
" id="BitstreamVeraSans-Roman-2d"/>
      <path d="M 48.78125 52.59375 
L 48.78125 44.1875 
Q 44.96875 46.296875 41.140625 47.34375 
Q 37.3125 48.390625 33.40625 48.390625 
Q 24.65625 48.390625 19.8125 42.84375 
Q 14.984375 37.3125 14.984375 27.296875 
Q 14.984375 17.28125 19.8125 11.734375 
Q 24.65625 6.203125 33.40625 6.203125 
Q 37.3125 6.203125 41.140625 7.25 
Q 44.96875 8.296875 48.78125 10.40625 
L 48.78125 2.09375 
Q 45.015625 0.34375 40.984375 -0.53125 
Q 36.96875 -1.421875 32.421875 -1.421875 
Q 20.0625 -1.421875 12.78125 6.34375 
Q 5.515625 14.109375 5.515625 27.296875 
Q 5.515625 40.671875 12.859375 48.328125 
Q 20.21875 56 33.015625 56 
Q 37.15625 56 41.109375 55.140625 
Q 45.0625 54.296875 48.78125 52.59375 
" id="BitstreamVeraSans-Roman-63"/>
      <path d="M 25.390625 72.90625 
L 33.6875 72.90625 
L 8.296875 -9.28125 
L 0 -9.28125 
z
" id="BitstreamVeraSans-Roman-2f"/>
     </defs>
     <g transform="translate(104.79925 184.02045)scale(0.168 -0.168)">
      <use xlink:href="#BitstreamVeraSans-Roman-50"/>
      <use x="60.255859375" xlink:href="#BitstreamVeraSans-Roman-6f"/>
      <use x="121.4375" xlink:href="#BitstreamVeraSans-Roman-73"/>
      <use x="173.537109375" xlink:href="#BitstreamVeraSans-Roman-74"/>
      <use x="212.74609375" xlink:href="#BitstreamVeraSans-Roman-2d"/>
      <use x="248.830078125" xlink:href="#BitstreamVeraSans-Roman-64"/>
      <use x="312.306640625" xlink:href="#BitstreamVeraSans-Roman-6f"/>
      <use x="373.48828125" xlink:href="#BitstreamVeraSans-Roman-63"/>
      <use x="428.46875" xlink:href="#BitstreamVeraSans-Roman-20"/>
      <use x="460.255859375" xlink:href="#BitstreamVeraSans-Roman-2f"/>
      <use x="493.947265625" xlink:href="#BitstreamVeraSans-Roman-20"/>
      <use x="525.734375" xlink:href="#BitstreamVeraSans-Roman-49"/>
      <use x="555.2265625" xlink:href="#BitstreamVeraSans-Roman-52"/>
     </g>
    </g>
   </g>
  </g>
 </g>
 <defs>
  <clipPath id="pf85d8bc93e">
   <rect height="358.56" width="501.12" x="42.63925" y="59.53595"/>
  </clipPath>
 </defs>
</svg>
