<?xml version="1.0" encoding="utf-8" standalone="no"?>
<!DOCTYPE svg PUBLIC "-//W3C//DTD SVG 1.1//EN"
  "http://www.w3.org/Graphics/SVG/1.1/DTD/svg11.dtd">
<!-- Created with matplotlib (http://matplotlib.org/) -->
<svg height="467pt" version="1.1" viewBox="0 0 691 467" width="691pt" xmlns="http://www.w3.org/2000/svg" xmlns:xlink="http://www.w3.org/1999/xlink">
 <defs>
  <style type="text/css">
*{stroke-linecap:butt;stroke-linejoin:round;stroke-miterlimit:100000;}
  </style>
 </defs>
 <g id="figure_1">
  <g id="patch_1">
   <path d="M 0 467.25595 
L 691.64925 467.25595 
L 691.64925 0 
L 0 0 
z
" style="fill:#f0f0f0;"/>
  </g>
  <g id="axes_1">
   <g id="patch_2">
    <path d="M 47.72925 418.09595 
L 548.84925 418.09595 
L 548.84925 59.53595 
L 47.72925 59.53595 
z
" style="fill:#f0f0f0;"/>
   </g>
   <g id="matplotlib.axis_1">
    <g id="xtick_1">
     <g id="line2d_1">
      <path clip-path="url(#pf821a27304)" d="M 130.353593 418.09595 
L 130.353593 59.53595 
" style="fill:none;stroke:#cbcbcb;"/>
     </g>
     <g id="line2d_2">
      <defs>
       <path d="M 0 0 
L 0 0 
" id="mad71b5d2ab" style="stroke:#000000;stroke-width:0.5;"/>
      </defs>
      <g>
       <use style="stroke:#000000;stroke-width:0.5;" x="130.353593164" xlink:href="#mad71b5d2ab" y="418.09595"/>
      </g>
     </g>
     <g id="line2d_3">
      <g>
       <use style="stroke:#000000;stroke-width:0.5;" x="130.353593164" xlink:href="#mad71b5d2ab" y="59.53595"/>
      </g>
     </g>
     <g id="text_1">
      <!-- Jan -->
      <defs>
       <path d="M 54.890625 33.015625 
L 54.890625 0 
L 45.90625 0 
L 45.90625 32.71875 
Q 45.90625 40.484375 42.875 44.328125 
Q 39.84375 48.1875 33.796875 48.1875 
Q 26.515625 48.1875 22.3125 43.546875 
Q 18.109375 38.921875 18.109375 30.90625 
L 18.109375 0 
L 9.078125 0 
L 9.078125 54.6875 
L 18.109375 54.6875 
L 18.109375 46.1875 
Q 21.34375 51.125 25.703125 53.5625 
Q 30.078125 56 35.796875 56 
Q 45.21875 56 50.046875 50.171875 
Q 54.890625 44.34375 54.890625 33.015625 
" id="BitstreamVeraSans-Roman-6e"/>
       <path d="M 34.28125 27.484375 
Q 23.390625 27.484375 19.1875 25 
Q 14.984375 22.515625 14.984375 16.5 
Q 14.984375 11.71875 18.140625 8.90625 
Q 21.296875 6.109375 26.703125 6.109375 
Q 34.1875 6.109375 38.703125 11.40625 
Q 43.21875 16.703125 43.21875 25.484375 
L 43.21875 27.484375 
z
M 52.203125 31.203125 
L 52.203125 0 
L 43.21875 0 
L 43.21875 8.296875 
Q 40.140625 3.328125 35.546875 0.953125 
Q 30.953125 -1.421875 24.3125 -1.421875 
Q 15.921875 -1.421875 10.953125 3.296875 
Q 6 8.015625 6 15.921875 
Q 6 25.140625 12.171875 29.828125 
Q 18.359375 34.515625 30.609375 34.515625 
L 43.21875 34.515625 
L 43.21875 35.40625 
Q 43.21875 41.609375 39.140625 45 
Q 35.0625 48.390625 27.6875 48.390625 
Q 23 48.390625 18.546875 47.265625 
Q 14.109375 46.140625 10.015625 43.890625 
L 10.015625 52.203125 
Q 14.9375 54.109375 19.578125 55.046875 
Q 24.21875 56 28.609375 56 
Q 40.484375 56 46.34375 49.84375 
Q 52.203125 43.703125 52.203125 31.203125 
" id="BitstreamVeraSans-Roman-61"/>
       <path d="M 9.8125 72.90625 
L 19.671875 72.90625 
L 19.671875 5.078125 
Q 19.671875 -8.109375 14.671875 -14.0625 
Q 9.671875 -20.015625 -1.421875 -20.015625 
L -5.171875 -20.015625 
L -5.171875 -11.71875 
L -2.09375 -11.71875 
Q 4.4375 -11.71875 7.125 -8.046875 
Q 9.8125 -4.390625 9.8125 5.078125 
z
" id="BitstreamVeraSans-Roman-4a"/>
      </defs>
      <g transform="translate(124.187343164 428.1747)scale(0.08 -0.08)">
       <use xlink:href="#BitstreamVeraSans-Roman-4a"/>
       <use x="29.4921875" xlink:href="#BitstreamVeraSans-Roman-61"/>
       <use x="90.771484375" xlink:href="#BitstreamVeraSans-Roman-6e"/>
      </g>
      <!-- 2013 -->
      <defs>
       <path d="M 19.1875 8.296875 
L 53.609375 8.296875 
L 53.609375 0 
L 7.328125 0 
L 7.328125 8.296875 
Q 12.9375 14.109375 22.625 23.890625 
Q 32.328125 33.6875 34.8125 36.53125 
Q 39.546875 41.84375 41.421875 45.53125 
Q 43.3125 49.21875 43.3125 52.78125 
Q 43.3125 58.59375 39.234375 62.25 
Q 35.15625 65.921875 28.609375 65.921875 
Q 23.96875 65.921875 18.8125 64.3125 
Q 13.671875 62.703125 7.8125 59.421875 
L 7.8125 69.390625 
Q 13.765625 71.78125 18.9375 73 
Q 24.125 74.21875 28.421875 74.21875 
Q 39.75 74.21875 46.484375 68.546875 
Q 53.21875 62.890625 53.21875 53.421875 
Q 53.21875 48.921875 51.53125 44.890625 
Q 49.859375 40.875 45.40625 35.40625 
Q 44.1875 33.984375 37.640625 27.21875 
Q 31.109375 20.453125 19.1875 8.296875 
" id="BitstreamVeraSans-Roman-32"/>
       <path d="M 40.578125 39.3125 
Q 47.65625 37.796875 51.625 33 
Q 55.609375 28.21875 55.609375 21.1875 
Q 55.609375 10.40625 48.1875 4.484375 
Q 40.765625 -1.421875 27.09375 -1.421875 
Q 22.515625 -1.421875 17.65625 -0.515625 
Q 12.796875 0.390625 7.625 2.203125 
L 7.625 11.71875 
Q 11.71875 9.328125 16.59375 8.109375 
Q 21.484375 6.890625 26.8125 6.890625 
Q 36.078125 6.890625 40.9375 10.546875 
Q 45.796875 14.203125 45.796875 21.1875 
Q 45.796875 27.640625 41.28125 31.265625 
Q 36.765625 34.90625 28.71875 34.90625 
L 20.21875 34.90625 
L 20.21875 43.015625 
L 29.109375 43.015625 
Q 36.375 43.015625 40.234375 45.921875 
Q 44.09375 48.828125 44.09375 54.296875 
Q 44.09375 59.90625 40.109375 62.90625 
Q 36.140625 65.921875 28.71875 65.921875 
Q 24.65625 65.921875 20.015625 65.03125 
Q 15.375 64.15625 9.8125 62.3125 
L 9.8125 71.09375 
Q 15.4375 72.65625 20.34375 73.4375 
Q 25.25 74.21875 29.59375 74.21875 
Q 40.828125 74.21875 47.359375 69.109375 
Q 53.90625 64.015625 53.90625 55.328125 
Q 53.90625 49.265625 50.4375 45.09375 
Q 46.96875 40.921875 40.578125 39.3125 
" id="BitstreamVeraSans-Roman-33"/>
       <path d="M 31.78125 66.40625 
Q 24.171875 66.40625 20.328125 58.90625 
Q 16.5 51.421875 16.5 36.375 
Q 16.5 21.390625 20.328125 13.890625 
Q 24.171875 6.390625 31.78125 6.390625 
Q 39.453125 6.390625 43.28125 13.890625 
Q 47.125 21.390625 47.125 36.375 
Q 47.125 51.421875 43.28125 58.90625 
Q 39.453125 66.40625 31.78125 66.40625 
M 31.78125 74.21875 
Q 44.046875 74.21875 50.515625 64.515625 
Q 56.984375 54.828125 56.984375 36.375 
Q 56.984375 17.96875 50.515625 8.265625 
Q 44.046875 -1.421875 31.78125 -1.421875 
Q 19.53125 -1.421875 13.0625 8.265625 
Q 6.59375 17.96875 6.59375 36.375 
Q 6.59375 54.828125 13.0625 64.515625 
Q 19.53125 74.21875 31.78125 74.21875 
" id="BitstreamVeraSans-Roman-30"/>
       <path d="M 12.40625 8.296875 
L 28.515625 8.296875 
L 28.515625 63.921875 
L 10.984375 60.40625 
L 10.984375 69.390625 
L 28.421875 72.90625 
L 38.28125 72.90625 
L 38.28125 8.296875 
L 54.390625 8.296875 
L 54.390625 0 
L 12.40625 0 
z
" id="BitstreamVeraSans-Roman-31"/>
      </defs>
      <g transform="translate(120.173593164 437.13295)scale(0.08 -0.08)">
       <use xlink:href="#BitstreamVeraSans-Roman-32"/>
       <use x="63.623046875" xlink:href="#BitstreamVeraSans-Roman-30"/>
       <use x="127.24609375" xlink:href="#BitstreamVeraSans-Roman-31"/>
       <use x="190.869140625" xlink:href="#BitstreamVeraSans-Roman-33"/>
      </g>
     </g>
    </g>
    <g id="xtick_2">
     <g id="line2d_4">
      <path clip-path="url(#pf821a27304)" d="M 252.946623 418.09595 
L 252.946623 59.53595 
" style="fill:none;stroke:#cbcbcb;"/>
     </g>
     <g id="line2d_5">
      <g>
       <use style="stroke:#000000;stroke-width:0.5;" x="252.946622654" xlink:href="#mad71b5d2ab" y="418.09595"/>
      </g>
     </g>
     <g id="line2d_6">
      <g>
       <use style="stroke:#000000;stroke-width:0.5;" x="252.946622654" xlink:href="#mad71b5d2ab" y="59.53595"/>
      </g>
     </g>
     <g id="text_2">
      <!-- Jan -->
      <g transform="translate(246.780372654 428.1747)scale(0.08 -0.08)">
       <use xlink:href="#BitstreamVeraSans-Roman-4a"/>
       <use x="29.4921875" xlink:href="#BitstreamVeraSans-Roman-61"/>
       <use x="90.771484375" xlink:href="#BitstreamVeraSans-Roman-6e"/>
      </g>
      <!-- 2014 -->
      <defs>
       <path d="M 37.796875 64.3125 
L 12.890625 25.390625 
L 37.796875 25.390625 
z
M 35.203125 72.90625 
L 47.609375 72.90625 
L 47.609375 25.390625 
L 58.015625 25.390625 
L 58.015625 17.1875 
L 47.609375 17.1875 
L 47.609375 0 
L 37.796875 0 
L 37.796875 17.1875 
L 4.890625 17.1875 
L 4.890625 26.703125 
z
" id="BitstreamVeraSans-Roman-34"/>
      </defs>
      <g transform="translate(242.766622654 437.13295)scale(0.08 -0.08)">
       <use xlink:href="#BitstreamVeraSans-Roman-32"/>
       <use x="63.623046875" xlink:href="#BitstreamVeraSans-Roman-30"/>
       <use x="127.24609375" xlink:href="#BitstreamVeraSans-Roman-31"/>
       <use x="190.869140625" xlink:href="#BitstreamVeraSans-Roman-34"/>
      </g>
     </g>
    </g>
    <g id="xtick_3">
     <g id="line2d_7">
      <path clip-path="url(#pf821a27304)" d="M 375.539652 418.09595 
L 375.539652 59.53595 
" style="fill:none;stroke:#cbcbcb;"/>
     </g>
     <g id="line2d_8">
      <g>
       <use style="stroke:#000000;stroke-width:0.5;" x="375.539652145" xlink:href="#mad71b5d2ab" y="418.09595"/>
      </g>
     </g>
     <g id="line2d_9">
      <g>
       <use style="stroke:#000000;stroke-width:0.5;" x="375.539652145" xlink:href="#mad71b5d2ab" y="59.53595"/>
      </g>
     </g>
     <g id="text_3">
      <!-- Jan -->
      <g transform="translate(369.373402145 428.1747)scale(0.08 -0.08)">
       <use xlink:href="#BitstreamVeraSans-Roman-4a"/>
       <use x="29.4921875" xlink:href="#BitstreamVeraSans-Roman-61"/>
       <use x="90.771484375" xlink:href="#BitstreamVeraSans-Roman-6e"/>
      </g>
      <!-- 2015 -->
      <defs>
       <path d="M 10.796875 72.90625 
L 49.515625 72.90625 
L 49.515625 64.59375 
L 19.828125 64.59375 
L 19.828125 46.734375 
Q 21.96875 47.46875 24.109375 47.828125 
Q 26.265625 48.1875 28.421875 48.1875 
Q 40.625 48.1875 47.75 41.5 
Q 54.890625 34.8125 54.890625 23.390625 
Q 54.890625 11.625 47.5625 5.09375 
Q 40.234375 -1.421875 26.90625 -1.421875 
Q 22.3125 -1.421875 17.546875 -0.640625 
Q 12.796875 0.140625 7.71875 1.703125 
L 7.71875 11.625 
Q 12.109375 9.234375 16.796875 8.0625 
Q 21.484375 6.890625 26.703125 6.890625 
Q 35.15625 6.890625 40.078125 11.328125 
Q 45.015625 15.765625 45.015625 23.390625 
Q 45.015625 31 40.078125 35.4375 
Q 35.15625 39.890625 26.703125 39.890625 
Q 22.75 39.890625 18.8125 39.015625 
Q 14.890625 38.140625 10.796875 36.28125 
z
" id="BitstreamVeraSans-Roman-35"/>
      </defs>
      <g transform="translate(365.359652145 437.13295)scale(0.08 -0.08)">
       <use xlink:href="#BitstreamVeraSans-Roman-32"/>
       <use x="63.623046875" xlink:href="#BitstreamVeraSans-Roman-30"/>
       <use x="127.24609375" xlink:href="#BitstreamVeraSans-Roman-31"/>
       <use x="190.869140625" xlink:href="#BitstreamVeraSans-Roman-35"/>
      </g>
     </g>
    </g>
    <g id="xtick_4">
     <g id="line2d_10">
      <path clip-path="url(#pf821a27304)" d="M 498.132682 418.09595 
L 498.132682 59.53595 
" style="fill:none;stroke:#cbcbcb;"/>
     </g>
     <g id="line2d_11">
      <g>
       <use style="stroke:#000000;stroke-width:0.5;" x="498.132681635" xlink:href="#mad71b5d2ab" y="418.09595"/>
      </g>
     </g>
     <g id="line2d_12">
      <g>
       <use style="stroke:#000000;stroke-width:0.5;" x="498.132681635" xlink:href="#mad71b5d2ab" y="59.53595"/>
      </g>
     </g>
     <g id="text_4">
      <!-- Jan -->
      <g transform="translate(491.966431635 428.1747)scale(0.08 -0.08)">
       <use xlink:href="#BitstreamVeraSans-Roman-4a"/>
       <use x="29.4921875" xlink:href="#BitstreamVeraSans-Roman-61"/>
       <use x="90.771484375" xlink:href="#BitstreamVeraSans-Roman-6e"/>
      </g>
      <!-- 2016 -->
      <defs>
       <path d="M 33.015625 40.375 
Q 26.375 40.375 22.484375 35.828125 
Q 18.609375 31.296875 18.609375 23.390625 
Q 18.609375 15.53125 22.484375 10.953125 
Q 26.375 6.390625 33.015625 6.390625 
Q 39.65625 6.390625 43.53125 10.953125 
Q 47.40625 15.53125 47.40625 23.390625 
Q 47.40625 31.296875 43.53125 35.828125 
Q 39.65625 40.375 33.015625 40.375 
M 52.59375 71.296875 
L 52.59375 62.3125 
Q 48.875 64.0625 45.09375 64.984375 
Q 41.3125 65.921875 37.59375 65.921875 
Q 27.828125 65.921875 22.671875 59.328125 
Q 17.53125 52.734375 16.796875 39.40625 
Q 19.671875 43.65625 24.015625 45.921875 
Q 28.375 48.1875 33.59375 48.1875 
Q 44.578125 48.1875 50.953125 41.515625 
Q 57.328125 34.859375 57.328125 23.390625 
Q 57.328125 12.15625 50.6875 5.359375 
Q 44.046875 -1.421875 33.015625 -1.421875 
Q 20.359375 -1.421875 13.671875 8.265625 
Q 6.984375 17.96875 6.984375 36.375 
Q 6.984375 53.65625 15.1875 63.9375 
Q 23.390625 74.21875 37.203125 74.21875 
Q 40.921875 74.21875 44.703125 73.484375 
Q 48.484375 72.75 52.59375 71.296875 
" id="BitstreamVeraSans-Roman-36"/>
      </defs>
      <g transform="translate(487.952681635 437.13295)scale(0.08 -0.08)">
       <use xlink:href="#BitstreamVeraSans-Roman-32"/>
       <use x="63.623046875" xlink:href="#BitstreamVeraSans-Roman-30"/>
       <use x="127.24609375" xlink:href="#BitstreamVeraSans-Roman-31"/>
       <use x="190.869140625" xlink:href="#BitstreamVeraSans-Roman-36"/>
      </g>
     </g>
    </g>
    <g id="xtick_5">
     <g id="line2d_13">
      <g>
       <use style="stroke:#000000;stroke-width:0.5;" x="68.5532714477" xlink:href="#mad71b5d2ab" y="418.09595"/>
      </g>
     </g>
     <g id="line2d_14">
      <g>
       <use style="stroke:#000000;stroke-width:0.5;" x="68.5532714477" xlink:href="#mad71b5d2ab" y="59.53595"/>
      </g>
     </g>
     <g id="text_5">
      <!-- Jul -->
      <defs>
       <path d="M 8.5 21.578125 
L 8.5 54.6875 
L 17.484375 54.6875 
L 17.484375 21.921875 
Q 17.484375 14.15625 20.5 10.265625 
Q 23.53125 6.390625 29.59375 6.390625 
Q 36.859375 6.390625 41.078125 11.03125 
Q 45.3125 15.671875 45.3125 23.6875 
L 45.3125 54.6875 
L 54.296875 54.6875 
L 54.296875 0 
L 45.3125 0 
L 45.3125 8.40625 
Q 42.046875 3.421875 37.71875 1 
Q 33.40625 -1.421875 27.6875 -1.421875 
Q 18.265625 -1.421875 13.375 4.4375 
Q 8.5 10.296875 8.5 21.578125 
" id="BitstreamVeraSans-Roman-75"/>
       <path d="M 9.421875 75.984375 
L 18.40625 75.984375 
L 18.40625 0 
L 9.421875 0 
z
" id="BitstreamVeraSans-Roman-6c"/>
      </defs>
      <g transform="translate(63.7270214477 428.1747)scale(0.08 -0.08)">
       <use xlink:href="#BitstreamVeraSans-Roman-4a"/>
       <use x="29.4921875" xlink:href="#BitstreamVeraSans-Roman-75"/>
       <use x="92.87109375" xlink:href="#BitstreamVeraSans-Roman-6c"/>
      </g>
     </g>
    </g>
    <g id="xtick_6">
     <g id="line2d_15">
      <g>
       <use style="stroke:#000000;stroke-width:0.5;" x="191.146300938" xlink:href="#mad71b5d2ab" y="418.09595"/>
      </g>
     </g>
     <g id="line2d_16">
      <g>
       <use style="stroke:#000000;stroke-width:0.5;" x="191.146300938" xlink:href="#mad71b5d2ab" y="59.53595"/>
      </g>
     </g>
     <g id="text_6">
      <!-- Jul -->
      <g transform="translate(186.320050938 428.1747)scale(0.08 -0.08)">
       <use xlink:href="#BitstreamVeraSans-Roman-4a"/>
       <use x="29.4921875" xlink:href="#BitstreamVeraSans-Roman-75"/>
       <use x="92.87109375" xlink:href="#BitstreamVeraSans-Roman-6c"/>
      </g>
     </g>
    </g>
    <g id="xtick_7">
     <g id="line2d_17">
      <g>
       <use style="stroke:#000000;stroke-width:0.5;" x="313.739330429" xlink:href="#mad71b5d2ab" y="418.09595"/>
      </g>
     </g>
     <g id="line2d_18">
      <g>
       <use style="stroke:#000000;stroke-width:0.5;" x="313.739330429" xlink:href="#mad71b5d2ab" y="59.53595"/>
      </g>
     </g>
     <g id="text_7">
      <!-- Jul -->
      <g transform="translate(308.913080429 428.1747)scale(0.08 -0.08)">
       <use xlink:href="#BitstreamVeraSans-Roman-4a"/>
       <use x="29.4921875" xlink:href="#BitstreamVeraSans-Roman-75"/>
       <use x="92.87109375" xlink:href="#BitstreamVeraSans-Roman-6c"/>
      </g>
     </g>
    </g>
    <g id="xtick_8">
     <g id="line2d_19">
      <g>
       <use style="stroke:#000000;stroke-width:0.5;" x="436.33235992" xlink:href="#mad71b5d2ab" y="418.09595"/>
      </g>
     </g>
     <g id="line2d_20">
      <g>
       <use style="stroke:#000000;stroke-width:0.5;" x="436.33235992" xlink:href="#mad71b5d2ab" y="59.53595"/>
      </g>
     </g>
     <g id="text_8">
      <!-- Jul -->
      <g transform="translate(431.50610992 428.1747)scale(0.08 -0.08)">
       <use xlink:href="#BitstreamVeraSans-Roman-4a"/>
       <use x="29.4921875" xlink:href="#BitstreamVeraSans-Roman-75"/>
       <use x="92.87109375" xlink:href="#BitstreamVeraSans-Roman-6c"/>
      </g>
     </g>
    </g>
    <g id="text_9">
     <!-- Date -->
     <defs>
      <path d="M 32.90625 24.609375 
Q 27.4375 24.609375 24.671875 22.75 
Q 21.921875 20.90625 21.921875 17.28125 
Q 21.921875 13.96875 24.140625 12.078125 
Q 26.375 10.203125 30.328125 10.203125 
Q 35.25 10.203125 38.625 13.734375 
Q 42 17.28125 42 22.609375 
L 42 24.609375 
z
M 59.625 31.203125 
L 59.625 0 
L 42 0 
L 42 8.109375 
Q 38.484375 3.125 34.078125 0.84375 
Q 29.6875 -1.421875 23.390625 -1.421875 
Q 14.890625 -1.421875 9.59375 3.53125 
Q 4.296875 8.5 4.296875 16.40625 
Q 4.296875 26.03125 10.90625 30.515625 
Q 17.53125 35.015625 31.6875 35.015625 
L 42 35.015625 
L 42 36.375 
Q 42 40.53125 38.71875 42.453125 
Q 35.453125 44.390625 28.515625 44.390625 
Q 22.90625 44.390625 18.0625 43.265625 
Q 13.234375 42.140625 9.078125 39.890625 
L 9.078125 53.21875 
Q 14.703125 54.59375 20.359375 55.296875 
Q 26.03125 56 31.6875 56 
Q 46.484375 56 53.046875 50.171875 
Q 59.625 44.34375 59.625 31.203125 
" id="BitstreamVeraSans-Bold-61"/>
      <path d="M 27.984375 58.6875 
L 27.984375 14.203125 
L 34.71875 14.203125 
Q 46.234375 14.203125 52.3125 19.921875 
Q 58.40625 25.640625 58.40625 36.53125 
Q 58.40625 47.359375 52.34375 53.015625 
Q 46.296875 58.6875 34.71875 58.6875 
z
M 9.1875 72.90625 
L 29 72.90625 
Q 45.609375 72.90625 53.734375 70.53125 
Q 61.859375 68.171875 67.671875 62.5 
Q 72.796875 57.5625 75.28125 51.109375 
Q 77.78125 44.671875 77.78125 36.53125 
Q 77.78125 28.265625 75.28125 21.796875 
Q 72.796875 15.328125 67.671875 10.40625 
Q 61.8125 4.734375 53.609375 2.359375 
Q 45.40625 0 29 0 
L 9.1875 0 
z
" id="BitstreamVeraSans-Bold-44"/>
      <path d="M 27.484375 70.21875 
L 27.484375 54.6875 
L 45.515625 54.6875 
L 45.515625 42.1875 
L 27.484375 42.1875 
L 27.484375 19 
Q 27.484375 15.1875 29 13.84375 
Q 30.515625 12.5 35.015625 12.5 
L 44 12.5 
L 44 0 
L 29 0 
Q 18.65625 0 14.328125 4.3125 
Q 10.015625 8.640625 10.015625 19 
L 10.015625 42.1875 
L 1.3125 42.1875 
L 1.3125 54.6875 
L 10.015625 54.6875 
L 10.015625 70.21875 
z
" id="BitstreamVeraSans-Bold-74"/>
      <path d="M 62.984375 27.484375 
L 62.984375 22.515625 
L 22.125 22.515625 
Q 22.75 16.359375 26.5625 13.28125 
Q 30.375 10.203125 37.203125 10.203125 
Q 42.71875 10.203125 48.5 11.84375 
Q 54.296875 13.484375 60.40625 16.796875 
L 60.40625 3.328125 
Q 54.203125 0.984375 48 -0.21875 
Q 41.796875 -1.421875 35.59375 -1.421875 
Q 20.75 -1.421875 12.515625 6.125 
Q 4.296875 13.671875 4.296875 27.296875 
Q 4.296875 40.671875 12.375 48.328125 
Q 20.453125 56 34.625 56 
Q 47.515625 56 55.25 48.234375 
Q 62.984375 40.484375 62.984375 27.484375 
M 45.015625 33.296875 
Q 45.015625 38.28125 42.109375 41.328125 
Q 39.203125 44.390625 34.515625 44.390625 
Q 29.4375 44.390625 26.265625 41.53125 
Q 23.09375 38.671875 22.3125 33.296875 
z
" id="BitstreamVeraSans-Bold-65"/>
     </defs>
     <g transform="translate(275.93475 456.562075)scale(0.168 -0.168)">
      <use xlink:href="#BitstreamVeraSans-Bold-44"/>
      <use x="83.0078125" xlink:href="#BitstreamVeraSans-Bold-61"/>
      <use x="150.48828125" xlink:href="#BitstreamVeraSans-Bold-74"/>
      <use x="198.291015625" xlink:href="#BitstreamVeraSans-Bold-65"/>
     </g>
    </g>
   </g>
   <g id="matplotlib.axis_2">
    <g id="ytick_1">
     <g id="line2d_21">
      <path clip-path="url(#pf821a27304)" d="M 47.72925 418.09595 
L 548.84925 418.09595 
" style="fill:none;stroke:#cbcbcb;"/>
     </g>
     <g id="line2d_22">
      <g>
       <use style="stroke:#000000;stroke-width:0.5;" x="47.72925" xlink:href="#mad71b5d2ab" y="418.09595"/>
      </g>
     </g>
     <g id="line2d_23">
      <g>
       <use style="stroke:#000000;stroke-width:0.5;" x="548.84925" xlink:href="#mad71b5d2ab" y="418.09595"/>
      </g>
     </g>
     <g id="text_10">
      <!-- 0 -->
      <g transform="translate(38.63925 420.30345)scale(0.08 -0.08)">
       <use xlink:href="#BitstreamVeraSans-Roman-30"/>
      </g>
     </g>
    </g>
    <g id="ytick_2">
     <g id="line2d_24">
      <path clip-path="url(#pf821a27304)" d="M 47.72925 346.38395 
L 548.84925 346.38395 
" style="fill:none;stroke:#cbcbcb;"/>
     </g>
     <g id="line2d_25">
      <g>
       <use style="stroke:#000000;stroke-width:0.5;" x="47.72925" xlink:href="#mad71b5d2ab" y="346.38395"/>
      </g>
     </g>
     <g id="line2d_26">
      <g>
       <use style="stroke:#000000;stroke-width:0.5;" x="548.84925" xlink:href="#mad71b5d2ab" y="346.38395"/>
      </g>
     </g>
     <g id="text_11">
      <!-- 20 -->
      <g transform="translate(33.54925 348.59145)scale(0.08 -0.08)">
       <use xlink:href="#BitstreamVeraSans-Roman-32"/>
       <use x="63.623046875" xlink:href="#BitstreamVeraSans-Roman-30"/>
      </g>
     </g>
    </g>
    <g id="ytick_3">
     <g id="line2d_27">
      <path clip-path="url(#pf821a27304)" d="M 47.72925 274.67195 
L 548.84925 274.67195 
" style="fill:none;stroke:#cbcbcb;"/>
     </g>
     <g id="line2d_28">
      <g>
       <use style="stroke:#000000;stroke-width:0.5;" x="47.72925" xlink:href="#mad71b5d2ab" y="274.67195"/>
      </g>
     </g>
     <g id="line2d_29">
      <g>
       <use style="stroke:#000000;stroke-width:0.5;" x="548.84925" xlink:href="#mad71b5d2ab" y="274.67195"/>
      </g>
     </g>
     <g id="text_12">
      <!-- 40 -->
      <g transform="translate(33.54925 276.87945)scale(0.08 -0.08)">
       <use xlink:href="#BitstreamVeraSans-Roman-34"/>
       <use x="63.623046875" xlink:href="#BitstreamVeraSans-Roman-30"/>
      </g>
     </g>
    </g>
    <g id="ytick_4">
     <g id="line2d_30">
      <path clip-path="url(#pf821a27304)" d="M 47.72925 202.95995 
L 548.84925 202.95995 
" style="fill:none;stroke:#cbcbcb;"/>
     </g>
     <g id="line2d_31">
      <g>
       <use style="stroke:#000000;stroke-width:0.5;" x="47.72925" xlink:href="#mad71b5d2ab" y="202.95995"/>
      </g>
     </g>
     <g id="line2d_32">
      <g>
       <use style="stroke:#000000;stroke-width:0.5;" x="548.84925" xlink:href="#mad71b5d2ab" y="202.95995"/>
      </g>
     </g>
     <g id="text_13">
      <!-- 60 -->
      <g transform="translate(33.54925 205.16745)scale(0.08 -0.08)">
       <use xlink:href="#BitstreamVeraSans-Roman-36"/>
       <use x="63.623046875" xlink:href="#BitstreamVeraSans-Roman-30"/>
      </g>
     </g>
    </g>
    <g id="ytick_5">
     <g id="line2d_33">
      <path clip-path="url(#pf821a27304)" d="M 47.72925 131.24795 
L 548.84925 131.24795 
" style="fill:none;stroke:#cbcbcb;"/>
     </g>
     <g id="line2d_34">
      <g>
       <use style="stroke:#000000;stroke-width:0.5;" x="47.72925" xlink:href="#mad71b5d2ab" y="131.24795"/>
      </g>
     </g>
     <g id="line2d_35">
      <g>
       <use style="stroke:#000000;stroke-width:0.5;" x="548.84925" xlink:href="#mad71b5d2ab" y="131.24795"/>
      </g>
     </g>
     <g id="text_14">
      <!-- 80 -->
      <defs>
       <path d="M 31.78125 34.625 
Q 24.75 34.625 20.71875 30.859375 
Q 16.703125 27.09375 16.703125 20.515625 
Q 16.703125 13.921875 20.71875 10.15625 
Q 24.75 6.390625 31.78125 6.390625 
Q 38.8125 6.390625 42.859375 10.171875 
Q 46.921875 13.96875 46.921875 20.515625 
Q 46.921875 27.09375 42.890625 30.859375 
Q 38.875 34.625 31.78125 34.625 
M 21.921875 38.8125 
Q 15.578125 40.375 12.03125 44.71875 
Q 8.5 49.078125 8.5 55.328125 
Q 8.5 64.0625 14.71875 69.140625 
Q 20.953125 74.21875 31.78125 74.21875 
Q 42.671875 74.21875 48.875 69.140625 
Q 55.078125 64.0625 55.078125 55.328125 
Q 55.078125 49.078125 51.53125 44.71875 
Q 48 40.375 41.703125 38.8125 
Q 48.828125 37.15625 52.796875 32.3125 
Q 56.78125 27.484375 56.78125 20.515625 
Q 56.78125 9.90625 50.3125 4.234375 
Q 43.84375 -1.421875 31.78125 -1.421875 
Q 19.734375 -1.421875 13.25 4.234375 
Q 6.78125 9.90625 6.78125 20.515625 
Q 6.78125 27.484375 10.78125 32.3125 
Q 14.796875 37.15625 21.921875 38.8125 
M 18.3125 54.390625 
Q 18.3125 48.734375 21.84375 45.5625 
Q 25.390625 42.390625 31.78125 42.390625 
Q 38.140625 42.390625 41.71875 45.5625 
Q 45.3125 48.734375 45.3125 54.390625 
Q 45.3125 60.0625 41.71875 63.234375 
Q 38.140625 66.40625 31.78125 66.40625 
Q 25.390625 66.40625 21.84375 63.234375 
Q 18.3125 60.0625 18.3125 54.390625 
" id="BitstreamVeraSans-Roman-38"/>
      </defs>
      <g transform="translate(33.54925 133.45545)scale(0.08 -0.08)">
       <use xlink:href="#BitstreamVeraSans-Roman-38"/>
       <use x="63.623046875" xlink:href="#BitstreamVeraSans-Roman-30"/>
      </g>
     </g>
    </g>
    <g id="ytick_6">
     <g id="line2d_36">
      <path clip-path="url(#pf821a27304)" d="M 47.72925 59.53595 
L 548.84925 59.53595 
" style="fill:none;stroke:#cbcbcb;"/>
     </g>
     <g id="line2d_37">
      <g>
       <use style="stroke:#000000;stroke-width:0.5;" x="47.72925" xlink:href="#mad71b5d2ab" y="59.53595"/>
      </g>
     </g>
     <g id="line2d_38">
      <g>
       <use style="stroke:#000000;stroke-width:0.5;" x="548.84925" xlink:href="#mad71b5d2ab" y="59.53595"/>
      </g>
     </g>
     <g id="text_15">
      <!-- 100 -->
      <g transform="translate(28.45925 61.74345)scale(0.08 -0.08)">
       <use xlink:href="#BitstreamVeraSans-Roman-31"/>
       <use x="63.623046875" xlink:href="#BitstreamVeraSans-Roman-30"/>
       <use x="127.24609375" xlink:href="#BitstreamVeraSans-Roman-30"/>
      </g>
     </g>
    </g>
    <g id="text_16">
     <!-- %des offres -->
     <defs>
      <path d="M 77.484375 30.078125 
Q 74.03125 30.078125 72.125 27.078125 
Q 70.21875 24.078125 70.21875 18.5 
Q 70.21875 12.890625 72.09375 9.890625 
Q 73.96875 6.890625 77.484375 6.890625 
Q 81 6.890625 82.859375 9.890625 
Q 84.71875 12.890625 84.71875 18.5 
Q 84.71875 24.078125 82.828125 27.078125 
Q 80.953125 30.078125 77.484375 30.078125 
M 77.484375 38.28125 
Q 86.578125 38.28125 91.796875 33 
Q 97.015625 27.734375 97.015625 18.5 
Q 97.015625 9.28125 91.796875 3.921875 
Q 86.578125 -1.421875 77.484375 -1.421875 
Q 68.40625 -1.421875 63.15625 3.921875 
Q 57.90625 9.28125 57.90625 18.5 
Q 57.90625 27.6875 63.15625 32.984375 
Q 68.40625 38.28125 77.484375 38.28125 
M 32.71875 -1.421875 
L 21.921875 -1.421875 
L 67.484375 74.21875 
L 78.328125 74.21875 
z
M 22.703125 74.21875 
Q 31.78125 74.21875 36.984375 68.921875 
Q 42.1875 63.625 42.1875 54.390625 
Q 42.1875 45.171875 36.984375 39.84375 
Q 31.78125 34.515625 22.703125 34.515625 
Q 13.625 34.515625 8.421875 39.84375 
Q 3.21875 45.171875 3.21875 54.390625 
Q 3.21875 63.625 8.421875 68.921875 
Q 13.625 74.21875 22.703125 74.21875 
M 22.703125 66.015625 
Q 19.1875 66.015625 17.28125 62.984375 
Q 15.375 59.96875 15.375 54.390625 
Q 15.375 48.78125 17.28125 45.71875 
Q 19.1875 42.671875 22.703125 42.671875 
Q 26.21875 42.671875 28.09375 45.71875 
Q 29.984375 48.78125 29.984375 54.390625 
Q 29.984375 59.96875 28.078125 62.984375 
Q 26.171875 66.015625 22.703125 66.015625 
" id="BitstreamVeraSans-Bold-25"/>
      <path id="BitstreamVeraSans-Bold-20"/>
      <path d="M 51.125 52.984375 
L 51.125 39.703125 
Q 45.515625 42.046875 40.28125 43.21875 
Q 35.0625 44.390625 30.421875 44.390625 
Q 25.4375 44.390625 23.015625 43.140625 
Q 20.609375 41.890625 20.609375 39.3125 
Q 20.609375 37.203125 22.4375 36.078125 
Q 24.265625 34.96875 29 34.421875 
L 32.078125 33.984375 
Q 45.515625 32.28125 50.140625 28.375 
Q 54.78125 24.46875 54.78125 16.109375 
Q 54.78125 7.375 48.328125 2.96875 
Q 41.890625 -1.421875 29.109375 -1.421875 
Q 23.6875 -1.421875 17.890625 -0.5625 
Q 12.109375 0.296875 6 2 
L 6 15.28125 
Q 11.234375 12.75 16.71875 11.46875 
Q 22.21875 10.203125 27.875 10.203125 
Q 33.015625 10.203125 35.59375 11.609375 
Q 38.1875 13.03125 38.1875 15.828125 
Q 38.1875 18.171875 36.40625 19.3125 
Q 34.625 20.453125 29.296875 21.09375 
L 26.21875 21.484375 
Q 14.546875 22.953125 9.859375 26.90625 
Q 5.171875 30.859375 5.171875 38.921875 
Q 5.171875 47.609375 11.125 51.796875 
Q 17.09375 56 29.390625 56 
Q 34.234375 56 39.546875 55.265625 
Q 44.875 54.546875 51.125 52.984375 
" id="BitstreamVeraSans-Bold-73"/>
      <path d="M 49.03125 39.796875 
Q 46.734375 40.875 44.453125 41.375 
Q 42.1875 41.890625 39.890625 41.890625 
Q 33.15625 41.890625 29.515625 37.5625 
Q 25.875 33.25 25.875 25.203125 
L 25.875 0 
L 8.40625 0 
L 8.40625 54.6875 
L 25.875 54.6875 
L 25.875 45.703125 
Q 29.25 51.078125 33.609375 53.53125 
Q 37.984375 56 44.09375 56 
Q 44.96875 56 45.984375 55.921875 
Q 47.015625 55.859375 48.96875 55.609375 
z
" id="BitstreamVeraSans-Bold-72"/>
      <path d="M 44.390625 75.984375 
L 44.390625 64.5 
L 34.71875 64.5 
Q 31 64.5 29.53125 63.15625 
Q 28.078125 61.8125 28.078125 58.5 
L 28.078125 54.6875 
L 43.015625 54.6875 
L 43.015625 42.1875 
L 28.078125 42.1875 
L 28.078125 0 
L 10.59375 0 
L 10.59375 42.1875 
L 1.90625 42.1875 
L 1.90625 54.6875 
L 10.59375 54.6875 
L 10.59375 58.5 
Q 10.59375 67.4375 15.578125 71.703125 
Q 20.5625 75.984375 31 75.984375 
z
" id="BitstreamVeraSans-Bold-66"/>
      <path d="M 45.609375 46.6875 
L 45.609375 75.984375 
L 63.1875 75.984375 
L 63.1875 0 
L 45.609375 0 
L 45.609375 7.90625 
Q 42 3.078125 37.640625 0.828125 
Q 33.296875 -1.421875 27.59375 -1.421875 
Q 17.484375 -1.421875 10.984375 6.609375 
Q 4.5 14.65625 4.5 27.296875 
Q 4.5 39.9375 10.984375 47.96875 
Q 17.484375 56 27.59375 56 
Q 33.25 56 37.625 53.734375 
Q 42 51.46875 45.609375 46.6875 
M 34.078125 11.28125 
Q 39.703125 11.28125 42.65625 15.375 
Q 45.609375 19.484375 45.609375 27.296875 
Q 45.609375 35.109375 42.65625 39.203125 
Q 39.703125 43.3125 34.078125 43.3125 
Q 28.515625 43.3125 25.5625 39.203125 
Q 22.609375 35.109375 22.609375 27.296875 
Q 22.609375 19.484375 25.5625 15.375 
Q 28.515625 11.28125 34.078125 11.28125 
" id="BitstreamVeraSans-Bold-64"/>
      <path d="M 34.421875 43.5 
Q 28.609375 43.5 25.5625 39.328125 
Q 22.515625 35.15625 22.515625 27.296875 
Q 22.515625 19.4375 25.5625 15.25 
Q 28.609375 11.078125 34.421875 11.078125 
Q 40.140625 11.078125 43.15625 15.25 
Q 46.1875 19.4375 46.1875 27.296875 
Q 46.1875 35.15625 43.15625 39.328125 
Q 40.140625 43.5 34.421875 43.5 
M 34.421875 56 
Q 48.53125 56 56.46875 48.375 
Q 64.40625 40.765625 64.40625 27.296875 
Q 64.40625 13.8125 56.46875 6.1875 
Q 48.53125 -1.421875 34.421875 -1.421875 
Q 20.265625 -1.421875 12.28125 6.1875 
Q 4.296875 13.8125 4.296875 27.296875 
Q 4.296875 40.765625 12.28125 48.375 
Q 20.265625 56 34.421875 56 
" id="BitstreamVeraSans-Bold-6f"/>
     </defs>
     <g transform="translate(19.965375 294.7848875)rotate(-90.0)scale(0.168 -0.168)">
      <use xlink:href="#BitstreamVeraSans-Bold-25"/>
      <use x="100.1953125" xlink:href="#BitstreamVeraSans-Bold-64"/>
      <use x="171.77734375" xlink:href="#BitstreamVeraSans-Bold-65"/>
      <use x="239.599609375" xlink:href="#BitstreamVeraSans-Bold-73"/>
      <use x="299.12109375" xlink:href="#BitstreamVeraSans-Bold-20"/>
      <use x="333.935546875" xlink:href="#BitstreamVeraSans-Bold-6f"/>
      <use x="402.63671875" xlink:href="#BitstreamVeraSans-Bold-66"/>
      <use x="446.142578125" xlink:href="#BitstreamVeraSans-Bold-66"/>
      <use x="489.6484375" xlink:href="#BitstreamVeraSans-Bold-72"/>
      <use x="538.96484375" xlink:href="#BitstreamVeraSans-Bold-65"/>
      <use x="606.787109375" xlink:href="#BitstreamVeraSans-Bold-73"/>
     </g>
    </g>
   </g>
   <g id="PolyCollection_1">
    <defs>
     <path d="M 47.72925 -168.68 
L 47.72925 -49.16 
L 58.141261 -49.16 
L 68.2174 -49.16 
L 78.629411 -49.16 
L 89.041422 -49.16 
L 99.117561 -49.16 
L 109.529572 -49.16 
L 119.605711 -49.16 
L 130.017722 -49.16 
L 140.429733 -49.16 
L 149.834129 -49.16 
L 160.24614 -49.16 
L 170.322279 -49.16 
L 180.73429 -49.16 
L 190.81043 -49.16 
L 201.22244 -49.16 
L 211.634451 -49.16 
L 221.71059 -49.16 
L 232.122601 -49.16 
L 242.198741 -49.16 
L 252.610751 -49.16 
L 263.022762 -49.16 
L 272.427159 -49.16 
L 282.83917 -49.16 
L 292.915309 -49.16 
L 303.32732 -49.16 
L 313.403459 -49.16 
L 323.81547 -49.16 
L 334.227481 -49.16 
L 344.30362 -49.16 
L 354.715631 -49.16 
L 364.79177 -49.16 
L 375.203781 -49.16 
L 385.615792 -49.16 
L 395.020188 -49.16 
L 405.432199 -49.16 
L 415.508338 -49.16 
L 425.920349 -49.16 
L 435.996489 -49.16 
L 446.408499 -49.16 
L 456.82051 -49.16 
L 466.896649 -49.16 
L 477.30866 -49.16 
L 487.3848 -49.16 
L 497.79681 -49.16 
L 508.208821 -49.16 
L 517.949089 -49.16 
L 528.3611 -49.16 
L 538.437239 -49.16 
L 548.84925 -49.16 
L 548.84925 -198.56 
L 548.84925 -198.56 
L 538.437239 -200.132632 
L 528.3611 -253.168276 
L 517.949089 -258.32 
L 508.208821 -264.296 
L 497.79681 -202.828571 
L 487.3848 -142.12 
L 477.30866 -182.174194 
L 466.896649 -279.006154 
L 456.82051 -329.772174 
L 446.408499 -250.85 
L 435.996489 -259.04878 
L 425.920349 -261.64 
L 415.508338 -264.296 
L 405.432199 -274.302326 
L 395.020188 -225.057358 
L 385.615792 -246.368 
L 375.203781 -209.568421 
L 364.79177 -200.552 
L 354.715631 -198.56 
L 344.30362 -266.183158 
L 334.227481 -275.618947 
L 323.81547 -330.885714 
L 313.403459 -314.76 
L 303.32732 -300.152 
L 292.915309 -273.26 
L 282.83917 -288.2 
L 272.427159 -268.28 
L 263.022762 -233.036923 
L 252.610751 -202.828571 
L 242.198741 -202.828571 
L 232.122601 -156.728 
L 221.71059 -288.2 
L 211.634451 -407.72 
L 201.22244 -268.28 
L 190.81043 -330.885714 
L 180.73429 -309.930909 
L 170.322279 -279.662857 
L 160.24614 -312.104 
L 149.834129 -228.44 
L 140.429733 -281.169412 
L 130.017722 -288.2 
L 119.605711 -183.62 
L 109.529572 -328.04 
L 99.117561 -309.930909 
L 89.041422 -407.72 
L 78.629411 -362.9 
L 68.2174 -288.2 
L 58.141261 -49.16 
L 47.72925 -168.68 
z
" id="m8715f7e58b"/>
    </defs>
    <g clip-path="url(#pf821a27304)">
     <use style="fill:#ffa500;fill-opacity:0.8;" x="0.0" xlink:href="#m8715f7e58b" y="467.25595"/>
    </g>
   </g>
   <g id="PolyCollection_2">
    <defs>
     <path d="M 47.72925 -168.68 
L 47.72925 -168.68 
L 58.141261 -49.16 
L 68.2174 -288.2 
L 78.629411 -362.9 
L 89.041422 -407.72 
L 99.117561 -309.930909 
L 109.529572 -328.04 
L 119.605711 -183.62 
L 130.017722 -288.2 
L 140.429733 -281.169412 
L 149.834129 -228.44 
L 160.24614 -312.104 
L 170.322279 -279.662857 
L 180.73429 -309.930909 
L 190.81043 -330.885714 
L 201.22244 -268.28 
L 211.634451 -407.72 
L 221.71059 -288.2 
L 232.122601 -156.728 
L 242.198741 -202.828571 
L 252.610751 -202.828571 
L 263.022762 -233.036923 
L 272.427159 -268.28 
L 282.83917 -288.2 
L 292.915309 -273.26 
L 303.32732 -300.152 
L 313.403459 -314.76 
L 323.81547 -330.885714 
L 334.227481 -275.618947 
L 344.30362 -266.183158 
L 354.715631 -198.56 
L 364.79177 -200.552 
L 375.203781 -209.568421 
L 385.615792 -246.368 
L 395.020188 -225.057358 
L 405.432199 -274.302326 
L 415.508338 -264.296 
L 425.920349 -261.64 
L 435.996489 -259.04878 
L 446.408499 -250.85 
L 456.82051 -329.772174 
L 466.896649 -279.006154 
L 477.30866 -182.174194 
L 487.3848 -142.12 
L 497.79681 -202.828571 
L 508.208821 -264.296 
L 517.949089 -258.32 
L 528.3611 -253.168276 
L 538.437239 -200.132632 
L 548.84925 -198.56 
L 548.84925 -288.2 
L 548.84925 -288.2 
L 538.437239 -266.183158 
L 528.3611 -308.806897 
L 517.949089 -324.056 
L 508.208821 -307.3232 
L 497.79681 -246.733878 
L 487.3848 -173.106667 
L 477.30866 -234.223226 
L 466.896649 -324.975385 
L 456.82051 -376.54087 
L 446.408499 -351.695 
L 435.996489 -329.011707 
L 425.920349 -354.6 
L 415.508338 -336.008 
L 405.432199 -324.333953 
L 395.020188 -360.363019 
L 385.615792 -336.008 
L 375.203781 -247.311579 
L 364.79177 -256.328 
L 354.715631 -235.91 
L 344.30362 -313.362105 
L 334.227481 -332.233684 
L 323.81547 -373.571429 
L 313.403459 -367.88 
L 303.32732 -353.936 
L 292.915309 -347.96 
L 282.83917 -328.04 
L 272.427159 -377.84 
L 263.022762 -315.781538 
L 252.610751 -305.274286 
L 242.198741 -213.073143 
L 232.122601 -228.44 
L 221.71059 -377.84 
L 211.634451 -407.72 
L 201.22244 -347.96 
L 190.81043 -356.497143 
L 180.73429 -407.72 
L 170.322279 -356.497143 
L 160.24614 -359.912 
L 149.834129 -258.32 
L 140.429733 -281.169412 
L 130.017722 -318.08 
L 119.605711 -228.44 
L 109.529572 -328.04 
L 99.117561 -407.72 
L 89.041422 -407.72 
L 78.629411 -407.72 
L 68.2174 -288.2 
L 58.141261 -49.16 
L 47.72925 -168.68 
z
" id="m5c8e94c945"/>
    </defs>
    <g clip-path="url(#pf821a27304)">
     <use style="fill:#deb887;fill-opacity:0.8;" x="0.0" xlink:href="#m5c8e94c945" y="467.25595"/>
    </g>
   </g>
   <g id="PolyCollection_3">
    <defs>
     <path d="M 47.72925 -288.2 
L 47.72925 -168.68 
L 58.141261 -49.16 
L 68.2174 -288.2 
L 78.629411 -407.72 
L 89.041422 -407.72 
L 99.117561 -407.72 
L 109.529572 -328.04 
L 119.605711 -228.44 
L 130.017722 -318.08 
L 140.429733 -281.169412 
L 149.834129 -258.32 
L 160.24614 -359.912 
L 170.322279 -356.497143 
L 180.73429 -407.72 
L 190.81043 -356.497143 
L 201.22244 -347.96 
L 211.634451 -407.72 
L 221.71059 -377.84 
L 232.122601 -228.44 
L 242.198741 -213.073143 
L 252.610751 -305.274286 
L 263.022762 -315.781538 
L 272.427159 -377.84 
L 282.83917 -328.04 
L 292.915309 -347.96 
L 303.32732 -353.936 
L 313.403459 -367.88 
L 323.81547 -373.571429 
L 334.227481 -332.233684 
L 344.30362 -313.362105 
L 354.715631 -235.91 
L 364.79177 -256.328 
L 375.203781 -247.311579 
L 385.615792 -336.008 
L 395.020188 -360.363019 
L 405.432199 -324.333953 
L 415.508338 -336.008 
L 425.920349 -354.6 
L 435.996489 -329.011707 
L 446.408499 -351.695 
L 456.82051 -376.54087 
L 466.896649 -324.975385 
L 477.30866 -234.223226 
L 487.3848 -173.106667 
L 497.79681 -246.733878 
L 508.208821 -307.3232 
L 517.949089 -324.056 
L 528.3611 -308.806897 
L 538.437239 -266.183158 
L 548.84925 -288.2 
L 548.84925 -318.08 
L 548.84925 -318.08 
L 538.437239 -303.926316 
L 528.3611 -321.171034 
L 517.949089 -365.888 
L 508.208821 -400.5488 
L 497.79681 -385.767347 
L 487.3848 -398.866667 
L 477.30866 -401.936774 
L 466.896649 -370.944615 
L 456.82051 -392.130435 
L 446.408499 -385.31 
L 435.996489 -337.757073 
L 425.920349 -354.6 
L 415.508338 -346.252571 
L 405.432199 -357.688372 
L 395.020188 -380.658868 
L 385.615792 -389.792 
L 375.203781 -398.284211 
L 364.79177 -407.72 
L 354.715631 -400.25 
L 344.30362 -369.976842 
L 334.227481 -369.976842 
L 323.81547 -373.571429 
L 313.403459 -381.16 
L 303.32732 -353.936 
L 292.915309 -347.96 
L 282.83917 -367.88 
L 272.427159 -387.8 
L 263.022762 -407.72 
L 252.610751 -407.72 
L 242.198741 -407.72 
L 232.122601 -389.792 
L 221.71059 -407.72 
L 211.634451 -407.72 
L 201.22244 -387.8 
L 190.81043 -407.72 
L 180.73429 -407.72 
L 170.322279 -382.108571 
L 160.24614 -383.816 
L 149.834129 -377.84 
L 140.429733 -407.72 
L 130.017722 -407.72 
L 119.605711 -407.72 
L 109.529572 -407.72 
L 99.117561 -407.72 
L 89.041422 -407.72 
L 78.629411 -407.72 
L 68.2174 -288.2 
L 58.141261 -49.16 
L 47.72925 -288.2 
z
" id="m9dddd4a1ed"/>
    </defs>
    <g clip-path="url(#pf821a27304)">
     <use style="fill:#a52a2a;fill-opacity:0.8;" x="0.0" xlink:href="#m9dddd4a1ed" y="467.25595"/>
    </g>
   </g>
   <g id="PolyCollection_4">
    <defs>
     <path d="M 47.72925 -407.72 
L 47.72925 -288.2 
L 58.141261 -49.16 
L 68.2174 -288.2 
L 78.629411 -407.72 
L 89.041422 -407.72 
L 99.117561 -407.72 
L 109.529572 -407.72 
L 119.605711 -407.72 
L 130.017722 -407.72 
L 140.429733 -407.72 
L 149.834129 -377.84 
L 160.24614 -383.816 
L 170.322279 -382.108571 
L 180.73429 -407.72 
L 190.81043 -407.72 
L 201.22244 -387.8 
L 211.634451 -407.72 
L 221.71059 -407.72 
L 232.122601 -389.792 
L 242.198741 -407.72 
L 252.610751 -407.72 
L 263.022762 -407.72 
L 272.427159 -387.8 
L 282.83917 -367.88 
L 292.915309 -347.96 
L 303.32732 -353.936 
L 313.403459 -381.16 
L 323.81547 -373.571429 
L 334.227481 -369.976842 
L 344.30362 -369.976842 
L 354.715631 -400.25 
L 364.79177 -407.72 
L 375.203781 -398.284211 
L 385.615792 -389.792 
L 395.020188 -380.658868 
L 405.432199 -357.688372 
L 415.508338 -346.252571 
L 425.920349 -354.6 
L 435.996489 -337.757073 
L 446.408499 -385.31 
L 456.82051 -392.130435 
L 466.896649 -370.944615 
L 477.30866 -401.936774 
L 487.3848 -398.866667 
L 497.79681 -385.767347 
L 508.208821 -400.5488 
L 517.949089 -365.888 
L 528.3611 -321.171034 
L 538.437239 -303.926316 
L 548.84925 -318.08 
L 548.84925 -407.72 
L 548.84925 -407.72 
L 538.437239 -407.72 
L 528.3611 -407.72 
L 517.949089 -407.72 
L 508.208821 -407.72 
L 497.79681 -407.72 
L 487.3848 -407.72 
L 477.30866 -407.72 
L 466.896649 -407.72 
L 456.82051 -407.72 
L 446.408499 -407.72 
L 435.996489 -407.72 
L 425.920349 -407.72 
L 415.508338 -407.72 
L 405.432199 -407.72 
L 395.020188 -407.72 
L 385.615792 -407.72 
L 375.203781 -407.72 
L 364.79177 -407.72 
L 354.715631 -407.72 
L 344.30362 -407.72 
L 334.227481 -407.72 
L 323.81547 -407.72 
L 313.403459 -407.72 
L 303.32732 -407.72 
L 292.915309 -407.72 
L 282.83917 -407.72 
L 272.427159 -407.72 
L 263.022762 -407.72 
L 252.610751 -407.72 
L 242.198741 -407.72 
L 232.122601 -407.72 
L 221.71059 -407.72 
L 211.634451 -407.72 
L 201.22244 -407.72 
L 190.81043 -407.72 
L 180.73429 -407.72 
L 170.322279 -407.72 
L 160.24614 -407.72 
L 149.834129 -407.72 
L 140.429733 -407.72 
L 130.017722 -407.72 
L 119.605711 -407.72 
L 109.529572 -407.72 
L 99.117561 -407.72 
L 89.041422 -407.72 
L 78.629411 -407.72 
L 68.2174 -407.72 
L 58.141261 -49.16 
L 47.72925 -407.72 
z
" id="m878d99ddb0"/>
    </defs>
    <g clip-path="url(#pf821a27304)">
     <use style="fill:#6495ed;fill-opacity:0.8;" x="0.0" xlink:href="#m878d99ddb0" y="467.25595"/>
    </g>
   </g>
   <g id="patch_3">
    <path d="M 47.72925 59.53595 
L 548.84925 59.53595 
" style="fill:none;stroke:#f0f0f0;stroke-linecap:square;stroke-linejoin:miter;stroke-width:3.0;"/>
   </g>
   <g id="patch_4">
    <path d="M 548.84925 418.09595 
L 548.84925 59.53595 
" style="fill:none;stroke:#f0f0f0;stroke-linecap:square;stroke-linejoin:miter;stroke-width:3.0;"/>
   </g>
   <g id="patch_5">
    <path d="M 47.72925 418.09595 
L 548.84925 418.09595 
" style="fill:none;stroke:#f0f0f0;stroke-linecap:square;stroke-linejoin:miter;stroke-width:3.0;"/>
   </g>
   <g id="patch_6">
    <path d="M 47.72925 418.09595 
L 47.72925 59.53595 
" style="fill:none;stroke:#f0f0f0;stroke-linecap:square;stroke-linejoin:miter;stroke-width:3.0;"/>
   </g>
   <g id="text_17">
    <!-- Évolution de la proportion des types de poste -->
    <defs>
     <path id="BitstreamVeraSans-Roman-20"/>
     <path d="M 30.609375 48.390625 
Q 23.390625 48.390625 19.1875 42.75 
Q 14.984375 37.109375 14.984375 27.296875 
Q 14.984375 17.484375 19.15625 11.84375 
Q 23.34375 6.203125 30.609375 6.203125 
Q 37.796875 6.203125 41.984375 11.859375 
Q 46.1875 17.53125 46.1875 27.296875 
Q 46.1875 37.015625 41.984375 42.703125 
Q 37.796875 48.390625 30.609375 48.390625 
M 30.609375 56 
Q 42.328125 56 49.015625 48.375 
Q 55.71875 40.765625 55.71875 27.296875 
Q 55.71875 13.875 49.015625 6.21875 
Q 42.328125 -1.421875 30.609375 -1.421875 
Q 18.84375 -1.421875 12.171875 6.21875 
Q 5.515625 13.875 5.515625 27.296875 
Q 5.515625 40.765625 12.171875 48.375 
Q 18.84375 56 30.609375 56 
" id="BitstreamVeraSans-Roman-6f"/>
     <path d="M 56.203125 29.59375 
L 56.203125 25.203125 
L 14.890625 25.203125 
Q 15.484375 15.921875 20.484375 11.0625 
Q 25.484375 6.203125 34.421875 6.203125 
Q 39.59375 6.203125 44.453125 7.46875 
Q 49.3125 8.734375 54.109375 11.28125 
L 54.109375 2.78125 
Q 49.265625 0.734375 44.1875 -0.34375 
Q 39.109375 -1.421875 33.890625 -1.421875 
Q 20.796875 -1.421875 13.15625 6.1875 
Q 5.515625 13.8125 5.515625 26.8125 
Q 5.515625 40.234375 12.765625 48.109375 
Q 20.015625 56 32.328125 56 
Q 43.359375 56 49.78125 48.890625 
Q 56.203125 41.796875 56.203125 29.59375 
M 47.21875 32.234375 
Q 47.125 39.59375 43.09375 43.984375 
Q 39.0625 48.390625 32.421875 48.390625 
Q 24.90625 48.390625 20.390625 44.140625 
Q 15.875 39.890625 15.1875 32.171875 
z
" id="BitstreamVeraSans-Roman-65"/>
     <path d="M 9.421875 54.6875 
L 18.40625 54.6875 
L 18.40625 0 
L 9.421875 0 
z
M 9.421875 75.984375 
L 18.40625 75.984375 
L 18.40625 64.59375 
L 9.421875 64.59375 
z
" id="BitstreamVeraSans-Roman-69"/>
     <path d="M 32.171875 -5.078125 
Q 28.375 -14.84375 24.75 -17.8125 
Q 21.140625 -20.796875 15.09375 -20.796875 
L 7.90625 -20.796875 
L 7.90625 -13.28125 
L 13.1875 -13.28125 
Q 16.890625 -13.28125 18.9375 -11.515625 
Q 21 -9.765625 23.484375 -3.21875 
L 25.09375 0.875 
L 2.984375 54.6875 
L 12.5 54.6875 
L 29.59375 11.921875 
L 46.6875 54.6875 
L 56.203125 54.6875 
z
" id="BitstreamVeraSans-Roman-79"/>
     <path d="M 2.984375 54.6875 
L 12.5 54.6875 
L 29.59375 8.796875 
L 46.6875 54.6875 
L 56.203125 54.6875 
L 35.6875 0 
L 23.484375 0 
z
" id="BitstreamVeraSans-Roman-76"/>
     <path d="M 45.40625 46.390625 
L 45.40625 75.984375 
L 54.390625 75.984375 
L 54.390625 0 
L 45.40625 0 
L 45.40625 8.203125 
Q 42.578125 3.328125 38.25 0.953125 
Q 33.9375 -1.421875 27.875 -1.421875 
Q 17.96875 -1.421875 11.734375 6.484375 
Q 5.515625 14.40625 5.515625 27.296875 
Q 5.515625 40.1875 11.734375 48.09375 
Q 17.96875 56 27.875 56 
Q 33.9375 56 38.25 53.625 
Q 42.578125 51.265625 45.40625 46.390625 
M 14.796875 27.296875 
Q 14.796875 17.390625 18.875 11.75 
Q 22.953125 6.109375 30.078125 6.109375 
Q 37.203125 6.109375 41.296875 11.75 
Q 45.40625 17.390625 45.40625 27.296875 
Q 45.40625 37.203125 41.296875 42.84375 
Q 37.203125 48.484375 30.078125 48.484375 
Q 22.953125 48.484375 18.875 42.84375 
Q 14.796875 37.203125 14.796875 27.296875 
" id="BitstreamVeraSans-Roman-64"/>
     <path d="M 18.3125 70.21875 
L 18.3125 54.6875 
L 36.8125 54.6875 
L 36.8125 47.703125 
L 18.3125 47.703125 
L 18.3125 18.015625 
Q 18.3125 11.328125 20.140625 9.421875 
Q 21.96875 7.515625 27.59375 7.515625 
L 36.8125 7.515625 
L 36.8125 0 
L 27.59375 0 
Q 17.1875 0 13.234375 3.875 
Q 9.28125 7.765625 9.28125 18.015625 
L 9.28125 47.703125 
L 2.6875 47.703125 
L 2.6875 54.6875 
L 9.28125 54.6875 
L 9.28125 70.21875 
z
" id="BitstreamVeraSans-Roman-74"/>
     <path d="M 9.8125 72.90625 
L 55.90625 72.90625 
L 55.90625 64.59375 
L 19.671875 64.59375 
L 19.671875 43.015625 
L 54.390625 43.015625 
L 54.390625 34.71875 
L 19.671875 34.71875 
L 19.671875 8.296875 
L 56.78125 8.296875 
L 56.78125 0 
L 9.8125 0 
z
M 35.4375 92.515625 
L 44.46875 92.515625 
L 33.34375 79.625 
L 25.859375 79.625 
z
" id="BitstreamVeraSans-Roman-c9"/>
     <path d="M 41.109375 46.296875 
Q 39.59375 47.171875 37.8125 47.578125 
Q 36.03125 48 33.890625 48 
Q 26.265625 48 22.1875 43.046875 
Q 18.109375 38.09375 18.109375 28.8125 
L 18.109375 0 
L 9.078125 0 
L 9.078125 54.6875 
L 18.109375 54.6875 
L 18.109375 46.1875 
Q 20.953125 51.171875 25.484375 53.578125 
Q 30.03125 56 36.53125 56 
Q 37.453125 56 38.578125 55.875 
Q 39.703125 55.765625 41.0625 55.515625 
z
" id="BitstreamVeraSans-Roman-72"/>
     <path d="M 44.28125 53.078125 
L 44.28125 44.578125 
Q 40.484375 46.53125 36.375 47.5 
Q 32.28125 48.484375 27.875 48.484375 
Q 21.1875 48.484375 17.84375 46.4375 
Q 14.5 44.390625 14.5 40.28125 
Q 14.5 37.15625 16.890625 35.375 
Q 19.28125 33.59375 26.515625 31.984375 
L 29.59375 31.296875 
Q 39.15625 29.25 43.1875 25.515625 
Q 47.21875 21.78125 47.21875 15.09375 
Q 47.21875 7.46875 41.1875 3.015625 
Q 35.15625 -1.421875 24.609375 -1.421875 
Q 20.21875 -1.421875 15.453125 -0.5625 
Q 10.6875 0.296875 5.421875 2 
L 5.421875 11.28125 
Q 10.40625 8.6875 15.234375 7.390625 
Q 20.0625 6.109375 24.8125 6.109375 
Q 31.15625 6.109375 34.5625 8.28125 
Q 37.984375 10.453125 37.984375 14.40625 
Q 37.984375 18.0625 35.515625 20.015625 
Q 33.0625 21.96875 24.703125 23.78125 
L 21.578125 24.515625 
Q 13.234375 26.265625 9.515625 29.90625 
Q 5.8125 33.546875 5.8125 39.890625 
Q 5.8125 47.609375 11.28125 51.796875 
Q 16.75 56 26.8125 56 
Q 31.78125 56 36.171875 55.265625 
Q 40.578125 54.546875 44.28125 53.078125 
" id="BitstreamVeraSans-Roman-73"/>
     <path d="M 18.109375 8.203125 
L 18.109375 -20.796875 
L 9.078125 -20.796875 
L 9.078125 54.6875 
L 18.109375 54.6875 
L 18.109375 46.390625 
Q 20.953125 51.265625 25.265625 53.625 
Q 29.59375 56 35.59375 56 
Q 45.5625 56 51.78125 48.09375 
Q 58.015625 40.1875 58.015625 27.296875 
Q 58.015625 14.40625 51.78125 6.484375 
Q 45.5625 -1.421875 35.59375 -1.421875 
Q 29.59375 -1.421875 25.265625 0.953125 
Q 20.953125 3.328125 18.109375 8.203125 
M 48.6875 27.296875 
Q 48.6875 37.203125 44.609375 42.84375 
Q 40.53125 48.484375 33.40625 48.484375 
Q 26.265625 48.484375 22.1875 42.84375 
Q 18.109375 37.203125 18.109375 27.296875 
Q 18.109375 17.390625 22.1875 11.75 
Q 26.265625 6.109375 33.40625 6.109375 
Q 40.53125 6.109375 44.609375 11.75 
Q 48.6875 17.390625 48.6875 27.296875 
" id="BitstreamVeraSans-Roman-70"/>
    </defs>
    <g transform="translate(68.362875 25.85115)scale(0.2016 -0.2016)">
     <use xlink:href="#BitstreamVeraSans-Roman-c9"/>
     <use x="63.18359375" xlink:href="#BitstreamVeraSans-Roman-76"/>
     <use x="122.36328125" xlink:href="#BitstreamVeraSans-Roman-6f"/>
     <use x="183.544921875" xlink:href="#BitstreamVeraSans-Roman-6c"/>
     <use x="211.328125" xlink:href="#BitstreamVeraSans-Roman-75"/>
     <use x="274.70703125" xlink:href="#BitstreamVeraSans-Roman-74"/>
     <use x="313.916015625" xlink:href="#BitstreamVeraSans-Roman-69"/>
     <use x="341.69921875" xlink:href="#BitstreamVeraSans-Roman-6f"/>
     <use x="402.880859375" xlink:href="#BitstreamVeraSans-Roman-6e"/>
     <use x="466.259765625" xlink:href="#BitstreamVeraSans-Roman-20"/>
     <use x="498.046875" xlink:href="#BitstreamVeraSans-Roman-64"/>
     <use x="561.5234375" xlink:href="#BitstreamVeraSans-Roman-65"/>
     <use x="623.046875" xlink:href="#BitstreamVeraSans-Roman-20"/>
     <use x="654.833984375" xlink:href="#BitstreamVeraSans-Roman-6c"/>
     <use x="682.6171875" xlink:href="#BitstreamVeraSans-Roman-61"/>
     <use x="743.896484375" xlink:href="#BitstreamVeraSans-Roman-20"/>
     <use x="775.68359375" xlink:href="#BitstreamVeraSans-Roman-70"/>
     <use x="839.16015625" xlink:href="#BitstreamVeraSans-Roman-72"/>
     <use x="880.2421875" xlink:href="#BitstreamVeraSans-Roman-6f"/>
     <use x="941.423828125" xlink:href="#BitstreamVeraSans-Roman-70"/>
     <use x="1004.90039062" xlink:href="#BitstreamVeraSans-Roman-6f"/>
     <use x="1066.08203125" xlink:href="#BitstreamVeraSans-Roman-72"/>
     <use x="1107.1953125" xlink:href="#BitstreamVeraSans-Roman-74"/>
     <use x="1146.40429688" xlink:href="#BitstreamVeraSans-Roman-69"/>
     <use x="1174.1875" xlink:href="#BitstreamVeraSans-Roman-6f"/>
     <use x="1235.36914062" xlink:href="#BitstreamVeraSans-Roman-6e"/>
     <use x="1298.74804688" xlink:href="#BitstreamVeraSans-Roman-20"/>
     <use x="1330.53515625" xlink:href="#BitstreamVeraSans-Roman-64"/>
     <use x="1394.01171875" xlink:href="#BitstreamVeraSans-Roman-65"/>
     <use x="1455.53515625" xlink:href="#BitstreamVeraSans-Roman-73"/>
     <use x="1507.63476562" xlink:href="#BitstreamVeraSans-Roman-20"/>
     <use x="1539.421875" xlink:href="#BitstreamVeraSans-Roman-74"/>
     <use x="1578.63085938" xlink:href="#BitstreamVeraSans-Roman-79"/>
     <use x="1637.81054688" xlink:href="#BitstreamVeraSans-Roman-70"/>
     <use x="1701.28710938" xlink:href="#BitstreamVeraSans-Roman-65"/>
     <use x="1762.81054688" xlink:href="#BitstreamVeraSans-Roman-73"/>
     <use x="1814.91015625" xlink:href="#BitstreamVeraSans-Roman-20"/>
     <use x="1846.69726562" xlink:href="#BitstreamVeraSans-Roman-64"/>
     <use x="1910.17382812" xlink:href="#BitstreamVeraSans-Roman-65"/>
     <use x="1971.69726562" xlink:href="#BitstreamVeraSans-Roman-20"/>
     <use x="2003.484375" xlink:href="#BitstreamVeraSans-Roman-70"/>
     <use x="2066.9609375" xlink:href="#BitstreamVeraSans-Roman-6f"/>
     <use x="2128.14257812" xlink:href="#BitstreamVeraSans-Roman-73"/>
     <use x="2180.2421875" xlink:href="#BitstreamVeraSans-Roman-74"/>
     <use x="2219.45117188" xlink:href="#BitstreamVeraSans-Roman-65"/>
    </g>
   </g>
  </g>
  <g id="legend_1">
   <g id="patch_7">
    <path d="M 575.345625 303.09445 
L 679.44 303.09445 
Q 682.8 303.09445 682.8 299.73445 
L 682.8 202.77745 
Q 682.8 199.41745 679.44 199.41745 
L 575.345625 199.41745 
Q 571.985625 199.41745 571.985625 202.77745 
L 571.985625 299.73445 
Q 571.985625 303.09445 575.345625 303.09445 
z
" style="fill:#f0f0f0;"/>
   </g>
   <g id="patch_8">
    <path d="M 578.705625 218.902825 
L 612.305625 218.902825 
L 612.305625 207.142825 
L 578.705625 207.142825 
z
" style="fill:#ffa500;fill-opacity:0.8;"/>
   </g>
   <g id="text_18">
    <!-- CDD -->
    <defs>
     <path d="M 19.671875 64.796875 
L 19.671875 8.109375 
L 31.59375 8.109375 
Q 46.6875 8.109375 53.6875 14.9375 
Q 60.6875 21.78125 60.6875 36.53125 
Q 60.6875 51.171875 53.6875 57.984375 
Q 46.6875 64.796875 31.59375 64.796875 
z
M 9.8125 72.90625 
L 30.078125 72.90625 
Q 51.265625 72.90625 61.171875 64.09375 
Q 71.09375 55.28125 71.09375 36.53125 
Q 71.09375 17.671875 61.125 8.828125 
Q 51.171875 0 30.078125 0 
L 9.8125 0 
z
" id="BitstreamVeraSans-Roman-44"/>
     <path d="M 64.40625 67.28125 
L 64.40625 56.890625 
Q 59.421875 61.53125 53.78125 63.8125 
Q 48.140625 66.109375 41.796875 66.109375 
Q 29.296875 66.109375 22.65625 58.46875 
Q 16.015625 50.828125 16.015625 36.375 
Q 16.015625 21.96875 22.65625 14.328125 
Q 29.296875 6.6875 41.796875 6.6875 
Q 48.140625 6.6875 53.78125 8.984375 
Q 59.421875 11.28125 64.40625 15.921875 
L 64.40625 5.609375 
Q 59.234375 2.09375 53.4375 0.328125 
Q 47.65625 -1.421875 41.21875 -1.421875 
Q 24.65625 -1.421875 15.125 8.703125 
Q 5.609375 18.84375 5.609375 36.375 
Q 5.609375 53.953125 15.125 64.078125 
Q 24.65625 74.21875 41.21875 74.21875 
Q 47.75 74.21875 53.53125 72.484375 
Q 59.328125 70.75 64.40625 67.28125 
" id="BitstreamVeraSans-Roman-43"/>
    </defs>
    <g transform="translate(625.745625 218.902825)scale(0.168 -0.168)">
     <use xlink:href="#BitstreamVeraSans-Roman-43"/>
     <use x="69.82421875" xlink:href="#BitstreamVeraSans-Roman-44"/>
     <use x="146.826171875" xlink:href="#BitstreamVeraSans-Roman-44"/>
    </g>
   </g>
   <g id="patch_9">
    <path d="M 578.705625 243.562075 
L 612.305625 243.562075 
L 612.305625 231.802075 
L 578.705625 231.802075 
z
" style="fill:#deb887;fill-opacity:0.8;"/>
   </g>
   <g id="text_19">
    <!-- CDI -->
    <defs>
     <path d="M 9.8125 72.90625 
L 19.671875 72.90625 
L 19.671875 0 
L 9.8125 0 
z
" id="BitstreamVeraSans-Roman-49"/>
    </defs>
    <g transform="translate(625.745625 243.562075)scale(0.168 -0.168)">
     <use xlink:href="#BitstreamVeraSans-Roman-43"/>
     <use x="69.82421875" xlink:href="#BitstreamVeraSans-Roman-44"/>
     <use x="146.826171875" xlink:href="#BitstreamVeraSans-Roman-49"/>
    </g>
   </g>
   <g id="patch_10">
    <path d="M 578.705625 268.221325 
L 612.305625 268.221325 
L 612.305625 256.461325 
L 578.705625 256.461325 
z
" style="fill:#a52a2a;fill-opacity:0.8;"/>
   </g>
   <g id="text_20">
    <!-- Stage -->
    <defs>
     <path d="M 45.40625 27.984375 
Q 45.40625 37.75 41.375 43.109375 
Q 37.359375 48.484375 30.078125 48.484375 
Q 22.859375 48.484375 18.828125 43.109375 
Q 14.796875 37.75 14.796875 27.984375 
Q 14.796875 18.265625 18.828125 12.890625 
Q 22.859375 7.515625 30.078125 7.515625 
Q 37.359375 7.515625 41.375 12.890625 
Q 45.40625 18.265625 45.40625 27.984375 
M 54.390625 6.78125 
Q 54.390625 -7.171875 48.1875 -13.984375 
Q 42 -20.796875 29.203125 -20.796875 
Q 24.46875 -20.796875 20.265625 -20.09375 
Q 16.0625 -19.390625 12.109375 -17.921875 
L 12.109375 -9.1875 
Q 16.0625 -11.328125 19.921875 -12.34375 
Q 23.78125 -13.375 27.78125 -13.375 
Q 36.625 -13.375 41.015625 -8.765625 
Q 45.40625 -4.15625 45.40625 5.171875 
L 45.40625 9.625 
Q 42.625 4.78125 38.28125 2.390625 
Q 33.9375 0 27.875 0 
Q 17.828125 0 11.671875 7.65625 
Q 5.515625 15.328125 5.515625 27.984375 
Q 5.515625 40.671875 11.671875 48.328125 
Q 17.828125 56 27.875 56 
Q 33.9375 56 38.28125 53.609375 
Q 42.625 51.21875 45.40625 46.390625 
L 45.40625 54.6875 
L 54.390625 54.6875 
z
" id="BitstreamVeraSans-Roman-67"/>
     <path d="M 53.515625 70.515625 
L 53.515625 60.890625 
Q 47.90625 63.578125 42.921875 64.890625 
Q 37.9375 66.21875 33.296875 66.21875 
Q 25.25 66.21875 20.875 63.09375 
Q 16.5 59.96875 16.5 54.203125 
Q 16.5 49.359375 19.40625 46.890625 
Q 22.3125 44.4375 30.421875 42.921875 
L 36.375 41.703125 
Q 47.40625 39.59375 52.65625 34.296875 
Q 57.90625 29 57.90625 20.125 
Q 57.90625 9.515625 50.796875 4.046875 
Q 43.703125 -1.421875 29.984375 -1.421875 
Q 24.8125 -1.421875 18.96875 -0.25 
Q 13.140625 0.921875 6.890625 3.21875 
L 6.890625 13.375 
Q 12.890625 10.015625 18.65625 8.296875 
Q 24.421875 6.59375 29.984375 6.59375 
Q 38.421875 6.59375 43.015625 9.90625 
Q 47.609375 13.234375 47.609375 19.390625 
Q 47.609375 24.75 44.3125 27.78125 
Q 41.015625 30.8125 33.5 32.328125 
L 27.484375 33.5 
Q 16.453125 35.6875 11.515625 40.375 
Q 6.59375 45.0625 6.59375 53.421875 
Q 6.59375 63.09375 13.40625 68.65625 
Q 20.21875 74.21875 32.171875 74.21875 
Q 37.3125 74.21875 42.625 73.28125 
Q 47.953125 72.359375 53.515625 70.515625 
" id="BitstreamVeraSans-Roman-53"/>
    </defs>
    <g transform="translate(625.745625 268.221325)scale(0.168 -0.168)">
     <use xlink:href="#BitstreamVeraSans-Roman-53"/>
     <use x="63.4765625" xlink:href="#BitstreamVeraSans-Roman-74"/>
     <use x="102.685546875" xlink:href="#BitstreamVeraSans-Roman-61"/>
     <use x="163.96484375" xlink:href="#BitstreamVeraSans-Roman-67"/>
     <use x="227.44140625" xlink:href="#BitstreamVeraSans-Roman-65"/>
    </g>
   </g>
   <g id="patch_11">
    <path d="M 578.705625 292.880575 
L 612.305625 292.880575 
L 612.305625 281.120575 
L 578.705625 281.120575 
z
" style="fill:#6495ed;fill-opacity:0.8;"/>
   </g>
   <g id="text_21">
    <!-- Thèse -->
    <defs>
     <path d="M 56.203125 29.59375 
L 56.203125 25.203125 
L 14.890625 25.203125 
Q 15.484375 15.921875 20.484375 11.0625 
Q 25.484375 6.203125 34.421875 6.203125 
Q 39.59375 6.203125 44.453125 7.46875 
Q 49.3125 8.734375 54.109375 11.28125 
L 54.109375 2.78125 
Q 49.265625 0.734375 44.1875 -0.34375 
Q 39.109375 -1.421875 33.890625 -1.421875 
Q 20.796875 -1.421875 13.15625 6.1875 
Q 5.515625 13.8125 5.515625 26.8125 
Q 5.515625 40.234375 12.765625 48.109375 
Q 20.015625 56 32.328125 56 
Q 43.359375 56 49.78125 48.890625 
Q 56.203125 41.796875 56.203125 29.59375 
M 47.21875 32.234375 
Q 47.125 39.59375 43.09375 43.984375 
Q 39.0625 48.390625 32.421875 48.390625 
Q 24.90625 48.390625 20.390625 44.140625 
Q 15.875 39.890625 15.1875 32.171875 
z
M 24.671875 79.984375 
L 38.4375 61.71875 
L 30.96875 61.71875 
L 15.046875 79.984375 
z
" id="BitstreamVeraSans-Roman-e8"/>
     <path d="M -0.296875 72.90625 
L 61.375 72.90625 
L 61.375 64.59375 
L 35.5 64.59375 
L 35.5 0 
L 25.59375 0 
L 25.59375 64.59375 
L -0.296875 64.59375 
z
" id="BitstreamVeraSans-Roman-54"/>
     <path d="M 54.890625 33.015625 
L 54.890625 0 
L 45.90625 0 
L 45.90625 32.71875 
Q 45.90625 40.484375 42.875 44.328125 
Q 39.84375 48.1875 33.796875 48.1875 
Q 26.515625 48.1875 22.3125 43.546875 
Q 18.109375 38.921875 18.109375 30.90625 
L 18.109375 0 
L 9.078125 0 
L 9.078125 75.984375 
L 18.109375 75.984375 
L 18.109375 46.1875 
Q 21.34375 51.125 25.703125 53.5625 
Q 30.078125 56 35.796875 56 
Q 45.21875 56 50.046875 50.171875 
Q 54.890625 44.34375 54.890625 33.015625 
" id="BitstreamVeraSans-Roman-68"/>
    </defs>
    <g transform="translate(625.745625 292.880575)scale(0.168 -0.168)">
     <use xlink:href="#BitstreamVeraSans-Roman-54"/>
     <use x="61.083984375" xlink:href="#BitstreamVeraSans-Roman-68"/>
     <use x="124.462890625" xlink:href="#BitstreamVeraSans-Roman-e8"/>
     <use x="185.986328125" xlink:href="#BitstreamVeraSans-Roman-73"/>
     <use x="238.0859375" xlink:href="#BitstreamVeraSans-Roman-65"/>
    </g>
   </g>
  </g>
 </g>
 <defs>
  <clipPath id="pf821a27304">
   <rect height="358.56" width="501.12" x="47.72925" y="59.53595"/>
  </clipPath>
 </defs>
</svg>
