<?xml version="1.0" encoding="utf-8" standalone="no"?>
<!DOCTYPE svg PUBLIC "-//W3C//DTD SVG 1.1//EN"
  "http://www.w3.org/Graphics/SVG/1.1/DTD/svg11.dtd">
<!-- Created with matplotlib (http://matplotlib.org/) -->
<svg height="455pt" version="1.1" viewBox="0 0 592 455" width="592pt" xmlns="http://www.w3.org/2000/svg" xmlns:xlink="http://www.w3.org/1999/xlink">
 <defs>
  <style type="text/css">
*{stroke-linecap:butt;stroke-linejoin:round;stroke-miterlimit:100000;}
  </style>
 </defs>
 <g id="figure_1">
  <g id="patch_1">
   <path d="M 0 455.7714 
L 592.08165 455.7714 
L 592.08165 0 
L 0 0 
z
" style="fill:#f0f0f0;"/>
  </g>
  <g id="axes_1">
   <g id="patch_2">
    <path d="M 45.480825 415.56965 
L 546.600825 415.56965 
L 546.600825 57.00965 
L 45.480825 57.00965 
z
" style="fill:#f0f0f0;"/>
   </g>
   <g id="matplotlib.axis_1">
    <g id="xtick_1">
     <g id="line2d_1">
      <path clip-path="url(#pe7968e0b62)" d="M 137.523274 415.56965 
L 137.523274 57.00965 
" style="fill:none;stroke:#cbcbcb;"/>
     </g>
     <g id="line2d_2">
      <defs>
       <path d="M 0 0 
L 0 0 
" id="md7981508ce" style="stroke:#000000;stroke-width:0.5;"/>
      </defs>
      <g>
       <use style="stroke:#000000;stroke-width:0.5;" x="137.52327398" xlink:href="#md7981508ce" y="415.56965"/>
      </g>
     </g>
     <g id="line2d_3">
      <g>
       <use style="stroke:#000000;stroke-width:0.5;" x="137.52327398" xlink:href="#md7981508ce" y="57.00965"/>
      </g>
     </g>
     <g id="text_1">
      <!-- 2013 -->
      <defs>
       <path d="M 19.1875 8.296875 
L 53.609375 8.296875 
L 53.609375 0 
L 7.328125 0 
L 7.328125 8.296875 
Q 12.9375 14.109375 22.625 23.890625 
Q 32.328125 33.6875 34.8125 36.53125 
Q 39.546875 41.84375 41.421875 45.53125 
Q 43.3125 49.21875 43.3125 52.78125 
Q 43.3125 58.59375 39.234375 62.25 
Q 35.15625 65.921875 28.609375 65.921875 
Q 23.96875 65.921875 18.8125 64.3125 
Q 13.671875 62.703125 7.8125 59.421875 
L 7.8125 69.390625 
Q 13.765625 71.78125 18.9375 73 
Q 24.125 74.21875 28.421875 74.21875 
Q 39.75 74.21875 46.484375 68.546875 
Q 53.21875 62.890625 53.21875 53.421875 
Q 53.21875 48.921875 51.53125 44.890625 
Q 49.859375 40.875 45.40625 35.40625 
Q 44.1875 33.984375 37.640625 27.21875 
Q 31.109375 20.453125 19.1875 8.296875 
" id="BitstreamVeraSans-Roman-32"/>
       <path d="M 40.578125 39.3125 
Q 47.65625 37.796875 51.625 33 
Q 55.609375 28.21875 55.609375 21.1875 
Q 55.609375 10.40625 48.1875 4.484375 
Q 40.765625 -1.421875 27.09375 -1.421875 
Q 22.515625 -1.421875 17.65625 -0.515625 
Q 12.796875 0.390625 7.625 2.203125 
L 7.625 11.71875 
Q 11.71875 9.328125 16.59375 8.109375 
Q 21.484375 6.890625 26.8125 6.890625 
Q 36.078125 6.890625 40.9375 10.546875 
Q 45.796875 14.203125 45.796875 21.1875 
Q 45.796875 27.640625 41.28125 31.265625 
Q 36.765625 34.90625 28.71875 34.90625 
L 20.21875 34.90625 
L 20.21875 43.015625 
L 29.109375 43.015625 
Q 36.375 43.015625 40.234375 45.921875 
Q 44.09375 48.828125 44.09375 54.296875 
Q 44.09375 59.90625 40.109375 62.90625 
Q 36.140625 65.921875 28.71875 65.921875 
Q 24.65625 65.921875 20.015625 65.03125 
Q 15.375 64.15625 9.8125 62.3125 
L 9.8125 71.09375 
Q 15.4375 72.65625 20.34375 73.4375 
Q 25.25 74.21875 29.59375 74.21875 
Q 40.828125 74.21875 47.359375 69.109375 
Q 53.90625 64.015625 53.90625 55.328125 
Q 53.90625 49.265625 50.4375 45.09375 
Q 46.96875 40.921875 40.578125 39.3125 
" id="BitstreamVeraSans-Roman-33"/>
       <path d="M 31.78125 66.40625 
Q 24.171875 66.40625 20.328125 58.90625 
Q 16.5 51.421875 16.5 36.375 
Q 16.5 21.390625 20.328125 13.890625 
Q 24.171875 6.390625 31.78125 6.390625 
Q 39.453125 6.390625 43.28125 13.890625 
Q 47.125 21.390625 47.125 36.375 
Q 47.125 51.421875 43.28125 58.90625 
Q 39.453125 66.40625 31.78125 66.40625 
M 31.78125 74.21875 
Q 44.046875 74.21875 50.515625 64.515625 
Q 56.984375 54.828125 56.984375 36.375 
Q 56.984375 17.96875 50.515625 8.265625 
Q 44.046875 -1.421875 31.78125 -1.421875 
Q 19.53125 -1.421875 13.0625 8.265625 
Q 6.59375 17.96875 6.59375 36.375 
Q 6.59375 54.828125 13.0625 64.515625 
Q 19.53125 74.21875 31.78125 74.21875 
" id="BitstreamVeraSans-Roman-30"/>
       <path d="M 12.40625 8.296875 
L 28.515625 8.296875 
L 28.515625 63.921875 
L 10.984375 60.40625 
L 10.984375 69.390625 
L 28.421875 72.90625 
L 38.28125 72.90625 
L 38.28125 8.296875 
L 54.390625 8.296875 
L 54.390625 0 
L 12.40625 0 
z
" id="BitstreamVeraSans-Roman-31"/>
      </defs>
      <g transform="translate(127.34327398 425.6484)scale(0.08 -0.08)">
       <use xlink:href="#BitstreamVeraSans-Roman-32"/>
       <use x="63.623046875" xlink:href="#BitstreamVeraSans-Roman-30"/>
       <use x="127.24609375" xlink:href="#BitstreamVeraSans-Roman-31"/>
       <use x="190.869140625" xlink:href="#BitstreamVeraSans-Roman-33"/>
      </g>
     </g>
    </g>
    <g id="xtick_2">
     <g id="line2d_4">
      <path clip-path="url(#pe7968e0b62)" d="M 260.246539 415.56965 
L 260.246539 57.00965 
" style="fill:none;stroke:#cbcbcb;"/>
     </g>
     <g id="line2d_5">
      <g>
       <use style="stroke:#000000;stroke-width:0.5;" x="260.246539286" xlink:href="#md7981508ce" y="415.56965"/>
      </g>
     </g>
     <g id="line2d_6">
      <g>
       <use style="stroke:#000000;stroke-width:0.5;" x="260.246539286" xlink:href="#md7981508ce" y="57.00965"/>
      </g>
     </g>
     <g id="text_2">
      <!-- 2014 -->
      <defs>
       <path d="M 37.796875 64.3125 
L 12.890625 25.390625 
L 37.796875 25.390625 
z
M 35.203125 72.90625 
L 47.609375 72.90625 
L 47.609375 25.390625 
L 58.015625 25.390625 
L 58.015625 17.1875 
L 47.609375 17.1875 
L 47.609375 0 
L 37.796875 0 
L 37.796875 17.1875 
L 4.890625 17.1875 
L 4.890625 26.703125 
z
" id="BitstreamVeraSans-Roman-34"/>
      </defs>
      <g transform="translate(250.066539286 425.6484)scale(0.08 -0.08)">
       <use xlink:href="#BitstreamVeraSans-Roman-32"/>
       <use x="63.623046875" xlink:href="#BitstreamVeraSans-Roman-30"/>
       <use x="127.24609375" xlink:href="#BitstreamVeraSans-Roman-31"/>
       <use x="190.869140625" xlink:href="#BitstreamVeraSans-Roman-34"/>
      </g>
     </g>
    </g>
    <g id="xtick_3">
     <g id="line2d_7">
      <path clip-path="url(#pe7968e0b62)" d="M 382.969805 415.56965 
L 382.969805 57.00965 
" style="fill:none;stroke:#cbcbcb;"/>
     </g>
     <g id="line2d_8">
      <g>
       <use style="stroke:#000000;stroke-width:0.5;" x="382.969804592" xlink:href="#md7981508ce" y="415.56965"/>
      </g>
     </g>
     <g id="line2d_9">
      <g>
       <use style="stroke:#000000;stroke-width:0.5;" x="382.969804592" xlink:href="#md7981508ce" y="57.00965"/>
      </g>
     </g>
     <g id="text_3">
      <!-- 2015 -->
      <defs>
       <path d="M 10.796875 72.90625 
L 49.515625 72.90625 
L 49.515625 64.59375 
L 19.828125 64.59375 
L 19.828125 46.734375 
Q 21.96875 47.46875 24.109375 47.828125 
Q 26.265625 48.1875 28.421875 48.1875 
Q 40.625 48.1875 47.75 41.5 
Q 54.890625 34.8125 54.890625 23.390625 
Q 54.890625 11.625 47.5625 5.09375 
Q 40.234375 -1.421875 26.90625 -1.421875 
Q 22.3125 -1.421875 17.546875 -0.640625 
Q 12.796875 0.140625 7.71875 1.703125 
L 7.71875 11.625 
Q 12.109375 9.234375 16.796875 8.0625 
Q 21.484375 6.890625 26.703125 6.890625 
Q 35.15625 6.890625 40.078125 11.328125 
Q 45.015625 15.765625 45.015625 23.390625 
Q 45.015625 31 40.078125 35.4375 
Q 35.15625 39.890625 26.703125 39.890625 
Q 22.75 39.890625 18.8125 39.015625 
Q 14.890625 38.140625 10.796875 36.28125 
z
" id="BitstreamVeraSans-Roman-35"/>
      </defs>
      <g transform="translate(372.789804592 425.6484)scale(0.08 -0.08)">
       <use xlink:href="#BitstreamVeraSans-Roman-32"/>
       <use x="63.623046875" xlink:href="#BitstreamVeraSans-Roman-30"/>
       <use x="127.24609375" xlink:href="#BitstreamVeraSans-Roman-31"/>
       <use x="190.869140625" xlink:href="#BitstreamVeraSans-Roman-35"/>
      </g>
     </g>
    </g>
    <g id="xtick_4">
     <g id="line2d_10">
      <path clip-path="url(#pe7968e0b62)" d="M 505.69307 415.56965 
L 505.69307 57.00965 
" style="fill:none;stroke:#cbcbcb;"/>
     </g>
     <g id="line2d_11">
      <g>
       <use style="stroke:#000000;stroke-width:0.5;" x="505.693069898" xlink:href="#md7981508ce" y="415.56965"/>
      </g>
     </g>
     <g id="line2d_12">
      <g>
       <use style="stroke:#000000;stroke-width:0.5;" x="505.693069898" xlink:href="#md7981508ce" y="57.00965"/>
      </g>
     </g>
     <g id="text_4">
      <!-- 2016 -->
      <defs>
       <path d="M 33.015625 40.375 
Q 26.375 40.375 22.484375 35.828125 
Q 18.609375 31.296875 18.609375 23.390625 
Q 18.609375 15.53125 22.484375 10.953125 
Q 26.375 6.390625 33.015625 6.390625 
Q 39.65625 6.390625 43.53125 10.953125 
Q 47.40625 15.53125 47.40625 23.390625 
Q 47.40625 31.296875 43.53125 35.828125 
Q 39.65625 40.375 33.015625 40.375 
M 52.59375 71.296875 
L 52.59375 62.3125 
Q 48.875 64.0625 45.09375 64.984375 
Q 41.3125 65.921875 37.59375 65.921875 
Q 27.828125 65.921875 22.671875 59.328125 
Q 17.53125 52.734375 16.796875 39.40625 
Q 19.671875 43.65625 24.015625 45.921875 
Q 28.375 48.1875 33.59375 48.1875 
Q 44.578125 48.1875 50.953125 41.515625 
Q 57.328125 34.859375 57.328125 23.390625 
Q 57.328125 12.15625 50.6875 5.359375 
Q 44.046875 -1.421875 33.015625 -1.421875 
Q 20.359375 -1.421875 13.671875 8.265625 
Q 6.984375 17.96875 6.984375 36.375 
Q 6.984375 53.65625 15.1875 63.9375 
Q 23.390625 74.21875 37.203125 74.21875 
Q 40.921875 74.21875 44.703125 73.484375 
Q 48.484375 72.75 52.59375 71.296875 
" id="BitstreamVeraSans-Roman-36"/>
      </defs>
      <g transform="translate(495.513069898 425.6484)scale(0.08 -0.08)">
       <use xlink:href="#BitstreamVeraSans-Roman-32"/>
       <use x="63.623046875" xlink:href="#BitstreamVeraSans-Roman-30"/>
       <use x="127.24609375" xlink:href="#BitstreamVeraSans-Roman-31"/>
       <use x="190.869140625" xlink:href="#BitstreamVeraSans-Roman-36"/>
      </g>
     </g>
    </g>
    <g id="xtick_5">
     <g id="line2d_13">
      <g>
       <use style="stroke:#000000;stroke-width:0.5;" x="45.480825" xlink:href="#md7981508ce" y="415.56965"/>
      </g>
     </g>
     <g id="line2d_14">
      <g>
       <use style="stroke:#000000;stroke-width:0.5;" x="45.480825" xlink:href="#md7981508ce" y="57.00965"/>
      </g>
     </g>
    </g>
    <g id="xtick_6">
     <g id="line2d_15">
      <g>
       <use style="stroke:#000000;stroke-width:0.5;" x="76.1616413265" xlink:href="#md7981508ce" y="415.56965"/>
      </g>
     </g>
     <g id="line2d_16">
      <g>
       <use style="stroke:#000000;stroke-width:0.5;" x="76.1616413265" xlink:href="#md7981508ce" y="57.00965"/>
      </g>
     </g>
    </g>
    <g id="xtick_7">
     <g id="line2d_17">
      <g>
       <use style="stroke:#000000;stroke-width:0.5;" x="106.842457653" xlink:href="#md7981508ce" y="415.56965"/>
      </g>
     </g>
     <g id="line2d_18">
      <g>
       <use style="stroke:#000000;stroke-width:0.5;" x="106.842457653" xlink:href="#md7981508ce" y="57.00965"/>
      </g>
     </g>
    </g>
    <g id="xtick_8">
     <g id="line2d_19">
      <g>
       <use style="stroke:#000000;stroke-width:0.5;" x="137.52327398" xlink:href="#md7981508ce" y="415.56965"/>
      </g>
     </g>
     <g id="line2d_20">
      <g>
       <use style="stroke:#000000;stroke-width:0.5;" x="137.52327398" xlink:href="#md7981508ce" y="57.00965"/>
      </g>
     </g>
    </g>
    <g id="xtick_9">
     <g id="line2d_21">
      <g>
       <use style="stroke:#000000;stroke-width:0.5;" x="168.204090306" xlink:href="#md7981508ce" y="415.56965"/>
      </g>
     </g>
     <g id="line2d_22">
      <g>
       <use style="stroke:#000000;stroke-width:0.5;" x="168.204090306" xlink:href="#md7981508ce" y="57.00965"/>
      </g>
     </g>
    </g>
    <g id="xtick_10">
     <g id="line2d_23">
      <g>
       <use style="stroke:#000000;stroke-width:0.5;" x="198.884906633" xlink:href="#md7981508ce" y="415.56965"/>
      </g>
     </g>
     <g id="line2d_24">
      <g>
       <use style="stroke:#000000;stroke-width:0.5;" x="198.884906633" xlink:href="#md7981508ce" y="57.00965"/>
      </g>
     </g>
    </g>
    <g id="xtick_11">
     <g id="line2d_25">
      <g>
       <use style="stroke:#000000;stroke-width:0.5;" x="229.565722959" xlink:href="#md7981508ce" y="415.56965"/>
      </g>
     </g>
     <g id="line2d_26">
      <g>
       <use style="stroke:#000000;stroke-width:0.5;" x="229.565722959" xlink:href="#md7981508ce" y="57.00965"/>
      </g>
     </g>
    </g>
    <g id="xtick_12">
     <g id="line2d_27">
      <g>
       <use style="stroke:#000000;stroke-width:0.5;" x="260.246539286" xlink:href="#md7981508ce" y="415.56965"/>
      </g>
     </g>
     <g id="line2d_28">
      <g>
       <use style="stroke:#000000;stroke-width:0.5;" x="260.246539286" xlink:href="#md7981508ce" y="57.00965"/>
      </g>
     </g>
    </g>
    <g id="xtick_13">
     <g id="line2d_29">
      <g>
       <use style="stroke:#000000;stroke-width:0.5;" x="290.927355612" xlink:href="#md7981508ce" y="415.56965"/>
      </g>
     </g>
     <g id="line2d_30">
      <g>
       <use style="stroke:#000000;stroke-width:0.5;" x="290.927355612" xlink:href="#md7981508ce" y="57.00965"/>
      </g>
     </g>
    </g>
    <g id="xtick_14">
     <g id="line2d_31">
      <g>
       <use style="stroke:#000000;stroke-width:0.5;" x="321.608171939" xlink:href="#md7981508ce" y="415.56965"/>
      </g>
     </g>
     <g id="line2d_32">
      <g>
       <use style="stroke:#000000;stroke-width:0.5;" x="321.608171939" xlink:href="#md7981508ce" y="57.00965"/>
      </g>
     </g>
    </g>
    <g id="xtick_15">
     <g id="line2d_33">
      <g>
       <use style="stroke:#000000;stroke-width:0.5;" x="352.288988265" xlink:href="#md7981508ce" y="415.56965"/>
      </g>
     </g>
     <g id="line2d_34">
      <g>
       <use style="stroke:#000000;stroke-width:0.5;" x="352.288988265" xlink:href="#md7981508ce" y="57.00965"/>
      </g>
     </g>
    </g>
    <g id="xtick_16">
     <g id="line2d_35">
      <g>
       <use style="stroke:#000000;stroke-width:0.5;" x="382.969804592" xlink:href="#md7981508ce" y="415.56965"/>
      </g>
     </g>
     <g id="line2d_36">
      <g>
       <use style="stroke:#000000;stroke-width:0.5;" x="382.969804592" xlink:href="#md7981508ce" y="57.00965"/>
      </g>
     </g>
    </g>
    <g id="xtick_17">
     <g id="line2d_37">
      <g>
       <use style="stroke:#000000;stroke-width:0.5;" x="413.650620918" xlink:href="#md7981508ce" y="415.56965"/>
      </g>
     </g>
     <g id="line2d_38">
      <g>
       <use style="stroke:#000000;stroke-width:0.5;" x="413.650620918" xlink:href="#md7981508ce" y="57.00965"/>
      </g>
     </g>
    </g>
    <g id="xtick_18">
     <g id="line2d_39">
      <g>
       <use style="stroke:#000000;stroke-width:0.5;" x="444.331437245" xlink:href="#md7981508ce" y="415.56965"/>
      </g>
     </g>
     <g id="line2d_40">
      <g>
       <use style="stroke:#000000;stroke-width:0.5;" x="444.331437245" xlink:href="#md7981508ce" y="57.00965"/>
      </g>
     </g>
    </g>
    <g id="xtick_19">
     <g id="line2d_41">
      <g>
       <use style="stroke:#000000;stroke-width:0.5;" x="475.012253571" xlink:href="#md7981508ce" y="415.56965"/>
      </g>
     </g>
     <g id="line2d_42">
      <g>
       <use style="stroke:#000000;stroke-width:0.5;" x="475.012253571" xlink:href="#md7981508ce" y="57.00965"/>
      </g>
     </g>
    </g>
    <g id="xtick_20">
     <g id="line2d_43">
      <g>
       <use style="stroke:#000000;stroke-width:0.5;" x="505.693069898" xlink:href="#md7981508ce" y="415.56965"/>
      </g>
     </g>
     <g id="line2d_44">
      <g>
       <use style="stroke:#000000;stroke-width:0.5;" x="505.693069898" xlink:href="#md7981508ce" y="57.00965"/>
      </g>
     </g>
    </g>
    <g id="xtick_21">
     <g id="line2d_45">
      <g>
       <use style="stroke:#000000;stroke-width:0.5;" x="536.373886224" xlink:href="#md7981508ce" y="415.56965"/>
      </g>
     </g>
     <g id="line2d_46">
      <g>
       <use style="stroke:#000000;stroke-width:0.5;" x="536.373886224" xlink:href="#md7981508ce" y="57.00965"/>
      </g>
     </g>
    </g>
    <g id="text_5">
     <!-- Date -->
     <defs>
      <path d="M 32.90625 24.609375 
Q 27.4375 24.609375 24.671875 22.75 
Q 21.921875 20.90625 21.921875 17.28125 
Q 21.921875 13.96875 24.140625 12.078125 
Q 26.375 10.203125 30.328125 10.203125 
Q 35.25 10.203125 38.625 13.734375 
Q 42 17.28125 42 22.609375 
L 42 24.609375 
z
M 59.625 31.203125 
L 59.625 0 
L 42 0 
L 42 8.109375 
Q 38.484375 3.125 34.078125 0.84375 
Q 29.6875 -1.421875 23.390625 -1.421875 
Q 14.890625 -1.421875 9.59375 3.53125 
Q 4.296875 8.5 4.296875 16.40625 
Q 4.296875 26.03125 10.90625 30.515625 
Q 17.53125 35.015625 31.6875 35.015625 
L 42 35.015625 
L 42 36.375 
Q 42 40.53125 38.71875 42.453125 
Q 35.453125 44.390625 28.515625 44.390625 
Q 22.90625 44.390625 18.0625 43.265625 
Q 13.234375 42.140625 9.078125 39.890625 
L 9.078125 53.21875 
Q 14.703125 54.59375 20.359375 55.296875 
Q 26.03125 56 31.6875 56 
Q 46.484375 56 53.046875 50.171875 
Q 59.625 44.34375 59.625 31.203125 
" id="BitstreamVeraSans-Bold-61"/>
      <path d="M 27.984375 58.6875 
L 27.984375 14.203125 
L 34.71875 14.203125 
Q 46.234375 14.203125 52.3125 19.921875 
Q 58.40625 25.640625 58.40625 36.53125 
Q 58.40625 47.359375 52.34375 53.015625 
Q 46.296875 58.6875 34.71875 58.6875 
z
M 9.1875 72.90625 
L 29 72.90625 
Q 45.609375 72.90625 53.734375 70.53125 
Q 61.859375 68.171875 67.671875 62.5 
Q 72.796875 57.5625 75.28125 51.109375 
Q 77.78125 44.671875 77.78125 36.53125 
Q 77.78125 28.265625 75.28125 21.796875 
Q 72.796875 15.328125 67.671875 10.40625 
Q 61.8125 4.734375 53.609375 2.359375 
Q 45.40625 0 29 0 
L 9.1875 0 
z
" id="BitstreamVeraSans-Bold-44"/>
      <path d="M 27.484375 70.21875 
L 27.484375 54.6875 
L 45.515625 54.6875 
L 45.515625 42.1875 
L 27.484375 42.1875 
L 27.484375 19 
Q 27.484375 15.1875 29 13.84375 
Q 30.515625 12.5 35.015625 12.5 
L 44 12.5 
L 44 0 
L 29 0 
Q 18.65625 0 14.328125 4.3125 
Q 10.015625 8.640625 10.015625 19 
L 10.015625 42.1875 
L 1.3125 42.1875 
L 1.3125 54.6875 
L 10.015625 54.6875 
L 10.015625 70.21875 
z
" id="BitstreamVeraSans-Bold-74"/>
      <path d="M 62.984375 27.484375 
L 62.984375 22.515625 
L 22.125 22.515625 
Q 22.75 16.359375 26.5625 13.28125 
Q 30.375 10.203125 37.203125 10.203125 
Q 42.71875 10.203125 48.5 11.84375 
Q 54.296875 13.484375 60.40625 16.796875 
L 60.40625 3.328125 
Q 54.203125 0.984375 48 -0.21875 
Q 41.796875 -1.421875 35.59375 -1.421875 
Q 20.75 -1.421875 12.515625 6.125 
Q 4.296875 13.671875 4.296875 27.296875 
Q 4.296875 40.671875 12.375 48.328125 
Q 20.453125 56 34.625 56 
Q 47.515625 56 55.25 48.234375 
Q 62.984375 40.484375 62.984375 27.484375 
M 45.015625 33.296875 
Q 45.015625 38.28125 42.109375 41.328125 
Q 39.203125 44.390625 34.515625 44.390625 
Q 29.4375 44.390625 26.265625 41.53125 
Q 23.09375 38.671875 22.3125 33.296875 
z
" id="BitstreamVeraSans-Bold-65"/>
     </defs>
     <g transform="translate(273.686325 445.077525)scale(0.168 -0.168)">
      <use xlink:href="#BitstreamVeraSans-Bold-44"/>
      <use x="83.0078125" xlink:href="#BitstreamVeraSans-Bold-61"/>
      <use x="150.48828125" xlink:href="#BitstreamVeraSans-Bold-74"/>
      <use x="198.291015625" xlink:href="#BitstreamVeraSans-Bold-65"/>
     </g>
    </g>
   </g>
   <g id="matplotlib.axis_2">
    <g id="ytick_1">
     <g id="line2d_47">
      <path clip-path="url(#pe7968e0b62)" d="M 45.480825 415.56965 
L 546.600825 415.56965 
" style="fill:none;stroke:#cbcbcb;"/>
     </g>
     <g id="line2d_48">
      <g>
       <use style="stroke:#000000;stroke-width:0.5;" x="45.480825" xlink:href="#md7981508ce" y="415.56965"/>
      </g>
     </g>
     <g id="line2d_49">
      <g>
       <use style="stroke:#000000;stroke-width:0.5;" x="546.600825" xlink:href="#md7981508ce" y="415.56965"/>
      </g>
     </g>
     <g id="text_6">
      <!-- 0 -->
      <g transform="translate(36.390825 417.77715)scale(0.08 -0.08)">
       <use xlink:href="#BitstreamVeraSans-Roman-30"/>
      </g>
     </g>
    </g>
    <g id="ytick_2">
     <g id="line2d_50">
      <path clip-path="url(#pe7968e0b62)" d="M 45.480825 370.74965 
L 546.600825 370.74965 
" style="fill:none;stroke:#cbcbcb;"/>
     </g>
     <g id="line2d_51">
      <g>
       <use style="stroke:#000000;stroke-width:0.5;" x="45.480825" xlink:href="#md7981508ce" y="370.74965"/>
      </g>
     </g>
     <g id="line2d_52">
      <g>
       <use style="stroke:#000000;stroke-width:0.5;" x="546.600825" xlink:href="#md7981508ce" y="370.74965"/>
      </g>
     </g>
     <g id="text_7">
      <!-- 5 -->
      <g transform="translate(36.390825 372.95715)scale(0.08 -0.08)">
       <use xlink:href="#BitstreamVeraSans-Roman-35"/>
      </g>
     </g>
    </g>
    <g id="ytick_3">
     <g id="line2d_53">
      <path clip-path="url(#pe7968e0b62)" d="M 45.480825 325.92965 
L 546.600825 325.92965 
" style="fill:none;stroke:#cbcbcb;"/>
     </g>
     <g id="line2d_54">
      <g>
       <use style="stroke:#000000;stroke-width:0.5;" x="45.480825" xlink:href="#md7981508ce" y="325.92965"/>
      </g>
     </g>
     <g id="line2d_55">
      <g>
       <use style="stroke:#000000;stroke-width:0.5;" x="546.600825" xlink:href="#md7981508ce" y="325.92965"/>
      </g>
     </g>
     <g id="text_8">
      <!-- 10 -->
      <g transform="translate(31.300825 328.13715)scale(0.08 -0.08)">
       <use xlink:href="#BitstreamVeraSans-Roman-31"/>
       <use x="63.623046875" xlink:href="#BitstreamVeraSans-Roman-30"/>
      </g>
     </g>
    </g>
    <g id="ytick_4">
     <g id="line2d_56">
      <path clip-path="url(#pe7968e0b62)" d="M 45.480825 281.10965 
L 546.600825 281.10965 
" style="fill:none;stroke:#cbcbcb;"/>
     </g>
     <g id="line2d_57">
      <g>
       <use style="stroke:#000000;stroke-width:0.5;" x="45.480825" xlink:href="#md7981508ce" y="281.10965"/>
      </g>
     </g>
     <g id="line2d_58">
      <g>
       <use style="stroke:#000000;stroke-width:0.5;" x="546.600825" xlink:href="#md7981508ce" y="281.10965"/>
      </g>
     </g>
     <g id="text_9">
      <!-- 15 -->
      <g transform="translate(31.300825 283.31715)scale(0.08 -0.08)">
       <use xlink:href="#BitstreamVeraSans-Roman-31"/>
       <use x="63.623046875" xlink:href="#BitstreamVeraSans-Roman-35"/>
      </g>
     </g>
    </g>
    <g id="ytick_5">
     <g id="line2d_59">
      <path clip-path="url(#pe7968e0b62)" d="M 45.480825 236.28965 
L 546.600825 236.28965 
" style="fill:none;stroke:#cbcbcb;"/>
     </g>
     <g id="line2d_60">
      <g>
       <use style="stroke:#000000;stroke-width:0.5;" x="45.480825" xlink:href="#md7981508ce" y="236.28965"/>
      </g>
     </g>
     <g id="line2d_61">
      <g>
       <use style="stroke:#000000;stroke-width:0.5;" x="546.600825" xlink:href="#md7981508ce" y="236.28965"/>
      </g>
     </g>
     <g id="text_10">
      <!-- 20 -->
      <g transform="translate(31.300825 238.49715)scale(0.08 -0.08)">
       <use xlink:href="#BitstreamVeraSans-Roman-32"/>
       <use x="63.623046875" xlink:href="#BitstreamVeraSans-Roman-30"/>
      </g>
     </g>
    </g>
    <g id="ytick_6">
     <g id="line2d_62">
      <path clip-path="url(#pe7968e0b62)" d="M 45.480825 191.46965 
L 546.600825 191.46965 
" style="fill:none;stroke:#cbcbcb;"/>
     </g>
     <g id="line2d_63">
      <g>
       <use style="stroke:#000000;stroke-width:0.5;" x="45.480825" xlink:href="#md7981508ce" y="191.46965"/>
      </g>
     </g>
     <g id="line2d_64">
      <g>
       <use style="stroke:#000000;stroke-width:0.5;" x="546.600825" xlink:href="#md7981508ce" y="191.46965"/>
      </g>
     </g>
     <g id="text_11">
      <!-- 25 -->
      <g transform="translate(31.300825 193.67715)scale(0.08 -0.08)">
       <use xlink:href="#BitstreamVeraSans-Roman-32"/>
       <use x="63.623046875" xlink:href="#BitstreamVeraSans-Roman-35"/>
      </g>
     </g>
    </g>
    <g id="ytick_7">
     <g id="line2d_65">
      <path clip-path="url(#pe7968e0b62)" d="M 45.480825 146.64965 
L 546.600825 146.64965 
" style="fill:none;stroke:#cbcbcb;"/>
     </g>
     <g id="line2d_66">
      <g>
       <use style="stroke:#000000;stroke-width:0.5;" x="45.480825" xlink:href="#md7981508ce" y="146.64965"/>
      </g>
     </g>
     <g id="line2d_67">
      <g>
       <use style="stroke:#000000;stroke-width:0.5;" x="546.600825" xlink:href="#md7981508ce" y="146.64965"/>
      </g>
     </g>
     <g id="text_12">
      <!-- 30 -->
      <g transform="translate(31.300825 148.85715)scale(0.08 -0.08)">
       <use xlink:href="#BitstreamVeraSans-Roman-33"/>
       <use x="63.623046875" xlink:href="#BitstreamVeraSans-Roman-30"/>
      </g>
     </g>
    </g>
    <g id="ytick_8">
     <g id="line2d_68">
      <path clip-path="url(#pe7968e0b62)" d="M 45.480825 101.82965 
L 546.600825 101.82965 
" style="fill:none;stroke:#cbcbcb;"/>
     </g>
     <g id="line2d_69">
      <g>
       <use style="stroke:#000000;stroke-width:0.5;" x="45.480825" xlink:href="#md7981508ce" y="101.82965"/>
      </g>
     </g>
     <g id="line2d_70">
      <g>
       <use style="stroke:#000000;stroke-width:0.5;" x="546.600825" xlink:href="#md7981508ce" y="101.82965"/>
      </g>
     </g>
     <g id="text_13">
      <!-- 35 -->
      <g transform="translate(31.300825 104.03715)scale(0.08 -0.08)">
       <use xlink:href="#BitstreamVeraSans-Roman-33"/>
       <use x="63.623046875" xlink:href="#BitstreamVeraSans-Roman-35"/>
      </g>
     </g>
    </g>
    <g id="ytick_9">
     <g id="line2d_71">
      <path clip-path="url(#pe7968e0b62)" d="M 45.480825 57.00965 
L 546.600825 57.00965 
" style="fill:none;stroke:#cbcbcb;"/>
     </g>
     <g id="line2d_72">
      <g>
       <use style="stroke:#000000;stroke-width:0.5;" x="45.480825" xlink:href="#md7981508ce" y="57.00965"/>
      </g>
     </g>
     <g id="line2d_73">
      <g>
       <use style="stroke:#000000;stroke-width:0.5;" x="546.600825" xlink:href="#md7981508ce" y="57.00965"/>
      </g>
     </g>
     <g id="text_14">
      <!-- 40 -->
      <g transform="translate(31.300825 59.21715)scale(0.08 -0.08)">
       <use xlink:href="#BitstreamVeraSans-Roman-34"/>
       <use x="63.623046875" xlink:href="#BitstreamVeraSans-Roman-30"/>
      </g>
     </g>
    </g>
    <g id="text_15">
     <!-- Nombre d'offres -->
     <defs>
      <path d="M 21.09375 72.90625 
L 21.09375 45.796875 
L 9.515625 45.796875 
L 9.515625 72.90625 
z
" id="BitstreamVeraSans-Bold-27"/>
      <path id="BitstreamVeraSans-Bold-20"/>
      <path d="M 37.5 11.28125 
Q 43.109375 11.28125 46.0625 15.375 
Q 49.03125 19.484375 49.03125 27.296875 
Q 49.03125 35.109375 46.0625 39.203125 
Q 43.109375 43.3125 37.5 43.3125 
Q 31.890625 43.3125 28.875 39.1875 
Q 25.875 35.0625 25.875 27.296875 
Q 25.875 19.53125 28.875 15.40625 
Q 31.890625 11.28125 37.5 11.28125 
M 25.875 46.6875 
Q 29.5 51.46875 33.890625 53.734375 
Q 38.28125 56 44 56 
Q 54.109375 56 60.59375 47.96875 
Q 67.09375 39.9375 67.09375 27.296875 
Q 67.09375 14.65625 60.59375 6.609375 
Q 54.109375 -1.421875 44 -1.421875 
Q 38.28125 -1.421875 33.890625 0.84375 
Q 29.5 3.125 25.875 7.90625 
L 25.875 0 
L 8.40625 0 
L 8.40625 75.984375 
L 25.875 75.984375 
z
" id="BitstreamVeraSans-Bold-62"/>
      <path d="M 51.125 52.984375 
L 51.125 39.703125 
Q 45.515625 42.046875 40.28125 43.21875 
Q 35.0625 44.390625 30.421875 44.390625 
Q 25.4375 44.390625 23.015625 43.140625 
Q 20.609375 41.890625 20.609375 39.3125 
Q 20.609375 37.203125 22.4375 36.078125 
Q 24.265625 34.96875 29 34.421875 
L 32.078125 33.984375 
Q 45.515625 32.28125 50.140625 28.375 
Q 54.78125 24.46875 54.78125 16.109375 
Q 54.78125 7.375 48.328125 2.96875 
Q 41.890625 -1.421875 29.109375 -1.421875 
Q 23.6875 -1.421875 17.890625 -0.5625 
Q 12.109375 0.296875 6 2 
L 6 15.28125 
Q 11.234375 12.75 16.71875 11.46875 
Q 22.21875 10.203125 27.875 10.203125 
Q 33.015625 10.203125 35.59375 11.609375 
Q 38.1875 13.03125 38.1875 15.828125 
Q 38.1875 18.171875 36.40625 19.3125 
Q 34.625 20.453125 29.296875 21.09375 
L 26.21875 21.484375 
Q 14.546875 22.953125 9.859375 26.90625 
Q 5.171875 30.859375 5.171875 38.921875 
Q 5.171875 47.609375 11.125 51.796875 
Q 17.09375 56 29.390625 56 
Q 34.234375 56 39.546875 55.265625 
Q 44.875 54.546875 51.125 52.984375 
" id="BitstreamVeraSans-Bold-73"/>
      <path d="M 49.03125 39.796875 
Q 46.734375 40.875 44.453125 41.375 
Q 42.1875 41.890625 39.890625 41.890625 
Q 33.15625 41.890625 29.515625 37.5625 
Q 25.875 33.25 25.875 25.203125 
L 25.875 0 
L 8.40625 0 
L 8.40625 54.6875 
L 25.875 54.6875 
L 25.875 45.703125 
Q 29.25 51.078125 33.609375 53.53125 
Q 37.984375 56 44.09375 56 
Q 44.96875 56 45.984375 55.921875 
Q 47.015625 55.859375 48.96875 55.609375 
z
" id="BitstreamVeraSans-Bold-72"/>
      <path d="M 44.390625 75.984375 
L 44.390625 64.5 
L 34.71875 64.5 
Q 31 64.5 29.53125 63.15625 
Q 28.078125 61.8125 28.078125 58.5 
L 28.078125 54.6875 
L 43.015625 54.6875 
L 43.015625 42.1875 
L 28.078125 42.1875 
L 28.078125 0 
L 10.59375 0 
L 10.59375 42.1875 
L 1.90625 42.1875 
L 1.90625 54.6875 
L 10.59375 54.6875 
L 10.59375 58.5 
Q 10.59375 67.4375 15.578125 71.703125 
Q 20.5625 75.984375 31 75.984375 
z
" id="BitstreamVeraSans-Bold-66"/>
      <path d="M 45.609375 46.6875 
L 45.609375 75.984375 
L 63.1875 75.984375 
L 63.1875 0 
L 45.609375 0 
L 45.609375 7.90625 
Q 42 3.078125 37.640625 0.828125 
Q 33.296875 -1.421875 27.59375 -1.421875 
Q 17.484375 -1.421875 10.984375 6.609375 
Q 4.5 14.65625 4.5 27.296875 
Q 4.5 39.9375 10.984375 47.96875 
Q 17.484375 56 27.59375 56 
Q 33.25 56 37.625 53.734375 
Q 42 51.46875 45.609375 46.6875 
M 34.078125 11.28125 
Q 39.703125 11.28125 42.65625 15.375 
Q 45.609375 19.484375 45.609375 27.296875 
Q 45.609375 35.109375 42.65625 39.203125 
Q 39.703125 43.3125 34.078125 43.3125 
Q 28.515625 43.3125 25.5625 39.203125 
Q 22.609375 35.109375 22.609375 27.296875 
Q 22.609375 19.484375 25.5625 15.375 
Q 28.515625 11.28125 34.078125 11.28125 
" id="BitstreamVeraSans-Bold-64"/>
      <path d="M 9.1875 72.90625 
L 30.171875 72.90625 
L 56.6875 22.90625 
L 56.6875 72.90625 
L 74.515625 72.90625 
L 74.515625 0 
L 53.515625 0 
L 27 50 
L 27 0 
L 9.1875 0 
z
" id="BitstreamVeraSans-Bold-4e"/>
      <path d="M 34.421875 43.5 
Q 28.609375 43.5 25.5625 39.328125 
Q 22.515625 35.15625 22.515625 27.296875 
Q 22.515625 19.4375 25.5625 15.25 
Q 28.609375 11.078125 34.421875 11.078125 
Q 40.140625 11.078125 43.15625 15.25 
Q 46.1875 19.4375 46.1875 27.296875 
Q 46.1875 35.15625 43.15625 39.328125 
Q 40.140625 43.5 34.421875 43.5 
M 34.421875 56 
Q 48.53125 56 56.46875 48.375 
Q 64.40625 40.765625 64.40625 27.296875 
Q 64.40625 13.8125 56.46875 6.1875 
Q 48.53125 -1.421875 34.421875 -1.421875 
Q 20.265625 -1.421875 12.28125 6.1875 
Q 4.296875 13.8125 4.296875 27.296875 
Q 4.296875 40.765625 12.28125 48.375 
Q 20.265625 56 34.421875 56 
" id="BitstreamVeraSans-Bold-6f"/>
      <path d="M 59.078125 45.609375 
Q 62.40625 50.6875 66.96875 53.34375 
Q 71.53125 56 77 56 
Q 86.421875 56 91.359375 50.1875 
Q 96.296875 44.390625 96.296875 33.296875 
L 96.296875 0 
L 78.71875 0 
L 78.71875 28.515625 
Q 78.765625 29.15625 78.78125 29.828125 
Q 78.8125 30.515625 78.8125 31.78125 
Q 78.8125 37.59375 77.09375 40.203125 
Q 75.390625 42.828125 71.578125 42.828125 
Q 66.609375 42.828125 63.890625 38.71875 
Q 61.1875 34.625 61.078125 26.859375 
L 61.078125 0 
L 43.5 0 
L 43.5 28.515625 
Q 43.5 37.59375 41.9375 40.203125 
Q 40.375 42.828125 36.375 42.828125 
Q 31.34375 42.828125 28.609375 38.703125 
Q 25.875 34.578125 25.875 26.90625 
L 25.875 0 
L 8.296875 0 
L 8.296875 54.6875 
L 25.875 54.6875 
L 25.875 46.6875 
Q 29.109375 51.3125 33.28125 53.65625 
Q 37.453125 56 42.484375 56 
Q 48.140625 56 52.484375 53.265625 
Q 56.84375 50.53125 59.078125 45.609375 
" id="BitstreamVeraSans-Bold-6d"/>
     </defs>
     <g transform="translate(22.80695 313.1220875)rotate(-90.0)scale(0.168 -0.168)">
      <use xlink:href="#BitstreamVeraSans-Bold-4e"/>
      <use x="83.69140625" xlink:href="#BitstreamVeraSans-Bold-6f"/>
      <use x="152.392578125" xlink:href="#BitstreamVeraSans-Bold-6d"/>
      <use x="256.591796875" xlink:href="#BitstreamVeraSans-Bold-62"/>
      <use x="328.173828125" xlink:href="#BitstreamVeraSans-Bold-72"/>
      <use x="377.490234375" xlink:href="#BitstreamVeraSans-Bold-65"/>
      <use x="445.3125" xlink:href="#BitstreamVeraSans-Bold-20"/>
      <use x="480.126953125" xlink:href="#BitstreamVeraSans-Bold-64"/>
      <use x="551.708984375" xlink:href="#BitstreamVeraSans-Bold-27"/>
      <use x="582.32421875" xlink:href="#BitstreamVeraSans-Bold-6f"/>
      <use x="651.025390625" xlink:href="#BitstreamVeraSans-Bold-66"/>
      <use x="694.53125" xlink:href="#BitstreamVeraSans-Bold-66"/>
      <use x="738.037109375" xlink:href="#BitstreamVeraSans-Bold-72"/>
      <use x="787.353515625" xlink:href="#BitstreamVeraSans-Bold-65"/>
      <use x="855.17578125" xlink:href="#BitstreamVeraSans-Bold-73"/>
     </g>
    </g>
   </g>
   <g id="PolyCollection_1">
    <defs>
     <path d="M 45.480825 -40.20175 
L 45.480825 -40.20175 
L 55.707764 -40.20175 
L 65.934703 -40.20175 
L 76.161641 -40.20175 
L 86.38858 -40.20175 
L 96.615519 -40.20175 
L 106.842458 -40.20175 
L 117.069396 -40.20175 
L 127.296335 -40.20175 
L 137.523274 -40.20175 
L 147.750213 -40.20175 
L 157.977152 -40.20175 
L 168.20409 -40.20175 
L 178.431029 -40.20175 
L 188.657968 -40.20175 
L 198.884907 -40.20175 
L 209.111845 -40.20175 
L 219.338784 -40.20175 
L 229.565723 -40.20175 
L 239.792662 -40.20175 
L 250.019601 -40.20175 
L 260.246539 -40.20175 
L 270.473478 -40.20175 
L 280.700417 -40.20175 
L 290.927356 -40.20175 
L 301.154294 -40.20175 
L 311.381233 -40.20175 
L 321.608172 -40.20175 
L 331.835111 -40.20175 
L 342.062049 -40.20175 
L 352.288988 -40.20175 
L 362.515927 -40.20175 
L 372.742866 -40.20175 
L 382.969805 -40.20175 
L 393.196743 -40.20175 
L 403.423682 -40.20175 
L 413.650621 -40.20175 
L 423.87756 -40.20175 
L 434.104498 -40.20175 
L 444.331437 -40.20175 
L 454.558376 -40.20175 
L 464.785315 -40.20175 
L 475.012254 -40.20175 
L 485.239192 -40.20175 
L 495.466131 -40.20175 
L 505.69307 -40.20175 
L 515.920009 -40.20175 
L 526.146947 -40.20175 
L 536.373886 -40.20175 
L 546.600825 -40.20175 
L 546.600825 -76.05775 
L 546.600825 -76.05775 
L 536.373886 -93.98575 
L 526.146947 -210.51775 
L 515.920009 -165.69775 
L 505.69307 -138.80575 
L 495.466131 -120.87775 
L 485.239192 -85.02175 
L 475.012254 -76.05775 
L 464.785315 -129.84175 
L 454.558376 -111.91375 
L 444.331437 -129.84175 
L 434.104498 -165.69775 
L 423.87756 -93.98575 
L 413.650621 -120.87775 
L 403.423682 -138.80575 
L 393.196743 -183.62575 
L 382.969805 -183.62575 
L 372.742866 -93.98575 
L 362.515927 -111.91375 
L 352.288988 -129.84175 
L 342.062049 -102.94975 
L 331.835111 -102.94975 
L 321.608172 -174.66175 
L 311.381233 -120.87775 
L 301.154294 -93.98575 
L 290.927356 -58.12975 
L 280.700417 -76.05775 
L 270.473478 -138.80575 
L 260.246539 -67.09375 
L 250.019601 -85.02175 
L 239.792662 -102.94975 
L 229.565723 -85.02175 
L 219.338784 -102.94975 
L 209.111845 -129.84175 
L 198.884907 -76.05775 
L 188.657968 -76.05775 
L 178.431029 -93.98575 
L 168.20409 -102.94975 
L 157.977152 -102.94975 
L 147.750213 -67.09375 
L 137.523274 -93.98575 
L 127.296335 -58.12975 
L 117.069396 -40.20175 
L 106.842458 -85.02175 
L 96.615519 -85.02175 
L 86.38858 -40.20175 
L 76.161641 -67.09375 
L 65.934703 -58.12975 
L 55.707764 -40.20175 
L 45.480825 -40.20175 
z
" id="m87b4282a44"/>
    </defs>
    <g clip-path="url(#pe7968e0b62)">
     <use style="fill:#ffa500;" x="0.0" xlink:href="#m87b4282a44" y="455.7714"/>
    </g>
   </g>
   <g id="PolyCollection_2">
    <defs>
     <path d="M 45.480825 -49.16575 
L 45.480825 -40.20175 
L 55.707764 -40.20175 
L 65.934703 -58.12975 
L 76.161641 -67.09375 
L 86.38858 -40.20175 
L 96.615519 -85.02175 
L 106.842458 -85.02175 
L 117.069396 -40.20175 
L 127.296335 -58.12975 
L 137.523274 -93.98575 
L 147.750213 -67.09375 
L 157.977152 -102.94975 
L 168.20409 -102.94975 
L 178.431029 -93.98575 
L 188.657968 -76.05775 
L 198.884907 -76.05775 
L 209.111845 -129.84175 
L 219.338784 -102.94975 
L 229.565723 -85.02175 
L 239.792662 -102.94975 
L 250.019601 -85.02175 
L 260.246539 -67.09375 
L 270.473478 -138.80575 
L 280.700417 -76.05775 
L 290.927356 -58.12975 
L 301.154294 -93.98575 
L 311.381233 -120.87775 
L 321.608172 -174.66175 
L 331.835111 -102.94975 
L 342.062049 -102.94975 
L 352.288988 -129.84175 
L 362.515927 -111.91375 
L 372.742866 -93.98575 
L 382.969805 -183.62575 
L 393.196743 -183.62575 
L 403.423682 -138.80575 
L 413.650621 -120.87775 
L 423.87756 -93.98575 
L 434.104498 -165.69775 
L 444.331437 -129.84175 
L 454.558376 -111.91375 
L 464.785315 -129.84175 
L 475.012254 -76.05775 
L 485.239192 -85.02175 
L 495.466131 -120.87775 
L 505.69307 -138.80575 
L 515.920009 -165.69775 
L 526.146947 -210.51775 
L 536.373886 -93.98575 
L 546.600825 -76.05775 
L 546.600825 -156.73375 
L 546.600825 -156.73375 
L 536.373886 -201.55375 
L 526.146947 -353.94175 
L 515.920009 -380.83375 
L 505.69307 -282.22975 
L 495.466131 -228.44575 
L 485.239192 -219.48175 
L 475.012254 -273.26575 
L 464.785315 -273.26575 
L 454.558376 -210.51775 
L 444.331437 -210.51775 
L 434.104498 -291.19375 
L 423.87756 -219.48175 
L 413.650621 -228.44575 
L 403.423682 -309.12175 
L 393.196743 -371.86975 
L 382.969805 -291.19375 
L 372.742866 -210.51775 
L 362.515927 -246.37375 
L 352.288988 -219.48175 
L 342.062049 -246.37375 
L 331.835111 -156.73375 
L 321.608172 -300.15775 
L 311.381233 -246.37375 
L 301.154294 -156.73375 
L 290.927356 -165.69775 
L 280.700417 -102.94975 
L 270.473478 -291.19375 
L 260.246539 -255.33775 
L 250.019601 -165.69775 
L 239.792662 -156.73375 
L 229.565723 -85.02175 
L 219.338784 -174.66175 
L 209.111845 -165.69775 
L 198.884907 -147.76975 
L 188.657968 -120.87775 
L 178.431029 -111.91375 
L 168.20409 -111.91375 
L 157.977152 -129.84175 
L 147.750213 -102.94975 
L 137.523274 -129.84175 
L 127.296335 -93.98575 
L 117.069396 -67.09375 
L 106.842458 -93.98575 
L 96.615519 -111.91375 
L 86.38858 -58.12975 
L 76.161641 -102.94975 
L 65.934703 -93.98575 
L 55.707764 -40.20175 
L 45.480825 -49.16575 
z
" id="m6d3084d96d"/>
    </defs>
    <g clip-path="url(#pe7968e0b62)">
     <use style="fill:#deb887;" x="0.0" xlink:href="#m6d3084d96d" y="455.7714"/>
    </g>
   </g>
   <g id="line2d_74">
    <path clip-path="url(#pe7968e0b62)" d="M 45.480825 415.56965 
L 55.707764 415.56965 
L 65.934703 397.64165 
L 76.161641 388.67765 
L 86.38858 415.56965 
L 96.615519 370.74965 
L 106.842458 370.74965 
L 117.069396 415.56965 
L 127.296335 397.64165 
L 137.523274 361.78565 
L 147.750213 388.67765 
L 157.977152 352.82165 
L 168.20409 352.82165 
L 178.431029 361.78565 
L 188.657968 379.71365 
L 198.884907 379.71365 
L 209.111845 325.92965 
L 219.338784 352.82165 
L 229.565723 370.74965 
L 239.792662 352.82165 
L 250.019601 370.74965 
L 260.246539 388.67765 
L 270.473478 316.96565 
L 280.700417 379.71365 
L 290.927356 397.64165 
L 301.154294 361.78565 
L 311.381233 334.89365 
L 321.608172 281.10965 
L 331.835111 352.82165 
L 342.062049 352.82165 
L 352.288988 325.92965 
L 362.515927 343.85765 
L 372.742866 361.78565 
L 382.969805 272.14565 
L 393.196743 272.14565 
L 403.423682 316.96565 
L 413.650621 334.89365 
L 423.87756 361.78565 
L 434.104498 290.07365 
L 444.331437 325.92965 
L 454.558376 343.85765 
L 464.785315 325.92965 
L 475.012254 379.71365 
L 485.239192 370.74965 
L 495.466131 334.89365 
L 505.69307 316.96565 
L 515.920009 290.07365 
L 526.146947 245.25365 
L 536.373886 361.78565 
L 546.600825 379.71365 
" style="fill:none;"/>
   </g>
   <g id="line2d_75">
    <path clip-path="url(#pe7968e0b62)" d="M 45.480825 406.60565 
L 55.707764 415.56965 
L 65.934703 361.78565 
L 76.161641 352.82165 
L 86.38858 397.64165 
L 96.615519 343.85765 
L 106.842458 361.78565 
L 117.069396 388.67765 
L 127.296335 361.78565 
L 137.523274 325.92965 
L 147.750213 352.82165 
L 157.977152 325.92965 
L 168.20409 343.85765 
L 178.431029 343.85765 
L 188.657968 334.89365 
L 198.884907 308.00165 
L 209.111845 290.07365 
L 219.338784 281.10965 
L 229.565723 370.74965 
L 239.792662 299.03765 
L 250.019601 290.07365 
L 260.246539 200.43365 
L 270.473478 164.57765 
L 280.700417 352.82165 
L 290.927356 290.07365 
L 301.154294 299.03765 
L 311.381233 209.39765 
L 321.608172 155.61365 
L 331.835111 299.03765 
L 342.062049 209.39765 
L 352.288988 236.28965 
L 362.515927 209.39765 
L 372.742866 245.25365 
L 382.969805 164.57765 
L 393.196743 83.90165 
L 403.423682 146.64965 
L 413.650621 227.32565 
L 423.87756 236.28965 
L 434.104498 164.57765 
L 444.331437 245.25365 
L 454.558376 245.25365 
L 464.785315 182.50565 
L 475.012254 182.50565 
L 485.239192 236.28965 
L 495.466131 227.32565 
L 505.69307 173.54165 
L 515.920009 74.93765 
L 526.146947 101.82965 
L 536.373886 254.21765 
L 546.600825 299.03765 
" style="fill:none;"/>
   </g>
   <g id="patch_3">
    <path d="M 45.480825 57.00965 
L 546.600825 57.00965 
" style="fill:none;stroke:#f0f0f0;stroke-linecap:square;stroke-linejoin:miter;stroke-width:3.0;"/>
   </g>
   <g id="patch_4">
    <path d="M 546.600825 415.56965 
L 546.600825 57.00965 
" style="fill:none;stroke:#f0f0f0;stroke-linecap:square;stroke-linejoin:miter;stroke-width:3.0;"/>
   </g>
   <g id="patch_5">
    <path d="M 45.480825 415.56965 
L 546.600825 415.56965 
" style="fill:none;stroke:#f0f0f0;stroke-linecap:square;stroke-linejoin:miter;stroke-width:3.0;"/>
   </g>
   <g id="patch_6">
    <path d="M 45.480825 415.56965 
L 45.480825 57.00965 
" style="fill:none;stroke:#f0f0f0;stroke-linecap:square;stroke-linejoin:miter;stroke-width:3.0;"/>
   </g>
   <g id="text_16">
    <!-- Nombre de CDD et CDI en fonction du niveau de diplôme -->
    <defs>
     <path id="BitstreamVeraSans-Roman-20"/>
     <path d="M 19.671875 64.796875 
L 19.671875 8.109375 
L 31.59375 8.109375 
Q 46.6875 8.109375 53.6875 14.9375 
Q 60.6875 21.78125 60.6875 36.53125 
Q 60.6875 51.171875 53.6875 57.984375 
Q 46.6875 64.796875 31.59375 64.796875 
z
M 9.8125 72.90625 
L 30.078125 72.90625 
Q 51.265625 72.90625 61.171875 64.09375 
Q 71.09375 55.28125 71.09375 36.53125 
Q 71.09375 17.671875 61.125 8.828125 
Q 51.171875 0 30.078125 0 
L 9.8125 0 
z
" id="BitstreamVeraSans-Roman-44"/>
     <path d="M 9.421875 54.6875 
L 18.40625 54.6875 
L 18.40625 0 
L 9.421875 0 
z
M 9.421875 75.984375 
L 18.40625 75.984375 
L 18.40625 64.59375 
L 9.421875 64.59375 
z
" id="BitstreamVeraSans-Roman-69"/>
     <path d="M 56.203125 29.59375 
L 56.203125 25.203125 
L 14.890625 25.203125 
Q 15.484375 15.921875 20.484375 11.0625 
Q 25.484375 6.203125 34.421875 6.203125 
Q 39.59375 6.203125 44.453125 7.46875 
Q 49.3125 8.734375 54.109375 11.28125 
L 54.109375 2.78125 
Q 49.265625 0.734375 44.1875 -0.34375 
Q 39.109375 -1.421875 33.890625 -1.421875 
Q 20.796875 -1.421875 13.15625 6.1875 
Q 5.515625 13.8125 5.515625 26.8125 
Q 5.515625 40.234375 12.765625 48.109375 
Q 20.015625 56 32.328125 56 
Q 43.359375 56 49.78125 48.890625 
Q 56.203125 41.796875 56.203125 29.59375 
M 47.21875 32.234375 
Q 47.125 39.59375 43.09375 43.984375 
Q 39.0625 48.390625 32.421875 48.390625 
Q 24.90625 48.390625 20.390625 44.140625 
Q 15.875 39.890625 15.1875 32.171875 
z
" id="BitstreamVeraSans-Roman-65"/>
     <path d="M 45.40625 46.390625 
L 45.40625 75.984375 
L 54.390625 75.984375 
L 54.390625 0 
L 45.40625 0 
L 45.40625 8.203125 
Q 42.578125 3.328125 38.25 0.953125 
Q 33.9375 -1.421875 27.875 -1.421875 
Q 17.96875 -1.421875 11.734375 6.484375 
Q 5.515625 14.40625 5.515625 27.296875 
Q 5.515625 40.1875 11.734375 48.09375 
Q 17.96875 56 27.875 56 
Q 33.9375 56 38.25 53.625 
Q 42.578125 51.265625 45.40625 46.390625 
M 14.796875 27.296875 
Q 14.796875 17.390625 18.875 11.75 
Q 22.953125 6.109375 30.078125 6.109375 
Q 37.203125 6.109375 41.296875 11.75 
Q 45.40625 17.390625 45.40625 27.296875 
Q 45.40625 37.203125 41.296875 42.84375 
Q 37.203125 48.484375 30.078125 48.484375 
Q 22.953125 48.484375 18.875 42.84375 
Q 14.796875 37.203125 14.796875 27.296875 
" id="BitstreamVeraSans-Roman-64"/>
     <path d="M 37.109375 75.984375 
L 37.109375 68.5 
L 28.515625 68.5 
Q 23.6875 68.5 21.796875 66.546875 
Q 19.921875 64.59375 19.921875 59.515625 
L 19.921875 54.6875 
L 34.71875 54.6875 
L 34.71875 47.703125 
L 19.921875 47.703125 
L 19.921875 0 
L 10.890625 0 
L 10.890625 47.703125 
L 2.296875 47.703125 
L 2.296875 54.6875 
L 10.890625 54.6875 
L 10.890625 58.5 
Q 10.890625 67.625 15.140625 71.796875 
Q 19.390625 75.984375 28.609375 75.984375 
z
" id="BitstreamVeraSans-Roman-66"/>
     <path d="M 34.28125 27.484375 
Q 23.390625 27.484375 19.1875 25 
Q 14.984375 22.515625 14.984375 16.5 
Q 14.984375 11.71875 18.140625 8.90625 
Q 21.296875 6.109375 26.703125 6.109375 
Q 34.1875 6.109375 38.703125 11.40625 
Q 43.21875 16.703125 43.21875 25.484375 
L 43.21875 27.484375 
z
M 52.203125 31.203125 
L 52.203125 0 
L 43.21875 0 
L 43.21875 8.296875 
Q 40.140625 3.328125 35.546875 0.953125 
Q 30.953125 -1.421875 24.3125 -1.421875 
Q 15.921875 -1.421875 10.953125 3.296875 
Q 6 8.015625 6 15.921875 
Q 6 25.140625 12.171875 29.828125 
Q 18.359375 34.515625 30.609375 34.515625 
L 43.21875 34.515625 
L 43.21875 35.40625 
Q 43.21875 41.609375 39.140625 45 
Q 35.0625 48.390625 27.6875 48.390625 
Q 23 48.390625 18.546875 47.265625 
Q 14.109375 46.140625 10.015625 43.890625 
L 10.015625 52.203125 
Q 14.9375 54.109375 19.578125 55.046875 
Q 24.21875 56 28.609375 56 
Q 40.484375 56 46.34375 49.84375 
Q 52.203125 43.703125 52.203125 31.203125 
" id="BitstreamVeraSans-Roman-61"/>
     <path d="M 48.78125 52.59375 
L 48.78125 44.1875 
Q 44.96875 46.296875 41.140625 47.34375 
Q 37.3125 48.390625 33.40625 48.390625 
Q 24.65625 48.390625 19.8125 42.84375 
Q 14.984375 37.3125 14.984375 27.296875 
Q 14.984375 17.28125 19.8125 11.734375 
Q 24.65625 6.203125 33.40625 6.203125 
Q 37.3125 6.203125 41.140625 7.25 
Q 44.96875 8.296875 48.78125 10.40625 
L 48.78125 2.09375 
Q 45.015625 0.34375 40.984375 -0.53125 
Q 36.96875 -1.421875 32.421875 -1.421875 
Q 20.0625 -1.421875 12.78125 6.34375 
Q 5.515625 14.109375 5.515625 27.296875 
Q 5.515625 40.671875 12.859375 48.328125 
Q 20.21875 56 33.015625 56 
Q 37.15625 56 41.109375 55.140625 
Q 45.0625 54.296875 48.78125 52.59375 
" id="BitstreamVeraSans-Roman-63"/>
     <path d="M 48.6875 27.296875 
Q 48.6875 37.203125 44.609375 42.84375 
Q 40.53125 48.484375 33.40625 48.484375 
Q 26.265625 48.484375 22.1875 42.84375 
Q 18.109375 37.203125 18.109375 27.296875 
Q 18.109375 17.390625 22.1875 11.75 
Q 26.265625 6.109375 33.40625 6.109375 
Q 40.53125 6.109375 44.609375 11.75 
Q 48.6875 17.390625 48.6875 27.296875 
M 18.109375 46.390625 
Q 20.953125 51.265625 25.265625 53.625 
Q 29.59375 56 35.59375 56 
Q 45.5625 56 51.78125 48.09375 
Q 58.015625 40.1875 58.015625 27.296875 
Q 58.015625 14.40625 51.78125 6.484375 
Q 45.5625 -1.421875 35.59375 -1.421875 
Q 29.59375 -1.421875 25.265625 0.953125 
Q 20.953125 3.328125 18.109375 8.203125 
L 18.109375 0 
L 9.078125 0 
L 9.078125 75.984375 
L 18.109375 75.984375 
z
" id="BitstreamVeraSans-Roman-62"/>
     <path d="M 9.8125 72.90625 
L 19.671875 72.90625 
L 19.671875 0 
L 9.8125 0 
z
" id="BitstreamVeraSans-Roman-49"/>
     <path d="M 9.8125 72.90625 
L 23.09375 72.90625 
L 55.421875 11.921875 
L 55.421875 72.90625 
L 64.984375 72.90625 
L 64.984375 0 
L 51.703125 0 
L 19.390625 60.984375 
L 19.390625 0 
L 9.8125 0 
z
" id="BitstreamVeraSans-Roman-4e"/>
     <path d="M 54.890625 33.015625 
L 54.890625 0 
L 45.90625 0 
L 45.90625 32.71875 
Q 45.90625 40.484375 42.875 44.328125 
Q 39.84375 48.1875 33.796875 48.1875 
Q 26.515625 48.1875 22.3125 43.546875 
Q 18.109375 38.921875 18.109375 30.90625 
L 18.109375 0 
L 9.078125 0 
L 9.078125 54.6875 
L 18.109375 54.6875 
L 18.109375 46.1875 
Q 21.34375 51.125 25.703125 53.5625 
Q 30.078125 56 35.796875 56 
Q 45.21875 56 50.046875 50.171875 
Q 54.890625 44.34375 54.890625 33.015625 
" id="BitstreamVeraSans-Roman-6e"/>
     <path d="M 52 44.1875 
Q 55.375 50.25 60.0625 53.125 
Q 64.75 56 71.09375 56 
Q 79.640625 56 84.28125 50.015625 
Q 88.921875 44.046875 88.921875 33.015625 
L 88.921875 0 
L 79.890625 0 
L 79.890625 32.71875 
Q 79.890625 40.578125 77.09375 44.375 
Q 74.3125 48.1875 68.609375 48.1875 
Q 61.625 48.1875 57.5625 43.546875 
Q 53.515625 38.921875 53.515625 30.90625 
L 53.515625 0 
L 44.484375 0 
L 44.484375 32.71875 
Q 44.484375 40.625 41.703125 44.40625 
Q 38.921875 48.1875 33.109375 48.1875 
Q 26.21875 48.1875 22.15625 43.53125 
Q 18.109375 38.875 18.109375 30.90625 
L 18.109375 0 
L 9.078125 0 
L 9.078125 54.6875 
L 18.109375 54.6875 
L 18.109375 46.1875 
Q 21.1875 51.21875 25.484375 53.609375 
Q 29.78125 56 35.6875 56 
Q 41.65625 56 45.828125 52.96875 
Q 50 49.953125 52 44.1875 
" id="BitstreamVeraSans-Roman-6d"/>
     <path d="M 30.609375 48.390625 
Q 23.390625 48.390625 19.1875 42.75 
Q 14.984375 37.109375 14.984375 27.296875 
Q 14.984375 17.484375 19.15625 11.84375 
Q 23.34375 6.203125 30.609375 6.203125 
Q 37.796875 6.203125 41.984375 11.859375 
Q 46.1875 17.53125 46.1875 27.296875 
Q 46.1875 37.015625 41.984375 42.703125 
Q 37.796875 48.390625 30.609375 48.390625 
M 30.609375 56 
Q 42.328125 56 49.015625 48.375 
Q 55.71875 40.765625 55.71875 27.296875 
Q 55.71875 13.875 49.015625 6.21875 
Q 42.328125 -1.421875 30.609375 -1.421875 
Q 18.84375 -1.421875 12.171875 6.21875 
Q 5.515625 13.875 5.515625 27.296875 
Q 5.515625 40.765625 12.171875 48.375 
Q 18.84375 56 30.609375 56 
" id="BitstreamVeraSans-Roman-6f"/>
     <path d="M 9.421875 75.984375 
L 18.40625 75.984375 
L 18.40625 0 
L 9.421875 0 
z
" id="BitstreamVeraSans-Roman-6c"/>
     <path d="M 2.984375 54.6875 
L 12.5 54.6875 
L 29.59375 8.796875 
L 46.6875 54.6875 
L 56.203125 54.6875 
L 35.6875 0 
L 23.484375 0 
z
" id="BitstreamVeraSans-Roman-76"/>
     <path d="M 18.3125 70.21875 
L 18.3125 54.6875 
L 36.8125 54.6875 
L 36.8125 47.703125 
L 18.3125 47.703125 
L 18.3125 18.015625 
Q 18.3125 11.328125 20.140625 9.421875 
Q 21.96875 7.515625 27.59375 7.515625 
L 36.8125 7.515625 
L 36.8125 0 
L 27.59375 0 
Q 17.1875 0 13.234375 3.875 
Q 9.28125 7.765625 9.28125 18.015625 
L 9.28125 47.703125 
L 2.6875 47.703125 
L 2.6875 54.6875 
L 9.28125 54.6875 
L 9.28125 70.21875 
z
" id="BitstreamVeraSans-Roman-74"/>
     <path d="M 8.5 21.578125 
L 8.5 54.6875 
L 17.484375 54.6875 
L 17.484375 21.921875 
Q 17.484375 14.15625 20.5 10.265625 
Q 23.53125 6.390625 29.59375 6.390625 
Q 36.859375 6.390625 41.078125 11.03125 
Q 45.3125 15.671875 45.3125 23.6875 
L 45.3125 54.6875 
L 54.296875 54.6875 
L 54.296875 0 
L 45.3125 0 
L 45.3125 8.40625 
Q 42.046875 3.421875 37.71875 1 
Q 33.40625 -1.421875 27.6875 -1.421875 
Q 18.265625 -1.421875 13.375 4.4375 
Q 8.5 10.296875 8.5 21.578125 
" id="BitstreamVeraSans-Roman-75"/>
     <path d="M 41.109375 46.296875 
Q 39.59375 47.171875 37.8125 47.578125 
Q 36.03125 48 33.890625 48 
Q 26.265625 48 22.1875 43.046875 
Q 18.109375 38.09375 18.109375 28.8125 
L 18.109375 0 
L 9.078125 0 
L 9.078125 54.6875 
L 18.109375 54.6875 
L 18.109375 46.1875 
Q 20.953125 51.171875 25.484375 53.578125 
Q 30.03125 56 36.53125 56 
Q 37.453125 56 38.578125 55.875 
Q 39.703125 55.765625 41.0625 55.515625 
z
" id="BitstreamVeraSans-Roman-72"/>
     <path d="M 18.109375 8.203125 
L 18.109375 -20.796875 
L 9.078125 -20.796875 
L 9.078125 54.6875 
L 18.109375 54.6875 
L 18.109375 46.390625 
Q 20.953125 51.265625 25.265625 53.625 
Q 29.59375 56 35.59375 56 
Q 45.5625 56 51.78125 48.09375 
Q 58.015625 40.1875 58.015625 27.296875 
Q 58.015625 14.40625 51.78125 6.484375 
Q 45.5625 -1.421875 35.59375 -1.421875 
Q 29.59375 -1.421875 25.265625 0.953125 
Q 20.953125 3.328125 18.109375 8.203125 
M 48.6875 27.296875 
Q 48.6875 37.203125 44.609375 42.84375 
Q 40.53125 48.484375 33.40625 48.484375 
Q 26.265625 48.484375 22.1875 42.84375 
Q 18.109375 37.203125 18.109375 27.296875 
Q 18.109375 17.390625 22.1875 11.75 
Q 26.265625 6.109375 33.40625 6.109375 
Q 40.53125 6.109375 44.609375 11.75 
Q 48.6875 17.390625 48.6875 27.296875 
" id="BitstreamVeraSans-Roman-70"/>
     <path d="M 30.609375 48.390625 
Q 23.390625 48.390625 19.1875 42.75 
Q 14.984375 37.109375 14.984375 27.296875 
Q 14.984375 17.484375 19.15625 11.84375 
Q 23.34375 6.203125 30.609375 6.203125 
Q 37.796875 6.203125 41.984375 11.859375 
Q 46.1875 17.53125 46.1875 27.296875 
Q 46.1875 37.015625 41.984375 42.703125 
Q 37.796875 48.390625 30.609375 48.390625 
M 30.609375 56 
Q 42.328125 56 49.015625 48.375 
Q 55.71875 40.765625 55.71875 27.296875 
Q 55.71875 13.875 49.015625 6.21875 
Q 42.328125 -1.421875 30.609375 -1.421875 
Q 18.84375 -1.421875 12.171875 6.21875 
Q 5.515625 13.875 5.515625 27.296875 
Q 5.515625 40.765625 12.171875 48.375 
Q 18.84375 56 30.609375 56 
M 27.015625 79.984375 
L 34.234375 79.984375 
L 46.203125 61.625 
L 39.421875 61.625 
L 30.625 73.578125 
L 21.84375 61.625 
L 15.046875 61.625 
z
" id="BitstreamVeraSans-Roman-f4"/>
     <path d="M 64.40625 67.28125 
L 64.40625 56.890625 
Q 59.421875 61.53125 53.78125 63.8125 
Q 48.140625 66.109375 41.796875 66.109375 
Q 29.296875 66.109375 22.65625 58.46875 
Q 16.015625 50.828125 16.015625 36.375 
Q 16.015625 21.96875 22.65625 14.328125 
Q 29.296875 6.6875 41.796875 6.6875 
Q 48.140625 6.6875 53.78125 8.984375 
Q 59.421875 11.28125 64.40625 15.921875 
L 64.40625 5.609375 
Q 59.234375 2.09375 53.4375 0.328125 
Q 47.65625 -1.421875 41.21875 -1.421875 
Q 24.65625 -1.421875 15.125 8.703125 
Q 5.609375 18.84375 5.609375 36.375 
Q 5.609375 53.953125 15.125 64.078125 
Q 24.65625 74.21875 41.21875 74.21875 
Q 47.75 74.21875 53.53125 72.484375 
Q 59.328125 70.75 64.40625 67.28125 
" id="BitstreamVeraSans-Roman-43"/>
    </defs>
    <g transform="translate(7.2 23.32485)scale(0.2016 -0.2016)">
     <use xlink:href="#BitstreamVeraSans-Roman-4e"/>
     <use x="74.8046875" xlink:href="#BitstreamVeraSans-Roman-6f"/>
     <use x="135.986328125" xlink:href="#BitstreamVeraSans-Roman-6d"/>
     <use x="233.3984375" xlink:href="#BitstreamVeraSans-Roman-62"/>
     <use x="296.875" xlink:href="#BitstreamVeraSans-Roman-72"/>
     <use x="337.95703125" xlink:href="#BitstreamVeraSans-Roman-65"/>
     <use x="399.48046875" xlink:href="#BitstreamVeraSans-Roman-20"/>
     <use x="431.267578125" xlink:href="#BitstreamVeraSans-Roman-64"/>
     <use x="494.744140625" xlink:href="#BitstreamVeraSans-Roman-65"/>
     <use x="556.267578125" xlink:href="#BitstreamVeraSans-Roman-20"/>
     <use x="588.0546875" xlink:href="#BitstreamVeraSans-Roman-43"/>
     <use x="657.87890625" xlink:href="#BitstreamVeraSans-Roman-44"/>
     <use x="734.880859375" xlink:href="#BitstreamVeraSans-Roman-44"/>
     <use x="811.8828125" xlink:href="#BitstreamVeraSans-Roman-20"/>
     <use x="843.669921875" xlink:href="#BitstreamVeraSans-Roman-65"/>
     <use x="905.193359375" xlink:href="#BitstreamVeraSans-Roman-74"/>
     <use x="944.40234375" xlink:href="#BitstreamVeraSans-Roman-20"/>
     <use x="976.189453125" xlink:href="#BitstreamVeraSans-Roman-43"/>
     <use x="1046.01367188" xlink:href="#BitstreamVeraSans-Roman-44"/>
     <use x="1123.015625" xlink:href="#BitstreamVeraSans-Roman-49"/>
     <use x="1152.5078125" xlink:href="#BitstreamVeraSans-Roman-20"/>
     <use x="1184.29492188" xlink:href="#BitstreamVeraSans-Roman-65"/>
     <use x="1245.81835938" xlink:href="#BitstreamVeraSans-Roman-6e"/>
     <use x="1309.19726562" xlink:href="#BitstreamVeraSans-Roman-20"/>
     <use x="1340.984375" xlink:href="#BitstreamVeraSans-Roman-66"/>
     <use x="1376.18945312" xlink:href="#BitstreamVeraSans-Roman-6f"/>
     <use x="1437.37109375" xlink:href="#BitstreamVeraSans-Roman-6e"/>
     <use x="1500.75" xlink:href="#BitstreamVeraSans-Roman-63"/>
     <use x="1555.73046875" xlink:href="#BitstreamVeraSans-Roman-74"/>
     <use x="1594.93945312" xlink:href="#BitstreamVeraSans-Roman-69"/>
     <use x="1622.72265625" xlink:href="#BitstreamVeraSans-Roman-6f"/>
     <use x="1683.90429688" xlink:href="#BitstreamVeraSans-Roman-6e"/>
     <use x="1747.28320312" xlink:href="#BitstreamVeraSans-Roman-20"/>
     <use x="1779.0703125" xlink:href="#BitstreamVeraSans-Roman-64"/>
     <use x="1842.546875" xlink:href="#BitstreamVeraSans-Roman-75"/>
     <use x="1905.92578125" xlink:href="#BitstreamVeraSans-Roman-20"/>
     <use x="1937.71289062" xlink:href="#BitstreamVeraSans-Roman-6e"/>
     <use x="2001.09179688" xlink:href="#BitstreamVeraSans-Roman-69"/>
     <use x="2028.875" xlink:href="#BitstreamVeraSans-Roman-76"/>
     <use x="2088.0546875" xlink:href="#BitstreamVeraSans-Roman-65"/>
     <use x="2149.578125" xlink:href="#BitstreamVeraSans-Roman-61"/>
     <use x="2210.85742188" xlink:href="#BitstreamVeraSans-Roman-75"/>
     <use x="2274.23632812" xlink:href="#BitstreamVeraSans-Roman-20"/>
     <use x="2306.0234375" xlink:href="#BitstreamVeraSans-Roman-64"/>
     <use x="2369.5" xlink:href="#BitstreamVeraSans-Roman-65"/>
     <use x="2431.0234375" xlink:href="#BitstreamVeraSans-Roman-20"/>
     <use x="2462.81054688" xlink:href="#BitstreamVeraSans-Roman-64"/>
     <use x="2526.28710938" xlink:href="#BitstreamVeraSans-Roman-69"/>
     <use x="2554.0703125" xlink:href="#BitstreamVeraSans-Roman-70"/>
     <use x="2617.546875" xlink:href="#BitstreamVeraSans-Roman-6c"/>
     <use x="2645.33007812" xlink:href="#BitstreamVeraSans-Roman-f4"/>
     <use x="2706.51171875" xlink:href="#BitstreamVeraSans-Roman-6d"/>
     <use x="2803.92382812" xlink:href="#BitstreamVeraSans-Roman-65"/>
    </g>
   </g>
   <g id="legend_1">
    <g id="patch_7">
     <path d="M 57.240825 141.717525 
L 168.372825 141.717525 
Q 171.732825 141.717525 171.732825 138.357525 
L 171.732825 68.76965 
Q 171.732825 65.40965 168.372825 65.40965 
L 57.240825 65.40965 
Q 53.880825 65.40965 53.880825 68.76965 
L 53.880825 138.357525 
Q 53.880825 141.717525 57.240825 141.717525 
z
" style="fill:#f0f0f0;"/>
    </g>
    <g id="text_17">
     <!-- Niveau -->
     <g transform="translate(88.4490125 82.7674625)scale(0.14 -0.14)">
      <use xlink:href="#BitstreamVeraSans-Roman-4e"/>
      <use x="74.8046875" xlink:href="#BitstreamVeraSans-Roman-69"/>
      <use x="102.587890625" xlink:href="#BitstreamVeraSans-Roman-76"/>
      <use x="161.767578125" xlink:href="#BitstreamVeraSans-Roman-65"/>
      <use x="223.291015625" xlink:href="#BitstreamVeraSans-Roman-61"/>
      <use x="284.5703125" xlink:href="#BitstreamVeraSans-Roman-75"/>
     </g>
    </g>
    <g id="patch_8">
     <path d="M 60.600825 106.8444 
L 94.200825 106.8444 
L 94.200825 95.0844 
L 60.600825 95.0844 
z
" style="fill:#ffa500;"/>
    </g>
    <g id="text_18">
     <!-- Master -->
     <defs>
      <path d="M 9.8125 72.90625 
L 24.515625 72.90625 
L 43.109375 23.296875 
L 61.8125 72.90625 
L 76.515625 72.90625 
L 76.515625 0 
L 66.890625 0 
L 66.890625 64.015625 
L 48.09375 14.015625 
L 38.1875 14.015625 
L 19.390625 64.015625 
L 19.390625 0 
L 9.8125 0 
z
" id="BitstreamVeraSans-Roman-4d"/>
      <path d="M 44.28125 53.078125 
L 44.28125 44.578125 
Q 40.484375 46.53125 36.375 47.5 
Q 32.28125 48.484375 27.875 48.484375 
Q 21.1875 48.484375 17.84375 46.4375 
Q 14.5 44.390625 14.5 40.28125 
Q 14.5 37.15625 16.890625 35.375 
Q 19.28125 33.59375 26.515625 31.984375 
L 29.59375 31.296875 
Q 39.15625 29.25 43.1875 25.515625 
Q 47.21875 21.78125 47.21875 15.09375 
Q 47.21875 7.46875 41.1875 3.015625 
Q 35.15625 -1.421875 24.609375 -1.421875 
Q 20.21875 -1.421875 15.453125 -0.5625 
Q 10.6875 0.296875 5.421875 2 
L 5.421875 11.28125 
Q 10.40625 8.6875 15.234375 7.390625 
Q 20.0625 6.109375 24.8125 6.109375 
Q 31.15625 6.109375 34.5625 8.28125 
Q 37.984375 10.453125 37.984375 14.40625 
Q 37.984375 18.0625 35.515625 20.015625 
Q 33.0625 21.96875 24.703125 23.78125 
L 21.578125 24.515625 
Q 13.234375 26.265625 9.515625 29.90625 
Q 5.8125 33.546875 5.8125 39.890625 
Q 5.8125 47.609375 11.28125 51.796875 
Q 16.75 56 26.8125 56 
Q 31.78125 56 36.171875 55.265625 
Q 40.578125 54.546875 44.28125 53.078125 
" id="BitstreamVeraSans-Roman-73"/>
     </defs>
     <g transform="translate(107.640825 106.8444)scale(0.168 -0.168)">
      <use xlink:href="#BitstreamVeraSans-Roman-4d"/>
      <use x="86.279296875" xlink:href="#BitstreamVeraSans-Roman-61"/>
      <use x="147.55859375" xlink:href="#BitstreamVeraSans-Roman-73"/>
      <use x="199.658203125" xlink:href="#BitstreamVeraSans-Roman-74"/>
      <use x="238.8671875" xlink:href="#BitstreamVeraSans-Roman-65"/>
      <use x="300.390625" xlink:href="#BitstreamVeraSans-Roman-72"/>
     </g>
    </g>
    <g id="patch_9">
     <path d="M 60.600825 131.50365 
L 94.200825 131.50365 
L 94.200825 119.74365 
L 60.600825 119.74365 
z
" style="fill:#deb887;"/>
    </g>
    <g id="text_19">
     <!-- PhD -->
     <defs>
      <path d="M 19.671875 64.796875 
L 19.671875 37.40625 
L 32.078125 37.40625 
Q 38.96875 37.40625 42.71875 40.96875 
Q 46.484375 44.53125 46.484375 51.125 
Q 46.484375 57.671875 42.71875 61.234375 
Q 38.96875 64.796875 32.078125 64.796875 
z
M 9.8125 72.90625 
L 32.078125 72.90625 
Q 44.34375 72.90625 50.609375 67.359375 
Q 56.890625 61.8125 56.890625 51.125 
Q 56.890625 40.328125 50.609375 34.8125 
Q 44.34375 29.296875 32.078125 29.296875 
L 19.671875 29.296875 
L 19.671875 0 
L 9.8125 0 
z
" id="BitstreamVeraSans-Roman-50"/>
      <path d="M 54.890625 33.015625 
L 54.890625 0 
L 45.90625 0 
L 45.90625 32.71875 
Q 45.90625 40.484375 42.875 44.328125 
Q 39.84375 48.1875 33.796875 48.1875 
Q 26.515625 48.1875 22.3125 43.546875 
Q 18.109375 38.921875 18.109375 30.90625 
L 18.109375 0 
L 9.078125 0 
L 9.078125 75.984375 
L 18.109375 75.984375 
L 18.109375 46.1875 
Q 21.34375 51.125 25.703125 53.5625 
Q 30.078125 56 35.796875 56 
Q 45.21875 56 50.046875 50.171875 
Q 54.890625 44.34375 54.890625 33.015625 
" id="BitstreamVeraSans-Roman-68"/>
     </defs>
     <g transform="translate(107.640825 131.50365)scale(0.168 -0.168)">
      <use xlink:href="#BitstreamVeraSans-Roman-50"/>
      <use x="60.302734375" xlink:href="#BitstreamVeraSans-Roman-68"/>
      <use x="123.681640625" xlink:href="#BitstreamVeraSans-Roman-44"/>
     </g>
    </g>
   </g>
  </g>
 </g>
 <defs>
  <clipPath id="pe7968e0b62">
   <rect height="358.56" width="501.12" x="45.480825" y="57.00965"/>
  </clipPath>
 </defs>
</svg>
